<?xml version="1.0" encoding="UTF-8" standalone="no"?>
<svg
   width="68"
   height="68"
   viewBox="0 0 17.991665 17.991665"
   version="1.1"
   id="svg1114"
   inkscape:version="1.3.2 (091e20ef0f, 2023-11-25)"
   sodipodi:docname="Aretha.svg"
   xmlns:inkscape="http://www.inkscape.org/namespaces/inkscape"
   xmlns:sodipodi="http://sodipodi.sourceforge.net/DTD/sodipodi-0.dtd"
   xmlns:xlink="http://www.w3.org/1999/xlink"
   xmlns="http://www.w3.org/2000/svg"
   xmlns:svg="http://www.w3.org/2000/svg"
   xmlns:rdf="http://www.w3.org/1999/02/22-rdf-syntax-ns#"
   xmlns:cc="http://creativecommons.org/ns#"
   xmlns:dc="http://purl.org/dc/elements/1.1/">
  <style
     type="text/css"
     id="current-color-scheme">.ColorScheme-Highlight { color:#5599ff; }
</style>
  <defs
     id="defs1108">
    <linearGradient
       inkscape:collect="always"
       id="linearGradient11">
      <stop
         style="stop-color:#d48ed7;stop-opacity:1;"
         offset="0"
         id="stop10" />
      <stop
         style="stop-color:#5599ff;stop-opacity:1;"
         offset="1"
         id="stop11" />
    </linearGradient>
    <linearGradient
       id="linearGradient9"
       inkscape:collect="always">
      <stop
         style="stop-color:#ffffff;stop-opacity:0;"
         offset="0"
         id="stop1" />
      <stop
         id="stop8"
         offset="0.67097157"
         style="stop-color:#ffffff;stop-opacity:0" />
      <stop
         style="stop-color:#ffffff;stop-opacity:1;"
         offset="1"
         id="stop9" />
    </linearGradient>
    <linearGradient
       id="linearGradient7"
       inkscape:collect="always">
      <stop
         style="stop-color:#000000;stop-opacity:0;"
         offset="0"
         id="stop5" />
      <stop
         id="stop6"
         offset="0.6586886"
         style="stop-color:#000000;stop-opacity:0" />
      <stop
         style="stop-color:#000000;stop-opacity:1;"
         offset="1"
         id="stop7" />
    </linearGradient>
    <linearGradient
       id="linearGradient4"
       inkscape:collect="always">
      <stop
         style="stop-color:#000000;stop-opacity:0;"
         offset="0"
         id="stop2" />
      <stop
         id="stop3"
         offset="0.67055255"
         style="stop-color:#000000;stop-opacity:0" />
      <stop
         style="stop-color:#000000;stop-opacity:1;"
         offset="1"
         id="stop4" />
    </linearGradient>
    <linearGradient
       id="linearGradient1167"
       x1="40.751999"
       x2="40.751999"
       y1="28.507999"
       y2="17.205999"
       gradientUnits="userSpaceOnUse">
      <stop
         style="stop-color:#84fb6e;stop-opacity:1"
         stop-color="#0ab816"
         offset="0"
         id="stop1163" />
      <stop
         style="stop-color:#0dd41a;stop-opacity:1"
         stop-color="#0cf36c"
         offset="1"
         id="stop1165" />
    </linearGradient>
    <linearGradient
       id="cornerBevel"
       inkscape:collect="always">
      <stop
         style="stop-color:#000000;stop-opacity:0;"
         offset="0"
         id="stop2663" />
      <stop
         id="stop2671"
         offset="0.66666675"
         style="stop-color:#000000;stop-opacity:0" />
      <stop
         style="stop-color:#000000;stop-opacity:1;"
         offset="1"
         id="stop2661" />
    </linearGradient>
    <linearGradient
       id="bevel"
       inkscape:collect="always">
      <stop
         id="stop2685"
         offset="0"
         style="stop-color:#000000;stop-opacity:1;" />
      <stop
         id="stop2687"
         offset="1"
         style="stop-color:#000000;stop-opacity:0;" />
    </linearGradient>
    <linearGradient
       id="highlightCorner"
       inkscape:collect="always">
      <stop
         style="stop-color:#ffffff;stop-opacity:0;"
         offset="0"
         id="stop2613" />
      <stop
         id="stop2621"
         offset="0.66666669"
         style="stop-color:#ffffff;stop-opacity:0" />
      <stop
         style="stop-color:#ffffff;stop-opacity:1;"
         offset="1"
         id="stop2611" />
    </linearGradient>
    <linearGradient
       inkscape:collect="always"
       id="highlight">
      <stop
         style="stop-color:#ffffff;stop-opacity:1;"
         offset="0"
         id="stop2921" />
      <stop
         style="stop-color:#ffffff;stop-opacity:0;"
         offset="1"
         id="stop2923" />
    </linearGradient>
    <radialGradient
       inkscape:collect="always"
       xlink:href="#highlightCorner"
       id="radialGradient15"
       gradientUnits="userSpaceOnUse"
       gradientTransform="matrix(0.04294597,-12.079348,17.933991,0.06376112,14.524179,-50.373789)"
       cx="-4.5799766"
       cy="-0.50206107"
       fx="-4.5799766"
       fy="-0.50206107"
       r="0.39687499" />
    <linearGradient
       inkscape:collect="always"
       xlink:href="#highlight"
       id="linearGradient15"
       gradientUnits="userSpaceOnUse"
       x1="-3.8497722"
       y1="-1.1532172"
       x2="-3.8486557"
       y2="-0.89102554"
       gradientTransform="matrix(6.0923077,0,0,6.0923077,32.228528,7.1537621)" />
    <radialGradient
       inkscape:collect="always"
       xlink:href="#linearGradient9"
       id="radialGradient17"
       gradientUnits="userSpaceOnUse"
       gradientTransform="matrix(1.1757679e-4,-11.994067,-18.104833,-1.7749478e-4,1.6916469,-50.007179)"
       cx="-4.5775003"
       cy="-0.55256677"
       fx="-4.5775003"
       fy="-0.55256677"
       r="0.39687499" />
    <radialGradient
       inkscape:collect="always"
       xlink:href="#linearGradient7"
       id="radialGradient18"
       gradientUnits="userSpaceOnUse"
       gradientTransform="matrix(0.0232366,12.009662,17.933953,-0.03470102,14.426451,64.381084)"
       cx="-4.4256716"
       cy="-0.50045931"
       fx="-4.4256716"
       fy="-0.50045931"
       r="0.39687499" />
    <linearGradient
       inkscape:collect="always"
       xlink:href="#bevel"
       id="linearGradient18"
       gradientUnits="userSpaceOnUse"
       x1="-3.8447375"
       y1="-1.4538249"
       x2="-3.8438127"
       y2="-1.1952862"
       gradientTransform="matrix(6.0923076,0,0,6.0923076,32.228527,-7.1537627)" />
    <radialGradient
       inkscape:collect="always"
       xlink:href="#linearGradient4"
       id="radialGradient20"
       gradientUnits="userSpaceOnUse"
       gradientTransform="matrix(-0.01031383,11.991438,-17.967296,-0.01545561,1.7353715,64.305742)"
       cx="-4.4236727"
       cy="-0.55004197"
       fx="-4.4236727"
       fy="-0.55004197"
       r="0.39687499" />
    <radialGradient
       inkscape:collect="always"
       xlink:href="#cornerBevel"
       id="radialGradient25"
       gradientUnits="userSpaceOnUse"
       gradientTransform="matrix(12.184614,0,0,12.184614,59.63122,10.377613)"
       cx="-4.4568658"
       cy="-0.44864327"
       fx="-4.4568658"
       fy="-0.44864327"
       r="0.39687496" />
    <linearGradient
       inkscape:collect="always"
       xlink:href="#bevel"
       id="linearGradient25"
       gradientUnits="userSpaceOnUse"
       x1="-3.8487544"
       y1="-1.146081"
       x2="-3.8455966"
       y2="-0.890971"
       gradientTransform="matrix(6.0923077,0,0,6.0923077,32.228528,7.1537627)" />
    <radialGradient
       inkscape:collect="always"
       xlink:href="#cornerBevel"
       id="radialGradient29"
       gradientUnits="userSpaceOnUse"
       gradientTransform="matrix(0,-12.184614,12.184614,0,11.27353,-44.427768)"
       cx="-4.5705457"
       cy="-0.48653662"
       fx="-4.5705457"
       fy="-0.48653662"
       r="0.39687496" />
    <radialGradient
       inkscape:collect="always"
       xlink:href="#cornerBevel"
       id="radialGradient30"
       gradientUnits="userSpaceOnUse"
       gradientTransform="matrix(-12.184514,-0.04945749,0.04847411,-11.942243,-43.502155,3.8519053)"
       cx="-4.5342312"
       cy="-0.60337442"
       fx="-4.5342312"
       fy="-0.60337442"
       r="0.39687496" />
    <radialGradient
       inkscape:collect="always"
       xlink:href="#cornerBevel"
       id="radialGradient31"
       gradientUnits="userSpaceOnUse"
       gradientTransform="matrix(-0.06855274,-12.083057,11.978763,-0.06796103,18.172721,-48.506326)"
       cx="-4.4175329"
       cy="-0.56489283"
       fx="-4.4175329"
       fy="-0.56489283"
       r="0.39687496" />
    <linearGradient
       inkscape:collect="always"
       xlink:href="#bevel"
       id="linearGradient34"
       gradientUnits="userSpaceOnUse"
       x1="-3.99717"
       y1="-1.2218677"
       x2="-4.0003276"
       y2="-0.96675771"
       gradientTransform="matrix(6.0923077,0,0,6.0923077,17.025077,8.0496826)" />
    <linearGradient
       inkscape:collect="always"
       xlink:href="#bevel"
       id="linearGradient35"
       gradientUnits="userSpaceOnUse"
       x1="-4.0919032"
       y1="-1.4492278"
       x2="-4.0950613"
       y2="-1.1972755"
       gradientTransform="matrix(6.0923077,0,0,6.0923077,16.129161,-7.1537627)" />
    <linearGradient
       inkscape:collect="always"
       xlink:href="#bevel"
       id="linearGradient36"
       gradientUnits="userSpaceOnUse"
       x1="-3.8734362"
       y1="-1.3717227"
       x2="-3.8765941"
       y2="-1.116071"
       gradientTransform="matrix(6.0923077,0,0,6.0923077,31.33261,-8.0496826)" />
    <linearGradient
       id="paint2_linear_77:3-7"
       x1="79.398094"
       y1="-197.84389"
       x2="82.901054"
       y2="-199.97827"
       gradientUnits="userSpaceOnUse"
       gradientTransform="matrix(1.9248511,0,0,1.7314595,-40.88733,399.61741)">
      <stop
         stop-color="#EBFAFF"
         stop-opacity="0.1"
         id="stop29-5-7"
         offset="0"
         style="stop-color:#c3c3c3;stop-opacity:1;" />
      <stop
         offset="1"
         stop-color="#70A9FF"
         stop-opacity="0.5"
         id="stop30-0-1"
         style="stop-color:#05c7ff;stop-opacity:0.80000001;" />
    </linearGradient>
    <linearGradient
       inkscape:collect="always"
       xlink:href="#linearGradient11"
       id="linearGradient926"
       x1="1.8323618"
       y1="-14.945216"
       x2="15.613151"
       y2="-2.3418069"
       gradientUnits="userSpaceOnUse"
       gradientTransform="translate(-0.92604234,0.47624996)" />
    <clipPath
       clipPathUnits="userSpaceOnUse"
       id="clipPath2">
      <path
         d="M 0,841.89 H 595.276 V 0 H 0 Z"
         transform="translate(-392.64751,-332.11051)"
         id="path2" />
    </clipPath>
    <clipPath
       clipPathUnits="userSpaceOnUse"
       id="clipPath4">
      <path
         d="M 0,841.89 H 595.276 V 0 H 0 Z"
         transform="translate(-182.1094,-456.12851)"
         id="path4" />
    </clipPath>
    <clipPath
       clipPathUnits="userSpaceOnUse"
       id="clipPath6">
      <path
         d="M 0,841.89 H 595.276 V 0 H 0 Z"
         transform="translate(-333.34671,-416.10851)"
         id="path6" />
    </clipPath>
    <clipPath
       clipPathUnits="userSpaceOnUse"
       id="clipPath8">
      <path
         d="M 0,841.89 H 595.276 V 0 H 0 Z"
         transform="translate(-196.4268,-362.56161)"
         id="path8" />
    </clipPath>
    <clipPath
       clipPathUnits="userSpaceOnUse"
       id="clipPath10">
      <path
         d="M 0,841.89 H 595.276 V 0 H 0 Z"
         transform="translate(-521.88281,-330.00991)"
         id="path10" />
    </clipPath>
    <clipPath
       clipPathUnits="userSpaceOnUse"
       id="clipPath12">
      <path
         d="M 0,841.89 H 595.276 V 0 H 0 Z"
         transform="translate(-148.9849,-420.98301)"
         id="path12" />
    </clipPath>
    <clipPath
       clipPathUnits="userSpaceOnUse"
       id="clipPath14">
      <path
         d="M 0,841.89 H 595.276 V 0 H 0 Z"
         transform="translate(-446.02731,-482.42641)"
         id="path14-3" />
    </clipPath>
    <clipPath
       clipPathUnits="userSpaceOnUse"
       id="clipPath16">
      <path
         d="M 0,841.89 H 595.276 V 0 H 0 Z"
         transform="translate(-97.025905,-330.92301)"
         id="path16" />
    </clipPath>
    <clipPath
       clipPathUnits="userSpaceOnUse"
       id="clipPath18">
      <path
         d="M 0,841.89 H 595.276 V 0 H 0 Z"
         transform="translate(-300.98631,-225.8185)"
         id="path18" />
    </clipPath>
    <clipPath
       clipPathUnits="userSpaceOnUse"
       id="clipPath20">
      <path
         d="M 0,841.89 H 595.276 V 0 H 0 Z"
         transform="translate(-280.7935,-573.06802)"
         id="path20-6" />
    </clipPath>
    <clipPath
       clipPathUnits="userSpaceOnUse"
       id="clipPath22">
      <path
         d="M 0,841.89 H 595.276 V 0 H 0 Z"
         transform="translate(-311.46001,-583.62221)"
         id="path22" />
    </clipPath>
    <clipPath
       clipPathUnits="userSpaceOnUse"
       id="clipPath24">
      <path
         d="M 0,841.89 H 595.276 V 0 H 0 Z"
         transform="translate(-300.16111,-538.61002)"
         id="path24" />
    </clipPath>
    <clipPath
       clipPathUnits="userSpaceOnUse"
       id="clipPath26">
      <path
         d="M 0,841.89 H 595.276 V 0 H 0 Z"
         transform="translate(-300.82131,-498.29851)"
         id="path26" />
    </clipPath>
    <clipPath
       clipPathUnits="userSpaceOnUse"
       id="clipPath28">
      <path
         d="M 0,841.89 H 595.276 V 0 H 0 Z"
         transform="translate(-294.8755,-538.48402)"
         id="path28" />
    </clipPath>
    <clipPath
       clipPathUnits="userSpaceOnUse"
       id="clipPath30">
      <path
         d="M 0,841.89 H 595.276 V 0 H 0 Z"
         transform="translate(-302.11431,-606.34442)"
         id="path30" />
    </clipPath>
    <clipPath
       clipPathUnits="userSpaceOnUse"
       id="clipPath32">
      <path
         d="M 0,841.89 H 595.276 V 0 H 0 Z"
         transform="translate(-285.61471,-544.12811)"
         id="path32" />
    </clipPath>
    <clipPath
       clipPathUnits="userSpaceOnUse"
       id="clipPath34">
      <path
         d="M 0,841.89 H 595.276 V 0 H 0 Z"
         transform="translate(-306.63961,-544.13591)"
         id="path34" />
    </clipPath>
    <clipPath
       clipPathUnits="userSpaceOnUse"
       id="clipPath36">
      <path
         d="M 0,841.89 H 595.276 V 0 H 0 Z"
         transform="translate(-285.51321,-544.02991)"
         id="path36" />
    </clipPath>
    <clipPath
       clipPathUnits="userSpaceOnUse"
       id="clipPath38">
      <path
         d="M 0,841.89 H 595.276 V 0 H 0 Z"
         transform="translate(-306.55761,-544.21061)"
         id="path38" />
    </clipPath>
    <clipPath
       clipPathUnits="userSpaceOnUse"
       id="clipPath40">
      <path
         d="M 0,841.89 H 595.276 V 0 H 0 Z"
         transform="translate(-280.97311,-578.36392)"
         id="path40" />
    </clipPath>
    <clipPath
       clipPathUnits="userSpaceOnUse"
       id="clipPath42">
      <path
         d="M 0,841.89 H 595.276 V 0 H 0 Z"
         transform="translate(-299.2246,-580.09051)"
         id="path42" />
    </clipPath>
    <clipPath
       clipPathUnits="userSpaceOnUse"
       id="clipPath44">
      <path
         d="M 0,841.89 H 595.276 V 0 H 0 Z"
         transform="translate(-276.19431,-601.03922)"
         id="path44" />
    </clipPath>
    <clipPath
       clipPathUnits="userSpaceOnUse"
       id="clipPath46">
      <path
         d="M 0,841.89 H 595.276 V 0 H 0 Z"
         transform="translate(-279.1216,-558.42442)"
         id="path46" />
    </clipPath>
    <clipPath
       clipPathUnits="userSpaceOnUse"
       id="clipPath48">
      <path
         d="M 0,841.89 H 595.276 V 0 H 0 Z"
         transform="translate(-311.85551,-558.66322)"
         id="path48" />
    </clipPath>
    <clipPath
       clipPathUnits="userSpaceOnUse"
       id="clipPath50">
      <path
         d="M 0,841.89 H 595.276 V 0 H 0 Z"
         transform="translate(-338.15621,-589.36291)"
         id="path50" />
    </clipPath>
    <clipPath
       clipPathUnits="userSpaceOnUse"
       id="clipPath52">
      <path
         d="M 0,841.89 H 595.276 V 0 H 0 Z"
         transform="translate(-313.49901,-566.24041)"
         id="path52" />
    </clipPath>
    <clipPath
       clipPathUnits="userSpaceOnUse"
       id="clipPath54">
      <path
         d="M 0,841.89 H 595.276 V 0 H 0 Z"
         transform="translate(-258.3496,-592.94891)"
         id="path54" />
    </clipPath>
    <clipPath
       clipPathUnits="userSpaceOnUse"
       id="clipPath56">
      <path
         d="M 0,841.89 H 595.276 V 0 H 0 Z"
         transform="translate(-334.90721,-579.10561)"
         id="path56" />
    </clipPath>
    <clipPath
       clipPathUnits="userSpaceOnUse"
       id="clipPath58">
      <path
         d="M 0,841.89 H 595.276 V 0 H 0 Z"
         transform="translate(-266.3506,-602.49872)"
         id="path58" />
    </clipPath>
    <clipPath
       clipPathUnits="userSpaceOnUse"
       id="clipPath60">
      <path
         d="M 0,841.89 H 595.276 V 0 H 0 Z"
         transform="translate(-317.26561,-600.84532)"
         id="path60" />
    </clipPath>
    <clipPath
       clipPathUnits="userSpaceOnUse"
       id="clipPath62">
      <path
         d="M 0,841.89 H 595.276 V 0 H 0 Z"
         transform="translate(-333.87601,-571.24771)"
         id="path62" />
    </clipPath>
    <clipPath
       clipPathUnits="userSpaceOnUse"
       id="clipPath64">
      <path
         d="M 0,841.89 H 595.276 V 0 H 0 Z"
         transform="translate(-329.00291,-566.96152)"
         id="path64" />
    </clipPath>
    <clipPath
       clipPathUnits="userSpaceOnUse"
       id="clipPath66">
      <path
         d="M 0,841.89 H 595.276 V 0 H 0 Z"
         transform="translate(-284.68651,-554.83901)"
         id="path66" />
    </clipPath>
    <clipPath
       clipPathUnits="userSpaceOnUse"
       id="clipPath68">
      <path
         d="M 0,841.89 H 595.276 V 0 H 0 Z"
         transform="translate(-265.9561,-571.04212)"
         id="path68" />
    </clipPath>
    <clipPath
       clipPathUnits="userSpaceOnUse"
       id="clipPath70">
      <path
         d="M 0,841.89 H 595.276 V 0 H 0 Z"
         transform="translate(-282.59281,-600.66812)"
         id="path70" />
    </clipPath>
    <clipPath
       clipPathUnits="userSpaceOnUse"
       id="clipPath72">
      <path
         d="M 0,841.89 H 595.276 V 0 H 0 Z"
         transform="translate(-323.62991,-601.20422)"
         id="path72" />
    </clipPath>
    <clipPath
       clipPathUnits="userSpaceOnUse"
       id="clipPath74">
      <path
         d="M 0,841.89 H 595.276 V 0 H 0 Z"
         transform="translate(-304.40331,-557.14222)"
         id="path74" />
    </clipPath>
    <clipPath
       clipPathUnits="userSpaceOnUse"
       id="clipPath76">
      <path
         d="M 0,841.89 H 595.276 V 0 H 0 Z"
         transform="translate(-270.95461,-567.23692)"
         id="path76" />
    </clipPath>
    <clipPath
       clipPathUnits="userSpaceOnUse"
       id="clipPath78">
      <path
         d="M 0,841.89 H 595.276 V 0 H 0 Z"
         transform="translate(-330.44141,-590.74912)"
         id="path78" />
    </clipPath>
    <clipPath
       clipPathUnits="userSpaceOnUse"
       id="clipPath80">
      <path
         d="M 0,841.89 H 595.276 V 0 H 0 Z"
         transform="translate(-323.00981,-564.35171)"
         id="path80" />
    </clipPath>
    <clipPath
       clipPathUnits="userSpaceOnUse"
       id="clipPath82">
      <path
         d="M 0,841.89 H 595.276 V 0 H 0 Z"
         transform="translate(-261.06741,-591.58021)"
         id="path82" />
    </clipPath>
    <clipPath
       clipPathUnits="userSpaceOnUse"
       id="clipPath84">
      <path
         d="M 0,841.89 H 595.276 V 0 H 0 Z"
         transform="translate(-273.35251,-560.41372)"
         id="path84" />
    </clipPath>
    <clipPath
       clipPathUnits="userSpaceOnUse"
       id="clipPath86">
      <path
         d="M 0,841.89 H 595.276 V 0 H 0 Z"
         transform="translate(-257.04151,-586.63391)"
         id="path86" />
    </clipPath>
    <clipPath
       clipPathUnits="userSpaceOnUse"
       id="clipPath88">
      <path
         d="M 0,841.89 H 595.276 V 0 H 0 Z"
         transform="translate(-329.63481,-598.84681)"
         id="path88" />
    </clipPath>
    <clipPath
       clipPathUnits="userSpaceOnUse"
       id="clipPath90">
      <path
         d="M 0,841.89 H 595.276 V 0 H 0 Z"
         transform="translate(-258.62841,-580.34681)"
         id="path90" />
    </clipPath>
    <clipPath
       clipPathUnits="userSpaceOnUse"
       id="clipPath92">
      <path
         d="M 0,841.89 H 595.276 V 0 H 0 Z"
         transform="translate(-337.51271,-576.24481)"
         id="path92" />
    </clipPath>
    <clipPath
       clipPathUnits="userSpaceOnUse"
       id="clipPath94">
      <path
         d="M 0,841.89 H 595.276 V 0 H 0 Z"
         transform="translate(-291.9604,-553.55581)"
         id="path94" />
    </clipPath>
    <clipPath
       clipPathUnits="userSpaceOnUse"
       id="clipPath96">
      <path
         d="M 0,841.89 H 595.276 V 0 H 0 Z"
         transform="translate(-242.75391,-582.36491)"
         id="path96" />
    </clipPath>
    <clipPath
       clipPathUnits="userSpaceOnUse"
       id="clipPath98">
      <path
         d="M 0,841.89 H 595.276 V 0 H 0 Z"
         transform="translate(-352.73931,-579.61732)"
         id="path98" />
    </clipPath>
    <clipPath
       clipPathUnits="userSpaceOnUse"
       id="clipPath100">
      <path
         d="M 0,841.89 H 595.276 V 0 H 0 Z"
         transform="translate(-250.41111,-564.85411)"
         id="path100" />
    </clipPath>
    <clipPath
       clipPathUnits="userSpaceOnUse"
       id="clipPath102">
      <path
         d="M 0,841.89 H 595.276 V 0 H 0 Z"
         transform="translate(-321.64061,-570.72232)"
         id="path102" />
    </clipPath>
    <clipPath
       clipPathUnits="userSpaceOnUse"
       id="clipPath104">
      <path
         d="M 0,841.89 H 595.276 V 0 H 0 Z"
         transform="translate(-349.82421,-571.24672)"
         id="path104" />
    </clipPath>
    <clipPath
       clipPathUnits="userSpaceOnUse"
       id="clipPath106">
      <path
         d="M 0,841.89 H 595.276 V 0 H 0 Z"
         transform="translate(-269.9272,-557.54362)"
         id="path106" />
    </clipPath>
    <clipPath
       clipPathUnits="userSpaceOnUse"
       id="clipPath108">
      <path
         d="M 0,841.89 H 595.276 V 0 H 0 Z"
         transform="translate(-322.49711,-557.53192)"
         id="path108" />
    </clipPath>
    <clipPath
       clipPathUnits="userSpaceOnUse"
       id="clipPath110">
      <path
         d="M 0,841.89 H 595.276 V 0 H 0 Z"
         transform="translate(-280.4731,-554.75501)"
         id="path110" />
    </clipPath>
    <clipPath
       clipPathUnits="userSpaceOnUse"
       id="clipPath112">
      <path
         d="M 0,841.89 H 595.276 V 0 H 0 Z"
         transform="translate(-314.75291,-557.83072)"
         id="path112" />
    </clipPath>
    <clipPath
       clipPathUnits="userSpaceOnUse"
       id="clipPath114">
      <path
         d="M 0,841.89 H 595.276 V 0 H 0 Z"
         transform="translate(-244.1377,-571.81991)"
         id="path114" />
    </clipPath>
    <clipPath
       clipPathUnits="userSpaceOnUse"
       id="clipPath116">
      <path
         d="M 0,841.89 H 595.276 V 0 H 0 Z"
         transform="translate(-276.4561,-570.98692)"
         id="path116" />
    </clipPath>
    <clipPath
       clipPathUnits="userSpaceOnUse"
       id="clipPath118">
      <path
         d="M 0,841.89 H 595.276 V 0 H 0 Z"
         transform="translate(-275.47021,-573.05872)"
         id="path118" />
    </clipPath>
    <clipPath
       clipPathUnits="userSpaceOnUse"
       id="clipPath120">
      <path
         d="M 0,841.89 H 595.276 V 0 H 0 Z"
         transform="translate(-338.47951,-559.34341)"
         id="path120" />
    </clipPath>
    <clipPath
       clipPathUnits="userSpaceOnUse"
       id="clipPath122">
      <path
         d="M 0,841.89 H 595.276 V 0 H 0 Z"
         transform="translate(-256.92331,-562.05041)"
         id="path122" />
    </clipPath>
    <clipPath
       clipPathUnits="userSpaceOnUse"
       id="clipPath124">
      <path
         d="M 0,841.89 H 595.276 V 0 H 0 Z"
         transform="translate(-343.45311,-561.12461)"
         id="path124" />
    </clipPath>
    <clipPath
       clipPathUnits="userSpaceOnUse"
       id="clipPath126">
      <path
         d="M 0,841.89 H 595.276 V 0 H 0 Z"
         transform="translate(-251.73781,-564.17591)"
         id="path126" />
    </clipPath>
    <clipPath
       clipPathUnits="userSpaceOnUse"
       id="clipPath128">
      <path
         d="M 0,841.89 H 595.276 V 0 H 0 Z"
         transform="translate(-341.90721,-564.81071)"
         id="path128" />
    </clipPath>
    <clipPath
       clipPathUnits="userSpaceOnUse"
       id="clipPath130">
      <path
         d="M 0,841.89 H 595.276 V 0 H 0 Z"
         transform="translate(-351.00591,-584.70181)"
         id="path130" />
    </clipPath>
    <clipPath
       clipPathUnits="userSpaceOnUse"
       id="clipPath132">
      <path
         d="M 0,841.89 H 595.276 V 0 H 0 Z"
         transform="translate(-341.31741,-595.61291)"
         id="path132" />
    </clipPath>
    <clipPath
       clipPathUnits="userSpaceOnUse"
       id="clipPath134">
      <path
         d="M 0,841.89 H 595.276 V 0 H 0 Z"
         transform="translate(-254.0464,-592.55482)"
         id="path134" />
    </clipPath>
    <clipPath
       clipPathUnits="userSpaceOnUse"
       id="clipPath136">
      <path
         d="M 0,841.89 H 595.276 V 0 H 0 Z"
         transform="translate(-270.38481,-558.14812)"
         id="path136" />
    </clipPath>
    <clipPath
       clipPathUnits="userSpaceOnUse"
       id="clipPath138">
      <path
         d="M 0,841.89 H 595.276 V 0 H 0 Z"
         transform="translate(-245.44581,-574.35511)"
         id="path138" />
    </clipPath>
    <clipPath
       clipPathUnits="userSpaceOnUse"
       id="clipPath140">
      <path
         d="M 0,841.89 H 595.276 V 0 H 0 Z"
         transform="translate(-350.92481,-568.76431)"
         id="path140" />
    </clipPath>
    <clipPath
       clipPathUnits="userSpaceOnUse"
       id="clipPath142">
      <path
         d="M 0,841.89 H 595.276 V 0 H 0 Z"
         transform="translate(-274.06641,-583.70371)"
         id="path142" />
    </clipPath>
    <clipPath
       clipPathUnits="userSpaceOnUse"
       id="clipPath144">
      <path
         d="M 0,841.89 H 595.276 V 0 H 0 Z"
         transform="translate(-330.28521,-555.46792)"
         id="path144" />
    </clipPath>
    <clipPath
       clipPathUnits="userSpaceOnUse"
       id="clipPath146">
      <path
         d="M 0,841.89 H 595.276 V 0 H 0 Z"
         transform="translate(-327.83111,-558.44932)"
         id="path146" />
    </clipPath>
    <clipPath
       clipPathUnits="userSpaceOnUse"
       id="clipPath148">
      <path
         d="M 0,841.89 H 595.276 V 0 H 0 Z"
         transform="translate(-317.01661,-578.98211)"
         id="path148" />
    </clipPath>
    <clipPath
       clipPathUnits="userSpaceOnUse"
       id="clipPath150">
      <path
         d="M 0,841.89 H 595.276 V 0 H 0 Z"
         transform="translate(-278.20611,-581.18422)"
         id="path150" />
    </clipPath>
    <clipPath
       clipPathUnits="userSpaceOnUse"
       id="clipPath152">
      <path
         d="M 0,841.89 H 595.276 V 0 H 0 Z"
         transform="translate(-244.1455,-587.62411)"
         id="path152" />
    </clipPath>
    <clipPath
       clipPathUnits="userSpaceOnUse"
       id="clipPath154">
      <path
         d="M 0,841.89 H 595.276 V 0 H 0 Z"
         transform="translate(-348.08401,-589.35221)"
         id="path154" />
    </clipPath>
    <clipPath
       clipPathUnits="userSpaceOnUse"
       id="clipPath156">
      <path
         d="M 0,841.89 H 595.276 V 0 H 0 Z"
         transform="translate(-246.8965,-592.01231)"
         id="path156" />
    </clipPath>
    <clipPath
       clipPathUnits="userSpaceOnUse"
       id="clipPath158">
      <path
         d="M 0,841.89 H 595.276 V 0 H 0 Z"
         transform="translate(-262.17481,-555.44842)"
         id="path158" />
    </clipPath>
    <clipPath
       clipPathUnits="userSpaceOnUse"
       id="clipPath160">
      <path
         d="M 0,841.89 H 595.276 V 0 H 0 Z"
         transform="translate(-319.94821,-581.13202)"
         id="path160" />
    </clipPath>
    <clipPath
       clipPathUnits="userSpaceOnUse"
       id="clipPath162">
      <path
         d="M 0,841.89 H 595.276 V 0 H 0 Z"
         transform="translate(-321.40041,-586.50502)"
         id="path162" />
    </clipPath>
  </defs>
  <sodipodi:namedview
     id="base"
     pagecolor="#e2e2e2"
     bordercolor="#666666"
     borderopacity="1.0"
     inkscape:pageopacity="0"
     inkscape:pageshadow="2"
     inkscape:zoom="4.8624365"
     inkscape:cx="10.694227"
     inkscape:cy="12.956467"
     inkscape:document-units="px"
     inkscape:current-layer="layer1"
     inkscape:document-rotation="0"
     showgrid="true"
     units="px"
     inkscape:window-width="1920"
     inkscape:window-height="994"
     inkscape:window-x="0"
     inkscape:window-y="0"
     inkscape:window-maximized="1"
     inkscape:object-paths="true"
     inkscape:snap-grids="true"
     inkscape:snap-intersection-paths="true"
     inkscape:snap-smooth-nodes="true"
     inkscape:snap-midpoints="true"
     inkscape:showpageshadow="2"
     inkscape:pagecheckerboard="0"
     inkscape:deskcolor="#d1d1d1">
    <inkscape:grid
       id="grid2"
       units="px"
       originx="0"
       originy="0"
       spacingx="0.26458333"
       spacingy="0.26458333"
       empcolor="#0099e5"
       empopacity="0.30196078"
       color="#0099e5"
       opacity="0.14902"
       empspacing="5"
       dotted="false"
       gridanglex="30"
       gridanglez="30"
       visible="true" />
  </sodipodi:namedview>
  <metadata
     id="metadata1111">
    <rdf:RDF>
      <cc:Work
         rdf:about="">
        <dc:format>image/svg+xml</dc:format>
        <dc:type
           rdf:resource="http://purl.org/dc/dcmitype/StillImage" />
      </cc:Work>
    </rdf:RDF>
  </metadata>
  <g
     inkscape:label="Layer 1"
     inkscape:groupmode="layer"
     id="layer1">
    <g
       id="g918"
       transform="translate(0.47625037,0.92604234)">
      <rect
         ry="4.8357682"
         rx="4.8357682"
         style="fill:url(#linearGradient926);fill-opacity:1;stroke-width:6.09228"
         x="0.13229237"
         y="-16.457085"
         width="15.875001"
         height="15.875001"
         id="use1056"
         transform="rotate(90)"
         class="ColorScheme-Highlight" />
      <path
         d="m 5.344583,0.13229167 c -2.6384245,0 -4.76249953,2.12407483 -4.76249953,4.76249963 H 5.344583 Z"
         style="opacity:0.15;fill:url(#radialGradient25);fill-opacity:1;stroke-width:6.09228"
         id="path20" />
      <rect
         y="0.13229151"
         x="5.3445826"
         height="1.5875"
         width="6.3500004"
         id="rect20"
         style="opacity:0.15;fill:url(#linearGradient25);fill-opacity:1;stroke-width:4.83577;stroke-linecap:round;stroke-linejoin:round;paint-order:stroke fill markers" />
      <path
         d="m 0.58208347,11.244792 c 0,2.638424 2.12407503,4.762499 4.76249953,4.762499 v -4.762499 z"
         style="opacity:0.15;fill:url(#radialGradient29);fill-opacity:1;stroke-width:6.09228"
         id="use20" />
      <rect
         y="0.5820834"
         x="-11.244792"
         height="1.5875"
         width="6.3500004"
         id="use21"
         style="opacity:0.15;fill:url(#linearGradient34);fill-opacity:1;stroke-width:4.83577;stroke-linecap:round;stroke-linejoin:round;paint-order:stroke fill markers"
         transform="rotate(-90)" />
      <path
         d="m 11.694583,16.007291 c 2.638425,0 4.7625,-2.124074 4.7625,-4.762499 h -4.7625 z"
         style="opacity:0.15;fill:url(#radialGradient30);fill-opacity:1;stroke-width:6.09228"
         id="use22" />
      <rect
         y="-16.007292"
         x="-11.694584"
         height="1.5875"
         width="6.3500004"
         id="use23"
         style="opacity:0.15;fill:url(#linearGradient35);fill-opacity:1;stroke-width:4.83577;stroke-linecap:round;stroke-linejoin:round;paint-order:stroke fill markers"
         transform="scale(-1)" />
      <path
         d="m 16.457083,4.8947913 c 0,-2.6384245 -2.124074,-4.76249963 -4.7625,-4.76249963 V 4.8947913 Z"
         style="opacity:0.15;fill:url(#radialGradient31);fill-opacity:1;stroke-width:6.09228"
         id="use24" />
      <rect
         y="-16.457081"
         x="4.8947906"
         height="1.5875"
         width="6.3500004"
         id="use25"
         style="opacity:0.15;fill:url(#linearGradient36);fill-opacity:1;stroke-width:4.83577;stroke-linecap:round;stroke-linejoin:round;paint-order:stroke fill markers"
         transform="rotate(90)" />
      <path
         d="m 5.3445832,0.13229107 c -2.638425,0 -4.76250035,2.12407473 -4.76250035,4.76249973 H 5.3445832 Z"
         style="opacity:0.5;fill:url(#radialGradient15);fill-opacity:1;stroke-width:6.09228"
         id="path14" />
      <rect
         y="0.1322909"
         x="5.3445826"
         height="1.5875"
         width="6.3499999"
         id="rect14"
         style="opacity:0.5;fill:url(#linearGradient15);fill-opacity:1;stroke-width:4.83577;stroke-linecap:round;stroke-linejoin:round;paint-order:stroke fill markers" />
      <path
         d="m 11.694583,0.1322909 c 2.638425,0 4.7625,2.1240749 4.7625,4.7624976 h -4.7625 z"
         style="opacity:0.5;fill:url(#radialGradient17);fill-opacity:1;stroke-width:6.09228"
         id="use14" />
      <path
         id="path17"
         style="opacity:0.5;fill:url(#radialGradient18);fill-opacity:1;stroke-width:6.09228"
         d="m 5.3445834,16.00729 c -2.638425,0 -4.7625,-2.124075 -4.7625,-4.7625 h 4.7625 z" />
      <rect
         style="opacity:0.5;fill:url(#linearGradient18);fill-opacity:1;stroke-width:4.83577;stroke-linecap:round;stroke-linejoin:round;paint-order:stroke fill markers"
         id="rect17"
         width="6.3499994"
         height="1.5874999"
         x="5.3445826"
         y="-16.007292"
         transform="scale(1,-1)" />
      <path
         id="use17"
         style="opacity:0.5;fill:url(#radialGradient20);fill-opacity:1;stroke-width:6.09228"
         d="m 11.694582,16.007291 c 2.638425,0 4.7625,-2.124075 4.7625,-4.7625 h -4.7625 z" />
    </g>
    <path
       id="path3"
       d="m 0,0 c 2.576,0 4.729,-0.129 6.863,0.024 6.477,0.465 10.167,3.929 10.752,10.372 0.302,3.327 0.305,6.723 0.026,10.052 C 16.781,30.735 10.253,35.078 0,32.25 Z m 66.072,-1.897 v -38.358 c 8.691,0.537 17.377,-1.367 25.762,1.441 7.775,2.605 12.098,8.741 14.773,16.197 0.509,1.42 1.039,2.833 2.346,4.134 v -23.333 c -1.311,0 -2.711,0.005 -4.111,-10e-4 -23.446,-0.092 -46.891,-0.178 -70.337,-0.282 -8.599,-0.039 -13.56,4.291 -14.254,12.888 -0.347,4.304 -0.068,8.655 -0.254,12.977 -0.47,10.936 -4.048,14.342 -14.869,14.346 -1.552,10e-4 -3.103,0 -4.984,0 v -38.115 c 3.145,-0.154 6.231,-0.305 9.318,-0.455 -0.019,-0.32 -0.038,-0.639 -0.056,-0.959 h -35.415 c -0.028,0.303 -0.057,0.606 -0.085,0.909 3.272,0.167 6.545,0.334 10.069,0.514 v 72.722 h -10.058 c -0.021,0.404 -0.043,0.808 -0.065,1.212 0.919,0.15 1.837,0.422 2.758,0.432 10.941,0.119 21.896,0.56 32.816,0.131 C 14.587,34.3 19.948,33.07 24.744,31.131 31.454,28.419 34.852,22.893 34.415,15.377 34.003,8.282 29.625,4.361 23.524,1.984 c -2.65,-1.032 -5.493,-1.572 -8.66,-2.449 2.764,-0.621 5.229,-1.05 7.62,-1.735 9.93,-2.841 14.22,-8.582 14.232,-18.896 0.006,-4.93 0.052,-9.861 -0.013,-14.79 -0.039,-2.962 1.08,-4.505 4.257,-4.355 2.969,0.14 5.949,0.03 9.137,0.03 v 72.645 c -3.159,0.154 -6.243,0.304 -9.328,0.454 l 0.046,1.039 h 63.303 V 16.191 c -0.278,-0.086 -0.557,-0.171 -0.836,-0.256 -0.476,0.967 -1.001,1.914 -1.422,2.905 -4.136,9.727 -10.302,13.798 -20.949,13.802 -4.796,10e-4 -9.593,0 -14.676,0 V 0.086 c 5.033,-0.236 10.678,-1.449 14.578,2.46 3.459,3.468 5.522,8.329 8.118,12.444 v -32.117 c -2.556,4.229 -4.55,9.013 -7.849,12.596 -3.889,4.226 -9.63,2.37 -15.01,2.634"
       style="fill:#231f20;fill-opacity:1;fill-rule:nonzero;stroke:none;stroke-width:10.0047"
       transform="matrix(0.03520878,0,0,-0.03531224,4.9342062,8.83213)"
       clip-path="url(#clipPath4)" />
    <path
       id="path5"
       d="M 0,0 C 3.196,-0.148 6.196,-0.288 9.196,-0.427 9.183,-0.736 9.17,-1.045 9.157,-1.354 h -34.594 c -0.025,0.277 -0.049,0.552 -0.075,0.829 h 9.31 v 72.888 c -13.129,1.921 -20.33,-5.093 -25.306,-16.234 v 17.937 h 99.94 c 0.03,-0.333 0.06,-0.666 0.09,-0.998 H 49.195 V 30.196 h 30.048 v 42.579 h -9.259 l 0.059,1.137 h 34.77 c 0.02,-0.328 0.041,-0.656 0.062,-0.984 -3.09,-0.156 -6.179,-0.311 -9.579,-0.483 V -1.489 H 70.118 l -0.097,1.022 c 3.02,0.159 6.041,0.318 9.282,0.488 V 28.083 H 49.205 V -0.269 h 9.254 l -0.003,-1.01 H 23.91 c -0.038,0.237 -0.077,0.473 -0.115,0.711 h 9.239 V 72.387 H 25.801 V 55.754 C 22.105,60.562 19.267,65.181 15.52,68.882 11.418,72.933 5.81,73.113 0,72.441 Z"
       style="fill:#231f20;fill-opacity:1;fill-rule:nonzero;stroke:none;stroke-width:10.0047"
       transform="matrix(0.03520878,0,0,-0.03531224,10.259101,10.245323)"
       clip-path="url(#clipPath6)" />
    <path
       id="path11"
       d="M 0,0 V 61.626 C -8.641,50.325 -16.665,39.83 -24.792,29.2 -14.339,20.98 -6.531,11.196 0,0 m 0.988,-6.584 c -3.801,6.15 -7.17,12.629 -11.523,18.36 -4.378,5.764 -9.736,10.784 -14.983,16.476 C -31.339,20.641 -36.51,13.88 -41.682,7.12 c -2.994,-3.913 -5.93,-7.874 -9.027,-11.703 -0.743,-0.917 -2.013,-1.964 -3.062,-1.988 -7.328,-0.16 -14.661,-0.073 -21.992,-0.039 -0.386,0.002 -0.771,0.243 -1.195,0.386 0.236,0.479 0.356,0.845 0.419,0.835 5.494,-0.841 7.948,2.979 10.711,6.667 7.783,10.387 15.741,20.641 23.624,30.951 0.789,1.032 1.547,2.087 2.546,3.438 -5.97,2.55 -11.711,3.941 -17.759,2.16 -6.935,-2.042 -8.063,-7.122 -3.051,-12.175 0.837,-0.843 0.712,-2.64 1.031,-3.996 -1.509,0.012 -3.336,-0.517 -4.467,0.144 -2.904,1.699 -3.882,6.769 -2.415,10.842 1.943,5.396 6.146,8.188 11.585,8.139 4.352,-0.04 8.852,-0.884 12.984,-2.271 2.9,-0.974 4.165,-0.423 5.839,1.828 6.669,8.967 13.451,17.855 20.411,26.597 1.068,1.34 3.243,2.328 4.996,2.487 4.019,0.364 8.093,0.115 12.226,0.115 V -6.398 C 1.478,-6.46 1.232,-6.522 0.988,-6.584"
       style="fill:#231f20;fill-opacity:1;fill-rule:nonzero;stroke:none;stroke-width:10.0047"
       transform="matrix(0.03520878,0,0,-0.03531224,3.7679321,10.073198)"
       clip-path="url(#clipPath12)" />
    <path
       id="path13"
       d="M 0,0 V -36.126 H 27.633 C 18.352,-23.993 9.451,-12.356 0,0 M 0.03,-66.7 H 9.769 C 9.75,-67.04 9.732,-67.379 9.714,-67.718 h -21.963 c -0.017,0.301 -0.033,0.603 -0.05,0.906 h 9.903 v 74.85 c 5.276,0 10.175,0.167 15.047,-0.129 1.079,-0.066 2.222,-1.644 3.06,-2.737 17.197,-22.407 34.392,-44.818 51.474,-67.314 2.151,-2.833 4.172,-5.195 8.141,-4.422 0.465,0.091 1.02,-0.278 1.555,-1.104 -0.818,-0.149 -1.634,-0.423 -2.451,-0.427 -6.612,-0.034 -13.228,-0.141 -19.832,0.079 -1.404,0.047 -3.201,0.99 -4.078,2.102 -6.624,8.398 -13.11,16.908 -19.526,25.468 -1.365,1.82 -2.823,2.57 -5.119,2.536 -8.514,-0.127 -17.03,-0.05 -25.845,-0.05 z"
       style="fill:#231f20;fill-opacity:1;fill-rule:nonzero;stroke:none;stroke-width:10.0047"
       transform="matrix(0.03520878,0,0,-0.03531224,14.226447,7.9034927)"
       clip-path="url(#clipPath14)" />
    <path
       id="path17-7"
       d="m 0,0 h 21.978 c -0.004,-0.317 -0.007,-0.634 -0.011,-0.951 h -53.56 c -0.016,0.279 -0.032,0.558 -0.047,0.837 h 22.068 v 96.931 c 1.336,0.068 2.253,0.115 3.71,0.188 v -32.51 c 0,-10.815 -0.001,-21.63 0,-32.445 0.001,-10.587 -0.005,-21.174 0.005,-31.761 0.601,0.013 1.203,0.024 1.804,0.037 v 95.943 c 4.022,1.071 4.047,1.071 4.048,-3.004 C 0.003,63.943 0,34.621 0,5.3 Z"
       style="fill:#231f20;fill-opacity:1;fill-rule:nonzero;stroke:none;stroke-width:11.2196"
       transform="matrix(0.03144294,0,0,-0.03144294,9.0532127,13.633455)"
       clip-path="url(#clipPath18)" />
    <path
       id="path19"
       d="M 0,0 C 1.262,1.07 2.255,2.636 3.396,2.753 8.383,3.262 13.412,3.467 18.43,3.546 21.288,3.591 24.201,3.427 26.991,2.869 28.319,2.603 29.418,1.197 31.1,-0.046 26.632,0.423 23.273,0.86 19.9,1.06 19.253,1.098 18.551,0.205 17.875,-0.258 c 0.675,-0.446 1.312,-1.186 2.035,-1.284 2.365,-0.318 4.817,-0.158 7.126,-0.673 1.324,-0.295 2.436,-1.541 3.132,-2.925 -3.204,0.4 -6.4,0.924 -9.617,1.117 -0.859,0.051 -1.78,-0.909 -2.672,-1.404 0.945,-0.437 1.854,-1.119 2.842,-1.263 2.836,-0.416 5.704,-0.613 8.559,-0.896 0.021,-0.498 0.043,-0.997 0.063,-1.495 -1.658,-0.526 -3.317,-1.052 -5.546,-1.759 -0.241,-0.571 -0.761,-1.803 -1.658,-3.925 -0.389,1.264 -0.439,1.658 -0.623,1.974 -0.517,0.889 -1.09,1.745 -1.641,2.614 -0.423,-0.886 -1.121,-1.745 -1.214,-2.665 -0.193,-1.902 -0.003,-3.84 -0.092,-5.758 -0.044,-0.94 -0.359,-1.868 -0.55,-2.802 -0.385,0.035 -0.769,0.071 -1.153,0.106 0,2.798 0.133,5.606 -0.074,8.389 -0.07,0.946 -0.996,1.828 -1.53,2.74 -0.408,-0.884 -1.118,-1.751 -1.167,-2.654 -0.153,-2.823 -0.056,-5.659 -0.056,-8.49 -0.344,-0.079 -0.687,-0.158 -1.031,-0.237 -0.288,0.855 -0.747,1.694 -0.825,2.568 -0.14,1.549 0.109,3.14 -0.097,4.674 -0.188,1.402 -0.762,2.752 -1.167,4.125 -0.819,-1.089 -1.64,-2.177 -2.602,-3.455 -0.417,0.881 -0.986,2.086 -1.413,2.991 -1.96,0.513 -3.701,0.969 -5.442,1.425 -0.014,0.497 -0.027,0.994 -0.041,1.492 2.797,0.33 5.61,0.566 8.383,1.037 1.079,0.183 2.069,0.893 3.099,1.363 -1.045,0.463 -2.116,1.368 -3.129,1.306 -3.014,-0.184 -6.005,-0.747 -10.012,-1.302 1.458,1.265 2.385,2.692 3.587,2.98 2.412,0.579 4.984,0.453 7.466,0.799 0.738,0.103 1.392,0.808 2.085,1.237 C 12.238,0.171 11.552,1.091 10.92,1.056 7.543,0.863 4.18,0.433 0,0"
       style="fill:#231f20;fill-opacity:1;fill-rule:nonzero;stroke:none;stroke-width:11.2196"
       transform="matrix(0.03144294,0,0,-0.03144294,8.4182921,4.2101982)"
       clip-path="url(#clipPath20)" />
    <path
       id="path21"
       d="m 0,0 c -10.472,1.214 -20.137,1.08 -30.039,-0.41 -0.083,3.007 2.76,3.005 4.871,3.321 2.325,0.347 4.743,0.079 7.122,0.079 -0.066,3.844 -4.704,4.104 -11.951,1.007 -0.218,3.631 2.64,3.66 4.738,3.98 2.33,0.355 4.756,0.081 7.117,0.081 0.129,3.823 -4.641,4.138 -12.729,0.642 1.296,3.295 2.267,5.761 3.53,8.972 1.221,-1.73 1.833,-2.594 3.019,-4.274 0.772,2.469 1.313,4.2 1.855,5.931 0.243,-0.01 0.486,-0.021 0.729,-0.031 0.126,-1.197 0.12,-2.43 0.436,-3.575 0.149,-0.539 0.915,-0.909 1.401,-1.355 0.438,0.481 1.155,0.908 1.261,1.454 0.295,1.511 0.335,3.072 0.476,4.612 0.402,-0.005 0.804,-0.01 1.206,-0.015 0.113,-1.307 0.088,-2.647 0.388,-3.909 0.183,-0.771 0.866,-1.422 1.324,-2.127 0.477,0.719 1.19,1.382 1.377,2.17 0.286,1.207 0.211,2.499 0.289,3.756 0.351,0.028 0.7,0.056 1.05,0.085 0.154,-0.906 0.213,-1.843 0.486,-2.711 0.356,-1.13 0.884,-2.205 1.338,-3.303 0.52,1.141 1.074,2.27 1.547,3.431 0.172,0.423 0.15,0.924 0.878,1.657 0.338,-0.683 0.711,-1.351 1.006,-2.051 0.424,-1.013 0.794,-2.049 1.186,-3.076 0.866,0.669 1.733,1.337 3.102,2.393 0.943,-2.153 2.018,-4.607 3.408,-7.777 C -8.852,12.056 -12.291,11.835 -12.557,9 -8.619,8.074 -4.735,7.201 -0.89,6.18 -0.581,6.099 -0.544,4.995 -0.46,4.676 -3.949,5.114 -7.292,5.638 -10.654,5.87 -11.33,5.917 -12.082,4.852 -12.799,4.3 c 0.717,-0.41 1.4,-1.079 2.158,-1.182 C -8.158,2.781 -5.6,2.873 -3.17,2.344 -1.999,2.088 -1.05,0.813 0,0"
       style="fill:#231f20;fill-opacity:1;fill-rule:nonzero;stroke:none;stroke-width:11.2196"
       transform="matrix(0.03144294,0,0,-0.03144294,9.3825369,3.8783445)"
       clip-path="url(#clipPath22)" />
    <path
       id="path23"
       d="M 0,0 C -1.382,1.533 -2.646,2.936 -3.975,4.41 -5.138,3.106 -6.436,1.649 -7.883,0.027 c -1.901,2.792 -3.673,5.041 -5.042,7.515 -1.091,1.97 0.745,3.987 3.076,3.916 3.87,-0.118 7.751,-0.156 11.62,-0.014 C 4.13,11.531 6.04,9.678 4.997,7.68 3.678,5.15 1.895,2.862 0,0"
       style="fill:#231f20;fill-opacity:1;fill-rule:nonzero;stroke:none;stroke-width:11.2196"
       transform="matrix(0.03144294,0,0,-0.03144294,9.0272676,5.2936615)"
       clip-path="url(#clipPath24)" />
    <path
       id="path25"
       d="m 0,0 c -1.204,-0.057 -2.113,-0.099 -3.292,-0.155 v 40.264 c 0.23,0.182 0.46,0.364 0.691,0.546 0.867,-1.284 2.466,-2.557 2.487,-3.855 C 0.078,24.608 0,12.413 0,0"
       style="fill:#231f20;fill-opacity:1;fill-rule:nonzero;stroke:none;stroke-width:11.1891"
       transform="matrix(0.03144294,0,0,-0.03161412,9.0480242,7.3706882)"
       clip-path="url(#clipPath26)" />
    <path
       id="path27"
       d="m 0,0 c 0.059,-0.684 0.167,-1.369 0.167,-2.053 0.011,-12.604 0.008,-25.209 0.008,-37.875 -2.622,-0.906 -3.677,-0.373 -3.653,2.393 0.096,10.819 -0.051,21.641 0.129,32.458 0.031,1.849 1.224,3.679 1.88,5.517 C -0.979,0.293 -0.49,0.147 0,0"
       style="fill:#231f20;fill-opacity:1;fill-rule:nonzero;stroke:none;stroke-width:11.1891"
       transform="matrix(0.03144294,0,0,-0.03161412,8.8610723,6.1002598)"
       clip-path="url(#clipPath28)" />
    <path
       id="path29"
       d="m 0,0 h -11.994 c 0.446,1.166 0.592,2.093 1.093,2.75 1.147,1.504 3.212,2.463 1.91,5.093 -0.209,0.421 1.918,2.799 3.012,2.835 1.057,0.034 3.277,-2.335 3.092,-2.708 C -4.354,5.015 -1.746,4.028 -0.62,2.318 -0.273,1.792 -0.264,1.042 0,0"
       style="fill:#231f20;fill-opacity:1;fill-rule:nonzero;stroke:none;stroke-width:11.2196"
       transform="matrix(0.03144294,0,0,-0.03144294,9.0886801,3.1638902)"
       clip-path="url(#clipPath30)" />
    <path
       id="path31"
       d="m 0,0 c -2.461,-0.177 -4.75,-0.225 -4.16,3.425 0.079,0.494 -0.852,1.09 -1.129,1.721 -0.392,0.893 -0.982,1.955 -0.779,2.767 0.151,0.603 1.605,1.437 2.164,1.246 0.798,-0.272 1.374,-1.343 1.925,-2.154 0.564,-0.833 1.2,-1.714 1.417,-2.664 0.33,-1.439 0.324,-2.955 0.46,-4.439 z"
       style="fill:#231f20;fill-opacity:1;fill-rule:nonzero;stroke:none;stroke-width:11.2196"
       transform="matrix(0.03144294,0,0,-0.03144294,8.5698851,5.1201557)"
       clip-path="url(#clipPath32)" />
    <path
       id="path33"
       d="M 0,0 C -0.622,1.914 -1.037,3.7 1.414,4.798 1.852,4.995 1.79,6.147 2.124,6.769 2.584,7.627 3.044,8.74 3.806,9.095 4.339,9.343 6.004,8.585 6.062,8.136 6.186,7.16 5.679,6.063 5.283,5.075 5.059,4.515 4.144,3.997 4.22,3.585 4.939,-0.312 2.543,-0.227 -0.082,0.075 Z"
       style="fill:#231f20;fill-opacity:1;fill-rule:nonzero;stroke:none;stroke-width:11.2196"
       transform="matrix(0.03144294,0,0,-0.03144294,9.2309703,5.1199097)"
       clip-path="url(#clipPath34)" />
    <path
       id="path35"
       d="m 0,0 c 4.01,-0.456 3.487,-4.216 4.722,-7.063 -1.873,0.448 -3.747,0.896 -6.002,1.436 0.516,2.134 0.952,3.934 1.385,5.729 C 0.102,0.098 0,0 0,0"
       style="fill:#231f20;fill-opacity:1;fill-rule:nonzero;stroke:none;stroke-width:11.2196"
       transform="matrix(0.03144294,0,0,-0.03144294,8.5666943,5.1232434)"
       clip-path="url(#clipPath36)" />
    <path
       id="path37"
       d="M 0,0 C 0.15,-0.327 0.345,-0.641 0.444,-0.982 1.945,-6.15 1.2,-7.023 -5.866,-6.726 -3.521,-4.102 -1.72,-2.087 0.082,-0.073 0.082,-0.075 0,0 0,0"
       style="fill:#231f20;fill-opacity:1;fill-rule:nonzero;stroke:none;stroke-width:11.2196"
       transform="matrix(0.03144294,0,0,-0.03144294,9.2283907,5.1175602)"
       clip-path="url(#clipPath38)" />
    <path
       id="path39"
       d="M 0,0 C 1.079,0.887 2.027,2.191 3.263,2.577 6.06,3.452 8.993,3.806 11.7,2.571 L 11.709,1.603 C 8.088,0.977 4.467,0.352 0.847,-0.273 0.564,-0.182 0.282,-0.091 0,0"
       style="fill:#231f20;fill-opacity:1;fill-rule:nonzero;stroke:none;stroke-width:11.2196"
       transform="matrix(0.03144294,0,0,-0.03144294,8.4239383,4.04368)"
       clip-path="url(#clipPath40)" />
    <path
       id="path41"
       d="M 0,0 C 4.263,3.002 10.943,1.423 11.606,-2.093 7.951,-1.434 4.245,-0.766 0,0"
       style="fill:#231f20;fill-opacity:1;fill-rule:nonzero;stroke:none;stroke-width:11.2196"
       transform="matrix(0.03144294,0,0,-0.03144294,8.9978195,3.9893902)"
       clip-path="url(#clipPath42)" />
    <path
       id="path43"
       d="m 0,0 c -1.623,-1.176 -2.734,-2.562 -3.492,-2.39 -1.069,0.243 -1.877,1.637 -2.797,2.539 0.957,0.864 1.827,2.234 2.902,2.421 C -2.615,2.705 -1.568,1.258 0,0"
       style="fill:#231f20;fill-opacity:1;fill-rule:nonzero;stroke:none;stroke-width:11.2196"
       transform="matrix(0.03144294,0,0,-0.03144294,8.2736788,3.3307021)"
       clip-path="url(#clipPath44)" />
    <path
       id="path45"
       d="m 0,0 c -1.266,1.954 -2.491,3.02 -2.46,4.048 0.027,0.873 1.639,2.487 2.306,2.371 C 0.904,6.236 2.378,4.974 2.521,3.999 2.657,3.079 1.302,1.94 0,0"
       style="fill:#231f20;fill-opacity:1;fill-rule:nonzero;stroke:none;stroke-width:11.2196"
       transform="matrix(0.03144294,0,0,-0.03144294,8.3657221,4.6706366)"
       clip-path="url(#clipPath46)" />
    <path
       id="path47"
       d="m 0,0 c -1.952,-1.261 -3.125,-2.606 -4.039,-2.449 -0.972,0.168 -2.182,1.68 -2.354,2.756 -0.105,0.654 1.553,2.234 2.421,2.236 C -2.939,2.545 -1.905,1.3 0,0"
       style="fill:#231f20;fill-opacity:1;fill-rule:nonzero;stroke:none;stroke-width:11.2196"
       transform="matrix(0.03144294,0,0,-0.03144294,9.3949723,4.6631277)"
       clip-path="url(#clipPath48)" />
    <path
       id="path49"
       d="m 0,0 c -2.025,-1.416 -3.064,-2.695 -4.108,-2.7 -0.872,-0.004 -2.396,1.449 -2.446,2.324 -0.05,0.88 1.29,2.505 2.154,2.6 C -3.361,2.338 -2.183,1.183 0,0"
       style="fill:#231f20;fill-opacity:1;fill-rule:nonzero;stroke:none;stroke-width:11.2196"
       transform="matrix(0.03144294,0,0,-0.03144294,10.221943,3.6978405)"
       clip-path="url(#clipPath50)" />
    <path
       id="path51"
       d="M 0,0 C 1.105,-1.942 2.284,-3.096 2.192,-4.137 2.116,-5 0.543,-5.731 -0.368,-6.521 -1.206,-5.539 -2.548,-4.634 -2.714,-3.549 -2.834,-2.761 -1.399,-1.735 0,0"
       style="fill:#231f20;fill-opacity:1;fill-rule:nonzero;stroke:none;stroke-width:11.2196"
       transform="matrix(0.03144294,0,0,-0.03144294,9.4466507,4.4248784)"
       clip-path="url(#clipPath52)" />
    <path
       id="path53"
       d="M 0,0 C 1.211,-1.806 2.474,-2.869 2.449,-3.902 2.429,-4.771 0.699,-6.43 0.104,-6.276 -0.979,-5.997 -2.282,-4.747 -2.529,-3.679 -2.706,-2.919 -1.302,-1.793 0,0"
       style="fill:#231f20;fill-opacity:1;fill-rule:nonzero;stroke:none;stroke-width:11.2196"
       transform="matrix(0.03144294,0,0,-0.03144294,7.7125902,3.5850857)"
       clip-path="url(#clipPath54)" />
    <path
       id="path55"
       d="M 0,0 C -1.133,1.69 -2.438,2.809 -2.257,3.572 -2.01,4.606 -0.623,5.369 0.274,6.248 1.088,5.292 2.396,4.409 2.549,3.357 2.663,2.58 1.271,1.583 0,0"
       style="fill:#231f20;fill-opacity:1;fill-rule:nonzero;stroke:none;stroke-width:11.2196"
       transform="matrix(0.03144294,0,0,-0.03144294,10.119785,4.0203596)"
       clip-path="url(#clipPath56)" />
    <path
       id="path57"
       d="M 0,0 C 1.294,-1.595 2.703,-2.595 2.588,-3.369 2.425,-4.466 1.141,-5.398 0.335,-6.4 -0.571,-5.49 -1.95,-4.7 -2.222,-3.628 -2.416,-2.866 -1.12,-1.724 0,0"
       style="fill:#231f20;fill-opacity:1;fill-rule:nonzero;stroke:none;stroke-width:11.2196"
       transform="matrix(0.03144294,0,0,-0.03144294,7.964164,3.2848127)"
       clip-path="url(#clipPath58)" />
    <path
       id="path59"
       d="m 0,0 c -1.869,-1.278 -2.981,-2.598 -3.737,-2.418 -1.036,0.246 -2.254,1.521 -2.509,2.569 -0.145,0.592 1.469,2.253 2.324,2.278 C -2.916,2.458 -1.873,1.238 0,0"
       style="fill:#231f20;fill-opacity:1;fill-rule:nonzero;stroke:none;stroke-width:11.2196"
       transform="matrix(0.03144294,0,0,-0.03144294,9.5650835,3.3367981)"
       clip-path="url(#clipPath60)" />
    <path
       id="path61"
       d="m 0,0 c -1.52,-1.303 -2.51,-2.778 -3.296,-2.676 -1.072,0.138 -1.989,1.479 -2.973,2.304 0.88,0.934 1.632,2.37 2.683,2.637 C -2.821,2.46 -1.664,1.115 0,0"
       style="fill:#231f20;fill-opacity:1;fill-rule:nonzero;stroke:none;stroke-width:11.2196"
       transform="matrix(0.03144294,0,0,-0.03144294,10.087363,4.2674355)"
       clip-path="url(#clipPath62)" />
    <path
       id="path63"
       d="m 0,0 c -1.604,-1.228 -2.646,-2.618 -3.448,-2.491 -1.071,0.168 -1.955,1.514 -2.92,2.355 0.927,0.882 1.754,2.269 2.814,2.479 C -2.753,2.502 -1.653,1.157 0,0"
       style="fill:#231f20;fill-opacity:1;fill-rule:nonzero;stroke:none;stroke-width:11.2196"
       transform="matrix(0.03144294,0,0,-0.03144294,9.9341375,4.4022063)"
       clip-path="url(#clipPath64)" />
    <path
       id="path65"
       d="m 0,0 c -1.353,1.759 -2.745,2.794 -2.626,3.609 0.154,1.065 1.504,1.956 2.34,2.921 C 0.602,5.729 2.148,4.973 2.208,4.113 2.282,3.063 1.109,1.925 0,0"
       style="fill:#231f20;fill-opacity:1;fill-rule:nonzero;stroke:none;stroke-width:11.2196"
       transform="matrix(0.03144294,0,0,-0.03144294,8.5406989,4.7833729)"
       clip-path="url(#clipPath66)" />
    <path
       id="path67"
       d="m 0,0 c -1.8,-1.291 -2.916,-2.665 -3.664,-2.488 -1.043,0.247 -2.296,1.551 -2.519,2.601 -0.138,0.65 1.46,2.341 2.297,2.353 C -2.86,2.482 -1.815,1.231 0,0"
       style="fill:#231f20;fill-opacity:1;fill-rule:nonzero;stroke:none;stroke-width:11.2196"
       transform="matrix(0.03144294,0,0,-0.03144294,7.9517603,4.2738992)"
       clip-path="url(#clipPath68)" />
    <path
       id="path69"
       d="m 0,0 c -1.679,-1.122 -2.804,-2.429 -3.555,-2.242 -1.042,0.261 -1.802,1.645 -2.683,2.548 0.963,0.817 1.851,2.126 2.913,2.286 C -2.562,2.707 -1.567,1.29 0,0"
       style="fill:#231f20;fill-opacity:1;fill-rule:nonzero;stroke:none;stroke-width:11.2196"
       transform="matrix(0.03144294,0,0,-0.03144294,8.474868,3.3423702)"
       clip-path="url(#clipPath70)" />
    <path
       id="path71"
       d="m 0,0 c -1.765,-1.268 -2.777,-2.547 -3.803,-2.559 -0.844,-0.009 -2.507,1.643 -2.381,2.278 0.211,1.075 1.413,2.421 2.457,2.707 C -2.993,2.627 -1.829,1.258 0,0"
       style="fill:#231f20;fill-opacity:1;fill-rule:nonzero;stroke:none;stroke-width:11.2196"
       transform="matrix(0.03144294,0,0,-0.03144294,9.7651958,3.3255136)"
       clip-path="url(#clipPath72)" />
    <path
       id="path73"
       d="m 0,0 c 1.116,-1.693 2.431,-2.832 2.245,-3.614 -0.25,-1.052 -1.658,-1.828 -2.569,-2.722 -0.822,0.981 -2.15,1.893 -2.297,2.967 C -2.729,-2.578 -1.295,-1.575 0,0"
       style="fill:#231f20;fill-opacity:1;fill-rule:nonzero;stroke:none;stroke-width:11.2196"
       transform="matrix(0.03144294,0,0,-0.03144294,9.1606547,4.7109538)"
       clip-path="url(#clipPath74)" />
    <path
       id="path75"
       d="m 0,0 c -1.75,-1.443 -2.739,-2.864 -3.522,-2.758 -1.069,0.145 -1.981,1.452 -2.961,2.261 0.763,0.907 1.45,2.455 2.309,2.556 C -3.156,2.18 -1.99,1.056 0,0"
       style="fill:#231f20;fill-opacity:1;fill-rule:nonzero;stroke:none;stroke-width:11.2196"
       transform="matrix(0.03144294,0,0,-0.03144294,8.1089281,4.3935465)"
       clip-path="url(#clipPath76)" />
    <path
       id="path77"
       d="M 0,0 C -1.068,1.985 -2.201,3.147 -2.092,4.178 -2,5.049 -0.471,5.769 0.424,6.555 1.237,5.572 2.554,4.658 2.7,3.585 2.809,2.782 1.409,1.774 0,0"
       style="fill:#231f20;fill-opacity:1;fill-rule:nonzero;stroke:none;stroke-width:11.2196"
       transform="matrix(0.03144294,0,0,-0.03144294,9.979368,3.6542531)"
       clip-path="url(#clipPath78)" />
    <path
       id="path79"
       d="M 0,0 C -1.581,-1.235 -2.632,-2.649 -3.396,-2.508 -4.46,-2.313 -5.31,-0.952 -6.251,-0.09 -5.336,0.8 -4.528,2.19 -3.472,2.415 -2.709,2.577 -1.617,1.19 0,0"
       style="fill:#231f20;fill-opacity:1;fill-rule:nonzero;stroke:none;stroke-width:11.2196"
       transform="matrix(0.03144294,0,0,-0.03144294,9.745696,4.4842668)"
       clip-path="url(#clipPath80)" />
    <path
       id="path81"
       d="M 0,0 C -0.682,1.055 -1.907,2.125 -1.878,3.16 -1.854,4.035 -0.4,5.504 0.468,5.539 1.318,5.573 2.864,4.19 2.948,3.318 3.048,2.288 1.907,1.137 1.304,0.039 0.869,0.026 0.435,0.013 0,0"
       style="fill:#231f20;fill-opacity:1;fill-rule:nonzero;stroke:none;stroke-width:11.2196"
       transform="matrix(0.03144294,0,0,-0.03144294,7.7980453,3.6281202)"
       clip-path="url(#clipPath82)" />
    <path
       id="path83"
       d="M 0,0 C -1.435,1.759 -2.849,2.753 -2.744,3.545 -2.601,4.62 -1.295,5.54 -0.489,6.526 0.415,5.752 1.955,5.052 2.055,4.186 2.173,3.159 1.05,1.988 0,0"
       style="fill:#231f20;fill-opacity:1;fill-rule:nonzero;stroke:none;stroke-width:11.2196"
       transform="matrix(0.03144294,0,0,-0.03144294,8.1843264,4.6080865)"
       clip-path="url(#clipPath84)" />
    <path
       id="path85"
       d="M 0,0 C 1.398,-1.785 2.779,-2.799 2.654,-3.57 2.485,-4.623 1.311,-5.942 0.29,-6.264 -0.301,-6.45 -2.083,-4.957 -2.162,-4.111 -2.257,-3.096 -1.109,-1.965 0,0"
       style="fill:#231f20;fill-opacity:1;fill-rule:nonzero;stroke:none;stroke-width:11.2196"
       transform="matrix(0.03144294,0,0,-0.03144294,7.6714607,3.7836475)"
       clip-path="url(#clipPath86)" />
    <path
       id="path87"
       d="m 0,0 c -1.839,-1.294 -2.878,-2.583 -3.904,-2.572 -0.84,0.009 -2.43,1.695 -2.311,2.406 0.17,1.013 1.488,2.302 2.531,2.542 C -2.919,2.552 -1.81,1.234 0,0"
       style="fill:#231f20;fill-opacity:1;fill-rule:nonzero;stroke:none;stroke-width:11.2196"
       transform="matrix(0.03144294,0,0,-0.03144294,9.9540077,3.3996392)"
       clip-path="url(#clipPath88)" />
    <path
       id="path89"
       d="M 0,0 C 1.312,-1.839 2.648,-2.915 2.493,-3.691 2.282,-4.739 0.923,-5.557 0.058,-6.474 -0.794,-5.657 -2.284,-4.875 -2.332,-4.012 -2.388,-3 -1.191,-1.918 0,0"
       style="fill:#231f20;fill-opacity:1;fill-rule:nonzero;stroke:none;stroke-width:11.2196"
       transform="matrix(0.03144294,0,0,-0.03144294,7.7213559,3.9813336)"
       clip-path="url(#clipPath90)" />
    <path
       id="path91"
       d="m 0,0 c -1.952,-1.12 -3.073,-2.275 -4.082,-2.185 -0.853,0.077 -2.36,1.84 -2.181,2.428 0.316,1.028 1.62,2.226 2.669,2.4 C -2.818,2.771 -1.791,1.389 0,0"
       style="fill:#231f20;fill-opacity:1;fill-rule:nonzero;stroke:none;stroke-width:11.2196"
       transform="matrix(0.03144294,0,0,-0.03144294,10.201711,4.1103127)"
       clip-path="url(#clipPath92)" />
    <path
       id="path93"
       d="m 0,0 c -1.776,-1.289 -2.78,-2.574 -3.797,-2.584 -0.854,-0.009 -2.528,1.623 -2.406,2.251 0.207,1.07 1.403,2.408 2.444,2.7 C -3.023,2.573 -1.856,1.235 0,0"
       style="fill:#231f20;fill-opacity:1;fill-rule:nonzero;stroke:none;stroke-width:11.2196"
       transform="matrix(0.03144294,0,0,-0.03144294,8.7694127,4.8237192)"
       clip-path="url(#clipPath94)" />
    <path
       id="path95"
       d="M 0,0 C 0.822,-1.386 1.771,-2.275 1.653,-2.987 1.533,-3.708 0.31,-4.789 -0.341,-4.73 -1.035,-4.667 -2.116,-3.456 -2.122,-2.74 -2.127,-2.003 -1.038,-1.259 0,0"
       style="fill:#231f20;fill-opacity:1;fill-rule:nonzero;stroke:none;stroke-width:11.2196"
       transform="matrix(0.03144294,0,0,-0.03144294,7.2222168,3.9178786)"
       clip-path="url(#clipPath96)" />
    <path
       id="path97"
       d="m 0,0 c -1.318,-0.995 -2.098,-2.039 -2.814,-1.998 -0.741,0.043 -1.419,1.143 -2.124,1.78 0.645,0.714 1.222,1.9 1.956,2.006 C -2.268,1.892 -1.393,0.892 0,0"
       style="fill:#231f20;fill-opacity:1;fill-rule:nonzero;stroke:none;stroke-width:11.2196"
       transform="matrix(0.03144294,0,0,-0.03144294,10.680479,4.0042703)"
       clip-path="url(#clipPath98)" />
    <path
       id="path99"
       d="m 0,0 c -1.284,-1.068 -2.042,-2.181 -2.726,-2.138 -0.757,0.047 -1.448,1.153 -2.169,1.798 0.634,0.701 1.186,1.839 1.924,1.977 C -2.286,1.765 -1.401,0.826 0,0"
       style="fill:#231f20;fill-opacity:1;fill-rule:nonzero;stroke:none;stroke-width:11.2196"
       transform="matrix(0.03144294,0,0,-0.03144294,7.4629797,4.4684685)"
       clip-path="url(#clipPath100)" />
    <path
       id="path101"
       d="m 0,0 c -1.371,-0.862 -2.243,-1.841 -2.955,-1.736 -0.724,0.107 -1.822,1.316 -1.779,1.979 0.045,0.692 1.239,1.794 1.963,1.82 C -2.043,2.089 -1.275,1.011 0,0"
       style="fill:#231f20;fill-opacity:1;fill-rule:nonzero;stroke:none;stroke-width:11.2196"
       transform="matrix(0.03144294,0,0,-0.03144294,9.7026457,4.283956)"
       clip-path="url(#clipPath102)" />
    <path
       id="path103"
       d="m 0,0 c -0.939,1.288 -1.967,2.081 -1.91,2.788 0.056,0.721 1.18,1.884 1.837,1.884 C 0.616,4.673 1.785,3.575 1.861,2.863 1.937,2.152 0.919,1.324 0,0"
       style="fill:#231f20;fill-opacity:1;fill-rule:nonzero;stroke:none;stroke-width:11.2196"
       transform="matrix(0.03144294,0,0,-0.03144294,10.58882,4.2674672)"
       clip-path="url(#clipPath104)" />
    <path
       id="path105"
       d="M 0,0 C 1.371,0.834 2.248,1.792 2.959,1.682 3.677,1.571 4.768,0.352 4.71,-0.294 4.648,-0.993 3.459,-2.075 2.738,-2.094 2.015,-2.113 1.263,-1.027 0,0"
       style="fill:#231f20;fill-opacity:1;fill-rule:nonzero;stroke:none;stroke-width:11.2196"
       transform="matrix(0.03144294,0,0,-0.03144294,8.0766251,4.6983332)"
       clip-path="url(#clipPath106)" />
    <path
       id="path107"
       d="m 0,0 c -1.318,-1.038 -2.092,-2.118 -2.801,-2.077 -0.747,0.043 -1.432,1.156 -2.144,1.802 0.641,0.698 1.212,1.85 1.947,1.967 C -2.289,1.805 -1.41,0.851 0,0"
       style="fill:#231f20;fill-opacity:1;fill-rule:nonzero;stroke:none;stroke-width:11.2196"
       transform="matrix(0.03144294,0,0,-0.03144294,9.7295749,4.698701)"
       clip-path="url(#clipPath108)" />
    <path
       id="path109"
       d="m 0,0 c -1.366,-0.842 -2.239,-1.807 -2.959,-1.704 -0.717,0.104 -1.812,1.322 -1.763,1.975 0.054,0.697 1.247,1.804 1.958,1.816 C -2.024,2.1 -1.266,1.018 0,0"
       style="fill:#231f20;fill-opacity:1;fill-rule:nonzero;stroke:none;stroke-width:11.2196"
       transform="matrix(0.03144294,0,0,-0.03144294,8.4082168,4.7860135)"
       clip-path="url(#clipPath110)" />
    <path
       id="path111"
       d="M 0,0 C 0.928,-1.329 1.93,-2.136 1.867,-2.851 1.805,-3.583 0.683,-4.777 0.054,-4.759 -0.656,-4.738 -1.817,-3.641 -1.891,-2.921 -1.964,-2.198 -0.94,-1.363 0,0"
       style="fill:#231f20;fill-opacity:1;fill-rule:nonzero;stroke:none;stroke-width:11.2196"
       transform="matrix(0.03144294,0,0,-0.03144294,9.4860763,4.6893056)"
       clip-path="url(#clipPath112)" />
    <path
       id="path113"
       d="M 0,0 C 1.069,-1.264 2.183,-2.009 2.146,-2.692 2.105,-3.444 1.007,-4.139 0.369,-4.858 c -0.705,0.628 -1.843,1.17 -1.99,1.91 C -1.754,-2.273 -0.815,-1.386 0,0"
       style="fill:#231f20;fill-opacity:1;fill-rule:nonzero;stroke:none;stroke-width:11.2196"
       transform="matrix(0.03144294,0,0,-0.03144294,7.2657249,4.2494438)"
       clip-path="url(#clipPath114)" />
    <path
       id="path115"
       d="m 0,0 c -1.303,-1.001 -2.086,-2.063 -2.762,-1.999 -0.758,0.073 -1.417,1.165 -2.12,1.813 0.654,0.706 1.23,1.85 1.986,1.986 C -2.234,1.919 -1.368,0.905 0,0"
       style="fill:#231f20;fill-opacity:1;fill-rule:nonzero;stroke:none;stroke-width:11.2196"
       transform="matrix(0.03144294,0,0,-0.03144294,8.2819127,4.2756349)"
       clip-path="url(#clipPath116)" />
    <path
       id="path117"
       d="m 0,0 c -1.007,1.333 -2.038,2.101 -1.996,2.804 0.044,0.749 1.104,1.438 1.72,2.153 C 0.438,4.322 1.606,3.765 1.734,3.029 1.854,2.331 0.883,1.444 0,0"
       style="fill:#231f20;fill-opacity:1;fill-rule:nonzero;stroke:none;stroke-width:11.2196"
       transform="matrix(0.03144294,0,0,-0.03144294,8.2509114,4.2104918)"
       clip-path="url(#clipPath118)" />
    <path
       id="path119"
       d="m 0,0 c -1.312,-1 -2.087,-2.049 -2.773,-1.994 -0.765,0.061 -1.45,1.127 -2.168,1.756 0.65,0.716 1.221,1.88 1.975,2.014 C -2.284,1.898 -1.401,0.895 0,0"
       style="fill:#231f20;fill-opacity:1;fill-rule:nonzero;stroke:none;stroke-width:11.2196"
       transform="matrix(0.03144294,0,0,-0.03144294,10.232109,4.6417415)"
       clip-path="url(#clipPath120)" />
    <path
       id="path121"
       d="m 0,0 c 0.861,-1.355 1.847,-2.223 1.747,-2.941 -0.099,-0.709 -1.316,-1.775 -2,-1.745 -0.665,0.03 -1.753,1.239 -1.776,1.958 C -2.052,-2.006 -0.989,-1.25 0,0"
       style="fill:#231f20;fill-opacity:1;fill-rule:nonzero;stroke:none;stroke-width:11.2196"
       transform="matrix(0.03144294,0,0,-0.03144294,7.6677434,4.556625)"
       clip-path="url(#clipPath122)" />
    <path
       id="path123"
       d="m 0,0 c -1.414,-0.828 -2.3,-1.765 -2.999,-1.642 -0.735,0.13 -1.293,1.272 -1.929,1.973 0.719,0.643 1.412,1.753 2.163,1.793 C -2.063,2.162 -1.303,1.062 0,0"
       style="fill:#231f20;fill-opacity:1;fill-rule:nonzero;stroke:none;stroke-width:11.2196"
       transform="matrix(0.03144294,0,0,-0.03144294,10.388496,4.5857345)"
       clip-path="url(#clipPath124)" />
    <path
       id="path125"
       d="M 0,0 C 0.948,-1.274 1.984,-2.059 1.942,-2.781 1.9,-3.494 0.777,-4.668 0.115,-4.677 -0.572,-4.687 -1.76,-3.591 -1.834,-2.885 -1.91,-2.162 -0.9,-1.326 0,0"
       style="fill:#231f20;fill-opacity:1;fill-rule:nonzero;stroke:none;stroke-width:11.2196"
       transform="matrix(0.03144294,0,0,-0.03144294,7.5046965,4.4897939)"
       clip-path="url(#clipPath126)" />
    <path
       id="path127"
       d="M 0,0 C 1.412,0.85 2.288,1.799 2.988,1.683 3.729,1.561 4.303,0.426 4.95,-0.267 4.241,-0.916 3.561,-2.036 2.816,-2.079 2.106,-2.121 1.33,-1.042 0,0"
       style="fill:#231f20;fill-opacity:1;fill-rule:nonzero;stroke:none;stroke-width:11.2196"
       transform="matrix(0.03144294,0,0,-0.03144294,10.339887,4.4698338)"
       clip-path="url(#clipPath128)" />
    <path
       id="path129"
       d="m 0,0 c -1.268,-0.962 -2.049,-2.013 -2.756,-1.965 -0.716,0.048 -1.871,1.171 -1.889,1.846 -0.016,0.678 1.08,1.868 1.786,1.946 C -2.146,1.906 -1.312,0.896 0,0"
       style="fill:#231f20;fill-opacity:1;fill-rule:nonzero;stroke:none;stroke-width:11.2196"
       transform="matrix(0.03144294,0,0,-0.03144294,10.625978,3.8443985)"
       clip-path="url(#clipPath130)" />
    <path
       id="path131"
       d="m 0,0 c 0.903,-1.382 1.904,-2.244 1.791,-2.919 -0.127,-0.755 -1.265,-1.34 -1.962,-1.999 -0.655,0.703 -1.757,1.361 -1.831,2.12 C -2.069,-2.117 -1.007,-1.325 0,0"
       style="fill:#231f20;fill-opacity:1;fill-rule:nonzero;stroke:none;stroke-width:11.2196"
       transform="matrix(0.03144294,0,0,-0.03144294,10.321342,3.5013213)"
       clip-path="url(#clipPath132)" />
    <path
       id="path133"
       d="m 0,0 c -1.42,-0.876 -2.315,-1.861 -2.985,-1.727 -0.756,0.151 -1.31,1.31 -1.953,2.031 0.724,0.62 1.417,1.681 2.179,1.732 C -2.072,2.083 -1.31,1.025 0,0"
       style="fill:#231f20;fill-opacity:1;fill-rule:nonzero;stroke:none;stroke-width:11.2196"
       transform="matrix(0.03144294,0,0,-0.03144294,7.577285,3.5974761)"
       clip-path="url(#clipPath134)" />
    <path
       id="path135"
       d="m 0,0 c -1.396,-0.817 -2.279,-1.748 -2.991,-1.632 -0.71,0.115 -1.773,1.325 -1.718,1.974 0.057,0.672 1.264,1.721 1.98,1.731 C -2.005,2.083 -1.266,1.022 0,0"
       style="fill:#231f20;fill-opacity:1;fill-rule:nonzero;stroke:none;stroke-width:11.2196"
       transform="matrix(0.03144294,0,0,-0.03144294,8.0910131,4.6793255)"
       clip-path="url(#clipPath136)" />
    <path
       id="path137"
       d="m 0,0 c -1.262,-1.084 -1.992,-2.198 -2.679,-2.171 -0.755,0.029 -1.469,1.108 -2.201,1.729 0.619,0.711 1.149,1.852 1.884,2.006 C -2.314,1.706 -1.413,0.791 0,0"
       style="fill:#231f20;fill-opacity:1;fill-rule:nonzero;stroke:none;stroke-width:11.2196"
       transform="matrix(0.03144294,0,0,-0.03144294,7.306857,4.1697301)"
       clip-path="url(#clipPath138)" />
    <path
       id="path139"
       d="m 0,0 c -1.512,-0.86 -2.468,-1.832 -3.106,-1.655 -0.739,0.204 -1.508,1.366 -1.649,2.216 -0.071,0.428 1.253,1.564 1.875,1.514 C -2.097,2.011 -1.386,1.06 0,0"
       style="fill:#231f20;fill-opacity:1;fill-rule:nonzero;stroke:none;stroke-width:11.2196"
       transform="matrix(0.03144294,0,0,-0.03144294,10.623427,4.3455193)"
       clip-path="url(#clipPath140)" />
    <path
       id="path141"
       d="m 0,0 c -1.048,1.329 -2.102,2.082 -2.057,2.762 0.052,0.771 1.088,1.477 1.696,2.211 C 0.347,4.333 1.476,3.781 1.638,3.024 1.78,2.355 0.842,1.457 0,0"
       style="fill:#231f20;fill-opacity:1;fill-rule:nonzero;stroke:none;stroke-width:11.2196"
       transform="matrix(0.03144294,0,0,-0.03144294,8.2067736,3.8757807)"
       clip-path="url(#clipPath142)" />
    <path
       id="path143"
       d="m 0,0 c -0.941,1.402 -1.85,2.171 -1.859,2.953 -0.008,0.619 1.207,1.844 1.661,1.75 C 0.633,4.531 1.762,3.669 1.9,2.931 2.023,2.279 0.969,1.405 0,0"
       style="fill:#231f20;fill-opacity:1;fill-rule:nonzero;stroke:none;stroke-width:11.2196"
       transform="matrix(0.03144294,0,0,-0.03144294,9.9744574,4.763598)"
       clip-path="url(#clipPath144)" />
    <path
       id="path145"
       d="m 0,0 c -1.455,-0.997 -2.217,-1.913 -2.999,-1.931 -0.647,-0.014 -1.939,1.174 -1.847,1.579 0.191,0.838 1.015,1.953 1.764,2.118 C -2.422,1.912 -1.511,0.922 0,0"
       style="fill:#231f20;fill-opacity:1;fill-rule:nonzero;stroke:none;stroke-width:11.2196"
       transform="matrix(0.03144294,0,0,-0.03144294,9.8972917,4.6698535)"
       clip-path="url(#clipPath146)" />
    <path
       id="path147"
       d="m 0,0 c 0.962,-1.466 1.856,-2.246 1.876,-3.046 0.016,-0.639 -1.185,-1.923 -1.581,-1.828 -0.827,0.2 -1.944,1.042 -2.071,1.772 C -1.898,-2.4 -0.921,-1.508 0,0"
       style="fill:#231f20;fill-opacity:1;fill-rule:nonzero;stroke:none;stroke-width:11.2196"
       transform="matrix(0.03144294,0,0,-0.03144294,9.5572545,4.0242437)"
       clip-path="url(#clipPath148)" />
    <path
       id="path149"
       d="m 0,0 c -1.499,-0.84 -2.339,-1.679 -3.136,-1.639 -0.609,0.03 -1.742,1.342 -1.614,1.782 0.234,0.795 1.195,1.83 1.928,1.894 C -2.132,2.097 -1.345,1.031 0,0"
       style="fill:#231f20;fill-opacity:1;fill-rule:nonzero;stroke:none;stroke-width:11.2196"
       transform="matrix(0.03144294,0,0,-0.03144294,8.336938,3.9550023)"
       clip-path="url(#clipPath150)" />
    <path
       id="path151"
       d="M 0,0 C 0.957,-1.466 1.85,-2.249 1.874,-3.058 1.893,-3.692 0.68,-4.982 0.293,-4.884 -0.536,-4.673 -1.652,-3.831 -1.773,-3.101 -1.892,-2.391 -0.915,-1.499 0,0"
       style="fill:#231f20;fill-opacity:1;fill-rule:nonzero;stroke:none;stroke-width:11.2196"
       transform="matrix(0.03144294,0,0,-0.03144294,7.2659709,3.752514)"
       clip-path="url(#clipPath152)" />
    <path
       id="path153"
       d="m 0,0 c -1.329,-1.073 -2.117,-2.19 -2.807,-2.133 -0.72,0.06 -1.664,1.166 -1.886,1.985 -0.123,0.451 1.009,1.744 1.616,1.772 C -2.282,1.66 -1.448,0.821 0,0"
       style="fill:#231f20;fill-opacity:1;fill-rule:nonzero;stroke:none;stroke-width:11.2196"
       transform="matrix(0.03144294,0,0,-0.03144294,10.534104,3.6981765)"
       clip-path="url(#clipPath154)" />
    <path
       id="path155"
       d="M 0,0 C 1.072,-1.292 2.158,-2.03 2.126,-2.716 2.091,-3.473 1.031,-4.183 0.417,-4.913 -0.288,-4.291 -1.423,-3.755 -1.57,-3.022 -1.708,-2.334 -0.8,-1.437 0,0"
       style="fill:#231f20;fill-opacity:1;fill-rule:nonzero;stroke:none;stroke-width:11.2196"
       transform="matrix(0.03144294,0,0,-0.03144294,7.3524712,3.6145338)"
       clip-path="url(#clipPath156)" />
    <path
       id="path157"
       d="M 0,0 C -1.019,1.403 -2.092,2.249 -1.988,2.907 -1.871,3.644 -0.762,4.528 0.063,4.724 0.509,4.83 1.747,3.642 1.758,3.022 1.772,2.241 0.898,1.444 0,0"
       style="fill:#231f20;fill-opacity:1;fill-rule:nonzero;stroke:none;stroke-width:11.2196"
       transform="matrix(0.03144294,0,0,-0.03144294,7.8328645,4.7642118)"
       clip-path="url(#clipPath158)" />
    <path
       id="path159"
       d="m 0,0 c -1.492,-0.798 -2.34,-1.614 -3.12,-1.554 -0.618,0.048 -1.74,1.365 -1.604,1.77 0.269,0.8 1.217,1.817 1.957,1.88 C -2.093,2.152 -1.323,1.062 0,0"
       style="fill:#231f20;fill-opacity:1;fill-rule:nonzero;stroke:none;stroke-width:11.2196"
       transform="matrix(0.03144294,0,0,-0.03144294,9.6494327,3.9566427)"
       clip-path="url(#clipPath160)" />
    <path
       id="path161"
       d="m 0,0 c -1.419,-0.882 -2.22,-1.758 -3.016,-1.754 -0.608,0.004 -1.795,1.259 -1.687,1.713 0.195,0.831 1.093,1.966 1.819,2.063 C -2.205,2.113 -1.369,1.02 0,0"
       style="fill:#231f20;fill-opacity:1;fill-rule:nonzero;stroke:none;stroke-width:11.2196"
       transform="matrix(0.03144294,0,0,-0.03144294,9.6950918,3.7877009)"
       clip-path="url(#clipPath162)" />
  </g>
</svg>
