<?xml version="1.0" encoding="UTF-8" standalone="no"?>
<svg
   width="68"
   height="68"
   viewBox="0 0 17.991665 17.991665"
   version="1.1"
   id="svg1114"
   inkscape:version="1.3.2 (091e20ef0f, 2023-11-25)"
   sodipodi:docname="folder-chameleon.svg"
   xmlns:inkscape="http://www.inkscape.org/namespaces/inkscape"
   xmlns:sodipodi="http://sodipodi.sourceforge.net/DTD/sodipodi-0.dtd"
   xmlns:xlink="http://www.w3.org/1999/xlink"
   xmlns="http://www.w3.org/2000/svg"
   xmlns:svg="http://www.w3.org/2000/svg"
   xmlns:rdf="http://www.w3.org/1999/02/22-rdf-syntax-ns#"
   xmlns:cc="http://creativecommons.org/ns#"
   xmlns:dc="http://purl.org/dc/elements/1.1/">
  <style
     type="text/css"
     id="current-color-scheme">.ColorScheme-Highlight { color:#5599ff; }
</style>
  <defs
     id="defs1108">
    <linearGradient
       inkscape:collect="always"
       id="linearGradient13">
      <stop
         style="stop-color:#00d4aa;stop-opacity:1;"
         offset="0"
         id="stop12" />
      <stop
         style="stop-color:#9955ff;stop-opacity:1;"
         offset="1"
         id="stop13" />
    </linearGradient>
    <linearGradient
       id="linearGradient9"
       inkscape:collect="always">
      <stop
         style="stop-color:#ffffff;stop-opacity:0;"
         offset="0"
         id="stop1" />
      <stop
         id="stop8"
         offset="0.67097157"
         style="stop-color:#ffffff;stop-opacity:0" />
      <stop
         style="stop-color:#ffffff;stop-opacity:1;"
         offset="1"
         id="stop9" />
    </linearGradient>
    <linearGradient
       id="linearGradient7"
       inkscape:collect="always">
      <stop
         style="stop-color:#000000;stop-opacity:0;"
         offset="0"
         id="stop5" />
      <stop
         id="stop6"
         offset="0.6586886"
         style="stop-color:#000000;stop-opacity:0" />
      <stop
         style="stop-color:#000000;stop-opacity:1;"
         offset="1"
         id="stop7" />
    </linearGradient>
    <linearGradient
       id="linearGradient4"
       inkscape:collect="always">
      <stop
         style="stop-color:#000000;stop-opacity:0;"
         offset="0"
         id="stop2" />
      <stop
         id="stop3"
         offset="0.67055255"
         style="stop-color:#000000;stop-opacity:0" />
      <stop
         style="stop-color:#000000;stop-opacity:1;"
         offset="1"
         id="stop4" />
    </linearGradient>
    <linearGradient
       id="linearGradient1167"
       x1="40.751999"
       x2="40.751999"
       y1="28.507999"
       y2="17.205999"
       gradientUnits="userSpaceOnUse">
      <stop
         style="stop-color:#84fb6e;stop-opacity:1"
         stop-color="#0ab816"
         offset="0"
         id="stop1163" />
      <stop
         style="stop-color:#0dd41a;stop-opacity:1"
         stop-color="#0cf36c"
         offset="1"
         id="stop1165" />
    </linearGradient>
    <linearGradient
       id="cornerBevel"
       inkscape:collect="always">
      <stop
         style="stop-color:#000000;stop-opacity:0;"
         offset="0"
         id="stop2663" />
      <stop
         id="stop2671"
         offset="0.66666675"
         style="stop-color:#000000;stop-opacity:0" />
      <stop
         style="stop-color:#000000;stop-opacity:1;"
         offset="1"
         id="stop2661" />
    </linearGradient>
    <linearGradient
       id="bevel"
       inkscape:collect="always">
      <stop
         id="stop2685"
         offset="0"
         style="stop-color:#000000;stop-opacity:1;" />
      <stop
         id="stop2687"
         offset="1"
         style="stop-color:#000000;stop-opacity:0;" />
    </linearGradient>
    <linearGradient
       id="highlightCorner"
       inkscape:collect="always">
      <stop
         style="stop-color:#ffffff;stop-opacity:0;"
         offset="0"
         id="stop2613" />
      <stop
         id="stop2621"
         offset="0.66666669"
         style="stop-color:#ffffff;stop-opacity:0" />
      <stop
         style="stop-color:#ffffff;stop-opacity:1;"
         offset="1"
         id="stop2611" />
    </linearGradient>
    <linearGradient
       inkscape:collect="always"
       id="highlight">
      <stop
         style="stop-color:#ffffff;stop-opacity:1;"
         offset="0"
         id="stop2921" />
      <stop
         style="stop-color:#ffffff;stop-opacity:0;"
         offset="1"
         id="stop2923" />
    </linearGradient>
    <radialGradient
       inkscape:collect="always"
       xlink:href="#highlightCorner"
       id="radialGradient15"
       gradientUnits="userSpaceOnUse"
       gradientTransform="matrix(0.04294597,-12.079348,17.933991,0.06376112,14.524179,-50.373789)"
       cx="-4.5799766"
       cy="-0.50206107"
       fx="-4.5799766"
       fy="-0.50206107"
       r="0.39687499" />
    <linearGradient
       inkscape:collect="always"
       xlink:href="#highlight"
       id="linearGradient15"
       gradientUnits="userSpaceOnUse"
       x1="-3.8497722"
       y1="-1.1532172"
       x2="-3.8486557"
       y2="-0.89102554"
       gradientTransform="matrix(6.0923077,0,0,6.0923077,32.228528,7.1537621)" />
    <radialGradient
       inkscape:collect="always"
       xlink:href="#linearGradient9"
       id="radialGradient17"
       gradientUnits="userSpaceOnUse"
       gradientTransform="matrix(1.1757679e-4,-11.994067,-18.104833,-1.7749478e-4,1.6916469,-50.007179)"
       cx="-4.5775003"
       cy="-0.55256677"
       fx="-4.5775003"
       fy="-0.55256677"
       r="0.39687499" />
    <radialGradient
       inkscape:collect="always"
       xlink:href="#linearGradient7"
       id="radialGradient18"
       gradientUnits="userSpaceOnUse"
       gradientTransform="matrix(0.0232366,12.009662,17.933953,-0.03470102,14.426451,64.381084)"
       cx="-4.4256716"
       cy="-0.50045931"
       fx="-4.4256716"
       fy="-0.50045931"
       r="0.39687499" />
    <linearGradient
       inkscape:collect="always"
       xlink:href="#bevel"
       id="linearGradient18"
       gradientUnits="userSpaceOnUse"
       x1="-3.8447375"
       y1="-1.4538249"
       x2="-3.8438127"
       y2="-1.1952862"
       gradientTransform="matrix(6.0923076,0,0,6.0923076,32.228527,-7.1537627)" />
    <radialGradient
       inkscape:collect="always"
       xlink:href="#linearGradient4"
       id="radialGradient20"
       gradientUnits="userSpaceOnUse"
       gradientTransform="matrix(-0.01031383,11.991438,-17.967296,-0.01545561,1.7353715,64.305742)"
       cx="-4.4236727"
       cy="-0.55004197"
       fx="-4.4236727"
       fy="-0.55004197"
       r="0.39687499" />
    <radialGradient
       inkscape:collect="always"
       xlink:href="#cornerBevel"
       id="radialGradient25"
       gradientUnits="userSpaceOnUse"
       gradientTransform="matrix(12.184614,0,0,12.184614,59.63122,10.377613)"
       cx="-4.4568658"
       cy="-0.44864327"
       fx="-4.4568658"
       fy="-0.44864327"
       r="0.39687496" />
    <linearGradient
       inkscape:collect="always"
       xlink:href="#bevel"
       id="linearGradient25"
       gradientUnits="userSpaceOnUse"
       x1="-3.8487544"
       y1="-1.146081"
       x2="-3.8455966"
       y2="-0.890971"
       gradientTransform="matrix(6.0923077,0,0,6.0923077,32.228528,7.1537627)" />
    <radialGradient
       inkscape:collect="always"
       xlink:href="#cornerBevel"
       id="radialGradient29"
       gradientUnits="userSpaceOnUse"
       gradientTransform="matrix(0,-12.184614,12.184614,0,11.27353,-44.427768)"
       cx="-4.5705457"
       cy="-0.48653662"
       fx="-4.5705457"
       fy="-0.48653662"
       r="0.39687496" />
    <radialGradient
       inkscape:collect="always"
       xlink:href="#cornerBevel"
       id="radialGradient30"
       gradientUnits="userSpaceOnUse"
       gradientTransform="matrix(-12.184514,-0.04945749,0.04847411,-11.942243,-43.502155,3.8519053)"
       cx="-4.5342312"
       cy="-0.60337442"
       fx="-4.5342312"
       fy="-0.60337442"
       r="0.39687496" />
    <radialGradient
       inkscape:collect="always"
       xlink:href="#cornerBevel"
       id="radialGradient31"
       gradientUnits="userSpaceOnUse"
       gradientTransform="matrix(-0.06855274,-12.083057,11.978763,-0.06796103,18.172721,-48.506326)"
       cx="-4.4175329"
       cy="-0.56489283"
       fx="-4.4175329"
       fy="-0.56489283"
       r="0.39687496" />
    <linearGradient
       inkscape:collect="always"
       xlink:href="#bevel"
       id="linearGradient34"
       gradientUnits="userSpaceOnUse"
       x1="-3.99717"
       y1="-1.2218677"
       x2="-4.0003276"
       y2="-0.96675771"
       gradientTransform="matrix(6.0923077,0,0,6.0923077,17.025077,8.0496826)" />
    <linearGradient
       inkscape:collect="always"
       xlink:href="#bevel"
       id="linearGradient35"
       gradientUnits="userSpaceOnUse"
       x1="-4.0919032"
       y1="-1.4492278"
       x2="-4.0950613"
       y2="-1.1972755"
       gradientTransform="matrix(6.0923077,0,0,6.0923077,16.129161,-7.1537627)" />
    <linearGradient
       inkscape:collect="always"
       xlink:href="#bevel"
       id="linearGradient36"
       gradientUnits="userSpaceOnUse"
       x1="-3.8734362"
       y1="-1.3717227"
       x2="-3.8765941"
       y2="-1.116071"
       gradientTransform="matrix(6.0923077,0,0,6.0923077,31.33261,-8.0496826)" />
    <linearGradient
       id="paint2_linear_77:3-7"
       x1="79.398094"
       y1="-197.84389"
       x2="82.901054"
       y2="-199.97827"
       gradientUnits="userSpaceOnUse"
       gradientTransform="matrix(1.9248511,0,0,1.7314595,-40.88733,399.61741)">
      <stop
         stop-color="#EBFAFF"
         stop-opacity="0.1"
         id="stop29-5-7"
         offset="0"
         style="stop-color:#c3c3c3;stop-opacity:1;" />
      <stop
         offset="1"
         stop-color="#70A9FF"
         stop-opacity="0.5"
         id="stop30-0-1"
         style="stop-color:#05c7ff;stop-opacity:0.80000001;" />
    </linearGradient>
    <linearGradient
       inkscape:collect="always"
       xlink:href="#linearGradient13"
       id="linearGradient926"
       x1="2.068454"
       y1="-15.177441"
       x2="14.552083"
       y2="-1.8520833"
       gradientUnits="userSpaceOnUse"
       gradientTransform="translate(-0.92604234,0.47624996)" />
    <linearGradient
       inkscape:collect="always"
       xlink:href="#linearGradient13"
       id="linearGradient892"
       gradientUnits="userSpaceOnUse"
       x1="15.76272"
       y1="2.7368727"
       x2="2.6505842"
       y2="15.759102"
       gradientTransform="translate(-0.47625037,-0.92604234)" />
  </defs>
  <sodipodi:namedview
     id="base"
     pagecolor="#e2e2e2"
     bordercolor="#666666"
     borderopacity="1.0"
     inkscape:pageopacity="0"
     inkscape:pageshadow="2"
     inkscape:zoom="6.8765236"
     inkscape:cx="33.010866"
     inkscape:cy="36.282868"
     inkscape:document-units="px"
     inkscape:current-layer="layer1"
     inkscape:document-rotation="0"
     showgrid="true"
     units="px"
     inkscape:window-width="1920"
     inkscape:window-height="990"
     inkscape:window-x="0"
     inkscape:window-y="0"
     inkscape:window-maximized="1"
     inkscape:object-paths="true"
     inkscape:snap-grids="true"
     inkscape:snap-intersection-paths="true"
     inkscape:snap-smooth-nodes="true"
     inkscape:snap-midpoints="true"
     inkscape:showpageshadow="2"
     inkscape:pagecheckerboard="0"
     inkscape:deskcolor="#d1d1d1">
    <inkscape:grid
       id="grid2"
       units="px"
       originx="0"
       originy="0"
       spacingx="0.26458333"
       spacingy="0.26458333"
       empcolor="#0099e5"
       empopacity="0.30196078"
       color="#0099e5"
       opacity="0.14902"
       empspacing="5"
       dotted="false"
       gridanglex="30"
       gridanglez="30"
       visible="true" />
  </sodipodi:namedview>
  <metadata
     id="metadata1111">
    <rdf:RDF>
      <cc:Work
         rdf:about="">
        <dc:format>image/svg+xml</dc:format>
        <dc:type
           rdf:resource="http://purl.org/dc/dcmitype/StillImage" />
      </cc:Work>
    </rdf:RDF>
  </metadata>
  <g
     inkscape:label="Layer 1"
     inkscape:groupmode="layer"
     id="layer1">
    <g
       id="g918"
       transform="translate(0.47625037,0.92604234)">
      <rect
         ry="4.8357682"
         rx="4.8357682"
         style="fill:url(#linearGradient926);fill-opacity:1;stroke-width:6.09228"
         x="0.13229237"
         y="-16.457085"
         width="15.875001"
         height="15.875001"
         id="use1056"
         transform="rotate(90)"
         class="ColorScheme-Highlight" />
      <path
         d="m 5.344583,0.13229167 c -2.6384245,0 -4.76249953,2.12407483 -4.76249953,4.76249963 H 5.344583 Z"
         style="opacity:0.15;fill:url(#radialGradient25);fill-opacity:1;stroke-width:6.09228"
         id="path20" />
      <rect
         y="0.13229151"
         x="5.3445826"
         height="1.5875"
         width="6.3500004"
         id="rect20"
         style="opacity:0.15;fill:url(#linearGradient25);fill-opacity:1;stroke-width:4.83577;stroke-linecap:round;stroke-linejoin:round;paint-order:stroke fill markers" />
      <path
         d="m 0.58208347,11.244792 c 0,2.638424 2.12407503,4.762499 4.76249953,4.762499 v -4.762499 z"
         style="opacity:0.15;fill:url(#radialGradient29);fill-opacity:1;stroke-width:6.09228"
         id="use20" />
      <rect
         y="0.5820834"
         x="-11.244792"
         height="1.5875"
         width="6.3500004"
         id="use21"
         style="opacity:0.15;fill:url(#linearGradient34);fill-opacity:1;stroke-width:4.83577;stroke-linecap:round;stroke-linejoin:round;paint-order:stroke fill markers"
         transform="rotate(-90)" />
      <path
         d="m 11.694583,16.007291 c 2.638425,0 4.7625,-2.124074 4.7625,-4.762499 h -4.7625 z"
         style="opacity:0.15;fill:url(#radialGradient30);fill-opacity:1;stroke-width:6.09228"
         id="use22" />
      <rect
         y="-16.007292"
         x="-11.694584"
         height="1.5875"
         width="6.3500004"
         id="use23"
         style="opacity:0.15;fill:url(#linearGradient35);fill-opacity:1;stroke-width:4.83577;stroke-linecap:round;stroke-linejoin:round;paint-order:stroke fill markers"
         transform="scale(-1)" />
      <path
         d="m 16.457083,4.8947913 c 0,-2.6384245 -2.124074,-4.76249963 -4.7625,-4.76249963 V 4.8947913 Z"
         style="opacity:0.15;fill:url(#radialGradient31);fill-opacity:1;stroke-width:6.09228"
         id="use24" />
      <rect
         y="-16.457081"
         x="4.8947906"
         height="1.5875"
         width="6.3500004"
         id="use25"
         style="opacity:0.15;fill:url(#linearGradient36);fill-opacity:1;stroke-width:4.83577;stroke-linecap:round;stroke-linejoin:round;paint-order:stroke fill markers"
         transform="rotate(90)" />
      <path
         d="m 5.3445832,0.13229107 c -2.638425,0 -4.76250035,2.12407473 -4.76250035,4.76249973 H 5.3445832 Z"
         style="opacity:0.5;fill:url(#radialGradient15);fill-opacity:1;stroke-width:6.09228"
         id="path14" />
      <rect
         y="0.1322909"
         x="5.3445826"
         height="1.5875"
         width="6.3499999"
         id="rect14"
         style="opacity:0.5;fill:url(#linearGradient15);fill-opacity:1;stroke-width:4.83577;stroke-linecap:round;stroke-linejoin:round;paint-order:stroke fill markers" />
      <path
         d="m 11.694583,0.1322909 c 2.638425,0 4.7625,2.1240749 4.7625,4.7624976 h -4.7625 z"
         style="opacity:0.5;fill:url(#radialGradient17);fill-opacity:1;stroke-width:6.09228"
         id="use14" />
      <path
         id="path17"
         style="opacity:0.5;fill:url(#radialGradient18);fill-opacity:1;stroke-width:6.09228"
         d="m 5.3445834,16.00729 c -2.638425,0 -4.7625,-2.124075 -4.7625,-4.7625 h 4.7625 z" />
      <rect
         style="opacity:0.5;fill:url(#linearGradient18);fill-opacity:1;stroke-width:4.83577;stroke-linecap:round;stroke-linejoin:round;paint-order:stroke fill markers"
         id="rect17"
         width="6.3499994"
         height="1.5874999"
         x="5.3445826"
         y="-16.007292"
         transform="scale(1,-1)" />
      <path
         id="use17"
         style="opacity:0.5;fill:url(#radialGradient20);fill-opacity:1;stroke-width:6.09228"
         d="m 11.694582,16.007291 c 2.638425,0 4.7625,-2.124075 4.7625,-4.7625 h -4.7625 z" />
      <path
         d="m 4.8411477,2.2886454 c -1.1721999,0 -2.1159392,1.1779639 -2.1159392,2.2465608 V 11.26036 c 0,1.068671 0.943821,1.929059 2.1159392,1.929059 h 7.3766603 c 1.1722,0 2.115939,-0.860463 2.115939,-1.929059 V 4.5352062 c 0,-1.0686713 -0.943821,-2.2465608 -2.115939,-2.2465608 z"
         fill="#fafafa"
         stroke-linecap="round"
         stroke-width="0.0793746"
         style="fill:#ffffff;fill-opacity:0.602564;paint-order:stroke fill markers"
         id="path2-6"
         sodipodi:nodetypes="sssssssss" />
      <path
         d="m 2.8835048,3.9688329 c -0.2636521,0 -0.4757965,0.2024423 -0.4757965,0.4540176 v 1.4746632 c 0,0.0183 0.00347,0.03564 0.00565,0.05337 -0.00465,0.436096 -0.00439,0.933217 -0.00439,1.5855106 v 0.180942 h -4.391e-4 v 3.2806677 c 0,0.02941 0.00347,0.05796 0.00439,0.08714 0.00168,0.0413 0.00264,0.08276 0.00657,0.123409 0.1068632,1.368001 1.2422934,2.451689 2.6756704,2.554475 0.072019,0.0066 0.1449519,0.01032 0.2193309,0.01043 0.00102,3e-6 0.002,0 0.00307,0 h 6.4860055 4.37e-4 c 0.07554,0 0.149713,-0.0038 0.222824,-0.01043 1.429741,-0.102907 2.562793,-1.181876 2.673893,-2.54528 0.0073,-0.07226 0.01179,-0.145376 0.01179,-0.219716 V 7.6547513 c 1.3e-5,-0.0015 4.37e-4,-0.0028 4.37e-4,-0.0042 V 6.1758977 c 0,-0.251582 -0.106241,-0.454014 -0.369885,-0.454014 H 9.1584167 c -0.2295699,-1e-6 -0.4092976,-0.01479 -0.5583769,-0.05253 C 8.4509617,5.6316137 8.3328028,5.5707037 8.2273514,5.47924 8.121901,5.38777 8.0289554,5.2655993 7.9302511,5.1044346 7.8315481,4.9432596 7.7270274,4.7434229 7.598199,4.4965672 7.536064,4.3506905 7.449289,4.2446292 7.3543985,4.1680402 7.2595085,4.0914502 7.1566781,4.0442129 7.0612298,4.0150299 6.8703322,3.9566699 6.7103888,3.9712499 6.7103888,3.9712499 H 4.5515737 c -0.00887,-4.64e-4 -0.017213,-0.0025 -0.026218,-0.0025 H 3.7515794 Z"
         id="path4-3-6"
         style="fill:url(#linearGradient892);fill-opacity:1"
         class="ColorScheme-Highlight "
         sodipodi:nodetypes="csscsccscccsscsccscssssssccscccscc" />
    </g>
    <path
       style="fill:#1a1a1a;fill-opacity:0.6;stroke-width:0.264583"
       d="m 11.502643,15.579274 c -0.01767,-0.08046 -0.04772,-0.177565 -0.06678,-0.215796 -0.08014,-0.160755 -0.182958,-0.59609 -0.153054,-0.648074 0.01781,-0.03097 0.01622,-0.04171 -0.0035,-0.02388 -0.03643,0.03289 -0.404901,-0.641605 -0.369717,-0.676787 0.02943,-0.02943 0.243354,0.266659 0.319557,0.442309 0.125634,0.289598 0.07299,0.0096 -0.06724,-0.357609 l -0.138756,-0.363351 -0.133343,0.04648 c -0.143206,0.04992 -0.160866,0.08264 -0.08535,0.158152 0.03375,0.03375 -0.03015,0.0351 -0.215412,0.0045 -0.144872,-0.0239 -0.283814,-0.06787 -0.308756,-0.09772 -0.09474,-0.113368 -0.3372353,-0.17928 -0.45768,-0.124405 -0.1464046,0.0667 -0.3161633,0.06576 -0.4409668,-0.0024 -0.054483,-0.02977 -0.1562048,-0.04853 -0.2260531,-0.04169 -0.069847,0.0068 -0.1514781,-0.0078 -0.1813999,-0.03253 -0.036302,-0.03001 -0.303329,-0.01742 -0.8026775,0.03784 -0.9739199,0.10778 -1.3312295,0.129965 -1.2588617,0.07816 0.039374,-0.02819 0.028533,-0.03474 -0.034952,-0.02112 -0.050623,0.01086 -0.1190052,-0.0091 -0.1519627,-0.0444 -0.032958,-0.03528 -0.072581,-0.05149 -0.088047,-0.03602 -0.015468,0.01547 -0.00148,0.04458 0.03105,0.06469 0.088259,0.05454 -0.028093,0.08429 -0.1978532,0.05059 -0.091798,-0.01822 -0.1320706,-0.0508 -0.1238153,-0.10015 0.00774,-0.04629 -0.038038,-0.09066 -0.1247126,-0.120876 -0.07532,-0.02625 -0.1369473,-0.06615 -0.1369473,-0.08865 0,-0.04913 0.5582815,-0.09264 1.6326009,-0.127235 0.8872112,-0.02857 0.9406067,-0.03619 0.8677664,-0.123958 -0.037319,-0.04496 -0.1706907,-0.05458 -0.5436182,-0.03922 -0.420885,0.01734 -0.5377758,0.0059 -0.7882194,-0.07749 -0.3933479,-0.130891 -0.7047004,-0.33254 -0.7418253,-0.480449 -0.041133,-0.163884 0.00853,-0.191414 0.1335051,-0.07401 0.2201367,0.206796 0.8115307,0.117542 0.6533476,-0.0986 -0.047194,-0.06449 -0.092631,-0.07168 -0.2612065,-0.04133 -0.1122412,0.0202 -0.3029418,0.02196 -0.4237786,0.0039 -0.243816,-0.03642 -0.4348934,-0.165617 -0.3369065,-0.227801 0.046502,-0.02951 0.046545,-0.03679 2.09e-4,-0.03735 -0.060484,-7.4e-4 -0.033349,-0.212072 0.037186,-0.289641 0.019772,-0.02175 0.024836,-0.06849 0.011255,-0.103886 -0.013581,-0.03539 -0.00688,-0.0611 0.014882,-0.05713 0.084361,0.0154 0.1281039,-0.0063 0.077547,-0.03845 -0.039164,-0.02492 -0.034886,-0.07431 0.01665,-0.192032 0.038156,-0.08717 0.076021,-0.209503 0.084144,-0.271856 0.00812,-0.06235 0.022836,-0.174588 0.032701,-0.249411 0.00986,-0.07482 0.032085,-0.187058 0.049389,-0.24941 0.0191,-0.06883 -0.00677,-0.04344 -0.06584,0.06462 l -0.097326,0.178014 -0.084537,-0.109968 C 6.2325496,10.666663 6.2428551,10.637678 6.4779037,10.47362 c 0.1800922,-0.1257 0.2103528,-0.125321 0.1744849,0.0022 -0.022468,0.07987 -0.018358,0.08726 0.018923,0.03401 0.040115,-0.05729 0.047845,-0.05372 0.049017,0.02268 0.00114,0.07496 0.00888,0.0789 0.044593,0.02268 0.025551,-0.04023 0.026311,-0.07385 0.00185,-0.08229 -0.022742,-0.0078 -0.029451,-0.04527 -0.014909,-0.08316 0.019445,-0.05067 0.035362,-0.05446 0.060169,-0.01432 0.021111,0.03416 0.055306,-0.0108 0.091408,-0.120181 0.046766,-0.141695 0.063381,-0.158505 0.087815,-0.08885 0.026285,0.07493 0.042772,0.06546 0.1290299,-0.0741 0.05439,-0.088 0.098893,-0.2056917 0.098893,-0.2615334 0,-0.068172 0.020762,-0.093564 0.063197,-0.077281 0.034757,0.013338 0.109742,-0.025292 0.1666302,-0.085843 0.1253295,-0.1333997 0.197278,-0.1421252 0.1653538,-0.020053 -0.017233,0.065893 0.018722,0.046515 0.1340783,-0.072262 0.086695,-0.089266 0.1700779,-0.1498502 0.1852973,-0.1346317 0.015219,0.015219 0.00352,0.051818 -0.02599,0.081332 -0.093088,0.093082 -0.06439,0.1817561 0.029844,0.092206 0.045929,-0.043647 0.075891,-0.093766 0.066581,-0.1113767 -0.027664,-0.05233 0.1969435,-0.1781423 0.3991247,-0.2235668 0.2353779,-0.052883 0.4201882,0.00387 0.6185525,0.189946 0.081063,0.076042 0.1473876,0.1515075 0.1473876,0.1677024 0,0.016195 -0.024487,0.00496 -0.054419,-0.024971 -0.07672,-0.076701 -0.4290246,-0.067579 -0.719304,0.01862 -0.2419446,0.071846 -0.6321448,0.3873762 -0.6321448,0.5111752 0,0.183345 0.7249782,0.360974 1.1514968,0.282133 0.4106313,-0.07591 0.4462839,-0.10807 0.4283819,-0.386456 -0.011091,-0.1724962 8.466e-4,-0.2381902 0.043319,-0.2381272 0.033089,4.55e-5 0.047434,0.029289 0.032921,0.067108 -0.014145,0.036862 0.00393,0.099781 0.040169,0.1398212 0.03624,0.04004 0.067585,0.09321 0.069662,0.118147 0.0085,0.101951 0.056744,0.204063 0.096444,0.204063 0.023262,0 0.042291,-0.02041 0.042291,-0.04535 0,-0.02494 -0.023811,-0.04535 -0.052903,-0.04535 -0.029101,0 -0.040261,-0.01264 -0.024812,-0.0281 0.039793,-0.03979 0.4624872,0.278914 0.5981212,0.450968 0.06242,0.07918 0.113719,0.122311 0.113997,0.09584 2.65e-4,-0.02647 -0.0436,-0.09548 -0.09751,-0.153343 -0.05393,-0.05787 -0.173323,-0.255932 -0.2653339,-0.440139 L 9.7723112,9.828056 9.9190555,9.855584 c 0.084442,0.015841 0.1593225,0.00718 0.1763735,-0.020407 0.01707,-0.027623 0.08951,-0.035957 0.17097,-0.019666 0.106791,0.021357 0.13274,0.014346 0.106145,-0.028683 -0.02781,-0.045003 -0.01444,-0.045844 0.06373,-0.00401 0.104781,0.056075 0.102572,0.1677455 -0.003,0.1492273 -0.03429,-0.00602 -0.0121,0.02459 0.04935,0.068021 0.06143,0.04343 0.142498,0.114674 0.180139,0.158321 0.03764,0.04365 0.09669,0.07936 0.131238,0.07936 0.03812,0 0.05218,0.02765 0.03579,0.07038 -0.01692,0.04411 -0.0085,0.05891 0.02268,0.03967 0.03352,-0.02072 0.03976,0.0043 0.01919,0.077 -0.02055,0.07255 -0.01675,0.0879 0.01164,0.04701 0.03211,-0.04624 0.06644,-0.02138 0.144195,0.104416 0.05615,0.09081 0.08995,0.177206 0.07517,0.191986 -0.01478,0.01478 -0.04642,-0.02201 -0.07032,-0.08174 -0.03578,-0.08945 -0.04395,-0.09337 -0.04632,-0.02223 -0.0028,0.08351 -0.0059,0.08365 -0.09361,0.0043 -0.115167,-0.104218 -0.120129,-0.0088 -0.0052,0.100266 0.133031,0.126243 0.272462,0.381106 0.24609,0.449826 -0.01311,0.03416 -0.0081,0.09781 0.01112,0.141458 0.01922,0.04365 0.03671,0.09296 0.03886,0.10959 0.0021,0.01663 0.01922,0.04554 0.03793,0.06424 0.01874,0.01871 0.03403,0.07078 0.03403,0.115724 0,0.054 0.02306,0.07286 0.06802,0.05561 0.09008,-0.03457 0.08633,0.01712 -0.0081,0.111546 -0.07126,0.07126 -0.07126,0.07706 0,0.09078 0.04537,0.0087 0.07613,0.05748 0.07613,0.120674 0,0.06038 0.05453,0.151897 0.126704,0.212621 0.208612,0.175526 0.21411,0.213136 0.05512,0.377158 l -0.145818,0.150437 0.263475,0.249161 c 0.307584,0.290877 0.298993,0.331455 -0.108308,0.511573 -0.209374,0.09259 -0.239032,0.12096 -0.21281,0.203577 0.166154,0.523468 0.315693,1.899695 0.213297,1.962976 -0.02849,0.01761 -0.06138,-0.03006 -0.08038,-0.116477 z m -0.619952,-2.024165 c 0.08852,-0.05617 0.01887,-0.176376 -0.132874,-0.229268 -0.115485,-0.04026 -0.162597,-0.03003 -0.320292,0.06951 -0.141125,0.08908 -0.169938,0.126176 -0.121725,0.156704 0.07939,0.05027 0.496973,0.05249 0.574891,0.0031 z m 0.592583,-0.147495 c 0.179816,-0.06268 0.180079,-0.11001 0.0011,-0.202543 -0.176029,-0.09102 -0.282812,-0.01743 -0.218069,0.150294 0.04589,0.118899 0.03397,0.116027 0.21694,0.05225 z M 9.0784863,13.276007 c 0,-0.02494 -0.035712,-0.04504 -0.079363,-0.04465 -0.067822,5.83e-4 -0.069473,0.0071 -0.01134,0.04465 0.085586,0.05531 0.090699,0.05531 0.090699,0 z m 0.5636994,0.0051 c 0.01367,-0.02211 -0.00551,-0.06543 -0.042671,-0.09625 -0.1065461,-0.08842 -0.080946,-0.162421 0.1138756,-0.329171 0.1995526,-0.1708 0.2215857,-0.235357 0.1020368,-0.298969 -0.060485,-0.03218 -0.1656724,0.01037 -0.4421629,0.178877 -0.1995403,0.121607 -0.3883098,0.221518 -0.419488,0.222022 -0.1206111,0.002 -0.046715,0.09146 0.1814002,0.219734 0.2382,0.133941 0.4602681,0.179384 0.5070127,0.103755 z m 0.5522213,-0.09767 c 0.132275,-0.05029 0.136207,-0.0951 0.01775,-0.202294 -0.08768,-0.07935 -0.09628,-0.0792 -0.2527443,0.0043 -0.4209781,0.224716 -0.2388806,0.378138 0.2349913,0.197985 z M 7.9376506,12.303274 c 0.030693,-0.157274 -0.067052,-0.179203 -0.3192662,-0.07163 -0.2955039,0.126036 -0.280507,0.11104 -0.2214245,0.221429 0.048354,0.09034 0.052861,0.09051 0.287112,0.01093 0.1493976,-0.05075 0.2437917,-0.110585 0.2535787,-0.160735 z m 0.3376791,-0.07635 c 0.105012,-0.05323 0.2034165,-0.116195 0.218676,-0.139916 0.015258,-0.02372 0.042591,-0.03896 0.060734,-0.03386 0.049946,0.01404 0.4356153,-0.285114 0.4842792,-0.375641 0.057559,-0.10707 0.038633,-0.102677 -0.3131261,0.07268 -0.1677393,0.08362 -0.4019165,0.188426 -0.5203934,0.232898 -0.1671001,0.06272 -0.2154126,0.103206 -0.2154126,0.180507 0,0.0905 0.033645,0.160113 0.077391,0.160113 0.00931,0 0.1028424,-0.04355 0.2078544,-0.09679 z M 6.4028341,11.915583 c 0,-0.02494 -0.020408,-0.04535 -0.045348,-0.04535 -0.024943,0 -0.045349,0.02041 -0.045349,0.04535 0,0.02494 0.020408,0.04535 0.045349,0.04535 0.024943,0 0.045348,-0.02041 0.045348,-0.04535 z m 3.9310869,-1.051492 c -0.01447,-0.03618 -0.02523,-0.02543 -0.02741,0.0274 -0.002,0.0478 0.0088,0.07459 0.02382,0.05952 0.01507,-0.01507 0.0167,-0.05418 0.0036,-0.08692 z M 9.7918042,10.391726 c -0.015074,-0.01507 -0.054182,-0.01668 -0.086926,-0.0036 -0.036181,0.01447 -0.025434,0.02522 0.027404,0.0274 0.047801,0.002 0.074595,-0.0088 0.059522,-0.02382 z M 7.3098347,10.192387 c 0,-0.02494 -0.009,-0.04535 -0.019997,-0.04535 -0.010999,0 -0.03261,0.02041 -0.048025,0.04535 -0.015415,0.02494 -0.00642,0.04535 0.019997,0.04535 0.026413,0 0.048025,-0.02041 0.048024,-0.04535 z m 0.090699,-0.186742 c 0,-0.024942 -0.020408,-0.032736 -0.045349,-0.017322 -0.024943,0.015415 -0.045349,0.048433 -0.045349,0.073374 0,0.02494 0.020409,0.03274 0.045349,0.01732 0.024943,-0.01541 0.045349,-0.04843 0.045349,-0.07337 z M 10.25759,9.9376869 c 0,-0.00956 -0.05222,-0.017386 -0.116056,-0.017386 -0.06382,0 -0.104619,0.018489 -0.09065,0.04109 0.02324,0.037592 0.206709,0.01655 0.20671,-0.023704 z M 8.8707447,10.231802 c -0.038655,-0.06254 0.050125,-0.148794 0.11309,-0.109879 0.027115,0.01676 0.049301,0.04749 0.049301,0.06829 0,0.06032 -0.1302025,0.09367 -0.162391,0.04159 z M 6.3574843,10.056344 c 0,-0.02494 0.021612,-0.04535 0.048025,-0.04535 0.026413,0 0.035412,0.02041 0.019997,0.04535 -0.015415,0.02494 -0.037026,0.04535 -0.048025,0.04535 -0.010999,0 -0.019997,-0.02041 -0.019997,-0.04535 z"
       id="path1-3" />
  </g>
</svg>
