<?xml version="1.0" encoding="UTF-8" standalone="no"?>
<svg
   width="68"
   height="68"
   viewBox="0 0 17.991665 17.991665"
   version="1.1"
   id="svg1114"
   inkscape:version="1.3.2 (091e20ef0f, 2023-11-25)"
   sodipodi:docname="folder-deb.svg"
   xmlns:inkscape="http://www.inkscape.org/namespaces/inkscape"
   xmlns:sodipodi="http://sodipodi.sourceforge.net/DTD/sodipodi-0.dtd"
   xmlns:xlink="http://www.w3.org/1999/xlink"
   xmlns="http://www.w3.org/2000/svg"
   xmlns:svg="http://www.w3.org/2000/svg"
   xmlns:rdf="http://www.w3.org/1999/02/22-rdf-syntax-ns#"
   xmlns:cc="http://creativecommons.org/ns#"
   xmlns:dc="http://purl.org/dc/elements/1.1/">
  <style
     type="text/css"
     id="current-color-scheme">.ColorScheme-Highlight { color:#5599ff; }
</style>
  <defs
     id="defs1108">
    <linearGradient
       inkscape:collect="always"
       id="linearGradient13">
      <stop
         style="stop-color:#5599ff;stop-opacity:1;"
         offset="0"
         id="stop12" />
      <stop
         style="stop-color:#c83771;stop-opacity:1;"
         offset="1"
         id="stop13" />
    </linearGradient>
    <linearGradient
       id="linearGradient9"
       inkscape:collect="always">
      <stop
         style="stop-color:#ffffff;stop-opacity:0;"
         offset="0"
         id="stop1" />
      <stop
         id="stop8"
         offset="0.67097157"
         style="stop-color:#ffffff;stop-opacity:0" />
      <stop
         style="stop-color:#ffffff;stop-opacity:1;"
         offset="1"
         id="stop9" />
    </linearGradient>
    <linearGradient
       id="linearGradient7"
       inkscape:collect="always">
      <stop
         style="stop-color:#000000;stop-opacity:0;"
         offset="0"
         id="stop5" />
      <stop
         id="stop6"
         offset="0.6586886"
         style="stop-color:#000000;stop-opacity:0" />
      <stop
         style="stop-color:#000000;stop-opacity:1;"
         offset="1"
         id="stop7" />
    </linearGradient>
    <linearGradient
       id="linearGradient4"
       inkscape:collect="always">
      <stop
         style="stop-color:#000000;stop-opacity:0;"
         offset="0"
         id="stop2" />
      <stop
         id="stop3"
         offset="0.67055255"
         style="stop-color:#000000;stop-opacity:0" />
      <stop
         style="stop-color:#000000;stop-opacity:1;"
         offset="1"
         id="stop4" />
    </linearGradient>
    <linearGradient
       id="linearGradient1167"
       x1="40.751999"
       x2="40.751999"
       y1="28.507999"
       y2="17.205999"
       gradientUnits="userSpaceOnUse">
      <stop
         style="stop-color:#84fb6e;stop-opacity:1"
         stop-color="#0ab816"
         offset="0"
         id="stop1163" />
      <stop
         style="stop-color:#0dd41a;stop-opacity:1"
         stop-color="#0cf36c"
         offset="1"
         id="stop1165" />
    </linearGradient>
    <linearGradient
       id="cornerBevel"
       inkscape:collect="always">
      <stop
         style="stop-color:#000000;stop-opacity:0;"
         offset="0"
         id="stop2663" />
      <stop
         id="stop2671"
         offset="0.66666675"
         style="stop-color:#000000;stop-opacity:0" />
      <stop
         style="stop-color:#000000;stop-opacity:1;"
         offset="1"
         id="stop2661" />
    </linearGradient>
    <linearGradient
       id="bevel"
       inkscape:collect="always">
      <stop
         id="stop2685"
         offset="0"
         style="stop-color:#000000;stop-opacity:1;" />
      <stop
         id="stop2687"
         offset="1"
         style="stop-color:#000000;stop-opacity:0;" />
    </linearGradient>
    <linearGradient
       id="highlightCorner"
       inkscape:collect="always">
      <stop
         style="stop-color:#ffffff;stop-opacity:0;"
         offset="0"
         id="stop2613" />
      <stop
         id="stop2621"
         offset="0.66666669"
         style="stop-color:#ffffff;stop-opacity:0" />
      <stop
         style="stop-color:#ffffff;stop-opacity:1;"
         offset="1"
         id="stop2611" />
    </linearGradient>
    <linearGradient
       inkscape:collect="always"
       id="highlight">
      <stop
         style="stop-color:#ffffff;stop-opacity:1;"
         offset="0"
         id="stop2921" />
      <stop
         style="stop-color:#ffffff;stop-opacity:0;"
         offset="1"
         id="stop2923" />
    </linearGradient>
    <radialGradient
       inkscape:collect="always"
       xlink:href="#highlightCorner"
       id="radialGradient15"
       gradientUnits="userSpaceOnUse"
       gradientTransform="matrix(0.04294597,-12.079348,17.933991,0.06376112,14.524179,-50.373789)"
       cx="-4.5799766"
       cy="-0.50206107"
       fx="-4.5799766"
       fy="-0.50206107"
       r="0.39687499" />
    <linearGradient
       inkscape:collect="always"
       xlink:href="#highlight"
       id="linearGradient15"
       gradientUnits="userSpaceOnUse"
       x1="-3.8497722"
       y1="-1.1532172"
       x2="-3.8486557"
       y2="-0.89102554"
       gradientTransform="matrix(6.0923077,0,0,6.0923077,32.228528,7.1537621)" />
    <radialGradient
       inkscape:collect="always"
       xlink:href="#linearGradient9"
       id="radialGradient17"
       gradientUnits="userSpaceOnUse"
       gradientTransform="matrix(1.1757679e-4,-11.994067,-18.104833,-1.7749478e-4,1.6916469,-50.007179)"
       cx="-4.5775003"
       cy="-0.55256677"
       fx="-4.5775003"
       fy="-0.55256677"
       r="0.39687499" />
    <radialGradient
       inkscape:collect="always"
       xlink:href="#linearGradient7"
       id="radialGradient18"
       gradientUnits="userSpaceOnUse"
       gradientTransform="matrix(0.0232366,12.009662,17.933953,-0.03470102,14.426451,64.381084)"
       cx="-4.4256716"
       cy="-0.50045931"
       fx="-4.4256716"
       fy="-0.50045931"
       r="0.39687499" />
    <linearGradient
       inkscape:collect="always"
       xlink:href="#bevel"
       id="linearGradient18"
       gradientUnits="userSpaceOnUse"
       x1="-3.8447375"
       y1="-1.4538249"
       x2="-3.8438127"
       y2="-1.1952862"
       gradientTransform="matrix(6.0923076,0,0,6.0923076,32.228527,-7.1537627)" />
    <radialGradient
       inkscape:collect="always"
       xlink:href="#linearGradient4"
       id="radialGradient20"
       gradientUnits="userSpaceOnUse"
       gradientTransform="matrix(-0.01031383,11.991438,-17.967296,-0.01545561,1.7353715,64.305742)"
       cx="-4.4236727"
       cy="-0.55004197"
       fx="-4.4236727"
       fy="-0.55004197"
       r="0.39687499" />
    <radialGradient
       inkscape:collect="always"
       xlink:href="#cornerBevel"
       id="radialGradient25"
       gradientUnits="userSpaceOnUse"
       gradientTransform="matrix(12.184614,0,0,12.184614,59.63122,10.377613)"
       cx="-4.4568658"
       cy="-0.44864327"
       fx="-4.4568658"
       fy="-0.44864327"
       r="0.39687496" />
    <linearGradient
       inkscape:collect="always"
       xlink:href="#bevel"
       id="linearGradient25"
       gradientUnits="userSpaceOnUse"
       x1="-3.8487544"
       y1="-1.146081"
       x2="-3.8455966"
       y2="-0.890971"
       gradientTransform="matrix(6.0923077,0,0,6.0923077,32.228528,7.1537627)" />
    <radialGradient
       inkscape:collect="always"
       xlink:href="#cornerBevel"
       id="radialGradient29"
       gradientUnits="userSpaceOnUse"
       gradientTransform="matrix(0,-12.184614,12.184614,0,11.27353,-44.427768)"
       cx="-4.5705457"
       cy="-0.48653662"
       fx="-4.5705457"
       fy="-0.48653662"
       r="0.39687496" />
    <radialGradient
       inkscape:collect="always"
       xlink:href="#cornerBevel"
       id="radialGradient30"
       gradientUnits="userSpaceOnUse"
       gradientTransform="matrix(-12.184514,-0.04945749,0.04847411,-11.942243,-43.502155,3.8519053)"
       cx="-4.5342312"
       cy="-0.60337442"
       fx="-4.5342312"
       fy="-0.60337442"
       r="0.39687496" />
    <radialGradient
       inkscape:collect="always"
       xlink:href="#cornerBevel"
       id="radialGradient31"
       gradientUnits="userSpaceOnUse"
       gradientTransform="matrix(-0.06855274,-12.083057,11.978763,-0.06796103,18.172721,-48.506326)"
       cx="-4.4175329"
       cy="-0.56489283"
       fx="-4.4175329"
       fy="-0.56489283"
       r="0.39687496" />
    <linearGradient
       inkscape:collect="always"
       xlink:href="#bevel"
       id="linearGradient34"
       gradientUnits="userSpaceOnUse"
       x1="-3.99717"
       y1="-1.2218677"
       x2="-4.0003276"
       y2="-0.96675771"
       gradientTransform="matrix(6.0923077,0,0,6.0923077,17.025077,8.0496826)" />
    <linearGradient
       inkscape:collect="always"
       xlink:href="#bevel"
       id="linearGradient35"
       gradientUnits="userSpaceOnUse"
       x1="-4.0919032"
       y1="-1.4492278"
       x2="-4.0950613"
       y2="-1.1972755"
       gradientTransform="matrix(6.0923077,0,0,6.0923077,16.129161,-7.1537627)" />
    <linearGradient
       inkscape:collect="always"
       xlink:href="#bevel"
       id="linearGradient36"
       gradientUnits="userSpaceOnUse"
       x1="-3.8734362"
       y1="-1.3717227"
       x2="-3.8765941"
       y2="-1.116071"
       gradientTransform="matrix(6.0923077,0,0,6.0923077,31.33261,-8.0496826)" />
    <linearGradient
       id="paint2_linear_77:3-7"
       x1="79.398094"
       y1="-197.84389"
       x2="82.901054"
       y2="-199.97827"
       gradientUnits="userSpaceOnUse"
       gradientTransform="matrix(1.9248511,0,0,1.7314595,-40.88733,399.61741)">
      <stop
         stop-color="#EBFAFF"
         stop-opacity="0.1"
         id="stop29-5-7"
         offset="0"
         style="stop-color:#c3c3c3;stop-opacity:1;" />
      <stop
         offset="1"
         stop-color="#70A9FF"
         stop-opacity="0.5"
         id="stop30-0-1"
         style="stop-color:#05c7ff;stop-opacity:0.80000001;" />
    </linearGradient>
    <linearGradient
       inkscape:collect="always"
       xlink:href="#linearGradient13"
       id="linearGradient926"
       x1="2.2676716"
       y1="-15.434939"
       x2="15.53153"
       y2="-2.4778411"
       gradientUnits="userSpaceOnUse"
       gradientTransform="translate(-0.92604234,0.47624996)" />
    <linearGradient
       inkscape:collect="always"
       xlink:href="#linearGradient13"
       id="linearGradient892"
       gradientUnits="userSpaceOnUse"
       x1="15.76272"
       y1="2.7368727"
       x2="2.6505842"
       y2="15.759102"
       gradientTransform="translate(-0.47625037,-0.92604234)" />
  </defs>
  <sodipodi:namedview
     id="base"
     pagecolor="#e2e2e2"
     bordercolor="#000000"
     borderopacity="1"
     inkscape:pageopacity="0"
     inkscape:pageshadow="2"
     inkscape:zoom="9.724873"
     inkscape:cx="33.008143"
     inkscape:cy="31.157219"
     inkscape:document-units="px"
     inkscape:current-layer="layer1"
     inkscape:document-rotation="0"
     showgrid="true"
     units="px"
     inkscape:window-width="1920"
     inkscape:window-height="990"
     inkscape:window-x="0"
     inkscape:window-y="0"
     inkscape:window-maximized="1"
     inkscape:object-paths="true"
     inkscape:snap-grids="true"
     inkscape:snap-intersection-paths="true"
     inkscape:snap-smooth-nodes="true"
     inkscape:snap-midpoints="true"
     inkscape:showpageshadow="2"
     inkscape:pagecheckerboard="0"
     inkscape:deskcolor="#d1d1d1">
    <inkscape:grid
       id="grid2"
       units="px"
       originx="0"
       originy="0"
       spacingx="0.26458333"
       spacingy="0.26458333"
       empcolor="#0099e5"
       empopacity="0.30196078"
       color="#0099e5"
       opacity="0.14902"
       empspacing="5"
       dotted="false"
       gridanglex="30"
       gridanglez="30"
       visible="true" />
  </sodipodi:namedview>
  <metadata
     id="metadata1111">
    <rdf:RDF>
      <cc:Work
         rdf:about="">
        <dc:format>image/svg+xml</dc:format>
        <dc:type
           rdf:resource="http://purl.org/dc/dcmitype/StillImage" />
      </cc:Work>
    </rdf:RDF>
  </metadata>
  <g
     inkscape:label="Layer 1"
     inkscape:groupmode="layer"
     id="layer1">
    <g
       id="g918"
       transform="translate(0.47625037,0.92604234)">
      <rect
         ry="4.8357682"
         rx="4.8357682"
         style="fill:url(#linearGradient926);fill-opacity:1;stroke-width:6.09228"
         x="0.13229237"
         y="-16.457085"
         width="15.875001"
         height="15.875001"
         id="use1056"
         transform="rotate(90)"
         class="ColorScheme-Highlight" />
      <path
         d="m 5.344583,0.13229167 c -2.6384245,0 -4.76249953,2.12407483 -4.76249953,4.76249963 H 5.344583 Z"
         style="opacity:0.15;fill:url(#radialGradient25);fill-opacity:1;stroke-width:6.09228"
         id="path20" />
      <rect
         y="0.13229151"
         x="5.3445826"
         height="1.5875"
         width="6.3500004"
         id="rect20"
         style="opacity:0.15;fill:url(#linearGradient25);fill-opacity:1;stroke-width:4.83577;stroke-linecap:round;stroke-linejoin:round;paint-order:stroke fill markers" />
      <path
         d="m 0.58208347,11.244792 c 0,2.638424 2.12407503,4.762499 4.76249953,4.762499 v -4.762499 z"
         style="opacity:0.15;fill:url(#radialGradient29);fill-opacity:1;stroke-width:6.09228"
         id="use20" />
      <rect
         y="0.5820834"
         x="-11.244792"
         height="1.5875"
         width="6.3500004"
         id="use21"
         style="opacity:0.15;fill:url(#linearGradient34);fill-opacity:1;stroke-width:4.83577;stroke-linecap:round;stroke-linejoin:round;paint-order:stroke fill markers"
         transform="rotate(-90)" />
      <path
         d="m 11.694583,16.007291 c 2.638425,0 4.7625,-2.124074 4.7625,-4.762499 h -4.7625 z"
         style="opacity:0.15;fill:url(#radialGradient30);fill-opacity:1;stroke-width:6.09228"
         id="use22" />
      <rect
         y="-16.007292"
         x="-11.694584"
         height="1.5875"
         width="6.3500004"
         id="use23"
         style="opacity:0.15;fill:url(#linearGradient35);fill-opacity:1;stroke-width:4.83577;stroke-linecap:round;stroke-linejoin:round;paint-order:stroke fill markers"
         transform="scale(-1)" />
      <path
         d="m 16.457083,4.8947913 c 0,-2.6384245 -2.124074,-4.76249963 -4.7625,-4.76249963 V 4.8947913 Z"
         style="opacity:0.15;fill:url(#radialGradient31);fill-opacity:1;stroke-width:6.09228"
         id="use24" />
      <rect
         y="-16.457081"
         x="4.8947906"
         height="1.5875"
         width="6.3500004"
         id="use25"
         style="opacity:0.15;fill:url(#linearGradient36);fill-opacity:1;stroke-width:4.83577;stroke-linecap:round;stroke-linejoin:round;paint-order:stroke fill markers"
         transform="rotate(90)" />
      <path
         d="m 5.3445832,0.13229107 c -2.638425,0 -4.76250035,2.12407473 -4.76250035,4.76249973 H 5.3445832 Z"
         style="opacity:0.5;fill:url(#radialGradient15);fill-opacity:1;stroke-width:6.09228"
         id="path14" />
      <rect
         y="0.1322909"
         x="5.3445826"
         height="1.5875"
         width="6.3499999"
         id="rect14"
         style="opacity:0.5;fill:url(#linearGradient15);fill-opacity:1;stroke-width:4.83577;stroke-linecap:round;stroke-linejoin:round;paint-order:stroke fill markers" />
      <path
         d="m 11.694583,0.1322909 c 2.638425,0 4.7625,2.1240749 4.7625,4.7624976 h -4.7625 z"
         style="opacity:0.5;fill:url(#radialGradient17);fill-opacity:1;stroke-width:6.09228"
         id="use14" />
      <path
         id="path17"
         style="opacity:0.5;fill:url(#radialGradient18);fill-opacity:1;stroke-width:6.09228"
         d="m 5.3445834,16.00729 c -2.638425,0 -4.7625,-2.124075 -4.7625,-4.7625 h 4.7625 z" />
      <rect
         style="opacity:0.5;fill:url(#linearGradient18);fill-opacity:1;stroke-width:4.83577;stroke-linecap:round;stroke-linejoin:round;paint-order:stroke fill markers"
         id="rect17"
         width="6.3499994"
         height="1.5874999"
         x="5.3445826"
         y="-16.007292"
         transform="scale(1,-1)" />
      <path
         id="use17"
         style="opacity:0.5;fill:url(#radialGradient20);fill-opacity:1;stroke-width:6.09228"
         d="m 11.694582,16.007291 c 2.638425,0 4.7625,-2.124075 4.7625,-4.7625 h -4.7625 z" />
      <path
         d="m 4.8411477,2.2886454 c -1.1721999,0 -2.1159392,1.1779639 -2.1159392,2.2465608 V 11.26036 c 0,1.068671 0.943821,1.929059 2.1159392,1.929059 h 7.3766603 c 1.1722,0 2.115939,-0.860463 2.115939,-1.929059 V 4.5352062 c 0,-1.0686713 -0.943821,-2.2465608 -2.115939,-2.2465608 z"
         fill="#fafafa"
         stroke-linecap="round"
         stroke-width="0.0793746"
         style="fill:#ffffff;fill-opacity:0.602564;paint-order:stroke fill markers"
         id="path2-6"
         sodipodi:nodetypes="sssssssss" />
      <path
         d="m 2.8835048,3.9688329 c -0.2636521,0 -0.4757965,0.2024423 -0.4757965,0.4540176 v 1.4746632 c 0,0.0183 0.00347,0.03564 0.00565,0.05337 -0.00465,0.436096 -0.00439,0.933217 -0.00439,1.5855106 v 0.180942 h -4.391e-4 v 3.2806677 c 0,0.02941 0.00347,0.05796 0.00439,0.08714 0.00168,0.0413 0.00264,0.08276 0.00657,0.123409 0.1068632,1.368001 1.2422934,2.451689 2.6756704,2.554475 0.072019,0.0066 0.1449519,0.01032 0.2193309,0.01043 0.00102,3e-6 0.002,0 0.00307,0 h 6.4860055 4.37e-4 c 0.07554,0 0.149713,-0.0038 0.222824,-0.01043 1.429741,-0.102907 2.562793,-1.181876 2.673893,-2.54528 0.0073,-0.07226 0.01179,-0.145376 0.01179,-0.219716 V 7.6547513 c 1.3e-5,-0.0015 4.37e-4,-0.0028 4.37e-4,-0.0042 V 6.1758977 c 0,-0.251582 -0.106241,-0.454014 -0.369885,-0.454014 H 9.1584167 c -0.2295699,-1e-6 -0.4092976,-0.01479 -0.5583769,-0.05253 C 8.4509617,5.6316137 8.3328028,5.5707037 8.2273514,5.47924 8.121901,5.38777 8.0289554,5.2655993 7.9302511,5.1044346 7.8315481,4.9432596 7.7270274,4.7434229 7.598199,4.4965672 7.536064,4.3506905 7.449289,4.2446292 7.3543985,4.1680402 7.2595085,4.0914502 7.1566781,4.0442129 7.0612298,4.0150299 6.8703322,3.9566699 6.7103888,3.9712499 6.7103888,3.9712499 H 4.5515737 c -0.00887,-4.64e-4 -0.017213,-0.0025 -0.026218,-0.0025 H 3.7515794 Z"
         id="path4-3-6"
         style="fill:url(#linearGradient892);fill-opacity:1"
         class="ColorScheme-Highlight "
         sodipodi:nodetypes="csscsccscccsscsccscssssssccscccscc" />
    </g>
    <path
       style="color:#232629;fill:#1a1a1a;fill-opacity:0.6;stroke:none;stroke-width:0.73179"
       d="M 9.545188,14.522307 C 9.2344232,14.469425 8.7941694,14.284307 8.5352177,14.112424 7.9395804,13.715738 7.5497492,13.274516 7.3087917,12.723833 7.2311097,12.538728 7.1850028,12.406495 7.0498401,11.930511 c -0.025855,-0.118998 -0.069862,-0.252354 -0.086055,-0.293895 -0.02719,-0.07011 -0.02856,-0.0938 -0.0165,-0.327532 0.011281,-0.211559 0.05179,-0.528875 0.077671,-0.554273 0.0037,-0.0056 0.013031,-0.007 0.01994,-0.0029 0.02454,0.01465 0.046863,-0.05342 0.068982,-0.209074 0.01228,-0.08532 0.031232,-0.174663 0.042314,-0.198693 0.01113,-0.02417 0.030132,-0.07705 0.042002,-0.117831 0.027324,-0.09389 0.064955,-0.165958 0.1807742,-0.3479966 0.050941,-0.08002 0.10389,-0.167277 0.1176708,-0.1937694 0.01601,-0.03126 0.033924,-0.04645 0.050186,-0.0434 0.01552,0.0029 0.041521,-0.01717 0.068613,-0.05362 0.1177435,-0.158712 0.6724256,-0.626999 0.7237544,-0.6110186 0.014182,0.00416 0.072552,-0.015065 0.13008,-0.043709 0.104064,-0.051365 0.1499024,-0.063212 0.1499024,-0.038823 0,0.00724 -0.014817,0.022938 -0.033401,0.035508 -0.0323,0.021721 -0.03165,0.022066 0.01871,0.010174 0.028612,-0.00697 0.076743,-0.016225 0.1070021,-0.021297 0.037422,-0.00633 0.052606,-0.015128 0.047441,-0.028476 -0.0043,-0.011542 0.0064,-0.022939 0.02655,-0.028282 0.051161,-0.013578 0.1308281,-0.011124 0.1308281,0.00348 0,0.017865 -0.045565,0.035763 -0.081722,0.032255 -0.024851,-0.00285 -0.02568,-1.91e-4 -0.0075,0.012181 0.01866,0.012538 0.018776,0.01496 0.0018,0.01496 -0.01162,9.61e-5 -0.017265,0.00381 -0.012801,0.00879 0.0044,0.00434 0.035652,-0.0051 0.068844,-0.02175 0.033181,-0.016422 0.094012,-0.037244 0.1351309,-0.045873 0.050613,-0.010436 0.074742,-0.022907 0.074742,-0.03824 0,-0.019836 0.02367,-0.021042 0.1819591,-0.013095 0.1000926,0.0051 0.2511338,0.020452 0.335635,0.03413 0.1536198,0.024789 0.1536318,0.024789 0.2108934,-0.008 0.06866,-0.038726 0.1791365,-0.043757 0.2081625,-0.0092 0.0098,0.012733 0.03982,0.0332 0.06499,0.045916 0.04102,0.020556 0.04368,0.02062 0.02616,2.869e-4 -0.03289,-0.038847 -2.83e-4,-0.037865 0.12672,0.00366 0.409332,0.1343308 0.743007,0.3735836 0.990605,0.7102543 0.05877,0.0798 0.06222,0.1157497 0.0062,0.06723 l -0.03177,-0.0277 0.02442,0.04655 c 0.01353,0.02596 0.02448,0.05449 0.02448,0.06396 0,0.0085 0.03938,0.08038 0.08752,0.1572131 0.108427,0.1733223 0.138755,0.2316833 0.131468,0.2530963 -0.0029,0.0081 -0.05108,-0.05194 -0.10675,-0.135639 -0.05552,-0.08374 -0.137859,-0.1966643 -0.182798,-0.250839 -0.06717,-0.08094 -0.08475,-0.09472 -0.09844,-0.07738 -0.0082,0.01151 -0.03152,0.02315 -0.04985,0.02581 l -0.0331,0.0041 0.03278,0.06298 c 0.01814,0.03466 0.03513,0.05585 0.03799,0.04735 0.01553,-0.04596 0.08837,0.01459 0.121522,0.100899 0.0096,0.02792 0.03929,0.08572 0.06343,0.128224 0.02432,0.04245 0.04094,0.08024 0.03716,0.08386 -0.0032,0.0031 -0.02574,-0.0075 -0.04886,-0.02599 l -0.04212,-0.03254 0.02877,0.04837 c 0.01563,0.02634 0.04224,0.05915 0.05888,0.07234 0.02035,0.01614 0.03059,0.04235 0.03139,0.08283 0.0021,0.07455 0.04537,0.162592 0.0689,0.139389 0.03697,-0.03617 0.04445,-0.01371 0.03522,0.104911 -0.0064,0.08733 -0.0029,0.144776 0.01316,0.205835 0.02479,0.09269 0.01955,0.115605 -0.01669,0.07229 -0.02292,-0.02756 -0.02329,-0.0274 -0.01305,0.0012 0.02184,0.06133 0.03842,0.152994 0.03379,0.188995 -0.0077,0.06725 -0.03434,0.03928 -0.04318,-0.04671 l -0.0078,-0.08394 -0.0029,0.08942 c -0.0016,0.04908 -0.01332,0.144154 -0.02605,0.211087 -0.01332,0.06767 -0.01995,0.149513 -0.01484,0.184303 0.008,0.0655 0.0029,0.06801 -0.05314,0.02088 -0.02261,-0.01928 -0.0265,-0.01506 -0.04219,0.04159 -0.01329,0.04783 -0.01319,0.07494 5.8e-4,0.114984 0.0087,0.0288 0.01521,0.06796 0.01282,0.08695 -0.0061,0.04378 -0.04223,0.05738 -0.04223,0.01585 0,-0.05196 -0.02003,-0.03337 -0.08164,0.07489 -0.166246,0.292507 -0.429271,0.518891 -0.726935,0.625664 -0.175519,0.06303 -0.293221,0.08625 -0.491135,0.09736 l -0.1782417,0.0089 0.08806,0.02643 c 0.07103,0.02136 0.1127121,0.02473 0.2153737,0.01632 0.134514,-0.0095 0.292442,-0.03927 0.364051,-0.06593 0.02861,-0.0095 0.04792,-0.01101 0.05771,-0.0018 0.02345,0.02265 -0.183584,0.112534 -0.306396,0.132856 -0.2089666,0.03466 -0.4886555,-0.0029 -0.7355558,-0.09836 -0.167515,-0.06486 -0.4161041,-0.23362 -0.3780098,-0.256671 0.0073,-0.0038 0.054502,0.01773 0.1050974,0.04897 0.064632,0.04003 0.091963,0.05061 0.091963,0.03549 0,-0.02845 0.0093,-0.02696 0.060944,0.0079 0.046382,0.03241 0.1890825,0.09247 0.2918621,0.122952 0.112015,0.03318 0.068562,-0.0066 -0.081712,-0.07566 -0.475224,-0.21697 -0.6724941,-0.434109 -0.7708057,-0.84828 -0.036052,-0.151885 0.0031,-0.48485 0.068332,-0.589124 0.016597,-0.02628 0.030372,-0.05895 0.030372,-0.07224 0,-0.05763 0.098171,-0.210109 0.1988837,-0.308814 0.1775,-0.173927 0.3620247,-0.246138 0.6015731,-0.235388 0.1158016,0.0046 0.1652616,0.015 0.2616347,0.05277 0.1092883,0.04259 0.2469543,0.131961 0.2047983,0.132882 -0.0089,1.88e-4 -0.05333,-0.0142 -0.09657,-0.03167 -0.06568,-0.02658 -0.1077603,-0.03226 -0.2567746,-0.03277 -0.2092662,-9.62e-4 -0.3115646,0.02822 -0.46051,0.13099 -0.2111264,0.145592 -0.3285501,0.313275 -0.370134,0.528632 -0.02783,0.144492 -0.02876,0.184546 -0.0072,0.327878 0.01277,0.08267 0.02131,0.106857 0.037142,0.100958 0.01336,-0.0043 0.02038,0.0027 0.02038,0.02016 0,0.05114 0.1136601,0.258853 0.1925087,0.351676 0.189717,0.223434 0.4966514,0.366035 0.7878633,0.366035 0.1511596,0 0.2733356,-0.02836 0.3857896,-0.0898 0.04525,-0.02476 0.102175,-0.05476 0.126686,-0.06691 0.08643,-0.04302 0.140133,-0.09204 0.202851,-0.185522 0.03489,-0.05204 0.07277,-0.09449 0.08418,-0.09449 0.01697,0 0.01595,0.007 -0.0034,0.04 -0.06626,0.107229 0.08939,-0.08777 0.169883,-0.212881 l 0.09023,-0.140143 -0.0088,-0.09207 c -0.0084,-0.0884 -0.0074,-0.09391 0.03512,-0.138272 0.04161,-0.04277 0.04539,-0.05541 0.05016,-0.169832 0.0038,-0.102416 0.0016,-0.123609 -0.01713,-0.123726 -0.01718,-9.3e-5 -0.02461,-0.02684 -0.03191,-0.116598 -0.0087,-0.118482 -0.108203,-0.517211 -0.131134,-0.531084 -0.0064,-0.0037 -0.026,-0.04246 -0.0426,-0.08524 C 10.825111,10.076111 10.72717,9.937648 10.574489,9.7867983 10.353978,9.5705086 10.077216,9.4029118 9.8157733,9.3285847 c -0.2223804,-0.06321 -0.5999975,-0.04027 -0.8689661,0.05281 -0.131281,0.045421 -0.2606194,0.1055596 -0.2824445,0.1313288 -0.0096,0.01166 -0.024421,0.01749 -0.031902,0.01306 -0.0082,-0.0043 -0.0059,-0.01801 0.0051,-0.03111 0.049553,-0.058507 -0.1148854,0.04857 -0.2207351,0.1437471 -0.063992,0.0575 -0.1186899,0.1063563 -0.1215426,0.1085103 -0.0031,0.0024 0.0094,9.4e-5 0.027566,-0.0039 0.030162,-0.0072 0.03134,-0.0051 0.014816,0.02441 -0.010282,0.01934 -0.064894,0.0535 -0.1316574,0.08327 -0.1121342,0.049911 -0.1846839,0.1046744 -0.2423216,0.1830241 -0.02303,0.03132 -0.024472,0.03799 -0.0063,0.03123 0.01301,-0.0042 0.02331,-0.0021 0.02331,0.0063 0,0.0416 -0.038512,0.08798 -0.095613,0.115168 -0.1264879,0.06016 -0.3487283,0.381925 -0.467779,0.677165 -0.053048,0.131557 -0.052179,0.12699 -0.02349,0.12699 0.03048,0 0.02827,0.03378 -0.013702,0.215582 -0.060821,0.26474 -0.060892,0.256261 0.0052,0.628706 0.080703,0.453795 0.1278773,0.605385 0.2175131,0.699314 0.02084,0.02183 0.04149,0.06882 0.050592,0.115993 0.010784,0.05629 0.02921,0.09328 0.063332,0.128653 0.03117,0.03226 0.041562,0.052 0.02966,0.05629 -0.023637,0.0078 0.05005,0.115848 0.1171407,0.171179 0.03376,0.02777 0.058783,0.0372 0.085892,0.03217 0.059382,-0.01102 0.1198468,0.02218 0.2127702,0.117954 0.096573,0.09927 0.1062414,0.126001 0.04235,0.116818 -0.041224,-0.0054 -0.04216,-0.0042 -0.02169,0.02584 0.011721,0.01746 0.054702,0.05939 0.095657,0.09317 0.057509,0.0476 0.072312,0.06808 0.065062,0.09031 -0.010184,0.03214 0.01948,0.06192 0.086184,0.08713 0.041531,0.01535 0.054922,0.04903 0.023841,0.05932 -0.0092,0.0029 0.049032,0.06202 0.1299785,0.131094 0.091202,0.07768 0.1525196,0.120384 0.1612837,0.112038 0.023167,-0.0218 0.052668,-0.01506 0.053202,0.01211 5.819e-4,0.02993 0.026689,0.06116 0.1211267,0.144653 0.059592,0.05277 0.074462,0.05942 0.1109843,0.04964 0.033483,-0.0082 0.054522,-0.0029 0.1016228,0.02789 0.093992,0.0622 0.1509797,0.08718 0.1998116,0.08718 0.047994,0 0.054845,0.01365 0.029964,0.05921 -0.01339,0.02435 -0.010184,0.02807 0.01997,0.02807 0.019645,0 0.074187,0.01327 0.1216911,0.02907 0.1079484,0.0365 0.1529973,0.03894 0.1259641,0.0065 -0.03998,-0.04718 0.0028,-0.03438 0.1452543,0.04417 0.1995996,0.109707 0.3005669,0.122216 0.6980309,0.08654 0.05887,-0.0047 0.07797,-0.0023 0.07797,0.01277 0,0.01289 -0.05102,0.03161 -0.144829,0.05384 -0.123275,0.02918 -0.189064,0.03491 -0.4419176,0.03792 -0.1992464,0.0026 -0.3353638,-0.0029 -0.4132626,-0.01591 z M 9.3420026,12.34011 c 0,-0.0029 -0.018575,-0.01631 -0.040861,-0.03009 l -0.04084,-0.02456 0.035067,0.03009 c 0.03422,0.02921 0.046642,0.03569 0.046642,0.02449 z M 11.38718,10.814537 c -0.0041,-0.01155 -0.0076,-0.0076 -0.0079,0.0079 -8.74e-4,0.01512 0.0029,0.02408 0.0073,0.01934 0.0043,-0.0042 0.0049,-0.0174 0.0011,-0.02783 z M 8.0162674,9.2878477 c 0.01863,-0.023044 0.018135,-0.023692 -0.0057,-0.00534 -0.01426,0.010854 -0.02586,0.02226 -0.02586,0.025722 0,0.012056 0.01237,0.00416 0.03159,-0.020032 z M 8.1851828,9.1531799 c 0.01475,-0.015862 0.0237,-0.02912 0.01977,-0.02912 -0.004,0 -0.01977,0.013322 -0.034322,0.02912 -0.01455,0.015862 -0.0237,0.029116 -0.01961,0.029116 0.004,0 0.01977,-0.013279 0.034312,-0.029116 z M 8.3721761,9.0508655 c 0.048982,-0.016031 0.076812,-0.019297 0.08712,-0.00899 0.010184,0.010062 0.048612,0.00401 0.1199439,-0.018965 0.057622,-0.018738 0.1021409,-0.036261 0.098924,-0.03943 -0.0031,-0.00314 -0.0507,0.00882 -0.1054618,0.026595 -0.075202,0.024789 -0.1022811,0.028176 -0.1106533,0.014795 -0.014178,-0.022296 -0.1493298,0.021649 -0.2074445,0.067985 l -0.03972,0.031607 0.042672,-0.025271 c 0.023612,-0.014058 0.075057,-0.03585 0.1146036,-0.048978 z m 0.4282256,-0.036975 c 0.043154,-0.012762 0.075862,-0.02559 0.072752,-0.028342 -0.0071,-0.00697 -0.160618,0.036347 -0.160618,0.045096 0,0.00879 0.0018,0.00853 0.087862,-0.016452 z m 0.2463327,-0.079332 0.05943,-0.010435 -0.051999,-0.00168 c -0.028611,-9.604e-4 -0.068682,0.00867 -0.089101,0.020818 -0.024242,0.01448 -0.02655,0.018876 -0.0075,0.011998 0.016151,-0.00577 0.056451,-0.014931 0.089127,-0.02074 z M 9.164717,8.9071845 c 0.0044,-0.00733 -0.0049,-0.00949 -0.021227,-0.00562 -0.0347,0.00885 -0.0391,0.018965 -0.0085,0.018965 0.01187,0 0.02524,-0.00603 0.029786,-0.013439 z m 0.4796054,0.00425 c -0.0047,-0.0046 -0.017861,-0.00516 -0.028478,-0.00136 -0.011952,0.0044 -0.0084,0.00829 0.0089,0.00876 0.01552,6.695e-4 0.02457,-0.00314 0.01953,-0.00791 z m -0.088804,-0.015643 c -0.01432,-0.00348 -0.037706,-0.00348 -0.05201,0 -0.01432,0.00351 -0.0031,0.00683 0.02593,0.00683 0.028611,0 0.040282,-0.00314 0.025782,-0.00683 z M 9.4073751,8.8809764 c -0.03051,-0.00314 -0.083912,-0.00314 -0.1188615,-9.55e-5 -0.03491,0.00314 -0.01,0.00569 0.055321,0.00574 0.065383,4.76e-5 0.093956,-0.00285 0.063542,-0.00562 z M 9.2135576,8.8679552 c -0.0047,-0.0046 -0.017872,-0.00519 -0.028477,-0.00136 -0.011952,0.0044 -0.0085,0.0084 0.0088,0.0087 0.01552,6.696e-4 0.024621,-0.00314 0.019688,-0.00791 z M 9.1130032,12.366788 C 8.9617086,12.260571 8.9056544,12.205594 8.9056544,12.163514 c 0,-0.02209 0.005,-0.04064 0.01144,-0.04064 0.021162,0 0.2743736,0.258761 0.2688224,0.275019 -0.0031,0.0083 -0.033732,-0.0031 -0.072922,-0.03118 z m -0.077844,-0.269747 c -0.078577,-0.07775 -0.1037547,-0.11968 -0.071999,-0.11968 0.0193,0 0.1652985,0.164062 0.1652985,0.185489 0,0.009 -0.0023,0.01843 -0.0041,0.01843 -0.0028,0 -0.04239,-0.03781 -0.089103,-0.08404 z m 0.8694435,-0.318557 c -0.04149,-0.01609 -0.01545,-0.04675 0.05202,-0.06104 0.03884,-0.0077 0.1004743,-0.02789 0.1370233,-0.04403 0.03664,-0.01582 0.06913,-0.02643 0.07236,-0.02352 0.003,0.0029 -0.0135,0.03548 -0.03682,0.07194 -0.04234,0.06575 -0.0432,0.06613 -0.124334,0.06512 -0.04493,-6.7e-4 -0.09006,-0.0037 -0.1002873,-0.0078 z m 0.4456203,-0.325628 c -0.04004,-0.01562 -0.04176,-0.04258 -0.0076,-0.134168 0.02874,-0.07866 0.05864,-0.09417 0.04196,-0.02174 -0.0055,0.02607 -0.0139,0.06372 -0.01782,0.08369 l -0.0065,0.03649 0.02979,-0.03311 c 0.01766,-0.01984 0.03373,-0.06565 0.0398,-0.11268 0.005,-0.04375 0.01579,-0.07594 0.0235,-0.07162 0.01849,0.01102 0.01619,0.126242 -0.003,0.203626 -0.01745,0.06763 -0.033,0.07542 -0.09855,0.04972 z M 6.8350494,11.270148 c -0.0047,-0.01292 -0.0088,-0.06227 -0.0088,-0.110362 0,-0.06343 0.0049,-0.08571 0.018764,-0.08135 0.0219,0.0067 0.035035,0.214767 0.01362,0.214767 -0.008,0 -0.01817,-0.0092 -0.022979,-0.02294 z m 3.5735286,-0.340466 c -0.02314,-0.03068 -0.0303,-0.05476 -0.02387,-0.08031 0.01363,-0.05252 0.04858,-0.04507 0.07458,0.01562 0.04027,0.09462 0.0048,0.13901 -0.05089,0.0644 z M 6.8320094,10.698635 c -0.0014,-0.08263 -1.01e-5,-0.08516 0.037267,-0.08369 0.03162,0.0012 0.039257,0.0083 0.042882,0.04591 0.004,0.04125 -0.041615,0.122947 -0.068762,0.122947 -0.0057,0 -0.010576,-0.0383 -0.0114,-0.08518 z M 10.682408,8.9091042 c 0.0024,-0.1302721 0.02458,-0.1744005 0.04191,-0.08321 0.01242,0.063552 -0.0029,0.1757768 -0.02674,0.1949925 -0.013,0.010234 -0.01655,-0.01809 -0.01487,-0.1117853 z m -1.9518204,-0.07803 c 0.0061,-0.017578 0.2108737,-0.099825 0.2486675,-0.099825 0.044422,0 -0.035233,0.0533 -0.1271304,0.085116 -0.1024668,0.035412 -0.1297367,0.038691 -0.1215371,0.014709 z"
       class="ColorScheme-Text"
       id="path7225-4-2-3" />
  </g>
</svg>
