<?xml version="1.0" encoding="UTF-8" standalone="no"?>
<svg
   xmlns:dc="http://purl.org/dc/elements/1.1/"
   xmlns:cc="http://creativecommons.org/ns#"
   xmlns:rdf="http://www.w3.org/1999/02/22-rdf-syntax-ns#"
   xmlns:svg="http://www.w3.org/2000/svg"
   xmlns="http://www.w3.org/2000/svg"
   xmlns:xlink="http://www.w3.org/1999/xlink"
   xmlns:sodipodi="http://sodipodi.sourceforge.net/DTD/sodipodi-0.dtd"
   xmlns:inkscape="http://www.inkscape.org/namespaces/inkscape"
   width="32"
   height="32"
   version="1.1"
   id="svg29"
   sodipodi:docname="application-x-root.svg"
   inkscape:version="1.0.1 (3bc2e813f5, 2020-09-07)">
  <metadata
     id="metadata20">
    <rdf:RDF>
      <cc:Work
         rdf:about="">
        <dc:format>image/svg+xml</dc:format>
        <dc:type
           rdf:resource="http://purl.org/dc/dcmitype/StillImage" />
      </cc:Work>
    </rdf:RDF>
  </metadata>
  <style
     type="text/css"
     id="current-color-scheme">
      .ColorScheme-Text {
        color:#232629;
      }
      .ColorScheme-Highlight {
        color:#3daee9;
      }
   </style>
  <sodipodi:namedview
     id="namedview31"
     pagecolor="#ffffff"
     bordercolor="#666666"
     borderopacity="1.0"
     inkscape:pageshadow="2"
     inkscape:pageopacity="0.0"
     inkscape:pagecheckerboard="0"
     showgrid="false"
     inkscape:zoom="23.562114"
     inkscape:cx="-0.96815287"
     inkscape:cy="16"
     inkscape:window-width="1920"
     inkscape:window-height="988"
     inkscape:window-x="0"
     inkscape:window-y="0"
     inkscape:window-maximized="1"
     inkscape:current-layer="svg29"
     inkscape:document-rotation="0" />
  <defs
     id="defs13">
    <linearGradient
       id="a"
       y1="392.36"
       y2="365.36"
       x2="0"
       gradientUnits="userSpaceOnUse"
       gradientTransform="translate(309.57 152.44)">
      <stop
         stop-color="#fff"
         stop-opacity="0"
         id="stop2" />
      <stop
         offset="1"
         stop-color="#fff"
         stop-opacity=".2"
         id="stop4" />
    </linearGradient>
    <linearGradient
       id="b"
       y1="17"
       y2="24"
       x1="47"
       x2="54"
       gradientUnits="userSpaceOnUse"
       gradientTransform="translate(-27 -8)">
      <stop
         stop-color="#060606"
         id="stop7" />
      <stop
         offset="1"
         stop-opacity="0"
         id="stop9" />
    </linearGradient>
    <linearGradient
       xlink:href="#a"
       id="c"
       x1="5"
       y1="30"
       x2="5"
       y2="2"
       gradientUnits="userSpaceOnUse"
       gradientTransform="translate(-20)" />
  </defs>
  <path
     d="M20 2H8C6.338 2 5 3.338 5 5v22c0 1.662 1.338 3 3 3h16c1.662 0 3-1.338 3-3V9z"
     id="path15"
     style="fill:#203253;fill-opacity:1" />
  <path
     d="M 8,2 A 2.99,2.99 0 0 0 5.877,2.877 C 5.846,2.908 5.857,2.967 5.827,3 H 20 V 2 Z"
     color="#000000"
     opacity="0.5"
     fill="#ffffff"
     id="path17"
     style="display:inline" />
  <path
     d="m 5.826,29 c 0.03,0.033 0.02,0.092 0.051,0.123 A 2.99,2.99 0 0 0 8,30 h 16 a 2.99,2.99 0 0 0 2.123,-0.877 c 0.031,-0.031 0.02,-0.09 0.05,-0.123 H 5.827 Z"
     id="path19"
     class="ColorScheme-Highlight"
     style="display:inline;fill:currentColor;fill-opacity:1;opacity:1" />
  <path
     d="M27 9l-7-7v7z"
     color="#000"
     opacity=".5"
     fill="#fff"
     fill-rule="evenodd"
     id="path21" />
  <path
     d="M20 9l7 7V9z"
     opacity=".1"
     fill="url(#b)"
     fill-rule="evenodd"
     id="path23" />
  <path
     d="m -13.358636,3.1459073 h -12.000001 c -1.662,0 -3,1.3380001 -3,3.0000001 V 28.145907 c 0,1.662 1.338,3 3,3 h 16.0000006 c 1.662,0 3,-1.338 3,-3 v -18 z"
     opacity="0.4"
     fill="url(#c)"
     id="path27"
     style="fill:url(#c)" />
  <path
     d="m 17.251125,11.974442 -1.533,9.013 -1.549,-3.274 -4.468,2.561 a 8.061,8.092 0 0 0 0.121,0.355 l 3.893,-1.8 2.372,4.905 1.81,-11.238 5.524,-0.105 a 8.061,8.092 0 0 0 -0.281,-0.322 z"
     fill="#ffffff"
     opacity="0.9"
     id="path29"
     style="opacity:0.75" />
</svg>
