<?xml version="1.0" encoding="UTF-8" standalone="no"?>
<svg
   xmlns:dc="http://purl.org/dc/elements/1.1/"
   xmlns:cc="http://creativecommons.org/ns#"
   xmlns:rdf="http://www.w3.org/1999/02/22-rdf-syntax-ns#"
   xmlns:svg="http://www.w3.org/2000/svg"
   xmlns="http://www.w3.org/2000/svg"
   xmlns:xlink="http://www.w3.org/1999/xlink"
   xmlns:sodipodi="http://sodipodi.sourceforge.net/DTD/sodipodi-0.dtd"
   xmlns:inkscape="http://www.inkscape.org/namespaces/inkscape"
   width="32"
   height="32"
   version="1.1"
   id="svg29"
   sodipodi:docname="application-x-macbinary.svg"
   inkscape:version="1.0.1 (3bc2e813f5, 2020-09-07)">
  <metadata
     id="metadata22">
    <rdf:RDF>
      <cc:Work
         rdf:about="">
        <dc:format>image/svg+xml</dc:format>
        <dc:type
           rdf:resource="http://purl.org/dc/dcmitype/StillImage" />
      </cc:Work>
    </rdf:RDF>
  </metadata>
  <style
     type="text/css"
     id="current-color-scheme">
      .ColorScheme-Text {
        color:#232629;
      }
      .ColorScheme-Highlight {
        color:#3daee9;
      }
   </style>
  <sodipodi:namedview
     id="namedview31"
     pagecolor="#ffffff"
     bordercolor="#666666"
     borderopacity="1.0"
     inkscape:pageshadow="2"
     inkscape:pageopacity="0.0"
     inkscape:pagecheckerboard="0"
     showgrid="false"
     inkscape:zoom="23.562114"
     inkscape:cx="-0.96815287"
     inkscape:cy="16"
     inkscape:window-width="1920"
     inkscape:window-height="988"
     inkscape:window-x="0"
     inkscape:window-y="0"
     inkscape:window-maximized="1"
     inkscape:current-layer="svg29"
     inkscape:document-rotation="0" />
  <defs
     id="defs13">
    <linearGradient
       id="a"
       y1="392.36"
       y2="365.36"
       x2="0"
       gradientUnits="userSpaceOnUse"
       gradientTransform="translate(309.57 152.44)">
      <stop
         stop-color="#fff"
         stop-opacity="0"
         id="stop2" />
      <stop
         offset="1"
         stop-color="#fff"
         stop-opacity=".2"
         id="stop4" />
    </linearGradient>
    <linearGradient
       id="b"
       y1="17"
       y2="24"
       x1="47"
       x2="54"
       gradientUnits="userSpaceOnUse"
       gradientTransform="translate(-27 -8)">
      <stop
         stop-color="#060606"
         id="stop7" />
      <stop
         offset="1"
         stop-opacity="0"
         id="stop9" />
    </linearGradient>
    <linearGradient
       xlink:href="#a"
       id="c"
       x1="5"
       y1="30"
       x2="5"
       y2="2"
       gradientUnits="userSpaceOnUse"
       gradientTransform="translate(-20)" />
  </defs>
  <path
     d="M20 2H8C6.338 2 5 3.338 5 5v22c0 1.662 1.338 3 3 3h16c1.662 0 3-1.338 3-3V9z"
     id="path15"
     style="fill:#2b426e;fill-opacity:1" />
  <path
     d="M 8,2 A 2.99,2.99 0 0 0 5.877,2.877 C 5.846,2.908 5.857,2.967 5.827,3 H 20 V 2 Z"
     color="#000000"
     opacity="0.5"
     fill="#ffffff"
     id="path17"
     style="display:inline" />
  <path
     d="m 5.826,29 c 0.03,0.033 0.02,0.092 0.051,0.123 A 2.99,2.99 0 0 0 8,30 h 16 a 2.99,2.99 0 0 0 2.123,-0.877 c 0.031,-0.031 0.02,-0.09 0.05,-0.123 H 5.827 Z"
     id="path19"
     class="ColorScheme-Highlight"
     style="display:inline;fill:currentColor;fill-opacity:1;opacity:1" />
  <path
     d="M27 9l-7-7v7z"
     color="#000"
     opacity=".5"
     fill="#fff"
     fill-rule="evenodd"
     id="path21" />
  <path
     d="M20 9l7 7V9z"
     opacity=".1"
     fill="url(#b)"
     fill-rule="evenodd"
     id="path23" />
  <path
     d="M -9.7935913,-0.41913785 H -21.793592 c -1.662,0 -3,1.3380001 -3,3.00000005 V 24.580862 c 0,1.662 1.338,3 3,3 h 16.0000007 c 1.662,0 3,-1.338 3,-3 V 6.5808622 Z"
     opacity="0.4"
     fill="url(#c)"
     id="path27"
     style="fill:url(#c)" />
  <g
     color="#000000"
     id="g31"
     transform="translate(-0.00320956,-0.11509753)"
     style="opacity:0.75">
    <path
       d="M 11,13 V 24 H 23 V 13 Z m 1,2 h 10 v 8 H 12 Z m 2.799,1 1.713,2.721 L 14.418,22 h 1.184 l 1.502,-2.416 1.5,2.416 h 1.131 L 19.774,21.971 17.717,18.721 19.414,16 h -1.211 l -1.1,1.857 -1.1,-1.857 z"
       fill="#343434"
       id="path27-1" />
    <path
       d="M 10,12 V 23 H 22 V 12 Z m 1,2 h 10 v 8 H 11 Z m 2.799,1 1.713,2.721 L 13.418,21 h 1.184 l 1.502,-2.416 1.5,2.416 h 1.131 L 18.774,20.971 16.717,17.721 18.414,15 h -1.211 l -1.1,1.857 -1.1,-1.857 z"
       fill="#e0e0e0"
       id="path29" />
  </g>
</svg>
