<?xml version="1.0" encoding="UTF-8" standalone="no"?>
<svg
   width="24"
   height="24"
   viewBox="0 0 24 24"
   version="1.1"
   id="svg2"
   sodipodi:docname="notification-disabled.svg"
   inkscape:version="1.3.2 (091e20ef0f, 2023-11-25)"
   xmlns:inkscape="http://www.inkscape.org/namespaces/inkscape"
   xmlns:sodipodi="http://sodipodi.sourceforge.net/DTD/sodipodi-0.dtd"
   xmlns="http://www.w3.org/2000/svg"
   xmlns:svg="http://www.w3.org/2000/svg">
  <defs
     id="defs2" />
  <sodipodi:namedview
     id="namedview2"
     pagecolor="#ffffff"
     bordercolor="#999999"
     borderopacity="1"
     inkscape:showpageshadow="2"
     inkscape:pageopacity="0"
     inkscape:pagecheckerboard="0"
     inkscape:deskcolor="#d1d1d1"
     showgrid="true"
     inkscape:zoom="11.22532"
     inkscape:cx="8.7302632"
     inkscape:cy="27.705223"
     inkscape:window-width="1920"
     inkscape:window-height="994"
     inkscape:window-x="0"
     inkscape:window-y="0"
     inkscape:window-maximized="1"
     inkscape:current-layer="svg2">
    <inkscape:grid
       id="grid2"
       units="px"
       originx="0"
       originy="0"
       spacingx="1"
       spacingy="1"
       empcolor="#0099e5"
       empopacity="0.30196078"
       color="#0099e5"
       opacity="0.14901961"
       empspacing="5"
       dotted="false"
       gridanglex="30"
       gridanglez="30"
       visible="true" />
  </sodipodi:namedview>
  <style
     type="text/css"
     id="current-color-scheme">.ColorScheme-Text{color:#232629;}.ColorScheme-ButtonFocus{color:#3daee9;}.ColorScheme-NegativeText { color: #da4453; } </style>
  <path
     d="M 1,1 H 23 V 23 H 1 Z"
     fill="none"
     id="path1" />
  <path
     d="m 19.55001,3.49998 c -0.54371,0 -1.0651,0.21581 -1.44956,0.60045 C 17.71598,4.48477 17.5,5.00627 17.5,5.54996 c 0,0.54365 0.21599,1.06515 0.60045,1.44964 0.38447,0.38445 0.90585,0.60037 1.44956,0.60037 0.54371,0 1.06508,-0.21581 1.44955,-0.60037 C 21.38402,6.61511 21.60001,6.09361 21.60001,5.54996 21.5995,5.00654 21.38321,4.48538 20.99883,4.10111 20.61455,3.7167 20.09352,3.50074 19.55001,3.49998 Z m 0,3.27991 C 19.22373,6.77989 18.91094,6.6495 18.68022,6.4197 18.44961,6.18915 18.32,5.87617 18.32,5.54985 c 0,-0.32656 0.1296,-0.63909 0.36022,-0.86986 0.23071,-0.23018 0.54352,-0.36019 0.86979,-0.36019 0.32626,0 0.63906,0.13077 0.86978,0.36019 0.23064,0.23055 0.36022,0.54372 0.36022,0.86986 0,0.32655 -0.1296,0.63915 -0.36022,0.86985 -0.23074,0.23018 -0.54352,0.36019 -0.86978,0.36019 z"
     id="path4-7-0-7"
     style="fill:#da4453;fill-opacity:1;stroke-width:0.0234286" />
  <ellipse
     id="circle-transparent-6-3-6-5"
     cx="19.550161"
     cy="5.5499659"
     style="fill:#da4453;fill-opacity:1;stroke-width:0.16016"
     rx="1.2812759"
     ry="1.2812798" />
  <path
     d="M 15,5 5.3327,5.008 v 0 C 4.66635,5.008 4,5.67444 4,6.34085 l 0.008,9.38423 c 0,0.6664 0.66635,1.27698 1.3327,1.27698 v 0 h 3.6597 l 2.55271,3.7626 1.3e-4,-1.1e-4 c 0.0989,0.14853 0.26522,0.23735 0.44348,0.23735 0.17827,0 0.34459,-0.0888 0.4435,-0.23735 l 2.56018,-3.76249 h 3 0.6673 c 0.66635,0 1.3327,-0.6105 1.33269,-1.27698 l 10e-6,-6.72299 h -1 l -3,-3 V 5.0021 Z m 4,9.99995 c 0,1.00002 0,1.00002 -1,1.00002 h -3.507 c -0.17826,-1.1e-4 -0.54486,0.5799 -0.64386,0.72843 L 11.99621,19.50923 10.143,16.73003 C 10.044,16.58187 9.77825,15.99997 9.6,15.99997 H 6 c -1,0 -1,0 -1,-1.00002 V 6.99997 C 5,5.99995 5,5.99995 6,5.99995 l 10,4e-5 3,3 z"
     id="path2-3-6-3"
     style="color:#d6dbf1;fill:#d3dae3;fill-opacity:1;stroke-width:0.0304633"
     sodipodi:nodetypes="ccccccccccscccccccccccccccccccccccc"
     class="ColorScheme-Text" />
  <path
     d="m 7.03858,9.00876 h 10 v 0.99998 h -10 z"
     id="path4-5-2-6"
     style="color:#d6dbf1;fill:#d3dae3;fill-opacity:1;stroke-width:0.0304647"
     class="ColorScheme-Text"
     sodipodi:nodetypes="ccccc" />
  <path
     d="m 7.03858,12.00876 h 6 v 0.99998 h -6 z"
     id="path8-2-1-7"
     style="color:#d6dbf1;fill:#d3dae3;fill-opacity:1;stroke-width:0.0304647"
     class="ColorScheme-Text"
     sodipodi:nodetypes="ccccc" />
</svg>
