<?xml version="1.0" encoding="UTF-8" standalone="no"?>
<svg
   width="32"
   height="32"
   version="1.1"
   id="svg6"
   sodipodi:docname="drive-removable-media-symbolic.svg"
   inkscape:version="1.3.2 (091e20ef0f, 2023-11-25)"
   xmlns:inkscape="http://www.inkscape.org/namespaces/inkscape"
   xmlns:sodipodi="http://sodipodi.sourceforge.net/DTD/sodipodi-0.dtd"
   xmlns="http://www.w3.org/2000/svg"
   xmlns:svg="http://www.w3.org/2000/svg">
  <defs
     id="defs10" />
  <sodipodi:namedview
     id="namedview8"
     pagecolor="#ffffff"
     bordercolor="#000000"
     borderopacity="0.25"
     inkscape:showpageshadow="2"
     inkscape:pageopacity="0.0"
     inkscape:pagecheckerboard="0"
     inkscape:deskcolor="#d1d1d1"
     showgrid="true"
     inkscape:zoom="24.15625"
     inkscape:cx="13.785252"
     inkscape:cy="15.979301"
     inkscape:window-width="1920"
     inkscape:window-height="990"
     inkscape:window-x="0"
     inkscape:window-y="0"
     inkscape:window-maximized="1"
     inkscape:current-layer="svg6">
    <inkscape:grid
       id="grid1"
       units="px"
       originx="0"
       originy="0"
       spacingx="1"
       spacingy="1"
       empcolor="#0099e5"
       empopacity="0.30196078"
       color="#0099e5"
       opacity="0.14901961"
       empspacing="5"
       dotted="false"
       gridanglex="30"
       gridanglez="30"
       visible="true" />
  </sodipodi:namedview>
  <style
     type="text/css"
     id="current-color-scheme">
      .ColorScheme-Text {
        color:#31363b;
      }
      .ColorScheme-Background {
        color:#eff0f1;
      }
      .ColorScheme-Accent {
        color:#3daee9;
      }
      .ColorScheme-ButtonText {
        color:#31363b;
      }
      </style>
  <g
     id="device-notifier"
     transform="translate(-321,-529.36218)">
    <path
       id="rect4196"
       transform="translate(321,529.36218)"
       d="M 9,4.004 V 16 H 8 C 7.4787616,15.93844 6.9756702,16.309004 7,17 v 12 c 0.065298,0.6298 0.470887,0.958622 1,1 h 16 c 0.623113,-0.0047 0.956446,-0.27202 1,-0.910737 V 17 c 0.04129,-0.57188 -0.396142,-1.013729 -1,-1 H 23 V 3.9870634 C 22.981376,2.9211681 21.957845,1.9908395 20.988357,2 H 11 C 9.9385255,2.0062564 9.0278387,3.0352582 9,4.004 Z M 10,5 h 2 v 8 h -2 z m 10,0 h 2 v 8 h -2 z m -7,3 h 2 v 5 h -2 z m 4,0 h 2 v 5 H 17 Z M 8,17 H 24 V 29 H 8 Z m 8,1 -2,2 h 4 z m -6,7 v 1 h 12 v -1 z m 1,2 v 1 h 10 v -1 z"
       style="opacity:1;fill:currentColor;fill-opacity:1;stroke:none;stroke-width:0.1;stroke-linecap:square;stroke-linejoin:miter;stroke-miterlimit:4;stroke-dasharray:none;stroke-dashoffset:0;stroke-opacity:1"
       inkscape:connector-curvature="0"
       class="ColorScheme-Text"
       sodipodi:nodetypes="cccccccccccccccccccccccccccccccccccccccccccccccccccccc" />
    <rect
       y="529.36218"
       x="321"
       height="31.999985"
       width="31.999985"
       id="rect4151"
       style="opacity:0.2;fill:none;fill-opacity:1;stroke:none" />
  </g>
</svg>
