<?xml version="1.0" encoding="UTF-8" standalone="no"?>
<svg
   width="68"
   height="68"
   viewBox="0 0 17.991665 17.991665"
   version="1.1"
   id="svg1114"
   inkscape:version="1.3.2 (091e20ef0f, 2023-11-25)"
   sodipodi:docname="applications-education-language.svg"
   xmlns:inkscape="http://www.inkscape.org/namespaces/inkscape"
   xmlns:sodipodi="http://sodipodi.sourceforge.net/DTD/sodipodi-0.dtd"
   xmlns:xlink="http://www.w3.org/1999/xlink"
   xmlns="http://www.w3.org/2000/svg"
   xmlns:svg="http://www.w3.org/2000/svg"
   xmlns:rdf="http://www.w3.org/1999/02/22-rdf-syntax-ns#"
   xmlns:cc="http://creativecommons.org/ns#"
   xmlns:dc="http://purl.org/dc/elements/1.1/">
  <style
     type="text/css"
     id="current-color-scheme">.ColorScheme-Highlight { color:#5599ff; }
</style>
  <defs
     id="defs1108">
    <linearGradient
       id="linearGradient12"
       inkscape:collect="always">
      <stop
         style="stop-color:#ffffff;stop-opacity:0;"
         offset="0"
         id="stop10" />
      <stop
         id="stop11"
         offset="0.65909404"
         style="stop-color:#ffffff;stop-opacity:0" />
      <stop
         style="stop-color:#ffffff;stop-opacity:1;"
         offset="1"
         id="stop12" />
    </linearGradient>
    <linearGradient
       id="linearGradient9"
       inkscape:collect="always">
      <stop
         style="stop-color:#000000;stop-opacity:0;"
         offset="0"
         id="stop1" />
      <stop
         id="stop8"
         offset="0.66102529"
         style="stop-color:#000000;stop-opacity:0" />
      <stop
         style="stop-color:#000000;stop-opacity:1;"
         offset="1"
         id="stop9" />
    </linearGradient>
    <linearGradient
       id="linearGradient7"
       inkscape:collect="always">
      <stop
         style="stop-color:#000000;stop-opacity:0;"
         offset="0"
         id="stop5" />
      <stop
         id="stop6"
         offset="0.6586886"
         style="stop-color:#000000;stop-opacity:0" />
      <stop
         style="stop-color:#000000;stop-opacity:1;"
         offset="1"
         id="stop7" />
    </linearGradient>
    <linearGradient
       id="linearGradient4"
       inkscape:collect="always">
      <stop
         style="stop-color:#000000;stop-opacity:0;"
         offset="0"
         id="stop2" />
      <stop
         id="stop3"
         offset="0.67055255"
         style="stop-color:#000000;stop-opacity:0" />
      <stop
         style="stop-color:#000000;stop-opacity:1;"
         offset="1"
         id="stop4" />
    </linearGradient>
    <linearGradient
       inkscape:collect="always"
       id="linearGradient899">
      <stop
         style="stop-color:#bc5fd3;stop-opacity:1;"
         offset="0"
         id="stop895" />
      <stop
         style="stop-color:#5f5fd3;stop-opacity:1;"
         offset="1"
         id="stop897" />
    </linearGradient>
    <linearGradient
       id="linearGradient1167"
       x1="40.751999"
       x2="40.751999"
       y1="28.507999"
       y2="17.205999"
       gradientUnits="userSpaceOnUse">
      <stop
         style="stop-color:#84fb6e;stop-opacity:1"
         stop-color="#0ab816"
         offset="0"
         id="stop1163" />
      <stop
         style="stop-color:#0dd41a;stop-opacity:1"
         stop-color="#0cf36c"
         offset="1"
         id="stop1165" />
    </linearGradient>
    <linearGradient
       id="cornerBevel"
       inkscape:collect="always">
      <stop
         style="stop-color:#000000;stop-opacity:0;"
         offset="0"
         id="stop2663" />
      <stop
         id="stop2671"
         offset="0.66666675"
         style="stop-color:#000000;stop-opacity:0" />
      <stop
         style="stop-color:#000000;stop-opacity:1;"
         offset="1"
         id="stop2661" />
    </linearGradient>
    <linearGradient
       id="bevel"
       inkscape:collect="always">
      <stop
         id="stop2685"
         offset="0"
         style="stop-color:#000000;stop-opacity:1;" />
      <stop
         id="stop2687"
         offset="1"
         style="stop-color:#000000;stop-opacity:0;" />
    </linearGradient>
    <linearGradient
       id="highlightCorner"
       inkscape:collect="always">
      <stop
         style="stop-color:#ffffff;stop-opacity:0;"
         offset="0"
         id="stop2613" />
      <stop
         id="stop2621"
         offset="0.66666669"
         style="stop-color:#ffffff;stop-opacity:0" />
      <stop
         style="stop-color:#ffffff;stop-opacity:1;"
         offset="1"
         id="stop2611" />
    </linearGradient>
    <linearGradient
       inkscape:collect="always"
       id="highlight">
      <stop
         style="stop-color:#ffffff;stop-opacity:1;"
         offset="0"
         id="stop2921" />
      <stop
         style="stop-color:#ffffff;stop-opacity:0;"
         offset="1"
         id="stop2923" />
    </linearGradient>
    <radialGradient
       inkscape:collect="always"
       xlink:href="#highlightCorner"
       id="radialGradient15"
       gradientUnits="userSpaceOnUse"
       gradientTransform="matrix(0.04294597,-12.079348,17.933991,0.06376112,14.524179,-50.373789)"
       cx="-4.5799766"
       cy="-0.50206107"
       fx="-4.5799766"
       fy="-0.50206107"
       r="0.39687499" />
    <linearGradient
       inkscape:collect="always"
       xlink:href="#highlight"
       id="linearGradient15"
       gradientUnits="userSpaceOnUse"
       x1="-3.8453064"
       y1="-1.1532172"
       x2="-3.8453064"
       y2="-0.8954913"
       gradientTransform="matrix(6.0923077,0,0,6.0923077,32.228528,7.1537621)" />
    <radialGradient
       inkscape:collect="always"
       xlink:href="#linearGradient12"
       id="radialGradient17"
       gradientUnits="userSpaceOnUse"
       gradientTransform="matrix(-0.02247554,-12.045403,-17.967828,0.03352619,1.6640208,-50.22331)"
       cx="-4.575222"
       cy="-0.55256462"
       fx="-4.575222"
       fy="-0.55256462"
       r="0.39687499" />
    <radialGradient
       inkscape:collect="always"
       xlink:href="#linearGradient7"
       id="radialGradient18"
       gradientUnits="userSpaceOnUse"
       gradientTransform="matrix(0.06461187,12.09952,17.933731,-0.09576873,14.609502,64.748231)"
       cx="-4.4284906"
       cy="-0.50121039"
       fx="-4.4284906"
       fy="-0.50121039"
       r="0.39687499" />
    <linearGradient
       inkscape:collect="always"
       xlink:href="#bevel"
       id="linearGradient18"
       gradientUnits="userSpaceOnUse"
       x1="-3.8415797"
       y1="-1.4506671"
       x2="-3.8406549"
       y2="-1.1968651"
       gradientTransform="matrix(6.0923076,0,0,6.0923076,32.228527,-7.1537627)" />
    <radialGradient
       inkscape:collect="always"
       xlink:href="#linearGradient4"
       id="radialGradient20"
       gradientUnits="userSpaceOnUse"
       gradientTransform="matrix(-0.01031383,11.991438,-17.967296,-0.01545561,1.7353715,64.305742)"
       cx="-4.4236727"
       cy="-0.55004197"
       fx="-4.4236727"
       fy="-0.55004197"
       r="0.39687499" />
    <radialGradient
       inkscape:collect="always"
       xlink:href="#cornerBevel"
       id="radialGradient25"
       gradientUnits="userSpaceOnUse"
       gradientTransform="matrix(12.184614,0,0,12.184614,59.63122,10.377613)"
       cx="-4.4568658"
       cy="-0.44864327"
       fx="-4.4568658"
       fy="-0.44864327"
       r="0.39687496" />
    <linearGradient
       inkscape:collect="always"
       xlink:href="#bevel"
       id="linearGradient25"
       gradientUnits="userSpaceOnUse"
       x1="-3.8487544"
       y1="-1.146081"
       x2="-3.8455966"
       y2="-0.890971"
       gradientTransform="matrix(6.0923077,0,0,6.0923077,32.228528,7.1537627)" />
    <radialGradient
       inkscape:collect="always"
       xlink:href="#cornerBevel"
       id="radialGradient29"
       gradientUnits="userSpaceOnUse"
       gradientTransform="matrix(0,-12.184614,12.184614,0,11.27353,-44.427768)"
       cx="-4.5705457"
       cy="-0.48653662"
       fx="-4.5705457"
       fy="-0.48653662"
       r="0.39687496" />
    <radialGradient
       inkscape:collect="always"
       xlink:href="#cornerBevel"
       id="radialGradient30"
       gradientUnits="userSpaceOnUse"
       gradientTransform="matrix(-12.184514,-0.04945749,0.04847411,-11.942243,-43.502155,3.8519053)"
       cx="-4.5342312"
       cy="-0.60337442"
       fx="-4.5342312"
       fy="-0.60337442"
       r="0.39687496" />
    <radialGradient
       inkscape:collect="always"
       xlink:href="#linearGradient9"
       id="radialGradient31"
       gradientUnits="userSpaceOnUse"
       gradientTransform="matrix(0,-12.151612,11.978956,0,18.475664,-48.770776)"
       cx="-4.4175329"
       cy="-0.56489283"
       fx="-4.4175329"
       fy="-0.56489283"
       r="0.39687496" />
    <linearGradient
       inkscape:collect="always"
       xlink:href="#bevel"
       id="linearGradient34"
       gradientUnits="userSpaceOnUse"
       x1="-3.99717"
       y1="-1.2218677"
       x2="-4.0003276"
       y2="-0.96675771"
       gradientTransform="matrix(6.0923077,0,0,6.0923077,17.025077,8.0496826)" />
    <linearGradient
       inkscape:collect="always"
       xlink:href="#bevel"
       id="linearGradient35"
       gradientUnits="userSpaceOnUse"
       x1="-4.0919032"
       y1="-1.4492278"
       x2="-4.0950613"
       y2="-1.1972755"
       gradientTransform="matrix(6.0923077,0,0,6.0923077,16.129161,-7.1537627)" />
    <linearGradient
       inkscape:collect="always"
       xlink:href="#bevel"
       id="linearGradient36"
       gradientUnits="userSpaceOnUse"
       x1="-3.8734362"
       y1="-1.3717227"
       x2="-3.8765941"
       y2="-1.116071"
       gradientTransform="matrix(6.0923077,0,0,6.0923077,31.33261,-8.0496826)" />
    <linearGradient
       id="paint2_linear_77:3-7"
       x1="79.398094"
       y1="-197.84389"
       x2="82.901054"
       y2="-199.97827"
       gradientUnits="userSpaceOnUse"
       gradientTransform="matrix(1.9248511,0,0,1.7314595,-40.88733,399.61741)">
      <stop
         stop-color="#EBFAFF"
         stop-opacity="0.1"
         id="stop29-5-7"
         offset="0"
         style="stop-color:#c3c3c3;stop-opacity:1;" />
      <stop
         offset="1"
         stop-color="#70A9FF"
         stop-opacity="0.5"
         id="stop30-0-1"
         style="stop-color:#05c7ff;stop-opacity:0.80000001;" />
    </linearGradient>
    <linearGradient
       inkscape:collect="always"
       xlink:href="#linearGradient899"
       id="linearGradient926"
       x1="1.0977763"
       y1="-9.2317743"
       x2="16.919081"
       y2="-9.2251434"
       gradientUnits="userSpaceOnUse"
       gradientTransform="translate(-0.92604234,0.47624996)" />
    <radialGradient
       id="radialGradient991-6-6"
       cx="4.1410999"
       cy="6.4320002"
       r="2.1166"
       gradientTransform="matrix(0.70000417,0,0,0.70000417,1.1997356,1.3711403)"
       gradientUnits="userSpaceOnUse">
      <stop
         stop-color="#eceff4"
         offset="0"
         id="stop1101-2-2" />
      <stop
         stop-color="#fff"
         stop-opacity="0"
         offset="1"
         id="stop1103-9-9" />
    </radialGradient>
    <radialGradient
       id="radialGradient1003-1-1"
       cx="4.1410999"
       cy="6.4320002"
       r="2.1166"
       gradientTransform="matrix(0.56172,0,0,0.56172,8.0231536,-2.8057424)"
       gradientUnits="userSpaceOnUse">
      <stop
         stop-color="#eceff4"
         offset="0"
         id="stop1106-2-2" />
      <stop
         stop-color="#fff"
         stop-opacity="0"
         offset="1"
         id="stop1108-7-7" />
    </radialGradient>
    <radialGradient
       id="radialGradient1007-0-0"
       cx="4.1410999"
       cy="6.4320002"
       r="2.1166"
       gradientTransform="matrix(0.56172,0,0,0.56172,9.0801536,-1.3386724)"
       gradientUnits="userSpaceOnUse">
      <stop
         stop-color="#eceff4"
         offset="0"
         id="stop1111-9-9" />
      <stop
         stop-color="#fff"
         stop-opacity="0"
         offset="1"
         id="stop1113-3-3" />
    </radialGradient>
    <radialGradient
       id="radialGradient1011-6-6"
       cx="4.1410999"
       cy="6.4320002"
       r="2.1166"
       gradientTransform="matrix(0.31459871,0,0,0.31459871,10.341582,6.4644943)"
       gradientUnits="userSpaceOnUse">
      <stop
         stop-color="#eceff4"
         offset="0"
         id="stop1116-0-0" />
      <stop
         stop-color="#fff"
         stop-opacity="0"
         offset="1"
         id="stop1118-6-6" />
    </radialGradient>
    <radialGradient
       id="radialGradient1015-2-2"
       cx="4.1410999"
       cy="6.4320002"
       r="2.1166"
       gradientTransform="matrix(0.31459871,0,0,0.31459871,10.253205,7.3507213)"
       gradientUnits="userSpaceOnUse">
      <stop
         stop-color="#eceff4"
         offset="0"
         id="stop1121-6-6" />
      <stop
         stop-color="#fff"
         stop-opacity="0"
         offset="1"
         id="stop1123-1-1" />
    </radialGradient>
    <radialGradient
       id="radialGradient1019-8-8"
       cx="4.1410999"
       cy="6.4320002"
       r="2.1166"
       gradientTransform="matrix(0.56997541,0,0,0.56997541,7.17827,5.3067493)"
       gradientUnits="userSpaceOnUse">
      <stop
         stop-color="#eceff4"
         offset="0"
         id="stop1126-7-7" />
      <stop
         stop-color="#fff"
         stop-opacity="0"
         offset="1"
         id="stop1128-9-9" />
    </radialGradient>
    <radialGradient
       id="radialGradient1027-2-2"
       cx="4.1410999"
       cy="6.4320002"
       r="2.1166"
       gradientTransform="matrix(0.35372947,0,0,0.35372947,3.1800952,5.8411283)"
       gradientUnits="userSpaceOnUse">
      <stop
         stop-color="#eceff4"
         offset="0"
         id="stop1131-0-0" />
      <stop
         stop-color="#fff"
         stop-opacity="0"
         offset="1"
         id="stop1133-2-2" />
    </radialGradient>
    <radialGradient
       id="radialGradient1031-3-3"
       cx="4.1410999"
       cy="6.4320002"
       r="2.1166"
       gradientTransform="matrix(0.21481041,0,0,0.21481041,7.974156,10.698077)"
       gradientUnits="userSpaceOnUse">
      <stop
         stop-color="#eceff4"
         offset="0"
         id="stop1136-7-7" />
      <stop
         stop-color="#fff"
         stop-opacity="0"
         offset="1"
         id="stop1138-5-5" />
    </radialGradient>
    <radialGradient
       id="radialGradient1035-9-9"
       cx="4.1410999"
       cy="6.4320002"
       r="2.1166"
       gradientTransform="matrix(0.32794276,0,0,0.32794276,6.0472133,6.6878043)"
       gradientUnits="userSpaceOnUse">
      <stop
         stop-color="#eceff4"
         offset="0"
         id="stop1141-2-2" />
      <stop
         stop-color="#fff"
         stop-opacity="0"
         offset="1"
         id="stop1143-2-2" />
    </radialGradient>
    <radialGradient
       id="radialGradient1043-8-8"
       cx="4.1410999"
       cy="6.4320002"
       r="2.1166"
       gradientTransform="matrix(0.15715487,0,0,0.15715487,9.879567,9.0528263)"
       gradientUnits="userSpaceOnUse">
      <stop
         stop-color="#eceff4"
         offset="0"
         id="stop1151-9-9" />
      <stop
         stop-color="#fff"
         stop-opacity="0"
         offset="1"
         id="stop1153-7-7" />
    </radialGradient>
  </defs>
  <sodipodi:namedview
     id="base"
     pagecolor="#e2e2e2"
     bordercolor="#666666"
     borderopacity="1.0"
     inkscape:pageopacity="0"
     inkscape:pageshadow="2"
     inkscape:zoom="9.7248729"
     inkscape:cx="32.596827"
     inkscape:cy="31.568536"
     inkscape:document-units="px"
     inkscape:current-layer="layer1"
     inkscape:document-rotation="0"
     showgrid="true"
     units="px"
     inkscape:window-width="1920"
     inkscape:window-height="990"
     inkscape:window-x="0"
     inkscape:window-y="0"
     inkscape:window-maximized="1"
     inkscape:object-paths="true"
     inkscape:snap-grids="true"
     inkscape:snap-intersection-paths="true"
     inkscape:snap-smooth-nodes="true"
     inkscape:snap-midpoints="true"
     inkscape:showpageshadow="2"
     inkscape:pagecheckerboard="0"
     inkscape:deskcolor="#d1d1d1">
    <inkscape:grid
       id="grid2"
       units="px"
       originx="0"
       originy="0"
       spacingx="0.26458333"
       spacingy="0.26458333"
       empcolor="#0099e5"
       empopacity="0.30196078"
       color="#0099e5"
       opacity="0.14902"
       empspacing="5"
       dotted="false"
       gridanglex="30"
       gridanglez="30"
       visible="true" />
  </sodipodi:namedview>
  <metadata
     id="metadata1111">
    <rdf:RDF>
      <cc:Work
         rdf:about="">
        <dc:format>image/svg+xml</dc:format>
        <dc:type
           rdf:resource="http://purl.org/dc/dcmitype/StillImage" />
      </cc:Work>
    </rdf:RDF>
  </metadata>
  <g
     inkscape:label="Layer 1"
     inkscape:groupmode="layer"
     id="layer1">
    <g
       id="g918"
       transform="translate(0.47625037,0.92604234)">
      <rect
         ry="4.8357682"
         rx="4.8357682"
         style="fill:url(#linearGradient926);fill-opacity:1;stroke-width:6.09228"
         x="0.13229237"
         y="-16.457085"
         width="15.875001"
         height="15.875001"
         id="use1056"
         transform="rotate(90)"
         class="ColorScheme-Highlight" />
      <path
         d="m 5.344583,0.13229167 c -2.6384245,0 -4.76249953,2.12407483 -4.76249953,4.76249963 H 5.344583 Z"
         style="opacity:0.15;fill:url(#radialGradient25);fill-opacity:1;stroke-width:6.09228"
         id="path20" />
      <rect
         y="0.13229151"
         x="5.3445826"
         height="1.5875"
         width="6.3500004"
         id="rect20"
         style="opacity:0.15;fill:url(#linearGradient25);fill-opacity:1;stroke-width:4.83577;stroke-linecap:round;stroke-linejoin:round;paint-order:stroke fill markers" />
      <path
         d="m 0.58208347,11.244792 c 0,2.638424 2.12407503,4.762499 4.76249953,4.762499 v -4.762499 z"
         style="opacity:0.15;fill:url(#radialGradient29);fill-opacity:1;stroke-width:6.09228"
         id="use20" />
      <rect
         y="0.5820834"
         x="-11.244792"
         height="1.5875"
         width="6.3500004"
         id="use21"
         style="opacity:0.15;fill:url(#linearGradient34);fill-opacity:1;stroke-width:4.83577;stroke-linecap:round;stroke-linejoin:round;paint-order:stroke fill markers"
         transform="rotate(-90)" />
      <path
         d="m 11.694583,16.007291 c 2.638425,0 4.7625,-2.124074 4.7625,-4.762499 h -4.7625 z"
         style="opacity:0.15;fill:url(#radialGradient30);fill-opacity:1;stroke-width:6.09228"
         id="use22" />
      <rect
         y="-16.007292"
         x="-11.694584"
         height="1.5875"
         width="6.3500004"
         id="use23"
         style="opacity:0.15;fill:url(#linearGradient35);fill-opacity:1;stroke-width:4.83577;stroke-linecap:round;stroke-linejoin:round;paint-order:stroke fill markers"
         transform="scale(-1)" />
      <path
         d="m 16.457083,4.8947913 c 0,-2.6384245 -2.124074,-4.76249963 -4.7625,-4.76249963 V 4.8947913 Z"
         style="opacity:0.15;fill:url(#radialGradient31);fill-opacity:1;stroke-width:6.09228"
         id="use24" />
      <rect
         y="-16.457081"
         x="4.8947906"
         height="1.5875"
         width="6.3500004"
         id="use25"
         style="opacity:0.15;fill:url(#linearGradient36);fill-opacity:1;stroke-width:4.83577;stroke-linecap:round;stroke-linejoin:round;paint-order:stroke fill markers"
         transform="rotate(90)" />
      <path
         d="m 5.3445832,0.13229107 c -2.638425,0 -4.76250035,2.12407473 -4.76250035,4.76249973 H 5.3445832 Z"
         style="opacity:0.5;fill:url(#radialGradient15);fill-opacity:1;stroke-width:6.09228"
         id="path14" />
      <rect
         y="0.1322909"
         x="5.3445826"
         height="1.5875"
         width="6.3499999"
         id="rect14"
         style="opacity:0.5;fill:url(#linearGradient15);fill-opacity:1;stroke-width:4.83577;stroke-linecap:round;stroke-linejoin:round;paint-order:stroke fill markers" />
      <path
         d="m 11.694583,0.13229096 c 2.638425,0 4.7625,2.12407504 4.7625,4.76249734 h -4.7625 z"
         style="opacity:0.5;fill:url(#radialGradient17);fill-opacity:1;stroke-width:6.09228"
         id="use14" />
      <path
         id="path17"
         style="opacity:0.5;fill:url(#radialGradient18);fill-opacity:1;stroke-width:6.09228"
         d="m 5.3445834,16.00729 c -2.638425,0 -4.7625,-2.124075 -4.7625,-4.7625 h 4.7625 z" />
      <rect
         style="opacity:0.5;fill:url(#linearGradient18);fill-opacity:1;stroke-width:4.83577;stroke-linecap:round;stroke-linejoin:round;paint-order:stroke fill markers"
         id="rect17"
         width="6.3499994"
         height="1.5874999"
         x="5.3445826"
         y="-16.007292"
         transform="scale(1,-1)" />
      <path
         id="use17"
         style="opacity:0.5;fill:url(#radialGradient20);fill-opacity:1;stroke-width:6.09228"
         d="m 11.694582,16.007291 c 2.638425,0 4.7625,-2.124075 4.7625,-4.7625 h -4.7625 z" />
    </g>
    <path
       d="m 10.56257,13.794944 c -0.06729,0.08142 -0.154294,0.157693 -0.236348,0.227973 -0.5301227,-0.581185 -1.152532,-1.225191 -1.7441019,-1.225191 -0.3667809,0 -0.6309447,0.296185 -0.9391278,0.505156 C 7.2153135,13.592818 6.6286358,13.756201 6.1258764,13.5433 5.8554729,13.434375 5.5934822,13.274056 5.3976809,13.013382 c 0.3956958,0.2895 0.9882651,0.328327 1.4349698,0.131784 0.4937723,-0.217239 0.996329,-0.505778 1.5590365,-0.505778 0.8294936,0 1.6178428,0.595091 2.1708828,1.155594 z M 4.4318882,11.96719 c 0.5492006,0.663106 1.4449323,0.449754 2.178048,0.615387 0.1020468,0.02313 0.197913,0.05811 0.307457,0.04129 -0.087161,-0.05812 -0.2026981,-0.0654 -0.3033877,-0.105419 -0.5688508,-0.227347 -0.6575358,-0.873067 -0.9688383,-1.317518 0.397619,0.280368 0.7270487,0.664264 1.0988735,1.025032 0.2587987,0.251108 0.5812082,0.358527 0.9155824,0.430618 C 7.5792741,12.68721 7.474167,12.68031 7.3876207,12.70343 6.7869864,12.861517 6.1210614,13.110998 5.4819509,12.887208 5.0694981,12.742782 4.6402992,12.400887 4.4318638,11.967571 Z M 3.5515611,10.43245 c 0.3425634,0.822666 1.2032418,0.887104 1.7755115,1.391782 0.1088156,0.09589 0.2166796,0.184322 0.3362231,0.243386 l 0.00623,-0.0061 C 5.5374098,11.93469 5.3944889,11.783565 5.2922191,11.625994 4.9651369,11.121907 5.0739838,10.43287 4.8217931,9.8984256 5.0509176,10.189429 5.2658302,10.489146 5.3977561,10.822263 5.6100737,11.358491 5.6821967,11.970134 6.1583622,12.377552 5.6429924,12.197146 5.048478,12.233041 4.5843929,11.91063 4.0965695,11.571679 3.6444668,11.036802 3.5515576,10.432767 Z M 3.1846063,8.7680482 c 0.049529,0.7248099 0.7770336,1.1119741 1.1239159,1.7077848 0.074091,0.127275 0.1503318,0.258642 0.2579218,0.361362 C 4.5497046,10.760039 4.4898091,10.691696 4.4568564,10.615973 4.3455953,10.360286 4.2952439,10.064491 4.3230079,9.7602795 4.3567948,9.3901405 4.5022607,9.0464606 4.4464336,8.6570979 c 0.2989892,0.6845543 0.202549,1.5403541 0.3753431,2.2805231 0.038205,0.163757 0.1322368,0.307006 0.1901664,0.462136 C 4.7181687,11.162655 4.3331816,10.952312 4.010719,10.68268 3.6988689,10.421913 3.4281858,10.116394 3.287465,9.7187158 3.1860785,9.4321563 3.159708,9.0904117 3.1845972,8.7680577 Z M 3.2049548,7.4326 C 3.2400497,7.2708497 3.2669297,7.1033846 3.3332521,6.9550213 3.2076236,7.6387504 3.636466,8.1326471 3.7828523,8.7241901 c 0.055192,0.2229448 0.074054,0.4598084 0.1590362,0.6677888 0.00789,0.00446 0.014807,-0.00416 0.019722,-0.010419 C 3.7500348,8.7520086 4.0601862,8.1701887 4.3623234,7.6739583 4.4417447,7.5435091 4.4799687,7.3916193 4.5170602,7.2380852 4.5497278,7.5230817 4.4925432,7.8529848 4.442828,8.1470645 4.3788442,8.5256319 4.2568368,8.8805353 4.1598617,9.2458286 4.0960202,9.474032 4.1128213,9.7315543 4.1456132,9.9706883 l -0.0308,-0.02595 C 3.88985,9.5041965 3.4460486,9.1600623 3.3120187,8.6793282 3.2048951,8.2950706 3.1307939,7.8512056 3.2049513,7.4331886 Z M 3.4422106,6.6970895 c 0,-0.5174455 0.1899298,-0.9394869 0.4748437,-1.3248259 0.00825,-0.00436 0.01419,-0.013693 0.024833,-0.010509 -0.313656,0.5060535 -0.028193,1.1448445 -0.068477,1.7188288 l -0.041377,0.5891139 c 0.00621,0.00426 0.00621,0.022071 0.020723,0.01563 0.018541,-0.065725 0.024141,-0.1355311 0.034903,-0.2034038 0.075503,-0.474943 0.4686729,-0.8054745 0.802097,-1.1407892 0.078874,-0.079263 0.136617,-0.1731114 0.1738142,-0.2738357 -0.027751,0.236582 -0.08995,0.4791356 -0.190067,0.6940616 C 4.4168565,7.3124956 3.9211637,7.7573644 3.8320017,8.3837073 3.7887566,7.7834088 3.4421734,7.3372249 3.4421734,6.698118 Z M 4.2689295,4.9517269 C 4.4266469,4.7662601 4.6034041,4.6217487 4.8138369,4.5646056 4.405211,4.8626451 4.427381,5.3953003 4.3022877,5.8406776 4.2565536,6.0035158 4.1893091,6.1561307 4.1535619,6.3244464 l 0.01033,0.00831 C 4.2318759,6.1425208 4.3485256,5.9596053 4.5004873,5.8075343 4.7878961,5.5198994 5.2200199,5.3458566 5.3622378,4.9250652 5.3557046,5.5097395 4.8858697,5.954176 4.4567443,6.2980153 4.2642693,6.4522436 4.1006972,6.6592754 4.0008722,6.8763243 4.0175481,6.7147679 4.0251394,6.5803668 4.0115124,6.4226995 3.9674582,5.9119505 3.9388981,5.3393762 4.2688861,4.95131 Z M 5.9275168,3.9687527 C 5.6242532,4.2510416 5.4218852,4.6143362 5.1889083,4.9409204 4.995139,5.2125234 4.729272,5.3808516 4.5006088,5.6088164 4.6240347,5.3372381 4.6468265,5.0259989 4.803573,4.763187 5.0716056,4.313877 5.5145917,4.1394839 5.9275168,3.9687527 Z"
       id="path1315-3-5"
       style="opacity:0.9;fill:#ffffff;fill-opacity:1;stroke-width:0.0240761" />
    <path
       d="m 7.4290688,13.794944 c 0.067259,0.08142 0.1542949,0.157693 0.2363486,0.227973 0.5301229,-0.581185 1.152532,-1.225197 1.7441022,-1.225197 0.3667814,0 0.6309484,0.296185 0.9391314,0.50515 0.42768,0.289996 1.014356,0.453318 1.517114,0.240416 0.270404,-0.108923 0.532394,-0.269243 0.728195,-0.529916 -0.395691,0.2895 -0.988262,0.328327 -1.434968,0.131772 -0.493771,-0.217215 -0.996327,-0.505778 -1.5590395,-0.505778 -0.8294942,0 -1.6178378,0.595121 -2.1708843,1.155593 z M 13.559753,11.96719 c -0.549197,0.663098 -1.444933,0.449754 -2.178046,0.615387 -0.102047,0.02313 -0.197914,0.05811 -0.307458,0.04129 0.08715,-0.05811 0.2027,-0.06539 0.30339,-0.105417 0.568851,-0.227347 0.657534,-0.873067 0.968838,-1.317518 -0.397623,0.280368 -0.72705,0.664264 -1.098873,1.025025 -0.258801,0.251108 -0.581208,0.358527 -0.915583,0.430618 0.08032,0.03063 0.185456,0.02373 0.272003,0.04685 0.600631,0.158099 1.266555,0.407591 1.905666,0.183765 0.412454,-0.144436 0.841654,-0.486333 1.050087,-0.919654 z m 0.880329,-1.534743 c -0.342566,0.822669 -1.203244,0.887107 -1.775511,1.391779 -0.108818,0.09589 -0.216679,0.184316 -0.336223,0.243361 l -0.0061,-0.0061 c 0.132058,-0.126676 0.274977,-0.277804 0.377239,-0.435373 0.327082,-0.504087 0.218235,-1.193118 0.470427,-1.7275664 -0.229125,0.2909894 -0.444036,0.5907304 -0.575964,0.9238404 -0.212316,0.536228 -0.284438,1.147862 -0.760603,1.555287 0.515369,-0.180389 1.109884,-0.144498 1.573968,-0.466905 0.487829,-0.338958 0.939923,-0.873836 1.032832,-1.477853 z m 0.366952,-1.6644019 c -0.04952,0.724811 -0.777032,1.1119742 -1.123916,1.7077849 -0.07413,0.127287 -0.150328,0.258642 -0.257921,0.361361 0.0167,-0.07709 0.07661,-0.145498 0.109588,-0.221221 0.111261,-0.255687 0.161613,-0.551482 0.13385,-0.8556927 -0.03379,-0.370139 -0.179252,-0.7138187 -0.123427,-1.1031806 -0.298987,0.6845532 -0.202548,1.5403533 -0.375343,2.2805203 -0.03819,0.163758 -0.132237,0.307006 -0.190168,0.462149 0.293781,-0.237102 0.678763,-0.447443 1.001227,-0.717084 0.311848,-0.260761 0.582531,-0.566286 0.723251,-0.9639632 0.1014,-0.2865532 0.127759,-0.6282791 0.102873,-0.9506591 z m -0.02032,-1.3354494 c -0.03506,-0.1617501 -0.06193,-0.3292152 -0.128301,-0.4775786 0.12563,0.6837302 -0.303211,1.177627 -0.449599,1.7691698 -0.05523,0.222945 -0.07409,0.4597896 -0.159034,0.6677876 -0.0077,0.00446 -0.01483,-0.00416 -0.0197,-0.010417 0.211577,-0.6295477 -0.09858,-1.2113676 -0.400713,-1.707598 -0.07941,-0.1304494 -0.117644,-0.2823391 -0.154733,-0.4358731 -0.03272,0.2850027 0.02451,0.6148995 0.07427,0.9089793 0.06401,0.3785674 0.185993,0.7334707 0.282968,1.098764 0.06387,0.2282034 0.04701,0.4857319 0.01428,0.7248566 l 0.03078,-0.02595 C 14.101824,9.5043038 14.545622,9.1601543 14.679653,8.679419 14.78677,8.2951554 14.860873,7.8512973 14.78672,7.4332745 Z M 14.549438,6.6970863 c 0,-0.5174454 -0.189929,-0.9394869 -0.474844,-1.324826 -0.0081,-0.00436 -0.01422,-0.013693 -0.02485,-0.010509 0.313652,0.5060535 0.02815,1.1448454 0.06847,1.7188288 l 0.0414,0.5891133 c -0.006,0.00426 -0.006,0.022071 -0.02068,0.01563 -0.01856,-0.065724 -0.02412,-0.1355317 -0.03489,-0.2034171 -0.07552,-0.4749457 -0.46869,-0.8054761 -0.802116,-1.1407909 -0.07889,-0.079266 -0.136615,-0.173105 -0.173814,-0.2738354 0.02773,0.2366007 0.08999,0.4791354 0.190066,0.6940615 0.25665,0.5511349 0.752342,0.9960048 0.841503,1.6223468 0.04323,-0.6002999 0.389827,-1.0464829 0.389827,-1.6855905 z M 13.722726,4.9517228 C 13.565009,4.766256 13.388251,4.6217444 13.177818,4.5646015 c 0.408629,0.2980457 0.386456,0.8306948 0.511551,1.2760731 0.04574,0.1628632 0.112977,0.315453 0.148724,0.4837812 l -0.01041,0.00831 C 13.759735,6.1425299 13.643094,5.9596149 13.491127,5.8075438 13.203718,5.5199085 12.771596,5.3458656 12.629379,4.9250761 c 0.0064,0.5846741 0.476366,1.0291092 0.90549,1.3729484 0.192475,0.1542283 0.35605,0.3612604 0.455869,0.5783029 -0.01663,-0.1615502 -0.02423,-0.2959511 -0.01066,-0.4536247 0.0441,-0.5107426 0.0726,-1.0833213 -0.257373,-1.4713886 z M 12.064139,3.9687496 c 0.303264,0.2822889 0.505631,0.6455832 0.738609,0.9721673 0.19377,0.2716035 0.459639,0.4399315 0.688298,0.6678962 C 13.367622,5.3371975 13.344832,5.0259583 13.188082,4.7631838 12.92005,4.3138738 12.477066,4.1394431 12.064139,3.9687496 Z"
       id="path4982"
       style="opacity:0.81;fill:#ffffff;fill-opacity:1;stroke-width:0.0240761" />
    <path
       d="m 12.694993,10.040893 -0.08962,-0.04868 c -0.189918,0.392914 -0.441379,0.750447 -0.742187,1.059712 l -0.523298,-0.525054 c 0.256371,-0.26504 0.463076,-0.5658747 0.615358,-0.8909728 l -0.08919,-0.048553 C 11.715541,9.9097336 11.513014,10.203073 11.268753,10.455812 L 10.794719,9.9800616 C 10.99823,9.7678245 11.159704,9.5256765 11.276257,9.2639682 l -0.08842,-0.048289 c -0.114133,0.2579469 -0.271592,0.492449 -0.463996,0.6934984 L 10.199933,9.3833542 c 0.14569,-0.1549006 0.258168,-0.333066 0.33472,-0.5259263 l -0.08845,-0.048209 c -0.07318,0.1880591 -0.181305,0.3587882 -0.31675,0.5035362 L 9.6539541,8.8357833 C 9.7894133,8.6841249 9.8679703,8.493892 9.8790823,8.2905636 h 0.6730347 c -0.0055,0.1824173 -0.04294,0.3569707 -0.105942,0.5185886 l 0.08846,0.04826 c 0.07087,-0.1786469 0.110838,-0.3698337 0.116564,-0.5669655 h 0.741923 c -0.0065,0.3285712 -0.07969,0.641072 -0.205342,0.9249859 l 0.08841,0.04828 c 0.134893,-0.3031128 0.209443,-0.6324795 0.216044,-0.973458 h 0.671761 c -0.0069,0.4627648 -0.113481,0.9015456 -0.297992,1.2966277 l 0.08921,0.048524 C 12.150282,9.2190507 12.25629,8.7626207 12.263288,8.2898921 h 0.741863 c -0.0072,0.6091304 -0.15044,1.1858899 -0.399785,1.7017465 l 0.08966,0.04868 c 0.268227,-0.5542631 0.41062,-1.1662698 0.41062,-1.8005027 0,-0.5393484 -0.103002,-1.0625934 -0.298712,-1.5480266 l -0.09192,0.039852 c 0.184326,0.4580899 0.28423,0.9506862 0.290369,1.4586235 h -0.741956 c -0.0058,-0.4051789 -0.08544,-0.7981685 -0.230594,-1.1644651 l -0.09124,0.039352 c 0.140065,0.3541802 0.216732,0.7337503 0.22265,1.1252456 H 11.492379 C 11.486879,7.891963 11.428599,7.602398 11.323926,7.3315251 l -0.09123,0.039457 c 0.09954,0.2585338 0.154813,0.5348436 0.160608,0.8195544 H 10.651271 C 10.646171,8.0085891 10.611641,7.8316261 10.550703,7.664973 l -0.09122,0.039395 c 0.05596,0.1544096 0.08739,0.3179689 0.09267,0.4862312 H 9.8791243 C 9.8679923,7.9878669 9.7894533,7.7976474 9.6540021,7.6459495 L 10.129969,7.1685811 c 0.146977,0.1568492 0.258147,0.338936 0.329554,0.5363642 l 0.09121,-0.039396 c -0.07638,-0.208779 -0.194657,-0.4014446 -0.35072,-0.5673411 l 0.524651,-0.526238 c 0.223876,0.23376 0.394767,0.505209 0.508017,0.7996107 l 0.09122,-0.039457 C 11.205654,7.0262558 11.027658,6.7441982 10.794748,6.5014466 l 0.475043,-0.4766312 c 0.294195,0.3043455 0.520223,0.6575876 0.671709,1.0409354 l 0.09123,-0.039331 C 11.876255,6.6315527 11.643149,6.2678142 11.339936,5.9544318 l 0.524572,-0.5263161 c 0.370998,0.3813169 0.657179,0.8236877 0.850428,1.3041268 l 0.09185,-0.039852 C 12.602621,6.1854244 12.297359,5.719826 11.900344,5.3215582 11.501878,4.9217575 11.035709,4.6148417 10.528183,4.4099459 l -0.03657,0.093427 c 0.47996,0.193917 0.921935,0.4813427 1.302696,0.8542484 l -0.524533,0.5262995 c -0.30705,-0.298678 -0.662843,-0.530112 -1.049098,-0.6869151 l -0.03623,0.092372 c 0.373495,0.1520576 0.717777,0.3758259 1.015265,0.6653668 L 10.724748,6.4314014 C 10.493802,6.2086647 10.227512,6.0355949 9.938862,5.9171049 l -0.03632,0.092372 c 0.276192,0.1135889 0.53092,0.2791377 0.752031,0.4922169 L 10.130041,7.0280711 C 9.9824776,6.8885607 9.8137483,6.7790275 9.6314288,6.7026502 l -0.036277,0.092442 C 9.765058,6.8664882 9.922186,6.9684218 10.059931,7.0982636 L 9.5840399,7.5758128 C 9.4327848,7.4399226 9.2432054,7.3610766 9.0405165,7.3500345 V 6.6749789 c 0.1934176,0.0063 0.3806822,0.047115 0.5546313,0.1204546 l 0.036276,-0.092466 C 9.4460629,6.6251003 9.246472,6.5816433 9.0405103,6.57552 V 5.8311975 c 0.3004153,0.0063 0.5914851,0.067227 0.8620903,0.178525 l 0.03632,-0.092372 C 9.6568893,5.8013932 9.3534805,5.7377857 9.0405092,5.731726 V 5.0574721 c 0.3983846,0.0063 0.7846654,0.085769 1.1439268,0.2319025 l 0.03626,-0.092382 C 9.849948,5.046184 9.4515631,4.9640933 9.0404931,4.958048 V 4.2136362 c 0.5053508,0.00629 0.9954979,0.1060264 1.4512529,0.2901403 l 0.03657,-0.093397 C 10.046005,4.2155567 9.5263766,4.1130141 8.9909153,4.1130141 c -0.6615221,0 -1.2865663,0.1583102 -1.8408512,0.4377846 l 0.045242,0.086742 C 7.7316749,4.3679654 8.3250887,4.2211197 8.9413946,4.2135873 V 4.9579911 C 8.4387751,4.9656011 7.9638341,5.0878818 7.5402787,5.298882 l 0.045047,0.086444 C 8.0026156,5.1781743 8.463247,5.0645965 8.9413813,5.0573292 V 5.7313175 C 8.5676367,5.7387275 8.213994,5.8288825 7.8974769,5.9838009 l 0.04536,0.086916 C 8.2509786,5.920745 8.5897944,5.8377909 8.9414411,5.8307087 v 0.7443954 c -0.2331785,0.007 -0.4543355,0.062369 -0.6540314,0.156347 l 0.045549,0.087321 C 8.5218574,6.7306175 8.7279498,6.6811984 8.9414225,6.6745725 v 0.6752608 c -0.1044045,0.00619 -0.2039914,0.029415 -0.2957691,0.068545 l 0.045481,0.087261 c 0.093873,-0.038941 0.1953029,-0.059285 0.2998365,-0.059285 0.211407,0 0.4101199,0.082663 0.559628,0.2325116 0.1494894,0.1500006 0.2318041,0.3494181 0.2318041,0.5615144 0,0.4378096 -0.3549672,0.7940573 -0.7914314,0.7940573 -0.2114561,0 -0.4102256,-0.082613 -0.5597023,-0.2325731 C 8.2817902,8.6518416 8.1994507,8.4525443 8.1994507,8.2404099 c 0,-0.2120645 0.082337,-0.4115234 0.2318223,-0.5615206 C 8.506892,7.6028783 8.5950855,7.5446466 8.6911131,7.5052767 L 8.6456308,7.4180393 C 8.5544202,7.4569837 8.4709589,7.5100802 8.3982022,7.5754684 L 7.9220365,7.0978708 C 8.0450499,6.9818557 8.1835754,6.888175 8.3329031,6.8185568 L 8.2873586,6.7312488 C 8.1267547,6.8070415 7.9800775,6.9074281 7.8524161,7.0281828 L 7.3272906,6.501377 C 7.5114439,6.3239471 7.7191357,6.1797565 7.942825,6.0707058 L 7.8974655,5.9837938 C 7.6612252,6.0993552 7.4455749,6.2509802 7.258012,6.431827 L 6.7821298,5.954595 C 7.0223205,5.7208077 7.2933669,5.5302963 7.5852942,5.3854222 L 7.5402453,5.2988856 C 7.2346663,5.4511437 6.9555737,5.6492887 6.7130635,5.8853717 L 6.1873904,5.3579248 C 6.4887501,5.0628317 6.8287892,4.8217256 7.1952916,4.6374824 L 7.150057,4.5507274 C 6.348915,4.9546236 5.6966813,5.6128044 5.2995175,6.4196879 l 0.086204,0.046616 C 5.5709439,6.0883508 5.815919,5.7379349 6.117278,5.4281281 L 6.6430009,5.9555786 C 6.3984549,6.2083572 6.1941291,6.5002941 6.0402536,6.8211268 l 0.085879,0.046423 C 6.2726969,6.5603719 6.4692138,6.2759392 6.7119745,6.0247551 L 7.1878872,6.5021199 C 6.9960681,6.702274 6.8373637,6.934325 6.719714,7.1893004 L 6.80579,7.2357854 C 6.9165971,6.9934356 7.0680277,6.7689941 7.2571776,6.5715005 L 7.7823029,7.0983324 C 7.6480775,7.241205 7.5387527,7.4078131 7.4611432,7.5910485 l 0.086767,0.046992 C 7.6192305,7.4661152 7.7214567,7.3071504 7.8518499,7.1679974 L 8.3280056,7.6456459 C 8.1972821,7.7921626 8.11429,7.9817139 8.1027668,8.1905188 H 7.4295839 c 0.00599,-0.1925895 0.046419,-0.3791578 0.118322,-0.5525543 l -0.086769,-0.046989 c -0.0784,0.185127 -0.1243756,0.3874103 -0.1306666,0.5996039 H 6.5885499 c 0.00668,-0.3349463 0.081555,-0.658408 0.2171992,-0.9549125 L 6.7196765,7.1891988 C 6.5784988,7.4949661 6.4964589,7.8337166 6.4895271,8.1907209 H 5.8175697 C 5.8245979,7.7252673 5.9310634,7.2761893 6.1261245,6.8674111 l -0.08588,-0.046426 C 5.8406544,7.2367914 5.7258725,7.7009088 5.7185795,8.1908397 H 4.9765142 c 0.00727,-0.6079153 0.148904,-1.1937308 0.4091491,-1.7246549 l -0.086209,-0.046613 c -0.27053,0.5497391 -0.423255,1.1677056 -0.423255,1.8210694 0,0.3996806 0.056866,0.7902806 0.1655797,1.163422 L 5.138962,9.3797302 C 5.0367762,9.0299378 4.9810121,8.6644531 4.9765136,8.2905092 h 0.7419457 c 0.00456,0.311832 0.052455,0.6164492 0.1403553,0.9073108 L 5.9550256,9.173683 C 5.8689829,8.8905963 5.8222072,8.5940533 5.8175535,8.2905918 H 6.489389 c 0.00482,0.2471897 0.045482,0.4883381 0.1186514,0.7179151 l 0.096372,-0.024211 C 6.6330687,8.7625614 6.5933769,8.5295729 6.5885549,8.2906833 h 0.7419209 c 0.00515,0.1768066 0.03777,0.3487622 0.095473,0.5113149 l 0.096427,-0.02421 C 7.4664388,8.6231616 7.4348031,8.4592752 7.4295695,8.2908272 h 0.6731094 c 0.011137,0.2032637 0.089612,0.3935178 0.2250645,0.5452107 L 7.8518368,9.3134734 C 7.7050169,9.1566774 7.5938689,8.9748082 7.522357,8.777717 L 7.42593,8.801919 C 7.502097,9.0161316 7.6221299,9.2138327 7.7817236,9.3835884 L 7.257153,9.9099676 C 7.0019791,9.6434192 6.8152251,9.3276355 6.7046122,8.9844602 l -0.096366,0.024201 C 6.7231037,9.3689447 6.9189418,9.7004745 7.1872756,9.9802546 L 6.7121654,10.456993 C 6.3568764,10.089427 6.1002528,9.6509944 5.9552661,9.17377 l -0.096206,0.024136 c 0.1494068,0.49437 0.4148911,0.948744 0.7829891,1.329211 L 6.1174485,11.053494 C 5.6531673,10.576282 5.3215454,10.003461 5.1392319,9.3798632 l -0.097188,0.024323 c 0.1912406,0.6565278 0.5440479,1.2583338 1.0396113,1.7553818 0.3355899,0.336771 0.7191742,0.607819 1.1350125,0.807515 l 0.049217,-0.08769 C 6.8723185,11.691477 6.5082631,11.437907 6.1875535,11.123745 l 0.5245721,-0.52619 c 0.272646,0.265452 0.5835458,0.477136 0.9197132,0.631384 l 0.048971,-0.08706 C 7.3523054,10.99229 7.0484975,10.786173 6.7823156,10.527274 l 0.4750613,-0.4766 c 0.2226503,0.214939 0.4783094,0.383409 0.7551519,0.501348 l 0.048903,-0.0869 C 7.7925292,10.351835 7.5438515,10.188966 7.3276331,9.9805386 L 7.8522797,9.4542678 c 0.1685788,0.1595463 0.3648281,0.2796817 0.5775785,0.3561319 l 0.04959,-0.088173 C 8.2741047,9.6509412 8.0847056,9.5368926 7.9224174,9.3838889 L 8.3983313,8.9063864 C 8.5494943,9.0424183 8.7390422,9.121155 8.9417565,9.132295 V 9.8075651 C 8.7821059,9.8023554 8.6266627,9.7727062 8.4794509,9.7221643 l -0.049589,0.088173 c 0.1626244,0.05899 0.3347686,0.0915 0.5118909,0.096581 v 0.7442547 c -0.307003,-0.0061 -0.6044695,-0.07007 -0.8800905,-0.185951 l -0.048903,0.08691 c 0.2906525,0.123921 0.6045957,0.192162 0.929004,0.198409 v 0.674053 c -0.4420895,-0.0065 -0.869038,-0.104182 -1.2607307,-0.282593 l -0.048966,0.08707 c 0.4065981,0.186397 0.8503058,0.288054 1.3096866,0.294912 v 0.74426 C 8.3524593,12.261343 7.7837413,12.127114 7.2661339,11.879752 l -0.049216,0.0877 c 0.5470212,0.262677 1.1500173,0.401592 1.7744385,0.401592 0.6550054,0 1.2860906,-0.153517 1.8540806,-0.441862 l -0.04687,-0.09141 c -0.529689,0.269153 -1.1260016,0.424683 -1.7576621,0.43246 v -0.744067 c 0.5008273,-0.0073 0.9829361,-0.127848 1.4185191,-0.347721 l -0.04626,-0.09004 C 9.9991156,11.295575 9.5337392,11.416916 9.0409504,11.42462 v -0.673872 c 0.3757662,-0.0071 0.7374236,-0.09783 1.0650556,-0.261635 l -0.04604,-0.08952 c -0.3082814,0.154258 -0.653583,0.24434 -1.0190613,0.251783 V 9.9071426 c 0.2393135,-0.007 0.4696975,-0.06475 0.6793736,-0.1678121 L 9.6745166,9.6502645 C 9.4819351,9.7445853 9.2675164,9.8004718 9.0408337,9.8076412 V 9.1325399 C 9.2435166,9.1218579 9.4331022,9.0427939 9.5843584,8.9066656 L 10.059776,9.3836012 C 9.945943,9.490746 9.8161686,9.5808311 9.6745127,9.6502472 l 0.045737,0.089024 C 9.8687823,9.6661912 10.007083,9.5709803 10.13037,9.4543015 l 0.523776,0.5254941 c -0.174868,0.1685634 -0.375238,0.3101934 -0.594284,0.4197584 l 0.04603,0.08951 c 0.224661,-0.112269 0.433491,-0.258851 0.619173,-0.438055 l 0.474047,0.47556 c -0.230926,0.224677 -0.495988,0.413722 -0.786041,0.560061 l 0.04626,0.09004 c 0.294549,-0.148522 0.567964,-0.342079 0.810855,-0.578781 l 0.523304,0.525006 c -0.291953,0.285869 -0.627616,0.52656 -0.994996,0.713196 l 0.04687,0.09141 c 0.384973,-0.195451 0.741368,-0.452155 1.055391,-0.767209 0.330123,-0.331047 0.596504,-0.708975 0.794599,-1.118262 z"
       id="path1322-2"
       style="opacity:0.9;fill:#000000;fill-opacity:1;stroke-width:0.0240761" />
    <polygon
       transform="matrix(0.01956082,0,0,0.01991545,-1.0240765,2.9699108)"
       points="522.83,218.22 524.11,218.16 524.04,216.67 522.77,216.72 "
       id="polygon1324-9"
       style="opacity:0.9;fill:#000000;fill-opacity:1;stroke-width:0.160459" />
    <rect
       x="9.165287"
       y="7.2453098"
       width="0.033154771"
       height="0.025353296"
       id="rect1326-1"
       style="opacity:0.9;fill:#000000;fill-opacity:1;stroke-width:0.0240761" />
    <polygon
       transform="matrix(0.01956082,0,0,0.01991545,-1.0240765,2.9699108)"
       points="519.52,213.19 518.03,212.98 517.85,214.23 519.34,214.45 "
       id="polygon1328-2"
       style="opacity:0.9;fill:#000000;fill-opacity:1;stroke-width:0.160459" />
    <rect
       transform="matrix(-0.98964902,-0.14350892,0.13853477,-0.99035757,0,0)"
       x="-9.9947872"
       y="-5.8500218"
       width="0.029274078"
       height="0.025384396"
       id="rect1330-7"
       style="opacity:0.9;fill:#000000;fill-opacity:1;stroke-width:0.0240761" />
    <rect
       x="8.841711"
       y="7.1944833"
       width="0.033154771"
       height="0.02537334"
       id="rect1332-0"
       style="opacity:0.9;fill:#000000;fill-opacity:1;stroke-width:0.0240761" />
    <polygon
       transform="matrix(0.01956082,0,0,0.01991545,-1.0240765,2.9699108)"
       points="502.33,213.61 500.85,213.4 500.67,214.66 502.15,214.87 "
       id="polygon1334-9"
       style="opacity:0.9;fill:#000000;fill-opacity:1;stroke-width:0.160459" />
    <rect
       transform="matrix(-0.96900261,-0.24705049,0.2388304,-0.9710613,0,0)"
       x="-10.258384"
       y="-4.8905091"
       width="0.034324896"
       height="0.025326025"
       id="rect1336-3"
       style="opacity:0.9;fill:#000000;fill-opacity:1;stroke-width:0.0240762" />
    <rect
       transform="matrix(-0.1605586,-0.98702631,0.98607936,-0.16627534,0,0)"
       x="-8.6615953"
       y="7.4256816"
       width="0.025699496"
       height="0.024933647"
       id="rect1338-6"
       style="opacity:0.9;fill:#000000;fill-opacity:1;stroke-width:0.0240762" />
    <polygon
       transform="matrix(0.01956082,0,0,0.01991545,-1.0240765,2.9699108)"
       points="329.52,346.22 329.52,348.34 331.22,348.34 331.22,351.1 332.5,351.1 332.28,347.92 330.58,347.28 330.58,346.22 "
       id="polygon1340-0"
       style="opacity:0.9;fill:#000000;fill-opacity:1;stroke-width:0.160459" />
    <polygon
       transform="matrix(0.01956082,0,0,0.01991545,-1.0240765,2.9699108)"
       points="344.17,364.04 342.47,361.71 341.62,359.8 340.13,355.98 343.31,357.46 344.38,360.43 345.86,361.5 347.35,364.68 346.5,366.16 "
       id="polygon1342-6"
       style="opacity:0.9;fill:#000000;fill-opacity:1;stroke-width:0.160459" />
    <polygon
       transform="matrix(0.01956082,0,0,0.01991545,-1.0240765,2.9699108)"
       points="388.51,418.57 391.06,419 393.81,421.33 394.88,424.09 393.39,424.94 392.54,423.67 390.42,423.03 390.21,421.12 "
       id="polygon1344-2"
       style="opacity:0.9;fill:#000000;fill-opacity:1;stroke-width:0.160459" />
    <path
       d="m 8.8624329,7.5579032 h -0.045611 l -0.00831,-0.092767 0.024892,-0.017222 v -0.046369 h -0.145306 l -0.00414,-0.046363 0.020844,-0.013267 -0.033229,-0.013237 -0.024892,0.033076 -0.00819,0.038482 -0.041505,0.00852 v 0.021068 h -0.02906 v 0.054412 l -0.1162522,0.097207 -0.2324004,-0.00831 c -0.016673,0.038482 -0.058179,-0.00456 -0.058179,-0.00456 -0.00819,-0.025259 -0.066305,0 -0.066305,0 0,0.046484 -0.07887,-0.021071 -0.07887,-0.021071 L 7.8706106,7.4419756 c -0.082995,-0.076202 -0.2074988,0.021139 -0.2116245,0.042276 0.00411,0.05955 -0.095451,0.013247 -0.095451,0.013247 0,0 -0.082996,-0.025215 -0.09548,0.00852 -0.012447,0.034487 -0.066469,0.025348 -0.066469,0.025348 l -0.00831,0.017192 -0.041507,0.00841 -0.00819,0.025261 -0.049843,0.00852 0.1244817,-0.00446 c 0.033228,-0.00446 -0.012507,0.071822 -0.033169,0.067532 l -0.058052,0.00446 -0.020844,0.02107 h -0.053943 l -0.024892,0.034608 -0.078806,-0.00446 c 0,0 -0.045732,0.038482 -0.041505,0.050431 0.00414,0.013247 -0.00831,0.050491 -0.020784,0.050491 -0.012447,0 -0.037337,0.038482 -0.02906,0.050431 0.00831,0.013288 -0.024891,0.054457 -0.024891,0.054457 l -0.00825,0.042296 -0.024891,0.00841 v 0.1144045 l -0.049835,0.034667 v 0.050522 l -0.074764,0.08021 0.00831,0.067467 -0.062225,0.067532 0.00819,0.067512 -0.037336,0.013207 -0.00825,0.029354 -0.016617,0.088772 0.041507,0.00446 c 0.020663,-0.00852 0.016614,0.054426 0,0.063383 -0.016673,0.00852 -0.062319,0.025235 -0.037337,0.042295 0.024893,0.017222 -0.066433,0.013328 -0.066433,-0.013267 0,-0.025154 -0.049843,-0.046363 -0.062224,-0.038421 -0.01251,0.00841 -0.033232,-0.038482 -0.033232,-0.038482 -0.045613,-0.046363 -0.1867664,0.00446 -0.1867664,0.00446 l -0.020844,0.067512 c -0.045612,0.00852 -0.074637,0.084674 -0.074637,0.084674 -0.037337,0.013217 -0.066413,0.059496 -0.053948,0.071782 0.012447,0.013237 -0.020844,0.017222 -0.020844,0.017222 v 0.092727 l -0.020722,0.029353 0.00411,0.101379 c 0.024952,0 0.020844,0.046423 0.020844,0.046423 -0.04151,0.00446 -0.03329,0.05955 -0.03329,0.05955 l -0.087122,0.029354 -0.016614,0.025225 -0.1078935,-0.00446 -0.029059,0.029354 -0.02912,-0.029354 H 5.7454804 l -0.00819,-0.021069 -0.041502,-0.00852 -0.00419,-0.046363 -0.062224,0.00446 -0.012447,0.025246 -0.066451,0.00446 c 0.00414,0.042256 -0.066409,0.1056824 -0.074632,0.088943 -0.00837,-0.017222 -0.054011,-0.063494 -0.033228,-0.071802 0.020783,-0.00852 0.074764,-0.017252 0.074764,-0.017252 v -0.029264 l -0.1536332,-0.00446 -0.016554,0.025284 -0.062343,0.00436 v 0.067532 l -0.029,0.00841 c -0.020784,0.013156 0.00411,0.05955 0.00411,0.05955 0.029061,0.029293 -0.00411,0.07619 -0.00411,0.07619 -0.024952,0.025338 0.020665,0.071883 0.020665,0.071883 0.033228,0.00831 -0.020665,0.032865 -0.020665,0.032865 0.00819,0.042295 0.03317,0.054436 0.03317,0.054436 -0.024952,0.042276 0.016674,0.063363 0.016674,0.063363 l 0.00411,0.071883 0.029061,0.017243 v 0.046302 l 0.016615,0.029354 h 0.066409 l -0.00413,-0.105329 c -0.058118,-0.067532 0.049782,-0.084684 0.054011,-0.05961 0.00416,0.025318 0.049843,0.038547 0.049843,0.038547 0.00831,0.063454 0.078889,0.1013891 0.099583,0.038544 0.020784,-0.063525 0.037336,-0.025298 0.049843,0.00436 0.012447,0.029354 0.091229,0.1014397 0.091229,0.1014397 h 0.0623 l 0.00831,0.05955 c 0.070535,-0.0045 0.091229,0.0046 0.1202752,0.1013795 0.02912,0.09717 0.1079376,0.1225297 0.1079376,0.1225297 l 0.058118,-0.0043 c 0,-0.05035 0.058118,0.0083 0.058118,0.0346 0,0.02511 0.1120435,0.122454 0.1120435,0.122454 l 0.1120251,0.02527 0.1038866,0.08473 0.078789,-0.0083 h 0.033226 c 0.020722,-0.0719 0.1203564,0.0042 0.1285948,0.02933 0.00831,0.02534 0.074764,0.06756 0.082989,0.04634 0.00831,-0.0211 0.054011,-0.0081 0.062319,0.05441 0.00825,0.06358 0.037274,0.05046 0.037274,0.05046 l 0.2366245,-0.0043 0.082989,-0.0719 0.2117054,-0.0042 c 0.1078936,-0.0043 0.041507,-0.152193 0.020784,-0.152193 -0.037337,-0.02933 0.012386,-0.152135 0.012386,-0.152135 L 7.1899352,9.843347 c -0.070537,0 -0.00831,-0.1014702 -0.00831,-0.1014702 0.053948,-0.034487 -0.012509,-0.08875 -0.012509,-0.08875 0.00831,-0.050551 -0.02907,-0.1099421 -0.02907,-0.1099421 -0.074641,-0.050429 -0.053948,-0.1479528 -0.053948,-0.1479528 v -0.067187 c -0.062224,-0.059483 0.024892,-0.067531 0.024892,-0.067531 0.028998,-0.050369 -0.020783,-0.088713 -0.020783,-0.088713 l -0.00411,-0.054438 -0.066428,-0.00854 -0.00821,-0.1986271 -0.1494024,-0.2154502 c -0.02912,-0.00852 -0.00831,-0.059549 -0.00831,-0.059549 0.037336,-0.021139 -0.00831,-0.071761 -0.00831,-0.071761 l -0.00411,-0.092808 0.087119,-0.00852 0.020784,-0.034547 h 0.041514 l -0.00413,-0.1092078 c 0.020722,-0.054436 0.070516,-0.025328 0.070516,-0.025328 l 0.058118,0.00446 0.033229,-0.063424 0.00819,-0.050491 -0.045612,-0.00436 C 7.061166,8.1498433 7.0861168,8.0397574 7.0861168,8.0397574 7.1649857,7.9213568 7.2562323,7.9892666 7.2562323,7.9892666 l 0.058179,-0.00436 c 0.087119,0.059486 0.00819,0.1689773 0.00819,0.1689773 -0.016614,0.025338 -0.00819,0.1056552 -0.00819,0.1056552 l 0.020722,0.1351464 -0.053951,0.046484 c -0.045613,0.025338 -0.045613,0.084643 0.00419,0.09721 0.033169,0.00436 0.020722,0.084633 -0.02912,0.029293 -0.074642,0 0.041566,0.067512 0.00831,0.050367 0.074746,0.038547 0.058054,-0.034233 0.058054,-0.034233 l 0.09971,-0.08021 c 0.037337,-0.029293 0.1037863,0.063484 0.1037863,0.076245 0,0.013267 0.1659905,0.00436 0.1659905,0.00436 0.045612,0.029354 0.062225,0.1056649 0.062225,0.1056649 0.045733,-0.05961 0.1411324,-0.00456 0.070595,0.029354 0.066353,0.042256 0.066353,0.0802 0.066353,0.0802 0.054011,-0.017192 0.054011,0.025237 0.054011,0.038482 0,0.013247 0.016614,-0.063394 0.016614,-0.063394 -0.062271,-0.046425 0.08299,-0.063404 0.041508,0.021139 l -0.024952,0.038544 0.041505,0.034487 0.00411,0.097241 c 0.091342,-0.00852 0.066426,-0.1226182 0.066426,-0.1226182 l 0.041507,-0.00831 c 0,-0.038543 0.029,-0.017192 0.029,-0.017192 -0.028992,-0.1437329 0.066455,-0.1689898 0.066455,-0.1689898 0.053949,-0.013288 0.058054,-0.1268082 0.058054,-0.1268082 -0.037272,-0.017162 -0.016614,-0.076196 0.024892,-0.025154 C 8.3518521,8.5472162 8.2855141,8.395387 8.2855141,8.395387 L 8.2523451,8.366034 8.2067331,8.361574 8.2025431,8.315151 H 8.1279061 L 8.1153991,8.3747 8.0863371,8.38311 8.0780271,8.365908 8.0655801,8.412332 h -0.074687 l -0.00411,-0.050431 0.045612,-0.013247 0.016613,-0.025225 0.012447,-0.067532 h 0.054003 l 0.070539,-0.021066 c 0.00411,-0.071822 0.041505,-0.054436 0.041505,-0.054436 l 0.024891,0.02107 0.037336,0.029354 0.00416,0.025259 -0.024952,0.013267 -0.00411,0.034547 0.012447,0.046363 h 0.033169 C 8.3228901,8.282662 8.4101071,8.282662 8.4349876,8.324927 l 0.024892,-0.05955 c -0.058118,-0.029354 -0.00107,-0.076255 0.015495,-0.054426 0.016613,0.021139 0.054999,-0.054457 0.054999,-0.054457 0,0 0.029062,0.038481 0,-0.013257 -0.029062,-0.050491 0.020722,-0.076235 0.020722,-0.076235 -0.00825,-0.050431 0.054011,-0.042295 0.054011,-0.042295 l 0.00419,-0.067468 -0.058179,-0.00456 c -0.012386,0.059549 -0.062226,0.00852 -0.037276,-0.00436 0.024952,-0.013288 0.049782,-0.038544 0.049782,-0.038544 V 7.867477 l 0.024892,-0.00841 0.00411,-0.042276 h 0.062307 l 0.053948,-0.025225 0.012507,-0.021139 0.058053,-0.00446 0.082995,-0.076255 -0.00819,-0.033452 c -0.049843,0 0,-0.038482 0,-0.038482 l 0.00819,-0.063263 z"
       id="path1346-6"
       style="opacity:0.9;fill:#000000;fill-opacity:1;stroke-width:0.0240761" />
    <path
       d="m 7.1898369,8.3945003 -0.074728,-0.00841 0.00419,0.029293 h 0.020722 c 0.033169,0.05955 0.00416,0.2028133 0.00416,0.2028133 0,0 -0.049781,0.00436 -0.058118,-0.021068 -0.00819,-0.025215 -0.02906,0.054426 -0.012447,0.067532 0.016615,0.013156 0.074745,0 0.078864,0.046423 0.00411,0.046363 0.037337,-0.029354 0.037337,-0.029354 v -0.287393 z"
       id="path1348-6-1"
       style="opacity:0.9;fill:#000000;fill-opacity:1;stroke-width:0.0240761" />
    <polygon
       transform="matrix(0.01956082,0,0,0.01991545,-1.0240765,2.9699108)"
       points="421.4,288.71 418.21,290.84 416.09,289.57 416.09,294.66 419.49,299.11 420.76,296.14 421.19,294.23 419.7,293.6 419.91,290.42 421.19,290.2 "
       id="polygon1350-8"
       style="opacity:0.9;fill:#000000;fill-opacity:1;stroke-width:0.160459" />
    <polygon
       transform="matrix(0.01956082,0,0,0.01991545,-1.0240765,2.9699108)"
       points="420.13,301.87 419.91,303.57 421.61,303.78 421.61,301.66 "
       id="polygon1352-7"
       style="opacity:0.9;fill:#000000;fill-opacity:1;stroke-width:0.160459" />
    <polygon
       transform="matrix(0.01956082,0,0,0.01991545,-1.0240765,2.9699108)"
       points="417.9,312.69 417.9,314.18 419.7,313.97 419.7,312.48 "
       id="polygon1354-9"
       style="opacity:0.9;fill:#000000;fill-opacity:1;stroke-width:0.160459" />
    <path
       d="m 7.2345311,9.0928272 c 0.00977,0 0.017542,-0.00801 0.017542,-0.018003 0,-0.010049 -0.00783,-0.018136 -0.017542,-0.018136 -0.00977,0 -0.017612,0.00801 -0.017612,0.018136 0,0.00995 0.00789,0.018003 0.017612,0.018003 z"
       id="path1356-2"
       style="opacity:0.9;fill:#000000;fill-opacity:1;stroke-width:0.0240761" />
    <ellipse
       cx="7.2634382"
       cy="9.1637354"
       id="circle1358-0"
       style="opacity:0.9;fill:#000000;fill-opacity:1;stroke-width:0.0190021"
       rx="0.017604707"
       ry="0.017924119" />
    <ellipse
       cx="7.2644181"
       cy="8.6809378"
       id="circle1360-2"
       style="opacity:0.9;fill:#000000;fill-opacity:1;stroke-width:0.0190021"
       rx="0.017604707"
       ry="0.017924119" />
    <polygon
       transform="matrix(0.01956082,0,0,0.01991545,-1.0240765,2.9699108)"
       points="484,271.53 479.54,271.74 478.69,275.56 479.32,278.74 483.14,280.23 483.57,278.11 484.84,277.47 485.06,275.35 485.9,273.86 487.18,272.38 487.6,270.68 489.72,269.41 492.27,268.98 493.33,267.71 493.76,265.17 493.91,263.26 494.82,261.98 497.36,260.92 497.36,256.89 496.09,256.89 495.88,255.4 493.54,255.19 493.12,256.25 492.06,256.25 491.84,257.95 493.12,257.95 493.33,259.22 492.48,260.07 492.06,261.13 490.36,261.56 486.54,265.17 486.33,266.86 485.27,268.35 "
       id="polygon1362-3"
       style="opacity:0.9;fill:#000000;fill-opacity:1;stroke-width:0.160459" />
    <path
       d="m 8.7917738,8.3438986 v -0.059546 l -0.00831,-0.054457 -0.062155,-0.029293 -0.045615,0.042256 -0.00831,0.059549 v 0.038482 l -0.041506,0.00852 -0.00831,0.1141047 -0.03317,0.013287 0.00414,0.042295 -0.045612,0.013217 -0.045613,0.013267 -0.00831,0.054436 -0.033169,0.021069 -0.016735,0.050491 -0.020722,0.1225147 c 0,0 0.037397,0.071802 0.058119,0.038482 0.020784,-0.033076 0.053949,-0.038482 0.053949,-0.038482 l 0.012447,-0.029353 0.1120624,0.00446 c 0.00831,-0.046423 0.062271,-0.029293 0.062271,-0.00841 0,0.021139 0.041508,0.00446 0.041508,0.00446 l 0.029058,-0.046363 h 0.045612 l 0.00414,-0.050431 0.020784,-0.013247 V 8.578962 c 0.066423,-0.021063 0.058048,-0.084627 0.058048,-0.084627 l 0.016735,-0.02107 -0.00831,-0.029293 C 8.8915712,8.430644 8.9081262,8.401666 8.9289102,8.409364 8.9497542,8.417774 8.8998502,8.370882 8.8998502,8.370882 8.8749592,8.392021 8.8542362,8.345677 8.8542362,8.345677 h -0.062388 z"
       id="path1364-7"
       style="opacity:0.9;fill:#000000;fill-opacity:1;stroke-width:0.0240761" />
    <path
       d="m 8.8581885,8.8551259 c -0.00411,0.050431 -0.066432,0.067512 -0.066432,0.067512 l -0.045613,-0.013247 -0.024891,-0.021139 -0.00416,-0.05955 0.037336,-0.00436 0.00831,0.025318 0.095473,0.00436 z"
       id="path1366-7-5"
       style="opacity:0.9;fill:#000000;fill-opacity:1;stroke-width:0.0240761" />
    <path
       d="m 9.0823979,8.5848619 c 0.00892,0.037296 0.00819,-0.05961 0.024831,-0.054467 0.016614,0.00446 0.00419,-0.059497 0.00419,-0.059497 l -0.074725,0.054417 c 0.037336,0.00456 0.041446,0.042285 0.045673,0.05962 z"
       id="path1368-9"
       style="opacity:0.9;fill:#000000;fill-opacity:1;stroke-width:0.0240761" />
    <path
       d="m 9.3023652,8.3649451 c 0.016613,0.038548 0.012507,0.092838 0.074637,0.1352347 0.021035,0.014566 -0.012445,0.042297 -0.033227,0.029355 -0.020718,-0.013234 -0.07877,-0.1056877 -0.07877,-0.1056877 v -0.054457 c 0.012447,-0.034425 0.030181,-0.02057 0.037336,-0.00446 z"
       id="path1370-2"
       style="opacity:0.9;fill:#000000;fill-opacity:1;stroke-width:0.0240761" />
    <polygon
       transform="matrix(0.01956082,0,0,0.01991545,-1.0240765,2.9699108)"
       points="530.67,334.76 529.4,334.33 527.92,335.4 528.55,336.03 529.18,337.09 "
       id="polygon1372-2"
       style="opacity:0.9;fill:#000000;fill-opacity:1;stroke-width:0.160459" />
    <line
       x1="9.1984949"
       x2="9.1984949"
       y1="9.5820141"
       y2="9.6328745"
       id="line1374-8"
       style="opacity:0.9;fill:#000000;fill-opacity:1;stroke-width:0.0240761" />
    <polygon
       transform="matrix(0.01956082,0,0,0.01991545,-1.0240765,2.9699108)"
       points="554.31,326.8 552.62,327.85 553.29,328.93 554.99,327.87 "
       id="polygon1376-9"
       style="opacity:0.9;fill:#000000;fill-opacity:1;stroke-width:0.160459" />
    <path
       d="m 10.999932,10.401827 0.03741,0.01718 0.004,0.07182 c 0.04982,0.05039 0.211703,0.0083 0.211703,-0.0043 0,-0.01335 -0.0081,-0.156386 -0.0081,-0.156386 l -0.02077,-0.02119 -0.004,-0.105701 c 0.01656,-0.05441 -0.0789,-0.135214 -0.08716,-0.118282 -0.0081,0.01723 -0.06225,0.0042 -0.06225,0.02111 0,0.01719 -0.0332,0.1014 -0.01656,0.130969 0.01656,0.02939 -0.01247,0.02939 -0.01656,0.05959 -0.004,0.02939 -0.04567,0.08026 -0.03735,0.105724 z"
       id="path1378-5-7"
       style="opacity:0.9;fill:#000000;fill-opacity:1;stroke-width:0.0240761" />
    <path
       d="m 10.908544,10.232756 c -0.0077,0.03157 -0.03729,0.0504 -0.05386,0.03847 -0.01673,-0.01334 0.0206,0.0211 0.02903,0.03853 0.0081,0.01714 0.03319,0.01714 0.04152,0 0.008,-0.01733 0.004,-0.0544 0.01247,-0.07181 0.008,-0.01723 -0.02499,-0.02118 -0.02915,-0.0043 z"
       id="path1380-3"
       style="opacity:0.9;fill:#000000;fill-opacity:1;stroke-width:0.0240761" />
    <rect
       x="10.715539"
       y="9.4575338"
       width="0.029007617"
       height="0.080320559"
       id="rect1382-6"
       style="opacity:0.9;fill:#000000;fill-opacity:1;stroke-width:0.0240761" />
    <path
       d="m 11.145242,8.6439714 c -0.01813,-0.024384 0.083,-0.067512 0.09955,-0.017172 0.01656,0.050366 0,0.042276 -0.01656,0.038481 -0.01662,-0.00446 -0.05802,0.013176 -0.083,-0.021139 z"
       id="path1384-3-1"
       style="opacity:0.9;fill:#000000;fill-opacity:1;stroke-width:0.0240761" />
    <polygon
       transform="matrix(0.01956082,0,0,0.01991545,-1.0240765,2.9699108)"
       points="628.8,258.15 629.03,256.9 626.69,256.48 626.47,257.73 "
       id="polygon1386-2"
       style="opacity:0.9;fill:#000000;fill-opacity:1;stroke-width:0.160459" />
    <polygon
       transform="matrix(0.01956082,0,0,0.01991545,-1.0240765,2.9699108)"
       points="619.17,259.55 617.79,258.69 617.12,259.76 618.82,260.82 619.14,261.02 619.46,260.84 620.74,260.13 620.9,260.52 622.08,260.05 621.65,258.99 621.38,258.32 620.75,258.67 "
       id="polygon1388-9"
       style="opacity:0.9;fill:#000000;fill-opacity:1;stroke-width:0.160459" />
    <path
       d="m 11.273825,7.1225741 h -0.06227 c 0,0 0.02075,0.00841 -0.03729,-0.046423 -0.05814,-0.054467 -0.09545,0.013257 -0.09545,0.013257 l -0.06645,0.00841 v 0.067512 l -0.03326,0.013217 0.004,0.042276 0.04561,-0.00446 c 0,0 0,0.050431 0.01241,0.029354 0.01247,-0.021139 0.116249,0.00436 0.10791,0.054416 -0.0033,0.020824 0.103815,0.076176 0.09133,0.1436405 0.05392,0.00852 0.04152,0.063474 0.04152,0.063474 l 0.07057,0.00841 0.02073,-0.042245 0.02069,0.00446 v -0.025245 l -0.04573,-0.013237 -0.008,-0.1352266 -0.02909,-0.021139 0.0081,-0.034213 -0.03321,-0.013227 0.01656,-0.054426 -0.02909,-0.059482 z"
       id="path1390-5-3"
       style="opacity:0.9;fill:#000000;fill-opacity:1;stroke-width:0.0240761" />
    <path
       d="m 11.456347,7.5536524 -0.03318,-0.00436 -0.07484,0.013237 -0.04146,0.0802 c 0,0 0.02067,0.013237 0.03729,0.042256 0.01656,0.029354 0.02493,0.2027958 -0.02491,0.2324126 -0.04976,0.029354 0.004,0.013177 0.004,0.013177 l -0.0081,0.092828 c 0.01247,0.042256 0.03319,0.021139 0.04561,0 0.01253,-0.021006 0.02505,-0.025247 0.04164,-0.046363 0.01656,-0.021139 0.04146,-0.059549 0.04561,-0.088843 0.004,-0.029293 0.02493,-0.076196 0.01241,-0.088749 -0.01241,-0.013237 0.01247,-0.071782 0.01247,-0.071782 0,0 0.01656,-0.034293 0,-0.067532 -0.01656,-0.034487 0.004,-0.071822 0.01656,-0.088853 l -0.03317,-0.017193 z"
       id="path1392-1"
       style="opacity:0.9;fill:#000000;fill-opacity:1;stroke-width:0.0240761" />
    <rect
       transform="matrix(0.12447824,-0.99222234,0.99164916,0.12896487,0,0)"
       x="-6.177659"
       y="12.37888"
       width="0.034085657"
       height="0.024965608"
       id="rect1394-9"
       style="opacity:0.9;fill:#000000;fill-opacity:1;stroke-width:0.0240761" />
    <rect
       transform="matrix(-0.89086345,-0.45427118,0.44139524,-0.89731279,0,0)"
       x="-13.786808"
       y="-1.7607006"
       width="0.024932297"
       height="0.028238617"
       id="rect1396-4"
       style="opacity:0.9;fill:#000000;fill-opacity:1;stroke-width:0.0240762" />
    <path
       d="m 11.468827,7.5073046 -0.01662,-0.038545 c 0,0 0,-0.032976 0.0081,-0.050491 0.0081,-0.017212 -0.01656,-0.034425 -0.02903,-0.038482 -0.01241,-0.00446 -0.0081,-0.038481 -0.01241,-0.054436 -0.004,-0.017192 -0.0332,-0.029344 -0.0332,-0.029344 0,0 -0.0082,-0.063424 -0.0082,-0.076225 0,-0.013247 -0.03736,-0.029343 -0.02493,-0.042276 0.01247,-0.013217 0.02077,-0.029293 0.03326,-0.038482 0.01241,-0.00841 -0.01247,-0.067512 0.008,-0.054447 0.02072,0.013277 0.02072,0.034608 0.02915,0.050491 0.0081,0.017222 -0.004,0.076255 0.01656,0.088843 0.02064,0.013187 -0.004,0.054416 0.02909,0.054416 0.03321,0 0.01247,0.08024 0.01247,0.08024 0,0 -0.0081,0.059495 0.01229,0.063414 0.02076,0.00446 0.0081,0.1056314 0.0081,0.1056314 z"
       id="path1398-7"
       style="opacity:0.9;fill:#000000;fill-opacity:1;stroke-width:0.0240761" />
    <path
       d="m 11.199176,6.8225085 c 0.01235,0.017212 0.03734,0.029293 0.03734,0.046424 0,0.017222 -0.0081,0.029293 0.01662,0.034343 0.02483,0.00446 0.04152,-0.00446 0.04976,0.017202 0.0081,0.021068 0.0081,0.054416 0.004,0.071802 -0.004,0.017182 0.004,0.042256 0.02486,0.042256 0.02073,0 0.02492,0.00446 0.02492,0.017222 0,0.013156 0.0249,-0.046424 0.0249,-0.046424 -0.02082,-0.017172 -0.03742,-0.054457 -0.03742,-0.054457 0,0 -0.02069,-0.05957 -0.02069,-0.067502 0,-0.00841 -0.02909,-0.017172 -0.04146,-0.021139 -0.01247,-0.00446 -0.03331,-0.042235 -0.03331,-0.042235 l -0.04976,0.00446 z"
       id="path1400-8"
       style="opacity:0.9;fill:#000000;fill-opacity:1;stroke-width:0.0240761" />
    <path
       d="m 11.240614,6.7846809 c -0.01247,-0.017252 -0.02498,-0.029354 -0.04152,-0.038481 -0.0165,-0.00852 -0.02903,-0.017202 -0.04567,-0.017202 -0.01656,0 -0.03319,-0.017192 -0.02493,-0.038481 0.0081,-0.021139 -0.01247,-0.029354 -0.01247,-0.046424 0,-0.017202 0.01247,-0.017202 0.03326,-0.00446 0.02078,0.013247 0.01656,0.017162 0.03332,0.038544 0.0165,0.021069 0.02485,0.042256 0.0414,0.038482 0.01662,-0.00446 0.02915,0.038482 0.04573,0.025261 0.01656,-0.013237 0.01247,0.029354 0.01247,0.029354 l -0.04152,0.013328 z"
       id="path1402-6-4"
       style="opacity:0.9;fill:#000000;fill-opacity:1;stroke-width:0.0240761" />
    <path
       d="m 10.754994,7.2620949 c 0.02289,0.023308 -0.124487,0.017152 -0.124487,0 0,-0.017242 0.01247,-0.07621 0.04976,-0.063484 0.03736,0.013338 0.04146,-0.076179 0.04146,-0.076179 0,0 -0.0332,0.00436 -0.004,-0.013227 0.02909,-0.017212 0,-0.042286 -0.01247,-0.054416 -0.01241,-0.013308 -0.02491,-0.034547 -0.02491,-0.034547 h 0.05814 c 0.02493,-0.017212 0.03319,-0.097201 0.03319,-0.097201 0.04976,0.017202 0.0747,-0.017232 0.0747,-0.017232 0,0 0.0082,0.025247 0.02505,0.046423 0.01651,0.021073 -0.04158,0.029293 -0.02086,0.042256 0.02086,0.013247 0.02909,0.050431 0.02086,0.063353 -0.0081,0.013227 -0.05404,0.00446 -0.05404,-0.013156 0,-0.017172 -0.01656,0.021139 0,0.042286 0.01656,0.021139 -0.0207,0.050431 -0.02909,0.050431 -0.0081,0 -0.06213,0.00852 -0.0165,0.034548 0.04561,0.025259 0.0955,0.013338 0.0955,0.013338 0,0 0.03736,-0.00456 0.04976,0.017182 0.01246,0.021068 -0.004,0.025236 -0.02492,0.025236 -0.02067,0 -0.120397,-0.00852 -0.120397,-0.00852 0,0 -0.02909,0.029354 -0.01656,0.042266 z"
       id="path1404-5"
       style="opacity:0.9;fill:#000000;fill-opacity:1;stroke-width:0.0240761" />
    <path
       d="m 10.489341,7.3001622 c 0.02086,-0.00446 0.07057,-0.00852 0.07887,0.00446 0.0081,0.013257 -0.02909,0.029293 -0.02909,0.029293 l -0.04982,0.00852 c -0.01656,-0.021139 -0.02067,-0.038482 0,-0.042256 z"
       id="path1406-0"
       style="opacity:0.9;fill:#000000;fill-opacity:1;stroke-width:0.0240761" />
    <path
       d="m 11.024901,6.9452328 c 0.0332,-0.017142 0.103707,-0.017142 0.09955,-0.042256 -0.004,-0.025236 0.04152,-0.034353 0.04152,-0.034353 l 0.01241,0.050431 0.03735,0.025235 0.004,0.046424 c 0,0 0.01241,-0.00841 -0.03319,0.00446 -0.04574,0.013247 -0.01656,0.034212 -0.01656,0.034212 l -0.09962,0.00446 -0.01241,-0.042266 -0.03319,-0.046363 z"
       id="path1408-2-3"
       style="opacity:0.9;fill:#000000;fill-opacity:1;stroke-width:0.0240761" />
    <path
       d="m 10.862856,6.7170636 c 0.0253,0 -0.008,0.09718 0.05802,0.088843 0.06646,-0.00852 0.0041,0.029354 0.05398,0.034425 0.04982,0.00446 0.03734,-0.038482 0.05392,-0.067468 0.01662,-0.029354 0.0081,-0.046423 -0.02068,-0.054436 -0.02915,-0.00841 -0.02915,-0.00841 -0.03736,-0.042286 -0.0081,-0.034548 -0.04152,-0.042265 -0.04152,-0.042265 l -0.01246,-0.050431 -0.05392,0.034547 -0.05392,0.071802 c 0,0.054499 0.02909,0.029354 0.05392,0.029354 z"
       id="path1410-6"
       style="opacity:0.9;fill:#000000;fill-opacity:1;stroke-width:0.0240761" />
    <rect
       transform="matrix(0.44135503,-0.89733257,0.89088381,0.45423125,0,0)"
       x="-1.3182446"
       y="12.969728"
       width="0.028261168"
       height="0.0250517"
       id="rect1412-1"
       style="opacity:0.9;fill:#000000;fill-opacity:1;stroke-width:0.0240762" />
    <rect
       x="10.929266"
       y="7.0338941"
       width="0.024920378"
       height="0.029573841"
       id="rect1414-0"
       style="opacity:0.9;fill:#000000;fill-opacity:1;stroke-width:0.0240761" />
    <rect
       transform="matrix(0.1094335,0.99399412,-0.99354975,0.11339707,0,0)"
       x="7.6709027"
       y="-10.176404"
       width="0.038231529"
       height="0.024906917"
       id="rect1416-6"
       style="opacity:0.9;fill:#000000;fill-opacity:1;stroke-width:0.0240763" />
    <rect
       x="10.879574"
       y="6.8648286"
       width="0.024920378"
       height="0.021170331"
       id="rect1418-3"
       style="opacity:0.9;fill:#000000;fill-opacity:1;stroke-width:0.0240761" />
    <rect
       transform="matrix(-0.09636522,-0.99534604,0.99500143,-0.09986067,0,0)"
       x="-7.9100747"
       y="10.102475"
       width="0.025370175"
       height="0.041712444"
       id="rect1420-2"
       style="opacity:0.9;fill:#000000;fill-opacity:1;stroke-width:0.024076" />
    <rect
       transform="matrix(-0.91615967,-0.40081349,0.38882306,-0.92131245,0,0)"
       x="-12.475911"
       y="-2.4642036"
       width="0.024893958"
       height="0.032095764"
       id="rect1422-0"
       style="opacity:0.9;fill:#000000;fill-opacity:1;stroke-width:0.0240766" />
    <rect
       transform="matrix(-0.09655958,-0.99532721,0.99498118,-0.10006221,0,0)"
       x="-8.1926632"
       y="9.5986185"
       width="0.025310051"
       height="0.041772362"
       id="rect1424-6"
       style="opacity:0.9;fill:#000000;fill-opacity:1;stroke-width:0.024076" />
    <polygon
       transform="matrix(0.01956082,0,0,0.01991545,-1.0240765,2.9699108)"
       points="539.62,213.18 544.28,212.97 544.22,211.7 539.56,211.91 "
       id="polygon1426-1"
       style="opacity:0.9;fill:#000000;fill-opacity:1;stroke-width:0.160459" />
    <rect
       transform="matrix(-0.21263075,-0.97713262,0.97548907,-0.2200479,0,0)"
       x="-9.1296406"
       y="7.7169437"
       width="0.038880926"
       height="0.024960689"
       id="rect1428-5"
       style="opacity:0.9;fill:#000000;fill-opacity:1;stroke-width:0.0240764" />
    <rect
       transform="matrix(-0.31102082,-0.9504031,0.94699091,-0.32126037,0,0)"
       x="-9.9016771"
       y="6.7286067"
       width="0.025307942"
       height="0.013129368"
       id="rect1430-5"
       style="opacity:0.9;fill:#000000;fill-opacity:1;stroke-width:0.0240759" />
    <path
       d="m 9.6591566,7.1776839 -0.00413,0.029354 0.045614,0.00446 c 0,0 0.02071,0.017202 0.02071,0.029293 0,0.013247 0.02911,0.025261 0.04575,0.025261 0.0166,0 0.06222,-0.034487 0.06222,-0.034487 0,0 0.02077,-0.05955 0.0041,-0.054416 -0.01665,0.00446 -0.04984,0.029354 -0.05394,0.00446 -0.0041,-0.025225 -0.05395,-0.013287 -0.05395,-0.013287 l -0.066429,0.00852 z"
       id="path1432-9-4"
       style="opacity:0.9;fill:#000000;fill-opacity:1;stroke-width:0.0240761" />
    <path
       d="m 9.866639,7.1310974 c 0,0.013166 -0.0081,0.029293 0.01658,0.034486 0.02504,0.00436 0.07069,-0.017202 0.07477,0.00841 0.0041,0.025235 0.0041,0.042305 0.03736,0.054457 0.03318,0.013277 0.05398,0.017254 0.07888,0.017254 0.02486,0 0.0789,-0.00852 0.0789,-0.00852 0,0 0.05876,0.00922 0.07057,0.021139 0.04561,0.046363 0.07471,0.059486 0.08711,0.038482 0.01241,-0.021139 -0.004,-0.067492 -0.0081,-0.084643 -0.0041,-0.017255 -0.06227,-0.097241 -0.08306,-0.080241 -0.02068,0.017172 -0.02491,0 -0.06223,0.013247 -0.03735,0.013247 -0.116234,0.00446 -0.120338,-0.013247 -0.004,-0.017212 -0.06223,-0.025235 -0.06223,-0.042256 0,-0.017232 -0.04146,-0.038482 -0.03735,-0.013227 0.004,0.025185 -0.02908,0.038482 -0.03747,0.029354 -0.0081,-0.00841 -0.03318,0.025215 -0.03318,0.025215 z"
       id="path1434-7"
       style="opacity:0.9;fill:#000000;fill-opacity:1;stroke-width:0.0240761" />
    <path
       d="m 10.821415,6.5900678 0.02915,-0.092717 c -0.04146,-0.00852 -0.03326,-0.054467 -0.03326,-0.054467 -0.004,-0.038543 -0.06219,-0.08021 -0.083,-0.067512 -0.0207,0.013176 -0.01247,-0.088853 -0.01247,-0.088853 0,0 0.03742,-0.02525 0.05398,-0.013156 0.01656,0.013156 -0.141088,-0.2112794 -0.174321,-0.190211 -0.0332,0.021139 -0.107836,-0.021139 -0.103711,-0.05955 0.004,-0.038482 -0.149424,-0.1647672 -0.149424,-0.1647672 0,0 -0.04982,-0.034547 -0.05808,-0.00841 -0.0082,0.025247 -0.02491,0.042265 0,0.054406 0.02493,0.013328 0.02071,-0.021071 0.0497,0.00841 0.02909,0.029354 0.08307,0.067532 0.06228,0.092808 -0.02078,0.025328 -0.04567,0.034354 -0.04567,0.034354 l 0.02915,0.034412 h 0.0456 l 0.0082,0.071762 c 0,0 0.04976,0.025338 0.06223,0.054436 0.01241,0.029293 0.01241,0.046424 0,0.063434 -0.01247,0.017162 -0.03729,0.046363 -0.0332,0.076199 0.004,0.029354 0.03735,0.042305 0.03735,0.042305 l 0.03318,0.00446 0.02499,0.013328 v 0.054456 c 0.03319,-0.00852 0.08709,0.038422 0.083,0.067468 -0.004,0.029354 0.008,0.013227 0.0497,0.042256 0.04158,0.029354 0.02915,0.034548 0.05814,0.054426 0.02909,0.021006 0.05398,0.00841 0.06639,-0.029415 z"
       id="path1436-6"
       style="opacity:0.9;fill:#000000;fill-opacity:1;stroke-width:0.0240761" />
    <path
       d="m 10.136544,6.0154625 c -0.004,-0.017222 -0.01247,-0.076265 0.0124,-0.071862 0.02491,0.00456 0.0081,0 0.03734,0.013328 0.0291,0.013328 0.0332,-0.021067 0.0332,-0.021067 h 0.04567 l 0.05801,0.046363 -0.0081,0.038544 -0.04152,0.00436 c -0.02071,-0.034608 -0.06223,-0.021072 -0.05392,0.00852 0.0081,0.029354 -0.0207,0.084654 -0.03729,0.088792 -0.01656,0.00446 -0.07071,0.00446 -0.06648,-0.02107 0.004,-0.025263 0.02073,-0.084633 0.02073,-0.084633 z"
       id="path1438-1-5"
       style="opacity:0.9;fill:#000000;fill-opacity:1;stroke-width:0.0240761" />
    <path
       d="M 10.103339,5.901242 V 5.867976 c 0,0 -0.0041,-0.034424 -0.02493,-0.034424 -0.02063,0 -0.05801,-0.025225 -0.04982,-0.042244 0.0081,-0.017243 -0.07057,-0.033331 -0.07057,-0.033331 0,0 -0.07056,-0.067512 -0.04561,-0.059498 0.02492,0.00841 0.01248,-0.029354 0.01248,-0.029354 0,0 -0.04983,0.00841 -0.06227,0.00446 -0.01249,-0.00446 -0.0082,-0.042295 -0.0082,-0.042295 0,0 -0.04971,-0.013237 -0.04971,0 0,0.013257 0.01659,0.013257 0.02483,0.038481 0.0083,0.025205 0.0041,0.067532 0.04163,0.076223 0.03735,0.00852 0.04561,0.017222 0.04983,0.034487 0.004,0.017212 0.04976,0.021139 0.04976,0.021139 l 0.03325,0.017182 0.09953,0.084674 z"
       id="path1440-6"
       style="opacity:0.9;fill:#000000;fill-opacity:1;stroke-width:0.0240761" />
    <polygon
       transform="matrix(0.01956082,0,0,0.01991545,-1.0240765,2.9699108)"
       points="543.62,123.43 543.62,125.34 545.95,125.55 545.32,123.85 "
       id="polygon1442-9"
       style="opacity:0.9;fill:#000000;fill-opacity:1;stroke-width:0.160459" />
    <path
       d="m 9.6426774,5.2928433 c -0.043372,-0.0326 0.058056,0.025318 0.058056,0.025318 0.03317,0 0.05395,0.025225 0.05395,0.038542 0,0.013267 0.04567,0.00841 0.04567,0.00841 l 0.0042,-0.029354 -0.03329,-0.042285 -0.029,-0.021006 c 0,0 -0.04562,-0.00446 -0.04562,-0.017202 -2e-5,-0.013166 -0.037398,0.050431 -0.053951,0.038482 z"
       id="path1444-2-3"
       style="opacity:0.9;fill:#000000;fill-opacity:1;stroke-width:0.0240761" />
    <path
       d="m 10.406198,5.3181391 c -0.01211,0.037421 -0.01656,0.088853 -0.03736,0.088853 -0.0207,0 -0.01241,0.05452 -0.01241,0.05452 0,0 0.05404,0 0.07068,0.00436 0.0165,0.00436 0.0165,0.046364 0.0165,0.046364 0.06231,-0.00436 0.08722,0.080241 0.07888,0.1014196 -0.0082,0.021068 0.02493,0.021068 0.02493,0.021068 0,0 0,0.067532 -0.0081,0.084644 -0.008,0.017212 0.05398,0.029354 0.07062,0.054446 0.01656,0.025328 -0.0081,0.1098854 -0.02066,0.1141205 -0.0124,0.00446 0.0332,0.017212 0.02909,0.038482 -0.004,0.021139 0.01241,0 0.01656,0.034548 0.004,0.032935 0.01247,0.1056127 0.01247,0.1056127 l 0.05801,0.00446 c 0.0081,-0.054467 0.115345,-0.057653 0.132837,-0.050491 0.0706,0.025215 0.124581,0.1352077 0.124581,0.160532 0,0.025195 -0.04573,0.029343 -0.04573,0.029343 l 0.0081,0.1225263 c 0.07057,0.021139 0.128634,0.1226282 0.120359,0.1394823 -0.0081,0.017202 0.0497,0.013308 0.0497,0.013308 0.0081,-0.076265 0.0789,-0.050491 0.083,-0.025308 0.0041,0.025308 0.01656,0.08021 0.01656,0.08021 l 0.02077,0.038422 0.02909,0.029343 0.04561,-0.00446 0.01247,0.025328 0.05392,0.00852 c 0,0 0.04573,0.050366 0.04982,0.063383 0.004,0.013156 0.06649,0.00841 0.083,0.013156 0.01656,0.00446 0.04152,0.017192 0.04561,0.038482 0.004,0.021139 0.02915,0.054446 0.02915,0.054446 0,0 0.04976,0.013298 0.05392,0.029354 0.004,0.017172 0.02493,0.054426 0.02493,0.054426 l 0.04146,0.034424 0.004,0.038545 0.04561,0.00446 0.01247,0.050364 0.07467,-0.00436 0.04158,-0.029354 c 0.05392,-0.029293 0.09129,-0.067512 0.09544,-0.084674 0.004,-0.017162 0.0124,-0.08016 0.05392,-0.067468 0.04146,0.013237 0.01241,-0.092838 0.01241,-0.092838 0,0 -0.05808,-0.042285 -0.05398,-0.063454 0.004,-0.02107 -0.05801,-0.063353 -0.05392,-0.08018 0.004,-0.017202 -0.05392,-0.050431 -0.04982,-0.067492 0.004,-0.017212 -0.0291,-0.063474 -0.0291,-0.063474 l -0.06228,-0.059487 -0.0081,-0.038544 -0.04976,-0.00436 -0.09955,-0.122567 0.004,-0.033016 -0.02909,-0.00446 v -0.046343 l -0.02903,-0.017232 -0.04573,-0.00446 -0.09125,-0.1013993 -0.0081,-0.046423 h -0.0456 l 0.0081,-0.088843 c 0.02909,-0.038479 0.01242,-0.109882 0.01242,-0.109882 0,0 -0.05814,0.029354 -0.08711,0.017192 -0.02915,-0.013217 0.01235,-0.042255 0.01235,-0.042255 v -0.034497 l -0.02492,-0.025235 c 0,0 -0.07066,0.00852 -0.07474,-0.00436 -0.004,-0.013257 -0.01656,-0.067532 -0.01656,-0.067532 l -0.004,-0.071822 -0.02904,-0.013177 -0.0041,-0.025296 -0.04561,0.00446 v -0.050431 l -0.02499,-0.00841 -0.02492,-0.013267 -0.004,-0.050493 -0.09129,-0.00436 -0.02909,-0.042234 -0.03319,-0.050492 -0.103766,-0.00841 -0.02491,-0.025247 -0.04152,-0.00852 -0.0291,-0.013247 -0.01241,0.021139 -0.0789,0.00436 -0.004,0.025235 c -0.04152,0.021139 -0.207456,0.00446 -0.21168,0.017142 z"
       id="path1446-7"
       style="opacity:0.9;fill:#000000;fill-opacity:1;stroke-width:0.0240761" />
    <path
       d="m 10.842133,5.2084237 c -0.0064,-0.032762 0.08308,-0.063444 0.103791,-0.038543 0.02078,0.025205 0.07888,0.029404 0.08717,0.1564519 0.0028,0.045277 -0.07474,-0.046423 -0.07474,-0.046423 l -0.06231,-0.021139 c -0.0332,-0.00852 -0.04982,-0.029354 -0.05392,-0.050491 z"
       id="path1448-4"
       style="opacity:0.9;fill:#000000;fill-opacity:1;stroke-width:0.0240761" />
    <rect
       transform="matrix(-0.91062478,-0.4132342,0.40101386,-0.91607199,0,0)"
       x="-10.927339"
       y="-0.81271714"
       width="0.024917696"
       height="0.041522756"
       id="rect1450-5"
       style="opacity:0.9;fill:#000000;fill-opacity:1;stroke-width:0.0240763" />
    <path
       d="m 9.4102257,4.8449783 -0.054071,-0.054417 v -0.046485 l -0.016615,-0.017222 -0.016614,-0.059497 -0.053949,-0.017162 -0.053949,0.02107 -0.058118,0.038482 -0.062222,0.00852 -0.033229,0.038482 0.1328383,0.013217 0.024892,0.042305 0.09556,0.00841 0.062155,0.063383 c 0.05407,0.017192 0.066469,-0.00841 0.03329,-0.038482 z"
       id="path1452-2"
       style="opacity:0.9;fill:#000000;fill-opacity:1;stroke-width:0.0240761" />
    <path
       d="m 9.4019886,4.637843 c -0.0091,-0.03761 -0.062307,0.046363 -0.00819,0.063343 0.053948,0.017345 0.1078184,0 0.1078184,0 L 9.514123,4.67594 9.7215843,4.6804 c 0.01673,-0.017277 0.02488,-0.042256 0.02488,-0.042256 0,0 0.04984,-0.017202 0.07055,-0.00852 0.02078,0.00852 0.0041,-0.059485 -0.01659,-0.050431 -0.02072,0.00841 -0.06223,0.00446 -0.06223,0.00446 h -0.074748 c -0.00411,-0.029293 -0.070543,-0.017265 -0.074684,0 -0.00419,0.017162 -0.029,0.021071 -0.029,0.021071 l -0.095472,0.00852 c -0.00831,0.025328 -0.058054,0.042276 -0.062289,0.025328 z"
       id="path1454-5"
       style="opacity:0.9;fill:#000000;fill-opacity:1;stroke-width:0.0240761" />
    <path
       d="m 8.9910172,5.3509575 c 0.063831,0.020344 0.087119,0.00557 0.091354,-0.012131 0.00411,-0.017243 0.00819,-0.021139 0.03317,-0.025225 0.024892,-0.00446 -0.00416,-0.054346 -0.02906,-0.050492 -0.024953,0.00446 -0.049843,-0.00841 -0.05395,-0.029354 -0.00424,-0.021071 -0.045733,-0.076225 -0.049843,-0.034487 -0.00414,0.042285 -0.029059,0.042285 -0.024892,0.071802 0.00419,0.029293 0.016673,0.073769 0.033229,0.079308 z"
       id="path1456-7-4"
       style="opacity:0.9;fill:#000000;fill-opacity:1;stroke-width:0.0240761" />
    <path
       d="m 8.5138811,5.3985329 c -0.00301,-0.015255 0.082997,-0.017202 0.095474,-0.00446 0.012507,0.013328 0.00411,0.034548 0.041509,0.034548 0.037275,0 0.020722,0.025297 0.016613,0.038546 -0.00411,0.013237 -0.045612,0.00841 -0.049843,-0.00436 -0.00411,-0.013298 -0.066412,-0.017254 -0.066412,-0.017254 0,0 -0.033169,-0.025328 -0.037273,-0.046364 z"
       id="path1458-7"
       style="opacity:0.9;fill:#000000;fill-opacity:1;stroke-width:0.0240761" />
    <polygon
       transform="matrix(0.01956082,0,0,0.01991545,-1.0240765,2.9699108)"
       points="557.01,76.721 556.11,77.62 557.59,79.105 558,79.51 558.44,79.154 560.57,77.455 559.77,76.462 558.09,77.802 "
       id="polygon1460-4"
       style="opacity:0.9;fill:#000000;fill-opacity:1;stroke-width:0.160459" />
    <polygon
       transform="matrix(0.01956082,0,0,0.01991545,-1.0240765,2.9699108)"
       points="546.04,72.832 547.74,73.89 548.07,74.105 548.41,73.89 550.75,72.403 550.07,71.33 548.07,72.599 546.71,71.752 "
       id="polygon1462-4"
       style="opacity:0.9;fill:#000000;fill-opacity:1;stroke-width:0.160459" />
    <polygon
       transform="matrix(0.01956082,0,0,0.01991545,-1.0240765,2.9699108)"
       points="538.8,116 538.67,117.27 540.49,117.45 541.81,119.52 542.88,118.84 541.4,116.51 541.23,116.25 540.92,116.22 "
       id="polygon1464-3"
       style="opacity:0.9;fill:#000000;fill-opacity:1;stroke-width:0.160459" />
    <path
       d="m 8.1900487,6.463322 0.00424,0.046423 h 0.062155 c 0.024892,0 -0.020722,-0.029354 -0.020722,-0.029354 0,0 -0.049843,0.00446 -0.045733,-0.017232 z"
       id="path1466-0"
       style="opacity:0.9;fill:#000000;fill-opacity:1;stroke-width:0.0240761" />
    <rect
       transform="matrix(0.63169514,-0.7752169,0.76392969,0.64529948,0,0)"
       x="0.39755929"
       y="10.495756"
       width="0.025188452"
       height="0.032614037"
       id="rect1468-7"
       style="opacity:0.9;fill:#000000;fill-opacity:1;stroke-width:0.0240768" />
    <rect
       transform="matrix(0.70132395,-0.7128427,0.70011303,0.71403203,0,0)"
       x="1.3922081"
       y="9.3364372"
       width="0.025145805"
       height="0.035529394"
       id="rect1470-8"
       style="opacity:0.9;fill:#000000;fill-opacity:1;stroke-width:0.0240765" />
    <polygon
       transform="matrix(0.01956082,0,0,0.01991545,-1.0240765,2.9699108)"
       points="495.38,408.96 496.71,409.62 496.27,410.06 497.18,410.96 498.24,409.9 498.86,409.28 498.07,408.88 495.95,407.82 "
       id="polygon1472-6"
       style="opacity:0.9;fill:#000000;fill-opacity:1;stroke-width:0.160459" />
    <polygon
       transform="matrix(0.01956082,0,0,0.01991545,-1.0240765,2.9699108)"
       points="479.55,393.68 478.92,394.21 479.59,394.69 481.08,395.75 481.82,394.72 481,394.13 481.64,393.6 480.83,392.62 "
       id="polygon1474-8"
       style="opacity:0.9;fill:#000000;fill-opacity:1;stroke-width:0.160459" />
    <path
       d="m 11.483557,10.007071 c -0.0053,-0.02154 -0.02964,-0.02984 -0.03247,-0.03072 l -0.0077,0.02387 v -1.7e-4 c 0.0019,8.29e-4 0.0047,0.0022 0.0075,0.0042 l 0.0049,0.02192 c -0.0019,0.0028 -0.0038,0.0056 -0.0053,0.0072 l 0.01831,0.01739 c 0.01332,-0.0152 0.01825,-0.02908 0.01476,-0.04327 z"
       id="path1476-8"
       style="opacity:0.9;fill:#000000;fill-opacity:1;stroke-width:0.0240761" />
    <polygon
       transform="matrix(0.01956082,0,0,0.01991545,-1.0240765,2.9699108)"
       points="639.47,347.28 641.54,347.6 641.38,349.34 639.31,349.19 "
       id="polygon1478-4"
       style="opacity:0.9;fill:#000000;fill-opacity:1;stroke-width:0.160459" />
    <path
       d="m 12.483771,9.5977956 c 0.01777,-0.010711 0.04049,-0.031348 0.03734,0.01626 -0.003,0.047428 -0.02186,0.03124 -0.03734,0.047428 -0.01553,0.01626 -0.02493,-0.047428 0,-0.063424 z"
       id="path1480-0-3"
       style="opacity:0.9;fill:#000000;fill-opacity:1;stroke-width:0.0240761" />
    <path
       d="m 12.694993,9.4184473 c -2.74e-4,-8.274e-4 -5.44e-4,-0.00395 -8.24e-4,-0.0063 -5.43e-4,-0.007 -0.0013,-0.016937 -0.0062,-0.026384 l -0.02229,0.01194 c 0.0027,0.00599 0.0032,0.012131 0.0037,0.017507 5.5e-4,0.00741 0.0013,0.01624 0.0083,0.021199 0.0043,0.00365 0.0098,0.00456 0.01675,0.00325 l -0.0046,-0.024323 c 0.0019,2.739e-4 0.0043,0.00214 0.0048,0.00406 z"
       id="path1482-1"
       style="opacity:0.9;fill:#000000;fill-opacity:1;stroke-width:0.0240761" />
    <path
       d="m 12.639573,9.4392394 c 0.0062,0.0256 0.01553,0.050742 0.01595,0.051597 l 0.02329,-0.00892 c -1.74e-4,-2.221e-4 -0.009,-0.024819 -0.01516,-0.049101 z"
       id="path1484-4"
       style="opacity:0.9;fill:#000000;fill-opacity:1;stroke-width:0.0240761" />
    <path
       d="m 12.548933,9.5389246 -0.02486,-0.00264 c -0.0019,0.020154 0.0027,0.044679 0.02241,0.04833 l 0.0047,-0.024638 c 1.73e-4,0 2.72e-4,1.476e-4 5.5e-4,1.476e-4 -0.0019,-0.00214 -0.0037,-0.012507 -0.0029,-0.02132 z"
       id="path1486-9-9"
       style="opacity:0.9;fill:#000000;fill-opacity:1;stroke-width:0.0240761" />
    <path
       d="m 12.439822,9.0347161 c -0.0013,-0.00811 -0.006,-0.014819 -0.01368,-0.017882 -0.01843,-0.00811 -0.04946,0.00557 -0.06468,0.016016 l 0.01378,0.021071 c 0.0158,-0.010417 0.03651,-0.016219 0.04109,-0.014018 -2.71e-4,-1.577e-4 -0.0011,-8.318e-4 -0.0011,-0.00141 l 0.02462,-0.00436 z"
       id="path1488-2"
       style="opacity:0.9;fill:#000000;fill-opacity:1;stroke-width:0.0240761" />
    <path
       d="m 11.290308,7.6846523 c -0.01656,0.017212 -0.05392,0.025318 -0.05392,0.025318 l -0.01247,0.046424 -0.02073,0.017222 c 0,0 0.004,0.013227 0,0.042215 -0.004,0.029354 -0.04152,0.046424 -0.04152,0.046424 l -0.01656,0.021139 c 0,0 -0.10004,0.00579 -0.112061,0 -0.03734,-0.017142 -0.01241,-0.067512 0.01247,-0.063424 0.02492,0.00446 -0.004,-0.071822 -0.004,-0.071822 l 0.03325,-0.00446 c 0,0 0.004,-0.076265 0.01656,-0.076265 0.01241,0 -0.004,-0.025247 -0.02074,-0.038481 -0.0165,-0.013177 -0.03735,-0.054386 -0.05398,-0.050431 -0.01656,0.00446 -0.08299,0 -0.08299,0 l -0.01241,0.025338 -0.04567,0.00841 c 0,0 0.0038,0.032296 -0.0039,0.042276 -0.02505,0.029293 -0.120395,0.092777 -0.07896,-0.013237 l 0.01241,-0.025215 v -0.038547 l -0.07465,-0.00436 c 0,0 -0.03736,-0.013328 -0.03736,-0.029354 0,-0.017232 -0.004,-0.038482 -0.004,-0.038482 l -0.08717,-0.09719 -0.103715,-0.013267 -0.0081,-0.021139 -0.06213,-0.00841 c -0.07478,-0.038482 -0.141187,-0.00446 -0.128713,0.05955 0.01241,0.063474 0.0332,0.088853 -0.0081,0.088853 -0.04158,0 -0.04982,-0.033512 -0.04982,-0.033512 0,0 -0.0332,-0.013288 -0.0332,0.00436 0,0.017192 -0.01246,0.050492 0,0.067512 0.01235,0.017192 -0.01662,0.042256 -0.02915,0.029353 -0.01235,-0.013237 -0.04561,-0.050364 -0.0373,-0.063343 0.0081,-0.013237 -0.05814,-0.092868 0.0081,-0.1056691 0.06648,-0.013227 -0.004,-0.050491 0.0208,-0.059486 l 0.03318,-0.017212 h 0.0332 l 0.02077,-0.017212 -0.05392,-0.00831 -0.03319,-0.00446 -0.06229,-0.00446 c -0.06218,0.042276 -0.07467,0.092848 -0.07467,0.092848 -0.03332,0.063384 -0.112063,-0.025318 -0.083,-0.05955 0.02903,-0.034212 -0.09133,-0.00446 -0.1121217,0.013257 -0.02077,0.017172 -0.08303,0.00841 -0.08303,0.00841 -0.01244,0.038549 -0.070516,-0.00436 -0.05395,-0.029293 0.01661,-0.025246 0.01661,-0.042276 0.01661,-0.042276 l -0.02071,-0.00446 -0.024888,0.046424 c -0.05812,0 -0.074765,0.034487 -0.062319,0.054446 0.012447,0.021071 -0.016613,-0.00446 -0.024891,0.025248 -0.00819,0.029354 0.00419,0.029354 0.02912,0.042275 0.024891,0.013227 -0.012507,0.013227 0.00411,0.034487 0.016614,0.021139 0.066414,0 0.037397,0.029354 -0.02906,0.029354 -0.087229,0.017222 -0.087229,0.017222 -0.00411,0.038421 -0.082995,0.029354 -0.091228,0.017222 -0.00831,-0.013277 -0.070565,-0.088853 -0.070565,-0.088853 l -0.078969,-0.00446 c -0.00819,-0.059483 0.037397,-0.029354 0.054011,-0.076235 0.016673,-0.046424 0.024952,-0.1225378 0.024952,-0.1225378 0,0 -0.066487,-0.00446 -0.070613,0.017212 -0.00411,0.021139 -0.045612,0.034608 -0.045612,0.034608 0,0 -0.033228,0.013166 -0.020784,0.029354 0.012447,0.017222 -0.024891,0.025258 -0.024891,0.025258 0,0 0.00652,0.02689 -0.00411,0.038482 -0.03317,0.034355 -0.1162315,0.00446 -0.1286321,-0.00841 l -0.049843,-0.021139 -0.049843,-0.034283 -0.058055,0.02527 -0.016616,0.017202 h -0.062386 l -0.00411,0.050368 0.1120625,0.013227 0.00831,0.1045851 -0.045733,-0.016188 H 8.91692 L 8.904473,7.5050545 8.879581,7.5005945 v 0.092818 l 0.024892,0.021139 0.020784,0.021006 0.041504,0.00446 0.00831,0.050431 0.1037125,0.00456 0.012447,0.021069 0.062301,0.00446 0.120357,0.1225011 -0.00831,0.038544 -0.020784,0.013237 c 0.00831,0.029353 -0.053885,0.013237 -0.053885,0.013237 v 0.025231 l 0.029,0.00446 0.02912,0.017202 0.041446,-0.071782 c 0.045613,-0.029354 0.066343,0.013217 0.070577,0.038482 0.00411,0.025225 -0.020844,0.02107 -0.020844,0.02107 v 0.05962 l 0.024892,0.00831 c 0.041564,0.050492 -0.016615,0.08023 -0.016615,0.08023 l -0.012507,0.042296 c -0.012447,0.038482 -0.058118,0.029353 -0.058118,0.029353 l -0.016554,0.025328 -0.049899,0.013207 0.098553,0.013247 c 0.00934,-0.034548 0.034225,-0.042306 0.046662,-0.025235 0.012507,0.017252 0.012507,0.046423 0.012507,0.046423 l 0.025011,0.00446 -0.00421,0.046363 0.024892,0.00852 v 0.1351555 l 0.02906,0.034293 c 0.049843,-0.021006 0.049843,0.013308 0.024892,0.029354 -0.024892,0.017192 -0.00831,0.092838 -0.00831,0.092838 l -0.020722,0.02107 v 0.034425 l -0.024892,0.017202 v 0.046364 c -0.041506,-0.021069 -0.091342,-0.013298 -0.103824,0 -0.037272,-0.025328 -0.1161504,-0.017192 -0.1161504,0.00446 0.024891,0.034426 -0.029,0.042234 -0.029,0.042234 l -0.029007,0.034548 c 0.020784,0.042285 -0.020661,0.046363 -0.020661,0.046363 v 0.080241 l -0.049843,0.046424 0.00419,0.1098864 c 0,0.029354 0.062223,0.034548 0.074619,0.017212 0.012507,-0.017212 0.062325,0.034669 0.062325,0.034669 h 0.037272 l 0.00831,-0.076235 -0.024952,-0.013257 V 8.9093073 l 0.041467,-0.046424 c 0.049843,-0.017162 0.033228,0.1099429 0.033228,0.1226284 0.00411,0.046363 0.024832,0.042245 0.045613,0.034344 0.041508,-0.017222 0.00819,0.046484 -0.024892,0.042296 -0.033169,-0.00436 -0.012507,0.042285 -0.012507,0.042285 l 0.020844,0.00852 -0.037397,0.029343 -0.033107,0.038545 -0.041625,-0.013328 -0.049715,-0.00436 -0.016614,-0.029394 -0.02912,-0.00446 -0.00411,0.059509 -0.020722,0.025225 -0.049843,0.050552 c 0.066433,0 -0.00831,0.046302 -0.024891,0.046302 0.037337,0.013217 -0.00411,0.050491 -0.099583,0.021199 v 0.029293 l -0.03323,0.00446 0.029121,0.033452 0.033169,0.00446 -0.012447,0.071802 c 0,0.054416 -0.1369451,0.017162 -0.1494202,0.00446 l -0.00411,0.076245 -0.024893,0.00436 0.00411,0.050491 -0.00411,0.071822 0.045613,-0.00852 v 0.029353 l 0.1120614,0.00447 0.1618651,-0.1732991 0.095434,-0.02107 c 0.00825,-0.042339 0.049716,0.00841 0.049716,0.00841 0.041508,-0.00456 0.049843,0.02526 0.049843,0.02526 l 0.054011,0.00852 c 0.045613,0.013328 0.018048,0.017355 0.020722,0.034547 0.00411,0.025225 0.024891,0.017202 0.024891,0.017202 l 0.00831,-0.054446 0.024892,0.00446 -0.024892,-0.029354 -0.045733,-0.021139 -0.049781,-0.021072 c -0.033228,-0.046363 0.00825,-0.038482 0.041508,-0.034487 h 0.05395 c 0,0 0.062301,0.084568 0.062301,0.1056085 0,0.021139 0.02906,0.025338 0.02906,0.025338 l 0.037274,-0.00446 0.012507,0.029293 h 0.037337 l 0.012506,0.025215 h 0.074728 l 0.00414,-0.038481 -0.070637,-0.013156 -0.00411,-0.042295 -0.049782,-0.013247 c -0.016673,-0.071741 0.012386,-0.092767 0.033169,-0.059498 l 0.024891,0.00436 -0.00831,-0.063424 0.029058,-0.00852 -0.00825,-0.088843 -0.024892,-0.00831 v -0.029356 l 0.1037105,0.00456 c -0.00816,-0.054467 0.00419,-0.080261 0.00419,-0.080261 h 0.029104 l 0.0041,0.021199 0.1269891,0.012507 0.08981,-0.1033257 c -0.0044,-0.00791 0.0088,-0.013308 -8.25e-4,-0.022979 -0.01247,-0.013227 -0.02914,0 -0.04994,-0.013227 -0.02068,-0.013156 0,-0.084633 -0.004,-0.101379 -0.004,-0.017192 0.07067,-0.042305 0.05815,-0.00446 -0.01241,0.038547 0,0.054406 0,0.054406 0.05392,-0.050491 0.09957,0.00436 0.09545,0.017202 -0.0041,0.013217 0.02903,0.025205 0.0497,0.013217 0.02075,-0.013217 0.04567,0.038548 0.03741,0.063383 -0.0081,0.025248 -0.08298,0.021139 -0.08709,-0.00446 -0.0041,-0.025308 -0.0167,-0.017192 -0.02493,-0.00446 -0.0081,0.013227 -0.04561,0.021067 -0.06644,0.00831 -0.0041,-0.00264 -0.0061,-0.00496 -0.0073,-0.0068 l -0.08982,0.1033259 0.0058,5.471e-4 c 0.04977,0.029353 0.0249,0.067532 0.0082,0.076245 -0.01664,0.00841 -0.04574,0.00841 -0.04574,0.00841 l -0.0082,0.017162 -0.1079357,0.00831 -0.00838,0.042305 c -0.053949,-0.00852 -0.074636,0.050431 -0.062222,0.08014 0.012506,0.029293 0,0.054456 0,0.054456 l 0.045673,0.021139 0.058056,-0.017192 c 0.0084,-0.042305 0.04562,-0.050552 0.07889,-0.076245 0.03319,-0.025328 0.08717,0.046302 0.07054,0.08015 -0.01658,0.032996 -0.01658,0.046363 -0.01658,0.046363 l 0.004,0.038544 -0.04146,0.017162 -0.03317,0.017202 -0.0042,0.021139 H 9.6759088 l -0.020721,0.021068 -0.054011,0.00456 -0.016673,0.025215 -0.037274,0.00446 c 0,0 -0.062301,0.029354 -0.037337,0.063434 0.024892,0.034608 -0.1037314,0.029354 -0.132858,-0.017202 -0.00831,0.042266 -0.053949,0.00446 -0.053949,0.00446 l -0.045614,-0.013287 -0.00411,-0.063333 c -0.00831,-0.042296 -0.087182,-0.042296 -0.082998,-0.013267 0.00411,0.029354 -0.1494832,0.013267 -0.1494832,0.013267 l -0.049782,0.024069 -0.045733,0.026361 -0.00411,0.021068 -0.074765,0.00841 -0.033169,0.017212 -0.012447,-0.025338 h -0.033167 l -0.033229,0.046457 c -0.087142,0.00446 -0.1701346,0.054446 -0.1618652,0.076244 0.00831,0.02107 -0.033169,0.04229 -0.033169,0.04229 l -0.037397,0.01308 -0.024831,0.03854 -0.049843,0.01723 -0.00831,0.08881 -0.024833,0.01718 v 0.03853 l -0.02912,0.0081 v 0.0211 l -0.041508,0.0043 0.024832,0.0635 0.03329,0.01718 c 0.058119,0.0081 0.033169,0.0802 0.033169,0.0802 l 0.033169,0.0042 0.016673,0.04634 0.033169,0.06755 c 0.012506,0.05052 0.049843,0.03853 0.066433,0.03435 0.016613,-0.0042 0.033169,0.05039 0.033169,0.05039 l 0.1659903,0.0043 c 0,0 -0.00819,0.01721 0.020844,0.02535 0.029,0.0082 0.2199439,0.01724 0.2282936,0.0043 -0.00831,-0.03853 0.1036879,-0.04646 0.1494024,-0.0133 0.045612,0.03311 0.1078935,0.0133 0.1078935,0.0133 l 0.062245,0.07616 0.041565,0.0928 0.070514,0.0211 0.049782,0.01332 0.016674,0.07182 0.037274,0.0043 0.012507,0.0467 c 0.045673,0.03393 -0.012507,0.10561 -0.012507,0.10561 v 0.09273 l 0.033228,0.01724 -0.00416,0.03295 0.054011,0.05441 0.062222,0.0044 0.1577611,0.168952 0.1244663,0.03853 0.02067,0.06753 0.03332,-0.0043 0.02493,-0.02124 0.09955,-0.0043 0.04982,-0.0467 0.05392,-0.0079 0.4607,-0.393018 -0.04158,-0.02558 v -0.09355 c 0.07474,-0.0544 0.07888,-0.152207 0.0081,-0.160622 -0.05349,-0.0063 -0.02904,-0.06347 0.02086,-0.07181 l 0.02904,-0.0131 v -0.03869 l 0.09543,-0.08872 v -0.06757 l -0.207328,-0.172855 c -0.09133,-0.03447 0,-0.236593 0.06211,-0.232349 0.06233,0.0042 -0.004,-0.3126789 -0.004,-0.3126789 l -0.03326,-0.017192 0.0081,-0.1014196 h -0.04558 l -0.07477,0.097251 -0.0207,0.067442 c -0.0081,0.088934 -0.265659,0.071802 -0.278141,0.05955 -0.01241,-0.01325 -0.09955,-0.050431 -0.09955,-0.050431 0,0 -0.06644,-0.054447 -0.07888,-0.038481 -0.01241,0.017192 -0.07057,-0.021139 -0.07057,-0.00852 0,0.013298 -0.05392,-0.029293 -0.05392,-0.029293 l -0.08299,-0.029355 0.06228,-0.013288 -0.01247,-0.050431 0.1078204,0.054446 c 0.01246,0.017202 0.06645,0.013338 0.06645,0.013338 l 0.01656,0.021139 c 0,0 0.03325,-0.00456 0.05404,0.021068 0.02068,0.025328 0.128595,0.00446 0.128595,0.00446 l 0.02908,0.025248 0.04561,0.017182 0.1287,0.00446 0.004,-0.08016 0.02492,-0.025318 -0.004,-0.050491 0.02909,-0.025175 v -0.04219 l 0.02493,-0.00852 0.004,-0.092737 0.02072,-0.00446 v -0.202761 l -0.06223,-0.05956 c -0.004,0.021139 -0.07057,0.021139 -0.07057,0.021139 0,0 -0.01656,0.029293 -0.02909,0.029293 -0.01241,0 0.01656,0.038482 0.0081,0.063404 -0.0081,0.02525 -0.04152,0.02525 -0.04152,0.02525 l -0.06233,0.017232 -0.01656,0.021139 h -0.06652 l -0.008,-0.054446 0.07467,-0.021139 0.0415,-0.021006 0.02077,-0.042295 c 0.004,-0.042245 0.05393,-0.038482 0.05393,-0.038482 0,0 0.09543,-0.08021 0.09954,-0.1183067 0.0041,-0.038544 0.0374,-0.1437134 0.09544,-0.1437134 h 0.107939 c 0.04146,-0.017265 0.02909,-0.071822 0.02909,-0.071822 l 0.05392,-0.00831 0.0081,0.029354 c 0,0 0.07476,0.00841 0.083,-0.00446 0.0081,-0.013177 0.02492,-0.042256 0.04573,-0.029354 0.02072,0.013257 0.08713,-0.029354 0.08713,-0.029354 0.004,-0.029353 0.107891,-0.017162 0.107891,-0.017162 l 0.01246,-0.038482 c 0,0 -0.07059,-0.0972 -0.08299,-0.0972 -0.01247,0 -0.07888,-0.05961 -0.0872,-0.038546 -0.06636,-0.017232 -0.06221,-0.1098853 -0.06221,-0.1098853 l -0.02491,-0.059498 c 0,-0.034354 -0.06215,-0.105674 -0.07475,-0.0972 -0.06229,-0.046425 -0.01656,-0.1014297 0,-0.1056514 0.01656,-0.00446 0.05814,-0.063414 0.05814,-0.063414 l 0.02068,-0.05956 0.07061,-0.021006 0.0081,-0.054446 -0.0373,-0.00446 c 0,0 0.04146,-0.076245 0.0622,-0.076245 0.02077,0 0.157753,0 0.170118,-0.00852 0.01241,-0.00841 0.03735,-0.076199 0.03735,-0.088762 0,-0.013237 0.03332,-0.017182 0.04567,-0.021139 0.01241,-0.00436 0.04152,-0.038482 0.04982,-0.054426 0.0081,-0.017278 -0.02063,-0.1227254 -0.03735,-0.1057662 z"
       id="path1490-0"
       style="opacity:0.9;fill:#000000;fill-opacity:1;stroke-width:0.0240761" />
    <path
       d="m 8.9910172,9.2080536 c 0.00628,-0.0063 0.012507,0.019262 0.024892,0.01624 0.012386,-0.00335 0.018664,0.022295 0.00628,0.022295 -0.012507,0 -0.012507,0.016229 -0.012507,0.022285 0,0.0064 0,0.022216 -0.00934,0.0312 -0.00928,0.00965 -0.01873,0.00335 -0.03117,-0.00335 -0.012446,-0.0064 -0.018603,-0.0064 -0.034222,-0.0064 -0.015555,0 -0.00317,0.025328 -0.00317,0.025328 0,0 -0.065372,-0.00335 -0.052891,-0.013308 0.012447,-0.00948 0.024892,-0.013237 0.015616,-0.019262 -0.00934,-0.0064 0,-0.013197 0,-0.025236 0,-0.013328 0.031108,-0.0064 0.021712,-0.01626 -0.00922,-0.00965 2.007e-4,-0.046178 0.015555,-0.025348 l 0.00934,-0.022295 c -0.00934,-0.00942 -0.00312,-0.013247 -0.021783,-0.019129 -0.018664,-0.0064 -0.00317,-0.044547 -0.00317,-0.044547 l 0.00317,-0.025215 c 0.00628,-0.0312 0.068444,-0.03548 0.071589,-0.0064 0.00309,0.028258 0,0.04749 0,0.04749 l 0.018732,0.0064 c 0,0 -0.00317,0.019353 -0.018732,0.019353 -0.015615,0 0,0.00932 -0.00928,0.019129 l 0.00934,0.01627 z"
       id="path1492-3-6"
       style="opacity:0.9;fill:#000000;fill-opacity:1;stroke-width:0.0240761" />
    <path
       d="m 8.7855312,9.2398586 c 0.00934,-0.019272 0.031108,-0.1014297 0.05606,-0.076245 0.024831,0.025249 0.040443,0 0.040443,0 0,0 0.012447,0.013328 0.00628,0.038547 -0.00628,0.025257 -0.012506,0.050431 -0.02806,0.053433 -0.015495,0.00335 -0.028001,0.013247 -0.046601,0.01627 -0.018664,0.00335 -0.028059,-0.03125 -0.028059,-0.03125 z"
       id="path1494-8"
       style="opacity:0.9;fill:#000000;fill-opacity:1;stroke-width:0.0240761" />
  </g>
</svg>
