<?xml version="1.0" encoding="UTF-8" standalone="no"?>
<svg
   width="68"
   height="68"
   viewBox="0 0 17.991665 17.991665"
   version="1.1"
   id="svg1114"
   inkscape:version="1.3.2 (091e20ef0f, 2023-11-25)"
   sodipodi:docname="applications-system.svg"
   xmlns:inkscape="http://www.inkscape.org/namespaces/inkscape"
   xmlns:sodipodi="http://sodipodi.sourceforge.net/DTD/sodipodi-0.dtd"
   xmlns:xlink="http://www.w3.org/1999/xlink"
   xmlns="http://www.w3.org/2000/svg"
   xmlns:svg="http://www.w3.org/2000/svg"
   xmlns:rdf="http://www.w3.org/1999/02/22-rdf-syntax-ns#"
   xmlns:cc="http://creativecommons.org/ns#"
   xmlns:dc="http://purl.org/dc/elements/1.1/">
  <style
     type="text/css"
     id="current-color-scheme">.ColorScheme-Highlight { color:#5599ff; }
</style>
  <defs
     id="defs1108">
    <linearGradient
       id="linearGradient12"
       inkscape:collect="always">
      <stop
         style="stop-color:#ffffff;stop-opacity:0;"
         offset="0"
         id="stop10" />
      <stop
         id="stop11"
         offset="0.65909404"
         style="stop-color:#ffffff;stop-opacity:0" />
      <stop
         style="stop-color:#ffffff;stop-opacity:1;"
         offset="1"
         id="stop12" />
    </linearGradient>
    <linearGradient
       id="linearGradient9"
       inkscape:collect="always">
      <stop
         style="stop-color:#000000;stop-opacity:0;"
         offset="0"
         id="stop1" />
      <stop
         id="stop8"
         offset="0.66102529"
         style="stop-color:#000000;stop-opacity:0" />
      <stop
         style="stop-color:#000000;stop-opacity:1;"
         offset="1"
         id="stop9" />
    </linearGradient>
    <linearGradient
       id="linearGradient7"
       inkscape:collect="always">
      <stop
         style="stop-color:#000000;stop-opacity:0;"
         offset="0"
         id="stop5" />
      <stop
         id="stop6"
         offset="0.6586886"
         style="stop-color:#000000;stop-opacity:0" />
      <stop
         style="stop-color:#000000;stop-opacity:1;"
         offset="1"
         id="stop7" />
    </linearGradient>
    <linearGradient
       id="linearGradient4"
       inkscape:collect="always">
      <stop
         style="stop-color:#000000;stop-opacity:0;"
         offset="0"
         id="stop2" />
      <stop
         id="stop3"
         offset="0.67055255"
         style="stop-color:#000000;stop-opacity:0" />
      <stop
         style="stop-color:#000000;stop-opacity:1;"
         offset="1"
         id="stop4" />
    </linearGradient>
    <linearGradient
       inkscape:collect="always"
       id="linearGradient899">
      <stop
         style="stop-color:#b380ff;stop-opacity:1;"
         offset="0"
         id="stop895" />
      <stop
         style="stop-color:#5f5fd3;stop-opacity:1;"
         offset="1"
         id="stop897" />
    </linearGradient>
    <linearGradient
       id="linearGradient1167"
       x1="40.751999"
       x2="40.751999"
       y1="28.507999"
       y2="17.205999"
       gradientUnits="userSpaceOnUse">
      <stop
         style="stop-color:#84fb6e;stop-opacity:1"
         stop-color="#0ab816"
         offset="0"
         id="stop1163" />
      <stop
         style="stop-color:#0dd41a;stop-opacity:1"
         stop-color="#0cf36c"
         offset="1"
         id="stop1165" />
    </linearGradient>
    <linearGradient
       id="cornerBevel"
       inkscape:collect="always">
      <stop
         style="stop-color:#000000;stop-opacity:0;"
         offset="0"
         id="stop2663" />
      <stop
         id="stop2671"
         offset="0.66666675"
         style="stop-color:#000000;stop-opacity:0" />
      <stop
         style="stop-color:#000000;stop-opacity:1;"
         offset="1"
         id="stop2661" />
    </linearGradient>
    <linearGradient
       id="bevel"
       inkscape:collect="always">
      <stop
         id="stop2685"
         offset="0"
         style="stop-color:#000000;stop-opacity:1;" />
      <stop
         id="stop2687"
         offset="1"
         style="stop-color:#000000;stop-opacity:0;" />
    </linearGradient>
    <linearGradient
       id="highlightCorner"
       inkscape:collect="always">
      <stop
         style="stop-color:#ffffff;stop-opacity:0;"
         offset="0"
         id="stop2613" />
      <stop
         id="stop2621"
         offset="0.66666669"
         style="stop-color:#ffffff;stop-opacity:0" />
      <stop
         style="stop-color:#ffffff;stop-opacity:1;"
         offset="1"
         id="stop2611" />
    </linearGradient>
    <linearGradient
       inkscape:collect="always"
       id="highlight">
      <stop
         style="stop-color:#ffffff;stop-opacity:1;"
         offset="0"
         id="stop2921" />
      <stop
         style="stop-color:#ffffff;stop-opacity:0;"
         offset="1"
         id="stop2923" />
    </linearGradient>
    <radialGradient
       inkscape:collect="always"
       xlink:href="#highlightCorner"
       id="radialGradient15"
       gradientUnits="userSpaceOnUse"
       gradientTransform="matrix(0.04294597,-12.079348,17.933991,0.06376112,14.524179,-50.373789)"
       cx="-4.5799766"
       cy="-0.50206107"
       fx="-4.5799766"
       fy="-0.50206107"
       r="0.39687499" />
    <linearGradient
       inkscape:collect="always"
       xlink:href="#highlight"
       id="linearGradient15"
       gradientUnits="userSpaceOnUse"
       x1="-3.8453064"
       y1="-1.1532172"
       x2="-3.8453064"
       y2="-0.8954913"
       gradientTransform="matrix(6.0923077,0,0,6.0923077,32.228528,7.1537621)" />
    <radialGradient
       inkscape:collect="always"
       xlink:href="#linearGradient12"
       id="radialGradient17"
       gradientUnits="userSpaceOnUse"
       gradientTransform="matrix(-0.02247554,-12.045403,-17.967828,0.03352619,1.6640208,-50.22331)"
       cx="-4.575222"
       cy="-0.55256462"
       fx="-4.575222"
       fy="-0.55256462"
       r="0.39687499" />
    <radialGradient
       inkscape:collect="always"
       xlink:href="#linearGradient7"
       id="radialGradient18"
       gradientUnits="userSpaceOnUse"
       gradientTransform="matrix(0.06461187,12.09952,17.933731,-0.09576873,14.609502,64.748231)"
       cx="-4.4284906"
       cy="-0.50121039"
       fx="-4.4284906"
       fy="-0.50121039"
       r="0.39687499" />
    <linearGradient
       inkscape:collect="always"
       xlink:href="#bevel"
       id="linearGradient18"
       gradientUnits="userSpaceOnUse"
       x1="-3.8415797"
       y1="-1.4506671"
       x2="-3.8406549"
       y2="-1.1968651"
       gradientTransform="matrix(6.0923076,0,0,6.0923076,32.228527,-7.1537627)" />
    <radialGradient
       inkscape:collect="always"
       xlink:href="#linearGradient4"
       id="radialGradient20"
       gradientUnits="userSpaceOnUse"
       gradientTransform="matrix(-0.01031383,11.991438,-17.967296,-0.01545561,1.7353715,64.305742)"
       cx="-4.4236727"
       cy="-0.55004197"
       fx="-4.4236727"
       fy="-0.55004197"
       r="0.39687499" />
    <radialGradient
       inkscape:collect="always"
       xlink:href="#cornerBevel"
       id="radialGradient25"
       gradientUnits="userSpaceOnUse"
       gradientTransform="matrix(12.184614,0,0,12.184614,59.63122,10.377613)"
       cx="-4.4568658"
       cy="-0.44864327"
       fx="-4.4568658"
       fy="-0.44864327"
       r="0.39687496" />
    <linearGradient
       inkscape:collect="always"
       xlink:href="#bevel"
       id="linearGradient25"
       gradientUnits="userSpaceOnUse"
       x1="-3.8487544"
       y1="-1.146081"
       x2="-3.8455966"
       y2="-0.890971"
       gradientTransform="matrix(6.0923077,0,0,6.0923077,32.228528,7.1537627)" />
    <radialGradient
       inkscape:collect="always"
       xlink:href="#cornerBevel"
       id="radialGradient29"
       gradientUnits="userSpaceOnUse"
       gradientTransform="matrix(0,-12.184614,12.184614,0,11.27353,-44.427768)"
       cx="-4.5705457"
       cy="-0.48653662"
       fx="-4.5705457"
       fy="-0.48653662"
       r="0.39687496" />
    <radialGradient
       inkscape:collect="always"
       xlink:href="#cornerBevel"
       id="radialGradient30"
       gradientUnits="userSpaceOnUse"
       gradientTransform="matrix(-12.184514,-0.04945749,0.04847411,-11.942243,-43.502155,3.8519053)"
       cx="-4.5342312"
       cy="-0.60337442"
       fx="-4.5342312"
       fy="-0.60337442"
       r="0.39687496" />
    <radialGradient
       inkscape:collect="always"
       xlink:href="#linearGradient9"
       id="radialGradient31"
       gradientUnits="userSpaceOnUse"
       gradientTransform="matrix(0,-12.151612,11.978956,0,18.475664,-48.770776)"
       cx="-4.4175329"
       cy="-0.56489283"
       fx="-4.4175329"
       fy="-0.56489283"
       r="0.39687496" />
    <linearGradient
       inkscape:collect="always"
       xlink:href="#bevel"
       id="linearGradient34"
       gradientUnits="userSpaceOnUse"
       x1="-3.99717"
       y1="-1.2218677"
       x2="-4.0003276"
       y2="-0.96675771"
       gradientTransform="matrix(6.0923077,0,0,6.0923077,17.025077,8.0496826)" />
    <linearGradient
       inkscape:collect="always"
       xlink:href="#bevel"
       id="linearGradient35"
       gradientUnits="userSpaceOnUse"
       x1="-4.0919032"
       y1="-1.4492278"
       x2="-4.0950613"
       y2="-1.1972755"
       gradientTransform="matrix(6.0923077,0,0,6.0923077,16.129161,-7.1537627)" />
    <linearGradient
       inkscape:collect="always"
       xlink:href="#bevel"
       id="linearGradient36"
       gradientUnits="userSpaceOnUse"
       x1="-3.8734362"
       y1="-1.3717227"
       x2="-3.8765941"
       y2="-1.116071"
       gradientTransform="matrix(6.0923077,0,0,6.0923077,31.33261,-8.0496826)" />
    <linearGradient
       id="paint2_linear_77:3-7"
       x1="79.398094"
       y1="-197.84389"
       x2="82.901054"
       y2="-199.97827"
       gradientUnits="userSpaceOnUse"
       gradientTransform="matrix(1.9248511,0,0,1.7314595,-40.88733,399.61741)">
      <stop
         stop-color="#EBFAFF"
         stop-opacity="0.1"
         id="stop29-5-7"
         offset="0"
         style="stop-color:#c3c3c3;stop-opacity:1;" />
      <stop
         offset="1"
         stop-color="#70A9FF"
         stop-opacity="0.5"
         id="stop30-0-1"
         style="stop-color:#05c7ff;stop-opacity:0.80000001;" />
    </linearGradient>
    <linearGradient
       inkscape:collect="always"
       xlink:href="#linearGradient899"
       id="linearGradient926"
       x1="1.0977763"
       y1="-9.2589808"
       x2="16.919081"
       y2="-9.2251434"
       gradientUnits="userSpaceOnUse"
       gradientTransform="translate(-0.92604234,0.47624996)" />
  </defs>
  <sodipodi:namedview
     id="base"
     pagecolor="#e2e2e2"
     bordercolor="#666666"
     borderopacity="1.0"
     inkscape:pageopacity="0"
     inkscape:pageshadow="2"
     inkscape:zoom="9.7248729"
     inkscape:cx="32.596827"
     inkscape:cy="31.774194"
     inkscape:document-units="px"
     inkscape:current-layer="layer1"
     inkscape:document-rotation="0"
     showgrid="true"
     units="px"
     inkscape:window-width="1920"
     inkscape:window-height="990"
     inkscape:window-x="0"
     inkscape:window-y="0"
     inkscape:window-maximized="1"
     inkscape:object-paths="true"
     inkscape:snap-grids="true"
     inkscape:snap-intersection-paths="true"
     inkscape:snap-smooth-nodes="true"
     inkscape:snap-midpoints="true"
     inkscape:showpageshadow="2"
     inkscape:pagecheckerboard="0"
     inkscape:deskcolor="#d1d1d1">
    <inkscape:grid
       id="grid2"
       units="px"
       originx="0"
       originy="0"
       spacingx="0.26458333"
       spacingy="0.26458333"
       empcolor="#0099e5"
       empopacity="0.30196078"
       color="#0099e5"
       opacity="0.14902"
       empspacing="5"
       dotted="false"
       gridanglex="30"
       gridanglez="30"
       visible="true" />
  </sodipodi:namedview>
  <metadata
     id="metadata1111">
    <rdf:RDF>
      <cc:Work
         rdf:about="">
        <dc:format>image/svg+xml</dc:format>
        <dc:type
           rdf:resource="http://purl.org/dc/dcmitype/StillImage" />
      </cc:Work>
    </rdf:RDF>
  </metadata>
  <g
     inkscape:label="Layer 1"
     inkscape:groupmode="layer"
     id="layer1">
    <g
       id="g918"
       transform="translate(0.47625037,0.92604234)">
      <rect
         ry="4.8357682"
         rx="4.8357682"
         style="fill:url(#linearGradient926);fill-opacity:1;stroke-width:6.09228"
         x="0.13229237"
         y="-16.457085"
         width="15.875001"
         height="15.875001"
         id="use1056"
         transform="rotate(90)"
         class="ColorScheme-Highlight" />
      <path
         d="m 5.344583,0.13229167 c -2.6384245,0 -4.76249953,2.12407483 -4.76249953,4.76249963 H 5.344583 Z"
         style="opacity:0.15;fill:url(#radialGradient25);fill-opacity:1;stroke-width:6.09228"
         id="path20" />
      <rect
         y="0.13229151"
         x="5.3445826"
         height="1.5875"
         width="6.3500004"
         id="rect20"
         style="opacity:0.15;fill:url(#linearGradient25);fill-opacity:1;stroke-width:4.83577;stroke-linecap:round;stroke-linejoin:round;paint-order:stroke fill markers" />
      <path
         d="m 0.58208347,11.244792 c 0,2.638424 2.12407503,4.762499 4.76249953,4.762499 v -4.762499 z"
         style="opacity:0.15;fill:url(#radialGradient29);fill-opacity:1;stroke-width:6.09228"
         id="use20" />
      <rect
         y="0.5820834"
         x="-11.244792"
         height="1.5875"
         width="6.3500004"
         id="use21"
         style="opacity:0.15;fill:url(#linearGradient34);fill-opacity:1;stroke-width:4.83577;stroke-linecap:round;stroke-linejoin:round;paint-order:stroke fill markers"
         transform="rotate(-90)" />
      <path
         d="m 11.694583,16.007291 c 2.638425,0 4.7625,-2.124074 4.7625,-4.762499 h -4.7625 z"
         style="opacity:0.15;fill:url(#radialGradient30);fill-opacity:1;stroke-width:6.09228"
         id="use22" />
      <rect
         y="-16.007292"
         x="-11.694584"
         height="1.5875"
         width="6.3500004"
         id="use23"
         style="opacity:0.15;fill:url(#linearGradient35);fill-opacity:1;stroke-width:4.83577;stroke-linecap:round;stroke-linejoin:round;paint-order:stroke fill markers"
         transform="scale(-1)" />
      <path
         d="m 16.457083,4.8947913 c 0,-2.6384245 -2.124074,-4.76249963 -4.7625,-4.76249963 V 4.8947913 Z"
         style="opacity:0.15;fill:url(#radialGradient31);fill-opacity:1;stroke-width:6.09228"
         id="use24" />
      <rect
         y="-16.457081"
         x="4.8947906"
         height="1.5875"
         width="6.3500004"
         id="use25"
         style="opacity:0.15;fill:url(#linearGradient36);fill-opacity:1;stroke-width:4.83577;stroke-linecap:round;stroke-linejoin:round;paint-order:stroke fill markers"
         transform="rotate(90)" />
      <path
         d="m 5.3445832,0.13229107 c -2.638425,0 -4.76250035,2.12407473 -4.76250035,4.76249973 H 5.3445832 Z"
         style="opacity:0.5;fill:url(#radialGradient15);fill-opacity:1;stroke-width:6.09228"
         id="path14" />
      <rect
         y="0.1322909"
         x="5.3445826"
         height="1.5875"
         width="6.3499999"
         id="rect14"
         style="opacity:0.5;fill:url(#linearGradient15);fill-opacity:1;stroke-width:4.83577;stroke-linecap:round;stroke-linejoin:round;paint-order:stroke fill markers" />
      <path
         d="m 11.694583,0.13229096 c 2.638425,0 4.7625,2.12407504 4.7625,4.76249734 h -4.7625 z"
         style="opacity:0.5;fill:url(#radialGradient17);fill-opacity:1;stroke-width:6.09228"
         id="use14" />
      <path
         id="path17"
         style="opacity:0.5;fill:url(#radialGradient18);fill-opacity:1;stroke-width:6.09228"
         d="m 5.3445834,16.00729 c -2.638425,0 -4.7625,-2.124075 -4.7625,-4.7625 h 4.7625 z" />
      <rect
         style="opacity:0.5;fill:url(#linearGradient18);fill-opacity:1;stroke-width:4.83577;stroke-linecap:round;stroke-linejoin:round;paint-order:stroke fill markers"
         id="rect17"
         width="6.3499994"
         height="1.5874999"
         x="5.3445826"
         y="-16.007292"
         transform="scale(1,-1)" />
      <path
         id="use17"
         style="opacity:0.5;fill:url(#radialGradient20);fill-opacity:1;stroke-width:6.09228"
         d="m 11.694582,16.007291 c 2.638425,0 4.7625,-2.124075 4.7625,-4.7625 h -4.7625 z" />
    </g>
    <path
       sodipodi:nodetypes="ssssssssssssssssssssscsssssssssssssssssssscssssssssssssssssssscsscsscsssssscssssssssssssssssscsssssssssssssssss"
       inkscape:connector-curvature="0"
       id="path2986-2"
       d="m 6.0711113,13.945922 c -0.074881,-0.07869 -0.1284059,-0.222731 -0.127715,-0.343745 3.521e-4,-0.06237 0.066023,-0.275419 0.1876964,-0.608946 0.1029315,-0.282162 0.1885155,-0.538359 0.1901869,-0.569329 0.00229,-0.04108 -0.047781,-0.101452 -0.1848443,-0.223208 -0.1033349,-0.09179 -0.2535184,-0.242571 -0.3337401,-0.335058 -0.080224,-0.09249 -0.16807,-0.177382 -0.1952173,-0.188642 -0.030445,-0.01263 -0.2544131,0.05082 -0.5845687,0.165636 -0.294363,0.102365 -0.5769172,0.1891 -0.6278981,0.192745 -0.1049386,0.0074 -0.3019253,-0.06593 -0.3862638,-0.144004 -0.067056,-0.06207 -0.5575175,-1.224229 -0.5682687,-1.346533 -0.010666,-0.1213 0.075332,-0.304249 0.1840546,-0.391581 0.049495,-0.03975 0.3173711,-0.1729421 0.5952843,-0.2959716 0.2991629,-0.1324377 0.5135169,-0.2426712 0.5254457,-0.2702152 0.011086,-0.02559 0.013567,-0.1455827 0.00553,-0.266655 C 4.74271,9.1993427 4.7435378,8.9892918 4.7526334,8.8536361 4.7616171,8.7179805 4.7555846,8.5910819 4.7391205,8.5716398 4.7226661,8.5521997 4.4844145,8.4283492 4.2096663,8.2964235 3.8901321,8.1429952 3.6796789,8.0290856 3.6256409,7.9803195 3.5226622,7.8873887 3.4458981,7.6836211 3.4714018,7.5709017 3.4817498,7.5251817 3.6144808,7.2097561 3.7663689,6.8699527 L 4.0425281,6.2521279 4.154164,6.1929379 C 4.3514488,6.0883354 4.4188821,6.0975879 5.0502589,6.3158933 5.4076181,6.439452 5.6289522,6.5051072 5.654075,6.4950043 5.675885,6.4862043 5.7788167,6.3907308 5.8828063,6.2827794 5.9867959,6.1748287 6.1385327,6.0310231 6.2199989,5.9632128 6.3014704,5.8954025 6.3763212,5.8209871 6.3863428,5.7978481 6.3963545,5.7747081 6.3266316,5.53891 6.2313773,5.2738519 6.1361256,5.0087915 6.0473709,4.7498154 6.0341445,4.6983452 5.9969495,4.5535857 6.0270965,4.4059561 6.1182001,4.2868727 6.1869831,4.1969527 6.2568896,4.161748 6.8101237,3.938405 7.1486002,3.8017615 7.4739287,3.686414 7.5330789,3.68208 7.6703382,3.67202 7.8498098,3.74557 7.937492,3.8478139 c 0.03692,0.04305 0.1698067,0.2990991 0.2953044,0.5689942 0.1254967,0.2698921 0.2387459,0.5042314 0.2516648,0.5207505 0.013615,0.01741 0.1407709,0.025281 0.3024838,0.018721 0.1534482,-0.00621 0.3780237,-0.004 0.4990574,0.0051 0.16411,0.01222 0.232936,0.0051 0.2706957,-0.02812 0.027847,-0.024475 0.1613263,-0.2643756 0.296616,-0.5331077 0.2601869,-0.516821 0.3149639,-0.5928523 0.4759049,-0.6605717 0.179025,-0.075331 0.254903,-0.05611 0.94524,0.2393542 l 0.628784,0.269118 0.0711,0.1050854 c 0.122314,0.180798 0.113214,0.2578731 -0.101941,0.8637638 -0.104144,0.2932814 -0.193685,0.5576525 -0.198977,0.5874897 -0.0073,0.04199 0.03251,0.09165 0.176717,0.2197698 0.102481,0.091039 0.260485,0.2509379 0.351121,0.3553374 0.09064,0.1043998 0.174019,0.1936468 0.185298,0.1983267 0.0113,0.0047 0.264519,-0.07643 0.562759,-0.1802325 0.298244,-0.1038085 0.590779,-0.1925839 0.650085,-0.1972769 0.140189,-0.0111 0.310769,0.06032 0.410517,0.1718767 0.04734,0.05297 0.171693,0.3173226 0.317083,0.674188 0.249571,0.6125783 0.262586,0.6762138 0.178298,0.8717566 -0.05959,0.1383025 -0.161729,0.2028809 -0.711316,0.449833 -0.298833,0.1342766 -0.547349,0.2534221 -0.552262,0.2647681 -0.0048,0.01135 -0.0027,0.1513778 0.0047,0.3111803 0.0074,0.1598026 0.0045,0.3779897 -0.0064,0.484859 -0.01384,0.1327648 -0.0077,0.2068281 0.0187,0.2338383 0.02144,0.02174 0.274244,0.1545725 0.561749,0.295181 0.570553,0.2790382 0.654737,0.3418202 0.694405,0.5178842 0.03751,0.166443 0.0067,0.266777 -0.27186,0.888296 l -0.266563,0.594537 -0.11492,0.07005 c -0.205213,0.125076 -0.241501,0.120789 -0.909679,-0.107498 -0.326485,-0.111546 -0.601544,-0.199666 -0.611242,-0.195828 -0.0095,0.0038 -0.09219,0.08687 -0.183308,0.18451 -0.09113,0.09764 -0.253326,0.250453 -0.360462,0.339587 -0.107135,0.08913 -0.197568,0.177387 -0.200961,0.196121 -0.0033,0.01873 0.07729,0.264145 0.179358,0.545358 0.102044,0.281214 0.189475,0.567796 0.194299,0.636848 0.01025,0.146678 -0.03929,0.276914 -0.143213,0.376341 -0.09171,0.08774 -1.197156,0.535832 -1.350273,0.547321 -0.128012,0.0096 -0.321744,-0.06407 -0.411394,-0.156418 C 10.030301,14.359496 9.8940676,14.099055 9.7619115,13.816091 9.6297569,13.533128 9.5044797,13.294439 9.483518,13.28567 9.462555,13.27687 9.3202688,13.27416 9.1673233,13.27957 c -0.1529453,0.0054 -0.374626,0.002 -0.492622,-0.0076 -0.163092,-0.01323 -0.2223505,-0.0069 -0.2471086,0.02633 -0.01791,0.02403 -0.1495014,0.270506 -0.2924179,0.547701 -0.3143446,0.609703 -0.3682941,0.667548 -0.6393811,0.685562 -0.078611,0.0052 -0.1880897,-0.03368 -0.7296688,-0.259354 C 6.2868108,14.072524 6.1146055,13.99168 6.0710761,13.945941 Z m 2.1461123,-2.395597 c 0.6007049,0.179673 1.1784832,0.154549 1.7612193,-0.07658 0.4441411,-0.176165 0.7938231,-0.43553 1.1021671,-0.817497 0.1933,-0.239459 0.451991,-0.8379958 0.494421,-1.1439661 C 11.703797,8.5837411 11.3605,7.7182924 10.626567,7.1211838 10.455552,6.9820551 10.404694,6.9544849 10.024218,6.7946703 9.6597884,6.6415984 9.5808904,6.6164415 9.3830301,6.5902384 8.3951019,6.4594078 7.416276,6.8748285 6.8569142,7.6623431 6.3543594,8.3698773 6.2541907,9.26335 6.5866037,10.073428 c 0.1740482,0.424145 0.4727137,0.806308 0.8524159,1.090716 0.1082737,0.0811 0.2705342,0.17631 0.5077001,0.29791 0.018949,0.0097 0.1406741,0.04943 0.2705039,0.08831 z M 8.0500969,10.329153 C 7.5132138,9.9163636 7.3075313,9.2348068 7.53231,8.6133912 7.6894723,8.1789043 7.9839337,7.878312 8.4209744,7.7062233 c 0.7959162,-0.3134004 1.6917176,0.05231 2.0106936,0.8208655 0.262725,0.6330248 0.09834,1.3100566 -0.424274,1.7473422 -0.4451283,0.372453 -1.0090473,0.467246 -1.5616883,0.262505 -0.1881411,-0.0697 -0.2761131,-0.115908 -0.3956088,-0.207783 z M 8.9831096,10.023544 C 9.177238,10.031744 9.5184123,9.9328041 9.6750334,9.8001301 9.7855536,9.7065101 9.8097616,9.6701155 9.8997581,9.4623227 9.9955004,9.2412719 9.9371475,9.2202457 9.9202707,9.0484041 9.8862021,8.7015254 9.7163004,8.4624117 9.3958666,8.3103698 9.1384601,8.1882333 8.9574039,8.1774371 8.69395,8.2685197 8.3599236,8.3839969 8.1344553,8.6436711 8.0838253,8.9712066 c -0.043825,0.2835011 0.022771,0.5159812 0.2100373,0.7332643 0.1747041,0.2027068 0.3997792,0.3069011 0.68925,0.3190771 z"
       style="fill:#a5a5a5;fill-opacity:1;stroke-width:0.244644" />
    <path
       sodipodi:nodetypes="ssssssssssssssssssssscsssssssssssssssssssscssssssssssssssssssscsscsscsssssscssssssssssssssssscsssssssssssssssss"
       inkscape:connector-curvature="0"
       id="path2986"
       d="m 6.0711113,13.704346 c -0.074881,-0.07869 -0.1284059,-0.222733 -0.127715,-0.343742 3.521e-4,-0.06237 0.066023,-0.27542 0.1876964,-0.608951 0.1029315,-0.282161 0.1885155,-0.53836 0.1901869,-0.569328 0.00227,-0.04108 -0.04778,-0.101451 -0.1848443,-0.22321 -0.1033349,-0.09179 -0.2535184,-0.242571 -0.3337401,-0.335058 -0.080224,-0.0925 -0.16807,-0.177376 -0.1952173,-0.188646 -0.030443,-0.01264 -0.2544131,0.05083 -0.5845687,0.16564 -0.294363,0.102366 -0.5769172,0.189101 -0.6278981,0.192748 -0.1049386,0.0075 -0.3019253,-0.06593 -0.3862638,-0.144002 C 3.9416908,11.587728 3.4512298,10.425564 3.4404786,10.303264 3.429813,10.181961 3.5158092,9.9990141 3.6245332,9.9116816 3.6740281,9.8719316 3.9419052,9.7387379 4.2198175,9.6157085 4.5189804,9.4832699 4.7333344,9.3730373 4.7452632,9.3454933 c 0.011084,-0.02559 0.013567,-0.1455825 0.00552,-0.2666552 -0.00808,-0.1210735 -0.00726,-0.3311235 0.00183,-0.4667789 0.00899,-0.1356556 0.00297,-0.2625535 -0.013511,-0.2819963 C 4.7226583,8.3106229 4.484407,8.1867732 4.2096576,8.0548467 3.8901311,7.9014171 3.6796779,7.7875075 3.6256399,7.7387423 3.5226622,7.6458119 3.4458981,7.4420442 3.4714018,7.3293246 3.4817501,7.2836044 3.6144808,6.9681793 3.7663679,6.6283758 L 4.0425281,6.0105509 4.154164,5.9513609 C 4.3514479,5.8467574 4.4188821,5.8560109 5.0502578,6.0743154 5.4076171,6.1978748 5.6289512,6.2635303 5.6540739,6.2534273 5.6758843,6.2446273 5.7788167,6.1491536 5.8828052,6.0412024 5.9867949,5.9332516 6.1385327,5.7894459 6.2199989,5.7216358 6.3014704,5.6538253 6.3763212,5.5794101 6.3863418,5.5562711 6.3963534,5.5331309 6.3266307,5.297333 6.2313773,5.0322746 6.1361256,4.7672146 6.0473701,4.5082376 6.0341445,4.4567684 5.9969491,4.3120075 6.0270958,4.1643791 6.1182004,4.0452956 6.1869828,3.9553754 6.2568889,3.920171 6.810123,3.6968281 7.1486005,3.5601847 7.473929,3.4448368 7.5330782,3.4405031 c 0.1372603,-0.01006 0.3167319,0.063492 0.4044131,0.1657339 0.03692,0.043049 0.1698077,0.2990991 0.2953044,0.568994 0.1254977,0.2698934 0.2387469,0.5042312 0.2516658,0.5207506 0.013615,0.01741 0.1407699,0.025281 0.3024838,0.018719 0.1534472,-0.00619 0.3780237,-0.004 0.4990574,0.0051 0.16411,0.01222 0.232935,0.0051 0.2706946,-0.028121 0.027847,-0.024482 0.1613264,-0.2643745 0.2966171,-0.5331065 0.2601876,-0.516819 0.3149636,-0.5928505 0.4759046,-0.6605687 0.179025,-0.07533 0.254903,-0.05611 0.945239,0.2393519 l 0.628784,0.2691191 0.0711,0.1050855 c 0.122314,0.1807978 0.113214,0.2578731 -0.101941,0.8637625 -0.104145,0.2932825 -0.193685,0.5576533 -0.198977,0.5874906 -0.0073,0.04199 0.03251,0.09165 0.176717,0.2197699 0.102481,0.091044 0.260485,0.2509372 0.35112,0.3553377 0.09066,0.1044005 0.174019,0.1936468 0.185299,0.1983269 0.0113,0.0047 0.264519,-0.07643 0.562759,-0.1802329 0.298244,-0.1038085 0.590779,-0.1925828 0.650085,-0.1972768 0.140188,-0.0111 0.310769,0.06032 0.410516,0.1718768 0.04734,0.05297 0.171691,0.3173223 0.317084,0.674188 0.24957,0.6125786 0.262586,0.6762136 0.178298,0.8717566 -0.05959,0.1383025 -0.16173,0.2028808 -0.711317,0.4498339 -0.298832,0.1342756 -0.547348,0.2534212 -0.552262,0.2647672 -0.0048,0.01135 -0.0027,0.1513765 0.0047,0.3111802 0.0074,0.1598027 0.0046,0.3779896 -0.0064,0.484859 -0.01383,0.1327638 -0.0077,0.2068279 0.01876,0.2338371 0.02144,0.02174 0.274241,0.1545736 0.561748,0.2951812 0.570552,0.2790422 0.654735,0.3418222 0.694406,0.5178852 0.03751,0.166442 0.0067,0.266773 -0.271861,0.888298 l -0.266574,0.594535 -0.114922,0.07005 c -0.205213,0.12508 -0.241498,0.120788 -0.909675,-0.107494 -0.326486,-0.111547 -0.601546,-0.199673 -0.611245,-0.195829 -0.0095,0.0038 -0.09219,0.08687 -0.183304,0.184509 -0.09113,0.09764 -0.253331,0.250453 -0.360465,0.339586 -0.107134,0.08913 -0.197567,0.177388 -0.200961,0.196121 -0.0033,0.01871 0.07729,0.264148 0.179358,0.545362 0.102044,0.281213 0.189474,0.567797 0.194299,0.636848 0.01027,0.146675 -0.03929,0.27691 -0.143212,0.376341 -0.09171,0.08774 -1.197158,0.535829 -1.350273,0.547315 -0.128026,0.0096 -0.321757,-0.06405 -0.411406,-0.15641 -0.03432,-0.03541 -0.1705513,-0.295861 -0.302708,-0.578822 -0.132155,-0.282962 -0.2574331,-0.521654 -0.2783949,-0.53042 -0.020963,-0.0088 -0.1632494,-0.01151 -0.3161951,-0.0061 -0.1529453,0.0054 -0.3746246,0.002 -0.4926219,-0.0076 -0.1630908,-0.01323 -0.2223495,-0.0069 -0.2471075,0.02633 -0.01791,0.02406 -0.1495006,0.270534 -0.2924173,0.547728 -0.3143454,0.609592 -0.3682962,0.667434 -0.6393828,0.685444 -0.07861,0.0052 -0.1880902,-0.03369 -0.7296685,-0.259351 -0.4793471,-0.199716 -0.6515525,-0.28056 -0.695081,-0.326297 z m 2.1461123,-2.395599 c 0.6007049,0.179673 1.1784832,0.154548 1.7612193,-0.07658 0.4441411,-0.176173 0.7938231,-0.435538 1.1021671,-0.817502 0.1933,-0.239458 0.451991,-0.8379959 0.494421,-1.1439661 C 11.703797,8.342162 11.3605,7.4767133 10.626567,6.8796046 10.455552,6.7404759 10.404694,6.7129073 10.024218,6.5530924 9.6597884,6.4000207 9.5808904,6.3748634 9.3830301,6.3486603 8.3951019,6.2178299 7.416276,6.6332503 6.8569142,7.4207638 6.3543594,8.128299 6.2541907,9.0217718 6.5866037,9.8318492 c 0.1740482,0.4241488 0.4727137,0.8063078 0.8524159,1.0907198 0.1082737,0.0811 0.2705342,0.176311 0.5077001,0.297907 0.018949,0.0097 0.1406741,0.04943 0.2705039,0.08828 z M 8.0500969,10.087576 C 7.5132138,9.6747869 7.3075313,8.9932299 7.53231,8.3718141 7.6894723,7.9373272 7.9839337,7.6367339 8.4209744,7.4646463 9.2168906,7.1512459 10.112692,7.5169562 10.431668,8.2855127 10.694393,8.9185363 10.529999,9.5955675 10.007394,10.032855 9.5622657,10.40531 8.9983467,10.500097 8.4457057,10.295359 8.2575646,10.225658 8.1695926,10.179451 8.0500969,10.087576 Z M 8.9831096,9.7819671 c 0.1941284,0.0082 0.5353027,-0.09073 0.6919238,-0.223414 C 9.7855536,9.4649321 9.8097616,9.4285385 9.8997581,9.2207447 9.9954994,8.9996946 9.9371475,8.9786677 9.9202717,8.8068271 9.8862021,8.4599476 9.7163004,8.2208345 9.3958666,8.0687929 9.1384601,7.9466553 8.9574039,7.9358602 8.69395,8.0269428 8.3599236,8.1424191 8.1344553,8.402093 8.0838253,8.7296296 c -0.043826,0.2834993 0.022771,0.5159802 0.2100373,0.7332641 0.1747041,0.2027048 0.3997792,0.3068992 0.68925,0.3190765 z"
       style="fill:#dedede;fill-opacity:1;stroke-width:0.244644" />
  </g>
</svg>
