<?xml version="1.0" encoding="UTF-8" standalone="no"?>
<svg
   width="68"
   height="68"
   viewBox="0 0 17.991665 17.991665"
   version="1.1"
   id="svg1114"
   inkscape:version="1.3.2 (091e20ef0f, 2023-11-25)"
   sodipodi:docname="applications-science.svg"
   xmlns:inkscape="http://www.inkscape.org/namespaces/inkscape"
   xmlns:sodipodi="http://sodipodi.sourceforge.net/DTD/sodipodi-0.dtd"
   xmlns:xlink="http://www.w3.org/1999/xlink"
   xmlns="http://www.w3.org/2000/svg"
   xmlns:svg="http://www.w3.org/2000/svg"
   xmlns:rdf="http://www.w3.org/1999/02/22-rdf-syntax-ns#"
   xmlns:cc="http://creativecommons.org/ns#"
   xmlns:dc="http://purl.org/dc/elements/1.1/">
  <style
     type="text/css"
     id="current-color-scheme">.ColorScheme-Highlight { color:#5599ff; }
</style>
  <defs
     id="defs1108">
    <linearGradient
       id="linearGradient12"
       inkscape:collect="always">
      <stop
         style="stop-color:#ffffff;stop-opacity:0;"
         offset="0"
         id="stop10" />
      <stop
         id="stop11"
         offset="0.65909404"
         style="stop-color:#ffffff;stop-opacity:0" />
      <stop
         style="stop-color:#ffffff;stop-opacity:1;"
         offset="1"
         id="stop12" />
    </linearGradient>
    <linearGradient
       id="linearGradient9"
       inkscape:collect="always">
      <stop
         style="stop-color:#000000;stop-opacity:0;"
         offset="0"
         id="stop1" />
      <stop
         id="stop8"
         offset="0.66102529"
         style="stop-color:#000000;stop-opacity:0" />
      <stop
         style="stop-color:#000000;stop-opacity:1;"
         offset="1"
         id="stop9" />
    </linearGradient>
    <linearGradient
       id="linearGradient7"
       inkscape:collect="always">
      <stop
         style="stop-color:#000000;stop-opacity:0;"
         offset="0"
         id="stop5" />
      <stop
         id="stop6"
         offset="0.6586886"
         style="stop-color:#000000;stop-opacity:0" />
      <stop
         style="stop-color:#000000;stop-opacity:1;"
         offset="1"
         id="stop7" />
    </linearGradient>
    <linearGradient
       id="linearGradient4"
       inkscape:collect="always">
      <stop
         style="stop-color:#000000;stop-opacity:0;"
         offset="0"
         id="stop2" />
      <stop
         id="stop3"
         offset="0.67055255"
         style="stop-color:#000000;stop-opacity:0" />
      <stop
         style="stop-color:#000000;stop-opacity:1;"
         offset="1"
         id="stop4" />
    </linearGradient>
    <linearGradient
       inkscape:collect="always"
       id="linearGradient899">
      <stop
         style="stop-color:#00d4aa;stop-opacity:1;"
         offset="0"
         id="stop895" />
      <stop
         style="stop-color:#5599ff;stop-opacity:1;"
         offset="1"
         id="stop897" />
    </linearGradient>
    <linearGradient
       id="linearGradient1167"
       x1="40.751999"
       x2="40.751999"
       y1="28.507999"
       y2="17.205999"
       gradientUnits="userSpaceOnUse">
      <stop
         style="stop-color:#84fb6e;stop-opacity:1"
         stop-color="#0ab816"
         offset="0"
         id="stop1163" />
      <stop
         style="stop-color:#0dd41a;stop-opacity:1"
         stop-color="#0cf36c"
         offset="1"
         id="stop1165" />
    </linearGradient>
    <linearGradient
       id="cornerBevel"
       inkscape:collect="always">
      <stop
         style="stop-color:#000000;stop-opacity:0;"
         offset="0"
         id="stop2663" />
      <stop
         id="stop2671"
         offset="0.66666675"
         style="stop-color:#000000;stop-opacity:0" />
      <stop
         style="stop-color:#000000;stop-opacity:1;"
         offset="1"
         id="stop2661" />
    </linearGradient>
    <linearGradient
       id="bevel"
       inkscape:collect="always">
      <stop
         id="stop2685"
         offset="0"
         style="stop-color:#000000;stop-opacity:1;" />
      <stop
         id="stop2687"
         offset="1"
         style="stop-color:#000000;stop-opacity:0;" />
    </linearGradient>
    <linearGradient
       id="highlightCorner"
       inkscape:collect="always">
      <stop
         style="stop-color:#ffffff;stop-opacity:0;"
         offset="0"
         id="stop2613" />
      <stop
         id="stop2621"
         offset="0.66666669"
         style="stop-color:#ffffff;stop-opacity:0" />
      <stop
         style="stop-color:#ffffff;stop-opacity:1;"
         offset="1"
         id="stop2611" />
    </linearGradient>
    <linearGradient
       inkscape:collect="always"
       id="highlight">
      <stop
         style="stop-color:#ffffff;stop-opacity:1;"
         offset="0"
         id="stop2921" />
      <stop
         style="stop-color:#ffffff;stop-opacity:0;"
         offset="1"
         id="stop2923" />
    </linearGradient>
    <radialGradient
       inkscape:collect="always"
       xlink:href="#highlightCorner"
       id="radialGradient15"
       gradientUnits="userSpaceOnUse"
       gradientTransform="matrix(0.04294597,-12.079348,17.933991,0.06376112,14.524179,-50.373789)"
       cx="-4.5799766"
       cy="-0.50206107"
       fx="-4.5799766"
       fy="-0.50206107"
       r="0.39687499" />
    <linearGradient
       inkscape:collect="always"
       xlink:href="#highlight"
       id="linearGradient15"
       gradientUnits="userSpaceOnUse"
       x1="-3.8453064"
       y1="-1.1532172"
       x2="-3.8453064"
       y2="-0.8954913"
       gradientTransform="matrix(6.0923077,0,0,6.0923077,32.228528,7.1537621)" />
    <radialGradient
       inkscape:collect="always"
       xlink:href="#linearGradient12"
       id="radialGradient17"
       gradientUnits="userSpaceOnUse"
       gradientTransform="matrix(-0.02247554,-12.045403,-17.967828,0.03352619,1.6640208,-50.22331)"
       cx="-4.575222"
       cy="-0.55256462"
       fx="-4.575222"
       fy="-0.55256462"
       r="0.39687499" />
    <radialGradient
       inkscape:collect="always"
       xlink:href="#linearGradient7"
       id="radialGradient18"
       gradientUnits="userSpaceOnUse"
       gradientTransform="matrix(0.06461187,12.09952,17.933731,-0.09576873,14.609502,64.748231)"
       cx="-4.4284906"
       cy="-0.50121039"
       fx="-4.4284906"
       fy="-0.50121039"
       r="0.39687499" />
    <linearGradient
       inkscape:collect="always"
       xlink:href="#bevel"
       id="linearGradient18"
       gradientUnits="userSpaceOnUse"
       x1="-3.8415797"
       y1="-1.4506671"
       x2="-3.8406549"
       y2="-1.1968651"
       gradientTransform="matrix(6.0923076,0,0,6.0923076,32.228527,-7.1537627)" />
    <radialGradient
       inkscape:collect="always"
       xlink:href="#linearGradient4"
       id="radialGradient20"
       gradientUnits="userSpaceOnUse"
       gradientTransform="matrix(-0.01031383,11.991438,-17.967296,-0.01545561,1.7353715,64.305742)"
       cx="-4.4236727"
       cy="-0.55004197"
       fx="-4.4236727"
       fy="-0.55004197"
       r="0.39687499" />
    <radialGradient
       inkscape:collect="always"
       xlink:href="#cornerBevel"
       id="radialGradient25"
       gradientUnits="userSpaceOnUse"
       gradientTransform="matrix(12.184614,0,0,12.184614,59.63122,10.377613)"
       cx="-4.4568658"
       cy="-0.44864327"
       fx="-4.4568658"
       fy="-0.44864327"
       r="0.39687496" />
    <linearGradient
       inkscape:collect="always"
       xlink:href="#bevel"
       id="linearGradient25"
       gradientUnits="userSpaceOnUse"
       x1="-3.8487544"
       y1="-1.146081"
       x2="-3.8455966"
       y2="-0.890971"
       gradientTransform="matrix(6.0923077,0,0,6.0923077,32.228528,7.1537627)" />
    <radialGradient
       inkscape:collect="always"
       xlink:href="#cornerBevel"
       id="radialGradient29"
       gradientUnits="userSpaceOnUse"
       gradientTransform="matrix(0,-12.184614,12.184614,0,11.27353,-44.427768)"
       cx="-4.5705457"
       cy="-0.48653662"
       fx="-4.5705457"
       fy="-0.48653662"
       r="0.39687496" />
    <radialGradient
       inkscape:collect="always"
       xlink:href="#cornerBevel"
       id="radialGradient30"
       gradientUnits="userSpaceOnUse"
       gradientTransform="matrix(-12.184514,-0.04945749,0.04847411,-11.942243,-43.502155,3.8519053)"
       cx="-4.5342312"
       cy="-0.60337442"
       fx="-4.5342312"
       fy="-0.60337442"
       r="0.39687496" />
    <radialGradient
       inkscape:collect="always"
       xlink:href="#linearGradient9"
       id="radialGradient31"
       gradientUnits="userSpaceOnUse"
       gradientTransform="matrix(0,-12.151612,11.978956,0,18.475664,-48.770776)"
       cx="-4.4175329"
       cy="-0.56489283"
       fx="-4.4175329"
       fy="-0.56489283"
       r="0.39687496" />
    <linearGradient
       inkscape:collect="always"
       xlink:href="#bevel"
       id="linearGradient34"
       gradientUnits="userSpaceOnUse"
       x1="-3.99717"
       y1="-1.2218677"
       x2="-4.0003276"
       y2="-0.96675771"
       gradientTransform="matrix(6.0923077,0,0,6.0923077,17.025077,8.0496826)" />
    <linearGradient
       inkscape:collect="always"
       xlink:href="#bevel"
       id="linearGradient35"
       gradientUnits="userSpaceOnUse"
       x1="-4.0919032"
       y1="-1.4492278"
       x2="-4.0950613"
       y2="-1.1972755"
       gradientTransform="matrix(6.0923077,0,0,6.0923077,16.129161,-7.1537627)" />
    <linearGradient
       inkscape:collect="always"
       xlink:href="#bevel"
       id="linearGradient36"
       gradientUnits="userSpaceOnUse"
       x1="-3.8734362"
       y1="-1.3717227"
       x2="-3.8765941"
       y2="-1.116071"
       gradientTransform="matrix(6.0923077,0,0,6.0923077,31.33261,-8.0496826)" />
    <linearGradient
       id="paint2_linear_77:3-7"
       x1="79.398094"
       y1="-197.84389"
       x2="82.901054"
       y2="-199.97827"
       gradientUnits="userSpaceOnUse"
       gradientTransform="matrix(1.9248511,0,0,1.7314595,-40.88733,399.61741)">
      <stop
         stop-color="#EBFAFF"
         stop-opacity="0.1"
         id="stop29-5-7"
         offset="0"
         style="stop-color:#c3c3c3;stop-opacity:1;" />
      <stop
         offset="1"
         stop-color="#70A9FF"
         stop-opacity="0.5"
         id="stop30-0-1"
         style="stop-color:#05c7ff;stop-opacity:0.80000001;" />
    </linearGradient>
    <linearGradient
       inkscape:collect="always"
       xlink:href="#linearGradient899"
       id="linearGradient926"
       x1="1.0705695"
       y1="-9.3678083"
       x2="16.919081"
       y2="-9.2251434"
       gradientUnits="userSpaceOnUse"
       gradientTransform="translate(-0.92604234,0.47624996)" />
    <linearGradient
       id="linearGradient4213">
      <stop
         style="stop-color:#ee6406"
         id="stop2-3" />
      <stop
         offset="1"
         style="stop-color:#ffce0d"
         id="stop4-6" />
    </linearGradient>
    <linearGradient
       xlink:href="#linearGradient4213"
       id="linearGradient4234-9-7"
       x1="428.57101"
       x2="388.57101"
       gradientUnits="userSpaceOnUse"
       gradientTransform="matrix(0.20269488,0,0,0.34081434,-75.249641,-168.77312)" />
  </defs>
  <sodipodi:namedview
     id="base"
     pagecolor="#e2e2e2"
     bordercolor="#666666"
     borderopacity="1.0"
     inkscape:pageopacity="0"
     inkscape:pageshadow="2"
     inkscape:zoom="9.7248729"
     inkscape:cx="32.596827"
     inkscape:cy="31.774194"
     inkscape:document-units="px"
     inkscape:current-layer="layer1"
     inkscape:document-rotation="0"
     showgrid="true"
     units="px"
     inkscape:window-width="1920"
     inkscape:window-height="990"
     inkscape:window-x="0"
     inkscape:window-y="0"
     inkscape:window-maximized="1"
     inkscape:object-paths="true"
     inkscape:snap-grids="true"
     inkscape:snap-intersection-paths="true"
     inkscape:snap-smooth-nodes="true"
     inkscape:snap-midpoints="true"
     inkscape:showpageshadow="2"
     inkscape:pagecheckerboard="0"
     inkscape:deskcolor="#d1d1d1">
    <inkscape:grid
       id="grid2"
       units="px"
       originx="0"
       originy="0"
       spacingx="0.26458333"
       spacingy="0.26458333"
       empcolor="#0099e5"
       empopacity="0.30196078"
       color="#0099e5"
       opacity="0.14902"
       empspacing="5"
       dotted="false"
       gridanglex="30"
       gridanglez="30"
       visible="true" />
  </sodipodi:namedview>
  <metadata
     id="metadata1111">
    <rdf:RDF>
      <cc:Work
         rdf:about="">
        <dc:format>image/svg+xml</dc:format>
        <dc:type
           rdf:resource="http://purl.org/dc/dcmitype/StillImage" />
      </cc:Work>
    </rdf:RDF>
  </metadata>
  <g
     inkscape:label="Layer 1"
     inkscape:groupmode="layer"
     id="layer1">
    <g
       id="g918"
       transform="translate(0.47625037,0.92604234)">
      <rect
         ry="4.8357682"
         rx="4.8357682"
         style="fill:url(#linearGradient926);fill-opacity:1;stroke-width:6.09228"
         x="0.13229237"
         y="-16.457085"
         width="15.875001"
         height="15.875001"
         id="use1056"
         transform="rotate(90)"
         class="ColorScheme-Highlight" />
      <path
         d="m 5.344583,0.13229167 c -2.6384245,0 -4.76249953,2.12407483 -4.76249953,4.76249963 H 5.344583 Z"
         style="opacity:0.15;fill:url(#radialGradient25);fill-opacity:1;stroke-width:6.09228"
         id="path20" />
      <rect
         y="0.13229151"
         x="5.3445826"
         height="1.5875"
         width="6.3500004"
         id="rect20"
         style="opacity:0.15;fill:url(#linearGradient25);fill-opacity:1;stroke-width:4.83577;stroke-linecap:round;stroke-linejoin:round;paint-order:stroke fill markers" />
      <path
         d="m 0.58208347,11.244792 c 0,2.638424 2.12407503,4.762499 4.76249953,4.762499 v -4.762499 z"
         style="opacity:0.15;fill:url(#radialGradient29);fill-opacity:1;stroke-width:6.09228"
         id="use20" />
      <rect
         y="0.5820834"
         x="-11.244792"
         height="1.5875"
         width="6.3500004"
         id="use21"
         style="opacity:0.15;fill:url(#linearGradient34);fill-opacity:1;stroke-width:4.83577;stroke-linecap:round;stroke-linejoin:round;paint-order:stroke fill markers"
         transform="rotate(-90)" />
      <path
         d="m 11.694583,16.007291 c 2.638425,0 4.7625,-2.124074 4.7625,-4.762499 h -4.7625 z"
         style="opacity:0.15;fill:url(#radialGradient30);fill-opacity:1;stroke-width:6.09228"
         id="use22" />
      <rect
         y="-16.007292"
         x="-11.694584"
         height="1.5875"
         width="6.3500004"
         id="use23"
         style="opacity:0.15;fill:url(#linearGradient35);fill-opacity:1;stroke-width:4.83577;stroke-linecap:round;stroke-linejoin:round;paint-order:stroke fill markers"
         transform="scale(-1)" />
      <path
         d="m 16.457083,4.8947913 c 0,-2.6384245 -2.124074,-4.76249963 -4.7625,-4.76249963 V 4.8947913 Z"
         style="opacity:0.15;fill:url(#radialGradient31);fill-opacity:1;stroke-width:6.09228"
         id="use24" />
      <rect
         y="-16.457081"
         x="4.8947906"
         height="1.5875"
         width="6.3500004"
         id="use25"
         style="opacity:0.15;fill:url(#linearGradient36);fill-opacity:1;stroke-width:4.83577;stroke-linecap:round;stroke-linejoin:round;paint-order:stroke fill markers"
         transform="rotate(90)" />
      <path
         d="m 5.3445832,0.13229107 c -2.638425,0 -4.76250035,2.12407473 -4.76250035,4.76249973 H 5.3445832 Z"
         style="opacity:0.5;fill:url(#radialGradient15);fill-opacity:1;stroke-width:6.09228"
         id="path14" />
      <rect
         y="0.1322909"
         x="5.3445826"
         height="1.5875"
         width="6.3499999"
         id="rect14"
         style="opacity:0.5;fill:url(#linearGradient15);fill-opacity:1;stroke-width:4.83577;stroke-linecap:round;stroke-linejoin:round;paint-order:stroke fill markers" />
      <path
         d="m 11.694583,0.13229096 c 2.638425,0 4.7625,2.12407504 4.7625,4.76249734 h -4.7625 z"
         style="opacity:0.5;fill:url(#radialGradient17);fill-opacity:1;stroke-width:6.09228"
         id="use14" />
      <path
         id="path17"
         style="opacity:0.5;fill:url(#radialGradient18);fill-opacity:1;stroke-width:6.09228"
         d="m 5.3445834,16.00729 c -2.638425,0 -4.7625,-2.124075 -4.7625,-4.7625 h 4.7625 z" />
      <rect
         style="opacity:0.5;fill:url(#linearGradient18);fill-opacity:1;stroke-width:4.83577;stroke-linecap:round;stroke-linejoin:round;paint-order:stroke fill markers"
         id="rect17"
         width="6.3499994"
         height="1.5874999"
         x="5.3445826"
         y="-16.007292"
         transform="scale(1,-1)" />
      <path
         id="use17"
         style="opacity:0.5;fill:url(#radialGradient20);fill-opacity:1;stroke-width:6.09228"
         d="m 11.694582,16.007291 c 2.638425,0 4.7625,-2.124075 4.7625,-4.7625 h -4.7625 z" />
    </g>
    <path
       style="opacity:0.2;stroke-width:0.264583"
       d="M 8.7975246,3.4453567 A 1.0943317,1.0829481 0 0 0 7.7373913,4.2639037 C 7.1908381,4.5613296 6.7310438,5.0752476 6.3844142,5.6926906 6.1455107,6.1182396 5.9538056,6.6051286 5.8094523,7.1331195 5.3318971,7.4075985 4.9059721,7.7170455 4.5526673,8.0553045 3.7350919,8.8381125 3.2473484,9.8263021 3.5117939,10.802853 c 0.2644123,0.97655 1.1866385,1.592152 2.2901623,1.86554 0.1296234,0.03208 0.2636191,0.05883 0.3996883,0.08252 0.058084,0.123458 0.1180946,0.244412 0.1827423,0.359573 0.5531845,0.9844 1.3919897,1.706183 2.4135482,1.706183 1.0216129,0 1.860639,-0.72173 2.41311,-1.705858 0.238907,-0.425549 0.430612,-0.91244 0.574966,-1.44043 0.477555,-0.274477 0.903481,-0.583925 1.256784,-0.922187 0.260645,-0.249562 0.482665,-0.521582 0.662563,-0.8058789 a 1.0943317,1.0829481 0 0 0 0.01698,0.0011 1.0943317,1.0829481 0 0 0 1.09433,-1.0829546 1.0943317,1.0829481 0 0 0 -0.800504,-1.041796 c -0.325579,-0.869105 -1.191195,-1.4279059 -2.222602,-1.6834819 -0.129679,-0.03249 -0.263736,-0.05902 -0.39998,-0.08285 -0.058,-0.123456 -0.11819,-0.244205 -0.182752,-0.359539 -0.346358,-0.61728 -0.806525,-1.131139 -1.3525971,-1.4285709 a 1.0943317,1.0829481 0 0 0 -1.0604074,-0.81854 z m -0.725651,1.8919649 a 1.0943317,1.0829481 0 0 0 0.7255416,0.273985 1.0943317,1.0829481 0 0 0 0.7200701,-0.269654 c 0.1981889,0.145949 0.3936422,0.344708 0.5760017,0.616577 -0.6833556,0.01115 -1.4079123,0.109941 -2.1459294,0.305634 -0.2528293,0.06704 -0.4960337,0.145419 -0.7341875,0.229494 0.043024,-0.09051 0.080745,-0.192267 0.1271722,-0.274966 0.2253725,-0.401449 0.4749347,-0.691625 0.7309589,-0.880978 z m 1.9428774,1.7058599 c 0.208633,-0.0064 0.402949,0.006 0.597396,0.01798 0.22817,0.674135 0.373714,1.47335 0.373714,2.3407916 0,0.545589 -0.06387,1.0597199 -0.161369,1.5398439 -0.443272,0.217324 -0.928598,0.410906 -1.4608804,0.552034 -0.8467392,0.224529 -1.6640953,0.292372 -2.381047,0.248527 -0.2287152,-0.673594 -0.3742614,-1.472813 -0.3742614,-2.3402549 0,-0.5455886 0.063907,-1.0597176 0.1613703,-1.5398436 0.4432698,-0.21732 0.9285954,-0.410903 1.4608778,-0.552032 0.6170935,-0.163628 1.2230252,-0.249306 1.7836517,-0.266508 z m 1.808219,0.228436 c 0.587603,0.195343 0.951686,0.492118 1.119994,0.829105 a 1.0943317,1.0829481 0 0 0 -0.315714,0.759687 1.0943317,1.0829481 0 0 0 0.139995,0.5287826 c -0.122415,0.189662 -0.280446,0.384614 -0.486245,0.581651 -0.06836,0.06552 -0.158135,0.1277889 -0.234734,0.1922239 0.02026,-0.2496199 0.03397,-0.5019459 0.03397,-0.7613129 0,-0.7558966 -0.09139,-1.4738916 -0.257716,-2.1301576 z M 8.7971416,7.7773545 A 1.6414974,1.6244218 0 0 0 7.1556443,9.4017761 1.6414974,1.6244218 0 0 0 8.7971416,11.026201 1.6414974,1.6244218 0 0 0 10.43864,9.4017761 1.6414974,1.6244218 0 0 0 8.7971416,7.7773545 Z m -3.2487968,0.863001 c -0.020246,0.249619 -0.033921,0.5019469 -0.033921,0.7613116 0,0.7559529 0.091628,1.4739489 0.2575511,2.1299469 C 5.0805183,11.301487 4.6811424,10.934367 4.5695202,10.522303 4.4429061,10.054469 4.6656022,9.4528911 5.3133375,8.8323615 5.3819515,8.7668405 5.4714136,8.7045745 5.5481808,8.6401395 Z M 10.380913,12.31009 c -0.04303,0.09055 -0.08075,0.192267 -0.127172,0.274968 -0.4377328,0.779722 -0.9673895,1.148465 -1.4565557,1.148465 -0.430986,0 -0.8931386,-0.287431 -1.2962902,-0.888342 0.6833554,-0.01117 1.4079118,-0.109941 2.1459293,-0.305636 0.2528289,-0.06701 0.4960336,-0.145417 0.7341876,-0.229493 z"
       id="path2-3" />
    <path
       style="fill:#ffffff;stroke-width:0.264583"
       d="M 8.7975246,3.1749997 A 1.0943317,1.0829481 0 0 0 7.7373913,3.9935447 C 7.1908381,4.2909717 6.7310438,4.8048896 6.3844142,5.4223326 6.1455107,5.8478826 5.9538056,6.3347696 5.8094523,6.8627615 5.3318971,7.1372405 4.9059721,7.4466865 4.5526673,7.7849455 3.7350919,8.5677545 3.2473484,9.5559441 3.5117939,10.532493 c 0.2644123,0.976553 1.1866385,1.592154 2.2901623,1.865544 0.1296234,0.03208 0.2636191,0.05883 0.3996883,0.08251 0.058084,0.123455 0.1180946,0.244408 0.1827423,0.359572 0.5531845,0.984399 1.3919897,1.706183 2.4135482,1.706183 1.0216129,0 1.860639,-0.721729 2.41311,-1.70586 0.238907,-0.425551 0.430612,-0.912437 0.574966,-1.440427 0.477555,-0.274482 0.903481,-0.583929 1.256784,-0.922189 0.260645,-0.249562 0.482665,-0.5215839 0.662563,-0.8058789 a 1.0943317,1.0829481 0 0 0 0.01698,0.0011 1.0943317,1.0829481 0 0 0 1.094328,-1.0829466 1.0943317,1.0829481 0 0 0 -0.800504,-1.041796 c -0.325577,-0.8691029 -1.191193,-1.4279039 -2.2226,-1.6834799 -0.129679,-0.03249 -0.263736,-0.05902 -0.39998,-0.08284 -0.058,-0.123456 -0.11819,-0.244205 -0.182752,-0.359539 C 10.864472,4.8052146 10.404305,4.2913027 9.8582329,3.9938707 A 1.0943317,1.0829481 0 0 0 8.7978255,3.1753237 Z M 8.0719829,5.0669626 a 1.0943317,1.0829481 0 0 0 0.7255417,0.273932 1.0943317,1.0829481 0 0 0 0.7200704,-0.269653 c 0.1981884,0.145948 0.3936417,0.344707 0.576002,0.616575 -0.6833562,0.01115 -1.4079131,0.109941 -2.1459303,0.305636 -0.2528289,0.06704 -0.4960331,0.145418 -0.7341872,0.229492 0.043024,-0.09051 0.080745,-0.192266 0.1271726,-0.274965 0.225372,-0.401449 0.4749341,-0.691626 0.7309588,-0.880979 z m 1.9428771,1.70586 c 0.208633,-0.0064 0.402949,0.006 0.597399,0.01798 0.228166,0.6741359 0.373714,1.4733519 0.373714,2.3407929 0,0.5455886 -0.06387,1.0597185 -0.161372,1.5398445 -0.443272,0.217319 -0.9285974,0.410904 -1.46088,0.552034 -0.8467395,0.224527 -1.6640955,0.292367 -2.3810472,0.248527 -0.2287149,-0.6736 -0.374261,-1.4728148 -0.374261,-2.3402565 0,-0.545589 0.063906,-1.059719 0.1613704,-1.539843 0.4432699,-0.217321 0.9285947,-0.410903 1.4608779,-0.552033 0.6170934,-0.163629 1.2230248,-0.2493049 1.7836519,-0.2665079 z m 1.808221,0.2284369 c 0.5876,0.195342 0.951684,0.492119 1.119993,0.829105 a 1.0943317,1.0829481 0 0 0 -0.315713,0.759688 1.0943317,1.0829481 0 0 0 0.139999,0.528782 c -0.12242,0.1896616 -0.280453,0.3846136 -0.486253,0.5816506 -0.06835,0.06552 -0.158131,0.127788 -0.234735,0.192224 0.02031,-0.24962 0.03397,-0.501947 0.03397,-0.7613116 0,-0.755899 -0.0914,-1.473893 -0.257716,-2.13016 z M 8.7972511,7.5069965 A 1.6414974,1.6244218 0 0 0 7.1557536,9.1314185 1.6414974,1.6244218 0 0 0 8.7972511,10.75584 1.6414974,1.6244218 0 0 0 10.438748,9.1314185 1.6414974,1.6244218 0 0 0 8.7972511,7.5069965 Z m -3.2487968,0.863001 c -0.020242,0.24962 -0.033922,0.501946 -0.033922,0.761312 0,0.7559526 0.091628,1.4739465 0.257551,2.1299475 C 5.0806279,11.031129 4.6812515,10.664006 4.5696297,10.251945 4.4430153,9.7841111 4.6657117,9.1825334 5.313447,8.5620045 5.382061,8.4964845 5.4715231,8.4342155 5.5482904,8.3697805 Z m 4.8325687,3.6697365 c -0.04303,0.09054 -0.08075,0.192265 -0.127172,0.274965 -0.4377335,0.779723 -0.9673899,1.148467 -1.4565561,1.148467 -0.430986,0 -0.893139,-0.287432 -1.2962907,-0.888343 0.6833555,-0.01119 1.4079123,-0.109941 2.1459295,-0.305636 0.2528288,-0.06701 0.4960333,-0.145416 0.7341873,-0.229492 z"
       id="path3-6" />
    <path
       style="fill:#c83771;fill-opacity:1;stroke-width:0.264583"
       d="M 8.7975246,3.1749997 A 1.0943317,1.0829481 0 0 0 7.7031929,4.2579477 1.0943317,1.0829481 0 0 0 8.7975246,5.3408946 1.0943317,1.0829481 0 0 0 9.8918563,4.2579477 1.0943317,1.0829481 0 0 0 8.7975246,3.1749997 Z m 0,4.3317908 A 1.6414974,1.6244218 0 0 0 7.1560273,9.1312125 1.6414974,1.6244218 0 0 0 8.7975246,10.755634 1.6414974,1.6244218 0 0 0 10.439023,9.1312125 1.6414974,1.6244218 0 0 0 8.7975246,7.5067905 Z m 4.9244944,0 a 1.0943317,1.0829481 0 0 0 -1.094331,1.082948 1.0943317,1.0829481 0 0 0 1.094331,1.0829476 1.0943317,1.0829481 0 0 0 1.094331,-1.0829476 1.0943317,1.0829481 0 0 0 -1.094331,-1.082948 z"
       id="path5-7" />
  </g>
</svg>
