<?xml version="1.0" encoding="UTF-8" standalone="no"?>
<svg
   width="68"
   height="68"
   viewBox="0 0 17.991665 17.991665"
   version="1.1"
   id="svg1114"
   inkscape:version="1.3.2 (091e20ef0f, 2023-11-25)"
   sodipodi:docname="drive-partition.svg"
   xmlns:inkscape="http://www.inkscape.org/namespaces/inkscape"
   xmlns:sodipodi="http://sodipodi.sourceforge.net/DTD/sodipodi-0.dtd"
   xmlns:xlink="http://www.w3.org/1999/xlink"
   xmlns="http://www.w3.org/2000/svg"
   xmlns:svg="http://www.w3.org/2000/svg"
   xmlns:rdf="http://www.w3.org/1999/02/22-rdf-syntax-ns#"
   xmlns:cc="http://creativecommons.org/ns#"
   xmlns:dc="http://purl.org/dc/elements/1.1/">
  <style
     type="text/css"
     id="current-color-scheme">.ColorScheme-Highlight { color:#5599ff; }
</style>
  <defs
     id="defs1108">
    <linearGradient
       id="linearGradient12"
       inkscape:collect="always">
      <stop
         style="stop-color:#ffffff;stop-opacity:0;"
         offset="0"
         id="stop10" />
      <stop
         id="stop11"
         offset="0.65909404"
         style="stop-color:#ffffff;stop-opacity:0" />
      <stop
         style="stop-color:#ffffff;stop-opacity:1;"
         offset="1"
         id="stop12" />
    </linearGradient>
    <linearGradient
       id="linearGradient9"
       inkscape:collect="always">
      <stop
         style="stop-color:#000000;stop-opacity:0;"
         offset="0"
         id="stop1" />
      <stop
         id="stop8"
         offset="0.66102529"
         style="stop-color:#000000;stop-opacity:0" />
      <stop
         style="stop-color:#000000;stop-opacity:1;"
         offset="1"
         id="stop9" />
    </linearGradient>
    <linearGradient
       id="linearGradient7"
       inkscape:collect="always">
      <stop
         style="stop-color:#000000;stop-opacity:0;"
         offset="0"
         id="stop5" />
      <stop
         id="stop6"
         offset="0.6586886"
         style="stop-color:#000000;stop-opacity:0" />
      <stop
         style="stop-color:#000000;stop-opacity:1;"
         offset="1"
         id="stop7" />
    </linearGradient>
    <linearGradient
       id="linearGradient4"
       inkscape:collect="always">
      <stop
         style="stop-color:#000000;stop-opacity:0;"
         offset="0"
         id="stop2" />
      <stop
         id="stop3"
         offset="0.67055255"
         style="stop-color:#000000;stop-opacity:0" />
      <stop
         style="stop-color:#000000;stop-opacity:1;"
         offset="1"
         id="stop4" />
    </linearGradient>
    <linearGradient
       inkscape:collect="always"
       id="linearGradient899">
      <stop
         style="stop-color:#b380ff;stop-opacity:1;"
         offset="0"
         id="stop895" />
      <stop
         style="stop-color:#2a7fff;stop-opacity:1;"
         offset="1"
         id="stop897" />
    </linearGradient>
    <linearGradient
       id="linearGradient1167"
       x1="40.751999"
       x2="40.751999"
       y1="28.507999"
       y2="17.205999"
       gradientUnits="userSpaceOnUse">
      <stop
         style="stop-color:#84fb6e;stop-opacity:1"
         stop-color="#0ab816"
         offset="0"
         id="stop1163" />
      <stop
         style="stop-color:#0dd41a;stop-opacity:1"
         stop-color="#0cf36c"
         offset="1"
         id="stop1165" />
    </linearGradient>
    <linearGradient
       id="cornerBevel"
       inkscape:collect="always">
      <stop
         style="stop-color:#000000;stop-opacity:0;"
         offset="0"
         id="stop2663" />
      <stop
         id="stop2671"
         offset="0.66666675"
         style="stop-color:#000000;stop-opacity:0" />
      <stop
         style="stop-color:#000000;stop-opacity:1;"
         offset="1"
         id="stop2661" />
    </linearGradient>
    <linearGradient
       id="bevel"
       inkscape:collect="always">
      <stop
         id="stop2685"
         offset="0"
         style="stop-color:#000000;stop-opacity:1;" />
      <stop
         id="stop2687"
         offset="1"
         style="stop-color:#000000;stop-opacity:0;" />
    </linearGradient>
    <linearGradient
       id="highlightCorner"
       inkscape:collect="always">
      <stop
         style="stop-color:#ffffff;stop-opacity:0;"
         offset="0"
         id="stop2613" />
      <stop
         id="stop2621"
         offset="0.66666669"
         style="stop-color:#ffffff;stop-opacity:0" />
      <stop
         style="stop-color:#ffffff;stop-opacity:1;"
         offset="1"
         id="stop2611" />
    </linearGradient>
    <linearGradient
       inkscape:collect="always"
       id="highlight">
      <stop
         style="stop-color:#ffffff;stop-opacity:1;"
         offset="0"
         id="stop2921" />
      <stop
         style="stop-color:#ffffff;stop-opacity:0;"
         offset="1"
         id="stop2923" />
    </linearGradient>
    <radialGradient
       inkscape:collect="always"
       xlink:href="#highlightCorner"
       id="radialGradient15"
       gradientUnits="userSpaceOnUse"
       gradientTransform="matrix(0.04294597,-12.079348,17.933991,0.06376112,14.524179,-50.373789)"
       cx="-4.5799766"
       cy="-0.50206107"
       fx="-4.5799766"
       fy="-0.50206107"
       r="0.39687499" />
    <linearGradient
       inkscape:collect="always"
       xlink:href="#highlight"
       id="linearGradient15"
       gradientUnits="userSpaceOnUse"
       x1="-3.8453064"
       y1="-1.1532172"
       x2="-3.8453064"
       y2="-0.8954913"
       gradientTransform="matrix(6.0923077,0,0,6.0923077,32.228528,7.1537621)" />
    <radialGradient
       inkscape:collect="always"
       xlink:href="#linearGradient12"
       id="radialGradient17"
       gradientUnits="userSpaceOnUse"
       gradientTransform="matrix(-0.02247554,-12.045403,-17.967828,0.03352619,1.6640208,-50.22331)"
       cx="-4.575222"
       cy="-0.55256462"
       fx="-4.575222"
       fy="-0.55256462"
       r="0.39687499" />
    <radialGradient
       inkscape:collect="always"
       xlink:href="#linearGradient7"
       id="radialGradient18"
       gradientUnits="userSpaceOnUse"
       gradientTransform="matrix(0.06461187,12.09952,17.933731,-0.09576873,14.609502,64.748231)"
       cx="-4.4284906"
       cy="-0.50121039"
       fx="-4.4284906"
       fy="-0.50121039"
       r="0.39687499" />
    <linearGradient
       inkscape:collect="always"
       xlink:href="#bevel"
       id="linearGradient18"
       gradientUnits="userSpaceOnUse"
       x1="-3.8415797"
       y1="-1.4506671"
       x2="-3.8406549"
       y2="-1.1968651"
       gradientTransform="matrix(6.0923076,0,0,6.0923076,32.228527,-7.1537627)" />
    <radialGradient
       inkscape:collect="always"
       xlink:href="#linearGradient4"
       id="radialGradient20"
       gradientUnits="userSpaceOnUse"
       gradientTransform="matrix(-0.01031383,11.991438,-17.967296,-0.01545561,1.7353715,64.305742)"
       cx="-4.4236727"
       cy="-0.55004197"
       fx="-4.4236727"
       fy="-0.55004197"
       r="0.39687499" />
    <radialGradient
       inkscape:collect="always"
       xlink:href="#cornerBevel"
       id="radialGradient25"
       gradientUnits="userSpaceOnUse"
       gradientTransform="matrix(12.184614,0,0,12.184614,59.63122,10.377613)"
       cx="-4.4568658"
       cy="-0.44864327"
       fx="-4.4568658"
       fy="-0.44864327"
       r="0.39687496" />
    <linearGradient
       inkscape:collect="always"
       xlink:href="#bevel"
       id="linearGradient25"
       gradientUnits="userSpaceOnUse"
       x1="-3.8487544"
       y1="-1.146081"
       x2="-3.8455966"
       y2="-0.890971"
       gradientTransform="matrix(6.0923077,0,0,6.0923077,32.228528,7.1537627)" />
    <radialGradient
       inkscape:collect="always"
       xlink:href="#cornerBevel"
       id="radialGradient29"
       gradientUnits="userSpaceOnUse"
       gradientTransform="matrix(0,-12.184614,12.184614,0,11.27353,-44.427768)"
       cx="-4.5705457"
       cy="-0.48653662"
       fx="-4.5705457"
       fy="-0.48653662"
       r="0.39687496" />
    <radialGradient
       inkscape:collect="always"
       xlink:href="#cornerBevel"
       id="radialGradient30"
       gradientUnits="userSpaceOnUse"
       gradientTransform="matrix(-12.184514,-0.04945749,0.04847411,-11.942243,-43.502155,3.8519053)"
       cx="-4.5342312"
       cy="-0.60337442"
       fx="-4.5342312"
       fy="-0.60337442"
       r="0.39687496" />
    <radialGradient
       inkscape:collect="always"
       xlink:href="#linearGradient9"
       id="radialGradient31"
       gradientUnits="userSpaceOnUse"
       gradientTransform="matrix(0,-12.151612,11.978956,0,18.475664,-48.770776)"
       cx="-4.4175329"
       cy="-0.56489283"
       fx="-4.4175329"
       fy="-0.56489283"
       r="0.39687496" />
    <linearGradient
       inkscape:collect="always"
       xlink:href="#bevel"
       id="linearGradient34"
       gradientUnits="userSpaceOnUse"
       x1="-3.99717"
       y1="-1.2218677"
       x2="-4.0003276"
       y2="-0.96675771"
       gradientTransform="matrix(6.0923077,0,0,6.0923077,17.025077,8.0496826)" />
    <linearGradient
       inkscape:collect="always"
       xlink:href="#bevel"
       id="linearGradient35"
       gradientUnits="userSpaceOnUse"
       x1="-4.0919032"
       y1="-1.4492278"
       x2="-4.0950613"
       y2="-1.1972755"
       gradientTransform="matrix(6.0923077,0,0,6.0923077,16.129161,-7.1537627)" />
    <linearGradient
       inkscape:collect="always"
       xlink:href="#bevel"
       id="linearGradient36"
       gradientUnits="userSpaceOnUse"
       x1="-3.8734362"
       y1="-1.3717227"
       x2="-3.8765941"
       y2="-1.116071"
       gradientTransform="matrix(6.0923077,0,0,6.0923077,31.33261,-8.0496826)" />
    <linearGradient
       id="paint2_linear_77:3-7"
       x1="79.398094"
       y1="-197.84389"
       x2="82.901054"
       y2="-199.97827"
       gradientUnits="userSpaceOnUse"
       gradientTransform="matrix(1.9248511,0,0,1.7314595,-40.88733,399.61741)">
      <stop
         stop-color="#EBFAFF"
         stop-opacity="0.1"
         id="stop29-5-7"
         offset="0"
         style="stop-color:#c3c3c3;stop-opacity:1;" />
      <stop
         offset="1"
         stop-color="#70A9FF"
         stop-opacity="0.5"
         id="stop30-0-1"
         style="stop-color:#05c7ff;stop-opacity:0.80000001;" />
    </linearGradient>
    <linearGradient
       inkscape:collect="always"
       xlink:href="#linearGradient899"
       id="linearGradient926"
       x1="0.98894888"
       y1="-9.3406019"
       x2="16.919081"
       y2="-9.2251434"
       gradientUnits="userSpaceOnUse"
       gradientTransform="translate(-0.92604234,0.47624996)" />
    <linearGradient
       id="a"
       x1="7.9369998"
       x2="7.9369998"
       y1="15.081"
       y2="1.852"
       gradientTransform="matrix(0.89278359,0,0,0.89278351,0.90778552,0.91466447)"
       gradientUnits="userSpaceOnUse">
      <stop
         offset="0"
         stop-color="#f1efeb"
         id="stop1-3" />
      <stop
         offset="1"
         stop-color="#fff"
         id="stop2-3" />
    </linearGradient>
    <linearGradient
       id="d-3"
       gradientUnits="userSpaceOnUse"
       x1="6"
       x2="6"
       xlink:href="#a-6"
       y1="58"
       y2="6"
       gradientTransform="scale(0.26458333)" />
    <linearGradient
       id="a-6"
       gradientUnits="userSpaceOnUse"
       x1="6"
       x2="6"
       y1="58"
       y2="6">
      <stop
         offset="0"
         stop-color="#98a7b0"
         id="stop48" />
      <stop
         offset="1"
         stop-color="#dde1e3"
         id="stop50" />
    </linearGradient>
    <linearGradient
       id="j"
       gradientUnits="userSpaceOnUse"
       x1="32"
       x2="32"
       y1="36"
       y2="28"
       gradientTransform="scale(0.26458333)">
      <stop
         offset="0"
         stop-color="#5c7274"
         id="stop21" />
      <stop
         offset="1"
         stop-color="#a4a4a4"
         id="stop23" />
    </linearGradient>
    <linearGradient
       inkscape:collect="always"
       xlink:href="#linearGradient1019"
       id="linearGradient1021"
       x1="12.435416"
       y1="11.641666"
       x2="4.7624998"
       y2="4.4979167"
       gradientUnits="userSpaceOnUse" />
    <linearGradient
       inkscape:collect="always"
       id="linearGradient1019">
      <stop
         style="stop-color:#b3b3b3;stop-opacity:1;"
         offset="0"
         id="stop1015" />
      <stop
         style="stop-color:#b3b3b3;stop-opacity:0.43589744"
         offset="1"
         id="stop1017" />
    </linearGradient>
    <linearGradient
       inkscape:collect="always"
       xlink:href="#linearGradient1027"
       id="linearGradient1029"
       x1="8.9958334"
       y1="2.3812499"
       x2="8.7312498"
       y2="8.2020836"
       gradientUnits="userSpaceOnUse" />
    <linearGradient
       inkscape:collect="always"
       id="linearGradient1027">
      <stop
         style="stop-color:#00a1c9;stop-opacity:0.80000001"
         offset="0"
         id="stop1023" />
      <stop
         style="stop-color:#80b3ff;stop-opacity:1"
         offset="1"
         id="stop1025" />
    </linearGradient>
  </defs>
  <sodipodi:namedview
     id="base"
     pagecolor="#e2e2e2"
     bordercolor="#666666"
     borderopacity="1.0"
     inkscape:pageopacity="0"
     inkscape:pageshadow="2"
     inkscape:zoom="9.7248729"
     inkscape:cx="33.933605"
     inkscape:cy="49.255142"
     inkscape:document-units="px"
     inkscape:current-layer="layer1"
     inkscape:document-rotation="0"
     showgrid="true"
     units="px"
     inkscape:window-width="1920"
     inkscape:window-height="990"
     inkscape:window-x="0"
     inkscape:window-y="0"
     inkscape:window-maximized="1"
     inkscape:object-paths="true"
     inkscape:snap-grids="true"
     inkscape:snap-intersection-paths="true"
     inkscape:snap-smooth-nodes="true"
     inkscape:snap-midpoints="true"
     inkscape:showpageshadow="2"
     inkscape:pagecheckerboard="0"
     inkscape:deskcolor="#d1d1d1">
    <inkscape:grid
       id="grid2"
       units="px"
       originx="0"
       originy="0"
       spacingx="0.26458333"
       spacingy="0.26458333"
       empcolor="#0099e5"
       empopacity="0.30196078"
       color="#0099e5"
       opacity="0.14902"
       empspacing="5"
       dotted="false"
       gridanglex="30"
       gridanglez="30"
       visible="true" />
  </sodipodi:namedview>
  <metadata
     id="metadata1111">
    <rdf:RDF>
      <cc:Work
         rdf:about="">
        <dc:format>image/svg+xml</dc:format>
        <dc:type
           rdf:resource="http://purl.org/dc/dcmitype/StillImage" />
      </cc:Work>
    </rdf:RDF>
  </metadata>
  <g
     inkscape:label="Layer 1"
     inkscape:groupmode="layer"
     id="layer1">
    <g
       id="g918"
       transform="translate(0.47625037,0.92604234)">
      <rect
         ry="4.8357682"
         rx="4.8357682"
         style="fill:url(#linearGradient926);fill-opacity:1;stroke-width:6.09228"
         x="0.13229237"
         y="-16.457085"
         width="15.875001"
         height="15.875001"
         id="use1056"
         transform="rotate(90)"
         class="ColorScheme-Highlight" />
      <path
         d="m 5.344583,0.13229167 c -2.6384245,0 -4.76249953,2.12407483 -4.76249953,4.76249963 H 5.344583 Z"
         style="opacity:0.15;fill:url(#radialGradient25);fill-opacity:1;stroke-width:6.09228"
         id="path20" />
      <rect
         y="0.13229151"
         x="5.3445826"
         height="1.5875"
         width="6.3500004"
         id="rect20"
         style="opacity:0.15;fill:url(#linearGradient25);fill-opacity:1;stroke-width:4.83577;stroke-linecap:round;stroke-linejoin:round;paint-order:stroke fill markers" />
      <path
         d="m 0.58208347,11.244792 c 0,2.638424 2.12407503,4.762499 4.76249953,4.762499 v -4.762499 z"
         style="opacity:0.15;fill:url(#radialGradient29);fill-opacity:1;stroke-width:6.09228"
         id="use20" />
      <rect
         y="0.5820834"
         x="-11.244792"
         height="1.5875"
         width="6.3500004"
         id="use21"
         style="opacity:0.15;fill:url(#linearGradient34);fill-opacity:1;stroke-width:4.83577;stroke-linecap:round;stroke-linejoin:round;paint-order:stroke fill markers"
         transform="rotate(-90)" />
      <path
         d="m 11.694583,16.007291 c 2.638425,0 4.7625,-2.124074 4.7625,-4.762499 h -4.7625 z"
         style="opacity:0.15;fill:url(#radialGradient30);fill-opacity:1;stroke-width:6.09228"
         id="use22" />
      <rect
         y="-16.007292"
         x="-11.694584"
         height="1.5875"
         width="6.3500004"
         id="use23"
         style="opacity:0.15;fill:url(#linearGradient35);fill-opacity:1;stroke-width:4.83577;stroke-linecap:round;stroke-linejoin:round;paint-order:stroke fill markers"
         transform="scale(-1)" />
      <path
         d="m 16.457083,4.8947913 c 0,-2.6384245 -2.124074,-4.76249963 -4.7625,-4.76249963 V 4.8947913 Z"
         style="opacity:0.15;fill:url(#radialGradient31);fill-opacity:1;stroke-width:6.09228"
         id="use24" />
      <rect
         y="-16.457081"
         x="4.8947906"
         height="1.5875"
         width="6.3500004"
         id="use25"
         style="opacity:0.15;fill:url(#linearGradient36);fill-opacity:1;stroke-width:4.83577;stroke-linecap:round;stroke-linejoin:round;paint-order:stroke fill markers"
         transform="rotate(90)" />
      <path
         d="m 5.3445832,0.13229107 c -2.638425,0 -4.76250035,2.12407473 -4.76250035,4.76249973 H 5.3445832 Z"
         style="opacity:0.5;fill:url(#radialGradient15);fill-opacity:1;stroke-width:6.09228"
         id="path14" />
      <rect
         y="0.1322909"
         x="5.3445826"
         height="1.5875"
         width="6.3499999"
         id="rect14"
         style="opacity:0.5;fill:url(#linearGradient15);fill-opacity:1;stroke-width:4.83577;stroke-linecap:round;stroke-linejoin:round;paint-order:stroke fill markers" />
      <path
         d="m 11.694583,0.13229096 c 2.638425,0 4.7625,2.12407504 4.7625,4.76249734 h -4.7625 z"
         style="opacity:0.5;fill:url(#radialGradient17);fill-opacity:1;stroke-width:6.09228"
         id="use14" />
      <path
         id="path17"
         style="opacity:0.5;fill:url(#radialGradient18);fill-opacity:1;stroke-width:6.09228"
         d="m 5.3445834,16.00729 c -2.638425,0 -4.7625,-2.124075 -4.7625,-4.7625 h 4.7625 z" />
      <rect
         style="opacity:0.5;fill:url(#linearGradient18);fill-opacity:1;stroke-width:4.83577;stroke-linecap:round;stroke-linejoin:round;paint-order:stroke fill markers"
         id="rect17"
         width="6.3499994"
         height="1.5874999"
         x="5.3445826"
         y="-16.007292"
         transform="scale(1,-1)" />
      <path
         id="use17"
         style="opacity:0.5;fill:url(#radialGradient20);fill-opacity:1;stroke-width:6.09228"
         d="m 11.694582,16.007291 c 2.638425,0 4.7625,-2.124075 4.7625,-4.7625 h -4.7625 z" />
    </g>
    <rect
       width="13.229166"
       height="13.229165"
       x="2.3812497"
       y="2.3812501"
       fill="url(#a)"
       rx="3.6849496"
       ry="3.7431052"
       id="rect2"
       style="fill:url(#a);stroke-width:0.264582" />
    <path
       d="m 8.9958812,3.439583 c -3.0779488,0 -5.5558225,2.478087 -5.5558225,5.55625 0,3.078164 2.4778737,5.556252 5.5558225,5.556252 3.0779488,0 5.5558228,-2.478088 5.5558228,-5.556252 0,-3.078163 -2.477874,-5.55625 -5.5558228,-5.55625 z m 0,4.915144 c 0.3551726,0 0.6411058,0.285933 0.6411058,0.641106 0,0.355172 -0.2859332,0.641105 -0.6411058,0.641105 -0.3551726,0 -0.6411058,-0.285933 -0.6411058,-0.641105 0,-0.355173 0.2859332,-0.641106 0.6411058,-0.641106 z"
       id="path37"
       style="fill:url(#linearGradient1021);fill-opacity:1;stroke-width:0.264583" />
    <path
       d="m 3.4400587,8.822948 c -0.00107,0.04659 0,0.09317 0,0.139975 0,3.096329 2.4778737,5.589162 5.5558225,5.589162 3.0779488,0 5.5558228,-2.492833 5.5558228,-5.589162 0,-0.04701 10e-4,-0.09339 0,-0.139975 -0.07352,3.03115 -2.524461,5.515435 -5.5558228,5.515435 -3.0313617,0 -5.4823091,-2.484285 -5.5558225,-5.515435 z"
       fill="#292c2f"
       opacity="0.4"
       id="path39"
       style="stroke-width:0.264583" />
    <path
       d="m 8.9958812,3.439583 v 4.48774 a 1.0685096,1.0685096 0 0 1 1.0685098,1.06851 h 4.487313 c 0,-3.078163 -2.477874,-5.55625 -5.5558228,-5.55625 z"
       id="path41"
       style="fill:url(#linearGradient1029);fill-opacity:1;stroke-width:0.264583" />
    <path
       d="m 10.042593,8.782131 a 1.0685096,1.0685096 0 0 1 0.0218,0.213702 h 4.487313 c 0,-0.07159 -0.0028,-0.142753 -0.0053,-0.213702 z"
       fill="#292c2f"
       opacity="0.2"
       id="path43"
       style="stroke-width:0.264583" />
    <path
       d="m 8.9958812,7.927323 a 1.0685106,1.0685106 0 1 0 0,2.137021 1.0685106,1.0685106 0 0 0 0,-2.137021 z m 0,0.427404 c 0.3551726,0 0.6411058,0.285933 0.6411058,0.641106 0,0.355172 -0.2859332,0.641105 -0.6411058,0.641105 -0.3551726,0 -0.6411058,-0.285933 -0.6411058,-0.641105 0,-0.355173 0.2859332,-0.641106 0.6411058,-0.641106 z"
       fill="#292c2f"
       opacity="0.2"
       id="path45"
       style="stroke-width:0.264583" />
    <path
       d="m 8.9958812,7.072516 a 1.9233181,1.9233181 0 1 0 0,3.846636 1.9233181,1.9233181 0 0 0 0,-3.846636 z m 0,0.854807 a 1.0685106,1.0685106 0 1 1 0,2.137021 1.0685106,1.0685106 0 0 1 0,-2.137021 z"
       id="path47"
       style="fill:#e9ebee;fill-opacity:1;stroke-width:0.264583" />
    <path
       d="m 10.064391,8.141025 a 0.213702,0.213702 0 1 1 0,-0.427404 0.213702,0.213702 0 0 1 0,0.427404 z m -2.1370195,2.137021 a 0.213703,0.213703 0 1 1 0,-0.4274058 0.213703,0.213703 0 0 1 0,0.4274058 z m 0.213702,-2.350723 a 0.21370195,0.21370195 0 1 1 -0.4274039,0 0.21370195,0.21370195 0 0 1 0.4274039,0 z m 2.1370195,2.137021 a 0.21370205,0.21370205 0 1 1 -0.4274041,0 0.21370205,0.21370205 0 0 1 0.4274041,0 z"
       fill="#292c2f"
       opacity="0.4"
       id="path49"
       style="stroke-width:0.264583" />
    <path
       d="m 8.9958812,8.141025 a 0.85480768,0.85480768 0 1 0 0,1.7096152 0.85480768,0.85480768 0 0 0 0,-1.7096152 z m 0,0.213702 a 0.64110578,0.64110578 0 1 1 0,1.282211 0.64110578,0.64110578 0 0 1 0,-1.282211 z"
       id="path51"
       style="fill:#b7bec8;stroke-width:0.264583" />
    <path
       d="m 9.2095831,7.499919 a 0.21370195,0.21370195 0 1 1 -0.4274039,0 0.21370195,0.21370195 0 0 1 0.4274039,0 z m 1.4959139,1.495914 a 0.21370215,0.21370215 0 1 1 -0.427404,0 0.21370215,0.21370215 0 0 1 0.427404,0 z m -1.4959139,1.495915 a 0.21370195,0.21370195 0 1 1 -0.4274039,0 0.21370195,0.21370195 0 0 1 0.4274039,0 z M 7.7136696,8.995833 a 0.21370194,0.21370194 0 1 1 -0.4274038,0 0.21370194,0.21370194 0 0 1 0.4274038,0 z"
       fill="#4d4d4d"
       id="path53"
       style="stroke-width:0.264583" />
    <path
       d="m 10.914711,9.086442 a 1.9233173,1.9233173 0 0 1 -1.9188298,1.83271 1.9233173,1.9233173 0 0 1 -1.9188295,-1.800227 1.9233173,1.9233173 0 0 0 -0.00449,0.09061 1.9233173,1.9233173 0 0 0 1.9233173,1.923319 1.9233173,1.9233173 0 0 0 1.923317,-1.923319 1.9233173,1.9233173 0 0 0 -0.0045,-0.123092 z"
       fill="#7f8c8d"
       id="path55"
       style="stroke-width:0.264583" />
    <path
       d="m 11.987708,10.70545 -1.709615,0.854807 -0.213702,0.427405 -0.641106,0.641105 -2.232544,1.624135 c 0.5656691,0.192973 1.1723687,0.299183 1.8051402,0.299183 0.046587,0 0.092319,-0.0021 0.1384788,-0.0034 l 0.930031,-1.278795 0.641106,-0.641106 0.427404,-0.213702 z"
       fill="#292c2f"
       opacity="0.2"
       id="path63"
       style="stroke-width:0.264583" />
    <path
       d="m 11.987708,10.70545 -1.709615,0.854807 -0.213702,0.427405 -0.641106,0.641105 -2.232544,1.624135 c 0.5656691,0.192973 1.1723687,0.299183 1.8051402,0.299183 0.046587,0 0.092319,-0.0021 0.1384788,-0.0034 l 0.930031,-1.278795 0.641106,-0.641106 0.427404,-0.213728 z m -1.282211,0.980037 0.302174,0.302175 -0.302174,0.302174 -0.302175,-0.302174 z m -0.7295789,0.729579 0.3021749,0.302174 -0.12523,0.125229 H 9.8506889 V 12.540295 Z M 9.423285,13.056171 A 0.21370192,0.21370192 0 0 1 9.636987,13.269873 0.21370192,0.21370192 0 0 1 9.423285,13.483575 0.21370192,0.21370192 0 0 1 9.2095831,13.269873 0.21370192,0.21370192 0 0 1 9.423285,13.056171 Z m -0.6411058,0.427404 0.4274039,0.427404 -0.353463,0.423984 A 5.4547415,5.4547415 0 0 1 7.8910423,14.225976 Z M 7.919892,14.447371 c 0.020515,0.004 0.041245,0.007 0.06176,0.01069 -0.020515,-0.0036 -0.041245,-0.0066 -0.061973,-0.01069 z"
       id="path65"
       style="fill:#f9f9f9;stroke-width:0.264583" />
    <path
       d="m 9.8506889,12.540295 -1.0685097,0.94328 0.4274039,0.427404 0.9432799,-1.06851 H 9.8506889 Z m 0.5526331,-0.552633 -0.4274039,0.427404 0.3021749,0.302174 0.427404,-0.427404 z m 1.156982,-0.854808 -0.854807,0.552633 0.302174,0.302175 z"
       fill="#292c2f"
       opacity="0.1"
       id="path67"
       style="stroke-width:0.264583" />
    <circle
       cx="8.995882"
       cy="8.9958305"
       r="0.64110577"
       id="circle71"
       style="fill:#cccccc;stroke-width:0.264583" />
  </g>
</svg>
