<?xml version="1.0" encoding="UTF-8" standalone="no"?>
<svg
   width="68"
   height="68"
   viewBox="0 0 17.991665 17.991665"
   version="1.1"
   id="svg1114"
   inkscape:version="1.3.2 (091e20ef0f, 2023-11-25)"
   sodipodi:docname="drive-multipartition.svg"
   xmlns:inkscape="http://www.inkscape.org/namespaces/inkscape"
   xmlns:sodipodi="http://sodipodi.sourceforge.net/DTD/sodipodi-0.dtd"
   xmlns:xlink="http://www.w3.org/1999/xlink"
   xmlns="http://www.w3.org/2000/svg"
   xmlns:svg="http://www.w3.org/2000/svg"
   xmlns:rdf="http://www.w3.org/1999/02/22-rdf-syntax-ns#"
   xmlns:cc="http://creativecommons.org/ns#"
   xmlns:dc="http://purl.org/dc/elements/1.1/">
  <style
     type="text/css"
     id="current-color-scheme">.ColorScheme-Highlight { color:#5599ff; }
</style>
  <defs
     id="defs1108">
    <linearGradient
       id="linearGradient12"
       inkscape:collect="always">
      <stop
         style="stop-color:#ffffff;stop-opacity:0;"
         offset="0"
         id="stop10" />
      <stop
         id="stop11"
         offset="0.65909404"
         style="stop-color:#ffffff;stop-opacity:0" />
      <stop
         style="stop-color:#ffffff;stop-opacity:1;"
         offset="1"
         id="stop12" />
    </linearGradient>
    <linearGradient
       id="linearGradient9"
       inkscape:collect="always">
      <stop
         style="stop-color:#000000;stop-opacity:0;"
         offset="0"
         id="stop1" />
      <stop
         id="stop8"
         offset="0.66102529"
         style="stop-color:#000000;stop-opacity:0" />
      <stop
         style="stop-color:#000000;stop-opacity:1;"
         offset="1"
         id="stop9" />
    </linearGradient>
    <linearGradient
       id="linearGradient7"
       inkscape:collect="always">
      <stop
         style="stop-color:#000000;stop-opacity:0;"
         offset="0"
         id="stop5" />
      <stop
         id="stop6"
         offset="0.6586886"
         style="stop-color:#000000;stop-opacity:0" />
      <stop
         style="stop-color:#000000;stop-opacity:1;"
         offset="1"
         id="stop7" />
    </linearGradient>
    <linearGradient
       id="linearGradient4"
       inkscape:collect="always">
      <stop
         style="stop-color:#000000;stop-opacity:0;"
         offset="0"
         id="stop2" />
      <stop
         id="stop3"
         offset="0.67055255"
         style="stop-color:#000000;stop-opacity:0" />
      <stop
         style="stop-color:#000000;stop-opacity:1;"
         offset="1"
         id="stop4" />
    </linearGradient>
    <linearGradient
       inkscape:collect="always"
       id="linearGradient899">
      <stop
         style="stop-color:#b380ff;stop-opacity:1;"
         offset="0"
         id="stop895" />
      <stop
         style="stop-color:#2a7fff;stop-opacity:1;"
         offset="1"
         id="stop897" />
    </linearGradient>
    <linearGradient
       id="linearGradient1167"
       x1="40.751999"
       x2="40.751999"
       y1="28.507999"
       y2="17.205999"
       gradientUnits="userSpaceOnUse">
      <stop
         style="stop-color:#84fb6e;stop-opacity:1"
         stop-color="#0ab816"
         offset="0"
         id="stop1163" />
      <stop
         style="stop-color:#0dd41a;stop-opacity:1"
         stop-color="#0cf36c"
         offset="1"
         id="stop1165" />
    </linearGradient>
    <linearGradient
       id="cornerBevel"
       inkscape:collect="always">
      <stop
         style="stop-color:#000000;stop-opacity:0;"
         offset="0"
         id="stop2663" />
      <stop
         id="stop2671"
         offset="0.66666675"
         style="stop-color:#000000;stop-opacity:0" />
      <stop
         style="stop-color:#000000;stop-opacity:1;"
         offset="1"
         id="stop2661" />
    </linearGradient>
    <linearGradient
       id="bevel"
       inkscape:collect="always">
      <stop
         id="stop2685"
         offset="0"
         style="stop-color:#000000;stop-opacity:1;" />
      <stop
         id="stop2687"
         offset="1"
         style="stop-color:#000000;stop-opacity:0;" />
    </linearGradient>
    <linearGradient
       id="highlightCorner"
       inkscape:collect="always">
      <stop
         style="stop-color:#ffffff;stop-opacity:0;"
         offset="0"
         id="stop2613" />
      <stop
         id="stop2621"
         offset="0.66666669"
         style="stop-color:#ffffff;stop-opacity:0" />
      <stop
         style="stop-color:#ffffff;stop-opacity:1;"
         offset="1"
         id="stop2611" />
    </linearGradient>
    <linearGradient
       inkscape:collect="always"
       id="highlight">
      <stop
         style="stop-color:#ffffff;stop-opacity:1;"
         offset="0"
         id="stop2921" />
      <stop
         style="stop-color:#ffffff;stop-opacity:0;"
         offset="1"
         id="stop2923" />
    </linearGradient>
    <radialGradient
       inkscape:collect="always"
       xlink:href="#highlightCorner"
       id="radialGradient15"
       gradientUnits="userSpaceOnUse"
       gradientTransform="matrix(0.04294597,-12.079348,17.933991,0.06376112,14.524179,-50.373789)"
       cx="-4.5799766"
       cy="-0.50206107"
       fx="-4.5799766"
       fy="-0.50206107"
       r="0.39687499" />
    <linearGradient
       inkscape:collect="always"
       xlink:href="#highlight"
       id="linearGradient15"
       gradientUnits="userSpaceOnUse"
       x1="-3.8453064"
       y1="-1.1532172"
       x2="-3.8453064"
       y2="-0.8954913"
       gradientTransform="matrix(6.0923077,0,0,6.0923077,32.228528,7.1537621)" />
    <radialGradient
       inkscape:collect="always"
       xlink:href="#linearGradient12"
       id="radialGradient17"
       gradientUnits="userSpaceOnUse"
       gradientTransform="matrix(-0.02247554,-12.045403,-17.967828,0.03352619,1.6640208,-50.22331)"
       cx="-4.575222"
       cy="-0.55256462"
       fx="-4.575222"
       fy="-0.55256462"
       r="0.39687499" />
    <radialGradient
       inkscape:collect="always"
       xlink:href="#linearGradient7"
       id="radialGradient18"
       gradientUnits="userSpaceOnUse"
       gradientTransform="matrix(0.06461187,12.09952,17.933731,-0.09576873,14.609502,64.748231)"
       cx="-4.4284906"
       cy="-0.50121039"
       fx="-4.4284906"
       fy="-0.50121039"
       r="0.39687499" />
    <linearGradient
       inkscape:collect="always"
       xlink:href="#bevel"
       id="linearGradient18"
       gradientUnits="userSpaceOnUse"
       x1="-3.8415797"
       y1="-1.4506671"
       x2="-3.8406549"
       y2="-1.1968651"
       gradientTransform="matrix(6.0923076,0,0,6.0923076,32.228527,-7.1537627)" />
    <radialGradient
       inkscape:collect="always"
       xlink:href="#linearGradient4"
       id="radialGradient20"
       gradientUnits="userSpaceOnUse"
       gradientTransform="matrix(-0.01031383,11.991438,-17.967296,-0.01545561,1.7353715,64.305742)"
       cx="-4.4236727"
       cy="-0.55004197"
       fx="-4.4236727"
       fy="-0.55004197"
       r="0.39687499" />
    <radialGradient
       inkscape:collect="always"
       xlink:href="#cornerBevel"
       id="radialGradient25"
       gradientUnits="userSpaceOnUse"
       gradientTransform="matrix(12.184614,0,0,12.184614,59.63122,10.377613)"
       cx="-4.4568658"
       cy="-0.44864327"
       fx="-4.4568658"
       fy="-0.44864327"
       r="0.39687496" />
    <linearGradient
       inkscape:collect="always"
       xlink:href="#bevel"
       id="linearGradient25"
       gradientUnits="userSpaceOnUse"
       x1="-3.8487544"
       y1="-1.146081"
       x2="-3.8455966"
       y2="-0.890971"
       gradientTransform="matrix(6.0923077,0,0,6.0923077,32.228528,7.1537627)" />
    <radialGradient
       inkscape:collect="always"
       xlink:href="#cornerBevel"
       id="radialGradient29"
       gradientUnits="userSpaceOnUse"
       gradientTransform="matrix(0,-12.184614,12.184614,0,11.27353,-44.427768)"
       cx="-4.5705457"
       cy="-0.48653662"
       fx="-4.5705457"
       fy="-0.48653662"
       r="0.39687496" />
    <radialGradient
       inkscape:collect="always"
       xlink:href="#cornerBevel"
       id="radialGradient30"
       gradientUnits="userSpaceOnUse"
       gradientTransform="matrix(-12.184514,-0.04945749,0.04847411,-11.942243,-43.502155,3.8519053)"
       cx="-4.5342312"
       cy="-0.60337442"
       fx="-4.5342312"
       fy="-0.60337442"
       r="0.39687496" />
    <radialGradient
       inkscape:collect="always"
       xlink:href="#linearGradient9"
       id="radialGradient31"
       gradientUnits="userSpaceOnUse"
       gradientTransform="matrix(0,-12.151612,11.978956,0,18.475664,-48.770776)"
       cx="-4.4175329"
       cy="-0.56489283"
       fx="-4.4175329"
       fy="-0.56489283"
       r="0.39687496" />
    <linearGradient
       inkscape:collect="always"
       xlink:href="#bevel"
       id="linearGradient34"
       gradientUnits="userSpaceOnUse"
       x1="-3.99717"
       y1="-1.2218677"
       x2="-4.0003276"
       y2="-0.96675771"
       gradientTransform="matrix(6.0923077,0,0,6.0923077,17.025077,8.0496826)" />
    <linearGradient
       inkscape:collect="always"
       xlink:href="#bevel"
       id="linearGradient35"
       gradientUnits="userSpaceOnUse"
       x1="-4.0919032"
       y1="-1.4492278"
       x2="-4.0950613"
       y2="-1.1972755"
       gradientTransform="matrix(6.0923077,0,0,6.0923077,16.129161,-7.1537627)" />
    <linearGradient
       inkscape:collect="always"
       xlink:href="#bevel"
       id="linearGradient36"
       gradientUnits="userSpaceOnUse"
       x1="-3.8734362"
       y1="-1.3717227"
       x2="-3.8765941"
       y2="-1.116071"
       gradientTransform="matrix(6.0923077,0,0,6.0923077,31.33261,-8.0496826)" />
    <linearGradient
       id="paint2_linear_77:3-7"
       x1="79.398094"
       y1="-197.84389"
       x2="82.901054"
       y2="-199.97827"
       gradientUnits="userSpaceOnUse"
       gradientTransform="matrix(1.9248511,0,0,1.7314595,-40.88733,399.61741)">
      <stop
         stop-color="#EBFAFF"
         stop-opacity="0.1"
         id="stop29-5-7"
         offset="0"
         style="stop-color:#c3c3c3;stop-opacity:1;" />
      <stop
         offset="1"
         stop-color="#70A9FF"
         stop-opacity="0.5"
         id="stop30-0-1"
         style="stop-color:#05c7ff;stop-opacity:0.80000001;" />
    </linearGradient>
    <linearGradient
       inkscape:collect="always"
       xlink:href="#linearGradient899"
       id="linearGradient926"
       x1="0.98894888"
       y1="-9.3406019"
       x2="16.919081"
       y2="-9.2251434"
       gradientUnits="userSpaceOnUse"
       gradientTransform="translate(-0.92604234,0.47624996)" />
    <linearGradient
       id="a"
       x1="7.9369998"
       x2="7.9369998"
       y1="15.081"
       y2="1.852"
       gradientTransform="matrix(0.89278359,0,0,0.89278351,0.90778552,0.91466447)"
       gradientUnits="userSpaceOnUse">
      <stop
         offset="0"
         stop-color="#f1efeb"
         id="stop1-3" />
      <stop
         offset="1"
         stop-color="#fff"
         id="stop2-3" />
    </linearGradient>
    <linearGradient
       id="d-3"
       gradientUnits="userSpaceOnUse"
       x1="6"
       x2="6"
       xlink:href="#a-6"
       y1="58"
       y2="6"
       gradientTransform="scale(0.26458333)" />
    <linearGradient
       id="a-6"
       gradientUnits="userSpaceOnUse"
       x1="6"
       x2="6"
       y1="58"
       y2="6">
      <stop
         offset="0"
         stop-color="#98a7b0"
         id="stop48" />
      <stop
         offset="1"
         stop-color="#dde1e3"
         id="stop50" />
    </linearGradient>
    <linearGradient
       id="j"
       gradientUnits="userSpaceOnUse"
       x1="32"
       x2="32"
       y1="36"
       y2="28"
       gradientTransform="scale(0.26458333)">
      <stop
         offset="0"
         stop-color="#5c7274"
         id="stop21" />
      <stop
         offset="1"
         stop-color="#a4a4a4"
         id="stop23" />
    </linearGradient>
  </defs>
  <sodipodi:namedview
     id="base"
     pagecolor="#e2e2e2"
     bordercolor="#666666"
     borderopacity="1.0"
     inkscape:pageopacity="0"
     inkscape:pageshadow="2"
     inkscape:zoom="9.7248729"
     inkscape:cx="33.933605"
     inkscape:cy="38.663744"
     inkscape:document-units="px"
     inkscape:current-layer="layer1"
     inkscape:document-rotation="0"
     showgrid="true"
     units="px"
     inkscape:window-width="1920"
     inkscape:window-height="990"
     inkscape:window-x="0"
     inkscape:window-y="0"
     inkscape:window-maximized="1"
     inkscape:object-paths="true"
     inkscape:snap-grids="true"
     inkscape:snap-intersection-paths="true"
     inkscape:snap-smooth-nodes="true"
     inkscape:snap-midpoints="true"
     inkscape:showpageshadow="2"
     inkscape:pagecheckerboard="0"
     inkscape:deskcolor="#d1d1d1">
    <inkscape:grid
       id="grid2"
       units="px"
       originx="0"
       originy="0"
       spacingx="0.26458333"
       spacingy="0.26458333"
       empcolor="#0099e5"
       empopacity="0.30196078"
       color="#0099e5"
       opacity="0.14902"
       empspacing="5"
       dotted="false"
       gridanglex="30"
       gridanglez="30"
       visible="true" />
  </sodipodi:namedview>
  <metadata
     id="metadata1111">
    <rdf:RDF>
      <cc:Work
         rdf:about="">
        <dc:format>image/svg+xml</dc:format>
        <dc:type
           rdf:resource="http://purl.org/dc/dcmitype/StillImage" />
      </cc:Work>
    </rdf:RDF>
  </metadata>
  <g
     inkscape:label="Layer 1"
     inkscape:groupmode="layer"
     id="layer1">
    <g
       id="g918"
       transform="translate(0.47625037,0.92604234)">
      <rect
         ry="4.8357682"
         rx="4.8357682"
         style="fill:url(#linearGradient926);fill-opacity:1;stroke-width:6.09228"
         x="0.13229237"
         y="-16.457085"
         width="15.875001"
         height="15.875001"
         id="use1056"
         transform="rotate(90)"
         class="ColorScheme-Highlight" />
      <path
         d="m 5.344583,0.13229167 c -2.6384245,0 -4.76249953,2.12407483 -4.76249953,4.76249963 H 5.344583 Z"
         style="opacity:0.15;fill:url(#radialGradient25);fill-opacity:1;stroke-width:6.09228"
         id="path20" />
      <rect
         y="0.13229151"
         x="5.3445826"
         height="1.5875"
         width="6.3500004"
         id="rect20"
         style="opacity:0.15;fill:url(#linearGradient25);fill-opacity:1;stroke-width:4.83577;stroke-linecap:round;stroke-linejoin:round;paint-order:stroke fill markers" />
      <path
         d="m 0.58208347,11.244792 c 0,2.638424 2.12407503,4.762499 4.76249953,4.762499 v -4.762499 z"
         style="opacity:0.15;fill:url(#radialGradient29);fill-opacity:1;stroke-width:6.09228"
         id="use20" />
      <rect
         y="0.5820834"
         x="-11.244792"
         height="1.5875"
         width="6.3500004"
         id="use21"
         style="opacity:0.15;fill:url(#linearGradient34);fill-opacity:1;stroke-width:4.83577;stroke-linecap:round;stroke-linejoin:round;paint-order:stroke fill markers"
         transform="rotate(-90)" />
      <path
         d="m 11.694583,16.007291 c 2.638425,0 4.7625,-2.124074 4.7625,-4.762499 h -4.7625 z"
         style="opacity:0.15;fill:url(#radialGradient30);fill-opacity:1;stroke-width:6.09228"
         id="use22" />
      <rect
         y="-16.007292"
         x="-11.694584"
         height="1.5875"
         width="6.3500004"
         id="use23"
         style="opacity:0.15;fill:url(#linearGradient35);fill-opacity:1;stroke-width:4.83577;stroke-linecap:round;stroke-linejoin:round;paint-order:stroke fill markers"
         transform="scale(-1)" />
      <path
         d="m 16.457083,4.8947913 c 0,-2.6384245 -2.124074,-4.76249963 -4.7625,-4.76249963 V 4.8947913 Z"
         style="opacity:0.15;fill:url(#radialGradient31);fill-opacity:1;stroke-width:6.09228"
         id="use24" />
      <rect
         y="-16.457081"
         x="4.8947906"
         height="1.5875"
         width="6.3500004"
         id="use25"
         style="opacity:0.15;fill:url(#linearGradient36);fill-opacity:1;stroke-width:4.83577;stroke-linecap:round;stroke-linejoin:round;paint-order:stroke fill markers"
         transform="rotate(90)" />
      <path
         d="m 5.3445832,0.13229107 c -2.638425,0 -4.76250035,2.12407473 -4.76250035,4.76249973 H 5.3445832 Z"
         style="opacity:0.5;fill:url(#radialGradient15);fill-opacity:1;stroke-width:6.09228"
         id="path14" />
      <rect
         y="0.1322909"
         x="5.3445826"
         height="1.5875"
         width="6.3499999"
         id="rect14"
         style="opacity:0.5;fill:url(#linearGradient15);fill-opacity:1;stroke-width:4.83577;stroke-linecap:round;stroke-linejoin:round;paint-order:stroke fill markers" />
      <path
         d="m 11.694583,0.13229096 c 2.638425,0 4.7625,2.12407504 4.7625,4.76249734 h -4.7625 z"
         style="opacity:0.5;fill:url(#radialGradient17);fill-opacity:1;stroke-width:6.09228"
         id="use14" />
      <path
         id="path17"
         style="opacity:0.5;fill:url(#radialGradient18);fill-opacity:1;stroke-width:6.09228"
         d="m 5.3445834,16.00729 c -2.638425,0 -4.7625,-2.124075 -4.7625,-4.7625 h 4.7625 z" />
      <rect
         style="opacity:0.5;fill:url(#linearGradient18);fill-opacity:1;stroke-width:4.83577;stroke-linecap:round;stroke-linejoin:round;paint-order:stroke fill markers"
         id="rect17"
         width="6.3499994"
         height="1.5874999"
         x="5.3445826"
         y="-16.007292"
         transform="scale(1,-1)" />
      <path
         id="use17"
         style="opacity:0.5;fill:url(#radialGradient20);fill-opacity:1;stroke-width:6.09228"
         d="m 11.694582,16.007291 c 2.638425,0 4.7625,-2.124075 4.7625,-4.7625 h -4.7625 z" />
    </g>
    <rect
       width="13.229166"
       height="13.229165"
       x="2.3812497"
       y="2.3812501"
       fill="url(#a)"
       rx="3.6849496"
       ry="3.7431052"
       id="rect2"
       style="fill:url(#a);stroke-width:0.264582" />
    <path
       d="M 8.996021,7.072517 A 1.923317,1.9233171 0 0 0 7.0727039,8.995834 1.923317,1.9233171 0 0 0 8.996021,10.919154 1.923317,1.9233171 0 0 0 10.919335,8.995834 1.923317,1.9233171 0 0 0 8.996021,7.072517 Z m 0,1.282211 c 0.3551728,0 0.6411058,0.285933 0.6411058,0.641107 0,0.355171 -0.285933,0.641105 -0.6411058,0.641105 -0.3551722,0 -0.6411052,-0.285934 -0.6411052,-0.641105 0,-0.355174 0.285933,-0.641107 0.6411052,-0.641107 z"
       fill="url(#d)"
       id="path54"
       style="fill:url(#d-3);stroke-width:0.264582" />
    <path
       d="M 8.9964485,14.338391 V 10.064343 A 1.0685096,1.0685096 0 0 0 10.064962,8.995834 h 4.487312 c 0,3.078168 -2.477877,5.342557 -5.5558255,5.342557 z"
       id="path56"
       style="fill:#bc5fd3;stroke-width:0.264582" />
    <path
       d="M 8.9955942,14.338391 V 10.064343 A 1.0685096,1.0685096 0 0 1 7.9270841,8.995834 H 3.4397705 c 0,3.078168 2.4778744,5.342557 5.5558237,5.342557 z"
       id="path58"
       style="fill:#ffb380;stroke-width:0.264582" />
    <path
       d="M 8.996021,3.439583 V 7.927324 A 1.0685096,1.0685096 0 0 0 7.9275118,8.995834 H 3.440198 c 0,-3.078163 2.4778742,-5.556251 5.555823,-5.556251 z"
       id="path62"
       style="fill:#00bdbd;fill-opacity:1;stroke-width:0.264582" />
    <path
       d="m 3.445113,8.782132 c -0.00226,0.07094 -0.00553,0.142112 -0.00553,0.213702 H 7.2863859 V 8.782132 Z"
       fill="#292c2f"
       opacity="0.2"
       id="path64"
       style="stroke-width:0.264582" />
    <path
       d="m 3.440198,8.822949 c -0.00126,0.04658 0,0.09317 0,0.139975 0,2.460348 1.5651532,4.538396 3.7523928,5.288691 l 0.2085729,-0.15193 C 5.1474625,13.409643 3.5002484,11.299327 3.440198,8.822736 Z"
       fill="#ca902a"
       id="path66"
       style="stroke-width:0.264582" />
    <path
       d="m 8.996021,3.439583 v 4.487741 a 1.0685096,1.0685096 0 0 1 1.068513,1.06851 h 4.487313 c 0,-3.078163 -2.477878,-5.556251 -5.555826,-5.556251 z"
       id="path68"
       style="fill:#2a7fff;stroke-width:0.264582" />
    <path
       d="m 10.705634,8.782132 v 0.213702 h 3.846213 c 0,-0.0716 -0.0034,-0.142753 -0.0066,-0.213702 z M 8.996021,7.927324 a 1.0685097,1.0685097 0 1 0 0,2.137019 1.0685097,1.0685097 0 0 0 0,-2.137019 z m 0,0.427404 c 0.3551728,0 0.6411058,0.285933 0.6411058,0.641106 0,0.355172 -0.285933,0.641106 -0.6411058,0.641106 -0.3551722,0 -0.6411052,-0.285934 -0.6411052,-0.641106 0,-0.355173 0.285933,-0.641106 0.6411052,-0.641106 z"
       fill="#292c2f"
       opacity="0.2"
       id="path70"
       style="stroke-width:0.264582" />
    <path
       d="m 8.996021,7.072517 a 1.9233184,1.9233185 0 1 0 0,3.846637 1.9233184,1.9233185 0 0 0 0,-3.846637 z m 0,0.854807 a 1.0685097,1.0685097 0 1 1 0,2.137019 1.0685097,1.0685097 0 0 1 0,-2.137019 z"
       id="path72"
       style="fill:#ececec;stroke-width:0.264582" />
    <path
       d="m 10.064534,8.141026 a 0.21370203,0.21370204 0 1 1 0,-0.427404 0.21370203,0.21370204 0 0 1 0,0.427404 z m -2.1370222,2.13702 a 0.21370209,0.2137021 0 1 1 0,-0.427404 0.21370209,0.2137021 0 0 1 0,0.427404 z M 8.1412136,7.927324 a 0.21370215,0.21370216 0 1 1 -0.4274042,0 0.21370215,0.21370216 0 0 1 0.4274042,0 z m 2.1370234,2.137019 a 0.21370435,0.21370436 0 1 1 -0.4274087,0 0.21370435,0.21370436 0 0 1 0.4274087,0 z"
       fill="#292c2f"
       opacity="0.4"
       id="path74"
       style="stroke-width:0.264582" />
    <path
       d="m 8.996021,8.141026 a 0.85480801,0.85480804 0 1 0 0,1.709616 0.85480801,0.85480804 0 0 0 0,-1.709616 z m 0,0.213702 a 0.64110598,0.641106 0 1 1 0,1.282212 0.64110598,0.641106 0 0 1 0,-1.282212 z"
       fill="url(#j)"
       id="path76"
       style="fill:url(#j);stroke-width:0.264582" />
    <path
       d="m 9.2097233,7.49992 a 0.21370216,0.21370217 0 1 1 -0.4274039,0 0.21370216,0.21370217 0 0 1 0.4274039,0 z m 1.4959107,1.495914 a 0.2137021,0.21370211 0 1 1 -0.427397,0 0.2137021,0.21370211 0 0 1 0.427397,0 z m -1.4959107,1.495914 a 0.21370216,0.21370217 0 1 1 -0.4274039,0 0.21370216,0.21370217 0 0 1 0.4274039,0 z M 7.7138094,8.995834 a 0.21370229,0.2137023 0 1 1 -0.4274041,0 0.21370229,0.2137023 0 0 1 0.4274041,0 z"
       fill="#4d4d4d"
       id="path78"
       style="stroke-width:0.264582" />
    <path
       d="m 10.914848,9.086443 a 1.923317,1.9233171 0 0 1 -1.918827,1.832711 1.923317,1.9233171 0 0 1 -1.9188292,-1.800227 1.923317,1.9233171 0 0 0 -0.00454,0.09061 1.923317,1.9233171 0 0 0 1.9233175,1.923318 1.923317,1.9233171 0 0 0 1.9233127,-1.923318 1.923317,1.9233171 0 0 0 -0.0048,-0.123093 z"
       fill="#7f8c8d"
       id="path80"
       style="stroke-width:0.264582" />
    <path
       d="m 11.987845,10.70545 -1.709608,0.854804 -0.213703,0.427404 -0.6411089,0.641104 -2.2325442,1.624133 c 0.5656691,0.192986 1.1723682,0.299188 1.8051401,0.299188 0.046579,0 0.092313,-0.0026 0.1384792,-0.0042 l 0.9300338,-1.278633 0.6411,-0.641106 0.427408,-0.213702 z"
       fill="#292c2f"
       opacity="0.2"
       id="path86"
       style="stroke-width:0.264582" />
    <circle
       cx="8.9960136"
       cy="8.9958315"
       r="0.64110625"
       id="circle90"
       style="fill:#ececec;stroke-width:0.264582" />
    <path
       d="m 14.551847,8.822949 c -0.07112,2.931346 -2.365686,5.350884 -5.2581388,5.507095 l -0.159208,0.218628 c 3.0132068,-0.07369 5.4173468,-2.536226 5.4173468,-5.585748 0,-0.04701 0.0013,-0.0934 0,-0.139975 z"
       fill="#6e3e86"
       id="path94"
       style="stroke-width:0.264582" />
    <path
       d="m 11.987845,10.70545 -1.709608,0.854804 -0.213703,0.427404 -0.6411089,0.641104 -2.2325442,1.624133 c 0.5656691,0.192986 1.1723682,0.299188 1.8051401,0.299188 0.046579,0 0.092313,-0.0026 0.1384792,-0.0042 l 0.9300338,-1.278485 0.6411,-0.641107 0.427408,-0.213726 z m -1.282211,0.980039 0.302187,0.302169 -0.302187,0.302176 -0.302166,-0.302176 z m -0.729575,0.729588 0.302178,0.302158 -0.125233,0.125233 H 9.8508283 V 12.540296 Z M 9.4234251,13.056164 A 0.21370194,0.21370195 0 0 1 9.6371268,13.26988 0.21370194,0.21370195 0 0 1 9.4234251,13.483577 0.21370194,0.21370195 0 0 1 9.2097233,13.26988 0.21370194,0.21370195 0 0 1 9.4234251,13.056164 Z m -0.6411057,0.427413 0.4274039,0.427401 -0.3534632,0.423988 A 5.4547423,5.4547425 0 0 1 7.8911825,14.225977 Z M 7.920032,14.447366 c 0.0205,0.005 0.041265,0.0087 0.061765,0.01068 -0.0205,-0.0045 -0.041265,-0.0082 -0.061956,-0.01068 z"
       id="path96"
       style="fill:#ffffff;stroke-width:0.264582;fill-opacity:1" />
    <path
       d="m 9.8508283,12.540296 -1.0685089,0.943281 0.4274039,0.427401 0.9432807,-1.06851 H 9.8508283 Z m 0.5526397,-0.552638 -0.427409,0.427419 0.302178,0.302158 0.427397,-0.427401 z m 1.156981,-0.854804 -0.854815,0.552635 0.302187,0.302169 z"
       fill="#292c2f"
       opacity="0.1"
       id="path98"
       style="stroke-width:0.264582" />
  </g>
</svg>
