<?xml version="1.0" encoding="UTF-8" standalone="no"?>
<svg
   xmlns:dc="http://purl.org/dc/elements/1.1/"
   xmlns:cc="http://creativecommons.org/ns#"
   xmlns:rdf="http://www.w3.org/1999/02/22-rdf-syntax-ns#"
   xmlns:svg="http://www.w3.org/2000/svg"
   xmlns="http://www.w3.org/2000/svg"
   xmlns:xlink="http://www.w3.org/1999/xlink"
   xmlns:sodipodi="http://sodipodi.sourceforge.net/DTD/sodipodi-0.dtd"
   xmlns:inkscape="http://www.inkscape.org/namespaces/inkscape"
   id="svg12"
   width="32"
   height="32"
   version="1.1"
   sodipodi:docname="start.svg"
   inkscape:version="1.0.1 (3bc2e813f5, 2020-09-07)">
  <style
     type="text/css"
     id="current-color-scheme">
.ColorScheme-Highlight { 
    color:#6f59b2;
}
</style>
  <metadata
     id="metadata19">
    <rdf:RDF>
      <cc:Work
         rdf:about="">
        <dc:format>image/svg+xml</dc:format>
        <dc:type
           rdf:resource="http://purl.org/dc/dcmitype/StillImage" />
        <dc:title />
      </cc:Work>
    </rdf:RDF>
  </metadata>
  <defs
     id="defs17">
    <linearGradient
       inkscape:collect="always"
       id="linearGradient985">
      <stop
         style="stop-color:#4e51ac;stop-opacity:1"
         offset="0"
         id="stop980" />
      <stop
         style="stop-color:#4e9fac;stop-opacity:1"
         offset="1"
         id="stop982" />
    </linearGradient>
    <linearGradient
       inkscape:collect="always"
       xlink:href="#linearGradient985"
       id="linearGradient11"
       gradientUnits="userSpaceOnUse"
       x1="0"
       y1="16"
       x2="32"
       y2="16"
       gradientTransform="matrix(0.6875,0,0,0.6875,-22,10.000001)" />
    <linearGradient
       inkscape:collect="always"
       xlink:href="#linearGradient985"
       id="linearGradient14"
       gradientUnits="userSpaceOnUse"
       gradientTransform="matrix(0.5,0,0,0.5,-38,15.999999)"
       x1="0"
       y1="16"
       x2="32"
       y2="16" />
  </defs>
  <sodipodi:namedview
     pagecolor="#8d8d8d"
     bordercolor="#000000"
     borderopacity="1"
     objecttolerance="10"
     gridtolerance="10"
     guidetolerance="10"
     inkscape:pageopacity="0"
     inkscape:pageshadow="2"
     inkscape:window-width="1920"
     inkscape:window-height="988"
     id="namedview15"
     showgrid="true"
     inkscape:zoom="9.0043819"
     inkscape:cx="-52.57452"
     inkscape:cy="12.491447"
     inkscape:window-x="0"
     inkscape:window-y="0"
     inkscape:window-maximized="1"
     inkscape:current-layer="svg12"
     inkscape:document-rotation="0"
     inkscape:pagecheckerboard="false"
     inkscape:showpageshadow="true"
     inkscape:deskcolor="#280b17"
     labelstyle="default">
    <inkscape:grid
       id="grid1"
       units="px"
       originx="16.000001"
       originy="-49.000001"
       spacingx="1"
       spacingy="1"
       empcolor="#0099e5"
       empopacity="0.30196078"
       color="#0099e5"
       opacity="0.14901961"
       empspacing="5"
       dotted="false"
       gridanglex="30"
       gridanglez="30"
       visible="true" />
  </sodipodi:namedview>
  <g
     id="22-22-start-here-kde">
    <rect
       id="rect7-1"
       style="opacity:0.00100002;fill:url(#linearGradient11);stroke-width:0.6875"
       width="22"
       height="22"
       x="-21.907078"
       y="10.095" />
    <path
       id="path20-6"
       style="fill:#0077ee;fill-opacity:0.30000001;stroke:#0077ee;stroke-width:1.2;stroke-dasharray:none;stroke-opacity:1"
       d="m -15.609202,12.036153 c -0.627929,0 -1.136968,0.512315 -1.136968,1.144285 0,0.631976 0.509039,1.144293 1.136968,1.144293 0.627932,0 1.136969,-0.512317 1.136969,-1.144293 0,-0.63197 -0.509037,-1.144285 -1.136969,-1.144285 z m 7.958774,0 c -1.385699,-0.774089 -3.028872,0.865334 -2.273934,2.288578 l 3.410903,3.432886 -3.410903,3.432879 c -0.936683,1.574507 0.91662,3.084318 2.273934,2.28858 l 5.684841,-5.721459 z m -10.611699,6.865757 c -1.046548,0 -1.894946,0.853855 -1.894946,1.907157 0,1.053291 0.848398,1.907144 1.894946,1.907144 1.046556,0 1.89495,-0.853853 1.89495,-1.907144 0,-1.053302 -0.848394,-1.907157 -1.89495,-1.907157 z m 4.926865,6.865752 c -1.255862,0 -2.27394,1.024633 -2.27394,2.288594 0,1.263947 1.018078,2.288582 2.27394,2.288582 1.255856,0 2.273935,-1.024635 2.273935,-2.288582 0,-1.263961 -1.018079,-2.288594 -2.273935,-2.288594 z"
       class="ColorScheme-Highlight "
       sodipodi:nodetypes="ssssscccccccssssssssss" />
  </g>
  <g
     id="start-here-kde">
    <g
       id="g1">
      <rect
         style="fill:none;fill-rule:evenodd;stroke:none;stroke-width:1px;stroke-linecap:butt;stroke-linejoin:miter;stroke-opacity:1"
         id="rect3343"
         width="32"
         height="32"
         x="0"
         y="0" />
      <path
         id="path20"
         style="fill:#0077ee;fill-opacity:0.30000001;stroke:#0077ee;stroke-width:1.5;stroke-dasharray:none;stroke-opacity:1"
         d="m 9.797587,4.0049284 c -0.834998,0 -1.511896,0.6784334 -1.511896,1.5153235 0,0.8368901 0.676898,1.5153238 1.511896,1.5153238 0.834997,0 1.511896,-0.6784337 1.511896,-1.5153238 0,-0.8368901 -0.676899,-1.5153235 -1.511896,-1.5153235 z m 10.583276,0 C 18.538209,2.979853 16.35318,5.1508527 17.357068,7.0355757 l 4.535692,4.5459703 -4.535692,4.545971 c -1.245565,2.085033 1.218889,4.084389 3.023795,3.030647 l 7.559483,-7.576618 z M 6.269827,13.09687 c -1.391663,0 -2.519827,1.130722 -2.519827,2.525539 0,1.394817 1.128164,2.525539 2.519827,2.525539 1.391663,0 2.519829,-1.130722 2.519829,-2.525539 0,-1.394817 -1.128166,-2.525539 -2.519829,-2.525539 z m 6.551553,9.091942 c -1.669995,0 -3.023793,1.356867 -3.023793,3.030646 0,1.67378 1.353798,3.030647 3.023793,3.030647 1.669993,0 3.023792,-1.356867 3.023792,-3.030647 0,-1.673779 -1.353799,-3.030646 -3.023792,-3.030646 z"
         class="ColorScheme-Highlight "
         sodipodi:nodetypes="ssssscccccccssssssssss" />
    </g>
  </g>
  <g
     id="16-16-start-here-kde">
    <rect
       id="rect7-1-2"
       style="opacity:0.00100002;fill:url(#linearGradient14);stroke-width:0.5"
       width="16"
       height="16"
       x="-38.107079"
       y="16.094999" />
    <path
       id="path20-6-7"
       style="fill:#0077ee;fill-opacity:0.3019608;stroke:#0077ee;stroke-width:0.8;stroke-dasharray:none;stroke-opacity:1"
       d="m -33.448351,17.632676 c -0.449937,0 -0.814682,0.365505 -0.814682,0.816381 0,0.450887 0.364745,0.8164 0.814682,0.8164 0.449938,0 0.814685,-0.365513 0.814685,-0.8164 0,-0.450876 -0.364747,-0.816381 -0.814685,-0.816381 z m 5.702775,0 c -0.992906,-0.552278 -2.170307,0.617364 -1.629364,1.632781 l 2.444047,2.44919 -2.444047,2.449185 c -0.671166,1.123328 0.656797,2.200504 1.629364,1.632783 l 4.073413,-4.081968 z m -7.6037,4.898365 c -0.749891,0 -1.357802,0.609179 -1.357802,1.360661 0,0.751467 0.607911,1.360646 1.357802,1.360646 0.7499,0 1.357807,-0.609179 1.357807,-1.360646 0,-0.751482 -0.607907,-1.360661 -1.357807,-1.360661 z m 3.530295,4.898364 c -0.899877,0 -1.62937,0.731022 -1.62937,1.632797 0,0.901759 0.729493,1.632783 1.62937,1.632783 0.899868,0 1.629363,-0.731024 1.629363,-1.632783 0,-0.901775 -0.729495,-1.632797 -1.629363,-1.632797 z"
       class="ColorScheme-Highlight "
       sodipodi:nodetypes="ssssscccccccssssssssss" />
  </g>
</svg>
