<?xml version="1.0" encoding="UTF-8" standalone="no"?>
<svg
   width="68"
   height="68"
   viewBox="0 0 17.991665 17.991665"
   version="1.1"
   id="svg1114"
   inkscape:version="1.3.2 (091e20ef0f, 2023-11-25)"
   sodipodi:docname="preferences-system-windows-effect-startupfeedback.svg"
   xmlns:inkscape="http://www.inkscape.org/namespaces/inkscape"
   xmlns:sodipodi="http://sodipodi.sourceforge.net/DTD/sodipodi-0.dtd"
   xmlns:xlink="http://www.w3.org/1999/xlink"
   xmlns="http://www.w3.org/2000/svg"
   xmlns:svg="http://www.w3.org/2000/svg"
   xmlns:rdf="http://www.w3.org/1999/02/22-rdf-syntax-ns#"
   xmlns:cc="http://creativecommons.org/ns#"
   xmlns:dc="http://purl.org/dc/elements/1.1/">
  <style
     type="text/css"
     id="current-color-scheme">.ColorScheme-Highlight { color:#5599ff; }
</style>
  <defs
     id="defs1108">
    <linearGradient
       id="linearGradient12"
       inkscape:collect="always">
      <stop
         style="stop-color:#ffffff;stop-opacity:0;"
         offset="0"
         id="stop10" />
      <stop
         id="stop11"
         offset="0.65909404"
         style="stop-color:#ffffff;stop-opacity:0" />
      <stop
         style="stop-color:#ffffff;stop-opacity:1;"
         offset="1"
         id="stop12" />
    </linearGradient>
    <linearGradient
       id="linearGradient9"
       inkscape:collect="always">
      <stop
         style="stop-color:#000000;stop-opacity:0;"
         offset="0"
         id="stop1" />
      <stop
         id="stop8"
         offset="0.66102529"
         style="stop-color:#000000;stop-opacity:0" />
      <stop
         style="stop-color:#000000;stop-opacity:1;"
         offset="1"
         id="stop9" />
    </linearGradient>
    <linearGradient
       id="linearGradient7"
       inkscape:collect="always">
      <stop
         style="stop-color:#000000;stop-opacity:0;"
         offset="0"
         id="stop5" />
      <stop
         id="stop6"
         offset="0.6586886"
         style="stop-color:#000000;stop-opacity:0" />
      <stop
         style="stop-color:#000000;stop-opacity:1;"
         offset="1"
         id="stop7" />
    </linearGradient>
    <linearGradient
       id="linearGradient4"
       inkscape:collect="always">
      <stop
         style="stop-color:#000000;stop-opacity:0;"
         offset="0"
         id="stop2" />
      <stop
         id="stop3"
         offset="0.67055255"
         style="stop-color:#000000;stop-opacity:0" />
      <stop
         style="stop-color:#000000;stop-opacity:1;"
         offset="1"
         id="stop4" />
    </linearGradient>
    <linearGradient
       inkscape:collect="always"
       id="linearGradient899">
      <stop
         style="stop-color:#3385ff;stop-opacity:1;"
         offset="0"
         id="stop895" />
      <stop
         style="stop-color:#000000;stop-opacity:1;"
         offset="0.22256941"
         id="stop14" />
      <stop
         style="stop-color:#5fa1ff;stop-opacity:1;"
         offset="0.23458618"
         id="stop13" />
      <stop
         style="stop-color:#00aad4;stop-opacity:1;"
         offset="1"
         id="stop897" />
    </linearGradient>
    <linearGradient
       id="linearGradient1167"
       x1="40.751999"
       x2="40.751999"
       y1="28.507999"
       y2="17.205999"
       gradientUnits="userSpaceOnUse">
      <stop
         style="stop-color:#84fb6e;stop-opacity:1"
         stop-color="#0ab816"
         offset="0"
         id="stop1163" />
      <stop
         style="stop-color:#0dd41a;stop-opacity:1"
         stop-color="#0cf36c"
         offset="1"
         id="stop1165" />
    </linearGradient>
    <linearGradient
       id="cornerBevel"
       inkscape:collect="always">
      <stop
         style="stop-color:#000000;stop-opacity:0;"
         offset="0"
         id="stop2663" />
      <stop
         id="stop2671"
         offset="0.66666675"
         style="stop-color:#000000;stop-opacity:0" />
      <stop
         style="stop-color:#000000;stop-opacity:1;"
         offset="1"
         id="stop2661" />
    </linearGradient>
    <linearGradient
       id="bevel"
       inkscape:collect="always">
      <stop
         id="stop2685"
         offset="0"
         style="stop-color:#000000;stop-opacity:1;" />
      <stop
         id="stop2687"
         offset="1"
         style="stop-color:#000000;stop-opacity:0;" />
    </linearGradient>
    <linearGradient
       id="highlightCorner"
       inkscape:collect="always">
      <stop
         style="stop-color:#ffffff;stop-opacity:0;"
         offset="0"
         id="stop2613" />
      <stop
         id="stop2621"
         offset="0.66666669"
         style="stop-color:#ffffff;stop-opacity:0" />
      <stop
         style="stop-color:#ffffff;stop-opacity:1;"
         offset="1"
         id="stop2611" />
    </linearGradient>
    <linearGradient
       inkscape:collect="always"
       id="highlight">
      <stop
         style="stop-color:#ffffff;stop-opacity:1;"
         offset="0"
         id="stop2921" />
      <stop
         style="stop-color:#ffffff;stop-opacity:0;"
         offset="1"
         id="stop2923" />
    </linearGradient>
    <radialGradient
       inkscape:collect="always"
       xlink:href="#highlightCorner"
       id="radialGradient15"
       gradientUnits="userSpaceOnUse"
       gradientTransform="matrix(0.04294597,-12.079348,17.933991,0.06376112,14.524179,-50.373789)"
       cx="-4.5799766"
       cy="-0.50206107"
       fx="-4.5799766"
       fy="-0.50206107"
       r="0.39687499" />
    <linearGradient
       inkscape:collect="always"
       xlink:href="#highlight"
       id="linearGradient15"
       gradientUnits="userSpaceOnUse"
       x1="-3.8453064"
       y1="-1.1532172"
       x2="-3.8453064"
       y2="-0.8954913"
       gradientTransform="matrix(6.0923077,0,0,6.0923077,32.228528,7.1537621)" />
    <radialGradient
       inkscape:collect="always"
       xlink:href="#linearGradient12"
       id="radialGradient17"
       gradientUnits="userSpaceOnUse"
       gradientTransform="matrix(-0.02247554,-12.045403,-17.967828,0.03352619,1.6640208,-50.22331)"
       cx="-4.575222"
       cy="-0.55256462"
       fx="-4.575222"
       fy="-0.55256462"
       r="0.39687499" />
    <radialGradient
       inkscape:collect="always"
       xlink:href="#linearGradient7"
       id="radialGradient18"
       gradientUnits="userSpaceOnUse"
       gradientTransform="matrix(0.06461187,12.09952,17.933731,-0.09576873,14.609502,64.748231)"
       cx="-4.4284906"
       cy="-0.50121039"
       fx="-4.4284906"
       fy="-0.50121039"
       r="0.39687499" />
    <linearGradient
       inkscape:collect="always"
       xlink:href="#bevel"
       id="linearGradient18"
       gradientUnits="userSpaceOnUse"
       x1="-3.8415797"
       y1="-1.4506671"
       x2="-3.8406549"
       y2="-1.1968651"
       gradientTransform="matrix(6.0923076,0,0,6.0923076,32.228527,-7.1537627)" />
    <radialGradient
       inkscape:collect="always"
       xlink:href="#linearGradient4"
       id="radialGradient20"
       gradientUnits="userSpaceOnUse"
       gradientTransform="matrix(-0.01031383,11.991438,-17.967296,-0.01545561,1.7353715,64.305742)"
       cx="-4.4236727"
       cy="-0.55004197"
       fx="-4.4236727"
       fy="-0.55004197"
       r="0.39687499" />
    <radialGradient
       inkscape:collect="always"
       xlink:href="#cornerBevel"
       id="radialGradient25"
       gradientUnits="userSpaceOnUse"
       gradientTransform="matrix(12.184614,0,0,12.184614,59.63122,10.377613)"
       cx="-4.4568658"
       cy="-0.44864327"
       fx="-4.4568658"
       fy="-0.44864327"
       r="0.39687496" />
    <linearGradient
       inkscape:collect="always"
       xlink:href="#bevel"
       id="linearGradient25"
       gradientUnits="userSpaceOnUse"
       x1="-3.8487544"
       y1="-1.146081"
       x2="-3.8455966"
       y2="-0.890971"
       gradientTransform="matrix(6.0923077,0,0,6.0923077,32.228528,7.1537627)" />
    <radialGradient
       inkscape:collect="always"
       xlink:href="#cornerBevel"
       id="radialGradient29"
       gradientUnits="userSpaceOnUse"
       gradientTransform="matrix(0,-12.184614,12.184614,0,11.27353,-44.427768)"
       cx="-4.5705457"
       cy="-0.48653662"
       fx="-4.5705457"
       fy="-0.48653662"
       r="0.39687496" />
    <radialGradient
       inkscape:collect="always"
       xlink:href="#cornerBevel"
       id="radialGradient30"
       gradientUnits="userSpaceOnUse"
       gradientTransform="matrix(-12.184514,-0.04945749,0.04847411,-11.942243,-43.502155,3.8519053)"
       cx="-4.5342312"
       cy="-0.60337442"
       fx="-4.5342312"
       fy="-0.60337442"
       r="0.39687496" />
    <radialGradient
       inkscape:collect="always"
       xlink:href="#linearGradient9"
       id="radialGradient31"
       gradientUnits="userSpaceOnUse"
       gradientTransform="matrix(0,-12.151612,11.978956,0,18.475664,-48.770776)"
       cx="-4.4175329"
       cy="-0.56489283"
       fx="-4.4175329"
       fy="-0.56489283"
       r="0.39687496" />
    <linearGradient
       inkscape:collect="always"
       xlink:href="#bevel"
       id="linearGradient34"
       gradientUnits="userSpaceOnUse"
       x1="-3.99717"
       y1="-1.2218677"
       x2="-4.0003276"
       y2="-0.96675771"
       gradientTransform="matrix(6.0923077,0,0,6.0923077,17.025077,8.0496826)" />
    <linearGradient
       inkscape:collect="always"
       xlink:href="#bevel"
       id="linearGradient35"
       gradientUnits="userSpaceOnUse"
       x1="-4.0919032"
       y1="-1.4492278"
       x2="-4.0950613"
       y2="-1.1972755"
       gradientTransform="matrix(6.0923077,0,0,6.0923077,16.129161,-7.1537627)" />
    <linearGradient
       inkscape:collect="always"
       xlink:href="#bevel"
       id="linearGradient36"
       gradientUnits="userSpaceOnUse"
       x1="-3.8734362"
       y1="-1.3717227"
       x2="-3.8765941"
       y2="-1.116071"
       gradientTransform="matrix(6.0923077,0,0,6.0923077,31.33261,-8.0496826)" />
    <linearGradient
       id="paint2_linear_77:3-7"
       x1="79.398094"
       y1="-197.84389"
       x2="82.901054"
       y2="-199.97827"
       gradientUnits="userSpaceOnUse"
       gradientTransform="matrix(1.9248511,0,0,1.7314595,-40.88733,399.61741)">
      <stop
         stop-color="#EBFAFF"
         stop-opacity="0.1"
         id="stop29-5-7"
         offset="0"
         style="stop-color:#c3c3c3;stop-opacity:1;" />
      <stop
         offset="1"
         stop-color="#70A9FF"
         stop-opacity="0.5"
         id="stop30-0-1"
         style="stop-color:#05c7ff;stop-opacity:0.80000001;" />
    </linearGradient>
    <linearGradient
       inkscape:collect="always"
       xlink:href="#linearGradient899"
       id="linearGradient926"
       x1="1.0705695"
       y1="-9.2317743"
       x2="16.919081"
       y2="-9.2251434"
       gradientUnits="userSpaceOnUse"
       gradientTransform="translate(-0.92604234,0.47624996)" />
    <linearGradient
       inkscape:collect="always"
       xlink:href="#linearGradient979"
       id="linearGradient1"
       gradientUnits="userSpaceOnUse"
       gradientTransform="matrix(-0.8579715,0,0,-0.85549067,31.691743,20.250332)"
       x1="-5.5523267"
       y1="-9.0262012"
       x2="23.542997"
       y2="17.644512" />
    <linearGradient
       id="linearGradient979"
       inkscape:collect="always">
      <stop
         id="stop975"
         stop-color="#95a5a6"
         style="stop-color:#b3b3b3;stop-opacity:1" />
      <stop
         id="stop977"
         stop-color="#eff0f1"
         offset="1" />
    </linearGradient>
    <linearGradient
       inkscape:collect="always"
       xlink:href="#linearGradient973"
       id="linearGradient1000"
       gradientUnits="userSpaceOnUse"
       gradientTransform="matrix(-0.8579715,0,0,-0.85549067,31.691743,22.32457)"
       x1="-5.5523267"
       y1="-6.4075766"
       x2="16.269167"
       y2="15.413917" />
    <linearGradient
       id="linearGradient973"
       inkscape:collect="always">
      <stop
         id="stop969"
         stop-color="#95a5a6"
         style="stop-color:#cccccc;stop-opacity:1" />
      <stop
         id="stop971"
         stop-color="#eff0f1"
         offset="1" />
    </linearGradient>
    <linearGradient
       gradientTransform="matrix(0.85780531,-6.2020751e-4,-6.2020751e-4,0.85565685,37.060968,15.865905)"
       gradientUnits="userSpaceOnUse"
       x2="-14.393877"
       x1="-44.393879"
       id="linearGradient4464-4-2"
       xlink:href="#linearGradient4458"
       inkscape:collect="always" />
    <linearGradient
       id="linearGradient4458"
       inkscape:collect="always">
      <stop
         id="stop10698"
         stop-color="#95a5a6" />
      <stop
         id="stop10700"
         stop-color="#eff0f1"
         offset="1" />
    </linearGradient>
    <linearGradient
       inkscape:collect="always"
       xlink:href="#linearGradient973"
       id="linearGradient998"
       gradientUnits="userSpaceOnUse"
       gradientTransform="matrix(-0.8579715,0,0,-0.85549067,31.691743,24.917372)"
       x1="-5.5523267"
       y1="-4.9528136"
       x2="23.542997"
       y2="28.991732" />
    <linearGradient
       gradientTransform="matrix(0.79668719,0,0,0.79438357,-308.0297,-418.06596)"
       inkscape:collect="always"
       xlink:href="#linearGradient4143"
       id="linearGradient4149-8-6"
       y1="545.79797"
       x2="0"
       y2="517.79797"
       gradientUnits="userSpaceOnUse" />
    <linearGradient
       inkscape:collect="always"
       id="linearGradient4143">
      <stop
         id="stop10732"
         stop-color="#197cf1" />
      <stop
         id="stop10734"
         stop-color="#20bcfa"
         offset="1" />
    </linearGradient>
    <linearGradient
       gradientUnits="userSpaceOnUse"
       y2="543.79797"
       x2="0"
       y1="503.798"
       id="linearGradient4305-6-1"
       xlink:href="#linearGradient4299"
       inkscape:collect="always"
       gradientTransform="matrix(0.55768166,0,0,0.55606912,-216.75233,-286.88228)" />
    <linearGradient
       id="linearGradient4299"
       inkscape:collect="always">
      <stop
         id="stop10726"
         stop-color="#abf9c7" />
      <stop
         id="stop10728"
         stop-color="#54d883"
         offset="1" />
    </linearGradient>
  </defs>
  <sodipodi:namedview
     id="base"
     pagecolor="#e2e2e2"
     bordercolor="#666666"
     borderopacity="1.0"
     inkscape:pageopacity="0"
     inkscape:pageshadow="2"
     inkscape:zoom="9.7248729"
     inkscape:cx="32.596827"
     inkscape:cy="38.149599"
     inkscape:document-units="px"
     inkscape:current-layer="layer1"
     inkscape:document-rotation="0"
     showgrid="true"
     units="px"
     inkscape:window-width="1920"
     inkscape:window-height="990"
     inkscape:window-x="0"
     inkscape:window-y="0"
     inkscape:window-maximized="1"
     inkscape:object-paths="true"
     inkscape:snap-grids="true"
     inkscape:snap-intersection-paths="true"
     inkscape:snap-smooth-nodes="true"
     inkscape:snap-midpoints="true"
     inkscape:showpageshadow="2"
     inkscape:pagecheckerboard="0"
     inkscape:deskcolor="#d1d1d1">
    <inkscape:grid
       id="grid2"
       units="px"
       originx="0"
       originy="0"
       spacingx="0.26458333"
       spacingy="0.26458333"
       empcolor="#0099e5"
       empopacity="0.30196078"
       color="#0099e5"
       opacity="0.14902"
       empspacing="5"
       dotted="false"
       gridanglex="30"
       gridanglez="30"
       visible="true" />
  </sodipodi:namedview>
  <metadata
     id="metadata1111">
    <rdf:RDF>
      <cc:Work
         rdf:about="">
        <dc:format>image/svg+xml</dc:format>
        <dc:type
           rdf:resource="http://purl.org/dc/dcmitype/StillImage" />
      </cc:Work>
    </rdf:RDF>
  </metadata>
  <g
     inkscape:label="Layer 1"
     inkscape:groupmode="layer"
     id="layer1">
    <g
       id="g918"
       transform="translate(0.47625037,0.92604234)">
      <rect
         ry="4.8357682"
         rx="4.8357682"
         style="fill:url(#linearGradient926);fill-opacity:1;stroke-width:6.09228"
         x="0.13229237"
         y="-16.457085"
         width="15.875001"
         height="15.875001"
         id="use1056"
         transform="rotate(90)"
         class="ColorScheme-Highlight" />
      <path
         d="m 5.344583,0.13229167 c -2.6384245,0 -4.76249953,2.12407483 -4.76249953,4.76249963 H 5.344583 Z"
         style="opacity:0.15;fill:url(#radialGradient25);fill-opacity:1;stroke-width:6.09228"
         id="path20" />
      <rect
         y="0.13229151"
         x="5.3445826"
         height="1.5875"
         width="6.3500004"
         id="rect20"
         style="opacity:0.15;fill:url(#linearGradient25);fill-opacity:1;stroke-width:4.83577;stroke-linecap:round;stroke-linejoin:round;paint-order:stroke fill markers" />
      <path
         d="m 0.58208347,11.244792 c 0,2.638424 2.12407503,4.762499 4.76249953,4.762499 v -4.762499 z"
         style="opacity:0.15;fill:url(#radialGradient29);fill-opacity:1;stroke-width:6.09228"
         id="use20" />
      <rect
         y="0.5820834"
         x="-11.244792"
         height="1.5875"
         width="6.3500004"
         id="use21"
         style="opacity:0.15;fill:url(#linearGradient34);fill-opacity:1;stroke-width:4.83577;stroke-linecap:round;stroke-linejoin:round;paint-order:stroke fill markers"
         transform="rotate(-90)" />
      <path
         d="m 11.694583,16.007291 c 2.638425,0 4.7625,-2.124074 4.7625,-4.762499 h -4.7625 z"
         style="opacity:0.15;fill:url(#radialGradient30);fill-opacity:1;stroke-width:6.09228"
         id="use22" />
      <rect
         y="-16.007292"
         x="-11.694584"
         height="1.5875"
         width="6.3500004"
         id="use23"
         style="opacity:0.15;fill:url(#linearGradient35);fill-opacity:1;stroke-width:4.83577;stroke-linecap:round;stroke-linejoin:round;paint-order:stroke fill markers"
         transform="scale(-1)" />
      <path
         d="m 16.457083,4.8947913 c 0,-2.6384245 -2.124074,-4.76249963 -4.7625,-4.76249963 V 4.8947913 Z"
         style="opacity:0.15;fill:url(#radialGradient31);fill-opacity:1;stroke-width:6.09228"
         id="use24" />
      <rect
         y="-16.457081"
         x="4.8947906"
         height="1.5875"
         width="6.3500004"
         id="use25"
         style="opacity:0.15;fill:url(#linearGradient36);fill-opacity:1;stroke-width:4.83577;stroke-linecap:round;stroke-linejoin:round;paint-order:stroke fill markers"
         transform="rotate(90)" />
      <path
         d="m 5.3445832,0.13229107 c -2.638425,0 -4.76250035,2.12407473 -4.76250035,4.76249973 H 5.3445832 Z"
         style="opacity:0.5;fill:url(#radialGradient15);fill-opacity:1;stroke-width:6.09228"
         id="path14" />
      <rect
         y="0.1322909"
         x="5.3445826"
         height="1.5875"
         width="6.3499999"
         id="rect14"
         style="opacity:0.5;fill:url(#linearGradient15);fill-opacity:1;stroke-width:4.83577;stroke-linecap:round;stroke-linejoin:round;paint-order:stroke fill markers" />
      <path
         d="m 11.694583,0.13229096 c 2.638425,0 4.7625,2.12407504 4.7625,4.76249734 h -4.7625 z"
         style="opacity:0.5;fill:url(#radialGradient17);fill-opacity:1;stroke-width:6.09228"
         id="use14" />
      <path
         id="path17"
         style="opacity:0.5;fill:url(#radialGradient18);fill-opacity:1;stroke-width:6.09228"
         d="m 5.3445834,16.00729 c -2.638425,0 -4.7625,-2.124075 -4.7625,-4.7625 h 4.7625 z" />
      <rect
         style="opacity:0.5;fill:url(#linearGradient18);fill-opacity:1;stroke-width:4.83577;stroke-linecap:round;stroke-linejoin:round;paint-order:stroke fill markers"
         id="rect17"
         width="6.3499994"
         height="1.5874999"
         x="5.3445826"
         y="-16.007292"
         transform="scale(1,-1)" />
      <path
         id="use17"
         style="opacity:0.5;fill:url(#radialGradient20);fill-opacity:1;stroke-width:6.09228"
         d="m 11.694582,16.007291 c 2.638425,0 4.7625,-2.124075 4.7625,-4.7625 h -4.7625 z" />
    </g>
    <g
       id="g10738-8-8-3-8-0-3-9"
       inkscape:label="Layer 1"
       transform="matrix(0.12718845,0,0,0.12755728,7.7987006,9.3965307)"
       style="stroke-width:0.856732">
      <path
         id="path10742-8-3-6-3-0-80-2"
         inkscape:connector-curvature="0"
         d="m 27.167969,43.736328 c 1.352286,-0.215111 2.678906,-0.568528 3.958984,-1.054688 l -0.34375,-3.117187 c 1.170276,-0.509278 2.279478,-1.148724 3.306641,-1.90625 l 2.521484,1.851562 c 1.06238,-0.865659 2.032974,-1.838216 2.896484,-2.902343 l -1.849609,-2.517578 c 0.762159,-1.025893 1.406202,-2.13446 1.919922,-3.304688 L 42.664062,31.125 c 0.488416,-1.28112 0.8438,-2.609067 1.060547,-3.962891 L 40.882812,25.914062 C 40.957857,25.278754 40.996982,24.639717 41,24 40.9929,23.362017 40.94984,22.724942 40.871094,22.091797 l 2.865234,-1.259766 C 43.521217,19.479745 43.1678,18.153125 42.68164,16.873047 l -3.117187,0.34375 c -0.509278,-1.170276 -1.148724,-2.279478 -1.90625,-3.306641 l 1.851562,-2.521484 C 38.644106,10.326292 37.671549,9.355698 36.607422,8.4921879 L 34.089844,10.341797 C 33.063951,9.5796379 31.955384,8.9355948 30.785156,8.4218749 L 31.125,5.3359379 C 29.84388,4.8475223 28.515933,4.4921376 27.162109,4.2753909 l -1.248047,2.841797 C 25.278754,7.0421425 24.639717,7.0030176 24,6.9999999 c -0.637983,0.00713 -1.275058,0.050163 -1.908203,0.128906 l -1.259766,-2.865234 c -1.352286,0.2151106 -2.678906,0.5685269 -3.958984,1.054687 l 0.34375,3.117188 C 16.046521,8.9448248 14.937319,9.5842706 13.910156,10.341797 L 11.388672,8.4902339 c -1.06238,0.865659 -2.0329741,1.8382171 -2.8964841,2.9023441 l 1.8496091,2.517578 c -0.7621591,1.025893 -1.4062022,2.13446 -1.9199221,3.304688 L 5.3359379,16.875 c -0.4884156,1.28112 -0.8438003,2.609067 -1.060547,3.962891 l 2.841797,1.248047 C 7.0421425,22.721246 7.0030176,23.360283 6.9999999,24 c 0.00713,0.637983 0.050163,1.275058 0.128906,1.908203 l -2.865234,1.259766 c 0.2151106,1.352286 0.5685269,2.678906 1.054687,3.958984 l 3.117188,-0.34375 c 0.5092779,1.170276 1.1487237,2.279478 1.9062501,3.306641 l -1.8515631,2.521484 c 0.865659,1.06238 1.8382171,2.032974 2.9023441,2.896484 l 2.517578,-1.849609 c 1.025893,0.762159 2.13446,1.406202 3.304688,1.919922 L 16.875,42.664062 c 1.28112,0.488416 2.609067,0.8438 3.962891,1.060547 l 1.248047,-2.841797 C 22.721246,40.957857 23.360283,40.996982 24,41 c 0.637983,-0.0071 1.275058,-0.05016 1.908203,-0.128906 z"
         style="color:#000000;fill:url(#linearGradient1);stroke-width:2.57019;stroke-linecap:round;stroke-linejoin:round"
         sodipodi:nodetypes="ccccccccccccccccccccccccccccccccccccccccccccccccccccc" />
      <path
         id="path10744-3-8-4-8-2-1-0"
         inkscape:connector-curvature="0"
         d="m 16.978516,5.2792969 c -0.03519,0.012922 -0.07035,0.025943 -0.105469,0.039063 l 0.238281,2.1699218 c 0.03509,-0.0177 0.07025,-0.035278 0.105469,-0.052734 z m 14.041015,0.021484 -0.234375,2.1210938 c 0.03521,0.015506 0.07037,0.031131 0.105469,0.046875 L 31.125,5.3359375 c -0.03512,-0.011817 -0.07028,-0.023535 -0.105469,-0.035157 z m 8.085938,5.6386721 -1.447266,1.970703 c 0.121646,0.169678 0.240156,0.341582 0.355469,0.515625 l 1.496094,-2.037109 C 39.377271,11.236905 39.24249,11.087148 39.105469,10.939453 Z m -30.2109378,0.002 c -0.1363799,0.148355 -0.2705098,0.298763 -0.4023437,0.451172 l 1.5,2.041016 C 10.105484,13.256972 10.22204,13.082463 10.341797,12.910156 Z m 34.6484378,8.97461 -2.671875,1.175781 c 0.03331,0.322162 0.05741,0.645211 0.07227,0.96875 l 2.792969,-1.228516 c -0.0573,-0.306805 -0.121767,-0.612227 -0.193359,-0.916015 z m -39.074219,0.0078 c -0.071562,0.30314 -0.1360327,0.607911 -0.1933594,0.914063 l 2.7753906,1.21875 c 0.012869,-0.324135 0.035014,-0.647835 0.066406,-0.970703 z m 2.5566406,3.501953 C 7.0136917,23.617031 7.0052269,23.808464 7,24 c 0.010206,0.313614 0.029094,0.626885 0.056641,0.939453 l 0.072266,-0.03125 C 7.0728099,24.415807 7.0382717,23.921194 7.0253906,23.425781 Z m 33.9492184,0.148438 c -0.01294,0.447649 -0.04356,0.894612 -0.0918,1.339843 l 0.06641,0.0293 C 40.974882,24.629437 40.991815,24.314863 41,24 40.9933,23.857972 40.98485,23.716034 40.97461,23.574219 Z m 2.556641,3.501953 c -0.207947,1.037583 -0.49792,2.05706 -0.867188,3.048793 l -3.085937,-0.339844 c -0.51372,1.170228 -1.157763,2.278795 -1.919922,3.304688 l 0.349609,0.476562 c 0.60956,-0.875749 1.135318,-1.806941 1.570313,-2.78125 L 42.664062,31.125 c 0.488416,-1.28112 0.8438,-2.609067 1.060547,-3.962891 z m -39.0742188,0.0078 -0.1933593,0.08398 c 0.2151108,1.352286 0.5685272,2.678906 1.0546875,3.958984 l 3.1171875,-0.34375 c 0.4282215,0.97693 0.947438,1.911389 1.5507812,2.791016 L 10.341797,33.089844 C 9.5842706,32.062681 8.9448248,30.953479 8.4355469,29.783203 l -3.1171875,0.34375 C 4.9513789,29.136955 4.6633693,28.119452 4.4570312,27.083984 Z m 34.6484378,8.97461 c -0.758217,0.888313 -1.592787,1.708505 -2.494141,2.451172 l -2.521484,-1.851563 c -1.027163,0.757526 -2.136365,1.396972 -3.306641,1.90625 l 0.105469,0.947266 c 1.131299,-0.499563 2.204709,-1.12108 3.201172,-1.853516 l 2.521484,1.851563 c 1.06238,-0.865659 2.032974,-1.838217 2.896484,-2.902344 z m -30.2109378,0.002 -0.4042968,0.550781 c 0.8656588,1.06238 1.8382166,2.032974 2.9023436,2.896484 l 2.517578,-1.849609 c 0.994938,0.739106 2.067722,1.367188 3.199219,1.873047 l 0.105469,-0.953125 c -1.170228,-0.51372 -2.278795,-1.157763 -3.304688,-1.919922 l -2.517578,1.849609 C 10.490038,37.76656 9.6541611,36.947675 8.8945312,36.060547 Z M 25.908203,39.871094 C 25.275058,39.949837 24.637983,39.992874 24,40 23.360283,39.997 22.721246,39.95786 22.085938,39.882812 l -1.248047,2.841797 c -1.316782,-0.212317 -2.609023,-0.555824 -3.857422,-1.02539 L 16.875,42.664062 c 1.28112,0.488416 2.609067,0.8438 3.962891,1.060547 l 1.248047,-2.841797 C 22.721246,40.957857 23.360283,40.996982 24,41 c 0.637983,-0.0071 1.275058,-0.05016 1.908203,-0.128906 l 1.259766,2.865234 c 1.352286,-0.215111 2.678906,-0.568527 3.958984,-1.054687 l -0.105469,-0.960938 c -1.247489,0.465989 -2.538401,0.806219 -3.853515,1.015625 z"
         style="color:#000000;fill:#95a5a6;stroke-width:2.57019;stroke-linecap:round;stroke-linejoin:round" />
    </g>
    <path
       d="M 4.2333389,7.1941142 4.2360989,11.65691 5.6026425,9.8259907 H 7.6563684 L 4.2333329,7.1941142 Z"
       id="path3478-1-6-1-5-2-2"
       inkscape:connector-curvature="0"
       sodipodi:nodetypes="cccccc"
       style="fill:#c83771;stroke-width:0.264582" />
    <g
       id="g10738-8-8-3-8-6-3"
       inkscape:label="Layer 1"
       transform="matrix(0.12718845,0,0,0.12755728,7.7987006,7.5656182)"
       style="stroke-width:0.856732">
      <path
         id="path10742-8-3-6-3-2-7"
         inkscape:connector-curvature="0"
         d="m 27.167969,43.736328 c 1.352286,-0.215111 2.678906,-0.568528 3.958984,-1.054688 l -0.34375,-3.117187 c 1.170276,-0.509278 2.279478,-1.148724 3.306641,-1.90625 l 2.521484,1.851562 c 1.06238,-0.865659 2.032974,-1.838216 2.896484,-2.902343 l -1.849609,-2.517578 c 0.762159,-1.025893 1.406202,-2.13446 1.919922,-3.304688 L 42.664062,31.125 c 0.488416,-1.28112 0.8438,-2.609067 1.060547,-3.962891 L 40.882812,25.914062 C 40.957857,25.278754 40.996982,24.639717 41,24 40.9929,23.362017 40.94984,22.724942 40.871094,22.091797 l 2.865234,-1.259766 C 43.521217,19.479745 43.1678,18.153125 42.68164,16.873047 l -3.117187,0.34375 c -0.509278,-1.170276 -1.148724,-2.279478 -1.90625,-3.306641 l 1.851562,-2.521484 C 38.644106,10.326292 37.671549,9.355698 36.607422,8.4921879 L 34.089844,10.341797 C 33.063951,9.5796379 31.955384,8.9355948 30.785156,8.4218749 L 31.125,5.3359379 C 29.84388,4.8475223 28.515933,4.4921376 27.162109,4.2753909 l -1.248047,2.841797 C 25.278754,7.0421425 24.639717,7.0030176 24,6.9999999 c -0.637983,0.00713 -1.275058,0.050163 -1.908203,0.128906 l -1.259766,-2.865234 c -1.352286,0.2151106 -2.678906,0.5685269 -3.958984,1.054687 l 0.34375,3.117188 C 16.046521,8.9448248 14.937319,9.5842706 13.910156,10.341797 L 11.388672,8.4902339 c -1.06238,0.865659 -2.0329741,1.8382171 -2.8964841,2.9023441 l 1.8496091,2.517578 c -0.7621591,1.025893 -1.4062022,2.13446 -1.9199221,3.304688 L 5.3359379,16.875 c -0.4884156,1.28112 -0.8438003,2.609067 -1.060547,3.962891 l 2.841797,1.248047 C 7.0421425,22.721246 7.0030176,23.360283 6.9999999,24 c 0.00713,0.637983 0.050163,1.275058 0.128906,1.908203 l -2.865234,1.259766 c 0.2151106,1.352286 0.5685269,2.678906 1.054687,3.958984 l 3.117188,-0.34375 c 0.5092779,1.170276 1.1487237,2.279478 1.9062501,3.306641 l -1.8515631,2.521484 c 0.865659,1.06238 1.8382171,2.032974 2.9023441,2.896484 l 2.517578,-1.849609 c 1.025893,0.762159 2.13446,1.406202 3.304688,1.919922 L 16.875,42.664062 c 1.28112,0.488416 2.609067,0.8438 3.962891,1.060547 l 1.248047,-2.841797 C 22.721246,40.957857 23.360283,40.996982 24,41 c 0.637983,-0.0071 1.275058,-0.05016 1.908203,-0.128906 z"
         style="color:#000000;fill:url(#linearGradient1000);stroke-width:2.57019;stroke-linecap:round;stroke-linejoin:round"
         sodipodi:nodetypes="ccccccccccccccccccccccccccccccccccccccccccccccccccccc" />
      <path
         id="path10744-3-8-4-8-0-5"
         inkscape:connector-curvature="0"
         d="m 16.978516,5.2792969 c -0.03519,0.012922 -0.07035,0.025943 -0.105469,0.039063 l 0.238281,2.1699218 c 0.03509,-0.0177 0.07025,-0.035278 0.105469,-0.052734 z m 14.041015,0.021484 -0.234375,2.1210938 c 0.03521,0.015506 0.07037,0.031131 0.105469,0.046875 L 31.125,5.3359375 c -0.03512,-0.011817 -0.07028,-0.023535 -0.105469,-0.035157 z m 8.085938,5.6386721 -1.447266,1.970703 c 0.121646,0.169678 0.240156,0.341582 0.355469,0.515625 l 1.496094,-2.037109 C 39.377271,11.236905 39.24249,11.087148 39.105469,10.939453 Z m -30.2109378,0.002 c -0.1363799,0.148355 -0.2705098,0.298763 -0.4023437,0.451172 l 1.5,2.041016 C 10.105484,13.256972 10.22204,13.082463 10.341797,12.910156 Z m 34.6484378,8.97461 -2.671875,1.175781 c 0.03331,0.322162 0.05741,0.645211 0.07227,0.96875 l 2.792969,-1.228516 c -0.0573,-0.306805 -0.121767,-0.612227 -0.193359,-0.916015 z m -39.074219,0.0078 c -0.071562,0.30314 -0.1360327,0.607911 -0.1933594,0.914063 l 2.7753906,1.21875 c 0.012869,-0.324135 0.035014,-0.647835 0.066406,-0.970703 z m 2.5566406,3.501953 C 7.0136917,23.617031 7.0052269,23.808464 7,24 c 0.010206,0.313614 0.029094,0.626885 0.056641,0.939453 l 0.072266,-0.03125 C 7.0728099,24.415807 7.0382717,23.921194 7.0253906,23.425781 Z m 33.9492184,0.148438 c -0.01294,0.447649 -0.04356,0.894612 -0.0918,1.339843 l 0.06641,0.0293 C 40.974882,24.629437 40.991815,24.314863 41,24 40.9933,23.857972 40.98485,23.716034 40.97461,23.574219 Z m 2.556641,3.501953 c -0.207947,1.037583 -0.49792,2.05706 -0.867188,3.048793 l -3.085937,-0.339844 c -0.51372,1.170228 -1.157763,2.278795 -1.919922,3.304688 l 0.349609,0.476562 c 0.60956,-0.875749 1.135318,-1.806941 1.570313,-2.78125 L 42.664062,31.125 c 0.488416,-1.28112 0.8438,-2.609067 1.060547,-3.962891 z m -39.0742188,0.0078 -0.1933593,0.08398 c 0.2151108,1.352286 0.5685272,2.678906 1.0546875,3.958984 l 3.1171875,-0.34375 c 0.4282215,0.97693 0.947438,1.911389 1.5507812,2.791016 L 10.341797,33.089844 C 9.5842706,32.062681 8.9448248,30.953479 8.4355469,29.783203 l -3.1171875,0.34375 C 4.9513789,29.136955 4.6633693,28.119452 4.4570312,27.083984 Z m 34.6484378,8.97461 c -0.758217,0.888313 -1.592787,1.708505 -2.494141,2.451172 l -2.521484,-1.851563 c -1.027163,0.757526 -2.136365,1.396972 -3.306641,1.90625 l 0.105469,0.947266 c 1.131299,-0.499563 2.204709,-1.12108 3.201172,-1.853516 l 2.521484,1.851563 c 1.06238,-0.865659 2.032974,-1.838217 2.896484,-2.902344 z m -30.2109378,0.002 -0.4042968,0.550781 c 0.8656588,1.06238 1.8382166,2.032974 2.9023436,2.896484 l 2.517578,-1.849609 c 0.994938,0.739106 2.067722,1.367188 3.199219,1.873047 l 0.105469,-0.953125 c -1.170228,-0.51372 -2.278795,-1.157763 -3.304688,-1.919922 l -2.517578,1.849609 C 10.490038,37.76656 9.6541611,36.947675 8.8945312,36.060547 Z M 25.908203,39.871094 C 25.275058,39.949837 24.637983,39.992874 24,40 23.360283,39.997 22.721246,39.95786 22.085938,39.882812 l -1.248047,2.841797 c -1.316782,-0.212317 -2.609023,-0.555824 -3.857422,-1.02539 L 16.875,42.664062 c 1.28112,0.488416 2.609067,0.8438 3.962891,1.060547 l 1.248047,-2.841797 C 22.721246,40.957857 23.360283,40.996982 24,41 c 0.637983,-0.0071 1.275058,-0.05016 1.908203,-0.128906 l 1.259766,2.865234 c 1.352286,-0.215111 2.678906,-0.568527 3.958984,-1.054687 l -0.105469,-0.960938 c -1.247489,0.465989 -2.538401,0.806219 -3.853515,1.015625 z"
         style="color:#000000;fill:#95a5a6;stroke-width:2.57019;stroke-linecap:round;stroke-linejoin:round" />
    </g>
    <g
       id="g10738-8-9"
       inkscape:label="Layer 1"
       transform="matrix(0.12718845,0,0,0.12755728,7.7987006,5.2769704)"
       style="stroke-width:0.856732">
      <circle
         id="circle10740-2-2"
         transform="rotate(15)"
         r="15"
         cy="16.970562"
         cx="29.393879"
         style="color:#000000;fill:url(#linearGradient4464-4-2);stroke-width:2.57019;stroke-linecap:round;stroke-linejoin:round" />
      <path
         id="path10742-8-2"
         inkscape:connector-curvature="0"
         d="m 27.167969,43.736328 a 20,20 0 0 0 3.958984,-1.054688 l -0.34375,-3.117187 a 17,17 0 0 0 3.306641,-1.90625 l 2.521484,1.851562 a 20,20 0 0 0 2.896484,-2.902343 l -1.849609,-2.517578 a 17,17 0 0 0 1.919922,-3.304688 L 42.664062,31.125 a 20,20 0 0 0 1.060547,-3.962891 L 40.882812,25.914062 A 17,17 0 0 0 41,24 17,17 0 0 0 40.871094,22.091797 l 2.865234,-1.259766 A 20,20 0 0 0 42.68164,16.873047 l -3.117187,0.34375 a 17,17 0 0 0 -1.90625,-3.306641 l 1.851562,-2.521484 A 20,20 0 0 0 36.607422,8.4921879 L 34.089844,10.341797 A 17,17 0 0 0 30.785156,8.4218749 L 31.125,5.3359379 a 20,20 0 0 0 -3.962891,-1.060547 l -1.248047,2.841797 A 17,17 0 0 0 24,6.9999999 17,17 0 0 0 22.091797,7.1289059 l -1.259766,-2.865234 a 20,20 0 0 0 -3.958984,1.054687 l 0.34375,3.117188 A 17,17 0 0 0 13.910156,10.341797 L 11.388672,8.4902339 A 20,20 0 0 0 8.4921879,11.392578 l 1.8496091,2.517578 A 17,17 0 0 0 8.4218749,17.214844 L 5.3359379,16.875 a 20,20 0 0 0 -1.060547,3.962891 l 2.841797,1.248047 A 17,17 0 0 0 6.9999999,24 a 17,17 0 0 0 0.128906,1.908203 l -2.865234,1.259766 a 20,20 0 0 0 1.054687,3.958984 l 3.117188,-0.34375 a 17,17 0 0 0 1.9062501,3.306641 l -1.8515631,2.521484 a 20,20 0 0 0 2.9023441,2.896484 l 2.517578,-1.849609 a 17,17 0 0 0 3.304688,1.919922 L 16.875,42.664062 a 20,20 0 0 0 3.962891,1.060547 l 1.248047,-2.841797 A 17,17 0 0 0 24,41 17,17 0 0 0 25.908203,40.871094 Z M 24,38 A 14,14 0 0 1 9.9999999,24 14,14 0 0 1 24,9.9999999 14,14 0 0 1 38,24 14,14 0 0 1 24,38 Z"
         style="color:#000000;fill:url(#linearGradient998);stroke-width:2.57019;stroke-linecap:round;stroke-linejoin:round" />
      <path
         id="path10744-2-8"
         inkscape:connector-curvature="0"
         d="m 16.978516,5.2792969 c -0.03519,0.012922 -0.07035,0.025943 -0.105469,0.039063 l 0.238281,2.1699218 c 0.03509,-0.0177 0.07025,-0.035278 0.105469,-0.052734 z m 14.041015,0.021484 -0.234375,2.1210938 c 0.03521,0.015506 0.07037,0.031131 0.105469,0.046875 L 31.125,5.3359375 c -0.03512,-0.011817 -0.07028,-0.023535 -0.105469,-0.035157 z m 8.085938,5.6386721 -1.447266,1.970703 c 0.121646,0.169678 0.240156,0.341582 0.355469,0.515625 l 1.496094,-2.037109 C 39.377271,11.236905 39.24249,11.087148 39.105469,10.939453 Z m -30.2109378,0.002 c -0.1363799,0.148355 -0.2705098,0.298763 -0.4023437,0.451172 l 1.5,2.041016 C 10.105484,13.256972 10.22204,13.082463 10.341797,12.910156 Z m 34.6484378,8.97461 -2.671875,1.175781 c 0.03331,0.322162 0.05741,0.645211 0.07227,0.96875 l 2.792969,-1.228516 c -0.0573,-0.306805 -0.121767,-0.612227 -0.193359,-0.916015 z m -39.074219,0.0078 c -0.071562,0.30314 -0.1360327,0.607911 -0.1933594,0.914063 l 2.7753906,1.21875 c 0.012869,-0.324135 0.035014,-0.647835 0.066406,-0.970703 z m 2.5566406,3.501953 C 7.0136917,23.617031 7.0052269,23.808464 7,24 c 0.010206,0.313614 0.029094,0.626885 0.056641,0.939453 l 0.072266,-0.03125 C 7.0728099,24.415807 7.0382717,23.921194 7.0253906,23.425781 Z m 33.9492184,0.148438 c -0.01294,0.447649 -0.04356,0.894612 -0.0918,1.339843 l 0.06641,0.0293 C 40.974882,24.629437 40.991815,24.314863 41,24 40.9933,23.857972 40.98485,23.716034 40.97461,23.574219 Z m 2.556641,3.501953 c -0.207947,1.037583 -0.49792,2.05706 -0.867188,3.048793 l -3.085937,-0.339844 c -0.51372,1.170228 -1.157763,2.278795 -1.919922,3.304688 l 0.349609,0.476562 c 0.60956,-0.875749 1.135318,-1.806941 1.570313,-2.78125 L 42.664062,31.125 c 0.488416,-1.28112 0.8438,-2.609067 1.060547,-3.962891 z m -39.0742188,0.0078 -0.1933593,0.08398 c 0.2151108,1.352286 0.5685272,2.678906 1.0546875,3.958984 l 3.1171875,-0.34375 c 0.4282215,0.97693 0.947438,1.911389 1.5507812,2.791016 L 10.341797,33.089844 C 9.5842706,32.062681 8.9448248,30.953479 8.4355469,29.783203 l -3.1171875,0.34375 C 4.9513789,29.136955 4.6633693,28.119452 4.4570312,27.083984 Z m 34.6484378,8.97461 c -0.758217,0.888313 -1.592787,1.708505 -2.494141,2.451172 l -2.521484,-1.851563 c -1.027163,0.757526 -2.136365,1.396972 -3.306641,1.90625 l 0.105469,0.947266 c 1.131299,-0.499563 2.204709,-1.12108 3.201172,-1.853516 l 2.521484,1.851563 c 1.06238,-0.865659 2.032974,-1.838217 2.896484,-2.902344 z m -30.2109378,0.002 -0.4042968,0.550781 c 0.8656588,1.06238 1.8382166,2.032974 2.9023436,2.896484 l 2.517578,-1.849609 c 0.994938,0.739106 2.067722,1.367188 3.199219,1.873047 l 0.105469,-0.953125 c -1.170228,-0.51372 -2.278795,-1.157763 -3.304688,-1.919922 l -2.517578,1.849609 C 10.490038,37.76656 9.6541611,36.947675 8.8945312,36.060547 Z M 25.908203,39.871094 C 25.275058,39.949837 24.637983,39.992874 24,40 23.360283,39.997 22.721246,39.95786 22.085938,39.882812 l -1.248047,2.841797 c -1.316782,-0.212317 -2.609023,-0.555824 -3.857422,-1.02539 L 16.875,42.664062 c 1.28112,0.488416 2.609067,0.8438 3.962891,1.060547 l 1.248047,-2.841797 C 22.721246,40.957857 23.360283,40.996982 24,41 c 0.637983,-0.0071 1.275058,-0.05016 1.908203,-0.128906 l 1.259766,2.865234 c 1.352286,-0.215111 2.678906,-0.568527 3.958984,-1.054687 l -0.105469,-0.960938 c -1.247489,0.465989 -2.538401,0.806219 -3.853515,1.015625 z"
         style="color:#000000;fill:#95a5a6;stroke-width:2.57019;stroke-linecap:round;stroke-linejoin:round" />
      <rect
         id="rect10748-9-7"
         rx="11.153625"
         y="10.999994"
         x="10.999981"
         height="26"
         width="25.99999"
         style="fill:url(#linearGradient4149-8-6);stroke-width:0.856732"
         ry="11.121375" />
      <path
         id="path10750-6-3"
         inkscape:connector-curvature="0"
         d="m 23.999997,10.99999 c -0.94371,0 -1.861653,0.104048 -2.747265,0.29326 l -1.152737,2.306741 -1.741799,-1.306351 c -3.123984,1.502287 -5.543941,4.206749 -6.665036,7.529596 l 2.556835,-1.023244 1.95,1.300001 0.649999,-1.950001 8.450003,-4.550001 -0.51543,-2.574612 c -0.259884,-0.01534 -0.520703,-0.02542 -0.78457,-0.02542 z m 9.626859,4.269435 -0.526857,1.580567 0.65,0.65 -2.600001,3.900001 1.300001,4.550001 4.311327,0.539552 C 36.916384,25.684014 37,24.852111 37,23.999993 37,21.773885 36.443262,19.683531 35.465135,17.855458 l -1.065136,-0.355466 0.387205,-0.775684 c -0.347971,-0.516152 -0.743678,-0.995424 -1.160348,-1.454883 z m -22.36915,6.130568 c -0.143462,0.712238 -0.224887,1.447504 -0.247553,2.197559 l 4.539842,1.702442 -0.65,-1.950001 -1.300001,-1.95 z m 4.292289,3.900001 3.25,7.800002 v 2.819628 c 1.591708,0.692199 3.347846,1.080372 5.200002,1.080372 0.129148,0 0.256444,-0.0052 0.38467,-0.0089 l 4.165331,-7.141116 -10.400003,-5.850001 -2.6,1.3 z"
         style="fill:url(#linearGradient4305-6-1);fill-rule:evenodd;stroke-width:0.856732" />
      <path
         id="path10752-6-6"
         d="M 11.025391,23.5 C 11.019064,23.667367 11,23.83103 11,24 c 0,7.201997 5.798003,13 13,13 7.201997,0 13,-5.798003 13,-13 0,-0.16897 -0.01906,-0.332633 -0.02539,-0.5 C 36.711295,30.466332 31.033028,36 24,36 16.966972,36 11.288705,30.466332 11.025391,23.5 Z"
         inkscape:connector-curvature="0"
         style="opacity:0.2;fill:#172525;stroke-width:0.856732" />
    </g>
    <rect
       width="1.5875"
       x="3.1749997"
       y="2.3812497"
       rx="0.79374999"
       height="1.5875"
       id="rect25-8-7-7"
       style="fill:#ffffff;stroke-width:0.0264584"
       inkscape:transform-center-x="14.611992"
       inkscape:transform-center-y="-11.971003"
       ry="0.79374999" />
    <rect
       width="1.5875"
       x="8.7312508"
       y="2.3812497"
       rx="0.79374999"
       height="1.5875"
       id="rect25-8-7-7-3"
       style="fill:#ffffff;stroke-width:0.0264584"
       inkscape:transform-center-x="14.611993"
       inkscape:transform-center-y="-11.971003"
       ry="0.79374999" />
    <rect
       width="1.5875"
       x="5.9531236"
       y="2.3812497"
       rx="0.79374999"
       height="1.5875"
       id="rect25-8-7-7-6"
       style="fill:#ffffff;stroke-width:0.0264584"
       inkscape:transform-center-x="14.611994"
       inkscape:transform-center-y="-11.971003"
       ry="0.79374999" />
  </g>
</svg>
