<?xml version="1.0" encoding="UTF-8" standalone="no"?>
<svg
   width="68"
   height="68"
   viewBox="0 0 17.991665 17.991665"
   version="1.1"
   id="svg1114"
   inkscape:version="1.3.2 (091e20ef0f, 2023-11-25)"
   sodipodi:docname="folder-html.svg"
   xmlns:inkscape="http://www.inkscape.org/namespaces/inkscape"
   xmlns:sodipodi="http://sodipodi.sourceforge.net/DTD/sodipodi-0.dtd"
   xmlns:xlink="http://www.w3.org/1999/xlink"
   xmlns="http://www.w3.org/2000/svg"
   xmlns:svg="http://www.w3.org/2000/svg"
   xmlns:rdf="http://www.w3.org/1999/02/22-rdf-syntax-ns#"
   xmlns:cc="http://creativecommons.org/ns#"
   xmlns:dc="http://purl.org/dc/elements/1.1/">
  <style
     type="text/css"
     id="current-color-scheme">.ColorScheme-Highlight { color:#5599ff; }
</style>
  <defs
     id="defs1108">
    <linearGradient
       inkscape:collect="always"
       id="linearGradient11">
      <stop
         style="stop-color:#924d8c;stop-opacity:1"
         offset="0"
         id="stop10" />
      <stop
         style="stop-color:#3771c8;stop-opacity:1;"
         offset="1"
         id="stop11" />
    </linearGradient>
    <linearGradient
       id="linearGradient9"
       inkscape:collect="always">
      <stop
         style="stop-color:#ffffff;stop-opacity:0;"
         offset="0"
         id="stop1" />
      <stop
         id="stop8"
         offset="0.67097157"
         style="stop-color:#ffffff;stop-opacity:0" />
      <stop
         style="stop-color:#ffffff;stop-opacity:1;"
         offset="1"
         id="stop9" />
    </linearGradient>
    <linearGradient
       id="linearGradient7"
       inkscape:collect="always">
      <stop
         style="stop-color:#000000;stop-opacity:0;"
         offset="0"
         id="stop5" />
      <stop
         id="stop6"
         offset="0.6586886"
         style="stop-color:#000000;stop-opacity:0" />
      <stop
         style="stop-color:#000000;stop-opacity:1;"
         offset="1"
         id="stop7" />
    </linearGradient>
    <linearGradient
       id="linearGradient4"
       inkscape:collect="always">
      <stop
         style="stop-color:#000000;stop-opacity:0;"
         offset="0"
         id="stop2" />
      <stop
         id="stop3"
         offset="0.67055255"
         style="stop-color:#000000;stop-opacity:0" />
      <stop
         style="stop-color:#000000;stop-opacity:1;"
         offset="1"
         id="stop4" />
    </linearGradient>
    <linearGradient
       id="linearGradient1167"
       x1="40.751999"
       x2="40.751999"
       y1="28.507999"
       y2="17.205999"
       gradientUnits="userSpaceOnUse">
      <stop
         style="stop-color:#84fb6e;stop-opacity:1"
         stop-color="#0ab816"
         offset="0"
         id="stop1163" />
      <stop
         style="stop-color:#0dd41a;stop-opacity:1"
         stop-color="#0cf36c"
         offset="1"
         id="stop1165" />
    </linearGradient>
    <linearGradient
       id="cornerBevel"
       inkscape:collect="always">
      <stop
         style="stop-color:#000000;stop-opacity:0;"
         offset="0"
         id="stop2663" />
      <stop
         id="stop2671"
         offset="0.66666675"
         style="stop-color:#000000;stop-opacity:0" />
      <stop
         style="stop-color:#000000;stop-opacity:1;"
         offset="1"
         id="stop2661" />
    </linearGradient>
    <linearGradient
       id="bevel"
       inkscape:collect="always">
      <stop
         id="stop2685"
         offset="0"
         style="stop-color:#000000;stop-opacity:1;" />
      <stop
         id="stop2687"
         offset="1"
         style="stop-color:#000000;stop-opacity:0;" />
    </linearGradient>
    <linearGradient
       id="highlightCorner"
       inkscape:collect="always">
      <stop
         style="stop-color:#ffffff;stop-opacity:0;"
         offset="0"
         id="stop2613" />
      <stop
         id="stop2621"
         offset="0.66666669"
         style="stop-color:#ffffff;stop-opacity:0" />
      <stop
         style="stop-color:#ffffff;stop-opacity:1;"
         offset="1"
         id="stop2611" />
    </linearGradient>
    <linearGradient
       inkscape:collect="always"
       id="highlight">
      <stop
         style="stop-color:#ffffff;stop-opacity:1;"
         offset="0"
         id="stop2921" />
      <stop
         style="stop-color:#ffffff;stop-opacity:0;"
         offset="1"
         id="stop2923" />
    </linearGradient>
    <radialGradient
       inkscape:collect="always"
       xlink:href="#highlightCorner"
       id="radialGradient15"
       gradientUnits="userSpaceOnUse"
       gradientTransform="matrix(0.04294597,-12.079348,17.933991,0.06376112,14.524179,-50.373789)"
       cx="-4.5799766"
       cy="-0.50206107"
       fx="-4.5799766"
       fy="-0.50206107"
       r="0.39687499" />
    <linearGradient
       inkscape:collect="always"
       xlink:href="#highlight"
       id="linearGradient15"
       gradientUnits="userSpaceOnUse"
       x1="-3.8497722"
       y1="-1.1532172"
       x2="-3.8486557"
       y2="-0.89102554"
       gradientTransform="matrix(6.0923077,0,0,6.0923077,32.228528,7.1537621)" />
    <radialGradient
       inkscape:collect="always"
       xlink:href="#linearGradient9"
       id="radialGradient17"
       gradientUnits="userSpaceOnUse"
       gradientTransform="matrix(1.1757679e-4,-11.994067,-18.104833,-1.7749478e-4,1.6916469,-50.007179)"
       cx="-4.5775003"
       cy="-0.55256677"
       fx="-4.5775003"
       fy="-0.55256677"
       r="0.39687499" />
    <radialGradient
       inkscape:collect="always"
       xlink:href="#linearGradient7"
       id="radialGradient18"
       gradientUnits="userSpaceOnUse"
       gradientTransform="matrix(0.0232366,12.009662,17.933953,-0.03470102,14.426451,64.381084)"
       cx="-4.4256716"
       cy="-0.50045931"
       fx="-4.4256716"
       fy="-0.50045931"
       r="0.39687499" />
    <linearGradient
       inkscape:collect="always"
       xlink:href="#bevel"
       id="linearGradient18"
       gradientUnits="userSpaceOnUse"
       x1="-3.8447375"
       y1="-1.4538249"
       x2="-3.8438127"
       y2="-1.1952862"
       gradientTransform="matrix(6.0923076,0,0,6.0923076,32.228527,-7.1537627)" />
    <radialGradient
       inkscape:collect="always"
       xlink:href="#linearGradient4"
       id="radialGradient20"
       gradientUnits="userSpaceOnUse"
       gradientTransform="matrix(-0.01031383,11.991438,-17.967296,-0.01545561,1.7353715,64.305742)"
       cx="-4.4236727"
       cy="-0.55004197"
       fx="-4.4236727"
       fy="-0.55004197"
       r="0.39687499" />
    <radialGradient
       inkscape:collect="always"
       xlink:href="#cornerBevel"
       id="radialGradient25"
       gradientUnits="userSpaceOnUse"
       gradientTransform="matrix(12.184614,0,0,12.184614,59.63122,10.377613)"
       cx="-4.4568658"
       cy="-0.44864327"
       fx="-4.4568658"
       fy="-0.44864327"
       r="0.39687496" />
    <linearGradient
       inkscape:collect="always"
       xlink:href="#bevel"
       id="linearGradient25"
       gradientUnits="userSpaceOnUse"
       x1="-3.8487544"
       y1="-1.146081"
       x2="-3.8455966"
       y2="-0.890971"
       gradientTransform="matrix(6.0923077,0,0,6.0923077,32.228528,7.1537627)" />
    <radialGradient
       inkscape:collect="always"
       xlink:href="#cornerBevel"
       id="radialGradient29"
       gradientUnits="userSpaceOnUse"
       gradientTransform="matrix(0,-12.184614,12.184614,0,11.27353,-44.427768)"
       cx="-4.5705457"
       cy="-0.48653662"
       fx="-4.5705457"
       fy="-0.48653662"
       r="0.39687496" />
    <radialGradient
       inkscape:collect="always"
       xlink:href="#cornerBevel"
       id="radialGradient30"
       gradientUnits="userSpaceOnUse"
       gradientTransform="matrix(-12.184514,-0.04945749,0.04847411,-11.942243,-43.502155,3.8519053)"
       cx="-4.5342312"
       cy="-0.60337442"
       fx="-4.5342312"
       fy="-0.60337442"
       r="0.39687496" />
    <radialGradient
       inkscape:collect="always"
       xlink:href="#cornerBevel"
       id="radialGradient31"
       gradientUnits="userSpaceOnUse"
       gradientTransform="matrix(-0.06855274,-12.083057,11.978763,-0.06796103,18.172721,-48.506326)"
       cx="-4.4175329"
       cy="-0.56489283"
       fx="-4.4175329"
       fy="-0.56489283"
       r="0.39687496" />
    <linearGradient
       inkscape:collect="always"
       xlink:href="#bevel"
       id="linearGradient34"
       gradientUnits="userSpaceOnUse"
       x1="-3.99717"
       y1="-1.2218677"
       x2="-4.0003276"
       y2="-0.96675771"
       gradientTransform="matrix(6.0923077,0,0,6.0923077,17.025077,8.0496826)" />
    <linearGradient
       inkscape:collect="always"
       xlink:href="#bevel"
       id="linearGradient35"
       gradientUnits="userSpaceOnUse"
       x1="-4.0919032"
       y1="-1.4492278"
       x2="-4.0950613"
       y2="-1.1972755"
       gradientTransform="matrix(6.0923077,0,0,6.0923077,16.129161,-7.1537627)" />
    <linearGradient
       inkscape:collect="always"
       xlink:href="#bevel"
       id="linearGradient36"
       gradientUnits="userSpaceOnUse"
       x1="-3.8734362"
       y1="-1.3717227"
       x2="-3.8765941"
       y2="-1.116071"
       gradientTransform="matrix(6.0923077,0,0,6.0923077,31.33261,-8.0496826)" />
    <linearGradient
       id="paint2_linear_77:3-7"
       x1="79.398094"
       y1="-197.84389"
       x2="82.901054"
       y2="-199.97827"
       gradientUnits="userSpaceOnUse"
       gradientTransform="matrix(1.9248511,0,0,1.7314595,-40.88733,399.61741)">
      <stop
         stop-color="#EBFAFF"
         stop-opacity="0.1"
         id="stop29-5-7"
         offset="0"
         style="stop-color:#c3c3c3;stop-opacity:1;" />
      <stop
         offset="1"
         stop-color="#70A9FF"
         stop-opacity="0.5"
         id="stop30-0-1"
         style="stop-color:#05c7ff;stop-opacity:0.80000001;" />
    </linearGradient>
    <linearGradient
       inkscape:collect="always"
       xlink:href="#linearGradient11"
       id="linearGradient926"
       x1="2.566947"
       y1="-2.5116785"
       x2="15.558737"
       y2="-15.50993"
       gradientUnits="userSpaceOnUse"
       gradientTransform="translate(-0.92604234,0.47624996)" />
    <linearGradient
       inkscape:collect="always"
       xlink:href="#linearGradient11"
       id="linearGradient892"
       gradientUnits="userSpaceOnUse"
       x1="2.4041493"
       y1="2.4920108"
       x2="15.601052"
       y2="15.378205"
       gradientTransform="translate(-0.47625037,-0.92604234)" />
  </defs>
  <sodipodi:namedview
     id="base"
     pagecolor="#e2e2e2"
     bordercolor="#000000"
     borderopacity="1"
     inkscape:pageopacity="0"
     inkscape:pageshadow="2"
     inkscape:zoom="9.724873"
     inkscape:cx="33.008143"
     inkscape:cy="47.609876"
     inkscape:document-units="px"
     inkscape:current-layer="layer1"
     inkscape:document-rotation="0"
     showgrid="true"
     units="px"
     inkscape:window-width="1920"
     inkscape:window-height="990"
     inkscape:window-x="0"
     inkscape:window-y="0"
     inkscape:window-maximized="1"
     inkscape:object-paths="true"
     inkscape:snap-grids="true"
     inkscape:snap-intersection-paths="true"
     inkscape:snap-smooth-nodes="true"
     inkscape:snap-midpoints="true"
     inkscape:showpageshadow="2"
     inkscape:pagecheckerboard="0"
     inkscape:deskcolor="#d1d1d1">
    <inkscape:grid
       id="grid2"
       units="px"
       originx="0"
       originy="0"
       spacingx="0.26458333"
       spacingy="0.26458333"
       empcolor="#0099e5"
       empopacity="0.30196078"
       color="#0099e5"
       opacity="0.14902"
       empspacing="5"
       dotted="false"
       gridanglex="30"
       gridanglez="30"
       visible="true" />
  </sodipodi:namedview>
  <metadata
     id="metadata1111">
    <rdf:RDF>
      <cc:Work
         rdf:about="">
        <dc:format>image/svg+xml</dc:format>
        <dc:type
           rdf:resource="http://purl.org/dc/dcmitype/StillImage" />
      </cc:Work>
    </rdf:RDF>
  </metadata>
  <g
     inkscape:label="Layer 1"
     inkscape:groupmode="layer"
     id="layer1">
    <g
       id="g918"
       transform="translate(0.47625037,0.92604234)">
      <rect
         ry="4.8357682"
         rx="4.8357682"
         style="fill:url(#linearGradient926);fill-opacity:1;stroke-width:6.09228"
         x="0.13229237"
         y="-16.457085"
         width="15.875001"
         height="15.875001"
         id="use1056"
         transform="rotate(90)"
         class="ColorScheme-Highlight" />
      <path
         d="m 5.344583,0.13229167 c -2.6384245,0 -4.76249953,2.12407483 -4.76249953,4.76249963 H 5.344583 Z"
         style="opacity:0.15;fill:url(#radialGradient25);fill-opacity:1;stroke-width:6.09228"
         id="path20" />
      <rect
         y="0.13229151"
         x="5.3445826"
         height="1.5875"
         width="6.3500004"
         id="rect20"
         style="opacity:0.15;fill:url(#linearGradient25);fill-opacity:1;stroke-width:4.83577;stroke-linecap:round;stroke-linejoin:round;paint-order:stroke fill markers" />
      <path
         d="m 0.58208347,11.244792 c 0,2.638424 2.12407503,4.762499 4.76249953,4.762499 v -4.762499 z"
         style="opacity:0.15;fill:url(#radialGradient29);fill-opacity:1;stroke-width:6.09228"
         id="use20" />
      <rect
         y="0.5820834"
         x="-11.244792"
         height="1.5875"
         width="6.3500004"
         id="use21"
         style="opacity:0.15;fill:url(#linearGradient34);fill-opacity:1;stroke-width:4.83577;stroke-linecap:round;stroke-linejoin:round;paint-order:stroke fill markers"
         transform="rotate(-90)" />
      <path
         d="m 11.694583,16.007291 c 2.638425,0 4.7625,-2.124074 4.7625,-4.762499 h -4.7625 z"
         style="opacity:0.15;fill:url(#radialGradient30);fill-opacity:1;stroke-width:6.09228"
         id="use22" />
      <rect
         y="-16.007292"
         x="-11.694584"
         height="1.5875"
         width="6.3500004"
         id="use23"
         style="opacity:0.15;fill:url(#linearGradient35);fill-opacity:1;stroke-width:4.83577;stroke-linecap:round;stroke-linejoin:round;paint-order:stroke fill markers"
         transform="scale(-1)" />
      <path
         d="m 16.457083,4.8947913 c 0,-2.6384245 -2.124074,-4.76249963 -4.7625,-4.76249963 V 4.8947913 Z"
         style="opacity:0.15;fill:url(#radialGradient31);fill-opacity:1;stroke-width:6.09228"
         id="use24" />
      <rect
         y="-16.457081"
         x="4.8947906"
         height="1.5875"
         width="6.3500004"
         id="use25"
         style="opacity:0.15;fill:url(#linearGradient36);fill-opacity:1;stroke-width:4.83577;stroke-linecap:round;stroke-linejoin:round;paint-order:stroke fill markers"
         transform="rotate(90)" />
      <path
         d="m 5.3445832,0.13229107 c -2.638425,0 -4.76250035,2.12407473 -4.76250035,4.76249973 H 5.3445832 Z"
         style="opacity:0.5;fill:url(#radialGradient15);fill-opacity:1;stroke-width:6.09228"
         id="path14" />
      <rect
         y="0.1322909"
         x="5.3445826"
         height="1.5875"
         width="6.3499999"
         id="rect14"
         style="opacity:0.5;fill:url(#linearGradient15);fill-opacity:1;stroke-width:4.83577;stroke-linecap:round;stroke-linejoin:round;paint-order:stroke fill markers" />
      <path
         d="m 11.694583,0.1322909 c 2.638425,0 4.7625,2.1240749 4.7625,4.7624976 h -4.7625 z"
         style="opacity:0.5;fill:url(#radialGradient17);fill-opacity:1;stroke-width:6.09228"
         id="use14" />
      <path
         id="path17"
         style="opacity:0.5;fill:url(#radialGradient18);fill-opacity:1;stroke-width:6.09228"
         d="m 5.3445834,16.00729 c -2.638425,0 -4.7625,-2.124075 -4.7625,-4.7625 h 4.7625 z" />
      <rect
         style="opacity:0.5;fill:url(#linearGradient18);fill-opacity:1;stroke-width:4.83577;stroke-linecap:round;stroke-linejoin:round;paint-order:stroke fill markers"
         id="rect17"
         width="6.3499994"
         height="1.5874999"
         x="5.3445826"
         y="-16.007292"
         transform="scale(1,-1)" />
      <path
         id="use17"
         style="opacity:0.5;fill:url(#radialGradient20);fill-opacity:1;stroke-width:6.09228"
         d="m 11.694582,16.007291 c 2.638425,0 4.7625,-2.124075 4.7625,-4.7625 h -4.7625 z" />
      <path
         d="m 4.8411477,2.2886454 c -1.1721999,0 -2.1159392,1.1779639 -2.1159392,2.2465608 V 11.26036 c 0,1.068671 0.943821,1.929059 2.1159392,1.929059 h 7.3766603 c 1.1722,0 2.115939,-0.860463 2.115939,-1.929059 V 4.5352062 c 0,-1.0686713 -0.943821,-2.2465608 -2.115939,-2.2465608 z"
         fill="#fafafa"
         stroke-linecap="round"
         stroke-width="0.0793746"
         style="fill:#ffffff;fill-opacity:0.602564;paint-order:stroke fill markers"
         id="path2-6"
         sodipodi:nodetypes="sssssssss" />
      <path
         d="m 2.8835048,3.9688329 c -0.2636521,0 -0.4757965,0.2024423 -0.4757965,0.4540176 v 1.4746632 c 0,0.0183 0.00347,0.03564 0.00565,0.05337 -0.00465,0.436096 -0.00439,0.933217 -0.00439,1.5855106 v 0.180942 h -4.391e-4 v 3.2806677 c 0,0.02941 0.00347,0.05796 0.00439,0.08714 0.00168,0.0413 0.00264,0.08276 0.00657,0.123409 0.1068632,1.368001 1.2422934,2.451689 2.6756704,2.554475 0.072019,0.0066 0.1449519,0.01032 0.2193309,0.01043 0.00102,3e-6 0.002,0 0.00307,0 h 6.4860055 4.37e-4 c 0.07554,0 0.149713,-0.0038 0.222824,-0.01043 1.429741,-0.102907 2.562793,-1.181876 2.673893,-2.54528 0.0073,-0.07226 0.01179,-0.145376 0.01179,-0.219716 V 7.6547513 c 1.3e-5,-0.0015 4.37e-4,-0.0028 4.37e-4,-0.0042 V 6.1758977 c 0,-0.251582 -0.106241,-0.454014 -0.369885,-0.454014 H 9.1584167 c -0.2295699,-1e-6 -0.4092976,-0.01479 -0.5583769,-0.05253 C 8.4509617,5.6316137 8.3328028,5.5707037 8.2273514,5.47924 8.121901,5.38777 8.0289554,5.2655993 7.9302511,5.1044346 7.8315481,4.9432596 7.7270274,4.7434229 7.598199,4.4965672 7.536064,4.3506905 7.449289,4.2446292 7.3543985,4.1680402 7.2595085,4.0914502 7.1566781,4.0442129 7.0612298,4.0150299 6.8703322,3.9566699 6.7103888,3.9712499 6.7103888,3.9712499 H 4.5515737 c -0.00887,-4.64e-4 -0.017213,-0.0025 -0.026218,-0.0025 H 3.7515794 Z"
         id="path4-3-6"
         style="fill:url(#linearGradient892);fill-opacity:1"
         class="ColorScheme-Highlight "
         sodipodi:nodetypes="csscsccscccsscsccscssssssccscccscc" />
    </g>
    <path
       d="M 11.922755,10.964529 Z M 9.8283846,14.469542 C 8.4058005,14.816757 6.8975994,14.043683 6.3904724,12.622036 6.2060744,12.10446 6.1665484,11.5738 6.2851104,11.036584 c 0.007,-0.0131 0.01319,-0.03276 0.01982,-0.04585 0,0.01319 0,0.03274 0.007,0.04585 0,0.0066 0.007,0.01972 0.01325,0.02622 0,-0.01313 0.007,-0.01972 0.007,-0.03276 0,-0.0393 0,-0.07862 0.007,-0.124481 0.03952,0.03276 0.01319,0.07862 0.0263,0.111381 0.01982,0.05241 0.01982,0.104823 0.01982,0.163775 -0.007,0.08517 0.07245,0.144142 0.131721,0.150677 0.111949,0.01319 0.17782,0.09829 0.276604,0.131037 0.04612,0.01319 0.07247,0.05896 0.07905,0.07862 0.01328,0.08516 0.07905,0.111378 0.131732,0.144139 0.01325,0.0066 0.02627,0.01972 0.03951,0 0.04611,-0.09173 0.05271,-0.02622 0.07246,0.0131 0.04613,0.09827 0.007,0.176891 -0.04611,0.255514 -0.03951,0.0524 -0.08563,0.104813 -0.03951,0.176878 0.007,0.0066 0,0.02622 -0.007,0.03276 -0.03295,0.05242 -0.01325,0.09172 0.01982,0.137578 0.04611,0.06552 0.08564,0.13102 0.118561,0.203097 0.0461,0.09173 0.08563,0.176895 0.1909831,0.222747 0.06589,0.02623 0.1054,0.08516 0.11197,0.163784 0.01982,0.222756 0.0527,0.445505 0.08563,0.661706 0.01982,0.13102 0.125142,0.222748 0.171241,0.340654 0.01982,0.05245 0.0527,0.09827 0.09221,0.144143 0.07246,0.08515 0.177825,0.0917 0.27004,0.137575 0.007,0 0.01982,0 0.0263,0 -0.007,-0.0069 -0.01982,-0.01316 -0.0263,-0.01973 -0.05929,-0.05245 -0.184418,-0.06552 -0.105388,-0.189982 0,-0.0069 -0.007,-0.01973 -0.007,-0.01973 -0.09222,-0.01973 -0.04611,-0.08515 -0.03951,-0.13103 0,-0.02624 0.02636,-0.04587 -0.01325,-0.05243 -0.007,0 -0.01319,-0.01319 -0.01319,-0.01973 0.07246,0.01973 0.04611,-0.08514 0.105389,-0.08514 0.08563,0 0.118545,-0.03278 0.07246,-0.117928 -0.01322,-0.01973 -0.03295,-0.0459 0.01982,-0.03278 0.05271,0.01322 0.07906,-0.0069 0.09223,-0.05244 0.01316,-0.0459 0.03292,-0.09169 0.07246,-0.131021 0.03293,-0.03934 0.0527,-0.08514 0.03951,-0.144139 -0.01982,-0.09825 0.07906,-0.117926 0.138315,-0.124485 0.125133,-0.01316 0.131725,-0.09825 0.15807,-0.183442 0.01982,-0.06549 0.01982,-0.131027 0.01325,-0.203088 -0.007,-0.07207 0.0527,-0.117924 0.09223,-0.170337 0.05268,-0.06552 0.08562,-0.150678 0.03292,-0.209656 -0.05264,-0.05895 -0.1184791,-0.124449 -0.2106911,-0.131011 -0.131706,-0.0066 -0.23051,-0.09171 -0.342455,-0.137564 -0.03954,-0.0132 -0.03954,-0.07863 -0.0527,-0.117943 -0.03294,-0.09171 -0.09224,-0.131017 -0.184421,-0.14411 -0.111968,-0.01319 -0.158056,-0.09828 -0.204158,-0.176898 -0.03294,-0.05896 -0.07905,-0.03276 -0.105397,-0.02622 -0.06588,0.01972 -0.118553,0 -0.164647,-0.02622 -0.11195,-0.05897 -0.204168,-0.03931 -0.2832061,0.07862 -0.01323,0.01972 -0.03293,0.0524 -0.06587,0.01972 -0.01982,-0.01972 -0.0461,-0.01972 -0.07905,-0.0066 -0.05928,0.02622 -0.111959,-0.01973 -0.105385,-0.08516 0,-0.02622 0.007,-0.0524 0.01319,-0.07861 0.01982,-0.111374 0.01325,-0.124494 -0.09881,-0.111374 -0.04611,0.0066 -0.0527,-0.0066 -0.03294,-0.04587 0.01982,-0.03932 0.03952,-0.07861 0.04612,-0.124476 0.007,-0.02622 0.0461,-0.05896 0,-0.07862 -0.03294,-0.01316 -0.09224,0 -0.09881,0.04586 -0.01325,0.07862 -0.0593,0.09827 -0.125149,0.08516 -0.07246,-0.01972 -0.06587,-0.09173 -0.0527,-0.144142 0.01325,-0.104822 0.01982,-0.22273 0.131736,-0.288258 0.02633,-0.01973 0.05269,-0.02622 0.08563,-0.01973 0.03294,0.0066 0.05929,0.0066 0.09222,-0.02622 0.04613,-0.04586 0.09882,-0.01319 0.151502,0 0.03951,0.0131 0.01982,0.05241 0.02642,0.07862 0.007,0.03931 0.007,0.09827 0.04612,0.09173 0.04611,0 0.0527,-0.05896 0.03952,-0.104815 -0.02627,-0.09827 0.007,-0.183443 0.09881,-0.229304 0.09882,-0.05242 0.14491,-0.137582 0.204169,-0.222756 0.03953,-0.06551 0.111969,-0.09828 0.177833,-0.144126 0.06587,-0.0393 0.118542,-0.111375 0.204177,-0.144127 0.01319,-0.0066 0.02642,-0.0066 0.03292,-0.01319 -0.007,0.01319 -0.007,0.01972 -0.01325,0.03277 -0.007,0.01322 -0.01323,0.01972 0,0.02622 0.007,0 0.01982,0 0.02636,-0.0066 0.01982,-0.02622 0.05271,-0.03276 0.08565,-0.0393 0.01982,-0.0066 0.05269,-0.01972 0.05927,-0.03276 0,-0.02622 -0.03293,-0.01319 -0.0461,-0.02622 -0.02636,-0.01973 -0.02636,-0.03931 -0.01325,-0.05896 0.01325,-0.03276 0.05928,-0.06551 -0.01982,-0.06551 0,0 -0.007,-0.0066 -0.007,-0.01319 0.007,0 0.01319,-0.0066 0.01982,-0.0066 0.09222,-0.01972 0.190991,0.01316 0.276599,-0.052411 0.007,0 0.01325,0.0066 0.01982,0.0066 -0.007,0.0066 -0.007,0.01319 -0.01319,0.01972 -0.01982,0.04586 -0.105377,0.06551 -0.07905,0.1179158 0.01319,0.02622 0.09222,-0.01972 0.144881,0.01972 0.01982,0.01316 0.0527,0 0.03953,-0.01972 -0.01982,-0.03276 0.04612,-0.08517 -0.01319,-0.08517 -0.05928,-0.0066 -0.03952,-0.02622 -0.02636,-0.05242 0.03953,-0.065511 0.0527,-0.1179212 -0.03292,-0.1506762 -0.04611,-0.01972 -0.01982,-0.06551 -0.03294,-0.09827 -0.01325,-0.05241 -0.01982,-0.09172 -0.08565,-0.03931 -0.02636,0.01972 -0.0988,0.08516 -0.07905,-0.03275 0.007,-0.02622 -0.03952,-0.05242 -0.05927,-0.05242 -0.0527,0 -0.118564,-0.03276 -0.144914,0.03276 -0.0263,0.05241 -0.09222,0.08516 -0.09222,0.157234 0,0.01972 -0.03293,0.0393 -0.05928,0.05241 -0.0527,0.01972 -0.09222,0.04588 -0.09881,0.1048157 -0.007,0.032761 -0.03295,0.058971 -0.06587,0.045881 -0.03952,-0.01973 -0.007,-0.052411 0.007,-0.072081 0.02642,-0.03274 0.02642,-0.058941 -0.02636,-0.05241 -0.0527,0.0066 -0.08562,-0.04586 -0.144891,-0.05241 -0.01982,0 -0.01982,-0.05242 0.007,-0.07207 0.08562,-0.08516 0.197556,-0.111369 0.296357,-0.176888 0.02636,-0.01972 0.03294,0.05897 0.0527,0.01972 0.01982,-0.0393 0.144878,0.02622 0.08564,-0.08515 0.03293,-0.0131 0.05927,-0.01972 0.09221,-0.03277 0.04611,-0.01972 0.05929,-0.07862 0.118564,-0.09172 0.0527,-0.0066 0.111951,-0.01316 0.11854,0.03275 0.007,0.04587 -0.05929,0.05897 -0.09881,0.07862 -0.01982,0.0066 -0.03954,0 -0.05929,0.0066 -0.01325,0.0066 -0.03294,0.01972 -0.03294,0.02622 0,0.01972 0.02627,0.01319 0.03953,0.01319 0.03951,-0.0066 0.07247,-0.0066 0.09881,0.03276 0.01982,0.02622 0.09221,0.03931 0.09221,0.02622 0.007,-0.05897 0.158071,-0.01319 0.07905,-0.117923 0,-0.0066 0,-0.01972 0,-0.01972 0.01325,-0.01319 0.02636,-0.0066 0.03953,0.0066 0.04612,0.05241 0.08564,0.0066 0.105399,-0.01972 0.02636,-0.0393 -0.04611,-0.0393 -0.04611,-0.05242 0,-0.08517 -0.07905,-0.07206 -0.11856,-0.09827 -0.03952,-0.02622 -0.07246,-0.02622 -0.111965,-0.01973 0.01319,0.0066 0.01319,0.02622 0,0.01973 -0.05269,-0.03277 -0.09221,-0.0066 -0.138302,0 -0.0461,0.01313 -0.08564,0.01313 -0.125125,-0.01319 -0.02636,-0.01972 -0.0527,-0.01319 -0.07905,0 -0.007,0 -0.01325,0.0066 -0.01325,0.01319 0,0 0.007,0.0066 0.01325,0.0066 0.01982,0 0.03951,-0.03277 0.05927,-0.0066 -0.02636,0.01972 -0.05269,0.03276 -0.08563,0.0393 v 0 c 0,0 0,0 0,0 -0.07905,-0.01319 -0.105387,0.01313 -0.0988,0.07861 0,0.01313 -0.007,0.02622 -0.01325,0.03932 -0.03294,-0.02622 -0.0988,0.01972 -0.0988,-0.0066 0,-0.0393 -0.01982,-0.09827 0.03294,-0.131034 0.632247,-0.373424 1.3040311,-0.511012 2.0284941,-0.386544 0.4807766,0.08519 0.9088786,0.275167 1.2974556,0.569991 0.01982,0.01322 0.03293,0.03276 0.04611,0.04585 -0.02629,0.01321 -0.03953,-0.01314 -0.0593,-0.01974 -0.05928,-0.02622 -0.111959,-0.07205 -0.177811,-0.08516 -0.08563,-0.01323 -0.171236,-0.02622 -0.237109,0.04586 -0.0461,0.04588 -0.0988,0.07862 -0.164636,0.09173 -0.0527,0.01313 -0.06589,0.0393 -0.03954,0.09172 0.01982,0.05242 0.04612,0.08516 0.09881,0.05896 0.04612,-0.02622 0.06588,-0.0066 0.09223,0.02619 0.03293,0.03931 0.01982,0.05242 -0.007,0.07862 -0.007,0.0066 0.007,0.03277 -0.01982,0.02622 -0.03295,0.0066 -0.02637,-0.0066 -0.02637,-0.02622 0,-0.01973 0.02637,-0.05242 -0.01324,-0.05242 -0.03292,0 -0.05927,0.03277 -0.04611,0.06551 0.02637,0.05241 -0.007,0.06552 -0.04612,0.06552 -0.06586,0.0066 -0.09221,0.085171 -0.15147,0.091721 -0.03293,0.072071 -0.111968,0.03276 -0.164658,0.06553 -0.01325,0.0066 -0.03951,0 -0.04611,0.01972 0,0.0066 0.01982,0.01972 0.03295,0.02626 0.02639,0.01319 0.0461,0.032761 0.06586,0.05241 0.02639,0.03275 0.01982,0.06551 0.007,0.09826 -0.01325,0.0393 -0.0461,0.01972 -0.07245,0.01972 -0.007,0 -0.01331,0 -0.01331,0 -0.1712346,-0.01972 -0.2239216,0.03277 -0.1975796,0.20309 0.007,0.03277 0.007,0.07862 0.06588,0.07207 0.046119,0 0.065879,0.03276 0.032939,0.07208 -0.06586,0.07862 -0.138297,0.157224 -0.171222,0.262044 -0.01982,0.04588 -0.09224,0.04588 -0.125138,0.10483 -0.04612,0.104804 -0.164662,0.176875 -0.118552,0.321024 0.01982,0.05895 0,0.117903 -0.01982,0.183436 -0.01982,0.05896 -0.01982,0.131017 0.03953,0.183427 0.09881,0.07862 0.131709,0.209652 0.243678,0.275172 0.04611,0.02622 0.07904,0.03275 0.131715,0.02622 0.1251336,-0.01313 0.2436846,-0.05241 0.3622276,-0.05896 0.07246,-0.0066 0.151481,0.07206 0.230516,0.104832 0.04611,0.01972 0,0.104832 -0.007,0.157233 -0.007,0.04585 -0.007,0.07861 0.02637,0.111363 0.09881,0.104825 0.111971,0.235859 0.138313,0.366879 0.01326,0.05898 -0.0527,0.09828 -0.06588,0.157239 -0.01982,0.07863 -0.03292,0.150675 0.01324,0.222749 0.04611,0.07203 0.06586,0.150672 0.0527,0.235844 -0.007,0.08514 0.06587,0.131032 0.07905,0.203096 0.02634,0.14413 0.03292,0.137594 0.184407,0.111391 0.171228,-0.0328 0.25026,-0.170363 0.322711,-0.30792 0.01982,-0.03279 0.01982,-0.06552 0.05929,-0.07859 0.03952,-0.01973 0.05928,-0.07204 0.0461,-0.111379 -0.01982,-0.08514 0.02637,-0.144122 0.08565,-0.183444 0.125131,-0.07862 0.138284,-0.196543 0.105378,-0.307918 -0.05929,-0.216181 0.04611,-0.366873 0.171233,-0.511012 0.09881,-0.111369 0.131721,-0.235847 0.151484,-0.366873 0.007,-0.03276 0,-0.05896 -0.04611,-0.03276 -0.01982,0.01319 -0.03954,0.01972 -0.06588,0.02616 -0.03292,0.0066 -0.07246,0.01972 -0.09222,-0.02616 -0.02641,-0.05897 0.03292,-0.04587 0.05268,-0.05242 0.11854,-0.06552 0.24368,-0.131033 0.263447,-0.288275 0.007,-0.04585 0,-0.0917 -0.03295,-0.13102 -0.01982,-0.02622 -0.03294,-0.05896 -0.01982,-0.09171 0.144886,0.157233 0.125142,0.366869 0.131724,0.550302 0.07246,1.395458 -0.869367,2.607483 -2.2063276,2.935046 z M 7.2927695,11.147969 c -0.07247,-0.04588 -0.1317201,-0.117934 -0.2305151,-0.117934 -0.02636,0.0066 -0.05929,0.01319 -0.08563,0.03932 -0.007,0.0066 -0.01319,0.03274 0.007,0.02622 0.105399,-0.03931 0.164643,0.0066 0.230523,0.07862 0.01319,0.0131 0.05269,0.02622 0.08562,0.0066 0,-0.01319 -0.007,-0.03276 -0.007,-0.03276 z m 0.19757,0.07207 c -0.02636,-0.03932 -0.06587,-0.04586 -0.111965,-0.05241 -0.05928,-0.01319 -0.03293,0.07206 -0.07905,0.0655 0.01982,0.0066 0.03954,0.01972 0.06589,0.02622 0.03951,-0.01972 0.08563,-0.02622 0.125123,-0.0393 z M 9.7691186,9.3266676 c 0,-0.02613 -0.02636,-0.03276 -0.04612,-0.03276 -0.0527,0 -0.105386,0 -0.158061,0 -0.01982,0 -0.04612,-0.01972 -0.05928,0.0066 0.0263,0.01319 0.007,0.05896 0.0461,0.07207 0.01982,0.0066 0.04612,0.0066 0.07247,0.01319 0.03293,-0.0066 0.07245,-0.01972 0.105388,-0.02626 0.01982,-0.01319 0.03952,-0.01319 0.03952,-0.03277 z m 0.2107401,0.353783 c 0.03954,0.01972 0.1053873,0.02622 0.03295,0.091719 -0.01982,0.01972 0,0.06553 -0.02636,0.091729 0.03294,0.01973 0.05929,-0.0066 0.08564,-0.0066 0.03951,0 0.08562,-0.0066 0.125129,-0.01316 0,-0.05896 -0.03294,-0.1048161 -0.07904,-0.1506913 -0.01325,-0.01319 -0.03295,-0.03274 -0.03295,-0.05242 0.007,-0.0655 -0.03292,-0.09826 -0.08561,-0.08514 -0.0527,0.01972 -0.04613,0.07206 -0.01982,0.124469 z m -0.05927,-0.01319 c -0.032949,0.0066 -0.08566,0.01973 -0.08566,0.05898 0,0.02622 -0.03951,0.065499 0,0.07861 0.02624,0.0066 0.079049,-0.0066 0.09882,-0.02622 0.0263,-0.026219 0.03294,-0.06553 0.0461,-0.09828 -0.01982,-0.0066 -0.03952,-0.01313 -0.05927,-0.01313 z M 9.4924936,9.2086646 c 0.0263,0 0.0527,-0.01972 0.07905,-0.03275 0.01325,-0.0066 0.0263,-0.01319 0.01982,-0.02622 -0.07245,-0.07861 0.02636,-0.03276 0.03953,-0.0524 0.01325,-0.01319 0.0527,-0.01973 0.05929,-0.03277 0.01982,-0.08517 0.08563,-0.09826 0.164656,-0.09826 -0.0069,0 0.007,-0.0066 0.01319,-0.0066 -0.007,-0.0066 -0.01319,-0.01319 -0.02636,-0.01319 -0.07247,-0.01319 -0.144911,-0.02622 -0.217356,-0.03931 -0.309544,-0.0393 -0.619083,0.02622 -0.9352261,0.0066 -0.177817,-0.01319 -0.342456,0.0655 -0.520282,0.08517 -0.02627,0 -0.05271,0.01972 -0.07905,0.02622 -0.007,0 -0.02645,0.01972 -0.007,0.01972 0.0593,0.01319 0,0.02622 0,0.02622 -0.01982,0.02622 -0.0527,0.01316 -0.07905,0.01972 -0.01322,0.0066 -0.03294,0.01972 -0.03294,0.02622 0.007,0.01972 0.02636,0.0066 0.03953,0.0066 0.0461,0 0.09222,0 0.138298,-0.0066 v 0 c 0.09881,-0.07207 0.210759,-0.09827 0.32273,-0.137588 0.01325,-0.0066 0.02636,0 0.03951,-0.0066 0,0.117933 0.08564,0.03931 0.125139,0.05242 0.05269,0.01319 0.1317211,-0.01972 0.1119621,0.08517 0,0.0066 0.007,0.01319 0.01319,0.01972 0.03951,0.03276 0.02636,0.06551 -0.01319,0.07861 -0.07905,0.01972 -0.06586,0.08517 -0.07246,0.144136 0,0.09172 0.07905,0.09827 0.1383101,0.124481 0.0527,0.01972 0.07247,-0.02622 0.09882,-0.05241 0.0527,-0.04587 0.08561,-0.111378 0.158059,-0.11793 0.144882,-0.01972 0.276613,-0.09172 0.421499,-0.09828 z m 2.2919374,3.3477874 c -0.007,-0.01972 -0.01319,-0.03275 -0.01319,-0.05241 -0.01319,0.01319 -0.02637,0.02622 -0.03295,0.0393 -0.01326,0.01972 -0.01982,0.05896 -0.0461,0.07206 -0.12514,0.08518 -0.09223,0.222767 -0.138327,0.340691 -0.007,0.01973 -0.007,0.04585 0.01982,0.0524 0.01982,0.007 0.03952,-0.007 0.0527,-0.02623 0.06587,-0.137583 0.125137,-0.275167 0.158051,-0.425842 z m -0.467589,-1.88025 c -0.01982,0.04585 -0.06587,0 -0.09222,0.0066 -0.111976,0.02619 -0.19758,-0.02622 -0.289796,-0.07207 -0.03292,-0.01319 -0.07245,-0.0066 -0.07904,0.01973 -0.0461,0.150682 -0.105375,-0.01319 -0.151479,0.0066 -0.007,0 -0.01982,-0.03274 -0.02637,-0.03274 -0.105387,-0.01319 -0.177819,-0.04588 -0.144884,-0.176903 0.007,-0.01972 -0.03294,-0.03275 -0.05271,-0.02613 -0.131711,0.01972 -0.276599,-0.02619 -0.395165,0.06551 -0.01325,0.01319 -0.03951,0 -0.05927,0 -0.01982,0 -0.05929,0.0066 -0.05929,-0.01972 0,-0.03278 0.03295,-0.02622 0.05929,-0.03278 0.06587,-0.0066 0.09881,-0.04585 0.125137,-0.104812 0.03293,-0.08517 0.118545,-0.124481 0.177814,-0.163792 0.131731,-0.09827 0.177823,0.01973 0.250279,0.07208 0.02637,0.01972 0.0527,0.0393 0.08563,0.0524 0.01982,0.01316 0.03952,0.03275 0.03294,0.05241 -0.007,0.03276 -0.03294,0.02622 -0.05929,0.02622 -0.01326,0.0066 -0.03953,-0.01313 -0.04611,0.01319 0,0.0066 0.01326,0.01973 0.02635,0.02622 0.01982,0.0066 0.04611,0.03931 0.05928,0.01319 0.01332,-0.03277 0.03953,-0.05243 0.05929,-0.08518 0.06587,-0.09827 -0.0461,-0.08516 -0.07246,-0.124481 -0.007,-0.0131 -0.03293,-0.0131 -0.03293,-0.02622 -0.01332,-0.03275 -0.07905,-0.05895 -0.04612,-0.09172 0.03294,-0.03276 0.0593,0.03277 0.09222,0.04587 0.125128,0.04585 0.138311,0.176882 0.204163,0.262046 0.01329,0.01972 0.01982,0.05897 0.0527,0.04587 0.0264,-0.01319 0.03954,-0.04587 0.0264,-0.07862 -0.007,-0.03276 -0.03292,-0.06552 0.01326,-0.07862 0.0527,-0.0131 0.05927,0.03276 0.06587,0.06552 0.01319,0.08516 0.06588,0.11793 0.151473,0.11793 0.04611,0 0.08564,0.03931 0.138314,0.01972 0.007,0 0.01982,0.0066 0.01982,0.01972 0.007,0.07862 -0.01326,0.131026 -0.03294,0.183443 z M 10.480406,10.28966 c -0.01319,-0.03277 0.007,-0.07207 -0.02637,-0.10483 -0.007,0.03276 -0.01982,0.06552 -0.02637,0.09827 0.01982,0.01319 -0.007,0.05242 0.03294,0.05242 0.01982,-0.0066 0.0264,-0.03275 0.01982,-0.04585 z m 0.777166,-0.124487 c -0.0264,0.0066 -0.04611,0.0066 -0.06589,-0.01973 -0.01982,-0.02622 -0.03951,-0.07207 -0.07244,-0.03932 -0.03952,0.03277 -0.05929,0.08518 -0.04612,0.137591 0.01329,0.0393 0.05271,0.05897 0.08565,0.04586 0.07905,-0.03277 0.144888,-0.01319 0.210746,0.02622 0.01982,0.01319 0.0527,0.03275 0.06588,0 0.01324,-0.03277 -0.01319,-0.04586 -0.03294,-0.05898 -0.03294,-0.02622 -0.07246,-0.0524 -0.0988,-0.08515 -0.01326,-0.01972 0.01319,-0.05897 -0.03952,-0.05241 -0.007,0 -0.01326,0 -0.01326,0.0066 -0.01319,0.02622 0.01982,0.01972 0.02642,0.03277 0,0.0066 -0.007,0.0066 -0.01982,0.0066 z m 0.204166,0.851693 c -0.01982,-0.05896 -0.05929,-0.10483 -0.09223,-0.157242 -0.007,-0.01316 -0.01982,-0.02619 -0.03952,-0.01972 -0.02637,0.0066 -0.01326,0.02622 -0.007,0.0393 0.07904,0.157238 0.144906,0.321027 0.210758,0.478243 0.01326,0.03276 0.0527,0.05897 0.08564,0.09174 0.007,0.0066 0.01324,0.0066 0.01982,0.0131 0,-0.0066 0.007,-0.01972 0,-0.0066 0,-0.189994 -0.12513,-0.294826 -0.177822,-0.43895 z M 10.737271,9.5427846 c -0.02637,-0.04587 -0.007,-0.06551 0.03294,-0.08516 0.007,-0.0066 0.01982,-0.01972 0.007,-0.01972 -0.01326,-0.0066 -0.03952,-0.0066 -0.03952,0 -0.01982,0.04587 -0.17123,0.03931 -0.0527,0.137594 0,0 0,0.01972 0,0.01972 -0.0461,0.03276 -0.03293,0.1310362 -0.125124,0.11793 -0.007,0 -0.02642,0 -0.01326,0.0131 0.05271,0.0655 0.12516,0 0.191011,0.01972 0.01982,0.0066 0.03294,-0.01972 0.03952,-0.04587 0.007,-0.07206 0.02637,-0.13103 0.118555,-0.08517 0.007,0.0066 0.02629,0.0066 0.02629,-0.0066 0,0 -0.01319,-0.0131 -0.02629,-0.0131 -0.01326,0 -0.03293,0 -0.04611,0 -0.04612,-0.0066 -0.08565,-0.0066 -0.111966,-0.05242 z m 1.185484,1.4216654 c -0.06587,-0.03276 -0.125131,-0.07206 -0.144887,-0.144141 -0.007,-0.01316 -0.01982,-0.0393 -0.03952,-0.02619 -0.01982,0.01319 -0.01326,0.03277 0,0.05241 0.02637,0.03932 0.05929,0.06553 0.07245,0.104828 0.03295,0.124468 0.06588,0.08516 0.111973,0.01319 0,0 0,0 0,0 z M 7.7867195,9.1955726 c -0.04612,0.02622 0.02636,0.03274 0.007,0.0655 -0.01982,0.03276 0.03294,0.05242 0.0461,0.04585 0.05929,-0.0066 0.05929,-0.05894 0.04612,-0.104823 -0.007,-0.02622 -0.03293,-0.0066 -0.0527,0 -0.01982,0.01319 -0.03294,0.01319 -0.04611,-0.0066 -0.007,0 0,0 0,0 z m -0.46761,0.8385824 c 0.007,-0.02622 -0.01982,-0.03277 -0.03952,-0.03277 -0.03951,0.0066 -0.07905,0.02619 -0.09882,0.05241 -0.007,0.01319 0.03953,-0.0066 0.0527,0.01319 0.02639,-0.01972 0.07905,0.01972 0.08563,-0.03277 z m -0.007,0.104804 c -0.01325,0.01322 0.007,0.03277 0.01326,0.02622 0.02645,-0.01973 0.05929,-0.03932 0.07905,-0.06552 0.007,-0.0066 -0.03293,-0.01973 -0.05928,-0.01973 -0.0527,-0.01319 -0.01319,0.03932 -0.03293,0.05898 z m 4.0372515,1.880262 c -0.03293,0 -0.04611,0.01972 -0.05271,0.04586 0,0.01973 -0.007,0.04587 0.02637,0.04587 0.03294,0 0.03294,-0.03931 0.04611,-0.05898 0.01319,-0.02622 -0.007,-0.02622 -0.01982,-0.03275 z M 7.2466444,10.112748 c -0.03292,0.0066 -0.05269,0.03277 -0.06588,0.05897 -0.01319,0.01972 -0.02636,0.05241 -0.03293,0.07206 0.007,0 0.01326,0.0066 0.01982,0 0.03951,-0.03276 0.03951,-0.09173 0.09222,-0.124465 -0.01325,0 -0.01325,-0.0066 -0.01325,-0.0066 z"
       id="path2-2-3-7-3"
       style="fill:#1a1a1a;fill-opacity:0.501961;stroke-width:0.209001" />
  </g>
</svg>
