<?xml version="1.0" encoding="UTF-8" standalone="no"?>
<svg
   width="68"
   height="68"
   viewBox="0 0 17.991665 17.991665"
   version="1.1"
   id="svg1114"
   inkscape:version="1.3.2 (091e20ef0f, 2023-11-25)"
   sodipodi:docname="folder-projects.svg"
   xmlns:inkscape="http://www.inkscape.org/namespaces/inkscape"
   xmlns:sodipodi="http://sodipodi.sourceforge.net/DTD/sodipodi-0.dtd"
   xmlns:xlink="http://www.w3.org/1999/xlink"
   xmlns="http://www.w3.org/2000/svg"
   xmlns:svg="http://www.w3.org/2000/svg"
   xmlns:rdf="http://www.w3.org/1999/02/22-rdf-syntax-ns#"
   xmlns:cc="http://creativecommons.org/ns#"
   xmlns:dc="http://purl.org/dc/elements/1.1/">
  <style
     type="text/css"
     id="current-color-scheme">.ColorScheme-Highlight { color:#5599ff; }
</style>
  <defs
     id="defs1108">
    <linearGradient
       inkscape:collect="always"
       id="linearGradient11">
      <stop
         style="stop-color:#8787de;stop-opacity:1;"
         offset="0"
         id="stop10" />
      <stop
         style="stop-color:#008080;stop-opacity:1;"
         offset="1"
         id="stop11" />
    </linearGradient>
    <linearGradient
       id="linearGradient9"
       inkscape:collect="always">
      <stop
         style="stop-color:#ffffff;stop-opacity:0;"
         offset="0"
         id="stop1" />
      <stop
         id="stop8"
         offset="0.67097157"
         style="stop-color:#ffffff;stop-opacity:0" />
      <stop
         style="stop-color:#ffffff;stop-opacity:1;"
         offset="1"
         id="stop9" />
    </linearGradient>
    <linearGradient
       id="linearGradient7"
       inkscape:collect="always">
      <stop
         style="stop-color:#000000;stop-opacity:0;"
         offset="0"
         id="stop5" />
      <stop
         id="stop6"
         offset="0.6586886"
         style="stop-color:#000000;stop-opacity:0" />
      <stop
         style="stop-color:#000000;stop-opacity:1;"
         offset="1"
         id="stop7" />
    </linearGradient>
    <linearGradient
       id="linearGradient4"
       inkscape:collect="always">
      <stop
         style="stop-color:#000000;stop-opacity:0;"
         offset="0"
         id="stop2" />
      <stop
         id="stop3"
         offset="0.67055255"
         style="stop-color:#000000;stop-opacity:0" />
      <stop
         style="stop-color:#000000;stop-opacity:1;"
         offset="1"
         id="stop4" />
    </linearGradient>
    <linearGradient
       id="linearGradient1167"
       x1="40.751999"
       x2="40.751999"
       y1="28.507999"
       y2="17.205999"
       gradientUnits="userSpaceOnUse">
      <stop
         style="stop-color:#84fb6e;stop-opacity:1"
         stop-color="#0ab816"
         offset="0"
         id="stop1163" />
      <stop
         style="stop-color:#0dd41a;stop-opacity:1"
         stop-color="#0cf36c"
         offset="1"
         id="stop1165" />
    </linearGradient>
    <linearGradient
       id="cornerBevel"
       inkscape:collect="always">
      <stop
         style="stop-color:#000000;stop-opacity:0;"
         offset="0"
         id="stop2663" />
      <stop
         id="stop2671"
         offset="0.66666675"
         style="stop-color:#000000;stop-opacity:0" />
      <stop
         style="stop-color:#000000;stop-opacity:1;"
         offset="1"
         id="stop2661" />
    </linearGradient>
    <linearGradient
       id="bevel"
       inkscape:collect="always">
      <stop
         id="stop2685"
         offset="0"
         style="stop-color:#000000;stop-opacity:1;" />
      <stop
         id="stop2687"
         offset="1"
         style="stop-color:#000000;stop-opacity:0;" />
    </linearGradient>
    <linearGradient
       id="highlightCorner"
       inkscape:collect="always">
      <stop
         style="stop-color:#ffffff;stop-opacity:0;"
         offset="0"
         id="stop2613" />
      <stop
         id="stop2621"
         offset="0.66666669"
         style="stop-color:#ffffff;stop-opacity:0" />
      <stop
         style="stop-color:#ffffff;stop-opacity:1;"
         offset="1"
         id="stop2611" />
    </linearGradient>
    <linearGradient
       inkscape:collect="always"
       id="highlight">
      <stop
         style="stop-color:#ffffff;stop-opacity:1;"
         offset="0"
         id="stop2921" />
      <stop
         style="stop-color:#ffffff;stop-opacity:0;"
         offset="1"
         id="stop2923" />
    </linearGradient>
    <radialGradient
       inkscape:collect="always"
       xlink:href="#highlightCorner"
       id="radialGradient15"
       gradientUnits="userSpaceOnUse"
       gradientTransform="matrix(0.04294597,-12.079348,17.933991,0.06376112,14.524179,-50.373789)"
       cx="-4.5799766"
       cy="-0.50206107"
       fx="-4.5799766"
       fy="-0.50206107"
       r="0.39687499" />
    <linearGradient
       inkscape:collect="always"
       xlink:href="#highlight"
       id="linearGradient15"
       gradientUnits="userSpaceOnUse"
       x1="-3.8497722"
       y1="-1.1532172"
       x2="-3.8486557"
       y2="-0.89102554"
       gradientTransform="matrix(6.0923077,0,0,6.0923077,32.228528,7.1537621)" />
    <radialGradient
       inkscape:collect="always"
       xlink:href="#linearGradient9"
       id="radialGradient17"
       gradientUnits="userSpaceOnUse"
       gradientTransform="matrix(1.1757679e-4,-11.994067,-18.104833,-1.7749478e-4,1.6916469,-50.007179)"
       cx="-4.5775003"
       cy="-0.55256677"
       fx="-4.5775003"
       fy="-0.55256677"
       r="0.39687499" />
    <radialGradient
       inkscape:collect="always"
       xlink:href="#linearGradient7"
       id="radialGradient18"
       gradientUnits="userSpaceOnUse"
       gradientTransform="matrix(0.0232366,12.009662,17.933953,-0.03470102,14.426451,64.381084)"
       cx="-4.4256716"
       cy="-0.50045931"
       fx="-4.4256716"
       fy="-0.50045931"
       r="0.39687499" />
    <linearGradient
       inkscape:collect="always"
       xlink:href="#bevel"
       id="linearGradient18"
       gradientUnits="userSpaceOnUse"
       x1="-3.8447375"
       y1="-1.4538249"
       x2="-3.8438127"
       y2="-1.1952862"
       gradientTransform="matrix(6.0923076,0,0,6.0923076,32.228527,-7.1537627)" />
    <radialGradient
       inkscape:collect="always"
       xlink:href="#linearGradient4"
       id="radialGradient20"
       gradientUnits="userSpaceOnUse"
       gradientTransform="matrix(-0.01031383,11.991438,-17.967296,-0.01545561,1.7353715,64.305742)"
       cx="-4.4236727"
       cy="-0.55004197"
       fx="-4.4236727"
       fy="-0.55004197"
       r="0.39687499" />
    <radialGradient
       inkscape:collect="always"
       xlink:href="#cornerBevel"
       id="radialGradient25"
       gradientUnits="userSpaceOnUse"
       gradientTransform="matrix(12.184614,0,0,12.184614,59.63122,10.377613)"
       cx="-4.4568658"
       cy="-0.44864327"
       fx="-4.4568658"
       fy="-0.44864327"
       r="0.39687496" />
    <linearGradient
       inkscape:collect="always"
       xlink:href="#bevel"
       id="linearGradient25"
       gradientUnits="userSpaceOnUse"
       x1="-3.8487544"
       y1="-1.146081"
       x2="-3.8455966"
       y2="-0.890971"
       gradientTransform="matrix(6.0923077,0,0,6.0923077,32.228528,7.1537627)" />
    <radialGradient
       inkscape:collect="always"
       xlink:href="#cornerBevel"
       id="radialGradient29"
       gradientUnits="userSpaceOnUse"
       gradientTransform="matrix(0,-12.184614,12.184614,0,11.27353,-44.427768)"
       cx="-4.5705457"
       cy="-0.48653662"
       fx="-4.5705457"
       fy="-0.48653662"
       r="0.39687496" />
    <radialGradient
       inkscape:collect="always"
       xlink:href="#cornerBevel"
       id="radialGradient30"
       gradientUnits="userSpaceOnUse"
       gradientTransform="matrix(-12.184514,-0.04945749,0.04847411,-11.942243,-43.502155,3.8519053)"
       cx="-4.5342312"
       cy="-0.60337442"
       fx="-4.5342312"
       fy="-0.60337442"
       r="0.39687496" />
    <radialGradient
       inkscape:collect="always"
       xlink:href="#cornerBevel"
       id="radialGradient31"
       gradientUnits="userSpaceOnUse"
       gradientTransform="matrix(-0.06855274,-12.083057,11.978763,-0.06796103,18.172721,-48.506326)"
       cx="-4.4175329"
       cy="-0.56489283"
       fx="-4.4175329"
       fy="-0.56489283"
       r="0.39687496" />
    <linearGradient
       inkscape:collect="always"
       xlink:href="#bevel"
       id="linearGradient34"
       gradientUnits="userSpaceOnUse"
       x1="-3.99717"
       y1="-1.2218677"
       x2="-4.0003276"
       y2="-0.96675771"
       gradientTransform="matrix(6.0923077,0,0,6.0923077,17.025077,8.0496826)" />
    <linearGradient
       inkscape:collect="always"
       xlink:href="#bevel"
       id="linearGradient35"
       gradientUnits="userSpaceOnUse"
       x1="-4.0919032"
       y1="-1.4492278"
       x2="-4.0950613"
       y2="-1.1972755"
       gradientTransform="matrix(6.0923077,0,0,6.0923077,16.129161,-7.1537627)" />
    <linearGradient
       inkscape:collect="always"
       xlink:href="#bevel"
       id="linearGradient36"
       gradientUnits="userSpaceOnUse"
       x1="-3.8734362"
       y1="-1.3717227"
       x2="-3.8765941"
       y2="-1.116071"
       gradientTransform="matrix(6.0923077,0,0,6.0923077,31.33261,-8.0496826)" />
    <linearGradient
       id="paint2_linear_77:3-7"
       x1="79.398094"
       y1="-197.84389"
       x2="82.901054"
       y2="-199.97827"
       gradientUnits="userSpaceOnUse"
       gradientTransform="matrix(1.9248511,0,0,1.7314595,-40.88733,399.61741)">
      <stop
         stop-color="#EBFAFF"
         stop-opacity="0.1"
         id="stop29-5-7"
         offset="0"
         style="stop-color:#c3c3c3;stop-opacity:1;" />
      <stop
         offset="1"
         stop-color="#70A9FF"
         stop-opacity="0.5"
         id="stop30-0-1"
         style="stop-color:#05c7ff;stop-opacity:0.80000001;" />
    </linearGradient>
    <linearGradient
       inkscape:collect="always"
       xlink:href="#linearGradient11"
       id="linearGradient926"
       x1="2.2404647"
       y1="-15.326112"
       x2="15.749185"
       y2="-2.5594618"
       gradientUnits="userSpaceOnUse"
       gradientTransform="translate(-0.92604234,0.47624996)" />
    <linearGradient
       inkscape:collect="always"
       xlink:href="#linearGradient11"
       id="linearGradient892"
       gradientUnits="userSpaceOnUse"
       x1="15.76272"
       y1="2.7368727"
       x2="2.6505842"
       y2="15.759102"
       gradientTransform="translate(-0.47625037,-0.92604234)" />
  </defs>
  <sodipodi:namedview
     id="base"
     pagecolor="#e2e2e2"
     bordercolor="#000000"
     borderopacity="1"
     inkscape:pageopacity="0"
     inkscape:pageshadow="2"
     inkscape:zoom="9.724873"
     inkscape:cx="28.894979"
     inkscape:cy="37.635453"
     inkscape:document-units="px"
     inkscape:current-layer="layer1"
     inkscape:document-rotation="0"
     showgrid="true"
     units="px"
     inkscape:window-width="1920"
     inkscape:window-height="990"
     inkscape:window-x="0"
     inkscape:window-y="0"
     inkscape:window-maximized="1"
     inkscape:object-paths="true"
     inkscape:snap-grids="true"
     inkscape:snap-intersection-paths="true"
     inkscape:snap-smooth-nodes="true"
     inkscape:snap-midpoints="true"
     inkscape:showpageshadow="2"
     inkscape:pagecheckerboard="0"
     inkscape:deskcolor="#d1d1d1">
    <inkscape:grid
       id="grid2"
       units="px"
       originx="0"
       originy="0"
       spacingx="0.26458333"
       spacingy="0.26458333"
       empcolor="#0099e5"
       empopacity="0.30196078"
       color="#0099e5"
       opacity="0.14902"
       empspacing="5"
       dotted="false"
       gridanglex="30"
       gridanglez="30"
       visible="true" />
  </sodipodi:namedview>
  <metadata
     id="metadata1111">
    <rdf:RDF>
      <cc:Work
         rdf:about="">
        <dc:format>image/svg+xml</dc:format>
        <dc:type
           rdf:resource="http://purl.org/dc/dcmitype/StillImage" />
      </cc:Work>
    </rdf:RDF>
  </metadata>
  <g
     inkscape:label="Layer 1"
     inkscape:groupmode="layer"
     id="layer1">
    <g
       id="g918"
       transform="translate(0.47625037,0.92604234)">
      <rect
         ry="4.8357682"
         rx="4.8357682"
         style="fill:url(#linearGradient926);fill-opacity:1;stroke-width:6.09228"
         x="0.13229237"
         y="-16.457085"
         width="15.875001"
         height="15.875001"
         id="use1056"
         transform="rotate(90)"
         class="ColorScheme-Highlight" />
      <path
         d="m 5.344583,0.13229167 c -2.6384245,0 -4.76249953,2.12407483 -4.76249953,4.76249963 H 5.344583 Z"
         style="opacity:0.15;fill:url(#radialGradient25);fill-opacity:1;stroke-width:6.09228"
         id="path20" />
      <rect
         y="0.13229151"
         x="5.3445826"
         height="1.5875"
         width="6.3500004"
         id="rect20"
         style="opacity:0.15;fill:url(#linearGradient25);fill-opacity:1;stroke-width:4.83577;stroke-linecap:round;stroke-linejoin:round;paint-order:stroke fill markers" />
      <path
         d="m 0.58208347,11.244792 c 0,2.638424 2.12407503,4.762499 4.76249953,4.762499 v -4.762499 z"
         style="opacity:0.15;fill:url(#radialGradient29);fill-opacity:1;stroke-width:6.09228"
         id="use20" />
      <rect
         y="0.5820834"
         x="-11.244792"
         height="1.5875"
         width="6.3500004"
         id="use21"
         style="opacity:0.15;fill:url(#linearGradient34);fill-opacity:1;stroke-width:4.83577;stroke-linecap:round;stroke-linejoin:round;paint-order:stroke fill markers"
         transform="rotate(-90)" />
      <path
         d="m 11.694583,16.007291 c 2.638425,0 4.7625,-2.124074 4.7625,-4.762499 h -4.7625 z"
         style="opacity:0.15;fill:url(#radialGradient30);fill-opacity:1;stroke-width:6.09228"
         id="use22" />
      <rect
         y="-16.007292"
         x="-11.694584"
         height="1.5875"
         width="6.3500004"
         id="use23"
         style="opacity:0.15;fill:url(#linearGradient35);fill-opacity:1;stroke-width:4.83577;stroke-linecap:round;stroke-linejoin:round;paint-order:stroke fill markers"
         transform="scale(-1)" />
      <path
         d="m 16.457083,4.8947913 c 0,-2.6384245 -2.124074,-4.76249963 -4.7625,-4.76249963 V 4.8947913 Z"
         style="opacity:0.15;fill:url(#radialGradient31);fill-opacity:1;stroke-width:6.09228"
         id="use24" />
      <rect
         y="-16.457081"
         x="4.8947906"
         height="1.5875"
         width="6.3500004"
         id="use25"
         style="opacity:0.15;fill:url(#linearGradient36);fill-opacity:1;stroke-width:4.83577;stroke-linecap:round;stroke-linejoin:round;paint-order:stroke fill markers"
         transform="rotate(90)" />
      <path
         d="m 5.3445832,0.13229107 c -2.638425,0 -4.76250035,2.12407473 -4.76250035,4.76249973 H 5.3445832 Z"
         style="opacity:0.5;fill:url(#radialGradient15);fill-opacity:1;stroke-width:6.09228"
         id="path14" />
      <rect
         y="0.1322909"
         x="5.3445826"
         height="1.5875"
         width="6.3499999"
         id="rect14"
         style="opacity:0.5;fill:url(#linearGradient15);fill-opacity:1;stroke-width:4.83577;stroke-linecap:round;stroke-linejoin:round;paint-order:stroke fill markers" />
      <path
         d="m 11.694583,0.1322909 c 2.638425,0 4.7625,2.1240749 4.7625,4.7624976 h -4.7625 z"
         style="opacity:0.5;fill:url(#radialGradient17);fill-opacity:1;stroke-width:6.09228"
         id="use14" />
      <path
         id="path17"
         style="opacity:0.5;fill:url(#radialGradient18);fill-opacity:1;stroke-width:6.09228"
         d="m 5.3445834,16.00729 c -2.638425,0 -4.7625,-2.124075 -4.7625,-4.7625 h 4.7625 z" />
      <rect
         style="opacity:0.5;fill:url(#linearGradient18);fill-opacity:1;stroke-width:4.83577;stroke-linecap:round;stroke-linejoin:round;paint-order:stroke fill markers"
         id="rect17"
         width="6.3499994"
         height="1.5874999"
         x="5.3445826"
         y="-16.007292"
         transform="scale(1,-1)" />
      <path
         id="use17"
         style="opacity:0.5;fill:url(#radialGradient20);fill-opacity:1;stroke-width:6.09228"
         d="m 11.694582,16.007291 c 2.638425,0 4.7625,-2.124075 4.7625,-4.7625 h -4.7625 z" />
      <path
         d="m 4.8411477,2.2886454 c -1.1721999,0 -2.1159392,1.1779639 -2.1159392,2.2465608 V 11.26036 c 0,1.068671 0.943821,1.929059 2.1159392,1.929059 h 7.3766603 c 1.1722,0 2.115939,-0.860463 2.115939,-1.929059 V 4.5352062 c 0,-1.0686713 -0.943821,-2.2465608 -2.115939,-2.2465608 z"
         fill="#fafafa"
         stroke-linecap="round"
         stroke-width="0.0793746"
         style="fill:#ffffff;fill-opacity:0.602564;paint-order:stroke fill markers"
         id="path2-6"
         sodipodi:nodetypes="sssssssss" />
      <path
         d="m 2.8835048,3.9688329 c -0.2636521,0 -0.4757965,0.2024423 -0.4757965,0.4540176 v 1.4746632 c 0,0.0183 0.00347,0.03564 0.00565,0.05337 -0.00465,0.436096 -0.00439,0.933217 -0.00439,1.5855106 v 0.180942 h -4.391e-4 v 3.2806677 c 0,0.02941 0.00347,0.05796 0.00439,0.08714 0.00168,0.0413 0.00264,0.08276 0.00657,0.123409 0.1068632,1.368001 1.2422934,2.451689 2.6756704,2.554475 0.072019,0.0066 0.1449519,0.01032 0.2193309,0.01043 0.00102,3e-6 0.002,0 0.00307,0 h 6.4860055 4.37e-4 c 0.07554,0 0.149713,-0.0038 0.222824,-0.01043 1.429741,-0.102907 2.562793,-1.181876 2.673893,-2.54528 0.0073,-0.07226 0.01179,-0.145376 0.01179,-0.219716 V 7.6547513 c 1.3e-5,-0.0015 4.37e-4,-0.0028 4.37e-4,-0.0042 V 6.1758977 c 0,-0.251582 -0.106241,-0.454014 -0.369885,-0.454014 H 9.1584167 c -0.2295699,-1e-6 -0.4092976,-0.01479 -0.5583769,-0.05253 C 8.4509617,5.6316137 8.3328028,5.5707037 8.2273514,5.47924 8.121901,5.38777 8.0289554,5.2655993 7.9302511,5.1044346 7.8315481,4.9432596 7.7270274,4.7434229 7.598199,4.4965672 7.536064,4.3506905 7.449289,4.2446292 7.3543985,4.1680402 7.2595085,4.0914502 7.1566781,4.0442129 7.0612298,4.0150299 6.8703322,3.9566699 6.7103888,3.9712499 6.7103888,3.9712499 H 4.5515737 c -0.00887,-4.64e-4 -0.017213,-0.0025 -0.026218,-0.0025 H 3.7515794 Z"
         id="path4-3-6"
         style="fill:url(#linearGradient892);fill-opacity:1"
         class="ColorScheme-Highlight "
         sodipodi:nodetypes="csscsccscccsscsccscssssssccscccscc" />
    </g>
    <path
       d="m 11.051505,12.255645 c -0.04121,-0.124431 -0.104432,-0.24116 -0.189191,-0.350182 -0.08498,-0.108895 -0.190446,-0.205624 -0.316569,-0.290147 -0.126196,-0.08439 -0.274127,-0.151109 -0.443886,-0.200089 -0.06804,-0.01771 -0.1877084,-0.04557 -0.3453339,-0.08341 -0.1126628,-0.02693 -0.2182827,-0.05459 -0.3373459,-0.08274 V 9.8754708 c 0.1190568,0.031138 0.201773,0.080568 0.2900612,0.1355152 0.1889022,0.117454 0.3073446,0.31839 0.3420406,0.591239 h 0.915121 c -0.0088,-0.233872 -0.06151,-0.425644 -0.158695,-0.59793 C 10.700946,9.8153398 10.556656,9.6531754 10.374713,9.5241298 10.192808,9.3952141 9.9748576,9.296883 9.7347212,9.232373 9.6304186,9.2043951 9.5382525,9.180871 9.4191922,9.1650309 V 8.7312492 H 8.5725255 V 9.1621844 C 8.4799119,9.1757493 8.3721288,9.1939535 8.275847,9.2173992 8.0477498,9.2730418 7.8473823,9.3586069 7.6679559,9.4741913 7.4884173,9.5898923 7.3457895,9.7355051 7.2366265,9.9111038 7.1274387,10.086806 7.0737554,10.294652 7.0737554,10.534763 c 0,0.124535 0.018573,0.246773 0.054939,0.366853 0.03637,0.120078 0.098436,0.233445 0.1857716,0.340168 0.087351,0.106699 0.2049834,0.203443 0.3530448,0.290159 0.1479393,0.08663 0.3268256,0.156745 0.5500136,0.210108 0.1228533,0.03049 0.249104,0.05895 0.3549379,0.08547 v 1.553765 C 8.4269665,13.343336 8.2829191,13.285126 8.1666443,13.206123 8.0453322,13.123923 7.9541047,13.024835 7.8862114,12.895802 7.8230298,12.77589 7.7926031,12.629111 7.7882231,12.473195 H 6.879166 c 0.00908,0.272855 0.069452,0.513142 0.1808687,0.719434 0.116396,0.21573 0.2716385,0.389264 0.4657137,0.527014 0.1939763,0.137895 0.4153142,0.238499 0.6773189,0.305217 0.1175024,0.03 0.2503715,0.05139 0.3694348,0.06798 v 0.459248 h 0.8466703 v -0.44877 c 0.1322924,-0.01383 0.2507864,-0.03498 0.3773896,-0.06343 0.2474,-0.05548 0.47156,-0.143391 0.665645,-0.263445 0.193967,-0.120057 0.352173,-0.274515 0.471101,-0.463603 0.118798,-0.188928 0.179193,-0.416874 0.179193,-0.683674 10e-6,-0.124446 -0.01988,-0.24899 -0.06099,-0.373528 z M 8.5725255,11.04007 C 8.4137735,10.991432 8.2561904,10.921987 8.1485227,10.831561 8.0344807,10.73601 7.9808574,10.603739 7.9808574,10.434689 c 0,-0.120068 0.031976,-0.220098 0.092667,-0.300159 0.060609,-0.08005 0.1311301,-0.1434142 0.2233062,-0.1900983 0.081761,-0.04143 0.1830942,-0.072317 0.2756948,-0.092747 z m 1.5729775,1.945974 c -0.03886,0.08664 -0.101855,0.163396 -0.1892187,0.230116 -0.08734,0.06665 -0.2082806,0.121199 -0.3489467,0.163408 -0.059541,0.01788 -0.1087917,0.03172 -0.1881584,0.04202 v -1.391659 c 0.1322898,0.03407 0.240507,0.06924 0.3482707,0.105632 0.1066484,0.03561 0.2083357,0.09671 0.2981481,0.183403 0.08976,0.08671 0.13638,0.22127 0.13638,0.403563 1.3e-5,0.08897 -0.0177,0.176765 -0.05646,0.26348 z"
       id="path25907-1"
       style="mix-blend-mode:normal;fill:#1a1a1a;fill-opacity:0.6;stroke-width:0.0374615" />
  </g>
</svg>
