<?xml version="1.0" encoding="UTF-8" standalone="no"?>
<svg
   width="68"
   height="68"
   viewBox="0 0 17.991665 17.991665"
   version="1.1"
   id="svg1114"
   inkscape:version="1.3.2 (091e20ef0f, 2023-11-25)"
   sodipodi:docname="folder-amy.svg"
   xmlns:inkscape="http://www.inkscape.org/namespaces/inkscape"
   xmlns:sodipodi="http://sodipodi.sourceforge.net/DTD/sodipodi-0.dtd"
   xmlns:xlink="http://www.w3.org/1999/xlink"
   xmlns="http://www.w3.org/2000/svg"
   xmlns:svg="http://www.w3.org/2000/svg"
   xmlns:rdf="http://www.w3.org/1999/02/22-rdf-syntax-ns#"
   xmlns:cc="http://creativecommons.org/ns#"
   xmlns:dc="http://purl.org/dc/elements/1.1/">
  <style
     type="text/css"
     id="current-color-scheme">.ColorScheme-Highlight { color:#5599ff; }
</style>
  <defs
     id="defs1108">
    <linearGradient
       inkscape:collect="always"
       id="linearGradient11">
      <stop
         style="stop-color:#a366ff;stop-opacity:1;"
         offset="0"
         id="stop10" />
      <stop
         style="stop-color:#00a2cc;stop-opacity:1;"
         offset="1"
         id="stop11" />
    </linearGradient>
    <linearGradient
       id="linearGradient9"
       inkscape:collect="always">
      <stop
         style="stop-color:#ffffff;stop-opacity:0;"
         offset="0"
         id="stop1" />
      <stop
         id="stop8"
         offset="0.67097157"
         style="stop-color:#ffffff;stop-opacity:0" />
      <stop
         style="stop-color:#ffffff;stop-opacity:1;"
         offset="1"
         id="stop9" />
    </linearGradient>
    <linearGradient
       id="linearGradient7"
       inkscape:collect="always">
      <stop
         style="stop-color:#000000;stop-opacity:0;"
         offset="0"
         id="stop5" />
      <stop
         id="stop6"
         offset="0.6586886"
         style="stop-color:#000000;stop-opacity:0" />
      <stop
         style="stop-color:#000000;stop-opacity:1;"
         offset="1"
         id="stop7" />
    </linearGradient>
    <linearGradient
       id="linearGradient4"
       inkscape:collect="always">
      <stop
         style="stop-color:#000000;stop-opacity:0;"
         offset="0"
         id="stop2" />
      <stop
         id="stop3"
         offset="0.67055255"
         style="stop-color:#000000;stop-opacity:0" />
      <stop
         style="stop-color:#000000;stop-opacity:1;"
         offset="1"
         id="stop4" />
    </linearGradient>
    <linearGradient
       id="linearGradient1167"
       x1="40.751999"
       x2="40.751999"
       y1="28.507999"
       y2="17.205999"
       gradientUnits="userSpaceOnUse">
      <stop
         style="stop-color:#84fb6e;stop-opacity:1"
         stop-color="#0ab816"
         offset="0"
         id="stop1163" />
      <stop
         style="stop-color:#0dd41a;stop-opacity:1"
         stop-color="#0cf36c"
         offset="1"
         id="stop1165" />
    </linearGradient>
    <linearGradient
       id="cornerBevel"
       inkscape:collect="always">
      <stop
         style="stop-color:#000000;stop-opacity:0;"
         offset="0"
         id="stop2663" />
      <stop
         id="stop2671"
         offset="0.66666675"
         style="stop-color:#000000;stop-opacity:0" />
      <stop
         style="stop-color:#000000;stop-opacity:1;"
         offset="1"
         id="stop2661" />
    </linearGradient>
    <linearGradient
       id="bevel"
       inkscape:collect="always">
      <stop
         id="stop2685"
         offset="0"
         style="stop-color:#000000;stop-opacity:1;" />
      <stop
         id="stop2687"
         offset="1"
         style="stop-color:#000000;stop-opacity:0;" />
    </linearGradient>
    <linearGradient
       id="highlightCorner"
       inkscape:collect="always">
      <stop
         style="stop-color:#ffffff;stop-opacity:0;"
         offset="0"
         id="stop2613" />
      <stop
         id="stop2621"
         offset="0.66666669"
         style="stop-color:#ffffff;stop-opacity:0" />
      <stop
         style="stop-color:#ffffff;stop-opacity:1;"
         offset="1"
         id="stop2611" />
    </linearGradient>
    <linearGradient
       inkscape:collect="always"
       id="highlight">
      <stop
         style="stop-color:#ffffff;stop-opacity:1;"
         offset="0"
         id="stop2921" />
      <stop
         style="stop-color:#ffffff;stop-opacity:0;"
         offset="1"
         id="stop2923" />
    </linearGradient>
    <radialGradient
       inkscape:collect="always"
       xlink:href="#highlightCorner"
       id="radialGradient15"
       gradientUnits="userSpaceOnUse"
       gradientTransform="matrix(0.04294597,-12.079348,17.933991,0.06376112,14.524179,-50.373789)"
       cx="-4.5799766"
       cy="-0.50206107"
       fx="-4.5799766"
       fy="-0.50206107"
       r="0.39687499" />
    <linearGradient
       inkscape:collect="always"
       xlink:href="#highlight"
       id="linearGradient15"
       gradientUnits="userSpaceOnUse"
       x1="-3.8497722"
       y1="-1.1532172"
       x2="-3.8486557"
       y2="-0.89102554"
       gradientTransform="matrix(6.0923077,0,0,6.0923077,32.228528,7.1537621)" />
    <radialGradient
       inkscape:collect="always"
       xlink:href="#linearGradient9"
       id="radialGradient17"
       gradientUnits="userSpaceOnUse"
       gradientTransform="matrix(1.1757679e-4,-11.994067,-18.104833,-1.7749478e-4,1.6916469,-50.007179)"
       cx="-4.5775003"
       cy="-0.55256677"
       fx="-4.5775003"
       fy="-0.55256677"
       r="0.39687499" />
    <radialGradient
       inkscape:collect="always"
       xlink:href="#linearGradient7"
       id="radialGradient18"
       gradientUnits="userSpaceOnUse"
       gradientTransform="matrix(0.0232366,12.009662,17.933953,-0.03470102,14.426451,64.381084)"
       cx="-4.4256716"
       cy="-0.50045931"
       fx="-4.4256716"
       fy="-0.50045931"
       r="0.39687499" />
    <linearGradient
       inkscape:collect="always"
       xlink:href="#bevel"
       id="linearGradient18"
       gradientUnits="userSpaceOnUse"
       x1="-3.8447375"
       y1="-1.4538249"
       x2="-3.8438127"
       y2="-1.1952862"
       gradientTransform="matrix(6.0923076,0,0,6.0923076,32.228527,-7.1537627)" />
    <radialGradient
       inkscape:collect="always"
       xlink:href="#linearGradient4"
       id="radialGradient20"
       gradientUnits="userSpaceOnUse"
       gradientTransform="matrix(-0.01031383,11.991438,-17.967296,-0.01545561,1.7353715,64.305742)"
       cx="-4.4236727"
       cy="-0.55004197"
       fx="-4.4236727"
       fy="-0.55004197"
       r="0.39687499" />
    <radialGradient
       inkscape:collect="always"
       xlink:href="#cornerBevel"
       id="radialGradient25"
       gradientUnits="userSpaceOnUse"
       gradientTransform="matrix(12.184614,0,0,12.184614,59.63122,10.377613)"
       cx="-4.4568658"
       cy="-0.44864327"
       fx="-4.4568658"
       fy="-0.44864327"
       r="0.39687496" />
    <linearGradient
       inkscape:collect="always"
       xlink:href="#bevel"
       id="linearGradient25"
       gradientUnits="userSpaceOnUse"
       x1="-3.8487544"
       y1="-1.146081"
       x2="-3.8455966"
       y2="-0.890971"
       gradientTransform="matrix(6.0923077,0,0,6.0923077,32.228528,7.1537627)" />
    <radialGradient
       inkscape:collect="always"
       xlink:href="#cornerBevel"
       id="radialGradient29"
       gradientUnits="userSpaceOnUse"
       gradientTransform="matrix(0,-12.184614,12.184614,0,11.27353,-44.427768)"
       cx="-4.5705457"
       cy="-0.48653662"
       fx="-4.5705457"
       fy="-0.48653662"
       r="0.39687496" />
    <radialGradient
       inkscape:collect="always"
       xlink:href="#cornerBevel"
       id="radialGradient30"
       gradientUnits="userSpaceOnUse"
       gradientTransform="matrix(-12.184514,-0.04945749,0.04847411,-11.942243,-43.502155,3.8519053)"
       cx="-4.5342312"
       cy="-0.60337442"
       fx="-4.5342312"
       fy="-0.60337442"
       r="0.39687496" />
    <radialGradient
       inkscape:collect="always"
       xlink:href="#cornerBevel"
       id="radialGradient31"
       gradientUnits="userSpaceOnUse"
       gradientTransform="matrix(-0.06855274,-12.083057,11.978763,-0.06796103,18.172721,-48.506326)"
       cx="-4.4175329"
       cy="-0.56489283"
       fx="-4.4175329"
       fy="-0.56489283"
       r="0.39687496" />
    <linearGradient
       inkscape:collect="always"
       xlink:href="#bevel"
       id="linearGradient34"
       gradientUnits="userSpaceOnUse"
       x1="-3.99717"
       y1="-1.2218677"
       x2="-4.0003276"
       y2="-0.96675771"
       gradientTransform="matrix(6.0923077,0,0,6.0923077,17.025077,8.0496826)" />
    <linearGradient
       inkscape:collect="always"
       xlink:href="#bevel"
       id="linearGradient35"
       gradientUnits="userSpaceOnUse"
       x1="-4.0919032"
       y1="-1.4492278"
       x2="-4.0950613"
       y2="-1.1972755"
       gradientTransform="matrix(6.0923077,0,0,6.0923077,16.129161,-7.1537627)" />
    <linearGradient
       inkscape:collect="always"
       xlink:href="#bevel"
       id="linearGradient36"
       gradientUnits="userSpaceOnUse"
       x1="-3.8734362"
       y1="-1.3717227"
       x2="-3.8765941"
       y2="-1.116071"
       gradientTransform="matrix(6.0923077,0,0,6.0923077,31.33261,-8.0496826)" />
    <linearGradient
       id="paint2_linear_77:3-7"
       x1="79.398094"
       y1="-197.84389"
       x2="82.901054"
       y2="-199.97827"
       gradientUnits="userSpaceOnUse"
       gradientTransform="matrix(1.9248511,0,0,1.7314595,-40.88733,399.61741)">
      <stop
         stop-color="#EBFAFF"
         stop-opacity="0.1"
         id="stop29-5-7"
         offset="0"
         style="stop-color:#c3c3c3;stop-opacity:1;" />
      <stop
         offset="1"
         stop-color="#70A9FF"
         stop-opacity="0.5"
         id="stop30-0-1"
         style="stop-color:#05c7ff;stop-opacity:0.80000001;" />
    </linearGradient>
    <linearGradient
       inkscape:collect="always"
       xlink:href="#linearGradient11"
       id="linearGradient926"
       x1="2.4853265"
       y1="-15.434939"
       x2="15.504323"
       y2="-2.4506342"
       gradientUnits="userSpaceOnUse"
       gradientTransform="translate(-0.92604234,0.47624996)" />
    <linearGradient
       inkscape:collect="always"
       xlink:href="#linearGradient11"
       id="linearGradient12"
       x1="13.67135"
       y1="2.4774911"
       x2="1.5720313"
       y2="14.312477"
       gradientUnits="userSpaceOnUse" />
  </defs>
  <sodipodi:namedview
     id="base"
     pagecolor="#e2e2e2"
     bordercolor="#666666"
     borderopacity="1.0"
     inkscape:pageopacity="0"
     inkscape:pageshadow="2"
     inkscape:zoom="9.724873"
     inkscape:cx="31.362877"
     inkscape:cy="24.987473"
     inkscape:document-units="px"
     inkscape:current-layer="layer1"
     inkscape:document-rotation="0"
     showgrid="true"
     units="px"
     inkscape:window-width="1920"
     inkscape:window-height="990"
     inkscape:window-x="0"
     inkscape:window-y="0"
     inkscape:window-maximized="1"
     inkscape:object-paths="true"
     inkscape:snap-grids="true"
     inkscape:snap-intersection-paths="true"
     inkscape:snap-smooth-nodes="true"
     inkscape:snap-midpoints="true"
     inkscape:showpageshadow="2"
     inkscape:pagecheckerboard="0"
     inkscape:deskcolor="#d1d1d1">
    <inkscape:grid
       id="grid2"
       units="px"
       originx="0"
       originy="0"
       spacingx="0.26458333"
       spacingy="0.26458333"
       empcolor="#0099e5"
       empopacity="0.30196078"
       color="#0099e5"
       opacity="0.14902"
       empspacing="5"
       dotted="false"
       gridanglex="30"
       gridanglez="30"
       visible="true" />
  </sodipodi:namedview>
  <metadata
     id="metadata1111">
    <rdf:RDF>
      <cc:Work
         rdf:about="">
        <dc:format>image/svg+xml</dc:format>
        <dc:type
           rdf:resource="http://purl.org/dc/dcmitype/StillImage" />
      </cc:Work>
    </rdf:RDF>
  </metadata>
  <g
     inkscape:label="Layer 1"
     inkscape:groupmode="layer"
     id="layer1">
    <g
       id="g918"
       transform="translate(0.47625037,0.92604234)">
      <rect
         ry="4.8357682"
         rx="4.8357682"
         style="fill:url(#linearGradient926);fill-opacity:1;stroke-width:6.09228"
         x="0.13229237"
         y="-16.457085"
         width="15.875001"
         height="15.875001"
         id="use1056"
         transform="rotate(90)"
         class="ColorScheme-Highlight" />
      <path
         d="m 5.344583,0.13229167 c -2.6384245,0 -4.76249953,2.12407483 -4.76249953,4.76249963 H 5.344583 Z"
         style="opacity:0.15;fill:url(#radialGradient25);fill-opacity:1;stroke-width:6.09228"
         id="path20" />
      <rect
         y="0.13229151"
         x="5.3445826"
         height="1.5875"
         width="6.3500004"
         id="rect20"
         style="opacity:0.15;fill:url(#linearGradient25);fill-opacity:1;stroke-width:4.83577;stroke-linecap:round;stroke-linejoin:round;paint-order:stroke fill markers" />
      <path
         d="m 0.58208347,11.244792 c 0,2.638424 2.12407503,4.762499 4.76249953,4.762499 v -4.762499 z"
         style="opacity:0.15;fill:url(#radialGradient29);fill-opacity:1;stroke-width:6.09228"
         id="use20" />
      <rect
         y="0.5820834"
         x="-11.244792"
         height="1.5875"
         width="6.3500004"
         id="use21"
         style="opacity:0.15;fill:url(#linearGradient34);fill-opacity:1;stroke-width:4.83577;stroke-linecap:round;stroke-linejoin:round;paint-order:stroke fill markers"
         transform="rotate(-90)" />
      <path
         d="m 11.694583,16.007291 c 2.638425,0 4.7625,-2.124074 4.7625,-4.762499 h -4.7625 z"
         style="opacity:0.15;fill:url(#radialGradient30);fill-opacity:1;stroke-width:6.09228"
         id="use22" />
      <rect
         y="-16.007292"
         x="-11.694584"
         height="1.5875"
         width="6.3500004"
         id="use23"
         style="opacity:0.15;fill:url(#linearGradient35);fill-opacity:1;stroke-width:4.83577;stroke-linecap:round;stroke-linejoin:round;paint-order:stroke fill markers"
         transform="scale(-1)" />
      <path
         d="m 16.457083,4.8947913 c 0,-2.6384245 -2.124074,-4.76249963 -4.7625,-4.76249963 V 4.8947913 Z"
         style="opacity:0.15;fill:url(#radialGradient31);fill-opacity:1;stroke-width:6.09228"
         id="use24" />
      <rect
         y="-16.457081"
         x="4.8947906"
         height="1.5875"
         width="6.3500004"
         id="use25"
         style="opacity:0.15;fill:url(#linearGradient36);fill-opacity:1;stroke-width:4.83577;stroke-linecap:round;stroke-linejoin:round;paint-order:stroke fill markers"
         transform="rotate(90)" />
      <path
         d="m 5.3445832,0.13229107 c -2.638425,0 -4.76250035,2.12407473 -4.76250035,4.76249973 H 5.3445832 Z"
         style="opacity:0.5;fill:url(#radialGradient15);fill-opacity:1;stroke-width:6.09228"
         id="path14" />
      <rect
         y="0.1322909"
         x="5.3445826"
         height="1.5875"
         width="6.3499999"
         id="rect14"
         style="opacity:0.5;fill:url(#linearGradient15);fill-opacity:1;stroke-width:4.83577;stroke-linecap:round;stroke-linejoin:round;paint-order:stroke fill markers" />
      <path
         d="m 11.694583,0.1322909 c 2.638425,0 4.7625,2.1240749 4.7625,4.7624976 h -4.7625 z"
         style="opacity:0.5;fill:url(#radialGradient17);fill-opacity:1;stroke-width:6.09228"
         id="use14" />
      <path
         id="path17"
         style="opacity:0.5;fill:url(#radialGradient18);fill-opacity:1;stroke-width:6.09228"
         d="m 5.3445834,16.00729 c -2.638425,0 -4.7625,-2.124075 -4.7625,-4.7625 h 4.7625 z" />
      <rect
         style="opacity:0.5;fill:url(#linearGradient18);fill-opacity:1;stroke-width:4.83577;stroke-linecap:round;stroke-linejoin:round;paint-order:stroke fill markers"
         id="rect17"
         width="6.3499994"
         height="1.5874999"
         x="5.3445826"
         y="-16.007292"
         transform="scale(1,-1)" />
      <path
         id="use17"
         style="opacity:0.5;fill:url(#radialGradient20);fill-opacity:1;stroke-width:6.09228"
         d="m 11.694582,16.007291 c 2.638425,0 4.7625,-2.124075 4.7625,-4.7625 h -4.7625 z" />
      <path
         d="m 4.8411477,2.2886454 c -1.1721999,0 -2.1159392,1.1779639 -2.1159392,2.2465608 V 11.26036 c 0,1.068671 0.943821,1.929059 2.1159392,1.929059 h 7.3766603 c 1.1722,0 2.115939,-0.860463 2.115939,-1.929059 V 4.5352062 c 0,-1.0686713 -0.943821,-2.2465608 -2.115939,-2.2465608 z"
         fill="#fafafa"
         stroke-linecap="round"
         stroke-width="0.0793746"
         style="fill:#ffffff;fill-opacity:0.602564;paint-order:stroke fill markers"
         id="path2-6"
         sodipodi:nodetypes="sssssssss" />
      <path
         d="m 2.8835048,3.9688329 c -0.2636521,0 -0.4757965,0.2024423 -0.4757965,0.4540176 v 1.4746632 c 0,0.0183 0.00347,0.03564 0.00565,0.05337 -0.00465,0.436096 -0.00439,0.933217 -0.00439,1.5855106 v 0.180942 h -4.391e-4 v 3.2806677 c 0,0.02941 0.00347,0.05796 0.00439,0.08714 0.00168,0.0413 0.00264,0.08276 0.00657,0.123409 0.1068632,1.368001 1.2422934,2.451689 2.6756704,2.554475 0.072019,0.0066 0.1449519,0.01032 0.2193309,0.01043 0.00102,3e-6 0.002,0 0.00307,0 h 6.4860055 4.37e-4 c 0.07554,0 0.149713,-0.0038 0.222824,-0.01043 1.429741,-0.102907 2.562793,-1.181876 2.673893,-2.54528 0.0073,-0.07226 0.01179,-0.145376 0.01179,-0.219716 V 7.6547513 c 1.3e-5,-0.0015 4.37e-4,-0.0028 4.37e-4,-0.0042 V 6.1758977 c 0,-0.251582 -0.106241,-0.454014 -0.369885,-0.454014 H 9.1584167 c -0.2295699,-1e-6 -0.4092976,-0.01479 -0.5583769,-0.05253 C 8.4509617,5.6316137 8.3328028,5.5707037 8.2273514,5.47924 8.121901,5.38777 8.0289554,5.2655993 7.9302511,5.1044346 7.8315481,4.9432596 7.7270274,4.7434229 7.598199,4.4965672 7.536064,4.3506905 7.449289,4.2446292 7.3543985,4.1680402 7.2595085,4.0914502 7.1566781,4.0442129 7.0612298,4.0150299 6.8703322,3.9566699 6.7103888,3.9712499 6.7103888,3.9712499 H 4.5515737 c -0.00887,-4.64e-4 -0.017213,-0.0025 -0.026218,-0.0025 H 3.7515794 Z"
         id="path4-3-6"
         style="fill:url(#linearGradient12);fill-opacity:1"
         class="ColorScheme-Highlight "
         sodipodi:nodetypes="csscsccscccsscsccscssssssccscccscc" />
    </g>
    <path
       style="fill:#1a1a1a;fill-opacity:0.6;stroke-width:0.264577"
       d="m 3.3094332,13.725949 c -0.00702,-0.01698 -0.00246,-0.09081 0.01011,-0.164055 0.018785,-0.109025 0.016031,-0.135782 -0.014825,-0.147568 -0.024077,-0.0093 -0.056041,0.0078 -0.088459,0.04706 -0.027907,0.0338 -0.058265,0.06021 -0.067474,0.05868 -0.0092,-0.0015 -0.00481,-0.07083 0.00973,-0.154009 0.02568,-0.146944 0.024347,-0.154383 -0.048669,-0.262804 C 3.0596056,13.028617 2.9664445,12.942968 2.828392,12.8445 2.5259435,12.628783 2.4770389,12.559695 2.4047989,12.246073 c -0.1076976,-0.467561 -0.1063735,-1.006414 0.00243,-0.9874 0.013746,0.0024 0.071066,0.06144 0.1273912,0.131157 0.1607874,0.199061 0.1929793,0.222593 0.3397928,0.248383 0.1918063,0.0337 0.289653,-0.004 0.5821541,-0.224212 0.274452,-0.206631 0.426289,-0.277667 0.6838463,-0.319924 0.2532366,-0.04155 0.7452635,-0.01014 0.7689588,0.04909 0.012552,0.0314 -0.075196,0.03458 -0.2290929,0.0084 -0.1676729,-0.02882 -0.3272923,-0.01505 -0.5334032,0.04522 -0.1593046,0.04658 -0.2877685,0.128113 -0.2984876,0.189449 -0.00854,0.04886 0.02381,0.04509 0.2618624,-0.0305 0.2201492,-0.06991 0.222119,-0.07005 0.4193487,-0.03046 0.2207212,0.0443 0.3168525,0.03015 0.375358,-0.05527 0.018896,-0.02761 0.049093,-0.04763 0.067108,-0.04448 0.025339,0.0044 0.026517,0.02535 0.00514,0.09293 -0.022177,0.0701 -0.019886,0.093 0.00965,0.11637 0.039584,0.03099 0.049657,0.02506 0.1205645,-0.07092 0.035401,-0.04791 0.036015,-0.04614 0.010835,0.03044 -0.043017,0.130802 0.048082,0.116559 0.1485456,-0.02322 0.034641,-0.0482 0.035313,-0.04256 0.00746,0.06195 -0.025506,0.09567 -0.024606,0.116053 0.00545,0.121306 0.019846,0.0035 0.057327,-0.007 0.083243,-0.02339 0.037415,-0.02359 0.045987,-0.02327 0.041675,0.0016 -0.0041,0.02362 0.031112,0.03795 0.1444849,0.05867 0.1397413,0.02563 0.1670699,0.04041 0.4029554,0.219179 0.1391727,0.105473 0.2596772,0.19638 0.2677883,0.202017 0.024667,0.01716 -0.024445,-0.244742 -0.07467,-0.398005 -0.025979,-0.07929 -0.074157,-0.189587 -0.1070453,-0.24509 C 5.977229,11.266499 5.6230683,10.941653 5.445975,10.826135 5.3554658,10.767098 5.3424293,10.763951 5.2702729,10.783923 5.1130493,10.827442 4.9183567,10.751286 4.660167,10.545269 4.5882448,10.487878 4.4339475,10.396802 4.3172914,10.342877 3.9274741,10.162689 3.7478525,10.066495 3.6091452,9.9636395 3.533445,9.9075065 3.4216382,9.8389495 3.3606827,9.8112945 3.2646273,9.7677125 3.2371866,9.7635185 3.1548636,9.7798295 c -0.147995,0.029256 -0.2097855,0.065731 -0.4242415,0.2504345 -0.1996298,0.171939 -0.2623048,0.201949 -0.2477446,0.118634 0.02344,-0.134124 0.2331226,-0.3786235 0.463483,-0.5404456 0.3076763,-0.2161344 0.7843046,-0.1979557 1.421035,0.054208 0.4720299,0.186935 0.7700198,0.3499316 0.9334923,0.5106066 0.074137,0.07287 0.1448626,0.248555 0.149107,0.370392 0.0022,0.06368 0.019291,0.08189 0.1518391,0.161832 0.5526974,0.333364 0.7455173,0.596412 0.7674189,1.046918 0.00615,0.126758 -0.014004,0.293962 -0.085763,0.710978 -0.08277,0.48069 -0.1055624,0.575759 -0.1916798,0.803234 -0.053819,0.141891 -0.1095245,0.266198 -0.1237806,0.276236 -0.024908,0.01752 -0.012337,-0.04441 0.1023218,-0.503499 0.020357,-0.08155 0.028883,-0.149689 0.019135,-0.151392 -0.00984,-0.0017 -0.064598,0.03084 -0.1216951,0.07237 -0.1150771,0.08368 -0.5226807,0.271208 -0.754938,0.347321 -0.1518817,0.04977 -0.162936,0.06184 -0.1766522,0.192849 -0.00552,0.05237 -0.017304,0.07148 -0.041154,0.06731 -0.032394,-0.0057 -0.098104,-0.105409 -0.1075169,-0.163215 -0.00314,-0.0193 -0.055527,-0.01388 -0.1651283,0.01792 -0.1582335,0.04558 -0.1607402,0.04751 -0.1761046,0.135423 -0.016412,0.0939 -0.040177,0.107623 -0.07649,0.04416 -0.012031,-0.021 -0.034836,-0.04046 -0.050692,-0.04324 -0.037153,-0.0065 -0.1452044,0.11477 -0.1556837,0.174733 -0.01428,0.08171 -0.049875,0.06569 -0.06968,-0.03136 -0.022823,-0.11182 -0.068095,-0.128474 -0.1676559,-0.06169 l -0.069384,0.04656 -0.075303,-0.07291 c -0.044188,-0.0428 -0.099135,-0.07427 -0.1330018,-0.0762 -0.0516,-0.0029 -0.060367,0.0077 -0.082947,0.101188 -0.028697,0.118762 -0.08956,0.137897 -0.092217,0.02901 -8.731e-4,-0.03524 -0.015954,-0.09203 -0.033586,-0.12622 -0.030775,-0.05973 -0.033864,-0.06088 -0.078961,-0.02939 -0.033979,0.02374 -0.051338,0.06338 -0.062862,0.143754 -0.011414,0.07961 -0.024389,0.10949 -0.045786,0.105751 -0.016417,-0.0029 -0.035592,-0.01912 -0.042598,-0.03612 z m 1.0181266,-0.445074 c 0.1353183,-0.01956 0.2873913,-0.0484 0.3379383,-0.0641 L 4.7574041,13.188245 4.63437,13.127895 C 4.4715668,13.048065 4.3310109,12.854504 4.2946172,12.66004 c -0.049211,-0.262936 -0.017179,-0.528452 0.083953,-0.695817 0.037109,-0.06142 -0.03101,-0.05234 -0.2014345,0.02685 -0.2837045,0.131821 -0.4222935,0.245079 -0.6076399,0.496575 -0.1316213,0.178602 -0.175377,0.256436 -0.2004251,0.356526 -0.031852,0.127266 -0.031578,0.128572 0.044951,0.214446 0.1358961,0.152486 0.1728173,0.171054 0.4296833,0.216095 0.2109605,0.03698 0.26563,0.03768 0.483865,0.0061 z m 0.6129245,-0.217137 c 0.022577,-0.01588 0.047297,-0.06055 0.05493,-0.09929 0.013174,-0.06678 0.014587,-0.06764 0.029241,-0.01616 0.018121,0.06386 0.035362,0.07035 0.081819,0.03082 0.026149,-0.02224 0.030553,-0.04305 0.018769,-0.08841 -0.018696,-0.07193 0.018796,-0.07385 0.047744,-0.0024 0.024519,0.06046 0.1204963,0.08135 0.2054447,0.04474 0.075322,-0.03247 0.085256,-0.07804 0.034026,-0.156046 -0.056358,-0.08581 -0.013803,-0.09858 0.048034,-0.01442 0.0793,0.107894 0.1612503,0.0998 0.1963333,-0.0194 0.01283,-0.04354 -7.673e-4,-0.06082 -0.088292,-0.112545 -0.076307,-0.04509 -0.1070075,-0.05449 -0.1170895,-0.0358 -0.00755,0.01393 -0.055216,0.05776 -0.1059722,0.09741 -0.1724493,0.134696 -0.3662407,0.102639 -0.4997582,-0.08252 l -0.070455,-0.0978 -0.169038,0.04816 c -0.1654921,0.04715 -0.1861259,0.06405 -0.1712119,0.14021 0.010716,0.05467 0.053298,0.0544 0.1934448,-0.0014 0.068634,-0.0273 0.1297117,-0.04263 0.1357318,-0.03406 0.00602,0.0086 -0.038419,0.05335 -0.098776,0.09952 -0.1214231,0.0929 -0.1405911,0.134979 -0.082273,0.180652 0.066568,0.05214 0.085201,0.04283 0.1688965,-0.0843 0.1218449,-0.185072 0.1597504,-0.145649 0.056501,0.05879 -0.036312,0.07187 -0.043889,0.105284 -0.028809,0.126778 0.029537,0.04203 0.112948,0.05123 0.1607161,0.01768 z m 1.0072352,-0.284576 c 0.2162571,-0.160181 0.2509086,-0.458861 0.075263,-0.648845 -0.058557,-0.06334 -0.2147774,-0.152834 -0.219511,-0.125747 -9.261e-4,0.0053 0.019981,0.07753 0.046466,0.160441 0.046795,0.146488 0.046792,0.158416 -3.47e-5,0.421374 -0.053091,0.298104 -0.050739,0.302781 0.097807,0.192775 z M 5.6817196,12.565893 c 0.038988,-0.04979 0.022905,-0.06144 -0.096,-0.0695 -0.1040533,-0.007 -0.1419191,0.03901 -0.058244,0.07082 0.097778,0.03718 0.1242488,0.03696 0.15422,-0.0013 z M 5.045571,12.379971 c 0.053977,-0.03792 0.057454,-0.141355 0.00638,-0.189236 -0.09814,-0.09199 -0.2390418,0.0093 -0.185555,0.133337 0.026764,0.06208 0.1262206,0.09311 0.1791891,0.0559 z m 0.5968098,0.01529 c 0.090773,-0.0035 0.1181753,-0.01388 0.1239829,-0.04711 0.0041,-0.02346 -0.00172,-0.04425 -0.012962,-0.04621 -0.044058,-0.0077 -0.2397966,0.04954 -0.2435894,0.07124 -0.00494,0.02826 -0.00949,0.02749 0.1325768,0.02196 z m 6.6158002,0.239867 c 8.99e-4,-0.0618 -0.0087,-0.09073 -0.02892,-0.08678 -0.01665,0.0033 -0.176861,0.0035 -0.356028,5.29e-4 -0.299459,-0.005 -0.345281,-0.01109 -0.567603,-0.07583 -0.133016,-0.03874 -0.329212,-0.101769 -0.435999,-0.140036 -0.134346,-0.04816 -0.283741,-0.08226 -0.484986,-0.110682 -0.248933,-0.03517 -0.316428,-0.03636 -0.4685232,-0.0081 -0.3577656,0.06637 -0.3869568,0.0445 -0.3329395,-0.249408 0.064605,-0.351262 0.2538714,-0.701052 0.5591557,-1.033142 0.07877,-0.08568 0.17031,-0.204876 0.203431,-0.264876 0.07572,-0.137171 0.268917,-0.393347 0.353758,-0.469072 0.06853,-0.06116 0.233355,-0.154073 0.263879,-0.148739 0.04199,0.0073 0.0021,0.05963 -0.109435,0.143714 -0.06534,0.04924 -0.122377,0.109972 -0.126745,0.134967 -0.02603,0.148955 0.29489,-0.06024 0.41665,-0.271601 0.03956,-0.06867 0.0814,-0.1286415 0.093,-0.1332765 0.01158,-0.0046 0.01221,0.04221 0.0014,0.1041075 -0.01785,0.102138 -0.01487,0.113374 0.03078,0.121352 0.07497,0.0131 0.222173,-0.06201 0.279097,-0.142413 0.02751,-0.038839 0.05805,-0.1167515 0.06791,-0.1731185 0.01636,-0.09363 0.02113,-0.09967 0.05406,-0.07006 0.02939,0.02636 0.05496,0.02423 0.136904,-0.01158 0.105616,-0.0461 0.395736,-0.1031688 0.466157,-0.09169 0.02259,0.00375 0.04982,-0.01239 0.0605,-0.035754 0.02291,-0.050099 0.03584,-0.05079 0.06199,-0.00326 0.01566,0.028452 0.05382,0.036909 0.201029,0.044718 0.251248,0.013317 0.651026,0.106963 1.033902,0.242232 0.177506,0.0627 0.384537,0.1248105 0.460075,0.1380115 0.127673,0.02231 0.151075,0.01813 0.332535,-0.05951 0.231964,-0.09924 0.275564,-0.124529 0.705604,-0.4093142 0.428145,-0.2835275 0.502041,-0.3089786 0.534529,-0.1840984 0.03793,0.1457957 -0.364474,1.0278251 -0.639388,1.4014731 -0.201113,0.273346 -0.328613,0.359708 -0.592006,0.401004 -0.107335,0.01683 -0.209684,0.04296 -0.227449,0.05808 -0.01922,0.01635 -0.03882,0.08006 -0.04841,0.1573 -0.01417,0.114223 -0.02188,0.130605 -0.0643,0.136326 -0.07896,0.01066 -0.126061,0.05712 -0.140249,0.138308 -0.01234,0.07058 -0.02361,0.07949 -0.145399,0.114897 -0.07261,0.02111 -0.139746,0.05129 -0.149181,0.06705 -0.0094,0.01575 -0.0097,0.08029 -6.08e-4,0.143395 0.02156,0.149728 -0.0019,0.189388 -0.0447,0.07561 -0.03929,-0.104375 -0.07233,-0.116967 -0.151353,-0.05768 -0.04842,0.03632 -0.05577,0.05455 -0.0487,0.120806 0.0046,0.04291 -0.0026,0.09144 -0.01605,0.1078 -0.01888,0.0232 -0.02525,0.01625 -0.0287,-0.03119 -0.0035,-0.0484 -0.01783,-0.0633 -0.06945,-0.07233 -0.08386,-0.01465 -0.105797,0.01207 -0.07278,0.08867 0.01456,0.03379 0.01959,0.07881 0.01117,0.100027 -0.0122,0.03063 -0.01965,0.02367 -0.03631,-0.03387 -0.02282,-0.07874 -0.107534,-0.124186 -0.148189,-0.07948 -0.01324,0.01456 -0.03249,0.07398 -0.04286,0.132058 -0.02,0.112905 -0.06276,0.139941 -0.0567,0.03596 0.005,-0.0857 -0.07187,-0.108695 -0.158926,-0.04754 -0.05458,0.03834 -0.06959,0.06745 -0.08744,0.169641 -0.02405,0.137618 -0.05353,0.152059 -0.08775,0.04302 -0.04051,-0.129013 -0.120749,-0.09375 -0.121699,0.05349 -4.49e-4,0.07039 -0.0019,0.07166 -0.02788,0.02488 -0.0151,-0.0271 -0.02426,-0.0674 -0.02039,-0.08953 0.0081,-0.04648 -6.61e-4,-0.05039 -0.06519,-0.02914 -0.03573,0.01176 -0.05123,0.0394 -0.06441,0.114824 -0.02168,0.124026 -0.06178,0.123304 -0.05998,-0.0011 z m -2.207289,-0.691815 c 0.155808,-0.04752 0.271773,-0.04009 0.583755,0.03739 0.293305,0.07285 0.728962,0.130612 0.935094,0.123812 l 0.133691,-0.0044 -0.08082,-0.101393 c -0.152534,-0.191343 -0.229035,-0.499482 -0.185649,-0.747741 0.01016,-0.05813 0.05563,-0.176968 0.101026,-0.264078 l 0.08255,-0.158379 -0.0811,-0.0139 c -0.268802,-0.04577 -0.673038,0.06028 -0.909969,0.238911 -0.255546,0.192664 -0.7654969,0.790848 -0.7484408,0.877941 0.01007,0.05145 0.034235,0.0531 0.1698738,0.01174 z m 1.94426,0.02229 c 0.01543,-0.01313 0.03981,-0.05023 0.05415,-0.08245 0.04371,-0.09819 0.0763,-0.08663 0.05017,0.0178 -0.01866,0.07461 -0.01604,0.09854 0.01131,0.108959 0.02416,0.0093 0.04356,-0.007 0.06192,-0.05173 0.0147,-0.03581 0.03866,-0.0699 0.05326,-0.07574 0.01484,-0.006 0.01839,-0.0015 0.008,0.01022 -0.01022,0.01147 -0.0045,0.04643 0.01317,0.07782 0.02928,0.05263 0.03705,0.05549 0.101977,0.03724 0.0939,-0.02639 0.108958,-0.07854 0.0535,-0.185395 -0.06219,-0.119877 -0.02406,-0.137238 0.04638,-0.02111 0.06405,0.105615 0.11127,0.139303 0.15358,0.109581 0.04486,-0.0315 0.04309,-0.06766 -0.0074,-0.154601 -0.05981,-0.102907 -0.04173,-0.113365 0.04473,-0.02586 0.07855,0.07951 0.143467,0.08034 0.157154,0.002 0.0069,-0.03945 -0.01549,-0.07136 -0.09367,-0.133477 -0.125367,-0.09962 -0.09642,-0.112491 0.05075,-0.02255 0.102099,0.06238 0.149458,0.07112 0.156826,0.02896 0.0045,-0.02559 -0.348077,-0.249325 -0.382289,-0.242623 -0.0479,0.0094 -0.03765,0.153075 0.01577,0.220358 0.03976,0.05011 0.04143,0.05821 0.0081,0.03984 -0.07258,-0.04003 -0.08484,-0.03976 -0.08866,0.0023 -0.0023,0.0225 -0.0079,0.03471 -0.01361,0.02692 -0.0055,-0.0077 -0.04326,0.0053 -0.08405,0.02902 -0.180615,0.104977 -0.383803,0.05772 -0.498319,-0.115909 l -0.06039,-0.09153 -0.06584,0.0333 c -0.09005,0.04555 -0.115782,0.09626 -0.0301,0.05933 0.102982,-0.0444 0.07324,0.02802 -0.03603,0.08769 -0.07963,0.04351 -0.08621,0.05297 -0.06141,0.08828 0.02482,0.03532 0.03891,0.03192 0.131616,-0.03156 0.132065,-0.09044 0.162457,-0.05798 0.03301,0.03528 -0.05316,0.03829 -0.09784,0.07645 -0.0993,0.08479 -0.0015,0.0083 0.02375,0.03526 0.05602,0.0598 0.0667,0.05072 0.09329,0.03871 0.136703,-0.06182 0.0345,-0.07988 0.0635,-0.04904 0.03503,0.03726 -0.02932,0.08884 0.02638,0.152006 0.08789,0.09966 z m 1.167168,-0.25712 c 0.11978,-0.09632 0.253505,-0.23742 0.259947,-0.274285 0.0066,-0.03783 -0.107402,-0.123925 -0.212297,-0.160312 l -0.07307,-0.02535 -0.01637,0.166087 c -0.01482,0.150697 -0.04431,0.243716 -0.112779,0.352489 -0.02104,0.03357 -0.01781,0.03647 0.02484,0.02241 0.02696,-0.0089 0.08532,-0.04536 0.129706,-0.08105 z M 12.090264,11.2876 c 0.06571,-0.03076 0.08359,-0.10157 0.04222,-0.167178 -0.03695,-0.05859 -0.104714,-0.07205 -0.166582,-0.03274 -0.05859,0.03694 -0.07205,0.104716 -0.03327,0.166491 0.03635,0.05767 0.08433,0.06795 0.15738,0.03375 z m 0.857573,0.04649 c 0.03443,-0.03872 4.76e-4,-0.04945 -0.211484,-0.06684 L 12.526034,11.25 l 0.153444,0.04019 c 0.08439,0.02211 0.175067,0.04579 0.201498,0.05263 0.02643,0.0068 0.05652,0.0029 0.06686,-0.0087 z M 11.85334,10.107022 c 0.03604,-0.02206 0.09309,-0.07657 0.12676,-0.1211235 l 0.0612,-0.081 -0.02665,0.09277 c -0.02502,0.087079 -0.02322,0.093369 0.02903,0.1025005 0.101582,0.01775 0.276405,-0.1672725 0.257562,-0.2725945 -0.0045,-0.02506 -0.359508,-0.0039 -0.523577,0.03126 -0.09902,0.02119 -0.101612,0.02394 -0.119582,0.126772 -0.0101,0.05781 -0.01286,0.1129395 -0.0061,0.1225195 0.02641,0.03758 0.139146,0.03697 0.201362,-0.0011 z m 0.601262,-0.07259 c 0.02772,-0.02669 0.07272,-0.08387 0.09999,-0.1270925 l 0.04959,-0.07859 -0.107676,-0.01179 -0.107676,-0.0118 -0.03129,0.139707 c -0.02721,0.1214745 -0.02612,0.1396125 0.0077,0.1388865 0.02144,-4.76e-4 0.06166,-0.02264 0.08938,-0.04932 z m 0.39973,-0.08224 c 0.03098,-0.02781 0.05795,-0.05972 0.05991,-0.07091 0.002,-0.01119 -0.05452,-0.02744 -0.12552,-0.03602 -0.122187,-0.01485 -0.130021,-0.01247 -0.146803,0.04426 -0.02096,0.07084 0.0044,0.08141 0.07086,0.02956 0.06565,-0.05119 0.0953,-0.04092 0.06678,0.02314 -0.0308,0.069149 0.0037,0.073749 0.07478,0.0099 z M 8.9177094,9.4129171 C 8.801664,9.2988142 8.7769265,9.2226187 8.8045688,9.0644471 8.8257275,8.9433767 8.8411811,8.911415 8.9136012,8.8387475 9.0703078,8.6815379 9.4193837,8.5101368 9.8279763,8.3897837 10.034011,8.3290915 10.235797,8.2607887 10.276396,8.2379936 c 0.0406,-0.022791 0.149505,-0.064319 0.242019,-0.092279 0.09252,-0.027965 0.291697,-0.099519 0.442624,-0.159013 1.014928,-0.4000762 1.890661,-0.4776578 2.459928,-0.2179296 0.64489,0.2942304 0.73948,0.3449878 1.003321,0.5384059 0.21972,0.1610725 0.293442,0.2298496 0.385223,0.3593822 0.07467,0.1053838 0.117181,0.1918023 0.124253,0.2525956 0.0059,0.050836 0.0059,0.095825 -5.3e-5,0.1000017 -0.006,0.00418 -0.06121,-0.046584 -0.122817,-0.1128075 C 14.63285,8.7149818 14.295877,8.5292747 13.748572,8.3209095 13.488347,8.2218389 12.859789,8.1102668 12.659097,8.1274546 12.505229,8.1406891 11.778335,8.3225507 11.605892,8.3909656 11.144894,8.573866 10.831897,8.7378666 10.587129,8.9247633 10.262552,9.1726043 9.9144194,9.3843882 9.7386485,9.4409304 9.578859,9.4923345 9.3469017,9.512124 9.1350966,9.4924271 9.00232,9.4801107 8.9764527,9.4706175 8.9177187,9.4128568 Z"
       id="path1" />
  </g>
</svg>
