<?xml version="1.0" encoding="UTF-8" standalone="no"?>
<svg
   width="68"
   height="68"
   viewBox="0 0 17.991665 17.991665"
   version="1.1"
   id="svg1114"
   inkscape:version="1.3.2 (091e20ef0f, 2023-11-25)"
   sodipodi:docname="folder-sound.svg"
   xmlns:inkscape="http://www.inkscape.org/namespaces/inkscape"
   xmlns:sodipodi="http://sodipodi.sourceforge.net/DTD/sodipodi-0.dtd"
   xmlns:xlink="http://www.w3.org/1999/xlink"
   xmlns="http://www.w3.org/2000/svg"
   xmlns:svg="http://www.w3.org/2000/svg"
   xmlns:rdf="http://www.w3.org/1999/02/22-rdf-syntax-ns#"
   xmlns:cc="http://creativecommons.org/ns#"
   xmlns:dc="http://purl.org/dc/elements/1.1/">
  <style
     type="text/css"
     id="current-color-scheme">.ColorScheme-Highlight { color:#5599ff; }
</style>
  <defs
     id="defs1108">
    <linearGradient
       inkscape:collect="always"
       id="linearGradient11">
      <stop
         style="stop-color:#5f5fd3;stop-opacity:1;"
         offset="0"
         id="stop10" />
      <stop
         style="stop-color:#5599ff;stop-opacity:1;"
         offset="1"
         id="stop11" />
    </linearGradient>
    <linearGradient
       id="linearGradient9"
       inkscape:collect="always">
      <stop
         style="stop-color:#ffffff;stop-opacity:0;"
         offset="0"
         id="stop1" />
      <stop
         id="stop8"
         offset="0.67097157"
         style="stop-color:#ffffff;stop-opacity:0" />
      <stop
         style="stop-color:#ffffff;stop-opacity:1;"
         offset="1"
         id="stop9" />
    </linearGradient>
    <linearGradient
       id="linearGradient7"
       inkscape:collect="always">
      <stop
         style="stop-color:#000000;stop-opacity:0;"
         offset="0"
         id="stop5" />
      <stop
         id="stop6"
         offset="0.6586886"
         style="stop-color:#000000;stop-opacity:0" />
      <stop
         style="stop-color:#000000;stop-opacity:1;"
         offset="1"
         id="stop7" />
    </linearGradient>
    <linearGradient
       id="linearGradient4"
       inkscape:collect="always">
      <stop
         style="stop-color:#000000;stop-opacity:0;"
         offset="0"
         id="stop2" />
      <stop
         id="stop3"
         offset="0.67055255"
         style="stop-color:#000000;stop-opacity:0" />
      <stop
         style="stop-color:#000000;stop-opacity:1;"
         offset="1"
         id="stop4" />
    </linearGradient>
    <linearGradient
       id="linearGradient1167"
       x1="40.751999"
       x2="40.751999"
       y1="28.507999"
       y2="17.205999"
       gradientUnits="userSpaceOnUse">
      <stop
         style="stop-color:#84fb6e;stop-opacity:1"
         stop-color="#0ab816"
         offset="0"
         id="stop1163" />
      <stop
         style="stop-color:#0dd41a;stop-opacity:1"
         stop-color="#0cf36c"
         offset="1"
         id="stop1165" />
    </linearGradient>
    <linearGradient
       id="cornerBevel"
       inkscape:collect="always">
      <stop
         style="stop-color:#000000;stop-opacity:0;"
         offset="0"
         id="stop2663" />
      <stop
         id="stop2671"
         offset="0.66666675"
         style="stop-color:#000000;stop-opacity:0" />
      <stop
         style="stop-color:#000000;stop-opacity:1;"
         offset="1"
         id="stop2661" />
    </linearGradient>
    <linearGradient
       id="bevel"
       inkscape:collect="always">
      <stop
         id="stop2685"
         offset="0"
         style="stop-color:#000000;stop-opacity:1;" />
      <stop
         id="stop2687"
         offset="1"
         style="stop-color:#000000;stop-opacity:0;" />
    </linearGradient>
    <linearGradient
       id="highlightCorner"
       inkscape:collect="always">
      <stop
         style="stop-color:#ffffff;stop-opacity:0;"
         offset="0"
         id="stop2613" />
      <stop
         id="stop2621"
         offset="0.66666669"
         style="stop-color:#ffffff;stop-opacity:0" />
      <stop
         style="stop-color:#ffffff;stop-opacity:1;"
         offset="1"
         id="stop2611" />
    </linearGradient>
    <linearGradient
       inkscape:collect="always"
       id="highlight">
      <stop
         style="stop-color:#ffffff;stop-opacity:1;"
         offset="0"
         id="stop2921" />
      <stop
         style="stop-color:#ffffff;stop-opacity:0;"
         offset="1"
         id="stop2923" />
    </linearGradient>
    <radialGradient
       inkscape:collect="always"
       xlink:href="#highlightCorner"
       id="radialGradient15"
       gradientUnits="userSpaceOnUse"
       gradientTransform="matrix(0.04294597,-12.079348,17.933991,0.06376112,14.524179,-50.373789)"
       cx="-4.5799766"
       cy="-0.50206107"
       fx="-4.5799766"
       fy="-0.50206107"
       r="0.39687499" />
    <linearGradient
       inkscape:collect="always"
       xlink:href="#highlight"
       id="linearGradient15"
       gradientUnits="userSpaceOnUse"
       x1="-3.8497722"
       y1="-1.1532172"
       x2="-3.8486557"
       y2="-0.89102554"
       gradientTransform="matrix(6.0923077,0,0,6.0923077,32.228528,7.1537621)" />
    <radialGradient
       inkscape:collect="always"
       xlink:href="#linearGradient9"
       id="radialGradient17"
       gradientUnits="userSpaceOnUse"
       gradientTransform="matrix(1.1757679e-4,-11.994067,-18.104833,-1.7749478e-4,1.6916469,-50.007179)"
       cx="-4.5775003"
       cy="-0.55256677"
       fx="-4.5775003"
       fy="-0.55256677"
       r="0.39687499" />
    <radialGradient
       inkscape:collect="always"
       xlink:href="#linearGradient7"
       id="radialGradient18"
       gradientUnits="userSpaceOnUse"
       gradientTransform="matrix(0.0232366,12.009662,17.933953,-0.03470102,14.426451,64.381084)"
       cx="-4.4256716"
       cy="-0.50045931"
       fx="-4.4256716"
       fy="-0.50045931"
       r="0.39687499" />
    <linearGradient
       inkscape:collect="always"
       xlink:href="#bevel"
       id="linearGradient18"
       gradientUnits="userSpaceOnUse"
       x1="-3.8447375"
       y1="-1.4538249"
       x2="-3.8438127"
       y2="-1.1952862"
       gradientTransform="matrix(6.0923076,0,0,6.0923076,32.228527,-7.1537627)" />
    <radialGradient
       inkscape:collect="always"
       xlink:href="#linearGradient4"
       id="radialGradient20"
       gradientUnits="userSpaceOnUse"
       gradientTransform="matrix(-0.01031383,11.991438,-17.967296,-0.01545561,1.7353715,64.305742)"
       cx="-4.4236727"
       cy="-0.55004197"
       fx="-4.4236727"
       fy="-0.55004197"
       r="0.39687499" />
    <radialGradient
       inkscape:collect="always"
       xlink:href="#cornerBevel"
       id="radialGradient25"
       gradientUnits="userSpaceOnUse"
       gradientTransform="matrix(12.184614,0,0,12.184614,59.63122,10.377613)"
       cx="-4.4568658"
       cy="-0.44864327"
       fx="-4.4568658"
       fy="-0.44864327"
       r="0.39687496" />
    <linearGradient
       inkscape:collect="always"
       xlink:href="#bevel"
       id="linearGradient25"
       gradientUnits="userSpaceOnUse"
       x1="-3.8487544"
       y1="-1.146081"
       x2="-3.8455966"
       y2="-0.890971"
       gradientTransform="matrix(6.0923077,0,0,6.0923077,32.228528,7.1537627)" />
    <radialGradient
       inkscape:collect="always"
       xlink:href="#cornerBevel"
       id="radialGradient29"
       gradientUnits="userSpaceOnUse"
       gradientTransform="matrix(0,-12.184614,12.184614,0,11.27353,-44.427768)"
       cx="-4.5705457"
       cy="-0.48653662"
       fx="-4.5705457"
       fy="-0.48653662"
       r="0.39687496" />
    <radialGradient
       inkscape:collect="always"
       xlink:href="#cornerBevel"
       id="radialGradient30"
       gradientUnits="userSpaceOnUse"
       gradientTransform="matrix(-12.184514,-0.04945749,0.04847411,-11.942243,-43.502155,3.8519053)"
       cx="-4.5342312"
       cy="-0.60337442"
       fx="-4.5342312"
       fy="-0.60337442"
       r="0.39687496" />
    <radialGradient
       inkscape:collect="always"
       xlink:href="#cornerBevel"
       id="radialGradient31"
       gradientUnits="userSpaceOnUse"
       gradientTransform="matrix(-0.06855274,-12.083057,11.978763,-0.06796103,18.172721,-48.506326)"
       cx="-4.4175329"
       cy="-0.56489283"
       fx="-4.4175329"
       fy="-0.56489283"
       r="0.39687496" />
    <linearGradient
       inkscape:collect="always"
       xlink:href="#bevel"
       id="linearGradient34"
       gradientUnits="userSpaceOnUse"
       x1="-3.99717"
       y1="-1.2218677"
       x2="-4.0003276"
       y2="-0.96675771"
       gradientTransform="matrix(6.0923077,0,0,6.0923077,17.025077,8.0496826)" />
    <linearGradient
       inkscape:collect="always"
       xlink:href="#bevel"
       id="linearGradient35"
       gradientUnits="userSpaceOnUse"
       x1="-4.0919032"
       y1="-1.4492278"
       x2="-4.0950613"
       y2="-1.1972755"
       gradientTransform="matrix(6.0923077,0,0,6.0923077,16.129161,-7.1537627)" />
    <linearGradient
       inkscape:collect="always"
       xlink:href="#bevel"
       id="linearGradient36"
       gradientUnits="userSpaceOnUse"
       x1="-3.8734362"
       y1="-1.3717227"
       x2="-3.8765941"
       y2="-1.116071"
       gradientTransform="matrix(6.0923077,0,0,6.0923077,31.33261,-8.0496826)" />
    <linearGradient
       id="paint2_linear_77:3-7"
       x1="79.398094"
       y1="-197.84389"
       x2="82.901054"
       y2="-199.97827"
       gradientUnits="userSpaceOnUse"
       gradientTransform="matrix(1.9248511,0,0,1.7314595,-40.88733,399.61741)">
      <stop
         stop-color="#EBFAFF"
         stop-opacity="0.1"
         id="stop29-5-7"
         offset="0"
         style="stop-color:#c3c3c3;stop-opacity:1;" />
      <stop
         offset="1"
         stop-color="#70A9FF"
         stop-opacity="0.5"
         id="stop30-0-1"
         style="stop-color:#05c7ff;stop-opacity:0.80000001;" />
    </linearGradient>
    <linearGradient
       inkscape:collect="always"
       xlink:href="#linearGradient11"
       id="linearGradient926"
       x1="2.2676716"
       y1="-15.434939"
       x2="15.53153"
       y2="-2.4778411"
       gradientUnits="userSpaceOnUse"
       gradientTransform="translate(-0.92604234,0.47624996)" />
    <linearGradient
       inkscape:collect="always"
       xlink:href="#linearGradient11"
       id="linearGradient892"
       gradientUnits="userSpaceOnUse"
       x1="15.76272"
       y1="2.7368727"
       x2="2.6505842"
       y2="15.759102"
       gradientTransform="translate(-0.47625037,-0.92604234)" />
  </defs>
  <sodipodi:namedview
     id="base"
     pagecolor="#e2e2e2"
     bordercolor="#000000"
     borderopacity="1"
     inkscape:pageopacity="0"
     inkscape:pageshadow="2"
     inkscape:zoom="9.724873"
     inkscape:cx="33.008143"
     inkscape:cy="31.157219"
     inkscape:document-units="px"
     inkscape:current-layer="layer1"
     inkscape:document-rotation="0"
     showgrid="true"
     units="px"
     inkscape:window-width="1920"
     inkscape:window-height="990"
     inkscape:window-x="0"
     inkscape:window-y="0"
     inkscape:window-maximized="1"
     inkscape:object-paths="true"
     inkscape:snap-grids="true"
     inkscape:snap-intersection-paths="true"
     inkscape:snap-smooth-nodes="true"
     inkscape:snap-midpoints="true"
     inkscape:showpageshadow="2"
     inkscape:pagecheckerboard="0"
     inkscape:deskcolor="#d1d1d1">
    <inkscape:grid
       id="grid2"
       units="px"
       originx="0"
       originy="0"
       spacingx="0.26458333"
       spacingy="0.26458333"
       empcolor="#0099e5"
       empopacity="0.30196078"
       color="#0099e5"
       opacity="0.14902"
       empspacing="5"
       dotted="false"
       gridanglex="30"
       gridanglez="30"
       visible="true" />
  </sodipodi:namedview>
  <metadata
     id="metadata1111">
    <rdf:RDF>
      <cc:Work
         rdf:about="">
        <dc:format>image/svg+xml</dc:format>
        <dc:type
           rdf:resource="http://purl.org/dc/dcmitype/StillImage" />
      </cc:Work>
    </rdf:RDF>
  </metadata>
  <g
     inkscape:label="Layer 1"
     inkscape:groupmode="layer"
     id="layer1">
    <g
       id="g918"
       transform="translate(0.47625037,0.92604234)">
      <rect
         ry="4.8357682"
         rx="4.8357682"
         style="fill:url(#linearGradient926);fill-opacity:1;stroke-width:6.09228"
         x="0.13229237"
         y="-16.457085"
         width="15.875001"
         height="15.875001"
         id="use1056"
         transform="rotate(90)"
         class="ColorScheme-Highlight" />
      <path
         d="m 5.344583,0.13229167 c -2.6384245,0 -4.76249953,2.12407483 -4.76249953,4.76249963 H 5.344583 Z"
         style="opacity:0.15;fill:url(#radialGradient25);fill-opacity:1;stroke-width:6.09228"
         id="path20" />
      <rect
         y="0.13229151"
         x="5.3445826"
         height="1.5875"
         width="6.3500004"
         id="rect20"
         style="opacity:0.15;fill:url(#linearGradient25);fill-opacity:1;stroke-width:4.83577;stroke-linecap:round;stroke-linejoin:round;paint-order:stroke fill markers" />
      <path
         d="m 0.58208347,11.244792 c 0,2.638424 2.12407503,4.762499 4.76249953,4.762499 v -4.762499 z"
         style="opacity:0.15;fill:url(#radialGradient29);fill-opacity:1;stroke-width:6.09228"
         id="use20" />
      <rect
         y="0.5820834"
         x="-11.244792"
         height="1.5875"
         width="6.3500004"
         id="use21"
         style="opacity:0.15;fill:url(#linearGradient34);fill-opacity:1;stroke-width:4.83577;stroke-linecap:round;stroke-linejoin:round;paint-order:stroke fill markers"
         transform="rotate(-90)" />
      <path
         d="m 11.694583,16.007291 c 2.638425,0 4.7625,-2.124074 4.7625,-4.762499 h -4.7625 z"
         style="opacity:0.15;fill:url(#radialGradient30);fill-opacity:1;stroke-width:6.09228"
         id="use22" />
      <rect
         y="-16.007292"
         x="-11.694584"
         height="1.5875"
         width="6.3500004"
         id="use23"
         style="opacity:0.15;fill:url(#linearGradient35);fill-opacity:1;stroke-width:4.83577;stroke-linecap:round;stroke-linejoin:round;paint-order:stroke fill markers"
         transform="scale(-1)" />
      <path
         d="m 16.457083,4.8947913 c 0,-2.6384245 -2.124074,-4.76249963 -4.7625,-4.76249963 V 4.8947913 Z"
         style="opacity:0.15;fill:url(#radialGradient31);fill-opacity:1;stroke-width:6.09228"
         id="use24" />
      <rect
         y="-16.457081"
         x="4.8947906"
         height="1.5875"
         width="6.3500004"
         id="use25"
         style="opacity:0.15;fill:url(#linearGradient36);fill-opacity:1;stroke-width:4.83577;stroke-linecap:round;stroke-linejoin:round;paint-order:stroke fill markers"
         transform="rotate(90)" />
      <path
         d="m 5.3445832,0.13229107 c -2.638425,0 -4.76250035,2.12407473 -4.76250035,4.76249973 H 5.3445832 Z"
         style="opacity:0.5;fill:url(#radialGradient15);fill-opacity:1;stroke-width:6.09228"
         id="path14" />
      <rect
         y="0.1322909"
         x="5.3445826"
         height="1.5875"
         width="6.3499999"
         id="rect14"
         style="opacity:0.5;fill:url(#linearGradient15);fill-opacity:1;stroke-width:4.83577;stroke-linecap:round;stroke-linejoin:round;paint-order:stroke fill markers" />
      <path
         d="m 11.694583,0.1322909 c 2.638425,0 4.7625,2.1240749 4.7625,4.7624976 h -4.7625 z"
         style="opacity:0.5;fill:url(#radialGradient17);fill-opacity:1;stroke-width:6.09228"
         id="use14" />
      <path
         id="path17"
         style="opacity:0.5;fill:url(#radialGradient18);fill-opacity:1;stroke-width:6.09228"
         d="m 5.3445834,16.00729 c -2.638425,0 -4.7625,-2.124075 -4.7625,-4.7625 h 4.7625 z" />
      <rect
         style="opacity:0.5;fill:url(#linearGradient18);fill-opacity:1;stroke-width:4.83577;stroke-linecap:round;stroke-linejoin:round;paint-order:stroke fill markers"
         id="rect17"
         width="6.3499994"
         height="1.5874999"
         x="5.3445826"
         y="-16.007292"
         transform="scale(1,-1)" />
      <path
         id="use17"
         style="opacity:0.5;fill:url(#radialGradient20);fill-opacity:1;stroke-width:6.09228"
         d="m 11.694582,16.007291 c 2.638425,0 4.7625,-2.124075 4.7625,-4.7625 h -4.7625 z" />
      <path
         d="m 4.8411477,2.2886454 c -1.1721999,0 -2.1159392,1.1779639 -2.1159392,2.2465608 V 11.26036 c 0,1.068671 0.943821,1.929059 2.1159392,1.929059 h 7.3766603 c 1.1722,0 2.115939,-0.860463 2.115939,-1.929059 V 4.5352062 c 0,-1.0686713 -0.943821,-2.2465608 -2.115939,-2.2465608 z"
         fill="#fafafa"
         stroke-linecap="round"
         stroke-width="0.0793746"
         style="fill:#ffffff;fill-opacity:0.602564;paint-order:stroke fill markers"
         id="path2-6"
         sodipodi:nodetypes="sssssssss" />
      <path
         d="m 2.8835048,3.9688329 c -0.2636521,0 -0.4757965,0.2024423 -0.4757965,0.4540176 v 1.4746632 c 0,0.0183 0.00347,0.03564 0.00565,0.05337 -0.00465,0.436096 -0.00439,0.933217 -0.00439,1.5855106 v 0.180942 h -4.391e-4 v 3.2806677 c 0,0.02941 0.00347,0.05796 0.00439,0.08714 0.00168,0.0413 0.00264,0.08276 0.00657,0.123409 0.1068632,1.368001 1.2422934,2.451689 2.6756704,2.554475 0.072019,0.0066 0.1449519,0.01032 0.2193309,0.01043 0.00102,3e-6 0.002,0 0.00307,0 h 6.4860055 4.37e-4 c 0.07554,0 0.149713,-0.0038 0.222824,-0.01043 1.429741,-0.102907 2.562793,-1.181876 2.673893,-2.54528 0.0073,-0.07226 0.01179,-0.145376 0.01179,-0.219716 V 7.6547513 c 1.3e-5,-0.0015 4.37e-4,-0.0028 4.37e-4,-0.0042 V 6.1758977 c 0,-0.251582 -0.106241,-0.454014 -0.369885,-0.454014 H 9.1584167 c -0.2295699,-1e-6 -0.4092976,-0.01479 -0.5583769,-0.05253 C 8.4509617,5.6316137 8.3328028,5.5707037 8.2273514,5.47924 8.121901,5.38777 8.0289554,5.2655993 7.9302511,5.1044346 7.8315481,4.9432596 7.7270274,4.7434229 7.598199,4.4965672 7.536064,4.3506905 7.449289,4.2446292 7.3543985,4.1680402 7.2595085,4.0914502 7.1566781,4.0442129 7.0612298,4.0150299 6.8703322,3.9566699 6.7103888,3.9712499 6.7103888,3.9712499 H 4.5515737 c -0.00887,-4.64e-4 -0.017213,-0.0025 -0.026218,-0.0025 H 3.7515794 Z"
         id="path4-3-6"
         style="fill:url(#linearGradient892);fill-opacity:1"
         class="ColorScheme-Highlight "
         sodipodi:nodetypes="csscsccscccsscsccscssssssccscccscc" />
    </g>
    <g
       id="Layer_2-3"
       data-name="Layer 2"
       transform="matrix(0.00729558,0,0,0.00729558,5.397589,9.128124)"
       style="fill:#1a1a1a;fill-opacity:0.6;stroke-width:36.2658">
      <g
         id="Layer_26-6"
         data-name="Layer 26"
         style="fill:#1a1a1a;fill-opacity:0.6;stroke-width:36.2658">
        <g
           id="Musical_Staff-7"
           data-name="Musical Staff"
           style="fill:#1a1a1a;fill-opacity:0.6;stroke-width:36.2658">
          <path
             class="cls-1"
             d="m 839.32,527.82 c 0,0.36 0,0.7 0,1 0,2.92 -0.14,5.83 -0.35,8.71 a 131.8,131.8 0 0 1 -262.89,0 c -0.23,-3.21 -0.35,-6.47 -0.35,-9.75 A 131.87,131.87 0 0 1 758.94,406.44 l 1.92,0.84 a 131.76,131.76 0 0 1 78.46,120.54 z"
             id="path8-5"
             style="fill:#1a1a1a;fill-opacity:0.6;stroke-width:36.2658" />
          <path
             class="cls-1"
             d="M 839.32,40.19 V 527.82 A 131.76,131.76 0 0 0 760.86,407.28 l -1.92,-0.84 V 213.76 L 414.11,267 v 326.46 c 0,-1 0,-2 0,-3 l -0.06,-1.86 c 0,-1 -0.08,-2 -0.14,-2.92 0,-0.66 -0.08,-1.33 -0.13,-2 0,-0.23 0,-0.47 -0.05,-0.7 -0.06,-0.71 -0.12,-1.42 -0.19,-2.12 -0.07,-0.7 -0.14,-1.45 -0.22,-2.16 -0.05,-0.47 -0.11,-1 -0.17,-1.42 q -0.36,-2.92 -0.84,-5.8 c -0.1,-0.59 -0.21,-1.18 -0.31,-1.77 -0.1,-0.59 -0.22,-1.19 -0.34,-1.78 -0.22,-1.19 -0.47,-2.36 -0.75,-3.53 -0.12,-0.54 -0.25,-1.09 -0.37,-1.62 -0.44,-1.84 -0.91,-3.67 -1.42,-5.47 -0.16,-0.53 -0.31,-1 -0.47,-1.57 -0.16,-0.57 -0.34,-1.14 -0.52,-1.7 -0.45,-1.46 -0.93,-2.89 -1.44,-4.33 -0.22,-0.64 -0.45,-1.29 -0.69,-1.92 -0.24,-0.63 -0.52,-1.41 -0.8,-2.11 -0.18,-0.47 -0.36,-0.94 -0.57,-1.41 -0.21,-0.47 -0.5,-1.24 -0.76,-1.87 -0.45,-1.08 -0.92,-2.16 -1.41,-3.22 -0.24,-0.53 -0.48,-1.07 -0.73,-1.6 -0.37,-0.78 -0.74,-1.57 -1.12,-2.34 l -0.31,-0.61 c -0.42,-0.84 -0.84,-1.66 -1.27,-2.48 -0.58,-1.09 -1.16,-2.15 -1.76,-3.22 -0.28,-0.53 -0.58,-1 -0.89,-1.57 -0.31,-0.57 -0.56,-1 -0.85,-1.43 -0.42,-0.71 -0.84,-1.41 -1.28,-2.11 -0.44,-0.7 -0.88,-1.4 -1.33,-2.09 -0.45,-0.69 -0.94,-1.42 -1.41,-2.11 -0.26,-0.4 -0.52,-0.79 -0.79,-1.17 -0.27,-0.38 -0.43,-0.62 -0.66,-0.93 -0.36,-0.52 -0.73,-1 -1.1,-1.54 -0.37,-0.54 -0.81,-1.11 -1.23,-1.66 -0.42,-0.55 -1,-1.35 -1.53,-2 -0.53,-0.65 -1.19,-1.51 -1.8,-2.25 l -0.93,-1.12 c -1.65,-2 -3.36,-3.9 -5.13,-5.78 -0.5,-0.55 -1,-1.08 -1.54,-1.61 l -0.18,-0.18 c -0.35,-0.37 -0.71,-0.75 -1.09,-1.11 L 374.16,499 c -0.86,-0.84 -1.71,-1.65 -2.58,-2.45 -0.87,-0.8 -1.47,-1.34 -2.21,-2 -0.74,-0.66 -1.51,-1.32 -2.29,-2 -0.78,-0.68 -1.4,-1.18 -2.12,-1.74 -1.48,-1.21 -3,-2.38 -4.54,-3.52 -0.48,-0.35 -1,-0.71 -1.46,-1.05 -0.14,-0.11 -0.3,-0.23 -0.45,-0.33 q -0.87,-0.63 -1.77,-1.23 c -0.66,-0.45 -1.31,-0.9 -2,-1.33 -0.93,-0.61 -1.85,-1.2 -2.79,-1.78 -0.64,-0.41 -1.29,-0.81 -1.94,-1.19 l -0.22,-0.13 c -0.8,-0.48 -1.61,-1 -2.41,-1.41 l -0.13,-0.08 -2.36,-1.31 c -0.84,-0.45 -1.67,-0.89 -2.51,-1.32 l -1.56,-0.79 -0.86,-0.42 -1.42,-0.68 -2.08,-1 c -0.92,-0.42 -1.84,-0.82 -2.76,-1.21 V 105.83 A 40.19,40.19 0 0 1 373.89,65.64 L 787,1.88 799.13,0 a 40.19,40.19 0 0 1 40.19,40.19 z"
             id="path10-3"
             style="fill:#1a1a1a;fill-opacity:0.6;stroke-width:36.2658" />
          <path
             class="cls-1"
             d="M 799.13,0 787,1.88 A 40.15,40.15 0 0 1 799.13,0 Z"
             id="path12-5"
             style="fill:#1a1a1a;fill-opacity:0.6;stroke-width:36.2658" />
          <path
             class="cls-1"
             d="m 839.32,40.19 v 487.63 c 0,0.36 0,0.7 0,1 0,2.92 -0.14,5.83 -0.35,8.71 a 131.8,131.8 0 0 1 -262.89,0 c -0.23,-3.21 -0.35,-6.47 -0.35,-9.75 A 131.87,131.87 0 0 1 758.94,406.44 V 213.76 L 414.11,267 v 326.46 c 0,-1 0,-2 0,-3 l -0.06,-1.86 c 0,-1 -0.08,-2 -0.14,-2.92 0,-0.66 -0.08,-1.33 -0.13,-2 0,-0.23 0,-0.47 -0.05,-0.7 -0.06,-0.71 -0.12,-1.42 -0.19,-2.12 -0.07,-0.7 -0.14,-1.45 -0.22,-2.16 -0.05,-0.47 -0.11,-1 -0.17,-1.42 q -0.36,-2.92 -0.84,-5.8 c -0.1,-0.59 -0.21,-1.18 -0.31,-1.77 -0.1,-0.59 -0.22,-1.19 -0.34,-1.78 -0.22,-1.19 -0.47,-2.36 -0.75,-3.53 -0.12,-0.54 -0.25,-1.09 -0.37,-1.62 -0.44,-1.84 -0.91,-3.67 -1.42,-5.47 -0.16,-0.53 -0.31,-1 -0.47,-1.57 -0.16,-0.57 -0.34,-1.14 -0.52,-1.7 -0.45,-1.46 -0.93,-2.89 -1.44,-4.33 -0.22,-0.64 -0.45,-1.29 -0.69,-1.92 -0.24,-0.63 -0.52,-1.41 -0.8,-2.11 -0.18,-0.47 -0.36,-0.94 -0.57,-1.41 -0.21,-0.47 -0.5,-1.24 -0.76,-1.87 -0.45,-1.08 -0.92,-2.16 -1.41,-3.22 -0.24,-0.53 -0.48,-1.07 -0.73,-1.6 -0.37,-0.78 -0.74,-1.57 -1.12,-2.34 l -0.31,-0.61 c -0.42,-0.84 -0.84,-1.66 -1.27,-2.48 -0.58,-1.09 -1.16,-2.15 -1.76,-3.22 -0.28,-0.53 -0.58,-1 -0.89,-1.57 -0.31,-0.57 -0.56,-1 -0.85,-1.43 -0.42,-0.71 -0.84,-1.41 -1.28,-2.11 -0.44,-0.7 -0.88,-1.4 -1.33,-2.09 -0.45,-0.69 -0.94,-1.42 -1.41,-2.11 -0.26,-0.4 -0.52,-0.79 -0.79,-1.17 -0.27,-0.38 -0.43,-0.62 -0.66,-0.93 -0.36,-0.52 -0.73,-1 -1.1,-1.54 -0.37,-0.54 -0.81,-1.11 -1.23,-1.66 -0.42,-0.55 -1,-1.35 -1.53,-2 -0.53,-0.65 -1.19,-1.51 -1.8,-2.25 l -0.93,-1.12 c -1.65,-2 -3.36,-3.9 -5.13,-5.78 -0.5,-0.55 -1,-1.08 -1.54,-1.61 l -0.18,-0.18 c -0.35,-0.37 -0.71,-0.75 -1.09,-1.11 L 374.16,499 c -0.86,-0.84 -1.71,-1.65 -2.58,-2.45 -0.87,-0.8 -1.47,-1.34 -2.21,-2 -0.74,-0.66 -1.51,-1.32 -2.29,-2 -0.78,-0.68 -1.4,-1.18 -2.12,-1.74 -1.48,-1.21 -3,-2.38 -4.54,-3.52 -0.48,-0.35 -1,-0.71 -1.46,-1.05 -0.14,-0.11 -0.3,-0.23 -0.45,-0.33 q -0.87,-0.63 -1.77,-1.23 c -0.66,-0.45 -1.31,-0.9 -2,-1.33 -0.93,-0.61 -1.85,-1.2 -2.79,-1.78 -0.64,-0.41 -1.29,-0.81 -1.94,-1.19 l -0.22,-0.13 c -0.8,-0.48 -1.61,-1 -2.41,-1.41 l -0.13,-0.08 -2.36,-1.31 c -0.84,-0.45 -1.67,-0.89 -2.51,-1.32 l -1.56,-0.79 -0.86,-0.42 -1.42,-0.68 -2.08,-1 c -0.92,-0.42 -1.84,-0.82 -2.76,-1.21 V 105.83 A 40.19,40.19 0 0 1 373.89,65.64 L 787,1.88 a 40.22,40.22 0 0 1 52.37,38.31 z"
             id="path14-6"
             style="fill:#1a1a1a;fill-opacity:0.05;stroke-width:36.2658" />
          <path
             class="cls-2"
             d="m 30.77,146.69 h 212.52 a 30.15,30.15 0 0 1 30.15,30.15 v 0 A 30.14,30.14 0 0 1 243.29,207 H 30.14 A 30.14,30.14 0 0 1 0,176 c 0.46,-16.43 14.34,-29.31 30.77,-29.31 z"
             id="path16-2"
             style="fill:#1a1a1a;fill-opacity:0.6;stroke-width:36.2658" />
          <path
             class="cls-2"
             d="m 1000,176.25 c 0.33,16.9 -13.91,30.73 -30.81,30.73 h -39.44 a 30.14,30.14 0 0 1 -30.14,-30.14 v 0 a 30.15,30.15 0 0 1 30.14,-30.15 h 40.11 a 30.14,30.14 0 0 1 30.14,29.56 z"
             id="path18-9"
             style="fill:#1a1a1a;fill-opacity:0.6;stroke-width:36.2658" />
          <path
             class="cls-2"
             d="m 30.77,277 h 212.52 a 30.14,30.14 0 0 1 30.15,30.14 v 0 a 30.14,30.14 0 0 1 -30.15,30.14 H 30.14 A 30.14,30.14 0 0 1 0,306.29 C 0.46,289.87 14.34,277 30.77,277 Z"
             id="path20-1"
             style="fill:#1a1a1a;fill-opacity:0.6;stroke-width:36.2658" />
          <path
             class="cls-2"
             d="m 1000,308 c -0.45,16.42 -14.33,29.3 -30.76,29.3 h -39.49 a 30.14,30.14 0 0 1 -30.14,-30.14 v 0 A 30.14,30.14 0 0 1 929.75,277 h 40.11 a 30.14,30.14 0 0 1 30.14,31 z"
             id="path22-2"
             style="fill:#1a1a1a;fill-opacity:0.6;stroke-width:36.2658" />
          <path
             class="cls-2"
             d="M 30.74,407.28 H 206 a 4.73,4.73 0 0 1 1.8,9.1 l -0.27,0.11 a 191.32,191.32 0 0 0 -61,41.14 q -4.83,4.81 -9.26,9.94 H 30.14 A 30.15,30.15 0 0 1 0.08,435.18 c 1.15,-15.85 14.78,-27.9 30.66,-27.9 z"
             id="path24-7"
             style="fill:#1a1a1a;fill-opacity:0.6;stroke-width:36.2658" />
          <path
             class="cls-1"
             d="m 414.11,593.46 c 0,0.35 0,0.69 0,1 0,1.13 0,2.25 -0.07,3.37 a 131.79,131.79 0 0 1 -263.44,0 c -0.06,-1.46 -0.08,-2.92 -0.08,-4.4 a 131.87,131.87 0 0 1 170.9,-125.86 128.22,128.22 0 0 1 12.31,4.5 c 0.92,0.39 1.84,0.79 2.76,1.21 l 2.08,1 1.42,0.68 0.86,0.42 1.56,0.79 c 0.84,0.43 1.67,0.87 2.51,1.32 l 2.36,1.31 0.13,0.08 c 0.8,0.45 1.61,0.93 2.41,1.41 l 0.22,0.13 c 0.65,0.38 1.3,0.78 1.94,1.19 0.94,0.58 1.86,1.17 2.79,1.78 0.66,0.43 1.31,0.88 2,1.33 0.69,0.45 1.19,0.81 1.77,1.23 0.15,0.1 0.31,0.22 0.45,0.33 0.49,0.34 1,0.7 1.46,1.05 1.54,1.14 3.06,2.31 4.54,3.52 0.72,0.56 1.43,1.14 2.12,1.74 0.69,0.6 1.53,1.29 2.29,2 0.76,0.71 1.48,1.31 2.21,2 0.73,0.69 1.72,1.61 2.58,2.45 l 1.34,1.31 c 0.38,0.36 0.74,0.74 1.09,1.11 l 0.18,0.18 c 0.52,0.53 1,1.06 1.54,1.61 1.77,1.88 3.48,3.8 5.13,5.78 l 0.93,1.12 c 0.61,0.74 1.2,1.49 1.8,2.25 0.6,0.76 1,1.33 1.53,2 0.53,0.67 0.83,1.11 1.23,1.66 0.4,0.55 0.74,1 1.1,1.54 0.23,0.31 0.44,0.62 0.66,0.93 0.22,0.31 0.53,0.77 0.79,1.17 0.47,0.69 0.95,1.39 1.41,2.11 0.46,0.72 0.89,1.38 1.33,2.09 0.44,0.71 0.86,1.4 1.28,2.11 0.29,0.47 0.57,1 0.85,1.43 0.28,0.43 0.61,1 0.89,1.57 0.6,1.07 1.18,2.13 1.76,3.22 0.43,0.82 0.85,1.64 1.27,2.48 l 0.31,0.61 c 0.38,0.77 0.75,1.56 1.12,2.34 0.25,0.53 0.49,1.07 0.73,1.6 0.49,1.06 1,2.14 1.41,3.22 0.26,0.63 0.52,1.25 0.76,1.87 0.24,0.62 0.39,0.94 0.57,1.41 0.28,0.7 0.54,1.41 0.8,2.11 0.26,0.7 0.47,1.28 0.69,1.92 0.51,1.44 1,2.87 1.44,4.33 0.18,0.56 0.35,1.14 0.52,1.7 0.17,0.56 0.31,1 0.47,1.57 0.51,1.8 1,3.63 1.42,5.47 0.12,0.53 0.25,1.08 0.37,1.62 0.28,1.17 0.53,2.34 0.75,3.53 0.12,0.59 0.23,1.17 0.34,1.78 0.11,0.61 0.21,1.18 0.31,1.77 q 0.48,2.88 0.84,5.8 c 0.06,0.47 0.12,1 0.17,1.42 0.08,0.71 0.16,1.43 0.22,2.16 0.06,0.73 0.13,1.41 0.19,2.12 0,0.23 0,0.47 0.05,0.7 0.05,0.66 0.09,1.33 0.13,2 0.06,1 0.11,1.94 0.14,2.92 l 0.06,1.86 c -0.01,0.91 0,1.91 0,2.92 z"
             id="path26-0"
             style="fill:#1a1a1a;fill-opacity:0.6;stroke-width:36.2658" />
          <path
             class="cls-2"
             d="m 1000,438.27 c -0.45,16.42 -14.33,29.3 -30.76,29.3 h -39.49 a 30.15,30.15 0 0 1 -30.14,-30.15 v 0 a 30.14,30.14 0 0 1 30.14,-30.14 h 40.11 a 30.14,30.14 0 0 1 30.14,30.99 z"
             id="path28-9"
             style="fill:#1a1a1a;fill-opacity:0.6;stroke-width:36.2658" />
          <path
             class="cls-2"
             d="m 98.49,537.57 a 191,191 0 0 0 -8.27,55.89 c 0,1.47 0,2.93 0,4.4 H 30.14 a 30.15,30.15 0 0 1 0,-60.29 z"
             id="path30-3"
             style="fill:#1a1a1a;fill-opacity:0.6;stroke-width:36.2658" />
          <path
             class="cls-2"
             d="m 1000,568.56 c -0.45,16.42 -14.33,29.3 -30.76,29.3 H 925.8 a 29.82,29.82 0 0 1 -29.34,-35.2 c 0,-0.21 0.07,-0.41 0.11,-0.61 a 29.78,29.78 0 0 1 29.34,-24.48 h 44 a 30.14,30.14 0 0 1 30.09,30.99 z"
             id="path32-6"
             style="fill:#1a1a1a;fill-opacity:0.6;stroke-width:36.2658" />
        </g>
      </g>
    </g>
  </g>
</svg>
