<?xml version="1.0" encoding="UTF-8" standalone="no"?>
<svg
   width="68"
   height="68"
   viewBox="0 0 17.991665 17.991665"
   version="1.1"
   id="svg1114"
   inkscape:version="1.3.2 (091e20ef0f, 2023-11-25)"
   sodipodi:docname="folder-sign.svg"
   xmlns:inkscape="http://www.inkscape.org/namespaces/inkscape"
   xmlns:sodipodi="http://sodipodi.sourceforge.net/DTD/sodipodi-0.dtd"
   xmlns:xlink="http://www.w3.org/1999/xlink"
   xmlns="http://www.w3.org/2000/svg"
   xmlns:svg="http://www.w3.org/2000/svg"
   xmlns:rdf="http://www.w3.org/1999/02/22-rdf-syntax-ns#"
   xmlns:cc="http://creativecommons.org/ns#"
   xmlns:dc="http://purl.org/dc/elements/1.1/">
  <style
     type="text/css"
     id="current-color-scheme">.ColorScheme-Highlight { color:#5599ff; }
</style>
  <defs
     id="defs1108">
    <linearGradient
       inkscape:collect="always"
       id="linearGradient11">
      <stop
         style="stop-color:#d48ed7;stop-opacity:1;"
         offset="0"
         id="stop10" />
      <stop
         style="stop-color:#5599ff;stop-opacity:1;"
         offset="1"
         id="stop11" />
    </linearGradient>
    <linearGradient
       id="linearGradient9"
       inkscape:collect="always">
      <stop
         style="stop-color:#ffffff;stop-opacity:0;"
         offset="0"
         id="stop1" />
      <stop
         id="stop8"
         offset="0.67097157"
         style="stop-color:#ffffff;stop-opacity:0" />
      <stop
         style="stop-color:#ffffff;stop-opacity:1;"
         offset="1"
         id="stop9" />
    </linearGradient>
    <linearGradient
       id="linearGradient7"
       inkscape:collect="always">
      <stop
         style="stop-color:#000000;stop-opacity:0;"
         offset="0"
         id="stop5" />
      <stop
         id="stop6"
         offset="0.6586886"
         style="stop-color:#000000;stop-opacity:0" />
      <stop
         style="stop-color:#000000;stop-opacity:1;"
         offset="1"
         id="stop7" />
    </linearGradient>
    <linearGradient
       id="linearGradient4"
       inkscape:collect="always">
      <stop
         style="stop-color:#000000;stop-opacity:0;"
         offset="0"
         id="stop2" />
      <stop
         id="stop3"
         offset="0.67055255"
         style="stop-color:#000000;stop-opacity:0" />
      <stop
         style="stop-color:#000000;stop-opacity:1;"
         offset="1"
         id="stop4" />
    </linearGradient>
    <linearGradient
       id="linearGradient1167"
       x1="40.751999"
       x2="40.751999"
       y1="28.507999"
       y2="17.205999"
       gradientUnits="userSpaceOnUse">
      <stop
         style="stop-color:#84fb6e;stop-opacity:1"
         stop-color="#0ab816"
         offset="0"
         id="stop1163" />
      <stop
         style="stop-color:#0dd41a;stop-opacity:1"
         stop-color="#0cf36c"
         offset="1"
         id="stop1165" />
    </linearGradient>
    <linearGradient
       id="cornerBevel"
       inkscape:collect="always">
      <stop
         style="stop-color:#000000;stop-opacity:0;"
         offset="0"
         id="stop2663" />
      <stop
         id="stop2671"
         offset="0.66666675"
         style="stop-color:#000000;stop-opacity:0" />
      <stop
         style="stop-color:#000000;stop-opacity:1;"
         offset="1"
         id="stop2661" />
    </linearGradient>
    <linearGradient
       id="bevel"
       inkscape:collect="always">
      <stop
         id="stop2685"
         offset="0"
         style="stop-color:#000000;stop-opacity:1;" />
      <stop
         id="stop2687"
         offset="1"
         style="stop-color:#000000;stop-opacity:0;" />
    </linearGradient>
    <linearGradient
       id="highlightCorner"
       inkscape:collect="always">
      <stop
         style="stop-color:#ffffff;stop-opacity:0;"
         offset="0"
         id="stop2613" />
      <stop
         id="stop2621"
         offset="0.66666669"
         style="stop-color:#ffffff;stop-opacity:0" />
      <stop
         style="stop-color:#ffffff;stop-opacity:1;"
         offset="1"
         id="stop2611" />
    </linearGradient>
    <linearGradient
       inkscape:collect="always"
       id="highlight">
      <stop
         style="stop-color:#ffffff;stop-opacity:1;"
         offset="0"
         id="stop2921" />
      <stop
         style="stop-color:#ffffff;stop-opacity:0;"
         offset="1"
         id="stop2923" />
    </linearGradient>
    <radialGradient
       inkscape:collect="always"
       xlink:href="#highlightCorner"
       id="radialGradient15"
       gradientUnits="userSpaceOnUse"
       gradientTransform="matrix(0.04294597,-12.079348,17.933991,0.06376112,14.524179,-50.373789)"
       cx="-4.5799766"
       cy="-0.50206107"
       fx="-4.5799766"
       fy="-0.50206107"
       r="0.39687499" />
    <linearGradient
       inkscape:collect="always"
       xlink:href="#highlight"
       id="linearGradient15"
       gradientUnits="userSpaceOnUse"
       x1="-3.8497722"
       y1="-1.1532172"
       x2="-3.8486557"
       y2="-0.89102554"
       gradientTransform="matrix(6.0923077,0,0,6.0923077,32.228528,7.1537621)" />
    <radialGradient
       inkscape:collect="always"
       xlink:href="#linearGradient9"
       id="radialGradient17"
       gradientUnits="userSpaceOnUse"
       gradientTransform="matrix(1.1757679e-4,-11.994067,-18.104833,-1.7749478e-4,1.6916469,-50.007179)"
       cx="-4.5775003"
       cy="-0.55256677"
       fx="-4.5775003"
       fy="-0.55256677"
       r="0.39687499" />
    <radialGradient
       inkscape:collect="always"
       xlink:href="#linearGradient7"
       id="radialGradient18"
       gradientUnits="userSpaceOnUse"
       gradientTransform="matrix(0.0232366,12.009662,17.933953,-0.03470102,14.426451,64.381084)"
       cx="-4.4256716"
       cy="-0.50045931"
       fx="-4.4256716"
       fy="-0.50045931"
       r="0.39687499" />
    <linearGradient
       inkscape:collect="always"
       xlink:href="#bevel"
       id="linearGradient18"
       gradientUnits="userSpaceOnUse"
       x1="-3.8447375"
       y1="-1.4538249"
       x2="-3.8438127"
       y2="-1.1952862"
       gradientTransform="matrix(6.0923076,0,0,6.0923076,32.228527,-7.1537627)" />
    <radialGradient
       inkscape:collect="always"
       xlink:href="#linearGradient4"
       id="radialGradient20"
       gradientUnits="userSpaceOnUse"
       gradientTransform="matrix(-0.01031383,11.991438,-17.967296,-0.01545561,1.7353715,64.305742)"
       cx="-4.4236727"
       cy="-0.55004197"
       fx="-4.4236727"
       fy="-0.55004197"
       r="0.39687499" />
    <radialGradient
       inkscape:collect="always"
       xlink:href="#cornerBevel"
       id="radialGradient25"
       gradientUnits="userSpaceOnUse"
       gradientTransform="matrix(12.184614,0,0,12.184614,59.63122,10.377613)"
       cx="-4.4568658"
       cy="-0.44864327"
       fx="-4.4568658"
       fy="-0.44864327"
       r="0.39687496" />
    <linearGradient
       inkscape:collect="always"
       xlink:href="#bevel"
       id="linearGradient25"
       gradientUnits="userSpaceOnUse"
       x1="-3.8487544"
       y1="-1.146081"
       x2="-3.8455966"
       y2="-0.890971"
       gradientTransform="matrix(6.0923077,0,0,6.0923077,32.228528,7.1537627)" />
    <radialGradient
       inkscape:collect="always"
       xlink:href="#cornerBevel"
       id="radialGradient29"
       gradientUnits="userSpaceOnUse"
       gradientTransform="matrix(0,-12.184614,12.184614,0,11.27353,-44.427768)"
       cx="-4.5705457"
       cy="-0.48653662"
       fx="-4.5705457"
       fy="-0.48653662"
       r="0.39687496" />
    <radialGradient
       inkscape:collect="always"
       xlink:href="#cornerBevel"
       id="radialGradient30"
       gradientUnits="userSpaceOnUse"
       gradientTransform="matrix(-12.184514,-0.04945749,0.04847411,-11.942243,-43.502155,3.8519053)"
       cx="-4.5342312"
       cy="-0.60337442"
       fx="-4.5342312"
       fy="-0.60337442"
       r="0.39687496" />
    <radialGradient
       inkscape:collect="always"
       xlink:href="#cornerBevel"
       id="radialGradient31"
       gradientUnits="userSpaceOnUse"
       gradientTransform="matrix(-0.06855274,-12.083057,11.978763,-0.06796103,18.172721,-48.506326)"
       cx="-4.4175329"
       cy="-0.56489283"
       fx="-4.4175329"
       fy="-0.56489283"
       r="0.39687496" />
    <linearGradient
       inkscape:collect="always"
       xlink:href="#bevel"
       id="linearGradient34"
       gradientUnits="userSpaceOnUse"
       x1="-3.99717"
       y1="-1.2218677"
       x2="-4.0003276"
       y2="-0.96675771"
       gradientTransform="matrix(6.0923077,0,0,6.0923077,17.025077,8.0496826)" />
    <linearGradient
       inkscape:collect="always"
       xlink:href="#bevel"
       id="linearGradient35"
       gradientUnits="userSpaceOnUse"
       x1="-4.0919032"
       y1="-1.4492278"
       x2="-4.0950613"
       y2="-1.1972755"
       gradientTransform="matrix(6.0923077,0,0,6.0923077,16.129161,-7.1537627)" />
    <linearGradient
       inkscape:collect="always"
       xlink:href="#bevel"
       id="linearGradient36"
       gradientUnits="userSpaceOnUse"
       x1="-3.8734362"
       y1="-1.3717227"
       x2="-3.8765941"
       y2="-1.116071"
       gradientTransform="matrix(6.0923077,0,0,6.0923077,31.33261,-8.0496826)" />
    <linearGradient
       id="paint2_linear_77:3-7"
       x1="79.398094"
       y1="-197.84389"
       x2="82.901054"
       y2="-199.97827"
       gradientUnits="userSpaceOnUse"
       gradientTransform="matrix(1.9248511,0,0,1.7314595,-40.88733,399.61741)">
      <stop
         stop-color="#EBFAFF"
         stop-opacity="0.1"
         id="stop29-5-7"
         offset="0"
         style="stop-color:#c3c3c3;stop-opacity:1;" />
      <stop
         offset="1"
         stop-color="#70A9FF"
         stop-opacity="0.5"
         id="stop30-0-1"
         style="stop-color:#05c7ff;stop-opacity:0.80000001;" />
    </linearGradient>
    <linearGradient
       inkscape:collect="always"
       xlink:href="#linearGradient11"
       id="linearGradient926"
       x1="2.2676716"
       y1="-15.434939"
       x2="15.53153"
       y2="-2.4778411"
       gradientUnits="userSpaceOnUse"
       gradientTransform="translate(-0.92604234,0.47624996)" />
    <linearGradient
       inkscape:collect="always"
       xlink:href="#linearGradient11"
       id="linearGradient892"
       gradientUnits="userSpaceOnUse"
       x1="15.76272"
       y1="2.7368727"
       x2="2.6505842"
       y2="15.759102"
       gradientTransform="translate(-0.47625037,-0.92604234)" />
  </defs>
  <sodipodi:namedview
     id="base"
     pagecolor="#e2e2e2"
     bordercolor="#000000"
     borderopacity="1"
     inkscape:pageopacity="0"
     inkscape:pageshadow="2"
     inkscape:zoom="9.724873"
     inkscape:cx="33.008143"
     inkscape:cy="31.157219"
     inkscape:document-units="px"
     inkscape:current-layer="layer1"
     inkscape:document-rotation="0"
     showgrid="true"
     units="px"
     inkscape:window-width="1920"
     inkscape:window-height="990"
     inkscape:window-x="0"
     inkscape:window-y="0"
     inkscape:window-maximized="1"
     inkscape:object-paths="true"
     inkscape:snap-grids="true"
     inkscape:snap-intersection-paths="true"
     inkscape:snap-smooth-nodes="true"
     inkscape:snap-midpoints="true"
     inkscape:showpageshadow="2"
     inkscape:pagecheckerboard="0"
     inkscape:deskcolor="#d1d1d1">
    <inkscape:grid
       id="grid2"
       units="px"
       originx="0"
       originy="0"
       spacingx="0.26458333"
       spacingy="0.26458333"
       empcolor="#0099e5"
       empopacity="0.30196078"
       color="#0099e5"
       opacity="0.14902"
       empspacing="5"
       dotted="false"
       gridanglex="30"
       gridanglez="30"
       visible="true" />
  </sodipodi:namedview>
  <metadata
     id="metadata1111">
    <rdf:RDF>
      <cc:Work
         rdf:about="">
        <dc:format>image/svg+xml</dc:format>
        <dc:type
           rdf:resource="http://purl.org/dc/dcmitype/StillImage" />
      </cc:Work>
    </rdf:RDF>
  </metadata>
  <g
     inkscape:label="Layer 1"
     inkscape:groupmode="layer"
     id="layer1">
    <g
       id="g918"
       transform="translate(0.47625037,0.92604234)">
      <rect
         ry="4.8357682"
         rx="4.8357682"
         style="fill:url(#linearGradient926);fill-opacity:1;stroke-width:6.09228"
         x="0.13229237"
         y="-16.457085"
         width="15.875001"
         height="15.875001"
         id="use1056"
         transform="rotate(90)"
         class="ColorScheme-Highlight" />
      <path
         d="m 5.344583,0.13229167 c -2.6384245,0 -4.76249953,2.12407483 -4.76249953,4.76249963 H 5.344583 Z"
         style="opacity:0.15;fill:url(#radialGradient25);fill-opacity:1;stroke-width:6.09228"
         id="path20" />
      <rect
         y="0.13229151"
         x="5.3445826"
         height="1.5875"
         width="6.3500004"
         id="rect20"
         style="opacity:0.15;fill:url(#linearGradient25);fill-opacity:1;stroke-width:4.83577;stroke-linecap:round;stroke-linejoin:round;paint-order:stroke fill markers" />
      <path
         d="m 0.58208347,11.244792 c 0,2.638424 2.12407503,4.762499 4.76249953,4.762499 v -4.762499 z"
         style="opacity:0.15;fill:url(#radialGradient29);fill-opacity:1;stroke-width:6.09228"
         id="use20" />
      <rect
         y="0.5820834"
         x="-11.244792"
         height="1.5875"
         width="6.3500004"
         id="use21"
         style="opacity:0.15;fill:url(#linearGradient34);fill-opacity:1;stroke-width:4.83577;stroke-linecap:round;stroke-linejoin:round;paint-order:stroke fill markers"
         transform="rotate(-90)" />
      <path
         d="m 11.694583,16.007291 c 2.638425,0 4.7625,-2.124074 4.7625,-4.762499 h -4.7625 z"
         style="opacity:0.15;fill:url(#radialGradient30);fill-opacity:1;stroke-width:6.09228"
         id="use22" />
      <rect
         y="-16.007292"
         x="-11.694584"
         height="1.5875"
         width="6.3500004"
         id="use23"
         style="opacity:0.15;fill:url(#linearGradient35);fill-opacity:1;stroke-width:4.83577;stroke-linecap:round;stroke-linejoin:round;paint-order:stroke fill markers"
         transform="scale(-1)" />
      <path
         d="m 16.457083,4.8947913 c 0,-2.6384245 -2.124074,-4.76249963 -4.7625,-4.76249963 V 4.8947913 Z"
         style="opacity:0.15;fill:url(#radialGradient31);fill-opacity:1;stroke-width:6.09228"
         id="use24" />
      <rect
         y="-16.457081"
         x="4.8947906"
         height="1.5875"
         width="6.3500004"
         id="use25"
         style="opacity:0.15;fill:url(#linearGradient36);fill-opacity:1;stroke-width:4.83577;stroke-linecap:round;stroke-linejoin:round;paint-order:stroke fill markers"
         transform="rotate(90)" />
      <path
         d="m 5.3445832,0.13229107 c -2.638425,0 -4.76250035,2.12407473 -4.76250035,4.76249973 H 5.3445832 Z"
         style="opacity:0.5;fill:url(#radialGradient15);fill-opacity:1;stroke-width:6.09228"
         id="path14" />
      <rect
         y="0.1322909"
         x="5.3445826"
         height="1.5875"
         width="6.3499999"
         id="rect14"
         style="opacity:0.5;fill:url(#linearGradient15);fill-opacity:1;stroke-width:4.83577;stroke-linecap:round;stroke-linejoin:round;paint-order:stroke fill markers" />
      <path
         d="m 11.694583,0.1322909 c 2.638425,0 4.7625,2.1240749 4.7625,4.7624976 h -4.7625 z"
         style="opacity:0.5;fill:url(#radialGradient17);fill-opacity:1;stroke-width:6.09228"
         id="use14" />
      <path
         id="path17"
         style="opacity:0.5;fill:url(#radialGradient18);fill-opacity:1;stroke-width:6.09228"
         d="m 5.3445834,16.00729 c -2.638425,0 -4.7625,-2.124075 -4.7625,-4.7625 h 4.7625 z" />
      <rect
         style="opacity:0.5;fill:url(#linearGradient18);fill-opacity:1;stroke-width:4.83577;stroke-linecap:round;stroke-linejoin:round;paint-order:stroke fill markers"
         id="rect17"
         width="6.3499994"
         height="1.5874999"
         x="5.3445826"
         y="-16.007292"
         transform="scale(1,-1)" />
      <path
         id="use17"
         style="opacity:0.5;fill:url(#radialGradient20);fill-opacity:1;stroke-width:6.09228"
         d="m 11.694582,16.007291 c 2.638425,0 4.7625,-2.124075 4.7625,-4.7625 h -4.7625 z" />
      <path
         d="m 4.8411477,2.2886454 c -1.1721999,0 -2.1159392,1.1779639 -2.1159392,2.2465608 V 11.26036 c 0,1.068671 0.943821,1.929059 2.1159392,1.929059 h 7.3766603 c 1.1722,0 2.115939,-0.860463 2.115939,-1.929059 V 4.5352062 c 0,-1.0686713 -0.943821,-2.2465608 -2.115939,-2.2465608 z"
         fill="#fafafa"
         stroke-linecap="round"
         stroke-width="0.0793746"
         style="fill:#ffffff;fill-opacity:0.602564;paint-order:stroke fill markers"
         id="path2-6"
         sodipodi:nodetypes="sssssssss" />
      <path
         d="m 2.8835048,3.9688329 c -0.2636521,0 -0.4757965,0.2024423 -0.4757965,0.4540176 v 1.4746632 c 0,0.0183 0.00347,0.03564 0.00565,0.05337 -0.00465,0.436096 -0.00439,0.933217 -0.00439,1.5855106 v 0.180942 h -4.391e-4 v 3.2806677 c 0,0.02941 0.00347,0.05796 0.00439,0.08714 0.00168,0.0413 0.00264,0.08276 0.00657,0.123409 0.1068632,1.368001 1.2422934,2.451689 2.6756704,2.554475 0.072019,0.0066 0.1449519,0.01032 0.2193309,0.01043 0.00102,3e-6 0.002,0 0.00307,0 h 6.4860055 4.37e-4 c 0.07554,0 0.149713,-0.0038 0.222824,-0.01043 1.429741,-0.102907 2.562793,-1.181876 2.673893,-2.54528 0.0073,-0.07226 0.01179,-0.145376 0.01179,-0.219716 V 7.6547513 c 1.3e-5,-0.0015 4.37e-4,-0.0028 4.37e-4,-0.0042 V 6.1758977 c 0,-0.251582 -0.106241,-0.454014 -0.369885,-0.454014 H 9.1584167 c -0.2295699,-1e-6 -0.4092976,-0.01479 -0.5583769,-0.05253 C 8.4509617,5.6316137 8.3328028,5.5707037 8.2273514,5.47924 8.121901,5.38777 8.0289554,5.2655993 7.9302511,5.1044346 7.8315481,4.9432596 7.7270274,4.7434229 7.598199,4.4965672 7.536064,4.3506905 7.449289,4.2446292 7.3543985,4.1680402 7.2595085,4.0914502 7.1566781,4.0442129 7.0612298,4.0150299 6.8703322,3.9566699 6.7103888,3.9712499 6.7103888,3.9712499 H 4.5515737 c -0.00887,-4.64e-4 -0.017213,-0.0025 -0.026218,-0.0025 H 3.7515794 Z"
         id="path4-3-6"
         style="fill:url(#linearGradient892);fill-opacity:1"
         class="ColorScheme-Highlight "
         sodipodi:nodetypes="csscsccscccsscsccscssssssccscccscc" />
    </g>
    <path
       style="color:#232629;fill:#1a1a1a;fill-opacity:0.5;stroke:none;stroke-width:0.543613"
       d="m 11.247074,8.9970651 c -0.02648,-0.00369 -0.05439,9.313e-4 -0.08177,0.013512 -0.01491,0.00739 -0.0824,0.071097 -0.149763,0.1411015 l -0.122822,0.1286777 -0.0353,-0.030587 C 10.807789,9.2083943 10.75683,9.1945853 10.705826,9.2106773 10.670606,9.2216843 10.580296,9.31264 9.985478,9.9291596 9.6101421,10.317759 9.3042917,10.639255 9.3044257,10.644786 c 2.914e-4,0.0045 0.1198242,0.121825 0.2652156,0.258867 l 0.2657854,0.250752 0.4436083,-0.460659 c 0.244122,-0.253396 0.446495,-0.457934 0.450334,-0.454322 0.01267,0.01147 0.01138,0.232913 -0.0018,0.302525 -0.0075,0.03793 -0.02894,0.105205 -0.04956,0.149105 -0.03649,0.07849 -0.03984,0.08295 -0.590014,0.655872 -0.3042688,0.316696 -0.5583073,0.586238 -0.5636073,0.597448 -0.014782,0.03086 -0.00895,0.09254 0.010918,0.129843 0.034241,0.06296 0.1338038,0.09322 0.1964724,0.05851 0.043323,-0.02409 1.1341559,-1.168151 1.1718799,-1.230044 0.109634,-0.176323 0.156125,-0.41305 0.128684,-0.654557 -0.01058,-0.09579 -0.02873,-0.188825 -0.04905,-0.2558127 -0.0064,-0.01809 0.0098,-0.03909 0.112129,-0.1458414 0.09652,-0.1020644 0.119329,-0.1312811 0.124268,-0.1600041 0.01053,-0.06124 -0.0041,-0.09777 -0.05989,-0.1518688 l -0.05167,-0.05055 0.13092,-0.1370066 c 0.107424,-0.113385 0.131343,-0.14351 0.136227,-0.1723092 0.01496,-0.091826 -0.04882,-0.1678367 -0.12798,-0.1779692 z M 9.0947997,10.857775 c -0.00308,2.14e-4 -0.4027707,0.414312 -0.8891667,0.919214 -0.7825008,0.813149 -0.8943741,0.933986 -0.9702549,1.040168 -0.1507584,0.211475 -0.3265783,0.540237 -0.4535575,0.844484 -0.082084,0.195088 -0.082804,0.176477 0.00346,0.143031 0.2655338,-0.104189 0.6173747,-0.282621 0.8260632,-0.419688 0.2040825,-0.134152 0.240381,-0.170102 1.1494506,-1.11373 L 9.6351965,11.36257 9.3673465,11.110073 C 9.220035,10.971215 9.0977976,10.857731 9.0949772,10.857798 Z m -0.1892568,2.318936 c -0.036799,-0.0073 -0.075219,-0.01028 -0.1006116,-0.008 l -7e-5,6.09e-4 c -0.1203975,0.01092 -0.2631605,0.09623 -0.3401315,0.204825 -0.020345,0.02823 -0.055827,0.09323 -0.078767,0.142721 -0.021688,0.05058 -0.042063,0.09252 -0.043336,0.09348 -0.01038,0.0095 -0.2414207,0.03726 -0.3761534,0.04424 -0.3168025,0.01747 -0.4039766,0.0276 -0.4377594,0.05194 -0.066271,0.04768 -0.026724,0.108077 0.061202,0.09347 0.023143,-0.004 0.1215424,-0.01186 0.215912,-0.0167 0.094529,-0.0042 0.2390022,-0.01745 0.3211484,-0.0259 0.082508,-0.0094 0.1518442,-0.01424 0.1548362,-0.01009 0.00258,0.0032 -0.017635,0.06583 -0.048235,0.1381 l -0.054388,0.129642 -0.089335,0.02695 c -0.048778,0.01497 -0.1193007,0.0415 -0.1571035,0.06096 -0.1143699,0.05687 -0.1451961,0.141422 -0.077264,0.205897 0.037079,0.03491 0.1501039,0.0469 0.2237392,0.02437 0.065356,-0.0206 0.1049086,-0.05552 0.1656198,-0.151481 0.032262,-0.04956 0.05589,-0.07488 0.071984,-0.07646 0.01313,-0.0017 0.1276654,-0.01127 0.2548185,-0.02245 0.1272172,-0.0097 0.2428007,-0.02049 0.257764,-0.02211 0.024163,-0.0024 0.026548,-3.19e-4 0.01735,0.02012 -0.00595,0.01308 -0.031443,0.04981 -0.056933,0.08186 -0.025407,0.03218 -0.047428,0.07127 -0.0494,0.08796 -0.00413,0.03461 0.021309,0.07271 0.046042,0.06646 0.0094,-0.0019 0.022003,-0.004 0.027794,-0.0034 0.0054,6.41e-4 0.032778,-0.01442 0.060208,-0.03371 0.051258,-0.03592 0.1871087,-0.225231 0.1921526,-0.267698 0.00232,-0.02105 0.019847,-0.02457 0.02806,-0.0063 0.00258,0.0057 0.027216,0.01887 0.054655,0.02871 0.038374,0.01452 0.04891,0.0235 0.046788,0.04144 -0.00413,0.03464 0.047626,0.09189 0.097357,0.107709 0.038703,0.01167 0.090568,0.0085 0.1472392,-0.0063 0.020406,-0.0058 0.021216,-0.0027 0.011123,0.02486 -0.00647,0.01747 -0.046328,0.0706 -0.08757,0.119103 -0.087539,0.100782 -0.1984777,0.264377 -0.231298,0.338702 -0.027216,0.06362 -0.024736,0.113813 0.00703,0.141274 0.029182,0.02403 0.082184,0.02023 0.1126849,-0.0051 0.026548,-0.02302 0.1875861,-0.276805 0.2494744,-0.394011 0.044083,-0.08211 0.062568,-0.103786 0.1489449,-0.175314 0.071028,-0.0585 0.093511,-0.07179 0.07684,-0.04773 -0.02809,0.04551 -0.031416,0.08233 -0.00955,0.107465 0.047287,0.05427 0.1295864,0.01688 0.2107867,-0.09657 0.048029,-0.06681 0.079965,-0.08442 0.2349007,-0.135614 l 0.0806,-0.0258 -0.01286,0.04033 c -0.0069,0.02163 -0.04084,0.08254 -0.07435,0.133991 -0.06629,0.104336 -0.08452,0.173578 -0.06005,0.237522 0.0163,0.04386 0.03883,0.04785 0.146935,0.02446 0.150239,-0.03115 0.351949,-0.120047 0.408508,-0.177931 0.07721,-0.08165 0.107861,-0.165134 0.07082,-0.198877 -0.03823,-0.03499 -0.06334,-0.02556 -0.125643,0.04538 -0.08362,0.0967 -0.181277,0.168126 -0.27097,0.199595 -0.04196,0.01568 -0.07852,0.02457 -0.08154,0.02089 -0.0038,-0.0044 0.114743,-0.234603 0.176585,-0.341783 0.01275,-0.02206 0.02491,-0.05035 0.02637,-0.06248 0.0037,-0.03122 -0.03171,-0.07154 -0.06557,-0.07544 -0.0156,-0.0017 -0.0942,0.01944 -0.173266,0.04865 -0.163773,0.05788 -0.154291,0.06581 -0.09777,-0.07256 0.03398,-0.08543 0.02884,-0.109877 -0.0245,-0.121819 -0.05137,-0.01143 -0.07354,0.0024 -0.1309856,0.08107 -0.037241,0.0533 -0.083342,0.09564 -0.1697738,0.158058 -0.1138543,0.0817 -0.1188605,0.08447 -0.1407222,0.06508 -0.033076,-0.03 -0.053901,-0.02863 -0.1470065,0.004 -0.090937,0.03248 -0.1199378,0.0348 -0.1382338,0.0062 -0.015628,-0.0233 0.014004,-0.03114 0.1748028,-0.04297 0.1559332,-0.01117 0.1758654,-0.0171 0.1795761,-0.04832 0.00597,-0.05036 -0.030198,-0.103001 -0.1009174,-0.144063 -0.1220652,-0.07192 -0.135964,-0.07714 -0.1940481,-0.06938 -0.062752,0.008 -0.1634602,0.08391 -0.1821463,0.13622 -0.019355,0.05446 -0.05563,0.03311 -0.048359,-0.02814 0.00303,-0.02579 -0.021015,-0.09411 -0.037835,-0.107432 -0.035344,-0.03028 -0.1039215,0.01857 -0.1635882,0.11578 l -0.046754,0.07492 -0.085615,0.0079 c -0.1111737,0.01019 -0.4336144,0.03646 -0.4763978,0.0396 -0.027562,0.0011 -0.031888,-7.01e-4 -0.024365,-0.01678 0.0056,-0.0099 0.025036,-0.05793 0.044507,-0.106706 0.051428,-0.13438 0.063981,-0.151253 0.1167711,-0.163105 0.063423,-0.01396 0.279553,-0.07729 0.3356927,-0.09792 0.026398,-0.0093 0.081398,-0.04142 0.1226533,-0.07051 0.126522,-0.0917 0.1559832,-0.18686 0.083114,-0.267811 -0.020082,-0.02178 -0.047346,-0.04506 -0.060107,-0.05227 -0.019942,-0.01057 -0.055125,-0.02009 -0.09203,-0.02605 z M 8.776227,13.293895 c 0.015656,4.11e-4 0.034283,0.0032 0.057443,0.0084 0.059411,0.0101 0.082597,0.0187 0.097315,0.03833 0.019737,0.02466 0.01956,0.02575 -0.00474,0.06613 -0.017025,0.0252 -0.051995,0.05293 -0.094727,0.07523 -0.074437,0.03893 -0.300524,0.09958 -0.3054691,0.08329 -0.00589,-0.02677 0.081349,-0.171813 0.1312831,-0.21589 0.049859,-0.04423 0.07232,-0.05781 0.1196762,-0.05493 z M 8.0853605,14.16141 c 0.00874,0.0018 0.00795,0.009 -2.765e-4,0.02194 -0.018336,0.02614 -0.058978,0.04183 -0.07942,0.03144 -0.023725,-0.01281 -0.01534,-0.0252 0.026457,-0.04101 0.027686,-0.0097 0.045435,-0.01448 0.053979,-0.01294 z"
       class="ColorScheme-Text"
       id="path14466-5-6-3" />
  </g>
</svg>
