<?xml version="1.0" encoding="UTF-8" standalone="no"?>
<svg
   width="32"
   height="32"
   version="1.1"
   id="svg1"
   sodipodi:docname="klipper-symbolic.svg"
   inkscape:version="1.3.2 (091e20ef0f, 2023-11-25)"
   xmlns:inkscape="http://www.inkscape.org/namespaces/inkscape"
   xmlns:sodipodi="http://sodipodi.sourceforge.net/DTD/sodipodi-0.dtd"
   xmlns="http://www.w3.org/2000/svg"
   xmlns:svg="http://www.w3.org/2000/svg">
  <defs
     id="defs1" />
  <sodipodi:namedview
     id="namedview1"
     pagecolor="#c2c2c2"
     bordercolor="#999999"
     borderopacity="1"
     inkscape:showpageshadow="2"
     inkscape:pageopacity="0"
     inkscape:pagecheckerboard="0"
     inkscape:deskcolor="#d1d1d1"
     showgrid="true"
     inkscape:zoom="16.83798"
     inkscape:cx="16.153957"
     inkscape:cy="17.222969"
     inkscape:window-width="1920"
     inkscape:window-height="994"
     inkscape:window-x="0"
     inkscape:window-y="0"
     inkscape:window-maximized="1"
     inkscape:current-layer="svg1">
    <inkscape:grid
       id="grid1"
       units="px"
       originx="0"
       originy="0"
       spacingx="1"
       spacingy="1"
       empcolor="#0099e5"
       empopacity="0.30196078"
       color="#0099e5"
       opacity="0.14902"
       empspacing="5"
       dotted="false"
       gridanglex="30"
       gridanglez="30"
       visible="true" />
  </sodipodi:namedview>
  <style
     type="text/css"
     id="current-color-scheme">.ColorScheme-Background { color: #2a2e32; } .ColorScheme-ButtonText { color: #31363b; } .ColorScheme-Highlight { color: #3daee9; } .ColorScheme-Text { color: #fcfcfc; } </style>
  <g
     id="klipper">
    <path
       id="rect4202"
       d="M 14.2,4 C 13.445412,4.025593 13.142978,5.2381551 13.000002,6 H 12 C 11.282915,6.00793 11.021851,6.5973345 11.000002,7 H 7 C 6.4928432,7.0066821 6.0245897,7.3956329 6.0000019,7.999999 v 19 C 6.0011614,27.552541 6.4374452,27.999949 7,28 h 18 c 0.537786,0.0085 0.994055,-0.438327 1.000002,-1.000001 v -19 C 25.999343,7.3855463 25.573192,7.0195234 25,7 H 21.000002 C 21.025803,6.6090219 20.753985,6.0005894 20,6 H 19.000002 C 18.849746,5.1705974 18.551703,4.0311496 17.8,4 16.755756,3.3769754 15.708293,2.7668282 14.2,4 Z M 8,7.999999 11.000002,8 C 10.995493,8.6180878 11.244703,8.9642589 12,8.999999 h 8 C 20.800117,9.0074646 20.989217,8.5718925 21.000002,8 h 2.958003 c 1.052355,0.030243 1.06614,-0.1005425 1.041997,0.999999 v 17 C 25.006669,26.988294 25.011082,26.97696 24,27 H 8 C 6.9988919,27.02669 7.000065,27.04299 7.0000019,25.999999 v -17 c 0.00359,-1.102088 0.0099,-0.9886638 0.9999981,-1 z M 10.000002,11 v 2 h 12 v -2 z m 0,2 v 0 H 22 v 0 z m -2e-6,4 2e-6,2 H 22 v -2 z m 2e-6,6 v 0 H 20 v 0 z m 0,0 v 2 H 22 v -2 z"
       style="opacity:1;fill:#d3dae3;fill-opacity:1;stroke:none"
       inkscape:connector-curvature="0"
       sodipodi:nodetypes="ccccccccccccccccccccccccccccccccccccccccccccccccccccccc"
       class="ColorScheme-Text" />
    <rect
       y="-1e-06"
       x="-2.8953547e-08"
       height="32"
       width="32.000004"
       id="rect4230"
       style="opacity:1;fill:none;fill-opacity:1;stroke:none" />
  </g>
</svg>
