<?xml version="1.0" encoding="UTF-8" standalone="no"?>
<svg
   width="68"
   height="68"
   viewBox="0 0 17.991665 17.991665"
   version="1.1"
   id="svg1114"
   inkscape:version="1.3.2 (091e20ef0f, 2023-11-25)"
   sodipodi:docname="0cc-famitracker.svg"
   xmlns:inkscape="http://www.inkscape.org/namespaces/inkscape"
   xmlns:sodipodi="http://sodipodi.sourceforge.net/DTD/sodipodi-0.dtd"
   xmlns:xlink="http://www.w3.org/1999/xlink"
   xmlns="http://www.w3.org/2000/svg"
   xmlns:svg="http://www.w3.org/2000/svg"
   xmlns:rdf="http://www.w3.org/1999/02/22-rdf-syntax-ns#"
   xmlns:cc="http://creativecommons.org/ns#"
   xmlns:dc="http://purl.org/dc/elements/1.1/">
  <style
     type="text/css"
     id="current-color-scheme">.ColorScheme-Highlight { color:#5599ff; }
</style>
  <defs
     id="defs1108">
    <linearGradient
       id="linearGradient12"
       inkscape:collect="always">
      <stop
         style="stop-color:#ffffff;stop-opacity:0;"
         offset="0"
         id="stop10" />
      <stop
         id="stop11"
         offset="0.65909404"
         style="stop-color:#ffffff;stop-opacity:0" />
      <stop
         style="stop-color:#ffffff;stop-opacity:1;"
         offset="1"
         id="stop12" />
    </linearGradient>
    <linearGradient
       id="linearGradient9"
       inkscape:collect="always">
      <stop
         style="stop-color:#000000;stop-opacity:0;"
         offset="0"
         id="stop1" />
      <stop
         id="stop8"
         offset="0.66102529"
         style="stop-color:#000000;stop-opacity:0" />
      <stop
         style="stop-color:#000000;stop-opacity:1;"
         offset="1"
         id="stop9" />
    </linearGradient>
    <linearGradient
       id="linearGradient7"
       inkscape:collect="always">
      <stop
         style="stop-color:#000000;stop-opacity:0;"
         offset="0"
         id="stop5" />
      <stop
         id="stop6"
         offset="0.6586886"
         style="stop-color:#000000;stop-opacity:0" />
      <stop
         style="stop-color:#000000;stop-opacity:1;"
         offset="1"
         id="stop7" />
    </linearGradient>
    <linearGradient
       id="linearGradient4"
       inkscape:collect="always">
      <stop
         style="stop-color:#000000;stop-opacity:0;"
         offset="0"
         id="stop2" />
      <stop
         id="stop3"
         offset="0.67055255"
         style="stop-color:#000000;stop-opacity:0" />
      <stop
         style="stop-color:#000000;stop-opacity:1;"
         offset="1"
         id="stop4" />
    </linearGradient>
    <linearGradient
       inkscape:collect="always"
       id="linearGradient899">
      <stop
         style="stop-color:#b380ff;stop-opacity:1;"
         offset="0"
         id="stop895" />
      <stop
         style="stop-color:#2a7fff;stop-opacity:1;"
         offset="1"
         id="stop897" />
    </linearGradient>
    <linearGradient
       id="linearGradient1167"
       x1="40.751999"
       x2="40.751999"
       y1="28.507999"
       y2="17.205999"
       gradientUnits="userSpaceOnUse">
      <stop
         style="stop-color:#84fb6e;stop-opacity:1"
         stop-color="#0ab816"
         offset="0"
         id="stop1163" />
      <stop
         style="stop-color:#0dd41a;stop-opacity:1"
         stop-color="#0cf36c"
         offset="1"
         id="stop1165" />
    </linearGradient>
    <linearGradient
       id="cornerBevel"
       inkscape:collect="always">
      <stop
         style="stop-color:#000000;stop-opacity:0;"
         offset="0"
         id="stop2663" />
      <stop
         id="stop2671"
         offset="0.66666675"
         style="stop-color:#000000;stop-opacity:0" />
      <stop
         style="stop-color:#000000;stop-opacity:1;"
         offset="1"
         id="stop2661" />
    </linearGradient>
    <linearGradient
       id="bevel"
       inkscape:collect="always">
      <stop
         id="stop2685"
         offset="0"
         style="stop-color:#000000;stop-opacity:1;" />
      <stop
         id="stop2687"
         offset="1"
         style="stop-color:#000000;stop-opacity:0;" />
    </linearGradient>
    <linearGradient
       id="highlightCorner"
       inkscape:collect="always">
      <stop
         style="stop-color:#ffffff;stop-opacity:0;"
         offset="0"
         id="stop2613" />
      <stop
         id="stop2621"
         offset="0.66666669"
         style="stop-color:#ffffff;stop-opacity:0" />
      <stop
         style="stop-color:#ffffff;stop-opacity:1;"
         offset="1"
         id="stop2611" />
    </linearGradient>
    <linearGradient
       inkscape:collect="always"
       id="highlight">
      <stop
         style="stop-color:#ffffff;stop-opacity:1;"
         offset="0"
         id="stop2921" />
      <stop
         style="stop-color:#ffffff;stop-opacity:0;"
         offset="1"
         id="stop2923" />
    </linearGradient>
    <radialGradient
       inkscape:collect="always"
       xlink:href="#highlightCorner"
       id="radialGradient15"
       gradientUnits="userSpaceOnUse"
       gradientTransform="matrix(0.04294597,-12.079348,17.933991,0.06376112,14.524179,-50.373789)"
       cx="-4.5799766"
       cy="-0.50206107"
       fx="-4.5799766"
       fy="-0.50206107"
       r="0.39687499" />
    <linearGradient
       inkscape:collect="always"
       xlink:href="#highlight"
       id="linearGradient15"
       gradientUnits="userSpaceOnUse"
       x1="-3.8453064"
       y1="-1.1532172"
       x2="-3.8453064"
       y2="-0.8954913"
       gradientTransform="matrix(6.0923077,0,0,6.0923077,32.228528,7.1537621)" />
    <radialGradient
       inkscape:collect="always"
       xlink:href="#linearGradient12"
       id="radialGradient17"
       gradientUnits="userSpaceOnUse"
       gradientTransform="matrix(-0.02247554,-12.045403,-17.967828,0.03352619,1.6640208,-50.22331)"
       cx="-4.575222"
       cy="-0.55256462"
       fx="-4.575222"
       fy="-0.55256462"
       r="0.39687499" />
    <radialGradient
       inkscape:collect="always"
       xlink:href="#linearGradient7"
       id="radialGradient18"
       gradientUnits="userSpaceOnUse"
       gradientTransform="matrix(0.06461187,12.09952,17.933731,-0.09576873,14.609502,64.748231)"
       cx="-4.4284906"
       cy="-0.50121039"
       fx="-4.4284906"
       fy="-0.50121039"
       r="0.39687499" />
    <linearGradient
       inkscape:collect="always"
       xlink:href="#bevel"
       id="linearGradient18"
       gradientUnits="userSpaceOnUse"
       x1="-3.8415797"
       y1="-1.4506671"
       x2="-3.8406549"
       y2="-1.1968651"
       gradientTransform="matrix(6.0923076,0,0,6.0923076,32.228527,-7.1537627)" />
    <radialGradient
       inkscape:collect="always"
       xlink:href="#linearGradient4"
       id="radialGradient20"
       gradientUnits="userSpaceOnUse"
       gradientTransform="matrix(-0.01031383,11.991438,-17.967296,-0.01545561,1.7353715,64.305742)"
       cx="-4.4236727"
       cy="-0.55004197"
       fx="-4.4236727"
       fy="-0.55004197"
       r="0.39687499" />
    <radialGradient
       inkscape:collect="always"
       xlink:href="#cornerBevel"
       id="radialGradient25"
       gradientUnits="userSpaceOnUse"
       gradientTransform="matrix(12.184614,0,0,12.184614,59.63122,10.377613)"
       cx="-4.4568658"
       cy="-0.44864327"
       fx="-4.4568658"
       fy="-0.44864327"
       r="0.39687496" />
    <linearGradient
       inkscape:collect="always"
       xlink:href="#bevel"
       id="linearGradient25"
       gradientUnits="userSpaceOnUse"
       x1="-3.8487544"
       y1="-1.146081"
       x2="-3.8455966"
       y2="-0.890971"
       gradientTransform="matrix(6.0923077,0,0,6.0923077,32.228528,7.1537627)" />
    <radialGradient
       inkscape:collect="always"
       xlink:href="#cornerBevel"
       id="radialGradient29"
       gradientUnits="userSpaceOnUse"
       gradientTransform="matrix(0,-12.184614,12.184614,0,11.27353,-44.427768)"
       cx="-4.5705457"
       cy="-0.48653662"
       fx="-4.5705457"
       fy="-0.48653662"
       r="0.39687496" />
    <radialGradient
       inkscape:collect="always"
       xlink:href="#cornerBevel"
       id="radialGradient30"
       gradientUnits="userSpaceOnUse"
       gradientTransform="matrix(-12.184514,-0.04945749,0.04847411,-11.942243,-43.502155,3.8519053)"
       cx="-4.5342312"
       cy="-0.60337442"
       fx="-4.5342312"
       fy="-0.60337442"
       r="0.39687496" />
    <radialGradient
       inkscape:collect="always"
       xlink:href="#linearGradient9"
       id="radialGradient31"
       gradientUnits="userSpaceOnUse"
       gradientTransform="matrix(0,-12.151612,11.978956,0,18.475664,-48.770776)"
       cx="-4.4175329"
       cy="-0.56489283"
       fx="-4.4175329"
       fy="-0.56489283"
       r="0.39687496" />
    <linearGradient
       inkscape:collect="always"
       xlink:href="#bevel"
       id="linearGradient34"
       gradientUnits="userSpaceOnUse"
       x1="-3.99717"
       y1="-1.2218677"
       x2="-4.0003276"
       y2="-0.96675771"
       gradientTransform="matrix(6.0923077,0,0,6.0923077,17.025077,8.0496826)" />
    <linearGradient
       inkscape:collect="always"
       xlink:href="#bevel"
       id="linearGradient35"
       gradientUnits="userSpaceOnUse"
       x1="-4.0919032"
       y1="-1.4492278"
       x2="-4.0950613"
       y2="-1.1972755"
       gradientTransform="matrix(6.0923077,0,0,6.0923077,16.129161,-7.1537627)" />
    <linearGradient
       inkscape:collect="always"
       xlink:href="#bevel"
       id="linearGradient36"
       gradientUnits="userSpaceOnUse"
       x1="-3.8734362"
       y1="-1.3717227"
       x2="-3.8765941"
       y2="-1.116071"
       gradientTransform="matrix(6.0923077,0,0,6.0923077,31.33261,-8.0496826)" />
    <linearGradient
       id="paint2_linear_77:3-7"
       x1="79.398094"
       y1="-197.84389"
       x2="82.901054"
       y2="-199.97827"
       gradientUnits="userSpaceOnUse"
       gradientTransform="matrix(1.9248511,0,0,1.7314595,-40.88733,399.61741)">
      <stop
         stop-color="#EBFAFF"
         stop-opacity="0.1"
         id="stop29-5-7"
         offset="0"
         style="stop-color:#c3c3c3;stop-opacity:1;" />
      <stop
         offset="1"
         stop-color="#70A9FF"
         stop-opacity="0.5"
         id="stop30-0-1"
         style="stop-color:#05c7ff;stop-opacity:0.80000001;" />
    </linearGradient>
    <linearGradient
       inkscape:collect="always"
       xlink:href="#linearGradient899"
       id="linearGradient926"
       x1="0.98894888"
       y1="-9.3406019"
       x2="16.919081"
       y2="-9.2251434"
       gradientUnits="userSpaceOnUse"
       gradientTransform="translate(-0.92604234,0.47624996)" />
    <linearGradient
       id="a"
       x1="7.9369998"
       x2="7.9369998"
       y1="15.081"
       y2="1.852"
       gradientTransform="matrix(0.89278359,0,0,0.89278351,0.90778552,0.91466447)"
       gradientUnits="userSpaceOnUse">
      <stop
         offset="0"
         stop-color="#f1efeb"
         id="stop1-3" />
      <stop
         offset="1"
         stop-color="#fff"
         id="stop2-3" />
    </linearGradient>
    <linearGradient
       id="d-3"
       gradientUnits="userSpaceOnUse"
       x1="6"
       x2="6"
       xlink:href="#a-6"
       y1="58"
       y2="6"
       gradientTransform="scale(0.26458333)" />
    <linearGradient
       id="a-6"
       gradientUnits="userSpaceOnUse"
       x1="6"
       x2="6"
       y1="58"
       y2="6">
      <stop
         offset="0"
         stop-color="#98a7b0"
         id="stop48" />
      <stop
         offset="1"
         stop-color="#dde1e3"
         id="stop50" />
    </linearGradient>
    <linearGradient
       id="j"
       gradientUnits="userSpaceOnUse"
       x1="32"
       x2="32"
       y1="36"
       y2="28"
       gradientTransform="scale(0.26458333)">
      <stop
         offset="0"
         stop-color="#5c7274"
         id="stop21" />
      <stop
         offset="1"
         stop-color="#a4a4a4"
         id="stop23" />
    </linearGradient>
    <linearGradient
       inkscape:collect="always"
       xlink:href="#linearGradient1"
       id="linearGradient3"
       x1="16.926458"
       y1="10.156886"
       x2="42.881199"
       y2="41.530052"
       gradientUnits="userSpaceOnUse"
       gradientTransform="matrix(0.33899726,0,0,0.34017845,-0.49609377,-0.52917471)" />
    <linearGradient
       id="linearGradient1"
       inkscape:collect="always">
      <stop
         style="stop-color:#ffffff;stop-opacity:1;"
         offset="0"
         id="stop1-36" />
      <stop
         style="stop-color:#eab8ea;stop-opacity:1;"
         offset="1"
         id="stop3-7" />
    </linearGradient>
  </defs>
  <sodipodi:namedview
     id="base"
     pagecolor="#e2e2e2"
     bordercolor="#666666"
     borderopacity="1.0"
     inkscape:pageopacity="0"
     inkscape:pageshadow="2"
     inkscape:zoom="4.8624365"
     inkscape:cx="38.252428"
     inkscape:cy="79.384071"
     inkscape:document-units="px"
     inkscape:current-layer="layer1"
     inkscape:document-rotation="0"
     showgrid="false"
     units="px"
     inkscape:window-width="1920"
     inkscape:window-height="998"
     inkscape:window-x="0"
     inkscape:window-y="0"
     inkscape:window-maximized="1"
     inkscape:object-paths="true"
     inkscape:snap-grids="true"
     inkscape:snap-intersection-paths="true"
     inkscape:snap-smooth-nodes="true"
     inkscape:snap-midpoints="true"
     inkscape:showpageshadow="2"
     inkscape:pagecheckerboard="0"
     inkscape:deskcolor="#d1d1d1">
    <inkscape:grid
       id="grid2"
       units="px"
       originx="0"
       originy="0"
       spacingx="0.26458333"
       spacingy="0.26458333"
       empcolor="#0099e5"
       empopacity="0.30196078"
       color="#0099e5"
       opacity="0.14902"
       empspacing="5"
       dotted="false"
       gridanglex="30"
       gridanglez="30"
       visible="false" />
  </sodipodi:namedview>
  <metadata
     id="metadata1111">
    <rdf:RDF>
      <cc:Work
         rdf:about="">
        <dc:format>image/svg+xml</dc:format>
        <dc:type
           rdf:resource="http://purl.org/dc/dcmitype/StillImage" />
      </cc:Work>
    </rdf:RDF>
  </metadata>
  <g
     inkscape:label="Layer 1"
     inkscape:groupmode="layer"
     id="layer1">
    <g
       id="g918"
       transform="translate(0.47625037,0.92604234)">
      <rect
         ry="4.8357682"
         rx="4.8357682"
         style="fill:url(#linearGradient926);fill-opacity:1;stroke-width:6.09228"
         x="0.13229237"
         y="-16.457085"
         width="15.875001"
         height="15.875001"
         id="use1056"
         transform="rotate(90)"
         class="ColorScheme-Highlight" />
      <path
         d="m 5.344583,0.13229167 c -2.6384245,0 -4.76249953,2.12407483 -4.76249953,4.76249963 H 5.344583 Z"
         style="opacity:0.15;fill:url(#radialGradient25);fill-opacity:1;stroke-width:6.09228"
         id="path20" />
      <rect
         y="0.13229151"
         x="5.3445826"
         height="1.5875"
         width="6.3500004"
         id="rect20"
         style="opacity:0.15;fill:url(#linearGradient25);fill-opacity:1;stroke-width:4.83577;stroke-linecap:round;stroke-linejoin:round;paint-order:stroke fill markers" />
      <path
         d="m 0.58208347,11.244792 c 0,2.638424 2.12407503,4.762499 4.76249953,4.762499 v -4.762499 z"
         style="opacity:0.15;fill:url(#radialGradient29);fill-opacity:1;stroke-width:6.09228"
         id="use20" />
      <rect
         y="0.5820834"
         x="-11.244792"
         height="1.5875"
         width="6.3500004"
         id="use21"
         style="opacity:0.15;fill:url(#linearGradient34);fill-opacity:1;stroke-width:4.83577;stroke-linecap:round;stroke-linejoin:round;paint-order:stroke fill markers"
         transform="rotate(-90)" />
      <path
         d="m 11.694583,16.007291 c 2.638425,0 4.7625,-2.124074 4.7625,-4.762499 h -4.7625 z"
         style="opacity:0.15;fill:url(#radialGradient30);fill-opacity:1;stroke-width:6.09228"
         id="use22" />
      <rect
         y="-16.007292"
         x="-11.694584"
         height="1.5875"
         width="6.3500004"
         id="use23"
         style="opacity:0.15;fill:url(#linearGradient35);fill-opacity:1;stroke-width:4.83577;stroke-linecap:round;stroke-linejoin:round;paint-order:stroke fill markers"
         transform="scale(-1)" />
      <path
         d="m 16.457083,4.8947913 c 0,-2.6384245 -2.124074,-4.76249963 -4.7625,-4.76249963 V 4.8947913 Z"
         style="opacity:0.15;fill:url(#radialGradient31);fill-opacity:1;stroke-width:6.09228"
         id="use24" />
      <rect
         y="-16.457081"
         x="4.8947906"
         height="1.5875"
         width="6.3500004"
         id="use25"
         style="opacity:0.15;fill:url(#linearGradient36);fill-opacity:1;stroke-width:4.83577;stroke-linecap:round;stroke-linejoin:round;paint-order:stroke fill markers"
         transform="rotate(90)" />
      <path
         d="m 5.3445832,0.13229107 c -2.638425,0 -4.76250035,2.12407473 -4.76250035,4.76249973 H 5.3445832 Z"
         style="opacity:0.5;fill:url(#radialGradient15);fill-opacity:1;stroke-width:6.09228"
         id="path14" />
      <rect
         y="0.1322909"
         x="5.3445826"
         height="1.5875"
         width="6.3499999"
         id="rect14"
         style="opacity:0.5;fill:url(#linearGradient15);fill-opacity:1;stroke-width:4.83577;stroke-linecap:round;stroke-linejoin:round;paint-order:stroke fill markers" />
      <path
         d="m 11.694583,0.13229096 c 2.638425,0 4.7625,2.12407504 4.7625,4.76249734 h -4.7625 z"
         style="opacity:0.5;fill:url(#radialGradient17);fill-opacity:1;stroke-width:6.09228"
         id="use14" />
      <path
         id="path17"
         style="opacity:0.5;fill:url(#radialGradient18);fill-opacity:1;stroke-width:6.09228"
         d="m 5.3445834,16.00729 c -2.638425,0 -4.7625,-2.124075 -4.7625,-4.7625 h 4.7625 z" />
      <rect
         style="opacity:0.5;fill:url(#linearGradient18);fill-opacity:1;stroke-width:4.83577;stroke-linecap:round;stroke-linejoin:round;paint-order:stroke fill markers"
         id="rect17"
         width="6.3499994"
         height="1.5874999"
         x="5.3445826"
         y="-16.007292"
         transform="scale(1,-1)" />
      <path
         id="use17"
         style="opacity:0.5;fill:url(#radialGradient20);fill-opacity:1;stroke-width:6.09228"
         d="m 11.694582,16.007291 c 2.638425,0 4.7625,-2.124075 4.7625,-4.7625 h -4.7625 z" />
    </g>
    <rect
       width="13.229166"
       height="13.229165"
       x="2.3812497"
       y="2.3812501"
       rx="3.6849496"
       ry="3.7431052"
       id="rect2"
       style="fill:#273e66;stroke-width:0.264582;fill-opacity:1" />
    <g
       id="g924"
       style="opacity:0.440563;stroke-width:2.1034"
       transform="matrix(0.61533873,0,0,0.60507151,-1.3586095,-1.3093027)">
      <path
         style="fill:#6b00d4;fill-opacity:0.309001;stroke-width:0.864889"
         d="m 10.890981,9.676859 c -0.9111662,0 -1.6447052,0.733537 -1.6447052,1.644705 v 3.700584 c 0,0.911168 0.733539,1.644704 1.6447052,1.644704 h 1.644705 c 0.911166,0 1.644705,-0.733536 1.644705,-1.644704 v -3.700584 c 0,-0.911168 -0.733539,-1.644705 -1.644705,-1.644705 z m 5.756465,0 c -0.911166,0 -1.644703,0.733537 -1.644703,1.644705 v 3.700584 c 0,0.911168 0.733537,1.644704 1.644703,1.644704 h 1.644704 c 0.776262,0 1.419441,-0.534142 1.594111,-1.25521 l -1.232727,-0.528427 c -0.112352,0.32011 -0.413112,0.550109 -0.77256,0.550109 h -0.822352 c -0.455582,0 -0.822353,-0.366769 -0.822353,-0.822353 v -2.87823 c 0,-0.455585 0.366771,-0.822353 0.822353,-0.822353 h 0.822352 c 0.359448,0 0.660201,0.229992 0.77256,0.550108 L 19.886261,10.93207 C 19.711589,10.211001 19.068412,9.676859 18.29215,9.676859 Z m 5.756463,0 c -0.911164,0 -1.644702,0.733537 -1.644702,1.644705 v 3.700584 c 0,0.911168 0.733538,1.644704 1.644702,1.644704 h 1.644705 c 0.776262,0 1.419441,-0.534142 1.594112,-1.25521 L 24.41,14.883215 c -0.112352,0.32011 -0.413115,0.550109 -0.772562,0.550109 h -0.82235 c -0.455584,0 -0.822355,-0.366769 -0.822355,-0.822353 v -2.87823 c 0,-0.455585 0.366771,-0.822353 0.822355,-0.822353 h 0.82235 c 0.359447,0 0.660201,0.229992 0.772562,0.550108 L 25.642726,10.93207 C 25.468053,10.211001 24.824876,9.676859 24.048614,9.676859 Z m -11.101752,1.233529 h 0.822353 c 0.455584,0 0.822352,0.366768 0.822352,0.822353 v 2.87823 c 0,0.455584 -0.366768,0.822353 -0.822352,0.822353 h -0.822353 c -0.455583,0 -0.822352,-0.366769 -0.822352,-0.822353 v -2.87823 c 0,-0.455585 0.366769,-0.822353 0.822352,-0.822353 z m 2.467058,6.989993 c -0.911168,0 -1.644705,0.733537 -1.644705,1.644705 v 5.345287 h 1.233528 v -3.289409 h 2.467055 v -1.233527 h -2.467055 v -1.233528 h 3.700584 v -1.233528 z m 4.522935,0 v 1.233528 h 1.644705 v 5.756464 h 1.233529 v -5.756464 h 1.644704 v -1.233528 z"
         id="path918" />
      <path
         d="m 11.506435,9.95294 c -0.911166,0 -1.6447052,0.733537 -1.6447052,1.644705 v 3.700584 c 0,0.911168 0.7335392,1.644704 1.6447052,1.644704 h 1.644705 c 0.911166,0 1.644705,-0.733536 1.644705,-1.644704 v -3.700584 c 0,-0.911168 -0.733539,-1.644705 -1.644705,-1.644705 z m 5.756465,0 c -0.911166,0 -1.644703,0.733537 -1.644703,1.644705 v 3.700584 c 0,0.911168 0.733537,1.644704 1.644703,1.644704 h 1.644704 c 0.776262,0 1.419441,-0.534142 1.594111,-1.25521 l -1.232727,-0.528427 c -0.112352,0.32011 -0.413112,0.550109 -0.77256,0.550109 h -0.822352 c -0.455582,0 -0.822353,-0.366769 -0.822353,-0.822353 v -2.87823 c 0,-0.455585 0.366771,-0.822353 0.822353,-0.822353 h 0.822352 c 0.359448,0 0.660201,0.229992 0.77256,0.550108 l 1.232727,-0.528426 C 20.327043,10.487082 19.683866,9.95294 18.907604,9.95294 Z m 5.756463,0 c -0.911164,0 -1.644702,0.733537 -1.644702,1.644705 v 3.700584 c 0,0.911168 0.733538,1.644704 1.644702,1.644704 h 1.644705 c 0.776262,0 1.419441,-0.534142 1.594112,-1.25521 l -1.232726,-0.528427 c -0.112352,0.32011 -0.413115,0.550109 -0.772562,0.550109 h -0.82235 c -0.455584,0 -0.822355,-0.366769 -0.822355,-0.822353 v -2.87823 c 0,-0.455585 0.366771,-0.822353 0.822355,-0.822353 h 0.82235 c 0.359447,0 0.660201,0.229992 0.772562,0.550108 L 26.25818,11.208151 C 26.083507,10.487082 25.44033,9.95294 24.664068,9.95294 Z m -11.101752,1.233529 h 0.822353 c 0.455584,0 0.822352,0.366768 0.822352,0.822353 v 2.87823 c 0,0.455584 -0.366768,0.822353 -0.822352,0.822353 h -0.822353 c -0.455583,0 -0.822352,-0.366769 -0.822352,-0.822353 v -2.87823 c 0,-0.455585 0.366769,-0.822353 0.822352,-0.822353 z m 2.467058,6.989993 c -0.911168,0 -1.644705,0.733537 -1.644705,1.644705 v 5.345287 h 1.233528 v -3.289409 h 2.467055 V 20.643518 H 13.973492 V 19.40999 h 3.700584 v -1.233528 z m 4.522935,0 v 1.233528 h 1.644705 v 5.756464 h 1.233529 V 19.40999 h 1.644704 v -1.233528 z"
         id="path920"
         style="fill:#6700cc;fill-opacity:0.3" />
    </g>
    <path
       d="m 4.9632001,4.3932023 c -0.560674,0 -1.01205,0.443851 -1.01205,0.995162 v 2.239111 c 0,0.551335 0.451376,0.995169 1.01205,0.995169 h 1.0120521 c 0.5606755,0 1.0120498,-0.443834 1.0120498,-0.995169 v -2.239111 c 0,-0.551311 -0.4513743,-0.995162 -1.0120498,-0.995162 z m 3.5421782,0 c -0.5606771,0 -1.0120509,0.443851 -1.0120509,0.995162 v 2.239111 c 0,0.551335 0.4513738,0.995169 1.0120509,0.995169 h 1.012052 c 0.4776576,0 0.8734317,-0.323187 0.9809127,-0.759485 L 9.7398003,7.5434223 c -0.06909,0.193693 -0.254207,0.332853 -0.475392,0.332853 h -0.506019 c -0.280337,0 -0.506026,-0.221917 -0.506026,-0.497585 v -1.741536 c 0,-0.275655 0.225689,-0.497585 0.506026,-0.497585 h 0.506019 c 0.221185,0 0.40626,0.139167 0.475392,0.332871 L 10.498343,5.1526993 C 10.39084,4.7164013 9.9950879,4.3932023 9.5174303,4.3932023 Z m 3.5421687,0 c -0.560662,0 -1.012046,0.443851 -1.012046,0.995162 v 2.239111 c 0,0.551335 0.451384,0.995169 1.012046,0.995169 H 13.0596 c 0.477669,0 0.873433,-0.323187 0.980919,-0.759485 l -0.758542,-0.319737 c -0.06913,0.193693 -0.254207,0.332853 -0.47539,0.332853 h -0.506019 c -0.280341,0 -0.506039,-0.221917 -0.506039,-0.497585 v -1.741536 c 0,-0.275655 0.225698,-0.497585 0.506039,-0.497585 h 0.506019 c 0.221183,0 0.406253,0.139167 0.47539,0.332871 l 0.758542,-0.319741 C 13.933014,4.7164013 13.537269,4.3932023 13.0596,4.3932023 Z m -6.8313344,0.746367 h 0.5060262 c 0.2803392,0 0.506026,0.22193 0.506026,0.497585 v 1.741536 c 0,0.275668 -0.2256868,0.497585 -0.506026,0.497585 H 5.2162126 c -0.2803375,0 -0.5060237,-0.221917 -0.5060237,-0.497585 v -1.741536 c 0,-0.275655 0.2256862,-0.497585 0.5060237,-0.497585 z m 1.5180769,4.229453 c -0.5606778,0 -1.0120507,0.4438468 -1.0120507,0.9951577 v 3.234288 H 6.4812767 V 11.608132 H 7.999351 V 10.861765 H 6.4812767 V 10.115396 H 8.7583893 V 9.3690223 Z m 2.7831408,0 v 0.7463737 h 1.0120467 v 3.483072 h 0.75904 v -3.483072 h 1.012051 V 9.3690223 Z"
       id="path10"
       style="fill:url(#linearGradient3);fill-opacity:1;stroke-width:0.339592" />
  </g>
</svg>
