<?xml version="1.0" encoding="UTF-8" standalone="no"?>
<svg
   width="68"
   height="68"
   viewBox="0 0 17.991665 17.991665"
   version="1.1"
   id="svg1114"
   inkscape:version="1.3.2 (091e20ef0f, 2023-11-25)"
   sodipodi:docname="apk-editor-estudio.svg"
   xmlns:inkscape="http://www.inkscape.org/namespaces/inkscape"
   xmlns:sodipodi="http://sodipodi.sourceforge.net/DTD/sodipodi-0.dtd"
   xmlns:xlink="http://www.w3.org/1999/xlink"
   xmlns="http://www.w3.org/2000/svg"
   xmlns:svg="http://www.w3.org/2000/svg"
   xmlns:rdf="http://www.w3.org/1999/02/22-rdf-syntax-ns#"
   xmlns:cc="http://creativecommons.org/ns#"
   xmlns:dc="http://purl.org/dc/elements/1.1/">
  <style
     type="text/css"
     id="current-color-scheme">.ColorScheme-Highlight { color:#5599ff; }
</style>
  <defs
     id="defs1108">
    <linearGradient
       id="linearGradient12"
       inkscape:collect="always">
      <stop
         style="stop-color:#ffffff;stop-opacity:0;"
         offset="0"
         id="stop10" />
      <stop
         id="stop11"
         offset="0.65909404"
         style="stop-color:#ffffff;stop-opacity:0" />
      <stop
         style="stop-color:#ffffff;stop-opacity:1;"
         offset="1"
         id="stop12" />
    </linearGradient>
    <linearGradient
       id="linearGradient9"
       inkscape:collect="always">
      <stop
         style="stop-color:#000000;stop-opacity:0;"
         offset="0"
         id="stop1" />
      <stop
         id="stop8"
         offset="0.66102529"
         style="stop-color:#000000;stop-opacity:0" />
      <stop
         style="stop-color:#000000;stop-opacity:1;"
         offset="1"
         id="stop9" />
    </linearGradient>
    <linearGradient
       id="linearGradient7"
       inkscape:collect="always">
      <stop
         style="stop-color:#000000;stop-opacity:0;"
         offset="0"
         id="stop5" />
      <stop
         id="stop6"
         offset="0.6586886"
         style="stop-color:#000000;stop-opacity:0" />
      <stop
         style="stop-color:#000000;stop-opacity:1;"
         offset="1"
         id="stop7" />
    </linearGradient>
    <linearGradient
       id="linearGradient4"
       inkscape:collect="always">
      <stop
         style="stop-color:#000000;stop-opacity:0;"
         offset="0"
         id="stop2" />
      <stop
         id="stop3"
         offset="0.67055255"
         style="stop-color:#000000;stop-opacity:0" />
      <stop
         style="stop-color:#000000;stop-opacity:1;"
         offset="1"
         id="stop4" />
    </linearGradient>
    <linearGradient
       inkscape:collect="always"
       id="linearGradient899">
      <stop
         style="stop-color:#80b3ff;stop-opacity:1;"
         offset="0"
         id="stop895" />
      <stop
         style="stop-color:#5599ff;stop-opacity:1;"
         offset="1"
         id="stop897" />
    </linearGradient>
    <linearGradient
       id="linearGradient1167"
       x1="40.751999"
       x2="40.751999"
       y1="28.507999"
       y2="17.205999"
       gradientUnits="userSpaceOnUse">
      <stop
         style="stop-color:#84fb6e;stop-opacity:1"
         stop-color="#0ab816"
         offset="0"
         id="stop1163" />
      <stop
         style="stop-color:#0dd41a;stop-opacity:1"
         stop-color="#0cf36c"
         offset="1"
         id="stop1165" />
    </linearGradient>
    <linearGradient
       id="cornerBevel"
       inkscape:collect="always">
      <stop
         style="stop-color:#000000;stop-opacity:0;"
         offset="0"
         id="stop2663" />
      <stop
         id="stop2671"
         offset="0.66666675"
         style="stop-color:#000000;stop-opacity:0" />
      <stop
         style="stop-color:#000000;stop-opacity:1;"
         offset="1"
         id="stop2661" />
    </linearGradient>
    <linearGradient
       id="bevel"
       inkscape:collect="always">
      <stop
         id="stop2685"
         offset="0"
         style="stop-color:#000000;stop-opacity:1;" />
      <stop
         id="stop2687"
         offset="1"
         style="stop-color:#000000;stop-opacity:0;" />
    </linearGradient>
    <linearGradient
       id="highlightCorner"
       inkscape:collect="always">
      <stop
         style="stop-color:#ffffff;stop-opacity:0;"
         offset="0"
         id="stop2613" />
      <stop
         id="stop2621"
         offset="0.66666669"
         style="stop-color:#ffffff;stop-opacity:0" />
      <stop
         style="stop-color:#ffffff;stop-opacity:1;"
         offset="1"
         id="stop2611" />
    </linearGradient>
    <linearGradient
       inkscape:collect="always"
       id="highlight">
      <stop
         style="stop-color:#ffffff;stop-opacity:1;"
         offset="0"
         id="stop2921" />
      <stop
         style="stop-color:#ffffff;stop-opacity:0;"
         offset="1"
         id="stop2923" />
    </linearGradient>
    <radialGradient
       inkscape:collect="always"
       xlink:href="#highlightCorner"
       id="radialGradient15"
       gradientUnits="userSpaceOnUse"
       gradientTransform="matrix(0.04294597,-12.079348,17.933991,0.06376112,14.524179,-50.373789)"
       cx="-4.5799766"
       cy="-0.50206107"
       fx="-4.5799766"
       fy="-0.50206107"
       r="0.39687499" />
    <linearGradient
       inkscape:collect="always"
       xlink:href="#highlight"
       id="linearGradient15"
       gradientUnits="userSpaceOnUse"
       x1="-3.8453064"
       y1="-1.1532172"
       x2="-3.8453064"
       y2="-0.8954913"
       gradientTransform="matrix(6.0923077,0,0,6.0923077,32.228528,7.1537621)" />
    <radialGradient
       inkscape:collect="always"
       xlink:href="#linearGradient12"
       id="radialGradient17"
       gradientUnits="userSpaceOnUse"
       gradientTransform="matrix(-0.02247554,-12.045403,-17.967828,0.03352619,1.6640208,-50.22331)"
       cx="-4.575222"
       cy="-0.55256462"
       fx="-4.575222"
       fy="-0.55256462"
       r="0.39687499" />
    <radialGradient
       inkscape:collect="always"
       xlink:href="#linearGradient7"
       id="radialGradient18"
       gradientUnits="userSpaceOnUse"
       gradientTransform="matrix(0.06461187,12.09952,17.933731,-0.09576873,14.609502,64.748231)"
       cx="-4.4284906"
       cy="-0.50121039"
       fx="-4.4284906"
       fy="-0.50121039"
       r="0.39687499" />
    <linearGradient
       inkscape:collect="always"
       xlink:href="#bevel"
       id="linearGradient18"
       gradientUnits="userSpaceOnUse"
       x1="-3.8415797"
       y1="-1.4506671"
       x2="-3.8406549"
       y2="-1.1968651"
       gradientTransform="matrix(6.0923076,0,0,6.0923076,32.228527,-7.1537627)" />
    <radialGradient
       inkscape:collect="always"
       xlink:href="#linearGradient4"
       id="radialGradient20"
       gradientUnits="userSpaceOnUse"
       gradientTransform="matrix(-0.01031383,11.991438,-17.967296,-0.01545561,1.7353715,64.305742)"
       cx="-4.4236727"
       cy="-0.55004197"
       fx="-4.4236727"
       fy="-0.55004197"
       r="0.39687499" />
    <radialGradient
       inkscape:collect="always"
       xlink:href="#cornerBevel"
       id="radialGradient25"
       gradientUnits="userSpaceOnUse"
       gradientTransform="matrix(12.184614,0,0,12.184614,59.63122,10.377613)"
       cx="-4.4568658"
       cy="-0.44864327"
       fx="-4.4568658"
       fy="-0.44864327"
       r="0.39687496" />
    <linearGradient
       inkscape:collect="always"
       xlink:href="#bevel"
       id="linearGradient25"
       gradientUnits="userSpaceOnUse"
       x1="-3.8487544"
       y1="-1.146081"
       x2="-3.8455966"
       y2="-0.890971"
       gradientTransform="matrix(6.0923077,0,0,6.0923077,32.228528,7.1537627)" />
    <radialGradient
       inkscape:collect="always"
       xlink:href="#cornerBevel"
       id="radialGradient29"
       gradientUnits="userSpaceOnUse"
       gradientTransform="matrix(0,-12.184614,12.184614,0,11.27353,-44.427768)"
       cx="-4.5705457"
       cy="-0.48653662"
       fx="-4.5705457"
       fy="-0.48653662"
       r="0.39687496" />
    <radialGradient
       inkscape:collect="always"
       xlink:href="#cornerBevel"
       id="radialGradient30"
       gradientUnits="userSpaceOnUse"
       gradientTransform="matrix(-12.184514,-0.04945749,0.04847411,-11.942243,-43.502155,3.8519053)"
       cx="-4.5342312"
       cy="-0.60337442"
       fx="-4.5342312"
       fy="-0.60337442"
       r="0.39687496" />
    <radialGradient
       inkscape:collect="always"
       xlink:href="#linearGradient9"
       id="radialGradient31"
       gradientUnits="userSpaceOnUse"
       gradientTransform="matrix(0,-12.151612,11.978956,0,18.475664,-48.770776)"
       cx="-4.4175329"
       cy="-0.56489283"
       fx="-4.4175329"
       fy="-0.56489283"
       r="0.39687496" />
    <linearGradient
       inkscape:collect="always"
       xlink:href="#bevel"
       id="linearGradient34"
       gradientUnits="userSpaceOnUse"
       x1="-3.99717"
       y1="-1.2218677"
       x2="-4.0003276"
       y2="-0.96675771"
       gradientTransform="matrix(6.0923077,0,0,6.0923077,17.025077,8.0496826)" />
    <linearGradient
       inkscape:collect="always"
       xlink:href="#bevel"
       id="linearGradient35"
       gradientUnits="userSpaceOnUse"
       x1="-4.0919032"
       y1="-1.4492278"
       x2="-4.0950613"
       y2="-1.1972755"
       gradientTransform="matrix(6.0923077,0,0,6.0923077,16.129161,-7.1537627)" />
    <linearGradient
       inkscape:collect="always"
       xlink:href="#bevel"
       id="linearGradient36"
       gradientUnits="userSpaceOnUse"
       x1="-3.8734362"
       y1="-1.3717227"
       x2="-3.8765941"
       y2="-1.116071"
       gradientTransform="matrix(6.0923077,0,0,6.0923077,31.33261,-8.0496826)" />
    <linearGradient
       id="paint2_linear_77:3-7"
       x1="79.398094"
       y1="-197.84389"
       x2="82.901054"
       y2="-199.97827"
       gradientUnits="userSpaceOnUse"
       gradientTransform="matrix(1.9248511,0,0,1.7314595,-40.88733,399.61741)">
      <stop
         stop-color="#EBFAFF"
         stop-opacity="0.1"
         id="stop29-5-7"
         offset="0"
         style="stop-color:#c3c3c3;stop-opacity:1;" />
      <stop
         offset="1"
         stop-color="#70A9FF"
         stop-opacity="0.5"
         id="stop30-0-1"
         style="stop-color:#05c7ff;stop-opacity:0.80000001;" />
    </linearGradient>
    <linearGradient
       inkscape:collect="always"
       xlink:href="#linearGradient899"
       id="linearGradient926"
       x1="1.1521901"
       y1="-9.3133945"
       x2="16.919081"
       y2="-9.2251434"
       gradientUnits="userSpaceOnUse"
       gradientTransform="translate(-0.92604234,0.47624996)" />
    <linearGradient
       id="s"
       x1="-1129.7"
       x2="-1106.6"
       y1="944.53003"
       y2="962.73999"
       gradientTransform="matrix(0,0.33027508,0.34249609,0,-318.20579,377.70211)"
       gradientUnits="userSpaceOnUse">
      <stop
         stop-color="#BFBFBF"
         offset="0"
         id="stop5-6" />
      <stop
         stop-color="#fff"
         offset=".5"
         id="stop6-7" />
      <stop
         stop-color="#BFBFBF"
         offset="1"
         id="stop7-3" />
    </linearGradient>
    <linearGradient
       id="r"
       x1="-1196.7"
       x2="-1197.3"
       y1="860.46002"
       y2="818.53998"
       gradientTransform="matrix(0.10799212,0,0,0.10414375,1.5565706,1.7949999)"
       gradientUnits="userSpaceOnUse">
      <stop
         stop-color="#323232"
         offset="0"
         id="stop8-5"
         style="stop-color:#000000;stop-opacity:1;" />
      <stop
         offset="1"
         id="stop9-6" />
    </linearGradient>
    <linearGradient
       id="c"
       gradientUnits="userSpaceOnUse"
       x1="15"
       x2="38"
       y1="13"
       y2="36"
       gradientTransform="scale(0.2645834)">
      <stop
         offset="0"
         stop-color="#194f95"
         id="stop12-3" />
      <stop
         offset="1"
         stop-color="#194f95"
         stop-opacity="0"
         id="stop14" />
    </linearGradient>
  </defs>
  <sodipodi:namedview
     id="base"
     pagecolor="#e2e2e2"
     bordercolor="#666666"
     borderopacity="1.0"
     inkscape:pageopacity="0"
     inkscape:pageshadow="2"
     inkscape:zoom="9.7248729"
     inkscape:cx="26.52991"
     inkscape:cy="37.018479"
     inkscape:document-units="px"
     inkscape:current-layer="layer1"
     inkscape:document-rotation="0"
     showgrid="true"
     units="px"
     inkscape:window-width="1920"
     inkscape:window-height="990"
     inkscape:window-x="0"
     inkscape:window-y="0"
     inkscape:window-maximized="1"
     inkscape:object-paths="true"
     inkscape:snap-grids="true"
     inkscape:snap-intersection-paths="true"
     inkscape:snap-smooth-nodes="true"
     inkscape:snap-midpoints="true"
     inkscape:showpageshadow="2"
     inkscape:pagecheckerboard="0"
     inkscape:deskcolor="#d1d1d1">
    <inkscape:grid
       id="grid2"
       units="px"
       originx="0"
       originy="0"
       spacingx="0.26458333"
       spacingy="0.26458333"
       empcolor="#0099e5"
       empopacity="0.30196078"
       color="#0099e5"
       opacity="0.14902"
       empspacing="5"
       dotted="false"
       gridanglex="30"
       gridanglez="30"
       visible="true" />
  </sodipodi:namedview>
  <metadata
     id="metadata1111">
    <rdf:RDF>
      <cc:Work
         rdf:about="">
        <dc:format>image/svg+xml</dc:format>
        <dc:type
           rdf:resource="http://purl.org/dc/dcmitype/StillImage" />
      </cc:Work>
    </rdf:RDF>
  </metadata>
  <g
     inkscape:label="Layer 1"
     inkscape:groupmode="layer"
     id="layer1">
    <g
       id="g918"
       transform="translate(0.47625037,0.92604234)">
      <rect
         ry="4.8357682"
         rx="4.8357682"
         style="fill:url(#linearGradient926);fill-opacity:1;stroke-width:6.09228"
         x="0.13229237"
         y="-16.457085"
         width="15.875001"
         height="15.875001"
         id="use1056"
         transform="rotate(90)"
         class="ColorScheme-Highlight" />
      <path
         d="m 5.344583,0.13229167 c -2.6384245,0 -4.76249953,2.12407483 -4.76249953,4.76249963 H 5.344583 Z"
         style="opacity:0.15;fill:url(#radialGradient25);fill-opacity:1;stroke-width:6.09228"
         id="path20" />
      <rect
         y="0.13229151"
         x="5.3445826"
         height="1.5875"
         width="6.3500004"
         id="rect20"
         style="opacity:0.15;fill:url(#linearGradient25);fill-opacity:1;stroke-width:4.83577;stroke-linecap:round;stroke-linejoin:round;paint-order:stroke fill markers" />
      <path
         d="m 0.58208347,11.244792 c 0,2.638424 2.12407503,4.762499 4.76249953,4.762499 v -4.762499 z"
         style="opacity:0.15;fill:url(#radialGradient29);fill-opacity:1;stroke-width:6.09228"
         id="use20" />
      <rect
         y="0.5820834"
         x="-11.244792"
         height="1.5875"
         width="6.3500004"
         id="use21"
         style="opacity:0.15;fill:url(#linearGradient34);fill-opacity:1;stroke-width:4.83577;stroke-linecap:round;stroke-linejoin:round;paint-order:stroke fill markers"
         transform="rotate(-90)" />
      <path
         d="m 11.694583,16.007291 c 2.638425,0 4.7625,-2.124074 4.7625,-4.762499 h -4.7625 z"
         style="opacity:0.15;fill:url(#radialGradient30);fill-opacity:1;stroke-width:6.09228"
         id="use22" />
      <rect
         y="-16.007292"
         x="-11.694584"
         height="1.5875"
         width="6.3500004"
         id="use23"
         style="opacity:0.15;fill:url(#linearGradient35);fill-opacity:1;stroke-width:4.83577;stroke-linecap:round;stroke-linejoin:round;paint-order:stroke fill markers"
         transform="scale(-1)" />
      <path
         d="m 16.457083,4.8947913 c 0,-2.6384245 -2.124074,-4.76249963 -4.7625,-4.76249963 V 4.8947913 Z"
         style="opacity:0.15;fill:url(#radialGradient31);fill-opacity:1;stroke-width:6.09228"
         id="use24" />
      <rect
         y="-16.457081"
         x="4.8947906"
         height="1.5875"
         width="6.3500004"
         id="use25"
         style="opacity:0.15;fill:url(#linearGradient36);fill-opacity:1;stroke-width:4.83577;stroke-linecap:round;stroke-linejoin:round;paint-order:stroke fill markers"
         transform="rotate(90)" />
      <path
         d="m 5.3445832,0.13229107 c -2.638425,0 -4.76250035,2.12407473 -4.76250035,4.76249973 H 5.3445832 Z"
         style="opacity:0.5;fill:url(#radialGradient15);fill-opacity:1;stroke-width:6.09228"
         id="path14" />
      <rect
         y="0.1322909"
         x="5.3445826"
         height="1.5875"
         width="6.3499999"
         id="rect14"
         style="opacity:0.5;fill:url(#linearGradient15);fill-opacity:1;stroke-width:4.83577;stroke-linecap:round;stroke-linejoin:round;paint-order:stroke fill markers" />
      <path
         d="m 11.694583,0.13229096 c 2.638425,0 4.7625,2.12407504 4.7625,4.76249734 h -4.7625 z"
         style="opacity:0.5;fill:url(#radialGradient17);fill-opacity:1;stroke-width:6.09228"
         id="use14" />
      <path
         id="path17"
         style="opacity:0.5;fill:url(#radialGradient18);fill-opacity:1;stroke-width:6.09228"
         d="m 5.3445834,16.00729 c -2.638425,0 -4.7625,-2.124075 -4.7625,-4.7625 h 4.7625 z" />
      <rect
         style="opacity:0.5;fill:url(#linearGradient18);fill-opacity:1;stroke-width:4.83577;stroke-linecap:round;stroke-linejoin:round;paint-order:stroke fill markers"
         id="rect17"
         width="6.3499994"
         height="1.5874999"
         x="5.3445826"
         y="-16.007292"
         transform="scale(1,-1)" />
      <path
         id="use17"
         style="opacity:0.5;fill:url(#radialGradient20);fill-opacity:1;stroke-width:6.09228"
         d="m 11.694582,16.007291 c 2.638425,0 4.7625,-2.124075 4.7625,-4.7625 h -4.7625 z" />
    </g>
    <path
       id="rect890"
       style="fill:#ffffff;stroke:none;stroke-width:0.908741;stroke-linecap:round;stroke-linejoin:round;stroke-miterlimit:4;stroke-dasharray:none;stroke-opacity:1"
       d="m 4.2560448,3.7075435 a 0.21298239,0.21206058 0 0 0 -0.077376,0.03038 0.21298239,0.21206058 0 0 0 -0.063771,0.293241 L 4.8331563,5.1428266 C 4.221792,5.6945206 3.836465,6.4896696 3.836465,7.3796717 v 0.04748 h 6.0655592 v -0.04748 c 0,-0.8900021 -0.3853272,-1.6851511 -0.9966895,-2.2368491 L 9.6235934,4.0311595 a 0.21298239,0.21206058 0 0 0 -0.063777,-0.293241 0.21298239,0.21206058 0 0 0 -0.077371,-0.03018 0.21298239,0.21206058 0 0 0 -0.082916,10e-4 0.21298239,0.21206058 0 0 0 -0.1339475,0.09246 L 8.5706043,4.8769715 C 8.0859892,4.5504995 7.5009227,4.3598325 6.8692401,4.3598325 c -0.631542,0 -1.2168112,0.19052 -1.7013619,0.516899 L 4.4731864,3.8017365 a 0.21298239,0.21206058 0 0 0 -0.1339472,-0.09245 0.21298239,0.21206058 0 0 0 -0.083197,-0.0012 z m 1.1661347,1.9692931 a 0.44353098,0.44161132 0 0 1 0.4434351,0.441791 0.44353098,0.44161132 0 0 1 -0.4434351,0.44152 0.44353098,0.44161132 0 0 1 -0.4437141,-0.44152 0.44353098,0.44161132 0 0 1 0.4437141,-0.441791 z m 2.894397,0 a 0.44353098,0.44161132 0 0 1 0.4434363,0.441791 0.44353098,0.44161132 0 0 1 -0.4434363,0.44152 0.44353098,0.44161132 0 0 1 -0.4434355,-0.44152 0.44353098,0.44161132 0 0 1 0.4434355,-0.441791 z M 3.836458,8.0230327 v 1.6376721 1.0782472 1.320411 c 0,0.941232 0.7610352,1.698967 1.7063553,1.69897 h 1.3264255 1.3261486 c 0.9430702,-3e-6 1.702743,-0.754226 1.7063563,-1.692346 H 9.169339 c -0.037988,-0.263613 0.1558813,-0.415044 0.1583499,-0.687538 2.863e-4,-10e-4 3.542e-4,-0.0018 7.214e-4,-0.0026 -1.373e-4,-0.001 -1.842e-4,-0.0015 -2.858e-4,-0.0023 -0.0017,-0.255678 -0.2101041,-0.461973 -0.4667318,-0.462118 -0.256517,3.07e-4 -0.4647785,0.206547 -0.4664523,0.461952 v 2.86e-4 c -1.438e-4,9.34e-4 -4.328e-4,0.0014 -5.411e-4,0.0021 4.324e-4,0.0015 7.213e-4,0.0028 0.00115,0.0052 0.00342,0.271033 0.1743403,0.422428 0.1333882,0.685326 H 7.7118177 c -0.2817251,0 -0.5086081,-0.225899 -0.5086081,-0.506402 v -0.690104 c -0.2290998,-0.0027 -0.3774019,0.162298 -0.6297946,0.164567 -0.0012,2.82e-4 -0.00257,5.36e-4 -0.00367,8.6e-4 -0.00106,-1.38e-4 -0.00219,-1.83e-4 -0.00317,-2.84e-4 -0.2566169,-0.0013 -0.4638112,-0.209259 -0.4639527,-0.464778 3.045e-4,-0.255407 0.2074435,-0.462758 0.4639577,-0.464431 h 2.881e-4 c 9.368e-4,-1.4e-4 0.00168,-4.29e-4 0.00291,-5.34e-4 0.00212,4.27e-4 0.00389,7.15e-4 0.00595,9.99e-4 0.2509712,0.0022 0.3991699,0.149478 0.6275771,0.140539 V 9.5799008 c 0,-0.280498 0.2268837,-0.506127 0.5086069,-0.506127 h 0.8177816 c 0.039161,0.26103 -0.1307048,0.412291 -0.1339446,0.682295 -4.326e-4,0.0015 -7.212e-4,0.0028 -0.00115,0.0052 1.416e-4,9.36e-4 4.329e-4,0.0013 5.409e-4,0.0021 v 2.88e-4 c 0.0016,0.2554002 0.209936,0.4616512 0.4664526,0.4619512 0.2566275,-1.48e-4 0.4650538,-0.206437 0.4667323,-0.4619512 8.51e-5,-10e-4 1.338e-4,-0.0015 2.863e-4,-0.0023 -2.863e-4,-10e-4 -3.534e-4,-0.0018 -7.206e-4,-0.0026 -0.00256,-0.271531 -0.1949608,-0.422838 -0.1589069,-0.684582 H 9.9022016 V 8.0234917 Z"
       inkscape:connector-curvature="0" />
    <path
       id="rect953"
       style="fill:#ffffff;fill-opacity:1;stroke:none;stroke-width:0.312512;stroke-linecap:round;stroke-linejoin:round;stroke-miterlimit:4;stroke-dasharray:none;stroke-opacity:1"
       d="m 11.346392,8.9647097 c -0.281727,0 -0.508613,0.2256201 -0.508613,0.5061261 v 0.6665552 c -0.228402,0.0082 -0.3766,-0.1375542 -0.627572,-0.1405452 -0.0017,-4.29e-4 -0.0038,-7.2e-4 -0.0059,-10e-4 -0.0011,1.4e-4 -0.0017,4.3e-4 -0.003,5.43e-4 h -2.67e-4 c -0.2565115,0.0012 -0.4636554,0.2090212 -0.4639555,0.4644232 1.406e-4,0.255523 0.2073339,0.463043 0.4639555,0.464714 0.0011,9.9e-5 0.0023,1.37e-4 0.0033,2.86e-4 0.0011,-2.86e-4 0.0026,-5.37e-4 0.0037,-8.61e-4 0.25239,-0.0017 0.400692,-0.168259 0.62979,-0.164567 v 0.690025 c 0,0.280505 0.226886,0.506404 0.508612,0.506404 h 0.81726 c 0.04098,-0.262896 -0.130137,-0.414291 -0.133393,-0.685329 -3.57e-4,-0.0015 -7.22e-4,-0.0028 -9.99e-4,-0.0052 1.4e-4,-9.36e-4 3.5e-4,-0.0014 7.19e-4,-0.0021 v -3.4e-4 c 0.0014,-0.255405 0.20994,-0.461651 0.466457,-0.46195 0.256623,1.42e-4 0.46505,0.206439 0.466733,0.46195 9.1e-5,10e-4 1.34e-4,0.0015 2.87e-4,0.0023 -2.87e-4,10e-4 -7.24e-4,0.0018 -7.24e-4,0.0026 -0.0019,0.272492 -0.196335,0.423925 -0.158349,0.687539 h 0.842227 c 0.281725,0 0.508604,-0.225895 0.508604,-0.506406 V 9.4703908 c 0,-0.2805 -0.226879,-0.5061281 -0.508604,-0.5061281 h -0.842762 c -0.03599,0.2617461 0.156446,0.4130521 0.158908,0.6845121 2.86e-4,10e-4 7.23e-4,0.0018 7.23e-4,0.0026 -1.48e-4,0.001 -1.48e-4,0.0015 -2.87e-4,0.0023 -0.0013,0.255511 -0.210108,0.4618032 -0.466732,0.4619442 -0.256516,-9.2e-5 -0.464781,-0.2063412 -0.466457,-0.4617392 v -2.75e-4 c -1.4e-4,-9.29e-4 -3.52e-4,-0.0013 -7.21e-4,-0.0021 3.55e-4,-0.0015 7.21e-4,-0.0028 10e-4,-0.0052 0.0026,-0.270002 0.173105,-0.421264 0.133947,-0.6822921 z"
       inkscape:connector-curvature="0" />
  </g>
</svg>
