<?xml version="1.0" encoding="UTF-8" standalone="no"?>
<svg
   width="68"
   height="68"
   viewBox="0 0 17.991665 17.991665"
   version="1.1"
   id="svg1114"
   inkscape:version="1.3.2 (091e20ef0f, 2023-11-25)"
   sodipodi:docname="rhythmbox.svg"
   xmlns:inkscape="http://www.inkscape.org/namespaces/inkscape"
   xmlns:sodipodi="http://sodipodi.sourceforge.net/DTD/sodipodi-0.dtd"
   xmlns:xlink="http://www.w3.org/1999/xlink"
   xmlns="http://www.w3.org/2000/svg"
   xmlns:svg="http://www.w3.org/2000/svg"
   xmlns:rdf="http://www.w3.org/1999/02/22-rdf-syntax-ns#"
   xmlns:cc="http://creativecommons.org/ns#"
   xmlns:dc="http://purl.org/dc/elements/1.1/">
  <style
     type="text/css"
     id="current-color-scheme">.ColorScheme-Highlight { color:#5599ff; }
</style>
  <defs
     id="defs1108">
    <linearGradient
       id="linearGradient12"
       inkscape:collect="always">
      <stop
         style="stop-color:#ffffff;stop-opacity:0;"
         offset="0"
         id="stop10" />
      <stop
         id="stop11"
         offset="0.65909404"
         style="stop-color:#ffffff;stop-opacity:0" />
      <stop
         style="stop-color:#ffffff;stop-opacity:1;"
         offset="1"
         id="stop12" />
    </linearGradient>
    <linearGradient
       id="linearGradient9"
       inkscape:collect="always">
      <stop
         style="stop-color:#000000;stop-opacity:0;"
         offset="0"
         id="stop1" />
      <stop
         id="stop8"
         offset="0.66102529"
         style="stop-color:#000000;stop-opacity:0" />
      <stop
         style="stop-color:#000000;stop-opacity:1;"
         offset="1"
         id="stop9" />
    </linearGradient>
    <linearGradient
       id="linearGradient7"
       inkscape:collect="always">
      <stop
         style="stop-color:#000000;stop-opacity:0;"
         offset="0"
         id="stop5" />
      <stop
         id="stop6"
         offset="0.6586886"
         style="stop-color:#000000;stop-opacity:0" />
      <stop
         style="stop-color:#000000;stop-opacity:1;"
         offset="1"
         id="stop7" />
    </linearGradient>
    <linearGradient
       id="linearGradient4"
       inkscape:collect="always">
      <stop
         style="stop-color:#000000;stop-opacity:0;"
         offset="0"
         id="stop2" />
      <stop
         id="stop3"
         offset="0.67055255"
         style="stop-color:#000000;stop-opacity:0" />
      <stop
         style="stop-color:#000000;stop-opacity:1;"
         offset="1"
         id="stop4" />
    </linearGradient>
    <linearGradient
       inkscape:collect="always"
       id="linearGradient899">
      <stop
         style="stop-color:#535d6c;stop-opacity:1;"
         offset="0"
         id="stop895" />
      <stop
         style="stop-color:#444d59;stop-opacity:1;"
         offset="1"
         id="stop897" />
    </linearGradient>
    <linearGradient
       id="linearGradient1167"
       x1="40.751999"
       x2="40.751999"
       y1="28.507999"
       y2="17.205999"
       gradientUnits="userSpaceOnUse">
      <stop
         style="stop-color:#84fb6e;stop-opacity:1"
         stop-color="#0ab816"
         offset="0"
         id="stop1163" />
      <stop
         style="stop-color:#0dd41a;stop-opacity:1"
         stop-color="#0cf36c"
         offset="1"
         id="stop1165" />
    </linearGradient>
    <linearGradient
       id="cornerBevel"
       inkscape:collect="always">
      <stop
         style="stop-color:#000000;stop-opacity:0;"
         offset="0"
         id="stop2663" />
      <stop
         id="stop2671"
         offset="0.66666675"
         style="stop-color:#000000;stop-opacity:0" />
      <stop
         style="stop-color:#000000;stop-opacity:1;"
         offset="1"
         id="stop2661" />
    </linearGradient>
    <linearGradient
       id="bevel"
       inkscape:collect="always">
      <stop
         id="stop2685"
         offset="0"
         style="stop-color:#000000;stop-opacity:1;" />
      <stop
         id="stop2687"
         offset="1"
         style="stop-color:#000000;stop-opacity:0;" />
    </linearGradient>
    <linearGradient
       id="highlightCorner"
       inkscape:collect="always">
      <stop
         style="stop-color:#ffffff;stop-opacity:0;"
         offset="0"
         id="stop2613" />
      <stop
         id="stop2621"
         offset="0.66666669"
         style="stop-color:#ffffff;stop-opacity:0" />
      <stop
         style="stop-color:#ffffff;stop-opacity:1;"
         offset="1"
         id="stop2611" />
    </linearGradient>
    <linearGradient
       inkscape:collect="always"
       id="highlight">
      <stop
         style="stop-color:#ffffff;stop-opacity:1;"
         offset="0"
         id="stop2921" />
      <stop
         style="stop-color:#ffffff;stop-opacity:0;"
         offset="1"
         id="stop2923" />
    </linearGradient>
    <radialGradient
       inkscape:collect="always"
       xlink:href="#highlightCorner"
       id="radialGradient15"
       gradientUnits="userSpaceOnUse"
       gradientTransform="matrix(0.04294597,-12.079348,17.933991,0.06376112,14.524179,-50.373789)"
       cx="-4.5799766"
       cy="-0.50206107"
       fx="-4.5799766"
       fy="-0.50206107"
       r="0.39687499" />
    <linearGradient
       inkscape:collect="always"
       xlink:href="#highlight"
       id="linearGradient15"
       gradientUnits="userSpaceOnUse"
       x1="-3.8453064"
       y1="-1.1532172"
       x2="-3.8453064"
       y2="-0.8954913"
       gradientTransform="matrix(6.0923077,0,0,6.0923077,32.228528,7.1537621)" />
    <radialGradient
       inkscape:collect="always"
       xlink:href="#linearGradient12"
       id="radialGradient17"
       gradientUnits="userSpaceOnUse"
       gradientTransform="matrix(-0.02247554,-12.045403,-17.967828,0.03352619,1.6640208,-50.22331)"
       cx="-4.575222"
       cy="-0.55256462"
       fx="-4.575222"
       fy="-0.55256462"
       r="0.39687499" />
    <radialGradient
       inkscape:collect="always"
       xlink:href="#linearGradient7"
       id="radialGradient18"
       gradientUnits="userSpaceOnUse"
       gradientTransform="matrix(0.06461187,12.09952,17.933731,-0.09576873,14.609502,64.748231)"
       cx="-4.4284906"
       cy="-0.50121039"
       fx="-4.4284906"
       fy="-0.50121039"
       r="0.39687499" />
    <linearGradient
       inkscape:collect="always"
       xlink:href="#bevel"
       id="linearGradient18"
       gradientUnits="userSpaceOnUse"
       x1="-3.8415797"
       y1="-1.4506671"
       x2="-3.8406549"
       y2="-1.1968651"
       gradientTransform="matrix(6.0923076,0,0,6.0923076,32.228527,-7.1537627)" />
    <radialGradient
       inkscape:collect="always"
       xlink:href="#linearGradient4"
       id="radialGradient20"
       gradientUnits="userSpaceOnUse"
       gradientTransform="matrix(-0.01031383,11.991438,-17.967296,-0.01545561,1.7353715,64.305742)"
       cx="-4.4236727"
       cy="-0.55004197"
       fx="-4.4236727"
       fy="-0.55004197"
       r="0.39687499" />
    <radialGradient
       inkscape:collect="always"
       xlink:href="#cornerBevel"
       id="radialGradient25"
       gradientUnits="userSpaceOnUse"
       gradientTransform="matrix(12.184614,0,0,12.184614,59.63122,10.377613)"
       cx="-4.4568658"
       cy="-0.44864327"
       fx="-4.4568658"
       fy="-0.44864327"
       r="0.39687496" />
    <linearGradient
       inkscape:collect="always"
       xlink:href="#bevel"
       id="linearGradient25"
       gradientUnits="userSpaceOnUse"
       x1="-3.8487544"
       y1="-1.146081"
       x2="-3.8455966"
       y2="-0.890971"
       gradientTransform="matrix(6.0923077,0,0,6.0923077,32.228528,7.1537627)" />
    <radialGradient
       inkscape:collect="always"
       xlink:href="#cornerBevel"
       id="radialGradient29"
       gradientUnits="userSpaceOnUse"
       gradientTransform="matrix(0,-12.184614,12.184614,0,11.27353,-44.427768)"
       cx="-4.5705457"
       cy="-0.48653662"
       fx="-4.5705457"
       fy="-0.48653662"
       r="0.39687496" />
    <radialGradient
       inkscape:collect="always"
       xlink:href="#cornerBevel"
       id="radialGradient30"
       gradientUnits="userSpaceOnUse"
       gradientTransform="matrix(-12.184514,-0.04945749,0.04847411,-11.942243,-43.502155,3.8519053)"
       cx="-4.5342312"
       cy="-0.60337442"
       fx="-4.5342312"
       fy="-0.60337442"
       r="0.39687496" />
    <radialGradient
       inkscape:collect="always"
       xlink:href="#linearGradient9"
       id="radialGradient31"
       gradientUnits="userSpaceOnUse"
       gradientTransform="matrix(0,-12.151612,11.978956,0,18.475664,-48.770776)"
       cx="-4.4175329"
       cy="-0.56489283"
       fx="-4.4175329"
       fy="-0.56489283"
       r="0.39687496" />
    <linearGradient
       inkscape:collect="always"
       xlink:href="#bevel"
       id="linearGradient34"
       gradientUnits="userSpaceOnUse"
       x1="-3.99717"
       y1="-1.2218677"
       x2="-4.0003276"
       y2="-0.96675771"
       gradientTransform="matrix(6.0923077,0,0,6.0923077,17.025077,8.0496826)" />
    <linearGradient
       inkscape:collect="always"
       xlink:href="#bevel"
       id="linearGradient35"
       gradientUnits="userSpaceOnUse"
       x1="-4.0919032"
       y1="-1.4492278"
       x2="-4.0950613"
       y2="-1.1972755"
       gradientTransform="matrix(6.0923077,0,0,6.0923077,16.129161,-7.1537627)" />
    <linearGradient
       inkscape:collect="always"
       xlink:href="#bevel"
       id="linearGradient36"
       gradientUnits="userSpaceOnUse"
       x1="-3.8734362"
       y1="-1.3717227"
       x2="-3.8765941"
       y2="-1.116071"
       gradientTransform="matrix(6.0923077,0,0,6.0923077,31.33261,-8.0496826)" />
    <linearGradient
       id="paint2_linear_77:3-7"
       x1="79.398094"
       y1="-197.84389"
       x2="82.901054"
       y2="-199.97827"
       gradientUnits="userSpaceOnUse"
       gradientTransform="matrix(1.9248511,0,0,1.7314595,-40.88733,399.61741)">
      <stop
         stop-color="#EBFAFF"
         stop-opacity="0.1"
         id="stop29-5-7"
         offset="0"
         style="stop-color:#c3c3c3;stop-opacity:1;" />
      <stop
         offset="1"
         stop-color="#70A9FF"
         stop-opacity="0.5"
         id="stop30-0-1"
         style="stop-color:#05c7ff;stop-opacity:0.80000001;" />
    </linearGradient>
    <linearGradient
       inkscape:collect="always"
       xlink:href="#linearGradient899"
       id="linearGradient926"
       x1="1.1249832"
       y1="-9.2589808"
       x2="16.919081"
       y2="-9.2251434"
       gradientUnits="userSpaceOnUse"
       gradientTransform="translate(-0.92604234,0.47624996)" />
    <linearGradient
       xlink:href="#bevel"
       id="linearGradient4304-3"
       x1="26.929001"
       y1="5.9949999"
       x2="47.120998"
       y2="37.126999"
       gradientUnits="userSpaceOnUse"
       gradientTransform="matrix(0.27781247,0,0,0.27781247,0.74083456,0.740834)" />
    <linearGradient
       xlink:href="#bevel"
       id="linearGradient4304-3-3"
       x1="26.929001"
       y1="5.9949999"
       x2="47.120998"
       y2="37.126999"
       gradientUnits="userSpaceOnUse"
       gradientTransform="matrix(0.27781247,0,0,0.27781247,0.74083456,0.74083403)" />
    <linearGradient
       inkscape:collect="always"
       xlink:href="#linearGradient6386"
       id="linearGradient3"
       gradientUnits="userSpaceOnUse"
       gradientTransform="matrix(0.0291758,0,0,0.02964351,-14.259929,-9.3919718)"
       x1="735.66742"
       y1="660.83142"
       x2="735.66742"
       y2="388.10217" />
    <linearGradient
       inkscape:collect="always"
       id="linearGradient6386">
      <stop
         style="stop-color:#f2b187;stop-opacity:1"
         offset="0"
         id="stop6382" />
      <stop
         style="stop-color:#ec908c;stop-opacity:1;"
         offset="0.54933107"
         id="stop23871" />
      <stop
         style="stop-color:#ec8f8b;stop-opacity:1;"
         offset="0.8804239"
         id="stop23677" />
      <stop
         style="stop-color:#de6865;stop-opacity:1"
         offset="1"
         id="stop6384" />
    </linearGradient>
    <linearGradient
       inkscape:collect="always"
       xlink:href="#linearGradient26704"
       id="linearGradient26784"
       gradientUnits="userSpaceOnUse"
       x1="722.4295"
       y1="521.9483"
       x2="731.73212"
       y2="556.66614"
       gradientTransform="matrix(0.0291758,0,0,0.02964351,-14.259929,-9.3919718)" />
    <linearGradient
       inkscape:collect="always"
       id="linearGradient26704">
      <stop
         style="stop-color:#f2bd9a;stop-opacity:0"
         offset="0"
         id="stop26700" />
      <stop
         style="stop-color:#1631cf;stop-opacity:0.61176471;"
         offset="0.10469195"
         id="stop26980" />
      <stop
         style="stop-color:#003cf2;stop-opacity:0.00045954"
         offset="1"
         id="stop26702" />
    </linearGradient>
    <linearGradient
       inkscape:collect="always"
       xlink:href="#linearGradient25252"
       id="linearGradient25254"
       x1="748.22168"
       y1="404.50122"
       x2="734.85419"
       y2="538.79596"
       gradientUnits="userSpaceOnUse"
       gradientTransform="matrix(0.0291758,0,0,0.02964351,-14.259929,-9.3919718)" />
    <linearGradient
       inkscape:collect="always"
       id="linearGradient25252">
      <stop
         style="stop-color:#f2b187;stop-opacity:1;"
         offset="0"
         id="stop25248" />
      <stop
         style="stop-color:#f2a472;stop-opacity:1"
         offset="1"
         id="stop25250" />
    </linearGradient>
    <linearGradient
       inkscape:collect="always"
       xlink:href="#linearGradient25530"
       id="linearGradient25532"
       x1="740.75671"
       y1="450.95929"
       x2="687.04364"
       y2="584.65771"
       gradientUnits="userSpaceOnUse"
       gradientTransform="matrix(0.0291758,0,0,0.02964351,-14.259929,-9.3919718)" />
    <linearGradient
       inkscape:collect="always"
       id="linearGradient25530">
      <stop
         style="stop-color:#f2bd9a;stop-opacity:1;"
         offset="0"
         id="stop25526" />
      <stop
         style="stop-color:#f26000;stop-opacity:0.25890476"
         offset="1"
         id="stop25528" />
    </linearGradient>
    <linearGradient
       inkscape:collect="always"
       xlink:href="#linearGradient26428"
       id="linearGradient26430"
       x1="746.40808"
       y1="555.41046"
       x2="681.24591"
       y2="574.94653"
       gradientUnits="userSpaceOnUse"
       gradientTransform="matrix(0.0291758,0,0,0.02964351,-14.259929,-9.3919718)" />
    <linearGradient
       inkscape:collect="always"
       id="linearGradient26428">
      <stop
         style="stop-color:#f2bd9a;stop-opacity:0.69014871"
         offset="0"
         id="stop26424" />
      <stop
         style="stop-color:#f2bd9a;stop-opacity:0;"
         offset="1"
         id="stop26426" />
    </linearGradient>
    <linearGradient
       inkscape:collect="always"
       xlink:href="#linearGradient30948"
       id="linearGradient4-3"
       gradientUnits="userSpaceOnUse"
       gradientTransform="matrix(0.0291758,0,0,0.02964351,-14.259929,-9.3919718)"
       x1="674.57922"
       y1="450.78961"
       x2="786.78943"
       y2="568.28052" />
    <linearGradient
       inkscape:collect="always"
       id="linearGradient30948">
      <stop
         style="stop-color:#ffd14b;stop-opacity:1;"
         offset="0"
         id="stop30944" />
      <stop
         style="stop-color:#ffd14b;stop-opacity:0;"
         offset="1"
         id="stop30946" />
    </linearGradient>
    <linearGradient
       inkscape:collect="always"
       xlink:href="#linearGradient6386"
       id="linearGradient1"
       gradientUnits="userSpaceOnUse"
       gradientTransform="matrix(0.0291758,0,0,0.02964351,-14.259929,-9.3919718)"
       x1="735.66742"
       y1="660.83142"
       x2="735.66742"
       y2="388.10217" />
    <linearGradient
       inkscape:collect="always"
       xlink:href="#linearGradient30948"
       id="linearGradient2"
       gradientUnits="userSpaceOnUse"
       gradientTransform="matrix(0.0291758,0,0,0.02964351,-14.259929,-9.3919718)"
       x1="674.57922"
       y1="450.78961"
       x2="786.78943"
       y2="568.28052" />
  </defs>
  <sodipodi:namedview
     id="base"
     pagecolor="#e2e2e2"
     bordercolor="#666666"
     borderopacity="1.0"
     inkscape:pageopacity="0"
     inkscape:pageshadow="2"
     inkscape:zoom="9.7248729"
     inkscape:cx="32.596827"
     inkscape:cy="40.000523"
     inkscape:document-units="px"
     inkscape:current-layer="layer1"
     inkscape:document-rotation="0"
     showgrid="true"
     units="px"
     inkscape:window-width="1920"
     inkscape:window-height="990"
     inkscape:window-x="0"
     inkscape:window-y="0"
     inkscape:window-maximized="1"
     inkscape:object-paths="true"
     inkscape:snap-grids="true"
     inkscape:snap-intersection-paths="true"
     inkscape:snap-smooth-nodes="true"
     inkscape:snap-midpoints="true"
     inkscape:showpageshadow="2"
     inkscape:pagecheckerboard="0"
     inkscape:deskcolor="#d1d1d1">
    <inkscape:grid
       id="grid2"
       units="px"
       originx="0"
       originy="0"
       spacingx="0.26458333"
       spacingy="0.26458333"
       empcolor="#0099e5"
       empopacity="0.30196078"
       color="#0099e5"
       opacity="0.14902"
       empspacing="5"
       dotted="false"
       gridanglex="30"
       gridanglez="30"
       visible="true" />
  </sodipodi:namedview>
  <metadata
     id="metadata1111">
    <rdf:RDF>
      <cc:Work
         rdf:about="">
        <dc:format>image/svg+xml</dc:format>
        <dc:type
           rdf:resource="http://purl.org/dc/dcmitype/StillImage" />
      </cc:Work>
    </rdf:RDF>
  </metadata>
  <g
     inkscape:label="Layer 1"
     inkscape:groupmode="layer"
     id="layer1">
    <g
       id="g918"
       transform="translate(0.47625037,0.92604234)">
      <rect
         ry="4.8357682"
         rx="4.8357682"
         style="fill:url(#linearGradient926);fill-opacity:1;stroke-width:6.09228"
         x="0.13229237"
         y="-16.457085"
         width="15.875001"
         height="15.875001"
         id="use1056"
         transform="rotate(90)"
         class="ColorScheme-Highlight" />
      <path
         d="m 5.344583,0.13229167 c -2.6384245,0 -4.76249953,2.12407483 -4.76249953,4.76249963 H 5.344583 Z"
         style="opacity:0.15;fill:url(#radialGradient25);fill-opacity:1;stroke-width:6.09228"
         id="path20" />
      <rect
         y="0.13229151"
         x="5.3445826"
         height="1.5875"
         width="6.3500004"
         id="rect20"
         style="opacity:0.15;fill:url(#linearGradient25);fill-opacity:1;stroke-width:4.83577;stroke-linecap:round;stroke-linejoin:round;paint-order:stroke fill markers" />
      <path
         d="m 0.58208347,11.244792 c 0,2.638424 2.12407503,4.762499 4.76249953,4.762499 v -4.762499 z"
         style="opacity:0.15;fill:url(#radialGradient29);fill-opacity:1;stroke-width:6.09228"
         id="use20" />
      <rect
         y="0.5820834"
         x="-11.244792"
         height="1.5875"
         width="6.3500004"
         id="use21"
         style="opacity:0.15;fill:url(#linearGradient34);fill-opacity:1;stroke-width:4.83577;stroke-linecap:round;stroke-linejoin:round;paint-order:stroke fill markers"
         transform="rotate(-90)" />
      <path
         d="m 11.694583,16.007291 c 2.638425,0 4.7625,-2.124074 4.7625,-4.762499 h -4.7625 z"
         style="opacity:0.15;fill:url(#radialGradient30);fill-opacity:1;stroke-width:6.09228"
         id="use22" />
      <rect
         y="-16.007292"
         x="-11.694584"
         height="1.5875"
         width="6.3500004"
         id="use23"
         style="opacity:0.15;fill:url(#linearGradient35);fill-opacity:1;stroke-width:4.83577;stroke-linecap:round;stroke-linejoin:round;paint-order:stroke fill markers"
         transform="scale(-1)" />
      <path
         d="m 16.457083,4.8947913 c 0,-2.6384245 -2.124074,-4.76249963 -4.7625,-4.76249963 V 4.8947913 Z"
         style="opacity:0.15;fill:url(#radialGradient31);fill-opacity:1;stroke-width:6.09228"
         id="use24" />
      <rect
         y="-16.457081"
         x="4.8947906"
         height="1.5875"
         width="6.3500004"
         id="use25"
         style="opacity:0.15;fill:url(#linearGradient36);fill-opacity:1;stroke-width:4.83577;stroke-linecap:round;stroke-linejoin:round;paint-order:stroke fill markers"
         transform="rotate(90)" />
      <path
         d="m 5.3445832,0.13229107 c -2.638425,0 -4.76250035,2.12407473 -4.76250035,4.76249973 H 5.3445832 Z"
         style="opacity:0.5;fill:url(#radialGradient15);fill-opacity:1;stroke-width:6.09228"
         id="path14" />
      <rect
         y="0.1322909"
         x="5.3445826"
         height="1.5875"
         width="6.3499999"
         id="rect14"
         style="opacity:0.5;fill:url(#linearGradient15);fill-opacity:1;stroke-width:4.83577;stroke-linecap:round;stroke-linejoin:round;paint-order:stroke fill markers" />
      <path
         d="m 11.694583,0.13229096 c 2.638425,0 4.7625,2.12407504 4.7625,4.76249734 h -4.7625 z"
         style="opacity:0.5;fill:url(#radialGradient17);fill-opacity:1;stroke-width:6.09228"
         id="use14" />
      <path
         id="path17"
         style="opacity:0.5;fill:url(#radialGradient18);fill-opacity:1;stroke-width:6.09228"
         d="m 5.3445834,16.00729 c -2.638425,0 -4.7625,-2.124075 -4.7625,-4.7625 h 4.7625 z" />
      <rect
         style="opacity:0.5;fill:url(#linearGradient18);fill-opacity:1;stroke-width:4.83577;stroke-linecap:round;stroke-linejoin:round;paint-order:stroke fill markers"
         id="rect17"
         width="6.3499994"
         height="1.5874999"
         x="5.3445826"
         y="-16.007292"
         transform="scale(1,-1)" />
      <path
         id="use17"
         style="opacity:0.5;fill:url(#radialGradient20);fill-opacity:1;stroke-width:6.09228"
         d="m 11.694582,16.007291 c 2.638425,0 4.7625,-2.124075 4.7625,-4.7625 h -4.7625 z" />
    </g>
    <g
       id="g4"
       transform="matrix(1.163295,0,0,1.1449413,-0.26879082,0.1840249)"
       style="stroke-width:0.866489">
      <path
         id="path1211"
         style="fill:#45007e;fill-opacity:0.0695295;stroke:none;stroke-width:0.0294068px;stroke-linecap:butt;stroke-linejoin:miter;stroke-opacity:1"
         d="M 8.9697476,2.7402462 C 8.6413528,2.7389461 8.3527609,3.1837689 8.3527609,3.1837689 8.3966378,3.1262978 8.4539884,3.0736317 8.5188004,3.0422541 8.3089302,3.1553873 8.1038742,3.544026 7.9296739,4.05114 7.7106431,4.6887745 7.7323776,5.4380753 7.8048646,6.0540094 6.4320404,6.9416069 6.2445707,7.2793266 5.9178703,7.8451747 5.2238252,9.0473034 5.7364059,10.345826 6.6158359,10.990675 c 0,0 3.439e-4,2.65e-4 3.439e-4,2.65e-4 0.00116,7.93e-4 0.00238,0.0013 0.00372,0.0027 0.00103,7.93e-4 0.00212,0.0013 0.00331,0.0021 0.035351,0.02556 0.071256,0.05039 0.1077236,0.07391 0.00717,0.0041 0.014351,0.0093 0.021521,0.0136 0.011567,0.0075 0.02323,0.01429 0.034921,0.02159 0.011202,0.0067 0.022492,0.01339 0.033805,0.02016 0,0 3.44e-4,2.64e-4 3.44e-4,2.64e-4 6.085e-4,2.65e-4 0.00116,7.94e-4 0.00177,0.0013 0.027554,0.01593 0.055513,0.03136 0.083578,0.04609 0.00791,0.0041 0.015801,0.0087 0.023748,0.01257 0.00641,0.0034 0.012896,0.0067 0.01929,0.0097 0.017613,0.0089 0.035337,0.01704 0.05312,0.02508 0.00198,7.93e-4 0.00419,0.0021 0.00634,0.0027 0.016737,0.0079 0.033634,0.01482 0.050518,0.02228 0.00611,0.0027 0.01211,0.0048 0.018177,0.008 0.02124,0.0089 0.042439,0.01781 0.063888,0.02548 0.4509368,0.170897 1.0903845,0.24991 1.7280097,0.103267 0.01017,0.05399 0.019362,0.105873 0.026744,0.153795 0.00459,0.03005 0.00872,0.05879 0.012253,0.08654 0.024794,0.194466 0.023584,0.334324 6.879e-4,0.433495 -0.00324,0.014 -0.00702,0.02713 -0.011139,0.03974 -0.00419,0.01249 -0.00877,0.02453 -0.013724,0.03566 -0.00496,0.01101 -0.010541,0.02133 -0.016364,0.03083 -0.00581,0.0096 -0.011988,0.01876 -0.018592,0.02654 -0.00662,0.0083 -0.013435,0.01551 -0.020817,0.02262 -0.00738,0.0074 -0.015311,0.01304 -0.023402,0.01913 -0.00809,0.0057 -0.016451,0.01093 -0.025275,0.01537 -0.026478,0.01378 -0.055944,0.0231 -0.088406,0.02859 -0.010832,0.0021 -0.022009,0.0027 -0.033432,0.0041 -0.011419,7.93e-4 -0.023264,0.0021 -0.035287,0.0021 -0.024071,7.94e-4 -0.049152,6.9e-5 -0.075406,-0.0013 -0.026279,-0.0013 -0.053832,-0.0034 -0.082092,-0.0074 -0.028256,-0.0027 -0.057238,-0.0074 -0.087292,-0.01114 -0.030054,-0.0041 -0.060847,-0.0084 -0.092493,-0.01257 -0.013266,-0.0021 -0.026181,-0.0034 -0.038629,-0.0041 -0.012446,-7.93e-4 -0.024712,-0.0013 -0.036401,-0.0013 -0.011663,5.8e-5 -0.022915,5.29e-4 -0.033806,0.0013 -0.010914,7.94e-4 -0.021404,0.0021 -0.03157,0.0034 -0.020291,0.0034 -0.039046,0.0086 -0.056462,0.01469 -0.00872,0.0027 -0.017258,0.0074 -0.025275,0.01079 -0.00799,0.0034 -0.01569,0.008 -0.023045,0.01222 -0.00736,0.0041 -0.014147,0.0092 -0.020818,0.01394 -0.00669,0.0048 -0.012946,0.01019 -0.018938,0.0154 -0.00601,0.0055 -0.011681,0.01148 -0.017063,0.01765 -0.0054,0.0056 -0.010832,0.01183 -0.015594,0.01839 -0.038291,0.05076 -0.057239,0.113641 -0.061659,0.175329 -0.00103,0.01524 -0.00138,0.03063 -6.879e-4,0.04571 6.35e-4,0.01489 0.00204,0.02984 0.00446,0.04421 0.0022,0.01421 0.00554,0.02839 0.00927,0.04162 0.00372,0.01312 0.00791,0.02569 0.013022,0.03751 0.01017,0.02323 0.023223,0.04292 0.037889,0.05758 0,0 0.00574,0.0086 0.017478,0.02228 0.011755,0.01365 0.029285,0.03308 0.052746,0.05463 0.011734,0.01079 0.025101,0.02185 0.039744,0.03343 0.014644,0.01156 0.0307,0.02323 0.048289,0.03494 0.026398,0.01754 0.056182,0.03443 0.08915,0.04981 0.010996,0.0048 0.022091,0.01019 0.033806,0.01468 0.011737,0.0048 0.023966,0.0093 0.036401,0.01326 0.024887,0.0085 0.051287,0.01564 0.07912,0.02159 0.013906,0.0027 0.02807,0.0048 0.042719,0.0076 0.014631,0.0021 0.029572,0.0034 0.044948,0.0048 0.015382,0.0013 0.031441,0.0021 0.047549,0.0021 0.016092,2.17e-4 0.03257,-2.27e-4 0.049404,-0.0013 0.016824,-7.93e-4 0.033691,-0.0021 0.051258,-0.0041 0.017579,-0.0021 0.03556,-0.0048 0.053861,-0.0083 0.018298,-0.0034 0.037062,-0.0074 0.056089,-0.01183 0.019021,-0.0048 0.038557,-0.01024 0.058317,-0.01617 0.019772,-0.0067 0.039686,-0.01265 0.060179,-0.0205 0.020465,-0.0079 0.041555,-0.01622 0.062774,-0.02548 0.021214,-0.0094 0.042683,-0.01955 0.064635,-0.03047 0.02196,-0.01106 0.044185,-0.0231 0.066863,-0.03602 0.022656,-0.01283 0.045681,-0.02653 0.069092,-0.04162 0.020521,-0.01291 0.040512,-0.02617 0.059431,-0.0401 0.018917,-0.0136 0.036868,-0.02796 0.054234,-0.04234 0.017388,-0.01421 0.033899,-0.02882 0.049778,-0.04385 0.015861,-0.01476 0.031247,-0.03047 0.045688,-0.04607 0.014441,-0.01529 0.02817,-0.03112 0.041231,-0.04716 0.013081,-0.01603 0.025403,-0.0325 0.037148,-0.04902 0.011766,-0.01648 0.022963,-0.0332 0.033432,-0.05018 0.010469,-0.01704 0.02006,-0.03428 0.029342,-0.05159 0.00926,-0.01754 0.018219,-0.03473 0.02639,-0.05241 0.016287,-0.03536 0.03032,-0.07139 0.042345,-0.10773 0.00601,-0.01839 0.011298,-0.03658 0.016364,-0.055 0.00504,-0.01863 0.00964,-0.0368 0.013724,-0.05534 0.00412,-0.01876 0.00787,-0.03708 0.011139,-0.05571 0.0196,-0.111756 0.024146,-0.224852 0.020052,-0.33431 -0.0013,-0.03643 -0.00358,-0.0726 -0.00668,-0.108098 -0.0031,-0.03551 -0.00682,-0.07029 -0.011139,-0.104381 -0.00496,-0.03937 -0.01075,-0.07774 -0.016708,-0.114769 -0.00172,-0.01135 -0.00365,-0.02193 -0.00561,-0.03308 -0.00324,-0.01923 -0.00641,-0.03715 -0.00968,-0.05534 -0.00156,-0.0091 -0.00281,-0.01601 -0.00446,-0.02474 -0.00246,-0.01394 -0.00487,-0.02638 -0.00745,-0.04011 -8.202e-4,-0.0041 -0.00172,-0.0088 -0.00246,-0.01291 -0.00533,-0.02776 -0.010157,-0.0542 -0.014838,-0.07912 0,0 -0.00986,-0.05067 -0.010025,-0.05161 0.1940272,-0.09701 0.3817716,-0.221253 0.5571839,-0.375915 2.58e-4,-2.22e-4 4.5e-4,-5.29e-4 6.88e-4,-7.94e-4 0.04059,-0.0358 0.08078,-0.0726 0.11998,-0.111807 0,0 0,-2.65e-4 0,-2.65e-4 0.0058,-0.0057 0.01138,-0.01183 0.01706,-0.01804 0.0015,-0.0013 0.0032,-0.0027 0.0048,-0.0048 0.0015,-0.0013 0.0029,-0.0034 0.0045,-0.0048 0.01269,-0.01347 0.02533,-0.02762 0.03751,-0.04198 0.0068,-0.0082 0.01377,-0.01566 0.02041,-0.02405 0,0 0,-2.62e-4 0,-2.62e-4 0.0051,-0.0067 0.01019,-0.01304 0.01525,-0.01982 10e-4,-0.0013 0.0022,-0.0027 0.0033,-0.0041 4.5e-4,-5.29e-4 9.53e-4,-0.0013 0.0014,-0.0021 8.2e-4,-0.0013 0.0016,-0.0021 0.0025,-0.0034 0.0055,-0.0075 0.01127,-0.01429 0.01671,-0.02193 0.0037,-0.0048 0.0071,-0.01072 0.01079,-0.01574 0.0089,-0.01257 0.0178,-0.02508 0.02639,-0.03823 0,0 0,-2.65e-4 0,-2.65e-4 0.0028,-0.0041 0.0054,-0.0088 0.0082,-0.01291 5.55e-4,-7.94e-4 0.0012,-0.0013 0.0018,-0.0027 0.0025,-0.0041 0.0053,-0.0083 0.0078,-0.01222 0.0058,-0.0094 0.01182,-0.01889 0.01748,-0.02823 0,0 0,-2.65e-4 0,-2.65e-4 0.0032,-0.0058 0.0065,-0.01122 0.0097,-0.0168 7.41e-4,-0.0013 0.0014,-0.0027 0.0021,-0.0041 0.0016,-0.0027 0.0035,-0.0059 0.0052,-0.0087 0.0055,-0.0098 0.01102,-0.01929 0.01637,-0.02897 0,0 0,-2.64e-4 0,-2.64e-4 0.01074,-0.01995 0.02116,-0.04004 0.0312,-0.06054 0,0 0,-2.62e-4 0,-2.62e-4 0.0302,-0.06183 0.05739,-0.126704 0.08135,-0.193524 0.0079,-0.0222 0.01577,-0.04456 0.02304,-0.06722 0,0 0,-2.65e-4 0,-2.65e-4 0,0 0,-2.64e-4 0,-2.64e-4 0.0073,-0.02262 0.01427,-0.04529 0.02082,-0.068371 0,0 0,-2.65e-4 0,-2.65e-4 0.0066,-0.02296 0.01275,-0.046081 0.01859,-0.069441 0,0 0,-2.62e-4 0,-2.62e-4 0.0058,-0.02331 0.01126,-0.046931 0.01636,-0.070571 0,0 0,-2.621e-4 0,-2.621e-4 9.52e-4,-0.0048 0.0018,-0.0098 0.003,-0.01434 2.35e-4,-0.0013 4.76e-4,-0.0021 6.87e-4,-0.0034 1.56e-4,-7.94e-4 2.22e-4,-0.0013 3.44e-4,-0.0021 0.0035,-0.01733 0.0073,-0.034281 0.01038,-0.051611 0.0043,-0.02363 0.0083,-0.047441 0.01191,-0.071301 3.5e-5,-2.24e-4 -3.8e-5,-5.29e-4 0,-7.93e-4 0.0036,-0.02384 0.0068,-0.047661 0.0097,-0.071661 0,0 0,-2.65e-4 0,-2.65e-4 0.0028,-0.023971 0.0053,-0.048381 0.0075,-0.072441 0,0 0,-2.65e-4 0,-2.65e-4 0.002,-0.02397 0.0035,-0.048021 0.0048,-0.072071 0,0 0,-2.62e-4 0,-2.62e-4 0.0012,-0.02397 0.0023,-0.048081 0.003,-0.072061 0,0 0,-2.65e-4 0,-2.65e-4 5.02e-4,-0.02379 6.08e-4,-0.047941 3.44e-4,-0.071661 -4e-6,-2.25e-4 2e-6,-5.29e-4 0,-7.93e-4 -2.64e-4,-0.023791 -0.0011,-0.047301 -0.0021,-0.070941 0,0 0,-2.62e-4 0,-2.62e-4 -0.001,-0.02357 -0.0025,-0.047231 -0.0045,-0.070591 0,0 0,-2.65e-4 0,-2.65e-4 -0.0018,-0.023231 -0.004,-0.046511 -0.0067,-0.069441 0,0 0,-2.62e-4 0,-2.62e-4 0,0 0,-2.61e-4 0,-2.61e-4 -0.0025,-0.02289 -0.0058,-0.045791 -0.0093,-0.068361 -3.7e-5,-2.22e-4 3.6e-5,-5.29e-4 0,-7.93e-4 -0.0035,-0.02268 -0.0076,-0.045001 -0.01191,-0.067211 0,0 0,-2.65e-4 0,-2.65e-4 -0.0043,-0.02214 -0.009,-0.044061 -0.01414,-0.065761 0,0 0,-2.65e-4 0,-2.65e-4 0,0 0,-2.62e-4 0,-2.62e-4 -0.0052,-0.0218 -0.01109,-0.043041 -0.01706,-0.064251 0,0 0,-2.621e-4 0,-2.621e-4 -0.006,-0.02125 -0.01245,-0.042191 -0.01929,-0.062751 0,0 0,-2.65e-4 0,-2.65e-4 -0.0068,-0.02072 -0.01422,-0.040981 -0.02193,-0.060881 0,0 0,-2.64e-4 0,-2.64e-4 -0.0077,-0.02003 -0.01592,-0.039461 -0.02451,-0.058731 0,0 0,-2.62e-4 0,-2.62e-4 -0.0086,-0.01947 -0.01761,-0.038311 -0.0271,-0.056861 -0.01295,-0.02508 -0.02663,-0.049811 -0.04049,-0.074291 -10e-4,-0.0021 -0.0022,-0.0034 -0.0034,-0.0056 -0.0691,-0.1210943 -0.149215,-0.2332335 -0.237768,-0.3346925 -0.0013,-0.0013 -0.0026,-0.0027 -0.0041,-0.0041 C 10.04909,8.0196768 9.8844877,7.8841311 9.7087239,7.7815781 c -8.202e-4,-5.29e-4 -0.00164,-7.94e-4 -0.00246,-0.0013 C 9.5738947,7.7033265 9.4353492,7.6451454 9.2950627,7.6079177 c -6.879e-4,-2.321e-4 -0.00143,-1.5e-4 -0.00212,-2.641e-4 -0.093342,-0.02453 -0.1873618,-0.040031 -0.2808208,-0.045281 -9.525e-4,-5.8e-5 -0.0019,5.6e-5 -0.00297,0 -0.027059,-0.0013 -0.054048,-0.0021 -0.081,-0.0021 v 2.64e-4 c -0.019028,1.4e-4 -0.037882,2.65e-4 -0.056829,0.0013 -0.017497,7.941e-4 -0.034992,0.0021 -0.052373,0.0041 -0.011941,0.0013 -0.02377,0.0027 -0.03566,0.0041 -0.073434,-0.3762854 -0.1360594,-0.6950397 -0.209501,-1.0720171 -4.74e-5,-2.2e-4 4.84e-5,-5.3e-4 0,-7.94e-4 C 8.5654491,6.4543149 8.558512,6.4128441 8.5511538,6.3709343 8.7553187,6.154024 8.9420542,5.9473549 9.054128,5.799265 9.064008,5.786355 9.074016,5.772385 9.084217,5.757644 9.094414,5.743224 9.104968,5.728023 9.115421,5.711923 9.125872,5.696023 9.136328,5.678862 9.146991,5.661392 9.157688,5.643772 9.168477,5.625881 9.179309,5.607191 9.265816,5.4571091 9.3557348,5.2655513 9.4318993,5.0496381 c 0.00949,-0.026741 0.018835,-0.054121 0.027861,-0.081722 0,0 0,-2.64e-4 0,-2.64e-4 0.00906,-0.027761 0.017838,-0.055561 0.026389,-0.083952 0.1109642,-0.3689333 0.1746031,-0.7911756 0.118494,-1.1931125 -0.00863,-0.061751 -0.020013,-0.1229964 -0.034546,-0.1835096 0,0 0,-2.62e-4 0,-2.62e-4 -0.0073,-0.030331 -0.01529,-0.060371 -0.02416,-0.090262 -0.017743,-0.059801 -0.038672,-0.1186444 -0.063147,-0.1764405 -0.00727,-0.01733 -0.014549,-0.033281 -0.021931,-0.049381 -0.00281,-0.0056 -0.0054,-0.01183 -0.00815,-0.01807 -0.00151,-0.0034 -0.00324,-0.0067 -0.0048,-0.0097 -0.00854,-0.01807 -0.016975,-0.035151 -0.025628,-0.051611 -2.143e-4,-5.29e-4 -5.027e-4,-7.93e-4 -6.879e-4,-0.0013 -0.020325,-0.038821 -0.040771,-0.074061 -0.06166,-0.105865 -0.00122,-0.0021 -0.00233,-0.0034 -0.00372,-0.0056 -0.019867,-0.029831 -0.039943,-0.056641 -0.060177,-0.080612 -9.525e-4,-0.0013 -0.00185,-0.0021 -0.00297,-0.0034 -0.00973,-0.0114 -0.019581,-0.0222 -0.029342,-0.032341 -1.924e-4,-2.14e-4 -5.292e-4,-1.46e-4 -6.879e-4,-2.65e-4 -0.032304,-0.033351 -0.064622,-0.060311 -0.097321,-0.080972 -6.085e-4,-2.64e-4 -0.00116,-7.931e-4 -0.00177,-0.0013 -0.01914,-0.01188 -0.038413,-0.02167 -0.057577,-0.029691 -0.00396,-0.0013 -0.0079,-0.0034 -0.011906,-0.0048 -0.030996,-0.01175 -0.061844,-0.01913 -0.092491,-0.021931 -5.821e-4,-5.8e-5 -0.00116,5.9e-5 -0.00177,0 -0.010205,-7.93e-4 -0.020298,-0.0021 -0.030464,-0.0021 z M 8.8233943,3.089811 c 0.00759,0.0067 0.015107,0.01352 0.022635,0.02125 0.058777,0.058531 0.1172959,0.1460558 0.1727258,0.2719233 0.075357,0.1646683 0.3036914,1.3029217 -0.5605261,2.1789329 -1.14e-5,-2.27e-4 1.11e-5,-5.29e-4 0,-7.93e-4 -0.00185,-0.040491 -0.00311,-0.080412 -0.00412,-0.1196233 -8.996e-4,-0.035721 -0.00164,-0.070811 -0.00177,-0.1055031 -8.2e-5,-0.01712 2.633e-4,-0.033701 3.44e-4,-0.050511 2.635e-4,-0.052501 0.00143,-0.103759 0.00331,-0.153813 4.233e-4,-0.01169 5.556e-4,-0.02357 0.00108,-0.035261 0.00108,-0.026031 0.00238,-0.052051 0.00412,-0.077642 0.00108,-0.01828 0.00225,-0.035811 0.00372,-0.053471 0.00156,-0.02199 0.00331,-0.044221 0.0052,-0.065801 0.00297,-0.033041 0.00641,-0.065391 0.010025,-0.097312 0.00304,-0.02688 0.00621,-0.053401 0.00968,-0.079512 0.00116,-0.0092 0.00233,-0.01834 0.00372,-0.026951 0.00796,-0.056781 0.016928,-0.1114102 0.026744,-0.1641942 0.00405,-0.0218 0.00868,-0.043121 0.013022,-0.064261 0.00177,-0.0094 0.00358,-0.01889 0.0056,-0.027831 0.00513,-0.02384 0.010541,-0.047491 0.015951,-0.070571 1.751e-4,-7.94e-4 1.992e-4,-0.0013 3.439e-4,-0.0021 0.012192,-0.051611 0.025108,-0.101026 0.038629,-0.1482169 0.00603,-0.02098 0.011993,-0.041271 0.018177,-0.061321 0.00156,-0.0048 0.00351,-0.01066 0.0052,-0.01577 0.00634,-0.02016 0.012792,-0.039901 0.01929,-0.059081 H 8.6361416 C 8.8016363,3.594876 9.0187409,3.3832968 9.0187409,3.3832968 8.9622218,3.2619964 8.9044957,3.1723527 8.846014,3.1113795 c -0.00752,-0.008 -0.01516,-0.01416 -0.022635,-0.02125 z M 7.9534464,6.9923349 c 0.0054,0.030381 0.012528,0.068191 0.016719,0.093952 0.011946,0.073681 0.02947,0.1721404 0.051633,0.2901097 0.022164,0.1179733 0.048771,0.255514 0.079121,0.408252 0.00365,0.01852 0.00853,0.041051 0.012255,0.059801 -0.054443,0.034721 -0.1049698,0.070161 -0.1515547,0.1062271 -2.632e-4,2.17e-4 -8.202e-4,7.94e-4 -0.00103,0.0013 -3.969e-4,2.65e-4 -6.615e-4,7.94e-4 -0.00103,0.0013 -0.018116,0.01394 -0.035755,0.028031 -0.052747,0.042341 -8.202e-4,7.94e-4 -0.00164,0.0013 -0.00246,0.0021 -8.202e-4,7.94e-4 -0.00164,0.0013 -0.00246,0.0021 -0.013396,0.01135 -0.027039,0.02302 -0.039744,0.034581 -0.00982,0.0089 -0.01919,0.01807 -0.028601,0.02653 -0.00533,0.0048 -0.010819,0.0099 -0.015949,0.01468 -0.00108,0.0013 -0.00246,0.0027 -0.00372,0.0034 -0.00801,0.008 -0.015676,0.01572 -0.0234,0.02371 -0.00973,0.01005 -0.019362,0.01982 -0.0286,0.029671 -0.00172,0.0021 -0.00338,0.0041 -0.0052,0.0057 -0.00842,0.0094 -0.01652,0.01876 -0.024513,0.02784 -0.010218,0.01183 -0.020121,0.02363 -0.029717,0.035651 -0.00204,0.0027 -0.00419,0.0057 -0.00634,0.0083 -0.00588,0.0076 -0.011808,0.01495 -0.017478,0.022621 -0.010908,0.01429 -0.021947,0.028541 -0.031946,0.043051 -0.05514,0.079922 -0.096655,0.1608962 -0.127408,0.2421948 -0.0062,0.01619 -0.011837,0.032411 -0.017063,0.048661 0,0 0,2.62e-4 0,2.62e-4 -0.010541,0.032491 -0.019505,0.064911 -0.026743,0.097332 -0.00358,0.01603 -0.00682,0.032131 -0.00968,0.048291 0,0 0,2.64e-4 0,2.64e-4 -0.0029,0.01611 -0.00533,0.032201 -0.00744,0.048311 -0.00198,0.01598 -0.0038,0.031921 -0.0052,0.047951 0,0 0,2.62e-4 0,2.62e-4 -0.026765,0.304493 0.070443,0.5931557 0.1775563,0.809411 0.011268,0.02275 0.022817,0.044631 0.034171,0.065771 0,0 0,2.64e-4 0,2.64e-4 0.01129,0.02103 0.02267,0.040981 0.033799,0.060161 0,0 0,2.651e-4 0,2.651e-4 0.011107,0.01934 0.022397,0.037371 0.033059,0.054631 0,0 0,2.65e-4 0,2.65e-4 0.032044,0.051911 0.061545,0.094942 0.084692,0.1270315 0.030894,0.042851 0.050518,0.066141 0.050518,0.066141 0,0 -0.00567,-0.0149 -0.01448,-0.044561 -0.00439,-0.01447 -0.00965,-0.033071 -0.01525,-0.054631 0,0 0,-2.62e-4 0,-2.62e-4 -3.704e-4,-0.0013 -6.879e-4,-0.0034 -0.00103,-0.0048 -0.00533,-0.02077 -0.010935,-0.044001 -0.016719,-0.070601 -3.439e-4,-0.0013 -6.879e-4,-0.0034 -0.00103,-0.0048 -0.00497,-0.0231 -0.010252,-0.049101 -0.01525,-0.076522 -5.027e-4,-0.0027 -8.996e-4,-0.0048 -0.00143,-0.0083 0,0 0,-2.62e-4 0,-2.62e-4 -2.911e-4,-0.0013 -7.408e-4,-0.0034 -0.00103,-0.0048 -2.91e-4,-0.0013 -4.233e-4,-0.0034 -6.879e-4,-0.0056 -0.00581,-0.033591 -0.011549,-0.069941 -0.016708,-0.1092271 -0.0054,-0.041251 -0.010422,-0.085642 -0.01448,-0.1329587 0,0 0,-2.65e-4 0,-2.65e-4 -0.00405,-0.047351 -0.00727,-0.097602 -0.00927,-0.1507859 0,0 0,-2.62e-4 0,-2.62e-4 -0.00594,-0.1251925 0.00811,-0.2400328 0.037889,-0.3443368 0,0 0,-2.64e-4 0,-2.64e-4 0.019862,-0.069491 0.046824,-0.1342127 0.079864,-0.1942488 0,0 0,-2.651e-4 0,-2.651e-4 0.0082,-0.01476 0.017023,-0.02946 0.025976,-0.043831 0,0 0,-2.62e-4 0,-2.62e-4 0.00896,-0.01421 0.018584,-0.028271 0.028228,-0.041991 0,0 0,-2.621e-4 0,-2.621e-4 0.019386,-0.027621 0.040383,-0.053931 0.062406,-0.079152 0,0 0,-2.62e-4 0,-2.62e-4 0.011051,-0.01249 0.02215,-0.02461 0.033806,-0.036801 0.058268,-0.060091 0.124066,-0.1124163 0.1950148,-0.1571041 0.0028,-0.0013 0.00567,-0.0034 0.00856,-0.0048 0.1038561,0.5030099 0.2236467,1.069795 0.3413672,1.6095375 0.024691,0.113244 0.048629,0.220289 0.072805,0.329818 h -3.44e-4 c 0.01129,0.05118 0.021952,0.09885 0.033059,0.14896 0.00198,0.0094 0.00425,0.01844 0.00634,0.02749 -0.4339055,0.05156 -0.9193051,-0.07668 -1.3387265,-0.423462 -0.014713,-0.01209 -0.028811,-0.02461 -0.04272,-0.03714 -0.00466,-0.0041 -0.00915,-0.0085 -0.013721,-0.01257 -0.00233,-0.0021 -0.00496,-0.0041 -0.00745,-0.0067 -0.00662,-0.0065 -0.01325,-0.0123 -0.019703,-0.01876 -0.018843,-0.01844 -0.037019,-0.03697 -0.054234,-0.055701 -0.016301,-0.01797 -0.031564,-0.035751 -0.046435,-0.053851 -0.011906,-0.01434 -0.023524,-0.029041 -0.034546,-0.043831 -0.00628,-0.0085 -0.012239,-0.01691 -0.018177,-0.025081 -0.00254,-0.0034 -0.00553,-0.0079 -0.00815,-0.01148 -0.00922,-0.01331 -0.018163,-0.02696 -0.026744,-0.040491 -1.468e-4,-2.17e-4 -2.211e-4,-5.29e-4 -3.439e-4,-7.94e-4 -0.00108,-0.0021 -0.00238,-0.0041 -0.00372,-0.0056 -0.00246,-0.0041 -0.00487,-0.0085 -0.00744,-0.01257 -0.025316,-0.041981 -0.047923,-0.084672 -0.06723,-0.1281425 -6.086e-4,-0.0013 -0.00116,-0.0027 -0.00177,-0.0041 -0.021378,-0.048671 -0.039377,-0.098422 -0.053861,-0.1485879 -2.212e-4,-7.94e-4 -5.027e-4,-0.0013 -6.88e-4,-0.0021 -0.00204,-0.0076 -0.00397,-0.01463 -0.00594,-0.02228 -0.00138,-0.0056 -0.00259,-0.01087 -0.00412,-0.01625 -9.56e-5,-2.65e-4 -2.636e-4,-7.94e-4 -3.44e-4,-0.0013 -0.00527,-0.0209 -0.00996,-0.041771 -0.014136,-0.062751 -0.00338,-0.01743 -0.00655,-0.034651 -0.00927,-0.051981 -0.0022,-0.0146 -0.00412,-0.029681 -0.00594,-0.044561 -1.037e-4,-7.94e-4 -2.635e-4,-0.0013 -3.44e-4,-0.0027 -0.00648,-0.053911 -0.00992,-0.1082702 -0.010382,-0.1626972 -1.471e-4,-0.01619 2.25e-5,-0.032411 3.439e-4,-0.048661 7.409e-4,-0.036591 0.00281,-0.073341 0.00595,-0.1099502 0.00439,-0.051111 0.010853,-0.102204 0.01929,-0.153038 0,0 0,-2.65e-4 0,-2.65e-4 0.0013,-0.0083 0.00304,-0.0163 0.00446,-0.02439 1.987e-4,-0.0013 5.028e-4,-0.0021 6.88e-4,-0.0034 0.00338,-0.01886 0.00689,-0.037171 0.010792,-0.055711 8.202e-4,-0.0041 0.00164,-0.0085 0.00246,-0.01257 0.00233,-0.01135 0.0052,-0.02249 0.0078,-0.033771 0.00459,-0.02008 0.00938,-0.039971 0.01448,-0.059811 0.00311,-0.01196 0.00601,-0.023971 0.00927,-0.036001 0.00372,-0.01365 0.00789,-0.027511 0.011906,-0.041271 0.00282,-0.0096 0.00567,-0.01926 0.00856,-0.028601 0.00185,-0.0067 0.00365,-0.01257 0.00554,-0.01908 0,0 0,-2.62e-4 0,-2.62e-4 0.0029,-0.0093 0.00595,-0.01852 0.00891,-0.027451 0.010271,-0.031851 0.021042,-0.063481 0.032318,-0.094722 0.00918,-0.025351 0.018494,-0.051181 0.028227,-0.076151 0.00143,-0.0034 0.00331,-0.0075 0.0048,-0.01114 0.011708,-0.029691 0.023659,-0.059151 0.036034,-0.088042 0.039606,-0.092402 0.081827,-0.1802685 0.1248093,-0.2622451 0,0 0,-2.61e-4 0,-2.61e-4 0.00122,-0.0021 0.00281,-0.0041 0.00412,-0.0074 0.033231,-0.063041 0.066964,-0.1224944 0.09955,-0.1775565 -9.525e-4,0.0013 -0.00185,0.0027 -0.00297,0.0041 0.081052,-0.1374087 0.156885,-0.2485239 0.2102437,-0.3205643 0.018796,-0.025211 0.035071,-0.045931 0.04755,-0.061311 0.012464,-0.01511 0.027706,-0.033211 0.045688,-0.053481 0.071465,-0.080681 0.192855,-0.207414 0.325023,-0.3443367 z M 8.914401,8.2359534 c 0.1115729,0.0013 0.2220946,0.0168 0.326138,0.047141 0.031341,0.0093 0.062045,0.01982 0.092121,0.031581 0.075192,0.029661 0.1458911,0.067791 0.2102443,0.1144082 0.038612,0.027951 0.074967,0.059071 0.1084644,0.093242 0.022328,0.02275 0.043425,0.046861 0.063146,0.072431 0.059181,0.076681 0.1058265,0.1658113 0.1366949,0.2678143 0,0 0,2.64e-4 0,2.64e-4 0.00513,0.01685 0.00991,0.034091 0.014136,0.051601 0,0 0,2.62e-4 0,2.62e-4 0.00425,0.01775 0.00821,0.035581 0.011496,0.053821 0,0 0,2.65e-4 0,2.65e-4 0.00655,0.036731 0.011099,0.074841 0.013724,0.1144062 0,0 0,2.64e-4 0,2.64e-4 0.00122,0.0199 0.0022,0.040111 0.00246,0.060501 2.635e-4,0.02064 7.09e-5,0.040771 -3.44e-4,0.060961 0,0 0,2.62e-4 0,2.62e-4 -8.202e-4,0.040251 -0.00297,0.079802 -0.00669,0.1185124 0,0 0,2.65e-4 0,2.65e-4 -0.00177,0.01939 -0.00419,0.038301 -0.00669,0.057201 0,0 0,2.62e-4 0,2.62e-4 -0.00238,0.01908 -0.00567,0.037591 -0.00891,0.056041 0,0 0,2.65e-4 0,2.65e-4 -0.00648,0.037111 -0.014025,0.073381 -0.023046,0.1088411 0,0 0,2.651e-4 0,2.651e-4 -0.00452,0.01794 -0.00934,0.035121 -0.01448,0.052401 0,0 0,2.65e-4 0,2.65e-4 -0.00116,0.0041 -0.00281,0.0083 -0.00412,0.01222 -0.00932,0.030391 -0.019637,0.060091 -0.030831,0.089142 -0.00641,0.01656 -0.012716,0.032581 -0.019703,0.048671 0,0 0,2.65e-4 0,2.65e-4 -0.013866,0.032061 -0.029206,0.063331 -0.045321,0.093632 0,0 0,2.62e-4 0,2.62e-4 -0.00801,0.01489 -0.016343,0.029901 -0.024863,0.044561 0,0 0,2.64e-4 0,2.64e-4 -0.00425,0.0075 -0.00898,0.01421 -0.013367,0.02159 -0.00439,0.0074 -0.00883,0.01429 -0.013367,0.02159 0,0 0,2.64e-4 0,2.64e-4 -0.00908,0.01408 -0.018645,0.028201 -0.028228,0.041991 0,0 0,2.62e-4 0,2.62e-4 -0.00962,0.0136 -0.019642,0.02716 -0.029716,0.04049 0,0 0,2.6e-4 0,2.6e-4 -0.010088,0.01318 -0.020653,0.02595 -0.031205,0.03903 0,0 0,2.64e-4 0,2.64e-4 -0.021209,0.02556 -0.043459,0.05041 -0.066489,0.07429 0,0 0,2.65e-4 0,2.65e-4 -0.044797,0.04644 -0.093462,0.08911 -0.1444966,0.128172 -0.00473,0.0027 -0.00969,0.0075 -0.01448,0.01079 -0.015888,0.01183 -0.03185,0.02336 -0.048289,0.0346 C 9.2114378,9.7545143 9.1086802,9.229178 8.914256,8.2340804 Z" />
      <path
         id="path860-0"
         style="fill:#45007e;fill-opacity:0.0695295;stroke:none;stroke-width:0.0294068px;stroke-linecap:butt;stroke-linejoin:miter;stroke-opacity:1"
         d="M 8.844171,2.5480204 C 8.5157765,2.5467204 8.2271848,2.9915471 8.2271848,2.9915471 8.2710617,2.934066 8.3284123,2.8814119 8.3932247,2.8500293 8.1833543,2.9631656 7.9782979,3.3518032 7.8040973,3.8589122 7.5850673,4.4965528 7.6068007,5.2458495 7.6792889,5.8617897 6.3064641,6.7493761 6.1189949,7.0871008 5.7922944,7.6529499 5.0982489,8.8550816 5.6108301,10.153622 6.4902596,10.798453 c 0,0 3.439e-4,2.65e-4 3.439e-4,2.65e-4 0.00116,7.94e-4 0.00238,0.0013 0.00372,0.0027 0.00103,7.94e-4 0.00212,0.0013 0.00331,0.0021 0.035351,0.02556 0.071255,0.05038 0.1077232,0.07391 0.00717,0.0041 0.014351,0.0093 0.021521,0.0136 0.011583,0.0075 0.02323,0.01429 0.034922,0.02159 0.011202,0.0067 0.022492,0.01339 0.033805,0.02016 0,0 3.439e-4,2.65e-4 3.439e-4,2.65e-4 6.086e-4,2.64e-4 0.00116,7.94e-4 0.00177,0.0013 0.027553,0.01582 0.055513,0.03136 0.083578,0.04609 0.00792,0.0041 0.015801,0.0087 0.023748,0.01257 0.00641,0.0034 0.012895,0.0067 0.01929,0.0097 0.017613,0.0089 0.035344,0.01717 0.05312,0.02508 0.00198,7.94e-4 0.00419,0.0021 0.00634,0.0027 0.016735,0.0079 0.033634,0.01482 0.050518,0.02228 0.00602,0.0027 0.01211,0.0048 0.018177,0.008 0.02124,0.0089 0.042439,0.01781 0.063888,0.02548 0.4509366,0.170895 1.0903845,0.249907 1.7280093,0.103267 0.01017,0.054 0.019362,0.105876 0.026744,0.153797 0.00459,0.03004 0.00872,0.05879 0.012253,0.08654 0.024794,0.194469 0.023585,0.334328 6.879e-4,0.433493 -0.00324,0.014 -0.00702,0.02709 -0.011139,0.03973 -0.00419,0.01249 -0.00877,0.02453 -0.013724,0.03567 -0.00495,0.01101 -0.010541,0.02133 -0.016364,0.03083 -0.00581,0.0096 -0.011988,0.01876 -0.018592,0.02654 -0.00662,0.0083 -0.013435,0.0155 -0.020817,0.02262 -0.00738,0.0074 -0.015311,0.01304 -0.0234,0.01913 -0.00809,0.0057 -0.016451,0.01093 -0.025273,0.01537 -0.026478,0.01381 -0.055945,0.0231 -0.088407,0.0286 -0.010832,0.0021 -0.022008,0.0027 -0.033432,0.0041 -0.011419,7.94e-4 -0.023264,0.0021 -0.035287,0.0021 -0.024071,7.93e-4 -0.049152,6.3e-5 -0.075405,-0.0013 -0.026281,-0.0013 -0.053832,-0.0034 -0.082092,-0.0074 -0.028257,-0.0027 -0.057239,-0.0074 -0.087292,-0.01114 -0.030054,-0.0041 -0.060847,-0.0084 -0.092493,-0.01257 -0.013266,-0.0021 -0.026184,-0.0034 -0.038629,-0.0041 -0.012446,-7.94e-4 -0.024712,-0.0013 -0.036401,-0.0013 -0.011676,5.8e-5 -0.022915,5.29e-4 -0.033806,0.0013 -0.010914,7.94e-4 -0.021405,0.0021 -0.031571,0.0034 -0.02029,0.0034 -0.039046,0.0086 -0.056462,0.01468 -0.00872,0.0027 -0.017256,0.0074 -0.025276,0.01079 -0.008,0.0034 -0.01569,0.008 -0.023045,0.01222 -0.00735,0.0041 -0.01415,0.0092 -0.020817,0.01394 -0.00669,0.0048 -0.012946,0.01019 -0.018946,0.01537 -0.00603,0.0057 -0.011689,0.01148 -0.017063,0.0177 -0.0054,0.0056 -0.010827,0.01183 -0.015594,0.01839 -0.038291,0.05075 -0.057239,0.113637 -0.061659,0.175319 -0.00103,0.01524 -0.00138,0.03063 -6.879e-4,0.04572 6.085e-4,0.0149 0.00204,0.02983 0.00446,0.04421 0.0022,0.01421 0.00554,0.0284 0.00927,0.04162 0.00372,0.01312 0.00791,0.02569 0.013022,0.03751 0.01017,0.02323 0.023222,0.04292 0.037889,0.05758 0,0 0.00574,0.0086 0.017478,0.02228 0.011745,0.01368 0.029291,0.03308 0.052746,0.05463 0.01175,0.01079 0.025106,0.02185 0.039744,0.03343 0.014644,0.01154 0.0307,0.02323 0.048289,0.03494 0.026397,0.01757 0.056183,0.03443 0.08915,0.04981 0.010996,0.0048 0.02209,0.01019 0.033806,0.01468 0.011737,0.0048 0.023967,0.0093 0.036401,0.01326 0.024884,0.0085 0.051288,0.01561 0.079119,0.02159 0.013919,0.0027 0.02807,0.0048 0.042719,0.0076 0.014631,0.0021 0.029571,0.0034 0.044947,0.0048 0.015383,0.0013 0.031441,0.0021 0.047549,0.0021 0.016092,2.25e-4 0.032562,-2.27e-4 0.049403,-0.0013 0.016825,-7.93e-4 0.033692,-0.0021 0.051259,-0.0041 0.017579,-0.0021 0.03556,-0.0048 0.05386,-0.0083 0.018301,-0.0034 0.037062,-0.0074 0.056089,-0.01183 0.01902,-0.0048 0.038557,-0.01027 0.058316,-0.01617 0.019772,-0.0067 0.039686,-0.01265 0.060179,-0.0205 0.02047,-0.0079 0.041555,-0.01638 0.062773,-0.02548 0.021214,-0.0094 0.042683,-0.01955 0.064635,-0.03047 0.02196,-0.01106 0.044186,-0.0231 0.066864,-0.03601 0.022656,-0.01283 0.04568,-0.02654 0.069092,-0.04162 0.020503,-0.01291 0.040512,-0.02617 0.059431,-0.04011 0.018917,-0.0136 0.036868,-0.02796 0.054234,-0.04233 0.017388,-0.01421 0.033899,-0.02883 0.049778,-0.04385 0.015861,-0.01476 0.031247,-0.03047 0.045688,-0.04607 0.014441,-0.01529 0.02817,-0.03112 0.041231,-0.04715 0.013081,-0.01601 0.025403,-0.0325 0.037148,-0.04903 0.011766,-0.01656 0.022963,-0.0332 0.033432,-0.05017 0.010467,-0.01712 0.02006,-0.03428 0.029342,-0.05159 0.00926,-0.01754 0.018219,-0.03472 0.026389,-0.05241 0.016287,-0.03536 0.03032,-0.07138 0.042346,-0.107727 0.00603,-0.01842 0.011297,-0.03658 0.016364,-0.055 0.00505,-0.01863 0.00964,-0.0368 0.013724,-0.05534 0.00412,-0.01876 0.00787,-0.03709 0.011139,-0.05571 0.0196,-0.111754 0.024145,-0.224854 0.020052,-0.334309 -0.0013,-0.03644 -0.00358,-0.07261 -0.00669,-0.108101 -0.00311,-0.03551 -0.00682,-0.07029 -0.011139,-0.104375 -0.00495,-0.03938 -0.01075,-0.07774 -0.016708,-0.114771 -0.00169,-0.01135 -0.00365,-0.02193 -0.0056,-0.03308 -0.00324,-0.01921 -0.00641,-0.03715 -0.00968,-0.05534 -0.00156,-0.0091 -0.00281,-0.01601 -0.00446,-0.02474 -0.00246,-0.01394 -0.00487,-0.02638 -0.00745,-0.04011 -8.202e-4,-0.0041 -0.00169,-0.0088 -0.00246,-0.01291 -0.00533,-0.02776 -0.010155,-0.05419 -0.014838,-0.07912 0,0 -0.00986,-0.05067 -0.010025,-0.0516 0.1940266,-0.097 0.3817702,-0.221253 0.5571828,-0.37591 2.582e-4,-2.22e-4 4.498e-4,-5.29e-4 6.879e-4,-7.94e-4 0.040591,-0.03579 0.080777,-0.07261 0.1199814,-0.111807 0,0 0,-2.65e-4 0,-2.65e-4 0.0058,-0.0057 0.01138,-0.01183 0.01706,-0.01804 0.0015,-0.0013 0.0032,-0.0027 0.0048,-0.0048 0.0015,-0.0013 0.0029,-0.0034 0.0045,-0.0048 0.01268,-0.01347 0.02533,-0.02758 0.03751,-0.04198 0.0068,-0.0082 0.01377,-0.01566 0.02041,-0.02405 0,0 0,-2.65e-4 0,-2.65e-4 0.0051,-0.0067 0.01019,-0.01304 0.01525,-0.01982 10e-4,-0.0013 0.0022,-0.0027 0.0033,-0.0041 4.5e-4,-5.29e-4 9.52e-4,-0.0013 0.0014,-0.0021 8.2e-4,-0.0013 0.0016,-0.0021 0.0025,-0.0034 0.0055,-0.0075 0.01127,-0.01429 0.01671,-0.02193 0.0037,-0.0048 0.0071,-0.01074 0.01079,-0.01577 0.0089,-0.01257 0.0178,-0.02508 0.02639,-0.03823 0,0 0,-2.65e-4 0,-2.65e-4 0.0028,-0.0041 0.0054,-0.0088 0.0082,-0.01291 5.56e-4,-7.94e-4 0.0012,-0.0013 0.0018,-0.0027 0.0025,-0.0041 0.0053,-0.0083 0.0078,-0.01222 0.0058,-0.0094 0.01182,-0.01886 0.01748,-0.02823 0,0 0,-2.64e-4 0,-2.64e-4 0.0032,-0.0059 0.0065,-0.01122 0.0097,-0.01691 7.41e-4,-0.0013 0.0014,-0.0027 0.0021,-0.0041 0.0016,-0.0027 0.0035,-0.0059 0.0052,-0.0087 0.0055,-0.0098 0.01102,-0.01926 0.01637,-0.02896 0,0 0,-2.65e-4 0,-2.65e-4 0.01074,-0.01995 0.02116,-0.04003 0.0312,-0.06054 0,0 0,-2.64e-4 0,-2.64e-4 0.0302,-0.06183 0.05739,-0.1267067 0.08135,-0.193525 0.0079,-0.0222 0.01577,-0.044571 0.02304,-0.067231 0,0 0,-2.64e-4 0,-2.64e-4 0,0 0,-2.65e-4 0,-2.65e-4 0.0073,-0.022621 0.01427,-0.045301 0.02082,-0.068381 0,0 0,-2.62e-4 0,-2.62e-4 0.0065,-0.02296 0.01275,-0.046091 0.01859,-0.069451 0,0 0,-2.64e-4 0,-2.64e-4 0.0058,-0.02331 0.01126,-0.046931 0.01636,-0.070561 0,0 0,-2.62e-4 0,-2.62e-4 9.53e-4,-0.0048 0.0019,-0.0098 0.003,-0.01434 2.36e-4,-0.0013 4.77e-4,-0.0021 6.88e-4,-0.0034 1.55e-4,-7.94e-4 2.21e-4,-0.0013 3.44e-4,-0.0021 0.0035,-0.01736 0.0073,-0.034281 0.01038,-0.051601 0.0043,-0.023651 0.0083,-0.047451 0.01191,-0.071302 3.6e-5,-2.3e-4 -3.8e-5,-5.29e-4 0,-7.93e-4 0.0036,-0.02384 0.0068,-0.047651 0.0097,-0.071661 0,0 0,-2.64e-4 0,-2.64e-4 0.0028,-0.02397 0.0053,-0.048361 0.0075,-0.072431 0,0 0,-2.65e-4 0,-2.65e-4 0.002,-0.02397 0.0035,-0.048021 0.0048,-0.072071 0,0 0,-2.65e-4 0,-2.65e-4 0.0012,-0.024001 0.0023,-0.048101 0.003,-0.072071 0,0 0,-2.65e-4 0,-2.65e-4 5.02e-4,-0.02379 6.08e-4,-0.047951 3.44e-4,-0.071671 -3e-6,-2.17e-4 2e-6,-5.29e-4 0,-7.94e-4 -2.64e-4,-0.023791 -0.0011,-0.047291 -0.0021,-0.070941 0,0 0,-2.65e-4 0,-2.65e-4 -0.001,-0.02357 -0.0025,-0.047221 -0.0045,-0.070581 0,0 0,-2.62e-4 0,-2.62e-4 -0.0018,-0.023231 -0.0041,-0.046511 -0.0067,-0.069451 0,0 0,-2.65e-4 0,-2.65e-4 0,0 0,-2.65e-4 0,-2.65e-4 -0.0025,-0.02289 -0.0058,-0.045791 -0.0093,-0.068371 -3.8e-5,-2.11e-4 3.7e-5,-5.29e-4 0,-7.93e-4 -0.0035,-0.022671 -0.0076,-0.045001 -0.01191,-0.067211 0,0 0,-2.64e-4 0,-2.64e-4 -0.0043,-0.02215 -0.009,-0.044071 -0.01414,-0.065781 0,0 0,-2.62e-4 0,-2.62e-4 0,0 0,-2.62e-4 0,-2.62e-4 -0.0052,-0.0218 -0.01109,-0.043051 -0.01706,-0.064261 0,0 0,-2.64e-4 0,-2.64e-4 -0.006,-0.02125 -0.01245,-0.042191 -0.01929,-0.062751 0,0 0,-2.65e-4 0,-2.65e-4 -0.0068,-0.02072 -0.01422,-0.040961 -0.02193,-0.060881 0,0 0,-2.62e-4 0,-2.62e-4 -0.0077,-0.02003 -0.01591,-0.039451 -0.02451,-0.058721 0,0 0,-2.621e-4 0,-2.621e-4 -0.0087,-0.01947 -0.01761,-0.038311 -0.0271,-0.056851 -0.01295,-0.025081 -0.02663,-0.049821 -0.04049,-0.074291 -0.001,-0.0021 -0.0022,-0.0034 -0.0034,-0.0056 -0.06906,-0.1210974 -0.149179,-0.2332356 -0.237732,-0.3346876 -0.0013,-0.0013 -0.0026,-0.0027 -0.0041,-0.0041 C 9.9235064,7.827339 9.7589034,7.6917973 9.5831398,7.5892403 c -8.202e-4,-5.29e-4 -0.00164,-7.94e-4 -0.00246,-0.0013 -0.1323686,-0.076952 -0.2709145,-0.1351257 -0.4112,-0.1723604 -6.879e-4,-2.2e-4 -0.00143,-1.45e-4 -0.00212,-2.62e-4 -0.093343,-0.024531 -0.1873619,-0.040041 -0.2808422,-0.045281 -9.524e-4,-5.6e-5 -0.0019,5e-5 -0.00297,0 -0.02706,-0.0013 -0.054048,-0.0021 -0.080978,-0.0021 v 2.65e-4 c -0.019028,1.48e-4 -0.037881,2.64e-4 -0.056829,0.0013 -0.017497,7.94e-4 -0.034991,0.0021 -0.052372,0.0041 -0.01194,0.0013 -0.023771,0.0027 -0.035661,0.0041 C 8.5842746,7.0014277 8.5216489,6.6826784 8.4482078,6.305692 c -4.84e-5,-2.33e-4 4.68e-5,-5.29e-4 0,-7.94e-4 C 8.4398578,6.261987 8.4329308,6.220516 8.4255728,6.1786045 8.6297363,5.9616992 8.8164722,5.7550312 8.9285235,5.6069352 c 0.00988,-0.01291 0.019888,-0.02695 0.03009,-0.041631 0.010197,-0.01442 0.020751,-0.029611 0.031204,-0.045711 0.010451,-0.01585 0.020907,-0.033081 0.03157,-0.050531 0.010697,-0.01757 0.021486,-0.035511 0.032318,-0.054201 0.086507,-0.150085 0.1764247,-0.3416538 0.2525898,-0.557556 0.00948,-0.026731 0.018835,-0.054131 0.02786,-0.081722 0,0 0,-2.65e-4 0,-2.65e-4 0.00906,-0.027751 0.017838,-0.055561 0.02639,-0.083942 C 9.4715069,4.3224469 9.5351469,3.9002036 9.4790372,3.4982597 9.470407,3.4365185 9.4590238,3.3752553 9.4444915,3.3147631 c 0,0 0,-2.65e-4 0,-2.65e-4 -0.0073,-0.030331 -0.01529,-0.060381 -0.024159,-0.090262 -0.017743,-0.059811 -0.038672,-0.1186463 -0.063148,-0.1764395 -0.00727,-0.0173 -0.014549,-0.033281 -0.021931,-0.049391 -0.00281,-0.0057 -0.0054,-0.01183 -0.00815,-0.01805 -0.00151,-0.0034 -0.00324,-0.0067 -0.0048,-0.0097 -0.00854,-0.01807 -0.016975,-0.035141 -0.025628,-0.051591 -2.14e-4,-5.29e-4 -5.027e-4,-7.94e-4 -6.879e-4,-0.0013 -0.020325,-0.038821 -0.040771,-0.074062 -0.061658,-0.1058701 -0.00122,-0.0021 -0.00233,-0.0034 -0.00372,-0.0057 -0.019867,-0.029821 -0.039944,-0.056641 -0.06018,-0.080592 -9.525e-4,-0.0013 -0.00185,-0.0021 -0.00297,-0.0034 -0.00973,-0.0114 -0.019579,-0.0222 -0.029342,-0.032341 -1.916e-4,-2.3e-4 -5.292e-4,-1.43e-4 -6.879e-4,-2.65e-4 -0.032302,-0.033361 -0.064619,-0.060301 -0.097319,-0.080962 -6.085e-4,-2.65e-4 -0.00116,-7.94e-4 -0.00177,-0.0013 -0.019145,-0.01188 -0.038412,-0.02167 -0.057576,-0.029681 -0.00397,-0.0013 -0.0079,-0.0034 -0.011906,-0.0048 -0.030996,-0.01175 -0.061847,-0.01916 -0.092492,-0.02193 -5.821e-4,-6.6e-5 -0.00116,6.1e-5 -0.00177,0 -0.010205,-7.93e-4 -0.020298,-0.0021 -0.030464,-0.0021 z M 8.697818,2.8975883 c 0.00759,0.0067 0.01511,0.01352 0.022635,0.02125 0.058777,0.058531 0.1172954,0.1460529 0.1727255,0.2719233 0.075354,0.1646683 0.3036923,1.3029247 -0.5605255,2.178944 -1.14e-5,-2.3e-4 1.11e-5,-5.29e-4 0,-7.931e-4 -0.00185,-0.040491 -0.0031,-0.080411 -0.00412,-0.1196183 -8.202e-4,-0.035721 -0.00156,-0.070801 -0.00177,-0.1055001 -8.23e-5,-0.01715 2.632e-4,-0.033701 3.439e-4,-0.050511 2.635e-4,-0.052491 0.00143,-0.103753 0.00331,-0.153805 4.234e-4,-0.01169 5.557e-4,-0.02357 0.00103,-0.035261 0.00108,-0.026031 0.00238,-0.052051 0.00412,-0.077641 0.00108,-0.01828 0.00225,-0.035811 0.00372,-0.053471 0.00156,-0.02201 0.00331,-0.044221 0.0052,-0.065801 0.00297,-0.033041 0.00641,-0.065381 0.010025,-0.097312 0.00304,-0.02679 0.00618,-0.053401 0.00968,-0.079512 0.00116,-0.0092 0.00233,-0.01834 0.00372,-0.02695 0.00796,-0.056781 0.016928,-0.1114082 0.026744,-0.1641952 0.00405,-0.021801 0.00868,-0.043121 0.01302,-0.064261 0.00177,-0.0094 0.00358,-0.01886 0.00554,-0.027831 0.00512,-0.02384 0.010541,-0.047481 0.015949,-0.070571 1.756e-4,-7.941e-4 1.968e-4,-0.0013 3.439e-4,-0.0021 0.012192,-0.051611 0.025106,-0.101028 0.038627,-0.1482089 0.00603,-0.02098 0.011993,-0.041271 0.018177,-0.061331 0.00156,-0.0048 0.00351,-0.01066 0.0052,-0.0158 0.00634,-0.02016 0.012798,-0.039901 0.01929,-0.059081 h -3.42e-4 C 8.6759556,3.4026502 8.8930599,3.191076 8.8930599,3.191076 8.8365408,3.0697727 8.778816,2.9801339 8.7203343,2.9191557 c -0.00752,-0.008 -0.01516,-0.01416 -0.022635,-0.02125 z M 7.827871,6.8001101 c 0.0054,0.030391 0.012528,0.068191 0.016716,0.093952 0.011946,0.073681 0.02947,0.1721354 0.051633,0.2901027 0.022164,0.1180013 0.048771,0.255519 0.079121,0.408252 0.00365,0.01852 0.00853,0.041041 0.012253,0.059811 -0.054443,0.034711 -0.1049697,0.070151 -0.1515549,0.1062171 -2.635e-4,2.23e-4 -8.202e-4,7.94e-4 -0.00103,0.0013 -3.969e-4,2.621e-4 -6.615e-4,7.941e-4 -0.00103,0.0013 -0.018116,0.01394 -0.035755,0.028031 -0.052748,0.042341 -8.202e-4,7.94e-4 -0.00164,0.0013 -0.00246,0.0021 -8.202e-4,7.941e-4 -0.00164,0.0013 -0.00246,0.0021 -0.013396,0.01135 -0.027038,0.02302 -0.039744,0.034581 -0.00981,0.0089 -0.01919,0.01807 -0.028601,0.02653 -0.00533,0.0048 -0.010819,0.0099 -0.015949,0.01468 -0.00108,0.0013 -0.00246,0.0027 -0.00372,0.0034 -0.00801,0.008 -0.015676,0.01585 -0.023402,0.02371 -0.00973,0.01005 -0.019356,0.01982 -0.0286,0.029671 -0.00172,0.0021 -0.00338,0.0041 -0.0052,0.0057 -0.00842,0.0094 -0.01652,0.01876 -0.024514,0.027831 -0.010218,0.01183 -0.020121,0.02363 -0.029716,0.035651 -0.00204,0.0027 -0.00419,0.0055 -0.00634,0.0083 -0.00588,0.0076 -0.011811,0.01495 -0.017478,0.022621 -0.010908,0.01429 -0.021944,0.028541 -0.031946,0.043061 -0.05514,0.079922 -0.096656,0.1608982 -0.1274075,0.2421968 -0.00612,0.01606 -0.011837,0.032411 -0.017063,0.048661 0,0 0,2.621e-4 0,2.621e-4 -0.010541,0.032481 -0.019507,0.064921 -0.026744,0.097332 -0.00358,0.01603 -0.00682,0.032131 -0.00968,0.048301 0,0 0,2.65e-4 0,2.65e-4 -0.0029,0.01603 -0.00533,0.032201 -0.00744,0.048301 -0.00198,0.01598 -0.00379,0.031921 -0.0052,0.047941 0,0 0,2.62e-4 0,2.62e-4 -0.026764,0.304495 0.070443,0.5931557 0.1775553,0.809413 0.011263,0.02275 0.022829,0.044631 0.034172,0.065761 0,0 0,2.64e-4 0,2.64e-4 0.01129,0.02103 0.022674,0.040971 0.033798,0.060161 0,0 0,2.64e-4 0,2.64e-4 0.011107,0.01934 0.022397,0.037381 0.03306,0.054631 0,0 0,2.62e-4 0,2.62e-4 0.032043,0.051901 0.061543,0.094942 0.084691,0.1270325 0.030895,0.042851 0.050518,0.066141 0.050518,0.066141 0,0 -0.00567,-0.0149 -0.01448,-0.044561 -0.00439,-0.01447 -0.00965,-0.033071 -0.01525,-0.054631 0,0 0,-2.65e-4 0,-2.65e-4 -3.704e-4,-0.0013 -6.879e-4,-0.0034 -0.00103,-0.0048 -0.00533,-0.02077 -0.010935,-0.044001 -0.016719,-0.070601 -3.439e-4,-0.0013 -6.879e-4,-0.0034 -0.00103,-0.0048 -0.00496,-0.0231 -0.010252,-0.049101 -0.01525,-0.076531 -5.027e-4,-0.0027 -8.996e-4,-0.0048 -0.00143,-0.0083 0,0 0,-2.64e-4 0,-2.64e-4 -2.911e-4,-0.0013 -7.409e-4,-0.0034 -0.00103,-0.0048 -2.911e-4,-0.0013 -4.234e-4,-0.0034 -6.88e-4,-0.0056 -0.00581,-0.033591 -0.011549,-0.069941 -0.016708,-0.1092361 -0.0054,-0.041261 -0.010422,-0.085642 -0.01448,-0.1329556 0,0 0,-2.62e-4 0,-2.62e-4 -0.00405,-0.047361 -0.00727,-0.097602 -0.00927,-0.150791 0,0 0,-2.62e-4 0,-2.62e-4 -0.00595,-0.1251985 0.00811,-0.2400377 0.037889,-0.3443338 0,0 0,-2.62e-4 0,-2.62e-4 0.019862,-0.069491 0.046822,-0.1342127 0.079863,-0.1942418 0,0 0,-2.64e-4 0,-2.64e-4 0.0082,-0.01476 0.017023,-0.029451 0.025976,-0.043831 0,0 0,-2.64e-4 0,-2.64e-4 0.00896,-0.01421 0.018584,-0.028281 0.028228,-0.041991 0,0 0,-2.64e-4 0,-2.64e-4 0.019396,-0.027631 0.040384,-0.053931 0.062407,-0.079152 0,0 0,-2.65e-4 0,-2.65e-4 0.011051,-0.01251 0.02215,-0.02461 0.033806,-0.036801 0.058267,-0.060091 0.1240653,-0.1124132 0.1950144,-0.1571041 0.0028,-0.0013 0.00567,-0.0034 0.00856,-0.0048 0.1038569,0.5030099 0.2236472,1.0697981 0.3413681,1.6095397 0.02469,0.1132502 0.048628,0.2202874 0.072804,0.3298244 h -3.44e-4 c 0.01129,0.05119 0.021952,0.09885 0.033059,0.148966 0.00198,0.0094 0.00425,0.01844 0.00634,0.02744 -0.433905,0.05156 -0.919304,-0.07667 -1.3387266,-0.4234589 -0.014713,-0.01209 -0.028811,-0.02461 -0.042719,-0.037141 -0.00466,-0.0041 -0.00915,-0.0085 -0.013721,-0.01257 -0.00233,-0.0021 -0.00495,-0.0041 -0.00744,-0.0067 -0.00662,-0.0065 -0.013253,-0.0123 -0.019703,-0.01876 -0.018843,-0.01844 -0.037019,-0.036971 -0.054234,-0.055711 -0.016301,-0.01799 -0.031563,-0.035741 -0.046435,-0.053851 -0.011906,-0.01434 -0.023524,-0.029041 -0.034546,-0.043821 -0.00628,-0.0085 -0.012239,-0.01701 -0.018177,-0.02508 -0.00251,-0.0034 -0.00553,-0.0079 -0.00815,-0.01148 -0.00922,-0.01333 -0.018163,-0.02686 -0.026744,-0.040501 -1.471e-4,-2.17e-4 -2.212e-4,-5.29e-4 -3.44e-4,-7.94e-4 -0.00108,-0.0021 -0.00238,-0.0041 -0.00372,-0.0056 -0.00246,-0.0041 -0.00487,-0.0085 -0.00744,-0.01257 -0.025315,-0.041971 -0.047924,-0.084662 -0.06723,-0.1281375 -6.085e-4,-0.0013 -0.00116,-0.0027 -0.00177,-0.0041 -0.021378,-0.048671 -0.039377,-0.098422 -0.05386,-0.1485789 -2.212e-4,-7.94e-4 -5.027e-4,-0.0013 -6.88e-4,-0.0021 -0.00204,-0.0076 -0.00397,-0.01463 -0.00594,-0.022281 -0.00138,-0.0055 -0.00259,-0.01087 -0.00412,-0.0163 -9.49e-5,-2.65e-4 -2.635e-4,-7.94e-4 -3.439e-4,-0.0013 -0.00527,-0.0209 -0.00996,-0.041771 -0.014136,-0.062751 -0.00338,-0.01738 -0.00655,-0.034651 -0.00927,-0.051971 -0.0022,-0.01463 -0.00412,-0.029681 -0.00595,-0.044571 -1.032e-4,-7.94e-4 -2.635e-4,-0.0013 -3.44e-4,-0.0027 -0.00648,-0.053911 -0.00992,-0.1082622 -0.010379,-0.1626902 -1.476e-4,-0.01625 2.23e-5,-0.032421 3.44e-4,-0.048661 7.408e-4,-0.036591 0.00281,-0.073341 0.00595,-0.1099472 0.00439,-0.051111 0.010853,-0.102201 0.01929,-0.153043 0,0 0,-2.62e-4 0,-2.62e-4 0.0013,-0.0083 0.00304,-0.01633 0.00446,-0.024391 1.985e-4,-0.0013 5.027e-4,-0.0021 6.879e-4,-0.0034 0.00338,-0.01887 0.00689,-0.037181 0.010792,-0.055701 8.202e-4,-0.0041 0.00164,-0.0085 0.00246,-0.01257 0.00233,-0.01135 0.0052,-0.02249 0.0078,-0.033771 0.00459,-0.02008 0.00938,-0.039971 0.01448,-0.059811 0.0031,-0.01196 0.00602,-0.02397 0.00927,-0.036011 0.00372,-0.01365 0.00789,-0.027551 0.011906,-0.041261 0.00281,-0.0096 0.00567,-0.01926 0.00856,-0.028601 0.00177,-0.0067 0.00358,-0.01257 0.00553,-0.0191 0,0 0,-2.6e-4 0,-2.6e-4 0.0029,-0.0093 0.00595,-0.01855 0.00891,-0.027411 0.010271,-0.031851 0.021044,-0.063471 0.032318,-0.094722 0.00919,-0.025351 0.018491,-0.051191 0.028228,-0.076151 0.00143,-0.0034 0.00331,-0.0075 0.0048,-0.01114 0.011726,-0.029691 0.023659,-0.059151 0.036034,-0.088042 0.039607,-0.092392 0.081828,-0.1802706 0.1248097,-0.2622412 0,0 0,-2.62e-4 0,-2.62e-4 0.00122,-0.0021 0.00281,-0.0041 0.00412,-0.0074 0.033231,-0.063041 0.066964,-0.1224864 0.09955,-0.1775565 -9.526e-4,0.0013 -0.00185,0.0027 -0.00297,0.0041 0.081052,-0.1374137 0.1568849,-0.2485289 0.2102442,-0.3205663 0.018796,-0.02522 0.035071,-0.045931 0.047549,-0.061311 0.012464,-0.01511 0.027702,-0.033201 0.045687,-0.053481 0.071464,-0.080682 0.1928556,-0.2074121 0.3250229,-0.3443388 z m 0.9609537,1.2436215 c 0.1115726,0.0013 0.2220949,0.01672 0.3261383,0.047141 0.031341,0.0093 0.062046,0.01982 0.092121,0.031581 0.075192,0.029661 0.1458907,0.067781 0.2102438,0.1144082 0.038612,0.027951 0.074964,0.059071 0.1084648,0.093232 0.022328,0.02275 0.043424,0.046861 0.063146,0.072431 0.059181,0.076681 0.1058253,0.1658173 0.1366947,0.2678143 0,0 0,2.62e-4 0,2.62e-4 0.00512,0.01699 0.00991,0.034091 0.014137,0.051601 0,0 0,2.59e-4 0,2.59e-4 0.00425,0.01786 0.0082,0.035581 0.011496,0.053821 0,0 0,2.62e-4 0,2.62e-4 0.00655,0.036731 0.011099,0.074851 0.013721,0.1144082 0,0 0,2.65e-4 0,2.65e-4 0.00122,0.01987 0.0022,0.040111 0.00246,0.060501 2.635e-4,0.02064 7.01e-5,0.040771 -3.44e-4,0.060961 0,0 0,2.65e-4 0,2.65e-4 -8.203e-4,0.040251 -0.00297,0.079802 -0.00669,0.1185144 0,0 0,2.65e-4 0,2.65e-4 -0.00177,0.01939 -0.00419,0.038301 -0.00669,0.057201 0,0 0,2.62e-4 0,2.62e-4 -0.00238,0.0191 -0.00567,0.037601 -0.00891,0.056051 0,0 0,2.64e-4 0,2.64e-4 -0.00648,0.037111 -0.014025,0.073372 -0.023045,0.1088392 0,0 0,2.62e-4 0,2.62e-4 -0.00452,0.01794 -0.00934,0.035131 -0.01448,0.052401 0,0 0,2.65e-4 0,2.65e-4 -0.00116,0.0041 -0.00281,0.0083 -0.00412,0.01222 -0.00932,0.030391 -0.019637,0.060091 -0.03083,0.089142 -0.00641,0.01646 -0.012724,0.032581 -0.019703,0.048671 0,0 0,2.64e-4 0,2.64e-4 -0.013872,0.032061 -0.029205,0.063321 -0.045321,0.093622 0,0 0,2.62e-4 0,2.62e-4 -0.00801,0.01489 -0.016343,0.029911 -0.024862,0.044561 0,0 0,2.65e-4 0,2.65e-4 -0.00425,0.0075 -0.00898,0.01421 -0.013367,0.02159 -0.00439,0.0074 -0.00883,0.01429 -0.013366,0.02159 0,0 0,2.621e-4 0,2.621e-4 -0.00908,0.01407 -0.018645,0.028201 -0.028228,0.041991 0,0 0,2.64e-4 0,2.64e-4 -0.00962,0.0136 -0.019642,0.02714 -0.029716,0.040491 0,0 0,2.62e-4 0,2.62e-4 -0.010088,0.01318 -0.020648,0.025961 -0.031204,0.039031 0,0 0,2.62e-4 0,2.62e-4 -0.021209,0.02556 -0.043459,0.050421 -0.066489,0.074291 0,0 0,2.65e-4 0,2.65e-4 -0.044796,0.046441 -0.093462,0.089112 -0.144496,0.128171 -0.00473,0.0027 -0.00968,0.0075 -0.01448,0.0108 -0.015888,0.01183 -0.031851,0.02336 -0.048289,0.0346 C 9.0858601,9.5639056 8.9831021,9.0385622 8.7886789,8.0435036 Z" />
      <path
         style="fill:url(#linearGradient1);fill-opacity:1;stroke:none;stroke-width:0.0294068px;stroke-linecap:butt;stroke-linejoin:miter;stroke-opacity:1"
         d="m 8.7158275,3.0237437 c 0,0 -0.8835108,0.859274 -0.4445091,3.1127624 0.4390035,2.2534514 0.9220105,4.7184909 0.9220105,4.7184909 0.075121,0.398518 0.2559402,1.186791 -0.4008815,1.603309 -0.749044,0.475049 -1.1246631,-0.06326 -1.1246631,-0.06326 -0.1173575,-0.117377 -0.1091274,-0.56347 0.3153428,-0.505394 0.5063247,0.06923 0.8219512,0.148513 0.5283615,-1.131945 C 8.217899,9.4772449 7.7625906,7.3166413 7.6671075,6.7274117 7.5854139,6.2233328 7.2492823,4.7904656 7.6265677,3.6921589 7.9402855,2.7788729 8.3540906,2.2474605 8.7158272,3.0237367 Z"
         id="path860"
         sodipodi:nodetypes="cscscssssc" />
      <path
         style="opacity:0.500664;fill:url(#linearGradient26784);fill-opacity:1;stroke:none;stroke-width:0.0294068px;stroke-linecap:butt;stroke-linejoin:miter;stroke-opacity:1"
         d="m 8.2713184,6.1365061 c 0.4390035,2.2534514 0.9220105,4.7184909 0.9220105,4.7184909 0.075121,0.398518 0.2559402,1.186791 -0.4008815,1.603309 -0.749044,0.475049 -1.1246631,-0.06326 -1.1246631,-0.06326 -0.1173575,-0.117377 -0.1091274,-0.56347 0.3153428,-0.505394 0.5063247,0.06923 0.8219512,0.148513 0.5283615,-1.131945 C 8.217899,9.4772439 7.7625906,7.3166403 7.6671075,6.7274107 Z"
         id="path26641"
         sodipodi:nodetypes="ccscsscc" />
      <path
         style="fill:url(#linearGradient25254);fill-opacity:1;stroke:none;stroke-width:0.0294068px;stroke-linecap:butt;stroke-linejoin:miter;stroke-opacity:1"
         d="m 8.0499206,2.8247378 c 0,0 0.6694631,-1.0332213 1.1300752,0.054521 C 9.5715592,3.8039961 9.0673968,5.0210791 8.7514941,5.4386043 8.426916,5.8675868 7.4791893,6.7857969 7.2795919,7.0310817 7.0799954,7.2763265 5.9755598,8.8716239 7.0420722,9.7534163 8.1111746,10.637383 9.6087736,10.102243 9.5902127,8.7853532 9.5716333,7.4684773 7.3923171,7.6288945 7.4560017,8.9657178 7.4722311,9.3922842 7.56357,9.635277 7.56357,9.635277 c 0,0 -1.2627798,-1.5064097 0.5989896,-2.337077 0.6896367,-0.3077091 1.5957301,0.1310525 2.0125314,0.9432625 0.304337,0.5930287 0.155995,1.6034546 -0.3135738,2.0730125 -0.9219896,0.92199 -2.249188,0.898339 -3.0222359,0.605379 C 5.6674515,10.475769 4.790967,8.9130538 5.6148084,7.4861167 5.9563106,6.894635 6.1423839,6.5540083 7.692839,5.572319 9.0909928,4.6870285 8.8023973,3.2130035 8.7158275,3.0237947 8.481551,2.4919793 8.194217,2.6357331 8.0499206,2.8247748 Z"
         id="path2652"
         sodipodi:nodetypes="csssssccsssscscc" />
      <path
         id="path25289"
         style="fill:url(#linearGradient25532);fill-opacity:1;stroke:none;stroke-width:0.0294068px;stroke-linecap:butt;stroke-linejoin:miter;stroke-opacity:1"
         d="m 8.6666292,2.3812511 c -0.00727,-2.9e-5 -0.014404,5.29e-4 -0.021603,0.0013 0.4562853,0.4606371 1.6084208,2.1088536 -1.9310681,4.668007 -1.5682545,1.1339243 -1.3349798,2.4198446 -0.4007847,3.5810969 0.1644097,0.120508 0.3415861,0.218271 0.5261372,0.288208 0.7730447,0.292971 2.100199,0.316576 3.022188,-0.605416 C 10.331067,9.8449141 10.479449,8.8345422 10.175113,8.2414805 9.7583098,7.4292815 8.8522085,6.9904729 8.1625739,7.298183 6.3008023,8.1288773 7.5635843,9.63533 7.5635843,9.63533 c 0,0 -0.091381,-0.2430468 -0.1075874,-0.6696312 C 7.3923127,7.6288675 9.5716817,7.4684613 9.5902436,8.7853482 9.6088229,10.102226 8.1111896,10.637387 7.042087,9.7534343 5.9755755,8.8716359 7.0800057,7.2763465 7.2796025,7.0310937 7.4792001,6.7858179 8.4269086,5.8675548 8.7514867,5.4385753 9.0673899,5.0210411 9.5715442,3.8039711 9.1799799,2.8792419 9.0216442,2.5053515 8.8386515,2.3820741 8.6666364,2.3812771 Z" />
      <path
         id="path25643"
         style="fill:url(#linearGradient26430);fill-opacity:1;stroke:none;stroke-width:0.0294068px;stroke-linecap:butt;stroke-linejoin:miter;stroke-opacity:1"
         d="M 7.0247793,7.4087581 C 5.5940831,9.3488363 7.2454929,11.372948 9.285238,10.247149 10.02593,9.838339 10.218871,8.569144 9.5751216,7.9794484 8.6894754,7.1681964 6.756798,7.8954067 7.5635766,9.635287 c 0,0 -0.091381,-0.2430618 -0.1075874,-0.6696652 C 7.392305,7.6288065 9.5716733,7.4684343 9.5902354,8.7853162 9.6088147,10.102208 8.1111817,10.637369 7.0420791,9.7533973 6.2291024,9.0812311 6.6771978,7.9961117 7.0247697,7.4087581 Z" />
      <path
         id="path30388"
         style="fill:url(#linearGradient2);fill-opacity:1;stroke:none;stroke-width:0.0294068px;stroke-linecap:butt;stroke-linejoin:miter;stroke-opacity:1"
         d="m 8.625595,7.199546 c -0.019028,1.33e-4 -0.038,5.3e-4 -0.056942,0.0013 C 8.4287778,7.208746 8.2918723,7.239997 8.1625665,7.297658 7.6544438,7.5243714 7.3802048,7.8014699 7.2483717,8.0845134 7.107601,8.9056426 7.5635762,9.634813 7.5635762,9.634813 6.7567979,7.8949257 8.6894748,7.1677264 9.5751207,7.9789764 10.218871,8.568619 10.02593,9.837825 9.2852379,10.246635 9.0481122,10.377519 8.8163721,10.465351 8.593977,10.516181 l 0.2141787,0.437937 C 9.181052,10.833081 9.5452247,10.630209 9.861491,10.313956 10.331059,9.8443791 10.479441,8.8339892 10.175104,8.2409465 9.8470373,7.6016549 9.2157822,7.1937629 8.625595,7.199094 Z m 0.9622517,1.6952994 c -3.175e-4,0.0071 -5.556e-4,0.01265 -9.525e-4,0.01916 3.704e-4,-0.0071 6.085e-4,-0.01257 9.525e-4,-0.01916 z m -0.010588,0.1197054 c -7.938e-4,0.0071 -0.0018,0.01294 -0.00282,0.01971 9.525e-4,-0.0071 0.00188,-0.01294 0.00282,-0.01971 z m -0.019952,0.1188433 c -3.439e-4,0.0013 -7.937e-4,0.0029 -0.00108,0.0051 3.439e-4,-0.0013 7.937e-4,-0.0029 0.00108,-0.0051 z m -0.02484,0.097942 c -0.00146,0.0051 -0.00292,0.01034 -0.00435,0.01511 0.00146,-0.0051 0.00292,-0.01027 0.00435,-0.01511 z m -0.03421,0.1030631 c -0.00233,0.0071 -0.00486,0.01251 -0.00734,0.019 0.00233,-0.0071 0.00494,-0.01251 0.00734,-0.019 z m -0.043489,0.102336 c -0.00146,0.0029 -0.00321,0.0071 -0.00464,0.0096 0.00146,-0.0029 0.00321,-0.0071 0.00464,-0.0096 z m -0.04581,0.086642 c -0.00196,0.0029 -0.00406,0.0071 -0.00608,0.01077 0.00196,-0.0036 0.00406,-0.0071 0.00608,-0.01077 z m -0.053891,0.085572 c -0.0035,0.0051 -0.00715,0.01035 -0.010821,0.01519 0.00364,-0.0051 0.00725,-0.01027 0.010821,-0.01519 z m -0.063965,0.085462 c -0.00209,0.0021 -0.0045,0.0051 -0.00671,0.008 0.00209,-0.0021 0.0045,-0.0051 0.00671,-0.008 z m -0.061519,0.069481 c -0.00335,0.0036 -0.00664,0.0071 -0.010078,0.01077 0.00343,-0.0036 0.00671,-0.0071 0.010078,-0.01077 z m -0.071391,0.069531 c -0.00496,0.0043 -0.00996,0.009 -0.014978,0.01315 0.00503,-0.0043 0.01002,-0.0089 0.014978,-0.01315 z m -0.079747,0.066421 c -0.00471,0.0029 -0.00972,0.0071 -0.014515,0.01069 0.00479,-0.0029 0.00976,-0.0071 0.014515,-0.01069 z m -0.077559,0.054921 c -0.00381,0.0021 -0.00765,0.0051 -0.011512,0.0079 0.00391,-0.0021 0.00767,-0.0051 0.011512,-0.0079 z m -0.083988,0.050771 c -0.00646,0.0036 -0.012938,0.0071 -0.019412,0.01069 0.00653,-0.0029 0.012993,-0.0071 0.019412,-0.01069 z m -0.094528,0.04814 c -0.00522,0.0021 -0.010456,0.0043 -0.015703,0.0071 0.00522,-0.0021 0.010514,-0.0043 0.015703,-0.0071 z m -0.066686,0.02798 c -0.023317,0.0094 -0.046965,0.01823 -0.070863,0.02596 0.023915,-0.0083 0.047536,-0.01688 0.070863,-0.02596 z m -0.1072568,0.03819 c -0.026122,0.0083 -0.052629,0.01497 -0.079349,0.02191 0.026716,-0.0071 0.053228,-0.0136 0.079349,-0.02191 z m -0.1098417,0.02974 c -0.037399,0.0087 -0.075254,0.01561 -0.1136177,0.02154 0.038367,-0.0062 0.076217,-0.01294 0.1136177,-0.02154 z" />
      <path
         style="fill:url(#linearGradient3);fill-opacity:1;stroke:none;stroke-width:0.0294068px;stroke-linecap:butt;stroke-linejoin:miter;stroke-opacity:1"
         d="m 8.9936425,9.8350429 c 0.1217364,0.6221201 0.1996864,1.0199541 0.1996864,1.0199541 0.075121,0.398518 0.2559402,1.186791 -0.4008815,1.603309 -0.749044,0.475049 -1.1246631,-0.06326 -1.1246631,-0.06326 -0.1173575,-0.117377 -0.1091274,-0.56347 0.3153428,-0.505394 0.5063247,0.06923 0.8219512,0.148513 0.5283615,-1.131945 C 8.4589906,10.528732 8.4013191,10.27163 8.3414568,10.000389 Z"
         id="path27384"
         sodipodi:nodetypes="ccscsscc" />
      <path
         id="path27666"
         style="fill:#f6ebff;fill-opacity:0.197812;stroke:none;stroke-width:0.0294068px;stroke-linecap:butt;stroke-linejoin:miter;stroke-opacity:1"
         d="M 8.3041609,3.7222895 C 8.0471312,4.1851516 7.9480306,4.7590589 7.9464641,5.3908124 8.0224046,5.3296212 8.0918082,5.2665239 8.1554063,5.2020187 8.1247857,4.5543429 8.2159395,4.0689113 8.3334577,3.7229105 Z m -0.05595,2.285666 c -0.08316,0.088372 -0.164696,0.1757785 -0.2501074,0.2645522 0.03736,0.3364627 0.092306,0.6814045 0.158098,1.0286253 0.00206,-0.0013 0.00419,-0.0021 0.00638,-0.0021 C 8.2647404,7.2534321 8.371739,7.2248915 8.4811013,7.2108512 8.3828764,6.7078153 8.371235,6.6500622 8.27136,6.1373551 8.2628298,6.0936742 8.2557627,6.0514834 8.2482145,6.0088466 Z M 8.611212,7.8741073 c -0.1118854,0.0085 -0.1999482,0.0021 -0.306324,0.035321 0.4136954,1.9700328 1.0070473,3.7302297 0.5808266,4.4813587 0.5438878,-0.429473 0.3789159,-1.15769 0.3076482,-1.535777 0,0 -0.3019774,-1.5469462 -0.5821508,-2.9809194 z" />
      <path
         id="path31535"
         style="fill:url(#linearGradient4-3);fill-opacity:1;stroke:none;stroke-width:0.0294068px;stroke-linecap:butt;stroke-linejoin:miter;stroke-opacity:1"
         d="m 8.625595,7.199546 c -0.019028,1.33e-4 -0.038,5.3e-4 -0.056942,0.0013 C 8.4287778,7.208746 8.2918723,7.239997 8.1625665,7.297658 7.6544438,7.5243714 7.3802048,7.8014699 7.2483717,8.0845134 7.107601,8.9056426 7.5635762,9.634813 7.5635762,9.634813 6.7567979,7.8949257 8.6894748,7.1677264 9.5751207,7.9789764 10.218871,8.568619 10.02593,9.837825 9.2852379,10.246635 9.0481122,10.377519 8.8163721,10.465351 8.593977,10.516181 l 0.2141787,0.437937 C 9.181052,10.833081 9.5452247,10.630209 9.861491,10.313956 10.331059,9.8443791 10.479441,8.8339892 10.175104,8.2409465 9.8470373,7.6016549 9.2157822,7.1937629 8.625595,7.199094 Z m 0.9622517,1.6952994 c -3.175e-4,0.0071 -5.556e-4,0.01265 -9.525e-4,0.01916 3.704e-4,-0.0071 6.085e-4,-0.01257 9.525e-4,-0.01916 z m -0.010588,0.1197054 c -7.938e-4,0.0071 -0.0018,0.01294 -0.00282,0.01971 9.525e-4,-0.0071 0.00188,-0.01294 0.00282,-0.01971 z m -0.019952,0.1188433 c -3.439e-4,0.0013 -7.937e-4,0.0029 -0.00108,0.0051 3.439e-4,-0.0013 7.937e-4,-0.0029 0.00108,-0.0051 z m -0.02484,0.097942 c -0.00146,0.0051 -0.00292,0.01034 -0.00435,0.01511 0.00146,-0.0051 0.00292,-0.01027 0.00435,-0.01511 z m -0.03421,0.1030631 c -0.00233,0.0071 -0.00486,0.01251 -0.00734,0.019 0.00233,-0.0071 0.00494,-0.01251 0.00734,-0.019 z m -0.043489,0.102336 c -0.00146,0.0029 -0.00321,0.0071 -0.00464,0.0096 0.00146,-0.0029 0.00321,-0.0071 0.00464,-0.0096 z m -0.04581,0.086642 c -0.00196,0.0029 -0.00406,0.0071 -0.00608,0.01077 0.00196,-0.0036 0.00406,-0.0071 0.00608,-0.01077 z m -0.053891,0.085572 c -0.0035,0.0051 -0.00715,0.01035 -0.010821,0.01519 0.00364,-0.0051 0.00725,-0.01027 0.010821,-0.01519 z m -0.063965,0.085462 c -0.00209,0.0021 -0.0045,0.0051 -0.00671,0.008 0.00209,-0.0021 0.0045,-0.0051 0.00671,-0.008 z m -0.061519,0.069481 c -0.00335,0.0036 -0.00664,0.0071 -0.010078,0.01077 0.00343,-0.0036 0.00671,-0.0071 0.010078,-0.01077 z m -0.071391,0.069531 c -0.00496,0.0043 -0.00996,0.009 -0.014978,0.01315 0.00503,-0.0043 0.01002,-0.0089 0.014978,-0.01315 z m -0.079747,0.066421 c -0.00471,0.0029 -0.00972,0.0071 -0.014515,0.01069 0.00479,-0.0029 0.00976,-0.0071 0.014515,-0.01069 z m -0.077559,0.054921 c -0.00381,0.0021 -0.00765,0.0051 -0.011512,0.0079 0.00391,-0.0021 0.00767,-0.0051 0.011512,-0.0079 z m -0.083988,0.050771 c -0.00646,0.0036 -0.012938,0.0071 -0.019412,0.01069 0.00653,-0.0029 0.012993,-0.0071 0.019412,-0.01069 z m -0.094528,0.04814 c -0.00522,0.0021 -0.010456,0.0043 -0.015703,0.0071 0.00522,-0.0021 0.010514,-0.0043 0.015703,-0.0071 z m -0.066686,0.02798 c -0.023317,0.0094 -0.046965,0.01823 -0.070863,0.02596 0.023915,-0.0083 0.047536,-0.01688 0.070863,-0.02596 z m -0.1072568,0.03819 c -0.026122,0.0083 -0.052629,0.01497 -0.079349,0.02191 0.026716,-0.0071 0.053228,-0.0136 0.079349,-0.02191 z m -0.1098417,0.02974 c -0.037399,0.0087 -0.075254,0.01561 -0.1136177,0.02154 0.038367,-0.0062 0.076217,-0.01294 0.1136177,-0.02154 z" />
    </g>
  </g>
</svg>
