<?xml version="1.0" encoding="UTF-8" standalone="no"?>
<svg
   width="68"
   height="68"
   viewBox="0 0 17.991665 17.991665"
   version="1.1"
   id="svg1114"
   inkscape:version="1.4.2 (unknown)"
   sodipodi:docname="barony.svg"
   xmlns:inkscape="http://www.inkscape.org/namespaces/inkscape"
   xmlns:sodipodi="http://sodipodi.sourceforge.net/DTD/sodipodi-0.dtd"
   xmlns:xlink="http://www.w3.org/1999/xlink"
   xmlns="http://www.w3.org/2000/svg"
   xmlns:svg="http://www.w3.org/2000/svg"
   xmlns:rdf="http://www.w3.org/1999/02/22-rdf-syntax-ns#"
   xmlns:cc="http://creativecommons.org/ns#"
   xmlns:dc="http://purl.org/dc/elements/1.1/">
  <style
     type="text/css"
     id="current-color-scheme">.ColorScheme-Highlight { color:#5599ff; }
</style>
  <defs
     id="defs1108">
    <linearGradient
       id="linearGradient12"
       inkscape:collect="always">
      <stop
         style="stop-color:#ffffff;stop-opacity:0;"
         offset="0"
         id="stop10" />
      <stop
         id="stop11"
         offset="0.65909404"
         style="stop-color:#ffffff;stop-opacity:0" />
      <stop
         style="stop-color:#ffffff;stop-opacity:1;"
         offset="1"
         id="stop12" />
    </linearGradient>
    <linearGradient
       id="linearGradient9"
       inkscape:collect="always">
      <stop
         style="stop-color:#000000;stop-opacity:0;"
         offset="0"
         id="stop1" />
      <stop
         id="stop8"
         offset="0.66102529"
         style="stop-color:#000000;stop-opacity:0" />
      <stop
         style="stop-color:#000000;stop-opacity:1;"
         offset="1"
         id="stop9" />
    </linearGradient>
    <linearGradient
       id="linearGradient7"
       inkscape:collect="always">
      <stop
         style="stop-color:#000000;stop-opacity:0;"
         offset="0"
         id="stop5" />
      <stop
         id="stop6"
         offset="0.6586886"
         style="stop-color:#000000;stop-opacity:0" />
      <stop
         style="stop-color:#000000;stop-opacity:1;"
         offset="1"
         id="stop7" />
    </linearGradient>
    <linearGradient
       id="linearGradient4"
       inkscape:collect="always">
      <stop
         style="stop-color:#000000;stop-opacity:0;"
         offset="0"
         id="stop2" />
      <stop
         id="stop3"
         offset="0.67055255"
         style="stop-color:#000000;stop-opacity:0" />
      <stop
         style="stop-color:#000000;stop-opacity:1;"
         offset="1"
         id="stop4" />
    </linearGradient>
    <linearGradient
       inkscape:collect="always"
       id="linearGradient899">
      <stop
         style="stop-color:#535d6c;stop-opacity:1;"
         offset="0"
         id="stop895" />
      <stop
         style="stop-color:#373e48;stop-opacity:1;"
         offset="1"
         id="stop897" />
    </linearGradient>
    <linearGradient
       id="linearGradient1167"
       x1="40.751999"
       x2="40.751999"
       y1="28.507999"
       y2="17.205999"
       gradientUnits="userSpaceOnUse">
      <stop
         style="stop-color:#84fb6e;stop-opacity:1"
         stop-color="#0ab816"
         offset="0"
         id="stop1163" />
      <stop
         style="stop-color:#0dd41a;stop-opacity:1"
         stop-color="#0cf36c"
         offset="1"
         id="stop1165" />
    </linearGradient>
    <linearGradient
       id="cornerBevel"
       inkscape:collect="always">
      <stop
         style="stop-color:#000000;stop-opacity:0;"
         offset="0"
         id="stop2663" />
      <stop
         id="stop2671"
         offset="0.66666675"
         style="stop-color:#000000;stop-opacity:0" />
      <stop
         style="stop-color:#000000;stop-opacity:1;"
         offset="1"
         id="stop2661" />
    </linearGradient>
    <linearGradient
       id="bevel"
       inkscape:collect="always">
      <stop
         id="stop2685"
         offset="0"
         style="stop-color:#000000;stop-opacity:1;" />
      <stop
         id="stop2687"
         offset="1"
         style="stop-color:#000000;stop-opacity:0;" />
    </linearGradient>
    <linearGradient
       id="highlightCorner"
       inkscape:collect="always">
      <stop
         style="stop-color:#ffffff;stop-opacity:0;"
         offset="0"
         id="stop2613" />
      <stop
         id="stop2621"
         offset="0.66666669"
         style="stop-color:#ffffff;stop-opacity:0" />
      <stop
         style="stop-color:#ffffff;stop-opacity:1;"
         offset="1"
         id="stop2611" />
    </linearGradient>
    <linearGradient
       inkscape:collect="always"
       id="highlight">
      <stop
         style="stop-color:#ffffff;stop-opacity:1;"
         offset="0"
         id="stop2921" />
      <stop
         style="stop-color:#ffffff;stop-opacity:0;"
         offset="1"
         id="stop2923" />
    </linearGradient>
    <radialGradient
       inkscape:collect="always"
       xlink:href="#highlightCorner"
       id="radialGradient15"
       gradientUnits="userSpaceOnUse"
       gradientTransform="matrix(0.04294597,-12.079348,17.933991,0.06376112,14.524179,-50.373789)"
       cx="-4.5799766"
       cy="-0.50206107"
       fx="-4.5799766"
       fy="-0.50206107"
       r="0.39687499" />
    <linearGradient
       inkscape:collect="always"
       xlink:href="#highlight"
       id="linearGradient15"
       gradientUnits="userSpaceOnUse"
       x1="-3.8453064"
       y1="-1.1532172"
       x2="-3.8453064"
       y2="-0.8954913"
       gradientTransform="matrix(6.0923077,0,0,6.0923077,32.228528,7.1537621)" />
    <radialGradient
       inkscape:collect="always"
       xlink:href="#linearGradient12"
       id="radialGradient17"
       gradientUnits="userSpaceOnUse"
       gradientTransform="matrix(-0.02247554,-12.045403,-17.967828,0.03352619,1.6640208,-50.22331)"
       cx="-4.575222"
       cy="-0.55256462"
       fx="-4.575222"
       fy="-0.55256462"
       r="0.39687499" />
    <radialGradient
       inkscape:collect="always"
       xlink:href="#linearGradient7"
       id="radialGradient18"
       gradientUnits="userSpaceOnUse"
       gradientTransform="matrix(0.06461187,12.09952,17.933731,-0.09576873,14.609502,64.748231)"
       cx="-4.4284906"
       cy="-0.50121039"
       fx="-4.4284906"
       fy="-0.50121039"
       r="0.39687499" />
    <linearGradient
       inkscape:collect="always"
       xlink:href="#bevel"
       id="linearGradient18"
       gradientUnits="userSpaceOnUse"
       x1="-3.8415797"
       y1="-1.4506671"
       x2="-3.8406549"
       y2="-1.1968651"
       gradientTransform="matrix(6.0923076,0,0,6.0923076,32.228527,-7.1537627)" />
    <radialGradient
       inkscape:collect="always"
       xlink:href="#linearGradient4"
       id="radialGradient20"
       gradientUnits="userSpaceOnUse"
       gradientTransform="matrix(-0.01031383,11.991438,-17.967296,-0.01545561,1.7353715,64.305742)"
       cx="-4.4236727"
       cy="-0.55004197"
       fx="-4.4236727"
       fy="-0.55004197"
       r="0.39687499" />
    <radialGradient
       inkscape:collect="always"
       xlink:href="#cornerBevel"
       id="radialGradient25"
       gradientUnits="userSpaceOnUse"
       gradientTransform="matrix(12.184614,0,0,12.184614,59.63122,10.377613)"
       cx="-4.4568658"
       cy="-0.44864327"
       fx="-4.4568658"
       fy="-0.44864327"
       r="0.39687496" />
    <linearGradient
       inkscape:collect="always"
       xlink:href="#bevel"
       id="linearGradient25"
       gradientUnits="userSpaceOnUse"
       x1="-3.8487544"
       y1="-1.146081"
       x2="-3.8455966"
       y2="-0.890971"
       gradientTransform="matrix(6.0923077,0,0,6.0923077,32.228528,7.1537627)" />
    <radialGradient
       inkscape:collect="always"
       xlink:href="#cornerBevel"
       id="radialGradient29"
       gradientUnits="userSpaceOnUse"
       gradientTransform="matrix(0,-12.184614,12.184614,0,11.27353,-44.427768)"
       cx="-4.5705457"
       cy="-0.48653662"
       fx="-4.5705457"
       fy="-0.48653662"
       r="0.39687496" />
    <radialGradient
       inkscape:collect="always"
       xlink:href="#cornerBevel"
       id="radialGradient30"
       gradientUnits="userSpaceOnUse"
       gradientTransform="matrix(-12.184514,-0.04945749,0.04847411,-11.942243,-43.502155,3.8519053)"
       cx="-4.5342312"
       cy="-0.60337442"
       fx="-4.5342312"
       fy="-0.60337442"
       r="0.39687496" />
    <radialGradient
       inkscape:collect="always"
       xlink:href="#linearGradient9"
       id="radialGradient31"
       gradientUnits="userSpaceOnUse"
       gradientTransform="matrix(0,-12.151612,11.978956,0,18.475664,-48.770776)"
       cx="-4.4175329"
       cy="-0.56489283"
       fx="-4.4175329"
       fy="-0.56489283"
       r="0.39687496" />
    <linearGradient
       inkscape:collect="always"
       xlink:href="#bevel"
       id="linearGradient34"
       gradientUnits="userSpaceOnUse"
       x1="-3.99717"
       y1="-1.2218677"
       x2="-4.0003276"
       y2="-0.96675771"
       gradientTransform="matrix(6.0923077,0,0,6.0923077,17.025077,8.0496826)" />
    <linearGradient
       inkscape:collect="always"
       xlink:href="#bevel"
       id="linearGradient35"
       gradientUnits="userSpaceOnUse"
       x1="-4.0919032"
       y1="-1.4492278"
       x2="-4.0950613"
       y2="-1.1972755"
       gradientTransform="matrix(6.0923077,0,0,6.0923077,16.129161,-7.1537627)" />
    <linearGradient
       inkscape:collect="always"
       xlink:href="#bevel"
       id="linearGradient36"
       gradientUnits="userSpaceOnUse"
       x1="-3.8734362"
       y1="-1.3717227"
       x2="-3.8765941"
       y2="-1.116071"
       gradientTransform="matrix(6.0923077,0,0,6.0923077,31.33261,-8.0496826)" />
    <linearGradient
       id="paint2_linear_77:3-7"
       x1="79.398094"
       y1="-197.84389"
       x2="82.901054"
       y2="-199.97827"
       gradientUnits="userSpaceOnUse"
       gradientTransform="matrix(1.9248511,0,0,1.7314595,-40.88733,399.61741)">
      <stop
         stop-color="#EBFAFF"
         stop-opacity="0.1"
         id="stop29-5-7"
         offset="0"
         style="stop-color:#c3c3c3;stop-opacity:1;" />
      <stop
         offset="1"
         stop-color="#70A9FF"
         stop-opacity="0.5"
         id="stop30-0-1"
         style="stop-color:#05c7ff;stop-opacity:0.80000001;" />
    </linearGradient>
    <linearGradient
       inkscape:collect="always"
       xlink:href="#linearGradient899"
       id="linearGradient926"
       x1="1.1521901"
       y1="-9.3133945"
       x2="16.919081"
       y2="-9.2251434"
       gradientUnits="userSpaceOnUse"
       gradientTransform="translate(-0.92604234,0.47624996)" />
    <linearGradient
       id="s"
       x1="-1129.7"
       x2="-1106.6"
       y1="944.53003"
       y2="962.73999"
       gradientTransform="matrix(0,0.33027508,0.34249609,0,-318.20579,377.70211)"
       gradientUnits="userSpaceOnUse">
      <stop
         stop-color="#BFBFBF"
         offset="0"
         id="stop5-6" />
      <stop
         stop-color="#fff"
         offset=".5"
         id="stop6-7" />
      <stop
         stop-color="#BFBFBF"
         offset="1"
         id="stop7-3" />
    </linearGradient>
    <linearGradient
       id="r"
       x1="-1196.7"
       x2="-1197.3"
       y1="860.46002"
       y2="818.53998"
       gradientTransform="matrix(0.10799212,0,0,0.10414375,1.5565706,1.7949999)"
       gradientUnits="userSpaceOnUse">
      <stop
         stop-color="#323232"
         offset="0"
         id="stop8-5"
         style="stop-color:#000000;stop-opacity:1;" />
      <stop
         offset="1"
         id="stop9-6" />
    </linearGradient>
    <linearGradient
       id="c"
       gradientUnits="userSpaceOnUse"
       x1="15"
       x2="38"
       y1="13"
       y2="36"
       gradientTransform="scale(0.2645834)">
      <stop
         offset="0"
         stop-color="#194f95"
         id="stop12-3" />
      <stop
         offset="1"
         stop-color="#194f95"
         stop-opacity="0"
         id="stop14" />
    </linearGradient>
    <linearGradient
       id="linearGradient1067"
       y1="537.59998"
       x1="400.57001"
       y2="546.58002"
       x2="392.89999"
       gradientUnits="userSpaceOnUse"
       gradientTransform="matrix(1.25,0,0,1.26667,-92.14,-151.08)">
      <stop
         id="stop1063"
         stop-color="#ffc35a"
         style="stop-color:#faae2a;stop-opacity:1" />
      <stop
         id="stop1065"
         offset="1"
         stop-color="#faae2a"
         style="stop-color:#fcd187;stop-opacity:1" />
    </linearGradient>
    <linearGradient
       gradientUnits="userSpaceOnUse"
       x2="0"
       y2="2.987"
       y1="43.922001"
       id="h"
       gradientTransform="translate(-122.5135,-45.5035)">
      <stop
         id="stop4658"
         stop-color="#22a7f0"
         style="stop-color:#085077;stop-opacity:1" />
      <stop
         id="stop4660"
         stop-color="#19b5fe"
         offset="1"
         style="stop-color:#5599ff;stop-opacity:1" />
    </linearGradient>
  </defs>
  <sodipodi:namedview
     id="base"
     pagecolor="#e2e2e2"
     bordercolor="#666666"
     borderopacity="1.0"
     inkscape:pageopacity="0"
     inkscape:pageshadow="2"
     inkscape:zoom="9.7248728"
     inkscape:cx="33.213802"
     inkscape:cy="36.247261"
     inkscape:document-units="px"
     inkscape:current-layer="layer1"
     inkscape:document-rotation="0"
     showgrid="false"
     units="px"
     inkscape:window-width="1920"
     inkscape:window-height="990"
     inkscape:window-x="0"
     inkscape:window-y="0"
     inkscape:window-maximized="1"
     inkscape:object-paths="true"
     inkscape:snap-grids="true"
     inkscape:snap-intersection-paths="true"
     inkscape:snap-smooth-nodes="true"
     inkscape:snap-midpoints="true"
     inkscape:showpageshadow="2"
     inkscape:pagecheckerboard="0"
     inkscape:deskcolor="#d1d1d1">
    <inkscape:grid
       id="grid2"
       units="px"
       originx="0"
       originy="0"
       spacingx="0.26458333"
       spacingy="0.26458333"
       empcolor="#0099e5"
       empopacity="0.30196078"
       color="#0099e5"
       opacity="0.14902"
       empspacing="5"
       dotted="false"
       gridanglex="30"
       gridanglez="30"
       visible="false" />
  </sodipodi:namedview>
  <metadata
     id="metadata1111">
    <rdf:RDF>
      <cc:Work
         rdf:about="">
        <dc:format>image/svg+xml</dc:format>
        <dc:type
           rdf:resource="http://purl.org/dc/dcmitype/StillImage" />
      </cc:Work>
    </rdf:RDF>
  </metadata>
  <g
     inkscape:label="Layer 1"
     inkscape:groupmode="layer"
     id="layer1">
    <g
       id="g918"
       transform="translate(0.47625037,0.92604234)">
      <rect
         ry="4.8357682"
         rx="4.8357682"
         style="fill:url(#linearGradient926);fill-opacity:1;stroke-width:6.09228"
         x="0.13229237"
         y="-16.457085"
         width="15.875001"
         height="15.875001"
         id="use1056"
         transform="rotate(90)"
         class="ColorScheme-Highlight" />
      <path
         d="m 5.344583,0.13229167 c -2.6384245,0 -4.76249953,2.12407483 -4.76249953,4.76249963 H 5.344583 Z"
         style="opacity:0.15;fill:url(#radialGradient25);fill-opacity:1;stroke-width:6.09228"
         id="path20" />
      <rect
         y="0.13229151"
         x="5.3445826"
         height="1.5875"
         width="6.3500004"
         id="rect20"
         style="opacity:0.15;fill:url(#linearGradient25);fill-opacity:1;stroke-width:4.83577;stroke-linecap:round;stroke-linejoin:round;paint-order:stroke fill markers" />
      <path
         d="m 0.58208347,11.244792 c 0,2.638424 2.12407503,4.762499 4.76249953,4.762499 v -4.762499 z"
         style="opacity:0.15;fill:url(#radialGradient29);fill-opacity:1;stroke-width:6.09228"
         id="use20" />
      <rect
         y="0.5820834"
         x="-11.244792"
         height="1.5875"
         width="6.3500004"
         id="use21"
         style="opacity:0.15;fill:url(#linearGradient34);fill-opacity:1;stroke-width:4.83577;stroke-linecap:round;stroke-linejoin:round;paint-order:stroke fill markers"
         transform="rotate(-90)" />
      <path
         d="m 11.694583,16.007291 c 2.638425,0 4.7625,-2.124074 4.7625,-4.762499 h -4.7625 z"
         style="opacity:0.15;fill:url(#radialGradient30);fill-opacity:1;stroke-width:6.09228"
         id="use22" />
      <rect
         y="-16.007292"
         x="-11.694584"
         height="1.5875"
         width="6.3500004"
         id="use23"
         style="opacity:0.15;fill:url(#linearGradient35);fill-opacity:1;stroke-width:4.83577;stroke-linecap:round;stroke-linejoin:round;paint-order:stroke fill markers"
         transform="scale(-1)" />
      <path
         d="m 16.457083,4.8947913 c 0,-2.6384245 -2.124074,-4.76249963 -4.7625,-4.76249963 V 4.8947913 Z"
         style="opacity:0.15;fill:url(#radialGradient31);fill-opacity:1;stroke-width:6.09228"
         id="use24" />
      <rect
         y="-16.457081"
         x="4.8947906"
         height="1.5875"
         width="6.3500004"
         id="use25"
         style="opacity:0.15;fill:url(#linearGradient36);fill-opacity:1;stroke-width:4.83577;stroke-linecap:round;stroke-linejoin:round;paint-order:stroke fill markers"
         transform="rotate(90)" />
      <path
         d="m 5.3445832,0.13229107 c -2.638425,0 -4.76250035,2.12407473 -4.76250035,4.76249973 H 5.3445832 Z"
         style="opacity:0.5;fill:url(#radialGradient15);fill-opacity:1;stroke-width:6.09228"
         id="path14" />
      <rect
         y="0.1322909"
         x="5.3445826"
         height="1.5875"
         width="6.3499999"
         id="rect14"
         style="opacity:0.5;fill:url(#linearGradient15);fill-opacity:1;stroke-width:4.83577;stroke-linecap:round;stroke-linejoin:round;paint-order:stroke fill markers" />
      <path
         d="m 11.694583,0.13229096 c 2.638425,0 4.7625,2.12407504 4.7625,4.76249734 h -4.7625 z"
         style="opacity:0.5;fill:url(#radialGradient17);fill-opacity:1;stroke-width:6.09228"
         id="use14" />
      <path
         id="path17"
         style="opacity:0.5;fill:url(#radialGradient18);fill-opacity:1;stroke-width:6.09228"
         d="m 5.3445834,16.00729 c -2.638425,0 -4.7625,-2.124075 -4.7625,-4.7625 h 4.7625 z" />
      <rect
         style="opacity:0.5;fill:url(#linearGradient18);fill-opacity:1;stroke-width:4.83577;stroke-linecap:round;stroke-linejoin:round;paint-order:stroke fill markers"
         id="rect17"
         width="6.3499994"
         height="1.5874999"
         x="5.3445826"
         y="-16.007292"
         transform="scale(1,-1)" />
      <path
         id="use17"
         style="opacity:0.5;fill:url(#radialGradient20);fill-opacity:1;stroke-width:6.09228"
         d="m 11.694582,16.007291 c 2.638425,0 4.7625,-2.124075 4.7625,-4.7625 h -4.7625 z" />
    </g>
    <g
       id="g5"
       transform="matrix(0.18741318,0,0,0.18567191,2.9986128,2.9615148)"
       style="stroke-width:1.40581">
      <path
         style="opacity:0.2;stroke-width:1.40581"
         d="M 32.027573,5.0001808 C 31.49938,4.9938727 30.982507,5.1545279 30.549632,5.4595572 27.692127,7.4765927 24.935644,8.1621499 22.032169,8.658001 19.128696,9.1538522 15.960542,9.5921678 11.788603,7.1658126 10.10479,6.1875804 8.0011305,7.4113252 8.0000001,9.3697259 V 37.987784 c 0,2.273262 0.9673746,4.346136 2.3327209,6.513303 1.365346,2.167167 3.219261,4.386818 5.390624,6.51877 4.34273,4.263905 9.905791,8.176463 15.554228,9.873859 0.47135,0.141712 0.973504,0.141712 1.444854,0 5.648437,-1.697396 11.2115,-5.609954 15.554228,-9.873859 2.171364,-2.131952 4.025278,-4.351603 5.390624,-6.51877 C 55.032626,42.33392 56,40.261046 56,37.987784 V 9.3697259 C 55.998869,7.4113251 53.89521,6.18758 52.211397,7.1658126 48.039458,9.5921678 44.871304,9.1538522 41.967831,8.658001 39.064356,8.1621499 36.307873,7.4765927 33.450368,5.4595572 33.032909,5.1654134 32.536955,5.0052851 32.027573,5.0001808 Z"
         id="path1" />
      <path
         style="fill:#ff5555;stroke-width:1.40581"
         d="M 32.027573,4.0001798 C 31.49938,3.9938717 30.982507,4.1545269 30.549632,4.4595562 27.692127,6.4765917 24.935644,7.1621489 22.032169,7.658 19.128696,8.1538512 15.960542,8.5921668 11.788603,6.1658116 10.10479,5.1875794 8.0011305,6.4113242 8.0000001,8.3697249 V 36.987783 c 0,2.273262 0.9673746,4.346136 2.3327209,6.513303 1.365346,2.167167 3.219261,4.386818 5.390624,6.51877 4.34273,4.263905 9.905791,8.176463 15.554228,9.873859 0.47135,0.141712 0.973504,0.141712 1.444854,0 5.648437,-1.697396 11.2115,-5.609954 15.554228,-9.873859 2.171364,-2.131952 4.025278,-4.351603 5.390624,-6.51877 C 55.032626,41.333919 56,39.261045 56,36.987783 V 8.3697249 C 55.998869,6.4113241 53.89521,5.187579 52.211397,6.1658116 48.039458,8.5921668 44.871304,8.1538512 41.967831,7.658 39.064356,7.1621489 36.307873,6.4765917 33.450368,4.4595562 33.032909,4.1654124 32.536955,4.0052841 32.027573,4.0001798 Z"
         id="path2" />
      <path
         style="opacity:0.2;stroke-width:1.40581"
         d="m 30.499082,13.129764 c -5.69058,-0.03361 -8.046493,0.67519 -14.93934,1.692583 -1.971971,0.02446 -3.558154,1.347352 -3.559742,3.316403 2.46e-4,1.987188 1.613572,3.598093 3.60386,3.598448 0.03678,-3.5e-4 0.07355,-0.0013 0.110301,-0.0028 -0.890631,-2.933927 1.375381,-2.686581 2.862133,-2.980477 0.294069,-0.0027 0.129824,-0.0022 0.423706,-0.0055 v 24.002418 l 7,5.898065 V 18.090202 c 4.296547,-0.08086 9.202418,0.04913 13.656471,1.383598 7.434017,2.227289 2.037762,8.084029 -2.476316,10.879441 2.542783,1.574658 5.867542,4.874093 5.878669,7.978702 0.0086,2.40685 -2.303704,4.696606 -6.424625,5.974858 -3.953532,1.013654 -7.873445,1.545531 -10.634199,4.3422 0,0 2.239144,-0.38611 6.98622,-0.579688 5.737688,-0.233975 11.267708,-2.203002 15.284839,-6.346504 2.022183,-4.282111 -0.669251,-7.778681 -6.63778,-11.175426 6.096682,-3.431519 8.979288,-7.391899 6.19025,-11.29027 -3.353888,-4.687889 -8.897579,-5.852632 -14.63603,-6.067192 -0.981368,-0.03669 -1.869982,-0.05532 -2.688417,-0.06016 z m 6.681066,17.223477 -3.958505,-4.396889 c -3.708216,2.597895 -4.745971,5.36622 -0.201287,8.495731 z"
         id="path3" />
      <path
         style="fill:#ffffff;stroke-width:1.40581"
         d="m 30.499082,12.129763 c -5.69058,-0.03361 -8.046493,0.67519 -14.93934,1.692583 -1.971971,0.02446 -3.558154,1.347352 -3.559742,3.316403 2.46e-4,1.987188 1.613572,3.598093 3.60386,3.598448 0.03678,-3.5e-4 0.07355,-0.0013 0.110301,-0.0028 -0.890631,-2.933927 1.375381,-2.686581 2.862133,-2.980477 0.294069,-0.0027 0.129824,-0.0022 0.423706,-0.0055 v 24.002418 l 7,5.898065 V 17.090201 c 4.296547,-0.08086 9.202418,0.04913 13.656471,1.383598 7.434017,2.227289 2.037762,8.084029 -2.476316,10.879441 2.542783,1.574658 5.867542,4.874093 5.878669,7.978702 0.0086,2.40685 -2.303704,4.696606 -6.424625,5.974858 C 32.680667,44.320454 28.760754,44.852331 26,47.649 c 0,0 2.239144,-0.38611 6.98622,-0.579688 5.737688,-0.233975 11.267708,-2.203002 15.284839,-6.346504 2.022183,-4.282111 -0.669251,-7.778681 -6.63778,-11.175426 6.096682,-3.431519 8.979288,-7.391899 6.19025,-11.29027 C 44.469641,13.569223 38.92595,12.40448 33.187499,12.18992 32.206131,12.15323 31.317517,12.1346 30.499082,12.12976 Z m 6.681066,17.223477 -3.958505,-4.396889 c -3.708216,2.597895 -4.745971,5.36622 -0.201287,8.495731 z"
         id="path4" />
      <path
         style="opacity:0.2;fill:#ffffff;stroke-width:1.40581"
         d="M 32.027344,4 C 31.499151,3.9936919 30.981703,4.1539551 30.548828,4.4589844 27.691323,6.4760199 24.934725,7.162352 22.03125,7.6582031 19.127777,8.1540543 15.961002,8.5923708 11.789062,6.1660156 10.105249,5.1877834 8.0011304,6.4107399 8,8.3691406 v 1 C 8.00113,7.4107399 10.105249,6.1877834 11.789062,7.1660156 15.961002,9.5923708 19.127777,9.1540543 22.03125,8.6582031 24.934725,8.162352 27.691323,7.4760199 30.548828,5.4589844 30.981703,5.1539551 31.499151,4.9936919 32.027344,5 c 0.509382,0.0051 1.006369,0.1648406 1.423828,0.4589844 2.857505,2.0170355 5.614103,2.7033676 8.517578,3.1992187 2.903473,0.4958512 6.070249,0.9341677 10.242188,-1.4921875 C 53.89475,6.187783 55.998869,7.4107398 56,9.3691406 v -1 C 55.998869,6.4107398 53.89475,5.187783 52.210938,6.1660156 48.038999,8.5923708 44.872223,8.1540543 41.96875,7.6582031 39.065275,7.162352 36.308677,6.4760199 33.451172,4.4589844 33.033713,4.1648406 32.536726,4.0051043 32.027344,4 Z"
         id="path5" />
    </g>
  </g>
</svg>
