<?xml version="1.0" encoding="UTF-8" standalone="no"?>
<svg
   width="68"
   height="68"
   viewBox="0 0 17.991665 17.991665"
   version="1.1"
   id="svg1114"
   inkscape:version="1.3.2 (091e20ef0f, 2023-11-25)"
   sodipodi:docname="boxy.svg"
   xmlns:inkscape="http://www.inkscape.org/namespaces/inkscape"
   xmlns:sodipodi="http://sodipodi.sourceforge.net/DTD/sodipodi-0.dtd"
   xmlns:xlink="http://www.w3.org/1999/xlink"
   xmlns="http://www.w3.org/2000/svg"
   xmlns:svg="http://www.w3.org/2000/svg"
   xmlns:rdf="http://www.w3.org/1999/02/22-rdf-syntax-ns#"
   xmlns:cc="http://creativecommons.org/ns#"
   xmlns:dc="http://purl.org/dc/elements/1.1/">
  <style
     type="text/css"
     id="current-color-scheme">.ColorScheme-Highlight { color:#5599ff; }
</style>
  <defs
     id="defs1108">
    <linearGradient
       id="linearGradient12"
       inkscape:collect="always">
      <stop
         style="stop-color:#ffffff;stop-opacity:0;"
         offset="0"
         id="stop10" />
      <stop
         id="stop11"
         offset="0.65909404"
         style="stop-color:#ffffff;stop-opacity:0" />
      <stop
         style="stop-color:#ffffff;stop-opacity:1;"
         offset="1"
         id="stop12" />
    </linearGradient>
    <linearGradient
       id="linearGradient9"
       inkscape:collect="always">
      <stop
         style="stop-color:#000000;stop-opacity:0;"
         offset="0"
         id="stop1" />
      <stop
         id="stop8"
         offset="0.66102529"
         style="stop-color:#000000;stop-opacity:0" />
      <stop
         style="stop-color:#000000;stop-opacity:1;"
         offset="1"
         id="stop9" />
    </linearGradient>
    <linearGradient
       id="linearGradient7"
       inkscape:collect="always">
      <stop
         style="stop-color:#000000;stop-opacity:0;"
         offset="0"
         id="stop5" />
      <stop
         id="stop6"
         offset="0.6586886"
         style="stop-color:#000000;stop-opacity:0" />
      <stop
         style="stop-color:#000000;stop-opacity:1;"
         offset="1"
         id="stop7" />
    </linearGradient>
    <linearGradient
       id="linearGradient4"
       inkscape:collect="always">
      <stop
         style="stop-color:#000000;stop-opacity:0;"
         offset="0"
         id="stop2" />
      <stop
         id="stop3"
         offset="0.67055255"
         style="stop-color:#000000;stop-opacity:0" />
      <stop
         style="stop-color:#000000;stop-opacity:1;"
         offset="1"
         id="stop4" />
    </linearGradient>
    <linearGradient
       inkscape:collect="always"
       id="linearGradient899">
      <stop
         style="stop-color:#cd87de;stop-opacity:1;"
         offset="0"
         id="stop895" />
      <stop
         style="stop-color:#4378c8;stop-opacity:1;"
         offset="1"
         id="stop897" />
    </linearGradient>
    <linearGradient
       id="linearGradient1167"
       x1="40.751999"
       x2="40.751999"
       y1="28.507999"
       y2="17.205999"
       gradientUnits="userSpaceOnUse">
      <stop
         style="stop-color:#84fb6e;stop-opacity:1"
         stop-color="#0ab816"
         offset="0"
         id="stop1163" />
      <stop
         style="stop-color:#0dd41a;stop-opacity:1"
         stop-color="#0cf36c"
         offset="1"
         id="stop1165" />
    </linearGradient>
    <linearGradient
       id="cornerBevel"
       inkscape:collect="always">
      <stop
         style="stop-color:#000000;stop-opacity:0;"
         offset="0"
         id="stop2663" />
      <stop
         id="stop2671"
         offset="0.66666675"
         style="stop-color:#000000;stop-opacity:0" />
      <stop
         style="stop-color:#000000;stop-opacity:1;"
         offset="1"
         id="stop2661" />
    </linearGradient>
    <linearGradient
       id="bevel"
       inkscape:collect="always">
      <stop
         id="stop2685"
         offset="0"
         style="stop-color:#000000;stop-opacity:1;" />
      <stop
         id="stop2687"
         offset="1"
         style="stop-color:#000000;stop-opacity:0;" />
    </linearGradient>
    <linearGradient
       id="highlightCorner"
       inkscape:collect="always">
      <stop
         style="stop-color:#ffffff;stop-opacity:0;"
         offset="0"
         id="stop2613" />
      <stop
         id="stop2621"
         offset="0.66666669"
         style="stop-color:#ffffff;stop-opacity:0" />
      <stop
         style="stop-color:#ffffff;stop-opacity:1;"
         offset="1"
         id="stop2611" />
    </linearGradient>
    <linearGradient
       inkscape:collect="always"
       id="highlight">
      <stop
         style="stop-color:#ffffff;stop-opacity:1;"
         offset="0"
         id="stop2921" />
      <stop
         style="stop-color:#ffffff;stop-opacity:0;"
         offset="1"
         id="stop2923" />
    </linearGradient>
    <radialGradient
       inkscape:collect="always"
       xlink:href="#highlightCorner"
       id="radialGradient15"
       gradientUnits="userSpaceOnUse"
       gradientTransform="matrix(0.04294597,-12.079348,17.933991,0.06376112,14.524179,-50.373789)"
       cx="-4.5799766"
       cy="-0.50206107"
       fx="-4.5799766"
       fy="-0.50206107"
       r="0.39687499" />
    <linearGradient
       inkscape:collect="always"
       xlink:href="#highlight"
       id="linearGradient15"
       gradientUnits="userSpaceOnUse"
       x1="-3.8453064"
       y1="-1.1532172"
       x2="-3.8453064"
       y2="-0.8954913"
       gradientTransform="matrix(6.0923077,0,0,6.0923077,32.228528,7.1537621)" />
    <radialGradient
       inkscape:collect="always"
       xlink:href="#linearGradient12"
       id="radialGradient17"
       gradientUnits="userSpaceOnUse"
       gradientTransform="matrix(-0.02247554,-12.045403,-17.967828,0.03352619,1.6640208,-50.22331)"
       cx="-4.575222"
       cy="-0.55256462"
       fx="-4.575222"
       fy="-0.55256462"
       r="0.39687499" />
    <radialGradient
       inkscape:collect="always"
       xlink:href="#linearGradient7"
       id="radialGradient18"
       gradientUnits="userSpaceOnUse"
       gradientTransform="matrix(0.06461187,12.09952,17.933731,-0.09576873,14.609502,64.748231)"
       cx="-4.4284906"
       cy="-0.50121039"
       fx="-4.4284906"
       fy="-0.50121039"
       r="0.39687499" />
    <linearGradient
       inkscape:collect="always"
       xlink:href="#bevel"
       id="linearGradient18"
       gradientUnits="userSpaceOnUse"
       x1="-3.8415797"
       y1="-1.4506671"
       x2="-3.8406549"
       y2="-1.1968651"
       gradientTransform="matrix(6.0923076,0,0,6.0923076,32.228527,-7.1537627)" />
    <radialGradient
       inkscape:collect="always"
       xlink:href="#linearGradient4"
       id="radialGradient20"
       gradientUnits="userSpaceOnUse"
       gradientTransform="matrix(-0.01031383,11.991438,-17.967296,-0.01545561,1.7353715,64.305742)"
       cx="-4.4236727"
       cy="-0.55004197"
       fx="-4.4236727"
       fy="-0.55004197"
       r="0.39687499" />
    <radialGradient
       inkscape:collect="always"
       xlink:href="#cornerBevel"
       id="radialGradient25"
       gradientUnits="userSpaceOnUse"
       gradientTransform="matrix(12.184614,0,0,12.184614,59.63122,10.377613)"
       cx="-4.4568658"
       cy="-0.44864327"
       fx="-4.4568658"
       fy="-0.44864327"
       r="0.39687496" />
    <linearGradient
       inkscape:collect="always"
       xlink:href="#bevel"
       id="linearGradient25"
       gradientUnits="userSpaceOnUse"
       x1="-3.8487544"
       y1="-1.146081"
       x2="-3.8455966"
       y2="-0.890971"
       gradientTransform="matrix(6.0923077,0,0,6.0923077,32.228528,7.1537627)" />
    <radialGradient
       inkscape:collect="always"
       xlink:href="#cornerBevel"
       id="radialGradient29"
       gradientUnits="userSpaceOnUse"
       gradientTransform="matrix(0,-12.184614,12.184614,0,11.27353,-44.427768)"
       cx="-4.5705457"
       cy="-0.48653662"
       fx="-4.5705457"
       fy="-0.48653662"
       r="0.39687496" />
    <radialGradient
       inkscape:collect="always"
       xlink:href="#cornerBevel"
       id="radialGradient30"
       gradientUnits="userSpaceOnUse"
       gradientTransform="matrix(-12.184514,-0.04945749,0.04847411,-11.942243,-43.502155,3.8519053)"
       cx="-4.5342312"
       cy="-0.60337442"
       fx="-4.5342312"
       fy="-0.60337442"
       r="0.39687496" />
    <radialGradient
       inkscape:collect="always"
       xlink:href="#linearGradient9"
       id="radialGradient31"
       gradientUnits="userSpaceOnUse"
       gradientTransform="matrix(0,-12.151612,11.978956,0,18.475664,-48.770776)"
       cx="-4.4175329"
       cy="-0.56489283"
       fx="-4.4175329"
       fy="-0.56489283"
       r="0.39687496" />
    <linearGradient
       inkscape:collect="always"
       xlink:href="#bevel"
       id="linearGradient34"
       gradientUnits="userSpaceOnUse"
       x1="-3.99717"
       y1="-1.2218677"
       x2="-4.0003276"
       y2="-0.96675771"
       gradientTransform="matrix(6.0923077,0,0,6.0923077,17.025077,8.0496826)" />
    <linearGradient
       inkscape:collect="always"
       xlink:href="#bevel"
       id="linearGradient35"
       gradientUnits="userSpaceOnUse"
       x1="-4.0919032"
       y1="-1.4492278"
       x2="-4.0950613"
       y2="-1.1972755"
       gradientTransform="matrix(6.0923077,0,0,6.0923077,16.129161,-7.1537627)" />
    <linearGradient
       inkscape:collect="always"
       xlink:href="#bevel"
       id="linearGradient36"
       gradientUnits="userSpaceOnUse"
       x1="-3.8734362"
       y1="-1.3717227"
       x2="-3.8765941"
       y2="-1.116071"
       gradientTransform="matrix(6.0923077,0,0,6.0923077,31.33261,-8.0496826)" />
    <linearGradient
       id="paint2_linear_77:3-7"
       x1="79.398094"
       y1="-197.84389"
       x2="82.901054"
       y2="-199.97827"
       gradientUnits="userSpaceOnUse"
       gradientTransform="matrix(1.9248511,0,0,1.7314595,-40.88733,399.61741)">
      <stop
         stop-color="#EBFAFF"
         stop-opacity="0.1"
         id="stop29-5-7"
         offset="0"
         style="stop-color:#c3c3c3;stop-opacity:1;" />
      <stop
         offset="1"
         stop-color="#70A9FF"
         stop-opacity="0.5"
         id="stop30-0-1"
         style="stop-color:#05c7ff;stop-opacity:0.80000001;" />
    </linearGradient>
    <linearGradient
       inkscape:collect="always"
       xlink:href="#linearGradient899"
       id="linearGradient926"
       x1="1.1249832"
       y1="-9.2861881"
       x2="16.919081"
       y2="-9.2251434"
       gradientUnits="userSpaceOnUse"
       gradientTransform="translate(-0.92604234,0.47624996)" />
    <linearGradient
       id="b-3-7-1"
       gradientTransform="matrix(0.12415839,-0.25724252,0.11338321,0.05472453,-20.939127,21.087281)"
       gradientUnits="userSpaceOnUse"
       x1="115"
       x2="115"
       y1="183"
       y2="174">
      <stop
         offset="0"
         stop-color="#e01b24"
         id="stop13-65-2"
         style="stop-color:#a1171c;stop-opacity:1;" />
      <stop
         offset="0.25380161"
         stop-color="#e01b24"
         id="stop26-6-7"
         style="stop-color:#e3242a;stop-opacity:1;" />
      <stop
         offset="1"
         stop-color="#f66151"
         id="stop15-6-9-0" />
    </linearGradient>
    <inkscape:path-effect
       effect="fillet_chamfer"
       id="path-effect25-5-3"
       is_visible="true"
       lpeversion="1"
       nodesatellites_param="F,0,0,1,0,0,0,1 @ F,0,0,1,0,0,0,1 @ F,0,0,1,0,0,0,1"
       radius="0"
       unit="px"
       method="auto"
       mode="F"
       chamfer_steps="1"
       flexible="false"
       use_knot_distance="true"
       apply_no_radius="true"
       apply_with_radius="true"
       only_selected="false"
       hide_knots="false"
       satellites_param="F,0,0,1,0,0,0,1 @ F,0,0,1,0,0,0,1 @ F,0,0,1,0,0,0,1" />
    <linearGradient
       inkscape:collect="always"
       xlink:href="#linearGradient4212"
       id="linearGradient1742"
       gradientUnits="userSpaceOnUse"
       gradientTransform="matrix(0.27781246,0,0,0.27781246,0.74083548,0.74083291)"
       x1="40.262001"
       y1="16.121"
       x2="35.316036"
       y2="10.515817" />
    <linearGradient
       id="linearGradient4212">
      <stop
         style="stop-color:#cd7223;stop-opacity:1"
         offset="0"
         id="stop2-3" />
      <stop
         style="stop-color:#ffc169;stop-opacity:1"
         offset="1"
         id="stop4-3" />
    </linearGradient>
    <linearGradient
       inkscape:collect="always"
       xlink:href="#linearGradient4204"
       id="linearGradient1744"
       gradientUnits="userSpaceOnUse"
       gradientTransform="matrix(0.27781246,0,0,0.27781246,0.74083548,0.74083291)"
       x1="47.610764"
       y1="35.23061"
       x2="39.585167"
       y2="23.995121" />
    <linearGradient
       id="linearGradient4204">
      <stop
         style="stop-color:#ffa92d;stop-opacity:1"
         offset="0"
         id="stop7-67" />
      <stop
         style="stop-color:#edf573;stop-opacity:1"
         offset="1"
         id="stop9-5" />
    </linearGradient>
    <linearGradient
       inkscape:collect="always"
       xlink:href="#linearGradient4196"
       id="linearGradient1746"
       gradientUnits="userSpaceOnUse"
       gradientTransform="matrix(0.27781246,0,0,0.27781246,0.74083548,0.74083291)"
       x1="41.866859"
       y1="48.444786"
       x2="32.960144"
       y2="36.541763" />
    <linearGradient
       id="linearGradient4196">
      <stop
         style="stop-color:#2b4d37;stop-opacity:1"
         offset="0"
         id="stop12-6" />
      <stop
         style="stop-color:#3bb566;stop-opacity:1"
         offset="1"
         id="stop14" />
    </linearGradient>
    <linearGradient
       inkscape:collect="always"
       xlink:href="#linearGradient4188"
       id="linearGradient1748"
       gradientUnits="userSpaceOnUse"
       gradientTransform="matrix(0.27781246,0,0,0.27781246,0.74083548,0.74083291)"
       x1="26.708839"
       y1="50.74773"
       x2="17.00174"
       y2="35.23333" />
    <linearGradient
       id="linearGradient4188">
      <stop
         style="stop-color:#375a7d;stop-opacity:1"
         offset="0"
         id="stop17" />
      <stop
         style="stop-color:#54a3d8;stop-opacity:1"
         offset="1"
         id="stop19" />
    </linearGradient>
    <linearGradient
       inkscape:collect="always"
       xlink:href="#linearGradient4174"
       id="linearGradient1750"
       gradientUnits="userSpaceOnUse"
       gradientTransform="matrix(0.27781246,0,0,0.27781246,0.71487288,0.74083291)"
       x1="20.960609"
       y1="37.116146"
       x2="9.4525337"
       y2="17.397556" />
    <linearGradient
       id="linearGradient4174">
      <stop
         style="stop-color:#68377d;stop-opacity:1"
         offset="0"
         id="stop22" />
      <stop
         style="stop-color:#cb7cec;stop-opacity:1"
         offset="1"
         id="stop24" />
    </linearGradient>
    <linearGradient
       inkscape:collect="always"
       xlink:href="#linearGradient4166"
       id="linearGradient1756"
       gradientUnits="userSpaceOnUse"
       gradientTransform="matrix(0.27781246,0,0,0.27781246,0.74083548,0.74083291)"
       x1="21.523001"
       y1="22.219"
       x2="19.82535"
       y2="11.003687" />
    <linearGradient
       id="linearGradient4166">
      <stop
         style="stop-color:#bf4231;stop-opacity:1"
         offset="0"
         id="stop27" />
      <stop
         style="stop-color:#f58273;stop-opacity:1"
         offset="1"
         id="stop29" />
    </linearGradient>
    <linearGradient
       inkscape:collect="always"
       xlink:href="#linearGradient4174"
       id="linearGradient13"
       gradientUnits="userSpaceOnUse"
       gradientTransform="matrix(0.02604378,0,0,0.02604228,0.76609668,0.75587071)"
       x1="272.35001"
       y1="268.70001"
       x2="220.97"
       y2="231.53999" />
  </defs>
  <sodipodi:namedview
     id="base"
     pagecolor="#e2e2e2"
     bordercolor="#666666"
     borderopacity="1.0"
     inkscape:pageopacity="0"
     inkscape:pageshadow="2"
     inkscape:zoom="9.7248729"
     inkscape:cx="30.951561"
     inkscape:cy="28.997808"
     inkscape:document-units="px"
     inkscape:current-layer="layer1"
     inkscape:document-rotation="0"
     showgrid="true"
     units="px"
     inkscape:window-width="1920"
     inkscape:window-height="990"
     inkscape:window-x="0"
     inkscape:window-y="0"
     inkscape:window-maximized="1"
     inkscape:object-paths="true"
     inkscape:snap-grids="true"
     inkscape:snap-intersection-paths="true"
     inkscape:snap-smooth-nodes="true"
     inkscape:snap-midpoints="true"
     inkscape:showpageshadow="2"
     inkscape:pagecheckerboard="0"
     inkscape:deskcolor="#d1d1d1">
    <inkscape:grid
       id="grid2"
       units="px"
       originx="0"
       originy="0"
       spacingx="0.26458333"
       spacingy="0.26458333"
       empcolor="#0099e5"
       empopacity="0.30196078"
       color="#0099e5"
       opacity="0.14902"
       empspacing="5"
       dotted="false"
       gridanglex="30"
       gridanglez="30"
       visible="true" />
  </sodipodi:namedview>
  <metadata
     id="metadata1111">
    <rdf:RDF>
      <cc:Work
         rdf:about="">
        <dc:format>image/svg+xml</dc:format>
        <dc:type
           rdf:resource="http://purl.org/dc/dcmitype/StillImage" />
      </cc:Work>
    </rdf:RDF>
  </metadata>
  <g
     inkscape:label="Layer 1"
     inkscape:groupmode="layer"
     id="layer1">
    <g
       id="g918"
       transform="translate(0.47625037,0.92604234)">
      <rect
         ry="4.8357682"
         rx="4.8357682"
         style="fill:url(#linearGradient926);fill-opacity:1;stroke-width:6.09228"
         x="0.13229237"
         y="-16.457085"
         width="15.875001"
         height="15.875001"
         id="use1056"
         transform="rotate(90)"
         class="ColorScheme-Highlight" />
      <path
         d="m 5.344583,0.13229167 c -2.6384245,0 -4.76249953,2.12407483 -4.76249953,4.76249963 H 5.344583 Z"
         style="opacity:0.15;fill:url(#radialGradient25);fill-opacity:1;stroke-width:6.09228"
         id="path20" />
      <rect
         y="0.13229151"
         x="5.3445826"
         height="1.5875"
         width="6.3500004"
         id="rect20"
         style="opacity:0.15;fill:url(#linearGradient25);fill-opacity:1;stroke-width:4.83577;stroke-linecap:round;stroke-linejoin:round;paint-order:stroke fill markers" />
      <path
         d="m 0.58208347,11.244792 c 0,2.638424 2.12407503,4.762499 4.76249953,4.762499 v -4.762499 z"
         style="opacity:0.15;fill:url(#radialGradient29);fill-opacity:1;stroke-width:6.09228"
         id="use20" />
      <rect
         y="0.5820834"
         x="-11.244792"
         height="1.5875"
         width="6.3500004"
         id="use21"
         style="opacity:0.15;fill:url(#linearGradient34);fill-opacity:1;stroke-width:4.83577;stroke-linecap:round;stroke-linejoin:round;paint-order:stroke fill markers"
         transform="rotate(-90)" />
      <path
         d="m 11.694583,16.007291 c 2.638425,0 4.7625,-2.124074 4.7625,-4.762499 h -4.7625 z"
         style="opacity:0.15;fill:url(#radialGradient30);fill-opacity:1;stroke-width:6.09228"
         id="use22" />
      <rect
         y="-16.007292"
         x="-11.694584"
         height="1.5875"
         width="6.3500004"
         id="use23"
         style="opacity:0.15;fill:url(#linearGradient35);fill-opacity:1;stroke-width:4.83577;stroke-linecap:round;stroke-linejoin:round;paint-order:stroke fill markers"
         transform="scale(-1)" />
      <path
         d="m 16.457083,4.8947913 c 0,-2.6384245 -2.124074,-4.76249963 -4.7625,-4.76249963 V 4.8947913 Z"
         style="opacity:0.15;fill:url(#radialGradient31);fill-opacity:1;stroke-width:6.09228"
         id="use24" />
      <rect
         y="-16.457081"
         x="4.8947906"
         height="1.5875"
         width="6.3500004"
         id="use25"
         style="opacity:0.15;fill:url(#linearGradient36);fill-opacity:1;stroke-width:4.83577;stroke-linecap:round;stroke-linejoin:round;paint-order:stroke fill markers"
         transform="rotate(90)" />
      <path
         d="m 5.3445832,0.13229107 c -2.638425,0 -4.76250035,2.12407473 -4.76250035,4.76249973 H 5.3445832 Z"
         style="opacity:0.5;fill:url(#radialGradient15);fill-opacity:1;stroke-width:6.09228"
         id="path14" />
      <rect
         y="0.1322909"
         x="5.3445826"
         height="1.5875"
         width="6.3499999"
         id="rect14"
         style="opacity:0.5;fill:url(#linearGradient15);fill-opacity:1;stroke-width:4.83577;stroke-linecap:round;stroke-linejoin:round;paint-order:stroke fill markers" />
      <path
         d="m 11.694583,0.13229096 c 2.638425,0 4.7625,2.12407504 4.7625,4.76249734 h -4.7625 z"
         style="opacity:0.5;fill:url(#radialGradient17);fill-opacity:1;stroke-width:6.09228"
         id="use14" />
      <path
         id="path17"
         style="opacity:0.5;fill:url(#radialGradient18);fill-opacity:1;stroke-width:6.09228"
         d="m 5.3445834,16.00729 c -2.638425,0 -4.7625,-2.124075 -4.7625,-4.7625 h 4.7625 z" />
      <rect
         style="opacity:0.5;fill:url(#linearGradient18);fill-opacity:1;stroke-width:4.83577;stroke-linecap:round;stroke-linejoin:round;paint-order:stroke fill markers"
         id="rect17"
         width="6.3499994"
         height="1.5874999"
         x="5.3445826"
         y="-16.007292"
         transform="scale(1,-1)" />
      <path
         id="use17"
         style="opacity:0.5;fill:url(#radialGradient20);fill-opacity:1;stroke-width:6.09228"
         d="m 11.694582,16.007291 c 2.638425,0 4.7625,-2.124075 4.7625,-4.7625 h -4.7625 z" />
    </g>
    <circle
       style="fill:#33393e;fill-opacity:1;stroke:none;stroke-width:0.555625;stroke-linecap:round;stroke-linejoin:round;stroke-miterlimit:4;stroke-dasharray:none;stroke-opacity:0"
       cx="8.9958363"
       cy="8.995842"
       r="5.4173427"
       id="circle51-6" />
    <path
       style="fill:url(#linearGradient1742);fill-opacity:1;stroke-width:0.277813"
       d="M 10.006944,3.5449265 8.6822295,7.2910005 13.897726,6.4192407 C 13.124999,4.9451764 11.701293,3.8621297 10.005847,3.5449265"
       id="path53-1" />
    <path
       style="fill:url(#linearGradient1744);fill-opacity:1;stroke-width:0.277813"
       d="m 14.240763,7.2355731 -3.928076,0.7334645 3.368411,4.0517474 c 0.898866,-1.401622 1.131396,-3.1679126 0.559662,-4.7852119"
       id="path55-8" />
    <path
       style="fill:url(#linearGradient1746);fill-opacity:1;stroke-width:0.277813"
       d="M 13.174083,12.635711 10.570722,9.6231067 8.7225381,14.546888 c 1.6713179,0.07218 3.3275529,-0.610807 4.4518179,-1.911177"
       id="path57-7" />
    <path
       style="fill:url(#linearGradient1748);fill-opacity:1;stroke-width:0.277813"
       d="m 7.9503597,14.449478 1.3247148,-3.746075 -5.2154991,0.87176 c 0.7727274,1.474064 2.1964325,2.55711 3.8918811,2.874315"
       id="path59-9" />
    <path
       style="fill:url(#linearGradient1750);fill-opacity:1;stroke-width:0.277813"
       d="M 3.7509006,10.753344 7.678978,10.019884 4.3105662,5.9681301 C 3.4117021,7.3697529 3.1791709,9.1360507 3.7508982,10.753344"
       id="path61-2" />
    <path
       style="fill:url(#linearGradient1756);fill-opacity:1;stroke-width:0.277813"
       d="m 4.8051558,5.355949 2.603362,3.01261 1.8481841,-4.9237881 C 7.585384,3.3726029 5.9291477,4.0555805 4.8048822,5.355949"
       id="path67-3" />
    <path
       style="opacity:0.15;fill:#000000;fill-opacity:1;stroke-width:0.277813"
       d="m 3.4444668,8.854214 c -0.00984,0.6357227 0.087084,1.27822 0.30657,1.899102 l 0.069996,-0.01302 A 5.5562496,5.5562496 0 0 1 3.4444668,8.854214 Z M 14.548284,8.919326 c -0.02658,0.9988769 -0.324474,1.977599 -0.86708,2.823698 l -0.01788,-0.02172 a 5.5562496,5.5562496 0 0 1 -0.09984,0.157896 l 0.117744,0.141618 c 0.59277,-0.924322 0.89351,-2.007318 0.86708,-3.1015106 z m -10.3458012,2.632158 -0.142704,0.02388 c 0.7725678,1.473759 2.1954731,2.556711 3.8904603,2.874162 l 0.09333,-0.26316 a 5.5562496,5.5562496 0 0 1 -0.2647919,-0.05154 c -0.134106,-0.02952 -0.266934,-0.06248 -0.397188,-0.101466 a 5.5562496,5.5562496 0 0 1 -0.01788,-0.0049 5.5562496,5.5562496 0 0 1 -0.04338,-0.01464 C 7.1539852,13.96192 6.9911512,13.902478 6.8319772,13.83583 5.7280835,13.373578 4.80588,12.567622 4.2024828,11.55146 Z m 8.8541862,0.948468 a 5.5562496,5.5562496 0 0 1 -3.3348352,1.720051 c -0.01932,0.0025 -0.0387,0.0046 -0.05808,0.007 a 5.5562496,5.5562496 0 0 1 -0.5344619,0.0423 c -0.00259,8.1e-5 -0.00542,4.5e-4 -0.00816,5.3e-4 a 5.5562496,5.5562496 0 0 1 -0.00488,0 5.5562496,5.5562496 0 0 1 -0.120462,0.0043 5.5562496,5.5562496 0 0 1 -0.079218,-0.0038 c -0.03024,-2.49e-4 -0.060366,7.15e-4 -0.090612,0 l -0.103638,0.276186 c 1.6713181,0.07218 3.3277861,-0.610675 4.4520531,-1.911044 h -5.29e-4 z"
       id="path69-7" />
    <path
       style="opacity:0.1;stroke-width:0.195036"
       d="m 9.0308709,5.8471828 c -0.514638,0 -0.940488,0.4262579 -0.940488,0.9409811 0,0.0732 0.02718,0.138348 0.04332,0.207228 -0.167418,-0.264924 -0.4494059,-0.45231 -0.7820795,-0.45231 -0.514536,0 -0.9409811,0.425748 -0.9409811,0.9404867 0,0.332736 0.1877519,0.6146628 0.4528079,0.7820736 -0.06906,-0.01626 -0.134394,-0.04332 -0.20772,-0.04332 -0.5145479,0 -0.9404867,0.425976 -0.9404867,0.9404831 0,0.514548 0.426048,0.9404847 0.9404867,0.9404847 0.073272,0 0.138678,-0.02718 0.20772,-0.04332 -0.265056,0.167465 -0.4528079,0.449786 -0.4528079,0.782572 0,0.51447 0.4256939,0.940485 0.9404849,0.940485 0.33312,0 0.6152645,-0.18798 0.7825757,-0.453306 -0.01626,0.0692 -0.04332,0.134682 -0.04332,0.208218 0,0.514698 0.425994,0.940487 0.940488,0.940487 0.5144099,0 0.9404814,-0.42582 0.9404814,-0.940487 0,-0.07337 -0.02712,-0.13869 -0.04332,-0.207726 0.1673457,0.265062 0.4491607,0.452808 0.7820767,0.452808 0.514774,0 0.940486,-0.425982 0.940486,-0.940485 0,-0.332874 -0.187686,-0.615129 -0.452808,-0.782572 0.06928,0.01632 0.135186,0.04332 0.208722,0.04332 0.514374,0 0.939987,-0.4258605 0.939987,-0.9404847 0,-0.5145779 -0.425502,-0.9404831 -0.939987,-0.9404831 -0.07351,0 -0.139086,0.02706 -0.208224,0.04332 0.265032,-0.167406 0.452808,-0.449316 0.452808,-0.7820736 0,-0.5145539 -0.425976,-0.9404867 -0.940482,-0.9404867 -0.333054,0 -0.615249,0.187872 -0.7825767,0.453306 0.01632,-0.069162 0.04332,-0.134664 0.04332,-0.208224 0,-0.514908 -0.4260731,-0.9409811 -0.940483,-0.9409811 z"
       id="path9-3" />
    <path
       style="fill:#3f3f3f;stroke-width:0.195036"
       d="m 9.0308709,5.6521468 c -0.514638,0 -0.940488,0.4262639 -0.940488,0.9409817 0,0.0732 0.02718,0.138348 0.04332,0.207228 -0.167418,-0.264924 -0.4494059,-0.45231 -0.7820795,-0.45231 -0.514536,0 -0.9409811,0.425748 -0.9409811,0.940482 0,0.3327359 0.1877519,0.6146657 0.4528079,0.7820783 -0.06906,-0.0162 -0.134394,-0.04332 -0.20772,-0.04332 -0.5145479,0 -0.9404867,0.425976 -0.9404867,0.9404861 0,0.514548 0.426048,0.9404832 0.9404867,0.9404832 0.073272,0 0.138678,-0.02718 0.20772,-0.04332 -0.265056,0.1674659 -0.4528079,0.4497799 -0.4528079,0.7825699 0,0.514471 0.4256939,0.940483 0.9404849,0.940483 0.33312,0 0.6152645,-0.18798 0.7825757,-0.453304 -0.01626,0.0692 -0.04332,0.134681 -0.04332,0.208216 0,0.514698 0.425994,0.940484 0.940488,0.940484 0.5144099,0 0.9404814,-0.42582 0.9404814,-0.940484 0,-0.07337 -0.02712,-0.138689 -0.04332,-0.207724 0.1673457,0.265054 0.4491607,0.452806 0.7820767,0.452806 0.514774,0 0.940486,-0.42598 0.940486,-0.940483 0,-0.332873 -0.187686,-0.615132 -0.452808,-0.7825699 0.06928,0.01632 0.135186,0.04332 0.208722,0.04332 0.514374,0 0.939987,-0.425862 0.939987,-0.9404832 0,-0.5145839 -0.425502,-0.9404861 -0.939987,-0.9404861 -0.07351,0 -0.139086,0.02706 -0.208224,0.04332 0.265032,-0.167406 0.452808,-0.449316 0.452808,-0.7820783 0,-0.514554 -0.425976,-0.940482 -0.940482,-0.940482 -0.333054,0 -0.615249,0.187866 -0.7825767,0.453306 0.01632,-0.069162 0.04332,-0.13467 0.04332,-0.208224 0,-0.514908 -0.4260731,-0.9409817 -0.940483,-0.9409817 z"
       id="path10-6" />
    <path
       style="opacity:0.2;stroke-width:0.195036"
       d="M 9.8680034,9.5095873 H 10.90118 c 0.09085,0.094566 0.218538,0.153276 0.360348,0.153276 0.275958,0 0.499842,-0.22374 0.499842,-0.50007 0,-0.2761799 -0.223884,-0.5000339 -0.499842,-0.5000339 -0.141516,0 -0.269502,0.05898 -0.360348,0.153462 H 9.8680034 l 0.7304306,-0.730737 c 0.0033,0 0.0064,3.708e-4 0.0098,3.708e-4 0.276171,0 0.500019,-0.223884 0.500019,-0.50007 0,-0.2762219 -0.223848,-0.5000339 -0.500019,-0.5000339 -0.276218,0 -0.50006,0.223812 -0.50006,0.5000339 0,0.00308 1.84e-4,0.00642 1.84e-4,0.00954 L 9.3778581,8.325917 V 7.2929409 c 0.094344,-0.091068 0.1532759,-0.218688 0.1532759,-0.360174 0,-0.276588 -0.2241059,-0.500364 -0.5000579,-0.500364 -0.276252,0 -0.500208,0.22392 -0.500208,0.500364 0,0.14148 0.05892,0.269106 0.153312,0.360174 V 8.3259152 L 7.9536333,7.5953204 c 0,-0.00311 1.482e-4,-0.00642 1.482e-4,-0.00954 0,-0.2762219 -0.2237339,-0.5000339 -0.5000219,-0.5000339 -0.276288,0 -0.500316,0.223812 -0.500316,0.5000339 0,0.27618 0.223812,0.50007 0.5001,0.50007 0.00316,0 0.00642,-3.702e-4 0.00948,-3.702e-4 L 8.1937467,8.8162184 H 7.1605318 c -0.090954,-0.094638 -0.218682,-0.15345 -0.360198,-0.15345 -0.27618,0 -0.4999859,0.223848 -0.4999859,0.5000279 0,0.27633 0.2238059,0.50007 0.4999859,0.50007 0.141516,0 0.26943,-0.05868 0.360198,-0.153276 H 8.1937467 L 7.4630236,10.240141 c -0.00308,0 -0.00636,-3.71e-4 -0.00948,-3.71e-4 -0.276288,0 -0.5001,0.22381 -0.5001,0.50029 0,0.276038 0.223812,0.500107 0.5001,0.500107 0.276252,0 0.5000939,-0.224069 0.5000939,-0.500107 0,-0.0033 -1.95e-4,-0.0065 -1.95e-4,-0.0097 L 8.6839431,9.9996817 v 1.0333023 c -0.094344,0.09085 -0.153198,0.218471 -0.153198,0.360244 0,0.276216 0.223992,0.499992 0.500244,0.499992 0.275958,0 0.4999139,-0.223776 0.4999139,-0.499992 0,-0.141557 -0.05892,-0.269397 -0.1531979,-0.360244 V 9.9996657 l 0.7305009,0.7306583 c 0,0.0033 -1.95e-4,0.0062 -1.95e-4,0.0097 0,0.276037 0.223771,0.500107 0.500024,0.500107 0.276214,0 0.500056,-0.22407 0.500056,-0.500107 0,-0.276474 -0.223848,-0.50029 -0.500056,-0.50029 -0.0033,0 -0.0064,3.71e-4 -0.0097,3.71e-4 z"
       id="path11-7" />
    <path
       style="fill:#ffffff;stroke-width:0.195036"
       d="M 9.8680034,9.3145639 H 10.90118 c 0.09085,0.094566 0.218538,0.153276 0.360348,0.153276 0.275958,0 0.499842,-0.22374 0.499842,-0.50007 0,-0.2761799 -0.223884,-0.5000339 -0.499842,-0.5000339 -0.141516,0 -0.269502,0.05898 -0.360348,0.153462 H 9.8680034 L 10.598434,7.8904616 c 0.0033,0 0.0064,3.702e-4 0.0098,3.702e-4 0.276171,0 0.500019,-0.223884 0.500019,-0.5000699 0,-0.276222 -0.223848,-0.500028 -0.500019,-0.500028 -0.276218,0 -0.50006,0.223812 -0.50006,0.500028 0,0.00308 1.84e-4,0.00642 1.84e-4,0.00954 L 9.3778581,8.1308924 V 7.0979163 c 0.094344,-0.091068 0.1532759,-0.218688 0.1532759,-0.360174 0,-0.276588 -0.2241059,-0.500364 -0.5000579,-0.500364 -0.276252,0 -0.500208,0.223926 -0.500208,0.500364 0,0.14148 0.05892,0.269106 0.153312,0.360174 V 8.1308906 L 7.9536333,7.4002959 c 0,-0.00311 1.482e-4,-0.00648 1.482e-4,-0.00954 0,-0.276222 -0.2237339,-0.500034 -0.5000219,-0.500034 -0.276288,0 -0.500316,0.223812 -0.500316,0.500034 0,0.2761799 0.223812,0.5000699 0.5001,0.5000699 0.00316,0 0.00642,-3.708e-4 0.00948,-3.708e-4 L 8.1937467,8.621192 H 7.1605318 C 7.0695778,8.526554 6.9418498,8.467736 6.8003338,8.467736 c -0.27618,0 -0.4999859,0.223848 -0.4999859,0.5000339 0,0.27633 0.2238059,0.50007 0.4999859,0.50007 0.141516,0 0.26943,-0.05868 0.360198,-0.153276 H 8.1937467 L 7.4630236,10.045118 c -0.00308,0 -0.00636,-3.71e-4 -0.00948,-3.71e-4 -0.276288,0 -0.5001,0.223809 -0.5001,0.500288 0,0.276036 0.223812,0.500107 0.5001,0.500107 0.276252,0 0.5000939,-0.224071 0.5000939,-0.500107 0,-0.0033 -1.95e-4,-0.0065 -1.95e-4,-0.0097 L 8.6839431,9.8046559 v 1.0333001 c -0.094344,0.09085 -0.153198,0.218474 -0.153198,0.360247 0,0.276215 0.223992,0.499991 0.500244,0.499991 0.275958,0 0.4999139,-0.223776 0.4999139,-0.499991 0,-0.141557 -0.05892,-0.2694 -0.1531979,-0.360247 V 9.8046379 l 0.7305009,0.7306591 c 0,0.0033 -1.95e-4,0.0062 -1.95e-4,0.0097 0,0.276036 0.223771,0.500107 0.500024,0.500107 0.276214,0 0.500056,-0.224071 0.500056,-0.500107 0,-0.276473 -0.223848,-0.500288 -0.500056,-0.500288 -0.0033,0 -0.0064,3.71e-4 -0.0097,3.71e-4 z"
       id="path12-5" />
    <circle
       style="fill:url(#linearGradient13);stroke-width:0.277813"
       cy="9.0090714"
       cx="9.0222931"
       r="0.83343738"
       id="circle63-0-6" />
  </g>
</svg>
