<?xml version="1.0" encoding="UTF-8" standalone="no"?>
<svg
   width="68"
   height="68"
   viewBox="0 0 17.991665 17.991665"
   version="1.1"
   id="svg1114"
   inkscape:version="1.4.2 (unknown)"
   sodipodi:docname="caffeine.svg"
   xmlns:inkscape="http://www.inkscape.org/namespaces/inkscape"
   xmlns:sodipodi="http://sodipodi.sourceforge.net/DTD/sodipodi-0.dtd"
   xmlns:xlink="http://www.w3.org/1999/xlink"
   xmlns="http://www.w3.org/2000/svg"
   xmlns:svg="http://www.w3.org/2000/svg"
   xmlns:rdf="http://www.w3.org/1999/02/22-rdf-syntax-ns#"
   xmlns:cc="http://creativecommons.org/ns#"
   xmlns:dc="http://purl.org/dc/elements/1.1/">
  <style
     type="text/css"
     id="current-color-scheme">.ColorScheme-Highlight { color:#5599ff; }
</style>
  <defs
     id="defs1108">
    <linearGradient
       id="linearGradient12"
       inkscape:collect="always">
      <stop
         style="stop-color:#ffffff;stop-opacity:0;"
         offset="0"
         id="stop10" />
      <stop
         id="stop11"
         offset="0.65909404"
         style="stop-color:#ffffff;stop-opacity:0" />
      <stop
         style="stop-color:#ffffff;stop-opacity:1;"
         offset="1"
         id="stop12" />
    </linearGradient>
    <linearGradient
       id="linearGradient9"
       inkscape:collect="always">
      <stop
         style="stop-color:#000000;stop-opacity:0;"
         offset="0"
         id="stop1" />
      <stop
         id="stop8"
         offset="0.66102529"
         style="stop-color:#000000;stop-opacity:0" />
      <stop
         style="stop-color:#000000;stop-opacity:1;"
         offset="1"
         id="stop9" />
    </linearGradient>
    <linearGradient
       id="linearGradient7"
       inkscape:collect="always">
      <stop
         style="stop-color:#000000;stop-opacity:0;"
         offset="0"
         id="stop5" />
      <stop
         id="stop6"
         offset="0.6586886"
         style="stop-color:#000000;stop-opacity:0" />
      <stop
         style="stop-color:#000000;stop-opacity:1;"
         offset="1"
         id="stop7" />
    </linearGradient>
    <linearGradient
       id="linearGradient4"
       inkscape:collect="always">
      <stop
         style="stop-color:#000000;stop-opacity:0;"
         offset="0"
         id="stop2" />
      <stop
         id="stop3"
         offset="0.67055255"
         style="stop-color:#000000;stop-opacity:0" />
      <stop
         style="stop-color:#000000;stop-opacity:1;"
         offset="1"
         id="stop4" />
    </linearGradient>
    <linearGradient
       inkscape:collect="always"
       id="linearGradient899">
      <stop
         style="stop-color:#4b5981;stop-opacity:1;"
         offset="0"
         id="stop895" />
      <stop
         style="stop-color:#2f3651;stop-opacity:1;"
         offset="1"
         id="stop897" />
    </linearGradient>
    <linearGradient
       id="linearGradient1167"
       x1="40.751999"
       x2="40.751999"
       y1="28.507999"
       y2="17.205999"
       gradientUnits="userSpaceOnUse">
      <stop
         style="stop-color:#84fb6e;stop-opacity:1"
         stop-color="#0ab816"
         offset="0"
         id="stop1163" />
      <stop
         style="stop-color:#0dd41a;stop-opacity:1"
         stop-color="#0cf36c"
         offset="1"
         id="stop1165" />
    </linearGradient>
    <linearGradient
       id="cornerBevel"
       inkscape:collect="always">
      <stop
         style="stop-color:#000000;stop-opacity:0;"
         offset="0"
         id="stop2663" />
      <stop
         id="stop2671"
         offset="0.66666675"
         style="stop-color:#000000;stop-opacity:0" />
      <stop
         style="stop-color:#000000;stop-opacity:1;"
         offset="1"
         id="stop2661" />
    </linearGradient>
    <linearGradient
       id="bevel"
       inkscape:collect="always">
      <stop
         id="stop2685"
         offset="0"
         style="stop-color:#000000;stop-opacity:1;" />
      <stop
         id="stop2687"
         offset="1"
         style="stop-color:#000000;stop-opacity:0;" />
    </linearGradient>
    <linearGradient
       id="highlightCorner"
       inkscape:collect="always">
      <stop
         style="stop-color:#ffffff;stop-opacity:0;"
         offset="0"
         id="stop2613" />
      <stop
         id="stop2621"
         offset="0.66666669"
         style="stop-color:#ffffff;stop-opacity:0" />
      <stop
         style="stop-color:#ffffff;stop-opacity:1;"
         offset="1"
         id="stop2611" />
    </linearGradient>
    <linearGradient
       inkscape:collect="always"
       id="highlight">
      <stop
         style="stop-color:#ffffff;stop-opacity:1;"
         offset="0"
         id="stop2921" />
      <stop
         style="stop-color:#ffffff;stop-opacity:0;"
         offset="1"
         id="stop2923" />
    </linearGradient>
    <radialGradient
       inkscape:collect="always"
       xlink:href="#highlightCorner"
       id="radialGradient15"
       gradientUnits="userSpaceOnUse"
       gradientTransform="matrix(0.04294597,-12.079348,17.933991,0.06376112,14.524179,-50.373789)"
       cx="-4.5799766"
       cy="-0.50206107"
       fx="-4.5799766"
       fy="-0.50206107"
       r="0.39687499" />
    <linearGradient
       inkscape:collect="always"
       xlink:href="#highlight"
       id="linearGradient15"
       gradientUnits="userSpaceOnUse"
       x1="-3.8453064"
       y1="-1.1532172"
       x2="-3.8453064"
       y2="-0.8954913"
       gradientTransform="matrix(6.0923077,0,0,6.0923077,32.228528,7.1537621)" />
    <radialGradient
       inkscape:collect="always"
       xlink:href="#linearGradient12"
       id="radialGradient17"
       gradientUnits="userSpaceOnUse"
       gradientTransform="matrix(-0.02247554,-12.045403,-17.967828,0.03352619,1.6640208,-50.22331)"
       cx="-4.575222"
       cy="-0.55256462"
       fx="-4.575222"
       fy="-0.55256462"
       r="0.39687499" />
    <radialGradient
       inkscape:collect="always"
       xlink:href="#linearGradient7"
       id="radialGradient18"
       gradientUnits="userSpaceOnUse"
       gradientTransform="matrix(0.06461187,12.09952,17.933731,-0.09576873,14.609502,64.748231)"
       cx="-4.4284906"
       cy="-0.50121039"
       fx="-4.4284906"
       fy="-0.50121039"
       r="0.39687499" />
    <linearGradient
       inkscape:collect="always"
       xlink:href="#bevel"
       id="linearGradient18"
       gradientUnits="userSpaceOnUse"
       x1="-3.8415797"
       y1="-1.4506671"
       x2="-3.8406549"
       y2="-1.1968651"
       gradientTransform="matrix(6.0923076,0,0,6.0923076,32.228527,-7.1537627)" />
    <radialGradient
       inkscape:collect="always"
       xlink:href="#linearGradient4"
       id="radialGradient20"
       gradientUnits="userSpaceOnUse"
       gradientTransform="matrix(-0.01031383,11.991438,-17.967296,-0.01545561,1.7353715,64.305742)"
       cx="-4.4236727"
       cy="-0.55004197"
       fx="-4.4236727"
       fy="-0.55004197"
       r="0.39687499" />
    <radialGradient
       inkscape:collect="always"
       xlink:href="#cornerBevel"
       id="radialGradient25"
       gradientUnits="userSpaceOnUse"
       gradientTransform="matrix(12.184614,0,0,12.184614,59.63122,10.377613)"
       cx="-4.4568658"
       cy="-0.44864327"
       fx="-4.4568658"
       fy="-0.44864327"
       r="0.39687496" />
    <linearGradient
       inkscape:collect="always"
       xlink:href="#bevel"
       id="linearGradient25"
       gradientUnits="userSpaceOnUse"
       x1="-3.8487544"
       y1="-1.146081"
       x2="-3.8455966"
       y2="-0.890971"
       gradientTransform="matrix(6.0923077,0,0,6.0923077,32.228528,7.1537627)" />
    <radialGradient
       inkscape:collect="always"
       xlink:href="#cornerBevel"
       id="radialGradient29"
       gradientUnits="userSpaceOnUse"
       gradientTransform="matrix(0,-12.184614,12.184614,0,11.27353,-44.427768)"
       cx="-4.5705457"
       cy="-0.48653662"
       fx="-4.5705457"
       fy="-0.48653662"
       r="0.39687496" />
    <radialGradient
       inkscape:collect="always"
       xlink:href="#cornerBevel"
       id="radialGradient30"
       gradientUnits="userSpaceOnUse"
       gradientTransform="matrix(-12.184514,-0.04945749,0.04847411,-11.942243,-43.502155,3.8519053)"
       cx="-4.5342312"
       cy="-0.60337442"
       fx="-4.5342312"
       fy="-0.60337442"
       r="0.39687496" />
    <radialGradient
       inkscape:collect="always"
       xlink:href="#linearGradient9"
       id="radialGradient31"
       gradientUnits="userSpaceOnUse"
       gradientTransform="matrix(0,-12.151612,11.978956,0,18.475664,-48.770776)"
       cx="-4.4175329"
       cy="-0.56489283"
       fx="-4.4175329"
       fy="-0.56489283"
       r="0.39687496" />
    <linearGradient
       inkscape:collect="always"
       xlink:href="#bevel"
       id="linearGradient34"
       gradientUnits="userSpaceOnUse"
       x1="-3.99717"
       y1="-1.2218677"
       x2="-4.0003276"
       y2="-0.96675771"
       gradientTransform="matrix(6.0923077,0,0,6.0923077,17.025077,8.0496826)" />
    <linearGradient
       inkscape:collect="always"
       xlink:href="#bevel"
       id="linearGradient35"
       gradientUnits="userSpaceOnUse"
       x1="-4.0919032"
       y1="-1.4492278"
       x2="-4.0950613"
       y2="-1.1972755"
       gradientTransform="matrix(6.0923077,0,0,6.0923077,16.129161,-7.1537627)" />
    <linearGradient
       inkscape:collect="always"
       xlink:href="#bevel"
       id="linearGradient36"
       gradientUnits="userSpaceOnUse"
       x1="-3.8734362"
       y1="-1.3717227"
       x2="-3.8765941"
       y2="-1.116071"
       gradientTransform="matrix(6.0923077,0,0,6.0923077,31.33261,-8.0496826)" />
    <linearGradient
       id="paint2_linear_77:3-7"
       x1="79.398094"
       y1="-197.84389"
       x2="82.901054"
       y2="-199.97827"
       gradientUnits="userSpaceOnUse"
       gradientTransform="matrix(1.9248511,0,0,1.7314595,-40.88733,399.61741)">
      <stop
         stop-color="#EBFAFF"
         stop-opacity="0.1"
         id="stop29-5-7"
         offset="0"
         style="stop-color:#c3c3c3;stop-opacity:1;" />
      <stop
         offset="1"
         stop-color="#70A9FF"
         stop-opacity="0.5"
         id="stop30-0-1"
         style="stop-color:#05c7ff;stop-opacity:0.80000001;" />
    </linearGradient>
    <linearGradient
       inkscape:collect="always"
       xlink:href="#linearGradient899"
       id="linearGradient926"
       x1="1.1249832"
       y1="-9.2589808"
       x2="16.919081"
       y2="-9.2251434"
       gradientUnits="userSpaceOnUse"
       gradientTransform="translate(-0.92604234,0.47624996)" />
    <linearGradient
       xlink:href="#bevel"
       id="linearGradient4304-3"
       x1="26.929001"
       y1="5.9949999"
       x2="47.120998"
       y2="37.126999"
       gradientUnits="userSpaceOnUse"
       gradientTransform="matrix(0.27781247,0,0,0.27781247,0.74083456,0.740834)" />
    <linearGradient
       id="linearGradient4375">
      <stop
         style="stop-color:#364e59;stop-opacity:1;"
         offset="0"
         id="stop4377" />
      <stop
         style="stop-color:#364e59;stop-opacity:0;"
         offset="1"
         id="stop4379" />
    </linearGradient>
    <filter
       id="c"
       width="1.0720223"
       height="1.0720223"
       x="-0.036011127"
       y="-0.036011127"
       color-interpolation-filters="sRGB">
      <feGaussianBlur
         stdDeviation=".89"
         id="feGaussianBlur29" />
    </filter>
    <linearGradient
       id="d"
       x1="408.25"
       x2="407.94"
       y1="547.59998"
       y2="498.89001"
       gradientTransform="matrix(1.893637,0,0,1.893637,-747.40737,-965.47484)"
       gradientUnits="userSpaceOnUse">
      <stop
         offset="0"
         stop-color="#fff"
         id="stop13" />
      <stop
         offset="1"
         stop-color="#e6e6e6"
         id="stop14" />
    </linearGradient>
    <linearGradient
       id="e"
       x1="-37.637001"
       x2="-36.792999"
       y1="280.01001"
       y2="273.35999"
       gradientTransform="matrix(2.6233636,0,0,2.614234,137.12182,-681.57194)"
       gradientUnits="userSpaceOnUse">
      <stop
         offset="0"
         stop-color="#fefefe"
         id="stop5-3" />
      <stop
         offset="1"
         stop-color="#8c8c8c"
         id="stop6-6" />
    </linearGradient>
    <radialGradient
       id="f"
       cx="-42.763"
       cy="277.01999"
       r="7.1999998"
       gradientTransform="matrix(2.6233636,0,0,1.2275832,137.12182,-297.43877)"
       gradientUnits="userSpaceOnUse">
      <stop
         offset="0"
         stop-color="#fff"
         id="stop15" />
      <stop
         offset="1"
         stop-color="#ccc"
         id="stop16" />
    </radialGradient>
    <radialGradient
       xlink:href="#bevel"
       id="g"
       cx="62.625"
       cy="4.625"
       r="10.625"
       gradientTransform="matrix(2.4805839,0,0,0.8202859,-131.25089,39.781491)"
       gradientUnits="userSpaceOnUse" />
    <radialGradient
       id="h"
       cx="118.48"
       cy="58.118999"
       r="13.983"
       gradientTransform="matrix(-0.57649231,0.57873169,-0.36436393,-0.36862866,138.30566,-21.032828)"
       gradientUnits="userSpaceOnUse">
      <stop
         offset="0"
         stop-color="#fefefe"
         id="stop17" />
      <stop
         offset="1"
         stop-color="#b4b4b3"
         id="stop18" />
    </radialGradient>
    <radialGradient
       id="i"
       cx="94.238998"
       cy="62.312"
       r="13.983"
       gradientTransform="matrix(-0.64191943,0.03290618,-0.02845596,-0.56374066,120.04823,46.710752)"
       gradientUnits="userSpaceOnUse">
      <stop
         offset="0"
         stop-color="#fff"
         id="stop19" />
      <stop
         offset="1"
         stop-color="#fff"
         stop-opacity="0"
         id="stop20" />
    </radialGradient>
    <radialGradient
       xlink:href="#bevel"
       id="j"
       cx="102.33466"
       cy="25.629248"
       r="13.983"
       gradientTransform="matrix(-0.49400585,5.4201716e-4,0,-0.18536983,102.67088,30.025187)"
       gradientUnits="userSpaceOnUse"
       fx="102.33466"
       fy="25.629248" />
    <radialGradient
       xlink:href="#bevel"
       id="k"
       cx="62.625"
       cy="4.625"
       r="10.625"
       gradientTransform="matrix(1.7656688,0.40079713,-0.24941857,1.0987867,-85.326426,13.39305)"
       gradientUnits="userSpaceOnUse"
       fx="62.625"
       fy="4.625" />
    <radialGradient
       id="l"
       cx="-6.454"
       cy="29.205999"
       r="32"
       gradientTransform="matrix(0,1.1699155,-1.2206511,0,47.514934,31.669777)"
       gradientUnits="userSpaceOnUse">
      <stop
         offset="0"
         stop-color="#eeeeec"
         id="stop21" />
      <stop
         offset=".5"
         stop-color="#cacac9"
         id="stop22" />
      <stop
         offset="1"
         stop-color="#6b6b6b"
         id="stop23" />
    </radialGradient>
    <linearGradient
       id="n"
       x1="-6.9032006"
       x2="31.256268"
       y1="26.640934"
       y2="26.640934"
       gradientTransform="matrix(0.79103119,0,0,0.57659213,20.018972,4.336425)"
       gradientUnits="userSpaceOnUse"
       spreadMethod="reflect">
      <stop
         offset="0"
         stop-color="#d1d1d1"
         id="stop9-1" />
      <stop
         offset="1"
         stop-color="#959594"
         id="stop10-2" />
    </linearGradient>
    <radialGradient
       id="o"
       cx="8.4379997"
       cy="32.535"
       r="26.406"
       gradientTransform="matrix(0.97598745,0,0,0.3984682,16.333252,7.196276)"
       gradientUnits="userSpaceOnUse">
      <stop
         offset="0"
         stop-color="#8b6a35"
         id="stop24" />
      <stop
         offset=".371"
         stop-color="#885f22"
         id="stop25" />
      <stop
         offset=".686"
         stop-color="#754d0d"
         id="stop26" />
      <stop
         offset="1"
         stop-color="#483816"
         id="stop27" />
    </radialGradient>
  </defs>
  <sodipodi:namedview
     id="base"
     pagecolor="#e2e2e2"
     bordercolor="#666666"
     borderopacity="1.0"
     inkscape:pageopacity="0"
     inkscape:pageshadow="2"
     inkscape:zoom="9.7248729"
     inkscape:cx="32.493998"
     inkscape:cy="39.075061"
     inkscape:document-units="px"
     inkscape:current-layer="layer1"
     inkscape:document-rotation="0"
     showgrid="false"
     units="px"
     inkscape:window-width="1920"
     inkscape:window-height="990"
     inkscape:window-x="0"
     inkscape:window-y="0"
     inkscape:window-maximized="1"
     inkscape:object-paths="true"
     inkscape:snap-grids="true"
     inkscape:snap-intersection-paths="true"
     inkscape:snap-smooth-nodes="true"
     inkscape:snap-midpoints="true"
     inkscape:showpageshadow="2"
     inkscape:pagecheckerboard="0"
     inkscape:deskcolor="#d1d1d1">
    <inkscape:grid
       id="grid2"
       units="px"
       originx="0"
       originy="0"
       spacingx="0.26458333"
       spacingy="0.26458333"
       empcolor="#0099e5"
       empopacity="0.30196078"
       color="#0099e5"
       opacity="0.14902"
       empspacing="5"
       dotted="false"
       gridanglex="30"
       gridanglez="30"
       visible="false" />
  </sodipodi:namedview>
  <metadata
     id="metadata1111">
    <rdf:RDF>
      <cc:Work
         rdf:about="">
        <dc:format>image/svg+xml</dc:format>
        <dc:type
           rdf:resource="http://purl.org/dc/dcmitype/StillImage" />
      </cc:Work>
    </rdf:RDF>
  </metadata>
  <g
     inkscape:label="Layer 1"
     inkscape:groupmode="layer"
     id="layer1">
    <g
       id="g918"
       transform="translate(0.47625037,0.92604234)">
      <rect
         ry="4.8357682"
         rx="4.8357682"
         style="fill:url(#linearGradient926);fill-opacity:1;stroke-width:6.09228"
         x="0.13229237"
         y="-16.457085"
         width="15.875001"
         height="15.875001"
         id="use1056"
         transform="rotate(90)"
         class="ColorScheme-Highlight" />
      <path
         d="m 5.344583,0.13229167 c -2.6384245,0 -4.76249953,2.12407483 -4.76249953,4.76249963 H 5.344583 Z"
         style="opacity:0.15;fill:url(#radialGradient25);fill-opacity:1;stroke-width:6.09228"
         id="path20" />
      <rect
         y="0.13229151"
         x="5.3445826"
         height="1.5875"
         width="6.3500004"
         id="rect20"
         style="opacity:0.15;fill:url(#linearGradient25);fill-opacity:1;stroke-width:4.83577;stroke-linecap:round;stroke-linejoin:round;paint-order:stroke fill markers" />
      <path
         d="m 0.58208347,11.244792 c 0,2.638424 2.12407503,4.762499 4.76249953,4.762499 v -4.762499 z"
         style="opacity:0.15;fill:url(#radialGradient29);fill-opacity:1;stroke-width:6.09228"
         id="use20" />
      <rect
         y="0.5820834"
         x="-11.244792"
         height="1.5875"
         width="6.3500004"
         id="use21"
         style="opacity:0.15;fill:url(#linearGradient34);fill-opacity:1;stroke-width:4.83577;stroke-linecap:round;stroke-linejoin:round;paint-order:stroke fill markers"
         transform="rotate(-90)" />
      <path
         d="m 11.694583,16.007291 c 2.638425,0 4.7625,-2.124074 4.7625,-4.762499 h -4.7625 z"
         style="opacity:0.15;fill:url(#radialGradient30);fill-opacity:1;stroke-width:6.09228"
         id="use22" />
      <rect
         y="-16.007292"
         x="-11.694584"
         height="1.5875"
         width="6.3500004"
         id="use23"
         style="opacity:0.15;fill:url(#linearGradient35);fill-opacity:1;stroke-width:4.83577;stroke-linecap:round;stroke-linejoin:round;paint-order:stroke fill markers"
         transform="scale(-1)" />
      <path
         d="m 16.457083,4.8947913 c 0,-2.6384245 -2.124074,-4.76249963 -4.7625,-4.76249963 V 4.8947913 Z"
         style="opacity:0.15;fill:url(#radialGradient31);fill-opacity:1;stroke-width:6.09228"
         id="use24" />
      <rect
         y="-16.457081"
         x="4.8947906"
         height="1.5875"
         width="6.3500004"
         id="use25"
         style="opacity:0.15;fill:url(#linearGradient36);fill-opacity:1;stroke-width:4.83577;stroke-linecap:round;stroke-linejoin:round;paint-order:stroke fill markers"
         transform="rotate(90)" />
      <path
         d="m 5.3445832,0.13229107 c -2.638425,0 -4.76250035,2.12407473 -4.76250035,4.76249973 H 5.3445832 Z"
         style="opacity:0.5;fill:url(#radialGradient15);fill-opacity:1;stroke-width:6.09228"
         id="path14" />
      <rect
         y="0.1322909"
         x="5.3445826"
         height="1.5875"
         width="6.3499999"
         id="rect14"
         style="opacity:0.5;fill:url(#linearGradient15);fill-opacity:1;stroke-width:4.83577;stroke-linecap:round;stroke-linejoin:round;paint-order:stroke fill markers" />
      <path
         d="m 11.694583,0.13229096 c 2.638425,0 4.7625,2.12407504 4.7625,4.76249734 h -4.7625 z"
         style="opacity:0.5;fill:url(#radialGradient17);fill-opacity:1;stroke-width:6.09228"
         id="use14" />
      <path
         id="path17"
         style="opacity:0.5;fill:url(#radialGradient18);fill-opacity:1;stroke-width:6.09228"
         d="m 5.3445834,16.00729 c -2.638425,0 -4.7625,-2.124075 -4.7625,-4.7625 h 4.7625 z" />
      <rect
         style="opacity:0.5;fill:url(#linearGradient18);fill-opacity:1;stroke-width:4.83577;stroke-linecap:round;stroke-linejoin:round;paint-order:stroke fill markers"
         id="rect17"
         width="6.3499994"
         height="1.5874999"
         x="5.3445826"
         y="-16.007292"
         transform="scale(1,-1)" />
      <path
         id="use17"
         style="opacity:0.5;fill:url(#radialGradient20);fill-opacity:1;stroke-width:6.09228"
         d="m 11.694582,16.007291 c 2.638425,0 4.7625,-2.124075 4.7625,-4.7625 h -4.7625 z" />
    </g>
    <g
       id="g48"
       transform="matrix(0.17880944,0,0,0.17880944,3.4527427,3.452743)"
       style="stroke-width:1.47969">
      <rect
         width="59.314999"
         height="59.314999"
         x="386.85001"
         y="486.31"
         filter="url(#c)"
         opacity="0.25"
         ry="43.883293"
         transform="matrix(0.97504203,0,0,0.97504203,-375.11233,-472.09)"
         id="rect29"
         rx="43.883293"
         style="stroke-width:1.47969" />
      <rect
         width="57.834476"
         height="57.834476"
         x="2.0866601"
         y="2.0781841"
         fill="url(#d)"
         ry="42.787968"
         id="rect30"
         style="fill:url(#d);stroke-width:1.42637"
         rx="42.787968" />
      <rect
         width="61.693222"
         height="61.693222"
         fill="none"
         rx="0"
         ry="0"
         style="stroke-width:1.42637;paint-order:stroke fill markers"
         id="rect31"
         x="0.17513512"
         y="0.17147826" />
      <ellipse
         cx="30.090548"
         cy="41.745964"
         fill="#808080"
         rx="16.750671"
         ry="8.3921986"
         id="ellipse31"
         style="stroke-width:1.42637" />
      <ellipse
         cx="30.090548"
         cy="40.809944"
         fill="url(#e)"
         rx="16.750671"
         ry="8.3921986"
         id="ellipse32"
         style="fill:url(#e);stroke-width:1.42637" />
      <ellipse
         cx="30.090548"
         cy="41.860653"
         fill="url(#f)"
         rx="12.764702"
         ry="5.9726758"
         id="ellipse33"
         style="fill:url(#f);stroke-width:1.42637" />
      <path
         fill="url(#g)"
         fill-rule="evenodd"
         d="m 47.146796,42.497837 c 0,3.253348 -7.974808,5.889769 -17.811984,5.889769 -9.837171,0 -17.811985,-2.636421 -17.811985,-5.889769 0,-3.253354 7.974814,-5.889777 17.811985,-5.889777 9.837176,0 17.811984,2.636423 17.811984,5.889777"
         opacity="0.3"
         id="path33"
         style="fill:url(#g);stroke-width:1.42637" />
      <path
         fill="url(#h)"
         d="m 43.151198,37.316569 c 3.417226,-0.304608 10.94669,-1.148076 10.405905,-9.886339 -0.02894,-0.464621 -0.148445,-0.940816 -0.353767,-1.308091 A 3.2774513,3.2774513 0 0 0 52.282757,25.103242 C 50.526425,23.834677 47.34441,24.03229 45.062724,24.03229 37.581456,25.605464 35.99864,38.301735 43.151198,37.317534 Z M 44.35036,27.063926 c 0,0 6.017977,-0.904187 6.225231,0.252563 0.676696,7.060977 -6.206917,6.082558 -6.206917,6.082558 l -0.01832,-5.925438 z"
         id="path34"
         style="fill:url(#h);stroke-width:1.42637" />
      <path
         d="m 45.107064,24.312796 c -3.597482,0.756711 -5.790484,4.215381 -6.209804,7.362698 -0.210142,1.574141 0.02601,3.052851 0.713326,4.048623 0.687306,0.997694 1.802597,1.551002 3.513621,1.315798 h 0.01737 c 1.551968,-0.138809 5.61986,-0.986131 7.767557,-3.014293 1.074814,-1.014085 0.585122,-2.940064 1.277245,-3.96283 0.693083,-1.023719 1.096016,-1.97321 1.096016,-2.629664 0,-0.400043 -0.144592,-0.842501 -0.330634,-1.174103 a 2.8918687,2.8918687 0 0 0 -0.8348,-0.92926 c -1.604032,-1.158664 -4.716643,-1.018892 -7.009896,-1.016969 m -0.800082,2.874517 a 0.28918687,0.28918687 0 0 1 0.05203,0 c 0,0 3.963787,-0.163872 5.285372,-0.163872 0.07422,0 -0.05203,-0.05201 0,0 0.05305,0.05308 0,-0.07328 0,0 0,1.565467 0.245809,4.140197 -0.860815,4.860266 a 10.217939,10.217939 0 0 1 -2.208427,1.069995 0.27954729,0.27954729 0 0 1 -0.2487,-0.03854 0.27954729,0.27954729 0 0 1 -0.116638,-0.225569 l -2.130336,-5.221749 a 0.27954729,0.27954729 0 0 1 0.226529,-0.279547 z"
         id="path35"
         style="fill:url(#i);stroke-width:1.42637" />
      <path
         d="m 45.385649,24.03229 c -3.597487,0.756702 -5.790486,4.21538 -6.209807,7.362696 -0.210142,1.57414 0.02601,3.052848 0.713328,4.048615 0.687302,0.997692 1.802599,1.551009 3.513619,1.315799 h 0.01736 c 1.551973,-0.138812 6.277286,-0.813578 8.424979,-2.842708 1.074813,-1.014075 -0.07234,-3.111645 0.619826,-4.134404 0.692117,-1.022764 1.096019,-1.973224 1.096019,-2.629671 0,-0.400049 -0.144597,-0.842499 -0.330642,-1.1741 A 2.8918687,2.8918687 0 0 0 52.395553,25.049263 C 50.791528,23.890584 47.678909,24.030362 45.385661,24.03229 m -0.800084,2.874517 a 0.28918687,0.28918687 0 0 1 0.05203,0 c 0,0 4.950876,0.131092 6.272464,0.131092 a 0.27665548,0.27665548 0 0 1 0.27762,0.280517 c 0,1.565467 -1.018906,3.564704 -2.125524,4.284789 a 10.217939,10.217939 0 0 1 -2.208425,1.069989 0.27954729,0.27954729 0 0 1 -0.249664,-0.03855 0.27954729,0.27954729 0 0 1 -0.115675,-0.225559 l -2.130331,-5.22177 a 0.27954729,0.27954729 0 0 1 0.22653,-0.27954 z"
         opacity="0.3"
         id="path36"
         style="fill:url(#j);stroke-width:1.42637" />
      <path
         fill-rule="evenodd"
         d="m 53.800989,42.497837 c 0,4.4689 -10.954402,8.090483 -24.466177,8.090483 -13.512742,0 -24.4661742,-3.62255 -24.4661742,-8.090483 0,-4.467938 10.9543992,-8.090484 24.4661742,-8.090484 13.512741,0 24.466177,3.622546 24.466177,8.090484"
         opacity="0.3"
         id="path37"
         style="fill:url(#k);stroke-width:1.42637" />
      <path
         d="m 29.653885,15.449221 c -9.311819,0 -16.934782,2.699072 -17.498701,6.100878 h -0.03475 v 4.101637 c 0.125312,10.870536 7.933363,19.651209 17.533404,19.651209 9.601001,0 17.40808,-8.780673 17.533398,-19.651209 v -4.101637 h -0.03473 c -0.563874,-3.400835 -8.18684,-6.099912 -17.498655,-6.099912 z"
         id="path38"
         style="fill:url(#l);stroke-width:1.42637" />
      <path
         d="m 45.307569,22.357894 c 0.002,3.151175 -7.00796,5.706619 -15.653684,5.706619 -8.645726,0 -15.654658,-2.555444 -15.653687,-5.706619 -0.002,-3.15117 7.007961,-5.706617 15.653687,-5.706617 8.645724,0 15.654648,2.555447 15.653684,5.706617"
         id="path40"
         style="fill:url(#n);stroke-width:1.42637" />
      <path
         fill="#36290f"
         d="m 29.652915,19.218288 c -7.250878,0 -13.572504,2.027203 -15.348111,4.289609 1.247362,2.249875 7.743466,4.526736 14.984703,4.526736 7.240276,0 14.985665,-2.357837 15.826233,-4.770616 -1.777536,-2.262407 -8.212903,-4.045729 -15.462825,-4.045729"
         id="path41"
         style="stroke-width:1.42637" />
      <path
         d="m 29.652915,19.697378 c -7.250878,0 -13.318981,1.764038 -15.09459,4.189354 1.784285,2.419524 7.852389,4.22502 15.09459,4.22502 7.240277,0 13.305494,-1.812238 15.090739,-4.23177 -1.776569,-2.424348 -7.840817,-4.182604 -15.090739,-4.182604"
         id="path42"
         style="fill:url(#o);stroke-width:1.42637" />
      <path
         fill="none"
         d="m 45.789546,22.357894 c 0.002,3.251422 -7.222925,5.886884 -16.135661,5.886884 -8.912747,0 -16.1376,-2.634491 -16.135664,-5.886884 -0.002,-3.25142 7.222917,-5.886881 16.135664,-5.886881 8.912736,0 16.13759,2.635461 16.135661,5.886881"
         opacity="0.4"
         id="path44"
         style="stroke-width:1.42637" />
    </g>
  </g>
</svg>
