<?xml version="1.0" encoding="UTF-8" standalone="no"?>
<svg
   width="68"
   height="68"
   viewBox="0 0 17.991665 17.991665"
   version="1.1"
   id="svg1114"
   inkscape:version="1.4 (e7c3feb100, 2024-10-09)"
   sodipodi:docname="bt-logo.svg"
   xmlns:inkscape="http://www.inkscape.org/namespaces/inkscape"
   xmlns:sodipodi="http://sodipodi.sourceforge.net/DTD/sodipodi-0.dtd"
   xmlns:xlink="http://www.w3.org/1999/xlink"
   xmlns="http://www.w3.org/2000/svg"
   xmlns:svg="http://www.w3.org/2000/svg"
   xmlns:rdf="http://www.w3.org/1999/02/22-rdf-syntax-ns#"
   xmlns:cc="http://creativecommons.org/ns#"
   xmlns:dc="http://purl.org/dc/elements/1.1/">
  <style
     type="text/css"
     id="current-color-scheme">.ColorScheme-Highlight { color:#5599ff; }
</style>
  <defs
     id="defs1108">
    <linearGradient
       id="linearGradient12"
       inkscape:collect="always">
      <stop
         style="stop-color:#ffffff;stop-opacity:0;"
         offset="0"
         id="stop10" />
      <stop
         id="stop11"
         offset="0.65909404"
         style="stop-color:#ffffff;stop-opacity:0" />
      <stop
         style="stop-color:#ffffff;stop-opacity:1;"
         offset="1"
         id="stop12" />
    </linearGradient>
    <linearGradient
       id="linearGradient9"
       inkscape:collect="always">
      <stop
         style="stop-color:#000000;stop-opacity:0;"
         offset="0"
         id="stop1" />
      <stop
         id="stop8"
         offset="0.66102529"
         style="stop-color:#000000;stop-opacity:0" />
      <stop
         style="stop-color:#000000;stop-opacity:1;"
         offset="1"
         id="stop9" />
    </linearGradient>
    <linearGradient
       id="linearGradient7"
       inkscape:collect="always">
      <stop
         style="stop-color:#000000;stop-opacity:0;"
         offset="0"
         id="stop5" />
      <stop
         id="stop6"
         offset="0.6586886"
         style="stop-color:#000000;stop-opacity:0" />
      <stop
         style="stop-color:#000000;stop-opacity:1;"
         offset="1"
         id="stop7" />
    </linearGradient>
    <linearGradient
       id="linearGradient4"
       inkscape:collect="always">
      <stop
         style="stop-color:#000000;stop-opacity:0;"
         offset="0"
         id="stop2" />
      <stop
         id="stop3"
         offset="0.67055255"
         style="stop-color:#000000;stop-opacity:0" />
      <stop
         style="stop-color:#000000;stop-opacity:1;"
         offset="1"
         id="stop4" />
    </linearGradient>
    <linearGradient
       inkscape:collect="always"
       id="linearGradient899">
      <stop
         style="stop-color:#5599ff;stop-opacity:1;"
         offset="0"
         id="stop895" />
      <stop
         style="stop-color:#1a75ff;stop-opacity:1;"
         offset="1"
         id="stop897" />
    </linearGradient>
    <linearGradient
       id="linearGradient1167"
       x1="40.751999"
       x2="40.751999"
       y1="28.507999"
       y2="17.205999"
       gradientUnits="userSpaceOnUse">
      <stop
         style="stop-color:#84fb6e;stop-opacity:1"
         stop-color="#0ab816"
         offset="0"
         id="stop1163" />
      <stop
         style="stop-color:#0dd41a;stop-opacity:1"
         stop-color="#0cf36c"
         offset="1"
         id="stop1165" />
    </linearGradient>
    <linearGradient
       id="cornerBevel"
       inkscape:collect="always">
      <stop
         style="stop-color:#000000;stop-opacity:0;"
         offset="0"
         id="stop2663" />
      <stop
         id="stop2671"
         offset="0.66666675"
         style="stop-color:#000000;stop-opacity:0" />
      <stop
         style="stop-color:#000000;stop-opacity:1;"
         offset="1"
         id="stop2661" />
    </linearGradient>
    <linearGradient
       id="bevel"
       inkscape:collect="always">
      <stop
         id="stop2685"
         offset="0"
         style="stop-color:#000000;stop-opacity:1;" />
      <stop
         id="stop2687"
         offset="1"
         style="stop-color:#000000;stop-opacity:0;" />
    </linearGradient>
    <linearGradient
       id="highlightCorner"
       inkscape:collect="always">
      <stop
         style="stop-color:#ffffff;stop-opacity:0;"
         offset="0"
         id="stop2613" />
      <stop
         id="stop2621"
         offset="0.66666669"
         style="stop-color:#ffffff;stop-opacity:0" />
      <stop
         style="stop-color:#ffffff;stop-opacity:1;"
         offset="1"
         id="stop2611" />
    </linearGradient>
    <linearGradient
       inkscape:collect="always"
       id="highlight">
      <stop
         style="stop-color:#ffffff;stop-opacity:1;"
         offset="0"
         id="stop2921" />
      <stop
         style="stop-color:#ffffff;stop-opacity:0;"
         offset="1"
         id="stop2923" />
    </linearGradient>
    <radialGradient
       inkscape:collect="always"
       xlink:href="#highlightCorner"
       id="radialGradient15"
       gradientUnits="userSpaceOnUse"
       gradientTransform="matrix(0.04294597,-12.079348,17.933991,0.06376112,14.524179,-50.373789)"
       cx="-4.5799766"
       cy="-0.50206107"
       fx="-4.5799766"
       fy="-0.50206107"
       r="0.39687499" />
    <linearGradient
       inkscape:collect="always"
       xlink:href="#highlight"
       id="linearGradient15"
       gradientUnits="userSpaceOnUse"
       x1="-3.8453064"
       y1="-1.1532172"
       x2="-3.8453064"
       y2="-0.8954913"
       gradientTransform="matrix(6.0923077,0,0,6.0923077,32.228528,7.1537621)" />
    <radialGradient
       inkscape:collect="always"
       xlink:href="#linearGradient12"
       id="radialGradient17"
       gradientUnits="userSpaceOnUse"
       gradientTransform="matrix(-0.02247554,-12.045403,-17.967828,0.03352619,1.6640208,-50.22331)"
       cx="-4.575222"
       cy="-0.55256462"
       fx="-4.575222"
       fy="-0.55256462"
       r="0.39687499" />
    <radialGradient
       inkscape:collect="always"
       xlink:href="#linearGradient7"
       id="radialGradient18"
       gradientUnits="userSpaceOnUse"
       gradientTransform="matrix(0.06461187,12.09952,17.933731,-0.09576873,14.609502,64.748231)"
       cx="-4.4284906"
       cy="-0.50121039"
       fx="-4.4284906"
       fy="-0.50121039"
       r="0.39687499" />
    <linearGradient
       inkscape:collect="always"
       xlink:href="#bevel"
       id="linearGradient18"
       gradientUnits="userSpaceOnUse"
       x1="-3.8415797"
       y1="-1.4506671"
       x2="-3.8406549"
       y2="-1.1968651"
       gradientTransform="matrix(6.0923076,0,0,6.0923076,32.228527,-7.1537627)" />
    <radialGradient
       inkscape:collect="always"
       xlink:href="#linearGradient4"
       id="radialGradient20"
       gradientUnits="userSpaceOnUse"
       gradientTransform="matrix(-0.01031383,11.991438,-17.967296,-0.01545561,1.7353715,64.305742)"
       cx="-4.4236727"
       cy="-0.55004197"
       fx="-4.4236727"
       fy="-0.55004197"
       r="0.39687499" />
    <radialGradient
       inkscape:collect="always"
       xlink:href="#cornerBevel"
       id="radialGradient25"
       gradientUnits="userSpaceOnUse"
       gradientTransform="matrix(12.184614,0,0,12.184614,59.63122,10.377613)"
       cx="-4.4568658"
       cy="-0.44864327"
       fx="-4.4568658"
       fy="-0.44864327"
       r="0.39687496" />
    <linearGradient
       inkscape:collect="always"
       xlink:href="#bevel"
       id="linearGradient25"
       gradientUnits="userSpaceOnUse"
       x1="-3.8487544"
       y1="-1.146081"
       x2="-3.8455966"
       y2="-0.890971"
       gradientTransform="matrix(6.0923077,0,0,6.0923077,32.228528,7.1537627)" />
    <radialGradient
       inkscape:collect="always"
       xlink:href="#cornerBevel"
       id="radialGradient29"
       gradientUnits="userSpaceOnUse"
       gradientTransform="matrix(0,-12.184614,12.184614,0,11.27353,-44.427768)"
       cx="-4.5705457"
       cy="-0.48653662"
       fx="-4.5705457"
       fy="-0.48653662"
       r="0.39687496" />
    <radialGradient
       inkscape:collect="always"
       xlink:href="#cornerBevel"
       id="radialGradient30"
       gradientUnits="userSpaceOnUse"
       gradientTransform="matrix(-12.184514,-0.04945749,0.04847411,-11.942243,-43.502155,3.8519053)"
       cx="-4.5342312"
       cy="-0.60337442"
       fx="-4.5342312"
       fy="-0.60337442"
       r="0.39687496" />
    <radialGradient
       inkscape:collect="always"
       xlink:href="#linearGradient9"
       id="radialGradient31"
       gradientUnits="userSpaceOnUse"
       gradientTransform="matrix(0,-12.151612,11.978956,0,18.475664,-48.770776)"
       cx="-4.4175329"
       cy="-0.56489283"
       fx="-4.4175329"
       fy="-0.56489283"
       r="0.39687496" />
    <linearGradient
       inkscape:collect="always"
       xlink:href="#bevel"
       id="linearGradient34"
       gradientUnits="userSpaceOnUse"
       x1="-3.99717"
       y1="-1.2218677"
       x2="-4.0003276"
       y2="-0.96675771"
       gradientTransform="matrix(6.0923077,0,0,6.0923077,17.025077,8.0496826)" />
    <linearGradient
       inkscape:collect="always"
       xlink:href="#bevel"
       id="linearGradient35"
       gradientUnits="userSpaceOnUse"
       x1="-4.0919032"
       y1="-1.4492278"
       x2="-4.0950613"
       y2="-1.1972755"
       gradientTransform="matrix(6.0923077,0,0,6.0923077,16.129161,-7.1537627)" />
    <linearGradient
       inkscape:collect="always"
       xlink:href="#bevel"
       id="linearGradient36"
       gradientUnits="userSpaceOnUse"
       x1="-3.8734362"
       y1="-1.3717227"
       x2="-3.8765941"
       y2="-1.116071"
       gradientTransform="matrix(6.0923077,0,0,6.0923077,31.33261,-8.0496826)" />
    <linearGradient
       id="paint2_linear_77:3-7"
       x1="79.398094"
       y1="-197.84389"
       x2="82.901054"
       y2="-199.97827"
       gradientUnits="userSpaceOnUse"
       gradientTransform="matrix(1.9248511,0,0,1.7314595,-40.88733,399.61741)">
      <stop
         stop-color="#EBFAFF"
         stop-opacity="0.1"
         id="stop29-5-7"
         offset="0"
         style="stop-color:#c3c3c3;stop-opacity:1;" />
      <stop
         offset="1"
         stop-color="#70A9FF"
         stop-opacity="0.5"
         id="stop30-0-1"
         style="stop-color:#05c7ff;stop-opacity:0.80000001;" />
    </linearGradient>
    <linearGradient
       inkscape:collect="always"
       xlink:href="#linearGradient899"
       id="linearGradient926"
       x1="1.1521901"
       y1="-9.3133945"
       x2="16.919081"
       y2="-9.2251434"
       gradientUnits="userSpaceOnUse"
       gradientTransform="translate(-0.92604234,0.47624996)" />
    <linearGradient
       id="s"
       x1="-1129.7"
       x2="-1106.6"
       y1="944.53003"
       y2="962.73999"
       gradientTransform="matrix(0,0.33027508,0.34249609,0,-318.20579,377.70211)"
       gradientUnits="userSpaceOnUse">
      <stop
         stop-color="#BFBFBF"
         offset="0"
         id="stop5-6" />
      <stop
         stop-color="#fff"
         offset=".5"
         id="stop6-7" />
      <stop
         stop-color="#BFBFBF"
         offset="1"
         id="stop7-3" />
    </linearGradient>
    <linearGradient
       id="r"
       x1="-1196.7"
       x2="-1197.3"
       y1="860.46002"
       y2="818.53998"
       gradientTransform="matrix(0.10799212,0,0,0.10414375,1.5565706,1.7949999)"
       gradientUnits="userSpaceOnUse">
      <stop
         stop-color="#323232"
         offset="0"
         id="stop8-5"
         style="stop-color:#000000;stop-opacity:1;" />
      <stop
         offset="1"
         id="stop9-6" />
    </linearGradient>
    <linearGradient
       id="c"
       gradientUnits="userSpaceOnUse"
       x1="15"
       x2="38"
       y1="13"
       y2="36"
       gradientTransform="scale(0.2645834)">
      <stop
         offset="0"
         stop-color="#194f95"
         id="stop12-3" />
      <stop
         offset="1"
         stop-color="#194f95"
         stop-opacity="0"
         id="stop14" />
    </linearGradient>
  </defs>
  <sodipodi:namedview
     id="base"
     pagecolor="#e2e2e2"
     bordercolor="#666666"
     borderopacity="1.0"
     inkscape:pageopacity="0"
     inkscape:pageshadow="2"
     inkscape:zoom="9.7248729"
     inkscape:cx="32.596827"
     inkscape:cy="40.000523"
     inkscape:document-units="px"
     inkscape:current-layer="layer1"
     inkscape:document-rotation="0"
     showgrid="false"
     units="px"
     inkscape:window-width="1920"
     inkscape:window-height="998"
     inkscape:window-x="0"
     inkscape:window-y="0"
     inkscape:window-maximized="1"
     inkscape:object-paths="true"
     inkscape:snap-grids="true"
     inkscape:snap-intersection-paths="true"
     inkscape:snap-smooth-nodes="true"
     inkscape:snap-midpoints="true"
     inkscape:showpageshadow="2"
     inkscape:pagecheckerboard="0"
     inkscape:deskcolor="#d1d1d1">
    <inkscape:grid
       id="grid2"
       units="px"
       originx="0"
       originy="0"
       spacingx="0.26458333"
       spacingy="0.26458333"
       empcolor="#0099e5"
       empopacity="0.30196078"
       color="#0099e5"
       opacity="0.14902"
       empspacing="5"
       dotted="false"
       gridanglex="30"
       gridanglez="30"
       visible="false" />
  </sodipodi:namedview>
  <metadata
     id="metadata1111">
    <rdf:RDF>
      <cc:Work
         rdf:about="">
        <dc:format>image/svg+xml</dc:format>
        <dc:type
           rdf:resource="http://purl.org/dc/dcmitype/StillImage" />
      </cc:Work>
    </rdf:RDF>
  </metadata>
  <g
     inkscape:label="Layer 1"
     inkscape:groupmode="layer"
     id="layer1">
    <g
       id="g918"
       transform="translate(0.47625037,0.92604234)">
      <rect
         ry="4.8357682"
         rx="4.8357682"
         style="fill:url(#linearGradient926);fill-opacity:1;stroke-width:6.09228"
         x="0.13229237"
         y="-16.457085"
         width="15.875001"
         height="15.875001"
         id="use1056"
         transform="rotate(90)"
         class="ColorScheme-Highlight" />
      <path
         d="m 5.344583,0.13229167 c -2.6384245,0 -4.76249953,2.12407483 -4.76249953,4.76249963 H 5.344583 Z"
         style="opacity:0.15;fill:url(#radialGradient25);fill-opacity:1;stroke-width:6.09228"
         id="path20" />
      <rect
         y="0.13229151"
         x="5.3445826"
         height="1.5875"
         width="6.3500004"
         id="rect20"
         style="opacity:0.15;fill:url(#linearGradient25);fill-opacity:1;stroke-width:4.83577;stroke-linecap:round;stroke-linejoin:round;paint-order:stroke fill markers" />
      <path
         d="m 0.58208347,11.244792 c 0,2.638424 2.12407503,4.762499 4.76249953,4.762499 v -4.762499 z"
         style="opacity:0.15;fill:url(#radialGradient29);fill-opacity:1;stroke-width:6.09228"
         id="use20" />
      <rect
         y="0.5820834"
         x="-11.244792"
         height="1.5875"
         width="6.3500004"
         id="use21"
         style="opacity:0.15;fill:url(#linearGradient34);fill-opacity:1;stroke-width:4.83577;stroke-linecap:round;stroke-linejoin:round;paint-order:stroke fill markers"
         transform="rotate(-90)" />
      <path
         d="m 11.694583,16.007291 c 2.638425,0 4.7625,-2.124074 4.7625,-4.762499 h -4.7625 z"
         style="opacity:0.15;fill:url(#radialGradient30);fill-opacity:1;stroke-width:6.09228"
         id="use22" />
      <rect
         y="-16.007292"
         x="-11.694584"
         height="1.5875"
         width="6.3500004"
         id="use23"
         style="opacity:0.15;fill:url(#linearGradient35);fill-opacity:1;stroke-width:4.83577;stroke-linecap:round;stroke-linejoin:round;paint-order:stroke fill markers"
         transform="scale(-1)" />
      <path
         d="m 16.457083,4.8947913 c 0,-2.6384245 -2.124074,-4.76249963 -4.7625,-4.76249963 V 4.8947913 Z"
         style="opacity:0.15;fill:url(#radialGradient31);fill-opacity:1;stroke-width:6.09228"
         id="use24" />
      <rect
         y="-16.457081"
         x="4.8947906"
         height="1.5875"
         width="6.3500004"
         id="use25"
         style="opacity:0.15;fill:url(#linearGradient36);fill-opacity:1;stroke-width:4.83577;stroke-linecap:round;stroke-linejoin:round;paint-order:stroke fill markers"
         transform="rotate(90)" />
      <path
         d="m 5.3445832,0.13229107 c -2.638425,0 -4.76250035,2.12407473 -4.76250035,4.76249973 H 5.3445832 Z"
         style="opacity:0.5;fill:url(#radialGradient15);fill-opacity:1;stroke-width:6.09228"
         id="path14" />
      <rect
         y="0.1322909"
         x="5.3445826"
         height="1.5875"
         width="6.3499999"
         id="rect14"
         style="opacity:0.5;fill:url(#linearGradient15);fill-opacity:1;stroke-width:4.83577;stroke-linecap:round;stroke-linejoin:round;paint-order:stroke fill markers" />
      <path
         d="m 11.694583,0.13229096 c 2.638425,0 4.7625,2.12407504 4.7625,4.76249734 h -4.7625 z"
         style="opacity:0.5;fill:url(#radialGradient17);fill-opacity:1;stroke-width:6.09228"
         id="use14" />
      <path
         id="path17"
         style="opacity:0.5;fill:url(#radialGradient18);fill-opacity:1;stroke-width:6.09228"
         d="m 5.3445834,16.00729 c -2.638425,0 -4.7625,-2.124075 -4.7625,-4.7625 h 4.7625 z" />
      <rect
         style="opacity:0.5;fill:url(#linearGradient18);fill-opacity:1;stroke-width:4.83577;stroke-linecap:round;stroke-linejoin:round;paint-order:stroke fill markers"
         id="rect17"
         width="6.3499994"
         height="1.5874999"
         x="5.3445826"
         y="-16.007292"
         transform="scale(1,-1)" />
      <path
         id="use17"
         style="opacity:0.5;fill:url(#radialGradient20);fill-opacity:1;stroke-width:6.09228"
         d="m 11.694582,16.007291 c 2.638425,0 4.7625,-2.124075 4.7625,-4.7625 h -4.7625 z" />
    </g>
    <g
       id="g1"
       transform="matrix(1.0038699,0,0,1,-1.0017638,-0.99061635)">
      <path
         style="opacity:0.2;stroke-width:0.255132"
         d="m 10.768711,5.2147991 c -0.339206,-0.0071 -0.68008,0.09059 -0.9640662,0.2776 -0.2831976,0.186228 -0.5086475,0.459429 -0.6372305,0.773493 -0.1285824,0.31485 -0.1599719,0.667546 -0.088185,0.999757 0.071785,0.331424 0.2453363,0.640883 0.4922465,0.873669 -0.1254267,-0.206746 -0.190238,-0.451497 -0.1823505,-0.693751 0.00709,-0.242255 0.086651,-0.481151 0.2246999,-0.680793 0.1380486,-0.198853 0.3354735,-0.357011 0.5595068,-0.448546 0.224034,-0.09154 0.474728,-0.116542 0.712961,-0.07077 0.312516,0.05911 0.597834,0.243545 0.785203,0.500378 h 3.031702 l -2.419881,-0.520813 c -0.129373,-0.293546 -0.343986,-0.548598 -0.609829,-0.726145 -0.266631,-0.177549 -0.584503,-0.277767 -0.904777,-0.284079 z m -4.9478774,0.606034 c -0.3881147,0.400865 -0.610575,0.957193 -0.605842,1.515088 0.00459,0.548868 0.2314025,1.091241 0.614312,1.484189 l -0.2984372,-0.0917 c -0.1049166,0.400865 -0.072823,0.83542 0.089681,1.216557 0.1632918,0.3803469 0.4562109,0.7041359 0.8190824,0.9045669 0.2768869,0.153086 0.5924341,0.234242 0.9087632,0.234242 0.3163293,0 0.631378,-0.08115 0.9082652,-0.234242 C 8.0018598,10.872414 7.7426124,10.830517 7.5083236,10.727927 7.2740344,10.626132 7.065649,10.463448 6.9094563,10.261438 6.7295982,10.027865 6.6184509,9.7416221 6.5955743,9.4480751 l 2.872768,0.492404 -2.8837289,-0.887623 c -0.00204,-0.0021 -0.00446,-0.0038 -0.00648,-0.006 -0.2153566,-0.228052 -0.3492153,-0.53178 -0.3736693,-0.844264 -0.022877,-0.303016 0.05655,-0.6126 0.2222086,-0.86669 l 3.332132,1.818106 z m 5.5547164,1.98656 c -0.17206,0.203482 -0.284677,0.456365 -0.320858,0.720166 -0.03377,0.249324 -1.62e-4,0.504687 0.06577,0.747577 0.06593,0.242085 0.16409,0.475271 0.260572,0.707706 0.09648,0.2324339 0.192378,0.4655059 0.255091,0.7092009 0.06191,0.243694 0.09014,0.500359 0.04833,0.748075 -0.06995,0.415004 -0.334657,0.7842 -0.679579,1.024677 -0.344923,0.240478 -0.765583,0.359402 -1.1852792,0.386747 -0.5298463,0.03458 -1.0675256,-0.07335 -1.5435023,-0.308999 l 0.011963,2.47099 0.6177997,-1.229016 c 0.8160761,0.238869 1.7285048,0.121241 2.4577468,-0.315478 0.368239,-0.220369 0.691611,-0.51999 0.916735,-0.88513 0.225928,-0.365139 0.350425,-0.79566 0.330324,-1.223533 -0.02894,-0.610443 -0.340244,-1.166757 -0.637728,-1.6999889 -0.298291,-0.533232 -0.598336,-1.09871 -0.602356,-1.709956 0,-0.04745 0.0018,-0.09559 0.005,-0.143038 z"
         id="path2-3" />
      <path
         style="fill:#ffffff;stroke-width:0.255132"
         d="m 10.768711,4.9597261 c -0.339206,-0.0071 -0.68008,0.09059 -0.9640662,0.2776 -0.2831976,0.186227 -0.5086475,0.459429 -0.6372305,0.773493 -0.1285824,0.31485 -0.1599719,0.667546 -0.088185,0.999757 0.071785,0.331424 0.2453363,0.640883 0.4922465,0.873669 -0.1254267,-0.206746 -0.190238,-0.451497 -0.1823505,-0.693751 0.00709,-0.242255 0.086651,-0.48115 0.2246999,-0.680793 0.1380486,-0.198853 0.3354735,-0.35701 0.5595068,-0.448546 0.224034,-0.09153 0.474728,-0.116542 0.712961,-0.07077 0.312516,0.05911 0.597834,0.243546 0.785203,0.500379 h 3.031702 l -2.419881,-0.520813 c -0.129373,-0.293546 -0.343986,-0.548598 -0.609829,-0.726145 -0.266631,-0.177549 -0.584503,-0.277767 -0.904777,-0.28408 z m -4.9478774,0.606035 c -0.3881147,0.400863 -0.610575,0.957193 -0.605842,1.515089 0.00459,0.548838 0.2314254,1.091234 0.614312,1.484188 l -0.2984372,-0.0917 c -0.1049166,0.400864 -0.072823,0.835419 0.089681,1.216556 0.1632918,0.3803469 0.4562109,0.7041359 0.8190824,0.9045679 0.2768869,0.153085 0.5924341,0.234241 0.9087632,0.234241 0.3163293,0 0.631378,-0.08115 0.9082652,-0.234241 C 8.0018594,10.617342 7.742612,10.575442 7.5083232,10.472854 7.2740344,10.371059 7.065649,10.208375 6.9094563,10.006365 6.7295982,9.7727911 6.6184509,9.4865491 6.5955743,9.1930031 l 2.872768,0.492403 -2.8842272,-0.888121 c -0.00187,-0.002 -0.00412,-0.0035 -0.00598,-0.0055 C 6.36278,8.5637481 6.2289214,8.2600201 6.2044673,7.9475361 c -0.022876,-0.303016 0.05655,-0.612599 0.2222086,-0.86669 l 3.332132,1.818106 z m 5.5547164,1.98656 c -0.17206,0.20348 -0.284677,0.456364 -0.320858,0.720164 -0.03377,0.249326 -1.62e-4,0.504687 0.06577,0.747578 0.06593,0.242085 0.16409,0.475271 0.260572,0.707706 0.09648,0.232433 0.192378,0.4655059 0.255091,0.7092009 0.06191,0.243694 0.09014,0.500358 0.04833,0.748074 -0.06995,0.415005 -0.334657,0.784201 -0.679579,1.024678 -0.344923,0.240478 -0.765583,0.359402 -1.1852792,0.386747 -0.5298463,0.03458 -1.0675256,-0.07335 -1.5435023,-0.308999 l 0.01195,2.47099 0.6177996,-1.229016 c 0.8160765,0.238869 1.7285049,0.121241 2.4577469,-0.315478 0.368239,-0.220369 0.69161,-0.51999 0.916735,-0.88513 0.225927,-0.365139 0.350423,-0.79566 0.330323,-1.223533 -0.02894,-0.610443 -0.340243,-1.1667569 -0.637729,-1.6999889 -0.298289,-0.533233 -0.598334,-1.09871 -0.602354,-1.709956 0,-0.04746 0.0018,-0.09559 0.005,-0.143037 z"
         id="path3" />
    </g>
  </g>
</svg>
