<?xml version="1.0" encoding="UTF-8" standalone="no"?>
<svg
   width="68"
   height="68"
   viewBox="0 0 17.991665 17.991665"
   version="1.1"
   id="svg1114"
   inkscape:version="1.3.2 (091e20ef0f, 2023-11-25)"
   sodipodi:docname="dragonplayer.svg"
   xmlns:inkscape="http://www.inkscape.org/namespaces/inkscape"
   xmlns:sodipodi="http://sodipodi.sourceforge.net/DTD/sodipodi-0.dtd"
   xmlns:xlink="http://www.w3.org/1999/xlink"
   xmlns="http://www.w3.org/2000/svg"
   xmlns:svg="http://www.w3.org/2000/svg"
   xmlns:rdf="http://www.w3.org/1999/02/22-rdf-syntax-ns#"
   xmlns:cc="http://creativecommons.org/ns#"
   xmlns:dc="http://purl.org/dc/elements/1.1/">
  <style
     type="text/css"
     id="current-color-scheme">.ColorScheme-Highlight { color:#5599ff; }
</style>
  <defs
     id="defs1108">
    <linearGradient
       id="linearGradient12"
       inkscape:collect="always">
      <stop
         style="stop-color:#ffffff;stop-opacity:0;"
         offset="0"
         id="stop10" />
      <stop
         id="stop11"
         offset="0.65909404"
         style="stop-color:#ffffff;stop-opacity:0" />
      <stop
         style="stop-color:#ffffff;stop-opacity:1;"
         offset="1"
         id="stop12" />
    </linearGradient>
    <linearGradient
       id="linearGradient9"
       inkscape:collect="always">
      <stop
         style="stop-color:#000000;stop-opacity:0;"
         offset="0"
         id="stop1" />
      <stop
         id="stop8"
         offset="0.66102529"
         style="stop-color:#000000;stop-opacity:0" />
      <stop
         style="stop-color:#000000;stop-opacity:1;"
         offset="1"
         id="stop9" />
    </linearGradient>
    <linearGradient
       id="linearGradient7"
       inkscape:collect="always">
      <stop
         style="stop-color:#000000;stop-opacity:0;"
         offset="0"
         id="stop5" />
      <stop
         id="stop6"
         offset="0.6586886"
         style="stop-color:#000000;stop-opacity:0" />
      <stop
         style="stop-color:#000000;stop-opacity:1;"
         offset="1"
         id="stop7" />
    </linearGradient>
    <linearGradient
       id="linearGradient4"
       inkscape:collect="always">
      <stop
         style="stop-color:#000000;stop-opacity:0;"
         offset="0"
         id="stop2" />
      <stop
         id="stop3"
         offset="0.67055255"
         style="stop-color:#000000;stop-opacity:0" />
      <stop
         style="stop-color:#000000;stop-opacity:1;"
         offset="1"
         id="stop4" />
    </linearGradient>
    <linearGradient
       inkscape:collect="always"
       id="linearGradient899">
      <stop
         style="stop-color:#2ad4ff;stop-opacity:1;"
         offset="0"
         id="stop895" />
      <stop
         style="stop-color:#d35fbc;stop-opacity:1"
         offset="1"
         id="stop897" />
    </linearGradient>
    <linearGradient
       id="linearGradient1167"
       x1="40.751999"
       x2="40.751999"
       y1="28.507999"
       y2="17.205999"
       gradientUnits="userSpaceOnUse">
      <stop
         style="stop-color:#84fb6e;stop-opacity:1"
         stop-color="#0ab816"
         offset="0"
         id="stop1163" />
      <stop
         style="stop-color:#0dd41a;stop-opacity:1"
         stop-color="#0cf36c"
         offset="1"
         id="stop1165" />
    </linearGradient>
    <linearGradient
       id="cornerBevel"
       inkscape:collect="always">
      <stop
         style="stop-color:#000000;stop-opacity:0;"
         offset="0"
         id="stop2663" />
      <stop
         id="stop2671"
         offset="0.66666675"
         style="stop-color:#000000;stop-opacity:0" />
      <stop
         style="stop-color:#000000;stop-opacity:1;"
         offset="1"
         id="stop2661" />
    </linearGradient>
    <linearGradient
       id="bevel"
       inkscape:collect="always">
      <stop
         id="stop2685"
         offset="0"
         style="stop-color:#000000;stop-opacity:1;" />
      <stop
         id="stop2687"
         offset="1"
         style="stop-color:#000000;stop-opacity:0;" />
    </linearGradient>
    <linearGradient
       id="highlightCorner"
       inkscape:collect="always">
      <stop
         style="stop-color:#ffffff;stop-opacity:0;"
         offset="0"
         id="stop2613" />
      <stop
         id="stop2621"
         offset="0.66666669"
         style="stop-color:#ffffff;stop-opacity:0" />
      <stop
         style="stop-color:#ffffff;stop-opacity:1;"
         offset="1"
         id="stop2611" />
    </linearGradient>
    <linearGradient
       inkscape:collect="always"
       id="highlight">
      <stop
         style="stop-color:#ffffff;stop-opacity:1;"
         offset="0"
         id="stop2921" />
      <stop
         style="stop-color:#ffffff;stop-opacity:0;"
         offset="1"
         id="stop2923" />
    </linearGradient>
    <radialGradient
       inkscape:collect="always"
       xlink:href="#highlightCorner"
       id="radialGradient15"
       gradientUnits="userSpaceOnUse"
       gradientTransform="matrix(0.04294597,-12.079348,17.933991,0.06376112,14.524179,-50.373789)"
       cx="-4.5799766"
       cy="-0.50206107"
       fx="-4.5799766"
       fy="-0.50206107"
       r="0.39687499" />
    <linearGradient
       inkscape:collect="always"
       xlink:href="#highlight"
       id="linearGradient15"
       gradientUnits="userSpaceOnUse"
       x1="-3.8453064"
       y1="-1.1532172"
       x2="-3.8453064"
       y2="-0.8954913"
       gradientTransform="matrix(6.0923077,0,0,6.0923077,32.228528,7.1537621)" />
    <radialGradient
       inkscape:collect="always"
       xlink:href="#linearGradient12"
       id="radialGradient17"
       gradientUnits="userSpaceOnUse"
       gradientTransform="matrix(-0.02247554,-12.045403,-17.967828,0.03352619,1.6640208,-50.22331)"
       cx="-4.575222"
       cy="-0.55256462"
       fx="-4.575222"
       fy="-0.55256462"
       r="0.39687499" />
    <radialGradient
       inkscape:collect="always"
       xlink:href="#linearGradient7"
       id="radialGradient18"
       gradientUnits="userSpaceOnUse"
       gradientTransform="matrix(0.06461187,12.09952,17.933731,-0.09576873,14.609502,64.748231)"
       cx="-4.4284906"
       cy="-0.50121039"
       fx="-4.4284906"
       fy="-0.50121039"
       r="0.39687499" />
    <linearGradient
       inkscape:collect="always"
       xlink:href="#bevel"
       id="linearGradient18"
       gradientUnits="userSpaceOnUse"
       x1="-3.8415797"
       y1="-1.4506671"
       x2="-3.8406549"
       y2="-1.1968651"
       gradientTransform="matrix(6.0923076,0,0,6.0923076,32.228527,-7.1537627)" />
    <radialGradient
       inkscape:collect="always"
       xlink:href="#linearGradient4"
       id="radialGradient20"
       gradientUnits="userSpaceOnUse"
       gradientTransform="matrix(-0.01031383,11.991438,-17.967296,-0.01545561,1.7353715,64.305742)"
       cx="-4.4236727"
       cy="-0.55004197"
       fx="-4.4236727"
       fy="-0.55004197"
       r="0.39687499" />
    <radialGradient
       inkscape:collect="always"
       xlink:href="#cornerBevel"
       id="radialGradient25"
       gradientUnits="userSpaceOnUse"
       gradientTransform="matrix(12.184614,0,0,12.184614,59.63122,10.377613)"
       cx="-4.4568658"
       cy="-0.44864327"
       fx="-4.4568658"
       fy="-0.44864327"
       r="0.39687496" />
    <linearGradient
       inkscape:collect="always"
       xlink:href="#bevel"
       id="linearGradient25"
       gradientUnits="userSpaceOnUse"
       x1="-3.8487544"
       y1="-1.146081"
       x2="-3.8455966"
       y2="-0.890971"
       gradientTransform="matrix(6.0923077,0,0,6.0923077,32.228528,7.1537627)" />
    <radialGradient
       inkscape:collect="always"
       xlink:href="#cornerBevel"
       id="radialGradient29"
       gradientUnits="userSpaceOnUse"
       gradientTransform="matrix(0,-12.184614,12.184614,0,11.27353,-44.427768)"
       cx="-4.5705457"
       cy="-0.48653662"
       fx="-4.5705457"
       fy="-0.48653662"
       r="0.39687496" />
    <radialGradient
       inkscape:collect="always"
       xlink:href="#cornerBevel"
       id="radialGradient30"
       gradientUnits="userSpaceOnUse"
       gradientTransform="matrix(-12.184514,-0.04945749,0.04847411,-11.942243,-43.502155,3.8519053)"
       cx="-4.5342312"
       cy="-0.60337442"
       fx="-4.5342312"
       fy="-0.60337442"
       r="0.39687496" />
    <radialGradient
       inkscape:collect="always"
       xlink:href="#linearGradient9"
       id="radialGradient31"
       gradientUnits="userSpaceOnUse"
       gradientTransform="matrix(0,-12.151612,11.978956,0,18.475664,-48.770776)"
       cx="-4.4175329"
       cy="-0.56489283"
       fx="-4.4175329"
       fy="-0.56489283"
       r="0.39687496" />
    <linearGradient
       inkscape:collect="always"
       xlink:href="#bevel"
       id="linearGradient34"
       gradientUnits="userSpaceOnUse"
       x1="-3.99717"
       y1="-1.2218677"
       x2="-4.0003276"
       y2="-0.96675771"
       gradientTransform="matrix(6.0923077,0,0,6.0923077,17.025077,8.0496826)" />
    <linearGradient
       inkscape:collect="always"
       xlink:href="#bevel"
       id="linearGradient35"
       gradientUnits="userSpaceOnUse"
       x1="-4.0919032"
       y1="-1.4492278"
       x2="-4.0950613"
       y2="-1.1972755"
       gradientTransform="matrix(6.0923077,0,0,6.0923077,16.129161,-7.1537627)" />
    <linearGradient
       inkscape:collect="always"
       xlink:href="#bevel"
       id="linearGradient36"
       gradientUnits="userSpaceOnUse"
       x1="-3.8734362"
       y1="-1.3717227"
       x2="-3.8765941"
       y2="-1.116071"
       gradientTransform="matrix(6.0923077,0,0,6.0923077,31.33261,-8.0496826)" />
    <linearGradient
       id="paint2_linear_77:3-7"
       x1="79.398094"
       y1="-197.84389"
       x2="82.901054"
       y2="-199.97827"
       gradientUnits="userSpaceOnUse"
       gradientTransform="matrix(1.9248511,0,0,1.7314595,-40.88733,399.61741)">
      <stop
         stop-color="#EBFAFF"
         stop-opacity="0.1"
         id="stop29-5-7"
         offset="0"
         style="stop-color:#c3c3c3;stop-opacity:1;" />
      <stop
         offset="1"
         stop-color="#70A9FF"
         stop-opacity="0.5"
         id="stop30-0-1"
         style="stop-color:#05c7ff;stop-opacity:0.80000001;" />
    </linearGradient>
    <linearGradient
       inkscape:collect="always"
       xlink:href="#linearGradient899"
       id="linearGradient926"
       x1="1.0433626"
       y1="-9.3133945"
       x2="16.919081"
       y2="-9.2251434"
       gradientUnits="userSpaceOnUse"
       gradientTransform="translate(-0.92604234,0.47624996)" />
    <filter
       id="j-8-3-3"
       x="-0.041250001"
       y="-0.11"
       width="1.0825"
       height="1.22"
       color-interpolation-filters="sRGB">
      <feGaussianBlur
         stdDeviation="0.275"
         id="feGaussianBlur1714-7-6-6" />
    </filter>
    <filter
       id="i-92-7-7"
       x="-0.06"
       y="-0.06"
       width="1.12"
       height="1.12"
       color-interpolation-filters="sRGB">
      <feGaussianBlur
         stdDeviation="0.125"
         id="feGaussianBlur1717-0-5-5" />
    </filter>
    <filter
       id="h-23-3-3"
       x="-0.06"
       y="-0.06"
       width="1.12"
       height="1.12"
       color-interpolation-filters="sRGB">
      <feGaussianBlur
         stdDeviation="0.125"
         id="feGaussianBlur1720-75-5-5" />
    </filter>
  </defs>
  <sodipodi:namedview
     id="base"
     pagecolor="#e2e2e2"
     bordercolor="#666666"
     borderopacity="1.0"
     inkscape:pageopacity="0"
     inkscape:pageshadow="2"
     inkscape:zoom="9.7248729"
     inkscape:cx="32.596827"
     inkscape:cy="31.774194"
     inkscape:document-units="px"
     inkscape:current-layer="layer1"
     inkscape:document-rotation="0"
     showgrid="true"
     units="px"
     inkscape:window-width="1920"
     inkscape:window-height="990"
     inkscape:window-x="0"
     inkscape:window-y="0"
     inkscape:window-maximized="1"
     inkscape:object-paths="true"
     inkscape:snap-grids="true"
     inkscape:snap-intersection-paths="true"
     inkscape:snap-smooth-nodes="true"
     inkscape:snap-midpoints="true"
     inkscape:showpageshadow="2"
     inkscape:pagecheckerboard="0"
     inkscape:deskcolor="#d1d1d1">
    <inkscape:grid
       id="grid2"
       units="px"
       originx="0"
       originy="0"
       spacingx="0.26458333"
       spacingy="0.26458333"
       empcolor="#0099e5"
       empopacity="0.30196078"
       color="#0099e5"
       opacity="0.14902"
       empspacing="5"
       dotted="false"
       gridanglex="30"
       gridanglez="30"
       visible="true" />
  </sodipodi:namedview>
  <metadata
     id="metadata1111">
    <rdf:RDF>
      <cc:Work
         rdf:about="">
        <dc:format>image/svg+xml</dc:format>
        <dc:type
           rdf:resource="http://purl.org/dc/dcmitype/StillImage" />
      </cc:Work>
    </rdf:RDF>
  </metadata>
  <g
     inkscape:label="Layer 1"
     inkscape:groupmode="layer"
     id="layer1">
    <g
       id="g918"
       transform="translate(0.47625037,0.92604234)">
      <rect
         ry="4.8357682"
         rx="4.8357682"
         style="fill:url(#linearGradient926);fill-opacity:1;stroke-width:6.09228"
         x="0.13229237"
         y="-16.457085"
         width="15.875001"
         height="15.875001"
         id="use1056"
         transform="rotate(90)"
         class="ColorScheme-Highlight" />
      <path
         d="m 5.344583,0.13229167 c -2.6384245,0 -4.76249953,2.12407483 -4.76249953,4.76249963 H 5.344583 Z"
         style="opacity:0.15;fill:url(#radialGradient25);fill-opacity:1;stroke-width:6.09228"
         id="path20" />
      <rect
         y="0.13229151"
         x="5.3445826"
         height="1.5875"
         width="6.3500004"
         id="rect20"
         style="opacity:0.15;fill:url(#linearGradient25);fill-opacity:1;stroke-width:4.83577;stroke-linecap:round;stroke-linejoin:round;paint-order:stroke fill markers" />
      <path
         d="m 0.58208347,11.244792 c 0,2.638424 2.12407503,4.762499 4.76249953,4.762499 v -4.762499 z"
         style="opacity:0.15;fill:url(#radialGradient29);fill-opacity:1;stroke-width:6.09228"
         id="use20" />
      <rect
         y="0.5820834"
         x="-11.244792"
         height="1.5875"
         width="6.3500004"
         id="use21"
         style="opacity:0.15;fill:url(#linearGradient34);fill-opacity:1;stroke-width:4.83577;stroke-linecap:round;stroke-linejoin:round;paint-order:stroke fill markers"
         transform="rotate(-90)" />
      <path
         d="m 11.694583,16.007291 c 2.638425,0 4.7625,-2.124074 4.7625,-4.762499 h -4.7625 z"
         style="opacity:0.15;fill:url(#radialGradient30);fill-opacity:1;stroke-width:6.09228"
         id="use22" />
      <rect
         y="-16.007292"
         x="-11.694584"
         height="1.5875"
         width="6.3500004"
         id="use23"
         style="opacity:0.15;fill:url(#linearGradient35);fill-opacity:1;stroke-width:4.83577;stroke-linecap:round;stroke-linejoin:round;paint-order:stroke fill markers"
         transform="scale(-1)" />
      <path
         d="m 16.457083,4.8947913 c 0,-2.6384245 -2.124074,-4.76249963 -4.7625,-4.76249963 V 4.8947913 Z"
         style="opacity:0.15;fill:url(#radialGradient31);fill-opacity:1;stroke-width:6.09228"
         id="use24" />
      <rect
         y="-16.457081"
         x="4.8947906"
         height="1.5875"
         width="6.3500004"
         id="use25"
         style="opacity:0.15;fill:url(#linearGradient36);fill-opacity:1;stroke-width:4.83577;stroke-linecap:round;stroke-linejoin:round;paint-order:stroke fill markers"
         transform="rotate(90)" />
      <path
         d="m 5.3445832,0.13229107 c -2.638425,0 -4.76250035,2.12407473 -4.76250035,4.76249973 H 5.3445832 Z"
         style="opacity:0.5;fill:url(#radialGradient15);fill-opacity:1;stroke-width:6.09228"
         id="path14" />
      <rect
         y="0.1322909"
         x="5.3445826"
         height="1.5875"
         width="6.3499999"
         id="rect14"
         style="opacity:0.5;fill:url(#linearGradient15);fill-opacity:1;stroke-width:4.83577;stroke-linecap:round;stroke-linejoin:round;paint-order:stroke fill markers" />
      <path
         d="m 11.694583,0.13229096 c 2.638425,0 4.7625,2.12407504 4.7625,4.76249734 h -4.7625 z"
         style="opacity:0.5;fill:url(#radialGradient17);fill-opacity:1;stroke-width:6.09228"
         id="use14" />
      <path
         id="path17"
         style="opacity:0.5;fill:url(#radialGradient18);fill-opacity:1;stroke-width:6.09228"
         d="m 5.3445834,16.00729 c -2.638425,0 -4.7625,-2.124075 -4.7625,-4.7625 h 4.7625 z" />
      <rect
         style="opacity:0.5;fill:url(#linearGradient18);fill-opacity:1;stroke-width:4.83577;stroke-linecap:round;stroke-linejoin:round;paint-order:stroke fill markers"
         id="rect17"
         width="6.3499994"
         height="1.5874999"
         x="5.3445826"
         y="-16.007292"
         transform="scale(1,-1)" />
      <path
         id="use17"
         style="opacity:0.5;fill:url(#radialGradient20);fill-opacity:1;stroke-width:6.09228"
         d="m 11.694582,16.007291 c 2.638425,0 4.7625,-2.124075 4.7625,-4.7625 h -4.7625 z" />
    </g>
    <path
       fill-rule="evenodd"
       clip-rule="evenodd"
       d="M 8.8410451,2.8137751 C 8.7308462,2.737522 8.6210022,2.661514 8.4818927,2.6458331 c 0.06169,0.1450652 0.1147615,0.2929865 0.1664067,0.4409109 -0.081531,0.00429 -0.1643082,0.0013 -0.24721,-0.0017 C 8.2236438,3.078554 8.0456167,3.072185 7.8779195,3.137457 7.8676475,3.143047 7.8564945,3.148648 7.8449705,3.154459 7.7632595,3.1957 7.6628119,3.246446 7.7193964,3.3504103 c 0.041237,0.011631 0.087905,0.020296 0.1359889,0.029221 0.1852891,0.034383 0.3917958,0.072709 0.3912266,0.3002095 -0.02412,0.0017 -0.048321,0.00299 -0.072562,0.00439 -0.1554207,0.00899 -0.3123704,0.01796 -0.4532225,0.092755 0.018379,0.022483 0.043872,0.045834 0.070498,0.070223 0.087684,0.080326 0.1875058,0.1717896 0.085158,0.2792274 -0.019571,0.026086 -0.039343,0.052183 -0.059194,0.078349 l -3.116e-4,4.093e-4 -6.52e-5,8.48e-5 C 7.6239243,4.45997 7.4259497,4.7212065 7.3628986,5.0411422 7.2258875,5.6128221 7.4920131,6.1795044 7.8054697,6.6432972 7.9971823,6.9252691 8.2073907,7.1944704 8.4176101,7.4636546 8.742223,7.8793396 9.0668381,8.2950156 9.3232803,8.757809 9.3964433,8.9235947 9.4610008,9.0943869 9.4975834,9.2723263 9.356989,9.2253043 9.2754852,9.1053137 9.195672,8.9878496 9.1736859,8.9555335 9.1518101,8.9232975 9.1288921,8.8929075 8.9122713,8.5756275 8.6662339,8.2783591 8.4029814,7.9975193 8.3588186,8.0430833 8.3103679,8.0889463 8.2607615,8.1359524 8.0212337,8.3630329 7.7551513,8.6153074 7.8169538,8.9622359 c 0.2517734,0.095042 0.4848877,0.2372456 0.6814315,0.4209074 0.4820258,0.4358993 0.8241776,1.0647517 0.8184435,1.7221737 0.00431,0.309431 -0.2058743,0.638862 -0.536545,0.662456 -0.2668139,0.03908 -0.5043615,-0.05893 -0.7425234,-0.157081 -0.1581644,-0.06523 -0.3165983,-0.130558 -0.4840592,-0.155927 0.1054439,0.376607 0.4748498,0.602403 0.809114,0.758924 0.3163297,0.07501 0.6599126,0.07642 0.9575961,-0.06649 0.553758,-0.252972 0.9037967,-0.806071 1.0702107,-1.372036 0.175521,-0.54889 0.131331,-1.124926 0.08794,-1.6904193 -0.004,-0.049278 -0.0075,-0.098456 -0.0112,-0.147532 0.140594,0.1414801 0.203708,0.332289 0.251052,0.5216503 0.275439,0.964723 0.08823,2.048052 -0.504976,2.859838 -0.09175,0.111068 -0.189873,0.218548 -0.2882154,0.326168 -0.2732163,0.299028 -0.5479708,0.599798 -0.6908993,0.984399 -0.2496199,0.622445 0.080338,1.37633 0.6326593,1.71656 C 9.8328996,15.193532 9.7654857,15.05408 9.6979161,14.914507 9.6403051,14.795529 9.5826206,14.67633 9.545628,14.548991 9.499732,14.338253 9.492547,14.109502 9.592256,13.913025 c 0.138431,-0.300124 0.416026,-0.496615 0.678556,-0.680986 0.687178,-0.478797 1.118279,-1.252725 1.321269,-2.050224 0.01525,-0.05268 0.0276,-0.106977 0.0401,-0.16129 0.03438,-0.15028 0.069,-0.301565 0.164332,-0.425425 0.120654,0.0037 0.150842,0.10892 0.178967,0.208312 0.0079,0.0282 0.01578,0.0559 0.02544,0.08039 0.02336,0.116834 0.03398,0.235603 0.04448,0.354367 0.01422,0.161568 0.02862,0.32307 0.07532,0.479574 0.05883,-0.620287 -0.0093,-1.248434 -0.168568,-1.8486828 -0.0036,-0.014905 -0.0076,-0.02987 -0.0115,-0.044875 -0.0448,-0.1738661 -0.09181,-0.3561612 -0.02511,-0.5310946 0.0036,-0.014126 0.0091,-0.03601 0.01473,-0.057484 0.0056,-0.021584 0.01113,-0.043268 0.01473,-0.057454 C 11.896476,9.0463268 11.81376,8.9259455 11.731201,8.8058158 11.588106,8.5975719 11.445508,8.3901148 11.482376,8.1254679 11.281539,7.9603931 11.092175,7.7760266 10.998202,7.5280669 c -0.132569,-0.084829 -0.275163,-0.1512808 -0.41762,-0.217771 -0.07718,-0.036 -0.154513,-0.07202 -0.230119,-0.110957 C 9.8734636,6.9656574 9.3857019,6.6748183 9.1038023,6.2110465 8.9624874,5.9959491 9.0679272,5.723688 9.284563,5.6100634 c 0.0334,0.0357 0.065878,0.072858 0.098446,0.1101024 0.1115236,0.1275654 0.2240564,0.2562978 0.3778316,0.3315324 0.1446078,0.069704 0.3021274,0.091817 0.4596454,0.1138431 0.08931,0.012469 0.178606,0.025018 0.265543,0.046213 0.178326,0.039823 0.310807,0.1648282 0.442151,0.2887795 0.16347,0.1543018 0.325216,0.3069653 0.571394,0.2914981 0.01673,-0.1210273 -0.06663,-0.1914798 -0.149267,-0.2612575 -0.03107,-0.026266 -0.06197,-0.052323 -0.08744,-0.081035 0.0097,-0.1066113 0.07086,-0.1979929 0.131979,-0.2893757 C 11.46486,6.0557702 11.534799,5.9511545 11.52755,5.823753 11.296721,5.4721982 10.879329,5.3209394 10.498074,5.1827598 l -0.02567,-0.00928 c -0.109745,-0.04506 -0.217341,-0.095066 -0.324228,-0.1450967 0.195822,-0.119337 0.438988,-0.1786392 0.656328,-0.078599 0.462658,0.2022359 0.97051,0.2772658 1.472623,0.2894186 0.03514,-0.1929454 0.06957,-0.3866025 0.08177,-0.5824091 C 12.352385,4.5338905 12.300787,4.4109754 12.194619,4.3416649 12.065059,4.2527332 11.912852,4.2206088 11.760717,4.1884943 11.598605,4.1542613 11.436641,4.1200584 11.302288,4.0172089 11.08925,3.8666908 10.959569,3.6471328 10.829727,3.4273482 10.740139,3.2756731 10.650479,3.1238711 10.533339,2.9946057 10.418363,2.8741445 10.268807,2.9075108 10.121618,2.9403561 10.055701,2.9550511 9.9902764,2.9696471 9.9286572,2.9703061 9.7946697,2.9214381 9.6786075,2.8397408 9.5626205,2.7581488 9.520863,2.7287778 9.4791256,2.6994168 9.4365946,2.6716028 9.4209417,2.6942148 9.4055295,2.7198718 9.3896161,2.7463578 9.3180361,2.8655172 9.2363901,3.0014196 9.0779451,2.9517254 8.992416,2.9185804 8.9166403,2.8661384 8.8410219,2.8138184 Z M 9.8820579,3.4876407 C 9.6690206,3.6877321 9.9451801,4.0486015 10.192651,3.8842455 10.488893,3.7055913 10.137415,3.2503952 9.8820579,3.4876407 Z M 12.113008,5.5709646 C 11.90154,5.5389375 11.6903,5.5069215 11.476609,5.5136005 c 0.119725,0.1677114 0.291587,0.2736379 0.46403,0.3798877 0.114835,0.070792 0.229962,0.1416838 0.330024,0.2310977 0.14856,0.1171827 0.242445,0.2809337 0.33513,0.4425412 0.01919,0.033394 0.03831,0.066829 0.05795,0.099842 0.03841,-0.00579 0.07719,-0.013428 0.116065,-0.021464 0.115555,-0.023511 0.232478,-0.047331 0.347314,-0.011561 0.115029,0.035671 0.192494,0.1267716 0.268243,0.2159999 0.023,0.027035 0.04582,0.05401 0.06961,0.079168 0.177211,0.1915187 0.376578,0.3980374 0.647723,0.4409189 0.179578,0.029141 0.352054,-0.038067 0.517097,-0.102512 l 3.26e-4,-1.119e-4 c 0.01813,-0.00729 0.0362,-0.014037 0.05425,-0.021065 C 14.611831,7.109313 14.475838,7.0692907 14.338336,7.0288152 14.239236,6.9996142 14.139274,6.9701932 14.061814,6.9040661 13.998414,6.8149651 13.974864,6.7076646 13.951406,6.6003375 13.923226,6.4718198 13.895036,6.343284 13.798516,6.2459164 13.701046,6.1185377 13.554607,6.0842459 13.407414,6.0497574 13.283789,6.0207454 13.159539,5.9916744 13.063281,5.90721 l -0.0077,-0.00639 C 12.894308,5.7727612 12.723449,5.6368508 12.508115,5.6213746 12.375913,5.6106824 12.244436,5.5907656 12.113028,5.5708987 Z M 6.2948422,6.724805 C 5.4699444,6.5547155 4.6120569,6.766935 3.8811326,7.1571322 c -0.041714,0.024359 -0.085388,0.047122 -0.1294156,0.070223 -0.171721,0.09012 -0.3485977,0.1829431 -0.4336691,0.3649696 0.1902484,0.034552 0.3862409,0.028862 0.5819992,0.023151 0.2987267,-0.00829 0.5969372,-0.017271 0.8734021,0.116941 0.016313,0.00928 0.035823,0.01791 0.056006,0.026945 0.079224,0.035361 0.1688815,0.075284 0.1168701,0.1738132 C 4.7709132,8.054689 4.5849573,8.1613231 4.3989681,8.2679983 4.0906011,8.4448505 3.7821797,8.6217277 3.5217651,8.8664467 3.4199076,8.9564765 3.346025,9.0729664 3.3072914,9.2030356 l 0.059535,-0.040792 c 0.2567891,-0.1950779 0.53008,-0.380879 0.8514342,-0.4509084 0.087498,-0.020436 0.1750242,-0.04176 0.2626498,-0.063135 0.4058702,-0.098915 0.8139349,-0.1983653 1.2321994,-0.2112947 -0.022229,0.07788 -0.0459,0.1557853 -0.070294,0.2336824 -0.024919,0.071251 -0.054319,0.1417048 -0.083784,0.2122851 -0.081624,0.19552 -0.1636096,0.3919296 -0.1514943,0.608805 L 5.4685115,9.468137 C 5.6297425,9.4173722 5.7734893,9.3314894 5.9173332,9.2455567 6.0224206,9.1827214 6.1275637,9.1199989 6.2396124,9.0708319 6.7273742,8.8393309 7.3033618,8.7821542 7.8169558,8.9622429 7.7551563,8.6153184 8.0212347,8.3630438 8.2607635,8.1359654 8.3103674,8.0889334 8.3588288,8.0430104 8.4029814,7.9975273 7.8312958,7.3993874 7.1211702,6.8884352 6.2948392,6.7248 Z"
       id="path2"
       style="fill:#f9f9f9;stroke-width:0.999994" />
  </g>
</svg>
