<?xml version="1.0" encoding="UTF-8" standalone="no"?>
<svg
   width="68"
   height="68"
   viewBox="0 0 17.991665 17.991665"
   version="1.1"
   id="svg1114"
   inkscape:version="1.3.2 (091e20ef0f, 2023-11-25)"
   sodipodi:docname="jdownloader-beta.svg"
   xmlns:inkscape="http://www.inkscape.org/namespaces/inkscape"
   xmlns:sodipodi="http://sodipodi.sourceforge.net/DTD/sodipodi-0.dtd"
   xmlns:xlink="http://www.w3.org/1999/xlink"
   xmlns="http://www.w3.org/2000/svg"
   xmlns:svg="http://www.w3.org/2000/svg"
   xmlns:rdf="http://www.w3.org/1999/02/22-rdf-syntax-ns#"
   xmlns:cc="http://creativecommons.org/ns#"
   xmlns:dc="http://purl.org/dc/elements/1.1/">
  <style
     type="text/css"
     id="current-color-scheme">.ColorScheme-Highlight { color:#5599ff; }
</style>
  <defs
     id="defs1108">
    <linearGradient
       id="linearGradient12"
       inkscape:collect="always">
      <stop
         style="stop-color:#ffffff;stop-opacity:0;"
         offset="0"
         id="stop10" />
      <stop
         id="stop11"
         offset="0.65909404"
         style="stop-color:#ffffff;stop-opacity:0" />
      <stop
         style="stop-color:#ffffff;stop-opacity:1;"
         offset="1"
         id="stop12" />
    </linearGradient>
    <linearGradient
       id="linearGradient9"
       inkscape:collect="always">
      <stop
         style="stop-color:#000000;stop-opacity:0;"
         offset="0"
         id="stop1" />
      <stop
         id="stop8"
         offset="0.66102529"
         style="stop-color:#000000;stop-opacity:0" />
      <stop
         style="stop-color:#000000;stop-opacity:1;"
         offset="1"
         id="stop9" />
    </linearGradient>
    <linearGradient
       id="linearGradient7"
       inkscape:collect="always">
      <stop
         style="stop-color:#000000;stop-opacity:0;"
         offset="0"
         id="stop5" />
      <stop
         id="stop6"
         offset="0.6586886"
         style="stop-color:#000000;stop-opacity:0" />
      <stop
         style="stop-color:#000000;stop-opacity:1;"
         offset="1"
         id="stop7" />
    </linearGradient>
    <linearGradient
       id="linearGradient4"
       inkscape:collect="always">
      <stop
         style="stop-color:#000000;stop-opacity:0;"
         offset="0"
         id="stop2" />
      <stop
         id="stop3"
         offset="0.67055255"
         style="stop-color:#000000;stop-opacity:0" />
      <stop
         style="stop-color:#000000;stop-opacity:1;"
         offset="1"
         id="stop4" />
    </linearGradient>
    <linearGradient
       inkscape:collect="always"
       id="linearGradient899">
      <stop
         style="stop-color:#ffdd55;stop-opacity:1"
         offset="0"
         id="stop895" />
      <stop
         style="stop-color:#67a3ff;stop-opacity:1;"
         offset="1"
         id="stop897" />
    </linearGradient>
    <linearGradient
       id="linearGradient1167"
       x1="40.751999"
       x2="40.751999"
       y1="28.507999"
       y2="17.205999"
       gradientUnits="userSpaceOnUse">
      <stop
         style="stop-color:#84fb6e;stop-opacity:1"
         stop-color="#0ab816"
         offset="0"
         id="stop1163" />
      <stop
         style="stop-color:#0dd41a;stop-opacity:1"
         stop-color="#0cf36c"
         offset="1"
         id="stop1165" />
    </linearGradient>
    <linearGradient
       id="cornerBevel"
       inkscape:collect="always">
      <stop
         style="stop-color:#000000;stop-opacity:0;"
         offset="0"
         id="stop2663" />
      <stop
         id="stop2671"
         offset="0.66666675"
         style="stop-color:#000000;stop-opacity:0" />
      <stop
         style="stop-color:#000000;stop-opacity:1;"
         offset="1"
         id="stop2661" />
    </linearGradient>
    <linearGradient
       id="bevel"
       inkscape:collect="always">
      <stop
         id="stop2685"
         offset="0"
         style="stop-color:#000000;stop-opacity:1;" />
      <stop
         id="stop2687"
         offset="1"
         style="stop-color:#000000;stop-opacity:0;" />
    </linearGradient>
    <linearGradient
       id="highlightCorner"
       inkscape:collect="always">
      <stop
         style="stop-color:#ffffff;stop-opacity:0;"
         offset="0"
         id="stop2613" />
      <stop
         id="stop2621"
         offset="0.66666669"
         style="stop-color:#ffffff;stop-opacity:0" />
      <stop
         style="stop-color:#ffffff;stop-opacity:1;"
         offset="1"
         id="stop2611" />
    </linearGradient>
    <linearGradient
       inkscape:collect="always"
       id="highlight">
      <stop
         style="stop-color:#ffffff;stop-opacity:1;"
         offset="0"
         id="stop2921" />
      <stop
         style="stop-color:#ffffff;stop-opacity:0;"
         offset="1"
         id="stop2923" />
    </linearGradient>
    <radialGradient
       inkscape:collect="always"
       xlink:href="#highlightCorner"
       id="radialGradient15"
       gradientUnits="userSpaceOnUse"
       gradientTransform="matrix(0.04294597,-12.079348,17.933991,0.06376112,14.524179,-50.373789)"
       cx="-4.5799766"
       cy="-0.50206107"
       fx="-4.5799766"
       fy="-0.50206107"
       r="0.39687499" />
    <linearGradient
       inkscape:collect="always"
       xlink:href="#highlight"
       id="linearGradient15"
       gradientUnits="userSpaceOnUse"
       x1="-3.8453064"
       y1="-1.1532172"
       x2="-3.8453064"
       y2="-0.8954913"
       gradientTransform="matrix(6.0923077,0,0,6.0923077,32.228528,7.1537621)" />
    <radialGradient
       inkscape:collect="always"
       xlink:href="#linearGradient12"
       id="radialGradient17"
       gradientUnits="userSpaceOnUse"
       gradientTransform="matrix(-0.02247554,-12.045403,-17.967828,0.03352619,1.6640208,-50.22331)"
       cx="-4.575222"
       cy="-0.55256462"
       fx="-4.575222"
       fy="-0.55256462"
       r="0.39687499" />
    <radialGradient
       inkscape:collect="always"
       xlink:href="#linearGradient7"
       id="radialGradient18"
       gradientUnits="userSpaceOnUse"
       gradientTransform="matrix(0.06461187,12.09952,17.933731,-0.09576873,14.609502,64.748231)"
       cx="-4.4284906"
       cy="-0.50121039"
       fx="-4.4284906"
       fy="-0.50121039"
       r="0.39687499" />
    <linearGradient
       inkscape:collect="always"
       xlink:href="#bevel"
       id="linearGradient18"
       gradientUnits="userSpaceOnUse"
       x1="-3.8415797"
       y1="-1.4506671"
       x2="-3.8406549"
       y2="-1.1968651"
       gradientTransform="matrix(6.0923076,0,0,6.0923076,32.228527,-7.1537627)" />
    <radialGradient
       inkscape:collect="always"
       xlink:href="#linearGradient4"
       id="radialGradient20"
       gradientUnits="userSpaceOnUse"
       gradientTransform="matrix(-0.01031383,11.991438,-17.967296,-0.01545561,1.7353715,64.305742)"
       cx="-4.4236727"
       cy="-0.55004197"
       fx="-4.4236727"
       fy="-0.55004197"
       r="0.39687499" />
    <radialGradient
       inkscape:collect="always"
       xlink:href="#cornerBevel"
       id="radialGradient25"
       gradientUnits="userSpaceOnUse"
       gradientTransform="matrix(12.184614,0,0,12.184614,59.63122,10.377613)"
       cx="-4.4568658"
       cy="-0.44864327"
       fx="-4.4568658"
       fy="-0.44864327"
       r="0.39687496" />
    <linearGradient
       inkscape:collect="always"
       xlink:href="#bevel"
       id="linearGradient25"
       gradientUnits="userSpaceOnUse"
       x1="-3.8487544"
       y1="-1.146081"
       x2="-3.8455966"
       y2="-0.890971"
       gradientTransform="matrix(6.0923077,0,0,6.0923077,32.228528,7.1537627)" />
    <radialGradient
       inkscape:collect="always"
       xlink:href="#cornerBevel"
       id="radialGradient29"
       gradientUnits="userSpaceOnUse"
       gradientTransform="matrix(0,-12.184614,12.184614,0,11.27353,-44.427768)"
       cx="-4.5705457"
       cy="-0.48653662"
       fx="-4.5705457"
       fy="-0.48653662"
       r="0.39687496" />
    <radialGradient
       inkscape:collect="always"
       xlink:href="#cornerBevel"
       id="radialGradient30"
       gradientUnits="userSpaceOnUse"
       gradientTransform="matrix(-12.184514,-0.04945749,0.04847411,-11.942243,-43.502155,3.8519053)"
       cx="-4.5342312"
       cy="-0.60337442"
       fx="-4.5342312"
       fy="-0.60337442"
       r="0.39687496" />
    <radialGradient
       inkscape:collect="always"
       xlink:href="#linearGradient9"
       id="radialGradient31"
       gradientUnits="userSpaceOnUse"
       gradientTransform="matrix(0,-12.151612,11.978956,0,18.475664,-48.770776)"
       cx="-4.4175329"
       cy="-0.56489283"
       fx="-4.4175329"
       fy="-0.56489283"
       r="0.39687496" />
    <linearGradient
       inkscape:collect="always"
       xlink:href="#bevel"
       id="linearGradient34"
       gradientUnits="userSpaceOnUse"
       x1="-3.99717"
       y1="-1.2218677"
       x2="-4.0003276"
       y2="-0.96675771"
       gradientTransform="matrix(6.0923077,0,0,6.0923077,17.025077,8.0496826)" />
    <linearGradient
       inkscape:collect="always"
       xlink:href="#bevel"
       id="linearGradient35"
       gradientUnits="userSpaceOnUse"
       x1="-4.0919032"
       y1="-1.4492278"
       x2="-4.0950613"
       y2="-1.1972755"
       gradientTransform="matrix(6.0923077,0,0,6.0923077,16.129161,-7.1537627)" />
    <linearGradient
       inkscape:collect="always"
       xlink:href="#bevel"
       id="linearGradient36"
       gradientUnits="userSpaceOnUse"
       x1="-3.8734362"
       y1="-1.3717227"
       x2="-3.8765941"
       y2="-1.116071"
       gradientTransform="matrix(6.0923077,0,0,6.0923077,31.33261,-8.0496826)" />
    <linearGradient
       id="paint2_linear_77:3-7"
       x1="79.398094"
       y1="-197.84389"
       x2="82.901054"
       y2="-199.97827"
       gradientUnits="userSpaceOnUse"
       gradientTransform="matrix(1.9248511,0,0,1.7314595,-40.88733,399.61741)">
      <stop
         stop-color="#EBFAFF"
         stop-opacity="0.1"
         id="stop29-5-7"
         offset="0"
         style="stop-color:#c3c3c3;stop-opacity:1;" />
      <stop
         offset="1"
         stop-color="#70A9FF"
         stop-opacity="0.5"
         id="stop30-0-1"
         style="stop-color:#05c7ff;stop-opacity:0.80000001;" />
    </linearGradient>
    <linearGradient
       inkscape:collect="always"
       xlink:href="#linearGradient899"
       id="linearGradient926"
       x1="0.98894888"
       y1="-9.3406019"
       x2="16.919081"
       y2="-9.2251434"
       gradientUnits="userSpaceOnUse"
       gradientTransform="translate(-0.92604234,0.47624996)" />
    <linearGradient
       id="a"
       x1="7.9369998"
       x2="7.9369998"
       y1="15.081"
       y2="1.852"
       gradientTransform="matrix(0.89278359,0,0,0.89278351,0.90778535,0.91466447)"
       gradientUnits="userSpaceOnUse">
      <stop
         offset="0"
         stop-color="#f1efeb"
         id="stop1-3" />
      <stop
         offset="1"
         stop-color="#fff"
         id="stop2-3" />
    </linearGradient>
    <linearGradient
       id="b-3"
       gradientTransform="matrix(0.9444453,0,0,0.94444519,-301.19123,-493.75403)"
       gradientUnits="userSpaceOnUse"
       x1="400.57141"
       x2="400.57141"
       y1="545.79797"
       y2="517.79797">
      <stop
         offset="0"
         stop-color="#eff0f1"
         id="stop7-6" />
      <stop
         offset="1"
         stop-color="#fcfcfc"
         id="stop9-7" />
    </linearGradient>
    <linearGradient
       id="d-9"
       gradientUnits="userSpaceOnUse"
       x1="13.571427"
       x2="13.142856"
       y1="21.285715"
       y2="3.2857144"
       gradientTransform="translate(-2.571427,-2.5714273)">
      <stop
         offset="0"
         stop-color="#788085"
         id="stop17-1" />
      <stop
         offset="1"
         stop-color="#9ba1a6"
         id="stop19-2" />
    </linearGradient>
  </defs>
  <sodipodi:namedview
     id="base"
     pagecolor="#e2e2e2"
     bordercolor="#666666"
     borderopacity="1.0"
     inkscape:pageopacity="0"
     inkscape:pageshadow="2"
     inkscape:zoom="9.7248729"
     inkscape:cx="33.933605"
     inkscape:cy="37.224137"
     inkscape:document-units="px"
     inkscape:current-layer="layer1"
     inkscape:document-rotation="0"
     showgrid="true"
     units="px"
     inkscape:window-width="1920"
     inkscape:window-height="990"
     inkscape:window-x="0"
     inkscape:window-y="0"
     inkscape:window-maximized="1"
     inkscape:object-paths="true"
     inkscape:snap-grids="true"
     inkscape:snap-intersection-paths="true"
     inkscape:snap-smooth-nodes="true"
     inkscape:snap-midpoints="true"
     inkscape:showpageshadow="2"
     inkscape:pagecheckerboard="0"
     inkscape:deskcolor="#d1d1d1">
    <inkscape:grid
       id="grid2"
       units="px"
       originx="0"
       originy="0"
       spacingx="0.26458333"
       spacingy="0.26458333"
       empcolor="#0099e5"
       empopacity="0.30196078"
       color="#0099e5"
       opacity="0.14902"
       empspacing="5"
       dotted="false"
       gridanglex="30"
       gridanglez="30"
       visible="true" />
  </sodipodi:namedview>
  <metadata
     id="metadata1111">
    <rdf:RDF>
      <cc:Work
         rdf:about="">
        <dc:format>image/svg+xml</dc:format>
        <dc:type
           rdf:resource="http://purl.org/dc/dcmitype/StillImage" />
      </cc:Work>
    </rdf:RDF>
  </metadata>
  <g
     inkscape:label="Layer 1"
     inkscape:groupmode="layer"
     id="layer1">
    <g
       id="g918"
       transform="translate(0.47625037,0.92604234)">
      <rect
         ry="4.8357682"
         rx="4.8357682"
         style="fill:url(#linearGradient926);fill-opacity:1;stroke-width:6.09228"
         x="0.13229237"
         y="-16.457085"
         width="15.875001"
         height="15.875001"
         id="use1056"
         transform="rotate(90)"
         class="ColorScheme-Highlight" />
      <path
         d="m 5.344583,0.13229167 c -2.6384245,0 -4.76249953,2.12407483 -4.76249953,4.76249963 H 5.344583 Z"
         style="opacity:0.15;fill:url(#radialGradient25);fill-opacity:1;stroke-width:6.09228"
         id="path20" />
      <rect
         y="0.13229151"
         x="5.3445826"
         height="1.5875"
         width="6.3500004"
         id="rect20"
         style="opacity:0.15;fill:url(#linearGradient25);fill-opacity:1;stroke-width:4.83577;stroke-linecap:round;stroke-linejoin:round;paint-order:stroke fill markers" />
      <path
         d="m 0.58208347,11.244792 c 0,2.638424 2.12407503,4.762499 4.76249953,4.762499 v -4.762499 z"
         style="opacity:0.15;fill:url(#radialGradient29);fill-opacity:1;stroke-width:6.09228"
         id="use20" />
      <rect
         y="0.5820834"
         x="-11.244792"
         height="1.5875"
         width="6.3500004"
         id="use21"
         style="opacity:0.15;fill:url(#linearGradient34);fill-opacity:1;stroke-width:4.83577;stroke-linecap:round;stroke-linejoin:round;paint-order:stroke fill markers"
         transform="rotate(-90)" />
      <path
         d="m 11.694583,16.007291 c 2.638425,0 4.7625,-2.124074 4.7625,-4.762499 h -4.7625 z"
         style="opacity:0.15;fill:url(#radialGradient30);fill-opacity:1;stroke-width:6.09228"
         id="use22" />
      <rect
         y="-16.007292"
         x="-11.694584"
         height="1.5875"
         width="6.3500004"
         id="use23"
         style="opacity:0.15;fill:url(#linearGradient35);fill-opacity:1;stroke-width:4.83577;stroke-linecap:round;stroke-linejoin:round;paint-order:stroke fill markers"
         transform="scale(-1)" />
      <path
         d="m 16.457083,4.8947913 c 0,-2.6384245 -2.124074,-4.76249963 -4.7625,-4.76249963 V 4.8947913 Z"
         style="opacity:0.15;fill:url(#radialGradient31);fill-opacity:1;stroke-width:6.09228"
         id="use24" />
      <rect
         y="-16.457081"
         x="4.8947906"
         height="1.5875"
         width="6.3500004"
         id="use25"
         style="opacity:0.15;fill:url(#linearGradient36);fill-opacity:1;stroke-width:4.83577;stroke-linecap:round;stroke-linejoin:round;paint-order:stroke fill markers"
         transform="rotate(90)" />
      <path
         d="m 5.3445832,0.13229107 c -2.638425,0 -4.76250035,2.12407473 -4.76250035,4.76249973 H 5.3445832 Z"
         style="opacity:0.5;fill:url(#radialGradient15);fill-opacity:1;stroke-width:6.09228"
         id="path14" />
      <rect
         y="0.1322909"
         x="5.3445826"
         height="1.5875"
         width="6.3499999"
         id="rect14"
         style="opacity:0.5;fill:url(#linearGradient15);fill-opacity:1;stroke-width:4.83577;stroke-linecap:round;stroke-linejoin:round;paint-order:stroke fill markers" />
      <path
         d="m 11.694583,0.13229096 c 2.638425,0 4.7625,2.12407504 4.7625,4.76249734 h -4.7625 z"
         style="opacity:0.5;fill:url(#radialGradient17);fill-opacity:1;stroke-width:6.09228"
         id="use14" />
      <path
         id="path17"
         style="opacity:0.5;fill:url(#radialGradient18);fill-opacity:1;stroke-width:6.09228"
         d="m 5.3445834,16.00729 c -2.638425,0 -4.7625,-2.124075 -4.7625,-4.7625 h 4.7625 z" />
      <rect
         style="opacity:0.5;fill:url(#linearGradient18);fill-opacity:1;stroke-width:4.83577;stroke-linecap:round;stroke-linejoin:round;paint-order:stroke fill markers"
         id="rect17"
         width="6.3499994"
         height="1.5874999"
         x="5.3445826"
         y="-16.007292"
         transform="scale(1,-1)" />
      <path
         id="use17"
         style="opacity:0.5;fill:url(#radialGradient20);fill-opacity:1;stroke-width:6.09228"
         d="m 11.694582,16.007291 c 2.638425,0 4.7625,-2.124075 4.7625,-4.7625 h -4.7625 z" />
    </g>
    <rect
       width="13.229166"
       height="13.229165"
       x="2.3812497"
       y="2.3812501"
       fill="url(#a)"
       rx="3.6849496"
       ry="3.7431052"
       id="rect2"
       style="fill:url(#a);stroke-width:0.264582" />
    <g
       id="g11"
       transform="matrix(0.25856834,0,0,0.26025331,2.2729605,2.3985698)"
       style="display:inline;stroke-width:0.634215">
      <path
         style="opacity:0.1;stroke-width:0.634215"
         d="m 15.384766,6.9707031 a 20,20 0 0 0 -1.564454,0.8398438 h 0.205079 l 0.103515,0.3339843 -0.294922,0.2753907 1.259766,0.035156 0.193359,0.4550781 -1.417968,-0.052734 -0.07031,-0.3496094 -0.826172,-0.1796875 a 20,20 0 0 0 -0.845703,0.6054688 h 0.494141 v 0.330078 l -0.2168,0.2890625 H 11.369141 V 9.5097656 A 20,20 0 0 0 5.1308594,18.435547 l 0.109375,0.05273 v 1.669922 l 0.8378906,1.435547 0.6835938,0.105469 0.087891,-0.492188 -0.8066406,-1.24414 -0.15625,-1.210938 H 6.3574219 L 6.5566406,19.998047 7.7207031,21.699219 7.421875,22.248047 8.1621094,23.382812 10,23.839844 v -0.298828 l 0.734375,0.105468 -0.06836,0.525391 0.576172,0.105469 0.892578,0.24414 1.259765,1.439454 1.611328,0.121093 0.15625,1.316407 -1.101562,0.771484 -0.05078,1.175781 -0.158204,0.71875 1.59375,2 0.121094,0.683594 c 0,0 0.577438,0.158203 0.648438,0.158203 0.07,0 1.294922,0.929687 1.294922,0.929688 v 3.613281 l 0.4375,0.123047 -0.296875,1.666015 0.734375,0.982422 -0.134766,1.652344 0.845703,1.490234 a 20,20 0 0 0 2.144531,0.421875 l -0.316406,-0.267578 0.05273,-0.386719 0.164063,-0.472656 0.03516,-0.482422 -0.623047,-0.01953 -0.314453,-0.394531 0.517578,-0.5 0.07031,-0.375 -0.578125,-0.166016 0.03516,-0.349609 0.822266,-0.125 1.251953,-0.603516 0.419922,-0.771484 1.3125,-1.683594 -0.296875,-1.316406 0.402343,-0.701172 1.207032,0.03711 0.8125,-0.646484 0.263672,-2.541016 0.90039,-1.146484 0.158203,-0.738281 -0.822265,-0.263672 -0.542969,-0.890625 -1.855469,-0.01953 -1.470703,-0.5625 -0.06836,-1.050782 -0.492188,-0.859375 -1.330078,-0.01953 -0.767578,-1.208984 -0.683594,-0.333985 -0.03516,0.367188 -1.242188,0.07422 -0.455078,-0.634766 -1.294922,-0.263672 -1.068359,1.236328 -1.679687,-0.285156 -0.123047,-1.898438 -1.226563,-0.208984 0.492188,-0.931641 -0.140625,-0.535156 -1.611328,1.080078 -1.013672,-0.123047 -0.3613284,-0.794922 0.2207032,-0.818359 0.5585942,-1.03125 1.287109,-0.652344 2.484375,-0.002 -0.0059,0.759766 0.892579,0.416016 -0.07031,-1.296876 0.642578,-0.65039 1.298828,-0.853516 0.08984,-0.601562 1.294922,-1.351563 1.376953,-0.763672 -0.121094,-0.101562 0.931641,-0.878906 0.341797,0.08984 0.158203,0.197266 0.353516,-0.394531 0.08594,-0.03711 -0.386719,-0.05469 -0.394531,-0.132813 v -0.378906 l 0.208985,-0.169922 h 0.458984 l 0.210937,0.0918 0.181641,0.369141 0.224609,-0.0332 v -0.0332 l 0.0625,0.02149 0.646485,-0.09766 0.0918,-0.316407 0.367187,0.0918 v 0.34375 l -0.339844,0.234375 0.05078,0.375 1.167968,0.361328 c 0,0 0.0019,0.0056 0.0039,0.01563 l 0.269531,-0.02344 0.01758,-0.507813 -0.927734,-0.423828 -0.05273,-0.242187 0.769531,-0.263672 0.0332,-0.738281 -0.802735,-0.490235 -0.05273,-1.24414 -1.103516,0.542968 h -0.402343 l 0.105468,-0.947265 -1.5,-0.355469 -0.621094,0.470703 v 1.433594 l -1.117187,0.355469 -0.447266,0.935546 -0.486328,0.07813 v -1.197266 l -1.048828,-0.144531 -0.525391,-0.341797 -0.210937,-0.775391 1.876953,-1.1015624 0.917969,-0.2792968 0.09375,0.6171872 0.511719,-0.02539 0.03906,-0.3105472 0.535156,-0.078125 L 20,9.5605469 19.769531,9.4648438 19.716797,9.1347656 20.375,9.0800781 l 0.396484,-0.4160156 0.02148,-0.029297 0.0059,0.00195 0.121094,-0.125 1.382812,-0.1757813 0.611328,0.5214844 -1.603515,0.8554687 2.041015,0.4824217 0.263672,-0.6835935 h 0.892578 L 24.822266,8.9160156 24.193359,8.7578125 V 8.0039062 L 22.214844,7.125 20.849609,7.2832031 20.080078,7.6875 l 0.05273,0.9824219 -0.80664,-0.1230469 -0.123047,-0.5429688 0.771484,-0.703125 -1.40039,-0.068359 -0.402344,0.1210937 -0.173828,0.4726563 0.523437,0.089844 -0.103515,0.5253906 -0.892578,0.052734 -0.138672,0.3496094 -1.294922,0.037109 c 0,0 -0.03589,-0.7363282 -0.08789,-0.7363282 -0.052,10e-5 1.013672,-0.017578 1.013672,-0.017578 L 17.789062,7.3710938 17.369141,7.1601562 16.808594,7.7050781 15.880859,7.6523438 Z m 21.68164,2.9003907 -0.636718,0.2500002 -0.408204,0.445312 0.09375,0.519532 0.501954,0.07031 0.300781,0.757812 0.865234,-0.349609 0.142578,1.011719 h -0.259765 l -0.710938,-0.105469 -0.787109,0.132813 -0.761719,1.078125 -1.089844,0.171875 -0.158203,0.935546 0.460938,0.107422 -0.132813,0.601563 -1.082031,-0.216797 -0.992188,0.216797 -0.210937,0.552734 0.171875,1.16211 0.582031,0.273437 0.976563,-0.0059 0.660156,-0.05859 0.201172,-0.527344 1.03125,-1.341797 0.679687,0.138672 0.667969,-0.605468 0.125,0.472656 1.644531,1.113281 -0.201172,0.269531 -0.742187,-0.03906 0.285156,0.404297 0.457031,0.09961 0.533204,-0.222656 -0.01172,-0.644532 0.238281,-0.11914 -0.191406,-0.203125 -1.097656,-0.613281 -0.28711,-0.814454 h 0.91211 l 0.291015,0.289063 0.785156,0.679687 0.0332,0.820313 0.814454,0.867187 0.302734,-1.189453 0.5625,-0.308593 0.105469,0.972656 0.550781,0.605469 0.255859,-0.0039 a 20,20 0 0 0 -2.96875,-5.064453 l -1.326171,-0.01172 -0.08984,-0.300781 0.789062,-0.402343 a 20,20 0 0 0 -1.875,-1.8710942 z m -24.46289,0.2070312 c 0.039,0 0,0.458984 0,0.458984 l -1.03711,0.06641 -0.197265,-0.236328 0.734375,-0.210938 c 0,0 0.46,-0.07813 0.5,-0.07813 z m 1.261718,2.236328 0.498047,0.119141 -0.171875,0.669922 -0.539062,0.171875 -0.339844,-0.699219 z m 1.365235,1.589844 h 0.826172 v 0.251953 h 0.18164 v 0.433594 H 14.978516 L 14.507812,14.458984 14.625,14.15625 Z m 1.232422,0.185547 0.433593,0.394531 -0.433593,0.105469 z m 0.953125,0.605468 0.320312,0.201172 -0.257812,0.212891 -0.253907,-0.212891 z m -2.421875,0.06641 h 0.695312 l -0.892578,1.248047 -0.367187,-0.197266 0.07812,-0.525391 z m 1.117187,0 h 0.707031 v 0.419922 l -0.314453,0.203125 -0.392578,0.07422 z m 0.878906,0.460937 h 0.05273 l 0.800781,0.236328 v 0.408204 h -0.669922 l -0.183594,-0.265626 z m -0.330078,0.378906 v 0.410157 l -0.300781,0.302734 h -0.669922 l 0.105469,-0.458984 0.316406,-0.02734 0.06445,-0.158203 z m 20.820313,1.738282 -2.363281,0.183594 -0.732422,0.394531 h -0.9375 l -0.460938,-0.04687 -1.138672,0.634765 v 1.19336 l -2.330078,1.683593 0.19336,0.71875 h 0.472656 l -0.123047,0.683594 -0.332031,0.123047 -0.01953,1.789063 2.013672,2.296875 h 0.875 l 0.05469,-0.138672 h 1.574218 l 0.453126,-0.421875 h 0.894531 l 0.488281,0.492187 1.332031,0.138672 -0.175781,1.773438 1.476562,2.613281 -0.777343,1.490234 0.05273,0.701172 0.611328,0.613281 v 1.6875 l 0.705078,0.951172 a 20,20 0 0 0 4.6875,-12.380859 20,20 0 0 0 -0.824218,-5.226563 H 42.15625 l -1.023438,-0.763671 -1.076171,0.105468 v 0.658203 h -0.341797 l -0.367188,-0.263671 -1.867187,-0.47461 z"
         id="path2-3" />
      <path
         style="display:inline;fill:#2a94ca;fill-opacity:1;stroke-width:0.634215"
         d="M 15.385,5.9707 A 20,20 0 0 0 13.82,6.8105 h 0.205 l 0.104,0.334 -0.295,0.2754 1.26,0.0352 0.193,0.4551 -1.418,-0.0528 -0.07,-0.3496 -0.826,-0.1797 a 20,20 0 0 0 -0.846,0.6055 h 0.494 v 0.3301 l -0.217,0.289 H 11.369 V 8.5098 A 20,20 0 0 0 5.1309,17.436 l 0.1093,0.052 v 1.67 L 6.0781,20.594 6.7617,20.699 6.8496,20.207 6.043,18.963 5.8867,17.752 h 0.4707 l 0.1992,1.246 1.1641,1.701 -0.2988,0.549 0.7402,1.135 L 10,22.84 v -0.299 l 0.734,0.105 -0.068,0.526 0.576,0.105 0.893,0.244 1.26,1.44 1.611,0.121 0.156,1.316 -1.101,0.772 -0.051,1.176 -0.158,0.718 1.593,2 0.121,0.684 c 0,0 0.578,0.158 0.649,0.158 0.07,0 1.295,0.93 1.295,0.93 v 3.613 l 0.437,0.123 -0.297,1.666 0.735,0.983 -0.135,1.652 0.971,1.711 1.238,1.082 a 20,20 0 0 0 0.066,0.012 l 1.198,0.021 0.121,-0.404 -0.92,-0.777 0.053,-0.387 0.164,-0.473 0.035,-0.482 -0.623,-0.02 -0.315,-0.394 0.518,-0.5 0.07,-0.375 -0.578,-0.166 0.035,-0.35 0.822,-0.125 1.252,-0.603 0.42,-0.772 1.313,-1.683 -0.297,-1.317 0.402,-0.701 1.207,0.037 0.813,-0.646 0.264,-2.541 0.9,-1.147 0.158,-0.738 -0.822,-0.264 -0.543,-0.891 -1.856,-0.019 -1.47,-0.563 -0.069,-1.05 -0.492,-0.86 -1.33,-0.019 -0.767,-1.209 -0.684,-0.334 -0.035,0.367 -1.242,0.074 -0.456,-0.635 -1.294,-0.263 -1.069,1.236 -1.679,-0.285 -0.124,-1.899 -1.226,-0.209 0.492,-0.931 -0.141,-0.535 -1.611,1.08 -1.014,-0.123 -0.3609,-0.795 0.2207,-0.819 0.5582,-1.031 1.288,-0.652 2.484,-0.002 -0.006,0.76 0.893,0.416 -0.071,-1.297 0.643,-0.651 1.299,-0.853 0.09,-0.602 1.295,-1.351 1.376,-0.764 -0.121,-0.101 0.932,-0.879 0.342,0.089 0.158,0.198 0.354,-0.395 0.085,-0.037 -0.386,-0.055 -0.395,-0.132 v -0.379 l 0.209,-0.17 h 0.459 l 0.211,0.092 0.182,0.369 0.224,-0.033 v -0.034 l 0.063,0.022 0.646,-0.098 0.092,-0.316 0.367,0.092 v 0.343 l -0.34,0.235 0.051,0.375 1.168,0.361 c 0,0 0.002,0.006 0.004,0.016 l 0.27,-0.024 0.017,-0.508 -0.927,-0.423 -0.053,-0.243 0.769,-0.263 0.034,-0.739 -0.803,-0.49 -0.053,-1.244 -1.103,0.543 h -0.403 l 0.106,-0.9473 -1.5,-0.3555 -0.621,0.4708 v 1.434 l -1.118,0.355 -0.447,0.936 -0.486,0.078 V 11.107 L 16.752,10.963 16.227,10.621 16.016,9.8457 17.893,8.7441 18.811,8.4648 18.904,9.082 19.416,9.0566 19.455,8.7461 19.99,8.668 20,8.5605 19.77,8.4648 l -0.053,-0.33 0.658,-0.0547 0.396,-0.416 0.022,-0.0293 0.006,0.0019 0.121,-0.125 1.383,-0.1758 0.611,0.5215 -1.603,0.8555 2.041,0.4824 0.263,-0.6836 h 0.893 L 24.822,7.916 24.193,7.7578 V 7.0039 L 22.215,6.125 20.85,6.2832 20.08,6.6875 20.133,7.6699 19.326,7.5469 19.203,7.0039 19.975,6.3008 18.574,6.2324 18.172,6.3535 17.998,6.8262 18.521,6.916 18.418,7.4414 17.525,7.4941 17.387,7.8438 16.092,7.8809 c 0,0 -0.036,-0.7364 -0.088,-0.7364 -0.052,10e-5 1.014,-0.0175 1.014,-0.0175 l 0.771,-0.7559 -0.42,-0.2109 -0.56,0.5449 -0.928,-0.0528 z m 21.681,2.9004 -0.636,0.25 -0.409,0.4453 0.094,0.5196 0.502,0.07 0.301,0.758 0.865,-0.35 0.143,1.012 h -0.26 l -0.711,-0.105 -0.787,0.133 -0.762,1.078 -1.09,0.172 -0.158,0.935 0.461,0.107 -0.133,0.602 -1.082,-0.217 -0.992,0.217 -0.211,0.553 0.172,1.162 0.582,0.273 0.977,-0.006 0.66,-0.058 0.201,-0.527 1.031,-1.342 0.68,0.138 0.668,-0.605 0.125,0.473 1.644,1.113 -0.201,0.269 -0.742,-0.039 0.285,0.405 0.457,0.099 0.533,-0.222 -0.011,-0.645 0.238,-0.119 -0.191,-0.203 -1.098,-0.613 -0.287,-0.815 h 0.912 l 0.291,0.289 0.785,0.68 0.033,0.82 0.815,0.867 0.302,-1.189 0.563,-0.309 0.105,0.973 0.551,0.605 0.256,-0.004 a 20,20 0 0 0 -2.969,-5.064 l -1.326,-0.012 -0.09,-0.3 0.789,-0.403 A 20,20 0 0 0 37.066,8.8711 Z m -24.462,0.207 c 0.039,0 0,0.459 0,0.459 l -1.038,0.0664 -0.197,-0.2363 0.735,-0.211 c 0,0 0.46,-0.0781 0.5,-0.0781 z m 1.261,2.2359 0.498,0.12 -0.172,0.67 -0.539,0.171 -0.34,-0.699 z m 1.365,1.59 h 0.827 v 0.252 h 0.181 v 0.434 h -1.259 l -0.471,-0.131 0.117,-0.303 z m 1.233,0.186 0.433,0.394 -0.433,0.106 z m 0.953,0.605 0.32,0.201 -0.257,0.213 -0.254,-0.213 z m -2.422,0.067 h 0.695 l -0.892,1.248 -0.367,-0.198 0.078,-0.525 z m 1.117,0 h 0.707 v 0.42 l -0.314,0.203 -0.393,0.074 z m 0.879,0.461 h 0.053 l 0.801,0.236 v 0.408 h -0.67 L 16.99,14.602 Z m -0.33,0.379 v 0.41 l -0.301,0.302 h -0.67 l 0.106,-0.459 0.316,-0.027 0.065,-0.158 z m 20.82,1.738 -2.363,0.183 -0.732,0.395 h -0.938 l -0.461,-0.047 -1.138,0.635 v 1.193 l -2.33,1.684 0.193,0.719 h 0.473 l -0.123,0.683 -0.332,0.123 -0.02,1.789 2.014,2.297 h 0.875 l 0.054,-0.139 h 1.575 l 0.453,-0.421 h 0.894 l 0.488,0.492 1.333,0.138 -0.176,1.774 1.476,2.613 -0.777,1.49 0.053,0.702 0.611,0.613 v 1.687 l 0.805,1.084 v 0.739 A 20,20 0 0 0 44,24 20,20 0 0 0 43.15,18.287 h -0.994 l -1.023,-0.764 -1.076,0.106 v 0.658 H 39.715 L 39.348,18.023 37.48,17.549 Z"
         id="path3-6" />
      <path
         style="display:inline;opacity:0.1;fill:#ffffff;stroke-width:0.634215"
         d="M 24,4 C 12.921,4 4.002,12.92 4.002,24 c 0,0.16772 -0.004,0.33329 0,0.5 C 4.2662,13.654 13.089,5 24,5 c 10.911,0 19.734,8.6536 19.998,19.5 0.004,-0.16671 0,-0.33228 0,-0.5 C 43.998,12.92 35.079,4 24,4 Z"
         id="path4-7" />
      <path
         style="display:inline;opacity:0.1;stroke-width:0.634215"
         d="m 34.287109,7.8789062 c 1.856724,7.5244728 0.929399,14.2762968 -2.03125,19.9003908 -3.30656,6.281193 -9.270068,11.256585 -17.240234,14.0625 A 20,20 0 0 0 24,44 20,20 0 0 0 24.539062,43.98047 c 5.641759,-3.357775 10.135493,-7.912845 13.027344,-13.40625 2.477562,-4.706414 3.729539,-10.051276 3.623047,-15.751953 A 20,20 0 0 0 34.287109,7.8789062 Z"
         id="path5-5" />
      <path
         style="display:inline;fill:#eab100;stroke-width:0.634215"
         d="m 34.287109,6.8789062 c 1.856724,7.5244728 0.929399,14.2762968 -2.03125,19.9003908 -3.461541,6.575597 -9.829467,11.727356 -18.36914,14.449219 a 20,20 0 0 0 8.980469,2.714843 c 6.436902,-3.422881 11.525059,-8.339458 14.699218,-14.36914 2.477562,-4.706414 3.729539,-10.051276 3.623047,-15.751953 A 20,20 0 0 0 34.287109,6.8789062 Z"
         id="path6-3" />
      <path
         style="display:inline;opacity:0.2;stroke-width:0.634215"
         d="m 24,4.9999997 c -1.559416,0 -3.070608,0.1955707 -4.527344,0.5332031 4.67463,3.4044096 9.879284,11.8511692 13.597656,21.2148442 1.649766,4.154471 3.06296,8.481887 4.191407,12.5625 1.097946,3.970323 0.691199,1.372041 0.320312,-0.05078 l 5.673828,-0.902344 C 42.037577,33.892968 40.483873,29.16015 38.646484,24.533203 35.842512,17.47219 32.52127,10.655622 28.345703,5.6269528 27.035248,5.2246098 25.598963,4.9999997 24,4.9999997 Z M 43.255859,38.357422 c 1.679667,6.155223 -0.264977,-4.15293 0,0 z"
         id="path7-5" />
      <path
         style="display:inline;fill:#ffd517;stroke-width:0.634215"
         d="m 24,4 c -1.559416,0 -3.070608,0.1955707 -4.527344,0.5332031 4.67463,3.4044096 9.879284,11.8511689 13.597656,21.2148439 1.649766,4.154471 3.06296,8.481887 4.191407,12.5625 1.097946,3.970323 0.691199,1.372041 0.320312,-0.05078 l 5.673828,-0.902344 C 42.037577,32.892968 40.483873,28.16015 38.646484,23.533203 35.842512,16.47219 32.52127,9.6556223 28.345703,4.6269531 27.035248,4.2246101 25.598963,4 24,4 Z m 19.255859,33.357422 c 1.679667,6.155223 -0.264977,-4.15293 0,0 z"
         id="path8" />
      <path
         style="display:inline;opacity:0.2;stroke-width:0.634215"
         d="m 46.934687,35.000617 a 0.98903984,1.3476224 74.338633 0 0 -0.388269,0.03359 l -6.674413,1.318268 -6.674412,1.318268 a 0.98903984,1.3476224 74.338633 0 0 -0.907785,0.487003 0.98903984,1.3476224 74.338633 0 0 -0.04374,1.21751 l 3.89637,3.660923 3.89637,3.662602 a 0.98903984,1.3476224 74.338633 0 0 2.284501,-0.451736 l 2.778044,-4.979193 2.77941,-4.98087 A 0.98903984,1.3476224 74.338633 0 0 46.934697,35.00062 Z"
         id="path9" />
      <path
         style="display:inline;fill:#ffd517;stroke-width:0.634215"
         d="m 46.934687,34.000617 a 0.98903984,1.3476224 74.338633 0 0 -0.388269,0.03359 l -6.674413,1.318268 -6.674412,1.318268 a 0.98903984,1.3476224 74.338633 0 0 -0.907785,0.487003 0.98903984,1.3476224 74.338633 0 0 -0.04374,1.21751 l 3.89637,3.660923 3.89637,3.662602 a 0.98903984,1.3476224 74.338633 0 0 2.284501,-0.451736 l 2.778044,-4.979193 2.77941,-4.98087 A 0.98903984,1.3476224 74.338633 0 0 46.934697,34.00062 Z"
         id="path10" />
      <path
         style="display:inline;opacity:0.2;fill:#ffffff;stroke-width:0.634215"
         d="m 24,4 c -1.559416,0 -3.070608,0.1955707 -4.527344,0.5332031 0.328095,0.2389426 0.659568,0.5096805 0.992188,0.796875 C 21.612907,5.1199304 22.791067,5 24,5 c 1.598963,0 3.035248,0.2246101 4.345703,0.6269531 4.175567,5.0286699 7.496809,11.8452369 10.300781,18.9062499 1.494912,3.764515 2.789388,7.591791 3.88086,11.294922 l 4.019531,-0.792969 A 0.98903984,1.3476224 74.338633 0 1 46.935547,35 a 0.98903984,1.3476224 74.338633 0 1 0.892578,0.380859 l 0.05273,-0.09375 A 0.98903984,1.3476224 74.338633 0 0 46.935547,34 0.98903984,1.3476224 74.338633 0 0 46.546875,34.03516 l -4.019531,0.792969 C 41.43587,31.124998 40.141396,27.297718 38.646484,23.533203 35.842512,16.47219 32.52127,9.6556223 28.345703,4.6269531 27.035248,4.2246101 25.598963,4 24,4 Z m 12.302734,32.056641 -3.105468,0.613281 a 0.98903984,1.3476224 74.338633 0 0 -0.908204,0.488281 0.98903984,1.3476224 74.338633 0 0 -0.113281,1.142578 0.98903984,1.3476224 74.338633 0 1 0.113281,-0.142578 0.98903984,1.3476224 74.338633 0 1 0.908204,-0.488281 L 36.591797,37 c -0.09258,-0.312238 -0.19354,-0.629493 -0.289063,-0.943359 z"
         id="path11" />
    </g>
  </g>
</svg>
