<?xml version="1.0" encoding="UTF-8" standalone="no"?>
<svg
   width="68"
   height="68"
   viewBox="0 0 17.991665 17.991665"
   version="1.1"
   id="svg1114"
   inkscape:version="1.3.2 (091e20ef0f, 2023-11-25)"
   sodipodi:docname="kcachegrind.svg"
   xmlns:inkscape="http://www.inkscape.org/namespaces/inkscape"
   xmlns:sodipodi="http://sodipodi.sourceforge.net/DTD/sodipodi-0.dtd"
   xmlns:xlink="http://www.w3.org/1999/xlink"
   xmlns="http://www.w3.org/2000/svg"
   xmlns:svg="http://www.w3.org/2000/svg"
   xmlns:rdf="http://www.w3.org/1999/02/22-rdf-syntax-ns#"
   xmlns:cc="http://creativecommons.org/ns#"
   xmlns:dc="http://purl.org/dc/elements/1.1/">
  <style
     type="text/css"
     id="current-color-scheme">.ColorScheme-Highlight { color:#5599ff; }
</style>
  <defs
     id="defs1108">
    <linearGradient
       id="linearGradient12"
       inkscape:collect="always">
      <stop
         style="stop-color:#ffffff;stop-opacity:0;"
         offset="0"
         id="stop10" />
      <stop
         id="stop11"
         offset="0.65909404"
         style="stop-color:#ffffff;stop-opacity:0" />
      <stop
         style="stop-color:#ffffff;stop-opacity:1;"
         offset="1"
         id="stop12" />
    </linearGradient>
    <linearGradient
       id="linearGradient9"
       inkscape:collect="always">
      <stop
         style="stop-color:#000000;stop-opacity:0;"
         offset="0"
         id="stop1" />
      <stop
         id="stop8"
         offset="0.66102529"
         style="stop-color:#000000;stop-opacity:0" />
      <stop
         style="stop-color:#000000;stop-opacity:1;"
         offset="1"
         id="stop9" />
    </linearGradient>
    <linearGradient
       id="linearGradient7"
       inkscape:collect="always">
      <stop
         style="stop-color:#000000;stop-opacity:0;"
         offset="0"
         id="stop5" />
      <stop
         id="stop6"
         offset="0.6586886"
         style="stop-color:#000000;stop-opacity:0" />
      <stop
         style="stop-color:#000000;stop-opacity:1;"
         offset="1"
         id="stop7" />
    </linearGradient>
    <linearGradient
       id="linearGradient4"
       inkscape:collect="always">
      <stop
         style="stop-color:#000000;stop-opacity:0;"
         offset="0"
         id="stop2" />
      <stop
         id="stop3"
         offset="0.67055255"
         style="stop-color:#000000;stop-opacity:0" />
      <stop
         style="stop-color:#000000;stop-opacity:1;"
         offset="1"
         id="stop4" />
    </linearGradient>
    <linearGradient
       inkscape:collect="always"
       id="linearGradient899">
      <stop
         style="stop-color:#b380ff;stop-opacity:1;"
         offset="0"
         id="stop895" />
      <stop
         style="stop-color:#67a3ff;stop-opacity:1;"
         offset="1"
         id="stop897" />
    </linearGradient>
    <linearGradient
       id="linearGradient1167"
       x1="40.751999"
       x2="40.751999"
       y1="28.507999"
       y2="17.205999"
       gradientUnits="userSpaceOnUse">
      <stop
         style="stop-color:#84fb6e;stop-opacity:1"
         stop-color="#0ab816"
         offset="0"
         id="stop1163" />
      <stop
         style="stop-color:#0dd41a;stop-opacity:1"
         stop-color="#0cf36c"
         offset="1"
         id="stop1165" />
    </linearGradient>
    <linearGradient
       id="cornerBevel"
       inkscape:collect="always">
      <stop
         style="stop-color:#000000;stop-opacity:0;"
         offset="0"
         id="stop2663" />
      <stop
         id="stop2671"
         offset="0.66666675"
         style="stop-color:#000000;stop-opacity:0" />
      <stop
         style="stop-color:#000000;stop-opacity:1;"
         offset="1"
         id="stop2661" />
    </linearGradient>
    <linearGradient
       id="bevel"
       inkscape:collect="always">
      <stop
         id="stop2685"
         offset="0"
         style="stop-color:#000000;stop-opacity:1;" />
      <stop
         id="stop2687"
         offset="1"
         style="stop-color:#000000;stop-opacity:0;" />
    </linearGradient>
    <linearGradient
       id="highlightCorner"
       inkscape:collect="always">
      <stop
         style="stop-color:#ffffff;stop-opacity:0;"
         offset="0"
         id="stop2613" />
      <stop
         id="stop2621"
         offset="0.66666669"
         style="stop-color:#ffffff;stop-opacity:0" />
      <stop
         style="stop-color:#ffffff;stop-opacity:1;"
         offset="1"
         id="stop2611" />
    </linearGradient>
    <linearGradient
       inkscape:collect="always"
       id="highlight">
      <stop
         style="stop-color:#ffffff;stop-opacity:1;"
         offset="0"
         id="stop2921" />
      <stop
         style="stop-color:#ffffff;stop-opacity:0;"
         offset="1"
         id="stop2923" />
    </linearGradient>
    <radialGradient
       inkscape:collect="always"
       xlink:href="#highlightCorner"
       id="radialGradient15"
       gradientUnits="userSpaceOnUse"
       gradientTransform="matrix(0.04294597,-12.079348,17.933991,0.06376112,14.524179,-50.373789)"
       cx="-4.5799766"
       cy="-0.50206107"
       fx="-4.5799766"
       fy="-0.50206107"
       r="0.39687499" />
    <linearGradient
       inkscape:collect="always"
       xlink:href="#highlight"
       id="linearGradient15"
       gradientUnits="userSpaceOnUse"
       x1="-3.8453064"
       y1="-1.1532172"
       x2="-3.8453064"
       y2="-0.8954913"
       gradientTransform="matrix(6.0923077,0,0,6.0923077,32.228528,7.1537621)" />
    <radialGradient
       inkscape:collect="always"
       xlink:href="#linearGradient12"
       id="radialGradient17"
       gradientUnits="userSpaceOnUse"
       gradientTransform="matrix(-0.02247554,-12.045403,-17.967828,0.03352619,1.6640208,-50.22331)"
       cx="-4.575222"
       cy="-0.55256462"
       fx="-4.575222"
       fy="-0.55256462"
       r="0.39687499" />
    <radialGradient
       inkscape:collect="always"
       xlink:href="#linearGradient7"
       id="radialGradient18"
       gradientUnits="userSpaceOnUse"
       gradientTransform="matrix(0.06461187,12.09952,17.933731,-0.09576873,14.609502,64.748231)"
       cx="-4.4284906"
       cy="-0.50121039"
       fx="-4.4284906"
       fy="-0.50121039"
       r="0.39687499" />
    <linearGradient
       inkscape:collect="always"
       xlink:href="#bevel"
       id="linearGradient18"
       gradientUnits="userSpaceOnUse"
       x1="-3.8415797"
       y1="-1.4506671"
       x2="-3.8406549"
       y2="-1.1968651"
       gradientTransform="matrix(6.0923076,0,0,6.0923076,32.228527,-7.1537627)" />
    <radialGradient
       inkscape:collect="always"
       xlink:href="#linearGradient4"
       id="radialGradient20"
       gradientUnits="userSpaceOnUse"
       gradientTransform="matrix(-0.01031383,11.991438,-17.967296,-0.01545561,1.7353715,64.305742)"
       cx="-4.4236727"
       cy="-0.55004197"
       fx="-4.4236727"
       fy="-0.55004197"
       r="0.39687499" />
    <radialGradient
       inkscape:collect="always"
       xlink:href="#cornerBevel"
       id="radialGradient25"
       gradientUnits="userSpaceOnUse"
       gradientTransform="matrix(12.184614,0,0,12.184614,59.63122,10.377613)"
       cx="-4.4568658"
       cy="-0.44864327"
       fx="-4.4568658"
       fy="-0.44864327"
       r="0.39687496" />
    <linearGradient
       inkscape:collect="always"
       xlink:href="#bevel"
       id="linearGradient25"
       gradientUnits="userSpaceOnUse"
       x1="-3.8487544"
       y1="-1.146081"
       x2="-3.8455966"
       y2="-0.890971"
       gradientTransform="matrix(6.0923077,0,0,6.0923077,32.228528,7.1537627)" />
    <radialGradient
       inkscape:collect="always"
       xlink:href="#cornerBevel"
       id="radialGradient29"
       gradientUnits="userSpaceOnUse"
       gradientTransform="matrix(0,-12.184614,12.184614,0,11.27353,-44.427768)"
       cx="-4.5705457"
       cy="-0.48653662"
       fx="-4.5705457"
       fy="-0.48653662"
       r="0.39687496" />
    <radialGradient
       inkscape:collect="always"
       xlink:href="#cornerBevel"
       id="radialGradient30"
       gradientUnits="userSpaceOnUse"
       gradientTransform="matrix(-12.184514,-0.04945749,0.04847411,-11.942243,-43.502155,3.8519053)"
       cx="-4.5342312"
       cy="-0.60337442"
       fx="-4.5342312"
       fy="-0.60337442"
       r="0.39687496" />
    <radialGradient
       inkscape:collect="always"
       xlink:href="#linearGradient9"
       id="radialGradient31"
       gradientUnits="userSpaceOnUse"
       gradientTransform="matrix(0,-12.151612,11.978956,0,18.475664,-48.770776)"
       cx="-4.4175329"
       cy="-0.56489283"
       fx="-4.4175329"
       fy="-0.56489283"
       r="0.39687496" />
    <linearGradient
       inkscape:collect="always"
       xlink:href="#bevel"
       id="linearGradient34"
       gradientUnits="userSpaceOnUse"
       x1="-3.99717"
       y1="-1.2218677"
       x2="-4.0003276"
       y2="-0.96675771"
       gradientTransform="matrix(6.0923077,0,0,6.0923077,17.025077,8.0496826)" />
    <linearGradient
       inkscape:collect="always"
       xlink:href="#bevel"
       id="linearGradient35"
       gradientUnits="userSpaceOnUse"
       x1="-4.0919032"
       y1="-1.4492278"
       x2="-4.0950613"
       y2="-1.1972755"
       gradientTransform="matrix(6.0923077,0,0,6.0923077,16.129161,-7.1537627)" />
    <linearGradient
       inkscape:collect="always"
       xlink:href="#bevel"
       id="linearGradient36"
       gradientUnits="userSpaceOnUse"
       x1="-3.8734362"
       y1="-1.3717227"
       x2="-3.8765941"
       y2="-1.116071"
       gradientTransform="matrix(6.0923077,0,0,6.0923077,31.33261,-8.0496826)" />
    <linearGradient
       id="paint2_linear_77:3-7"
       x1="79.398094"
       y1="-197.84389"
       x2="82.901054"
       y2="-199.97827"
       gradientUnits="userSpaceOnUse"
       gradientTransform="matrix(1.9248511,0,0,1.7314595,-40.88733,399.61741)">
      <stop
         stop-color="#EBFAFF"
         stop-opacity="0.1"
         id="stop29-5-7"
         offset="0"
         style="stop-color:#c3c3c3;stop-opacity:1;" />
      <stop
         offset="1"
         stop-color="#70A9FF"
         stop-opacity="0.5"
         id="stop30-0-1"
         style="stop-color:#05c7ff;stop-opacity:0.80000001;" />
    </linearGradient>
    <linearGradient
       inkscape:collect="always"
       xlink:href="#linearGradient899"
       id="linearGradient926"
       x1="0.98894888"
       y1="-9.3406019"
       x2="16.919081"
       y2="-9.2251434"
       gradientUnits="userSpaceOnUse"
       gradientTransform="translate(-0.92604234,0.47624996)" />
    <linearGradient
       id="a"
       x1="7.9369998"
       x2="7.9369998"
       y1="15.081"
       y2="1.852"
       gradientTransform="matrix(0.89278359,0,0,0.89278351,0.90778538,0.91466447)"
       gradientUnits="userSpaceOnUse">
      <stop
         offset="0"
         stop-color="#f1efeb"
         id="stop1-3" />
      <stop
         offset="1"
         stop-color="#fff"
         id="stop2-3" />
    </linearGradient>
    <linearGradient
       id="b-3"
       gradientTransform="matrix(0.9444453,0,0,0.94444519,-301.19123,-493.75403)"
       gradientUnits="userSpaceOnUse"
       x1="400.57141"
       x2="400.57141"
       y1="545.79797"
       y2="517.79797">
      <stop
         offset="0"
         stop-color="#eff0f1"
         id="stop7-6" />
      <stop
         offset="1"
         stop-color="#fcfcfc"
         id="stop9-7" />
    </linearGradient>
    <linearGradient
       id="d-9"
       gradientUnits="userSpaceOnUse"
       x1="13.571427"
       x2="13.142856"
       y1="21.285715"
       y2="3.2857144"
       gradientTransform="translate(-2.571427,-2.5714273)">
      <stop
         offset="0"
         stop-color="#788085"
         id="stop17-1" />
      <stop
         offset="1"
         stop-color="#9ba1a6"
         id="stop19-2" />
    </linearGradient>
    <linearGradient
       id="f-9-3"
       gradientUnits="userSpaceOnUse"
       x1="9.1779842"
       x2="11.427132"
       y1="7.534945"
       y2="9.7840929"
       gradientTransform="matrix(0.82283289,0,0,0.85921943,-0.93663235,-1.3146308)">
      <stop
         offset="0"
         id="stop2617-1-6" />
      <stop
         offset="1"
         stop-opacity="0"
         id="stop2619-2-0" />
    </linearGradient>
    <linearGradient
       id="linearGradient1000"
       x1="-25.122"
       x2="-15.582"
       y1="9.3423996"
       y2="9.3423996"
       gradientUnits="userSpaceOnUse"
       gradientTransform="matrix(1.1265644,0,0,1.1265644,30.833983,-2.9272276)">
      <stop
         stop-color="#407fff"
         offset="0"
         id="stop47" />
      <stop
         stop-color="#ff407a"
         offset="1"
         id="stop49" />
    </linearGradient>
    <linearGradient
       id="linearGradient952"
       x1="-20.384001"
       x2="-23.271999"
       y1="6.1331"
       y2="15.312"
       gradientUnits="userSpaceOnUse"
       gradientTransform="matrix(1.1265644,0,0,1.1265644,32.45849,-2.726057)">
      <stop
         stop-color="#232323"
         offset="0"
         id="stop40" />
      <stop
         stop-color="#323296"
         offset=".95004"
         id="stop42" />
      <stop
         stop-color="#232323"
         offset="1"
         id="stop44" />
    </linearGradient>
    <radialGradient
       id="radialGradient123159"
       cx="-24.473"
       cy="9.8347998"
       r="1.5211"
       gradientTransform="matrix(1.472694,0,0,1.472694,43.967571,-6.9281934)"
       gradientUnits="userSpaceOnUse">
      <stop
         stop-color="#291dc0"
         offset="0"
         id="stop29" />
      <stop
         stop-color="#1b1b23"
         offset="1"
         id="stop31" />
    </radialGradient>
    <linearGradient
       id="linearGradient123197"
       x1="-36.117001"
       x2="-33.220001"
       y1="10.638"
       y2="7.7403998"
       gradientUnits="userSpaceOnUse"
       gradientTransform="matrix(1.582147,0,0,1.582147,62.777717,-6.9871742)">
      <stop
         offset="0"
         id="stop35" />
      <stop
         stop-opacity="0"
         offset="1"
         id="stop37" />
    </linearGradient>
    <radialGradient
       id="radialGradient123131"
       cx="-24.473"
       cy="9.8347998"
       r="1.1409"
       gradientTransform="matrix(2.2469652,0,0,1.663153,62.863953,-8.8020552)"
       gradientUnits="userSpaceOnUse"
       xlink:href="#a-9" />
    <linearGradient
       id="a-9"
       x1="23.487"
       x2="23.487"
       y1="15.18"
       y2="32.912998"
       gradientTransform="matrix(0.12676,0,0,0.12676,-27.515,6.7925)"
       gradientUnits="userSpaceOnUse">
      <stop
         stop-color="#141414"
         offset="0"
         id="stop5-3" />
      <stop
         stop-color="#30277f"
         offset="1"
         id="stop7-6-3" />
    </linearGradient>
    <linearGradient
       id="linearGradient123149"
       x1="-24.478001"
       x2="-24.478001"
       y1="11.104"
       y2="8.4912004"
       gradientTransform="matrix(1.582147,0,0,1.582147,46.593934,-8.004653)"
       gradientUnits="userSpaceOnUse">
      <stop
         stop-color="#2d1edc"
         offset="0"
         id="stop22" />
      <stop
         stop-color="#141414"
         offset="1"
         id="stop24" />
    </linearGradient>
    <radialGradient
       id="radialGradient123155"
       cx="-24.473"
       cy="9.8347998"
       r="1.1409"
       gradientTransform="matrix(1.8041223,0,0,1.3354112,52.025763,-5.5780667)"
       gradientUnits="userSpaceOnUse"
       xlink:href="#a-9" />
    <linearGradient
       id="linearGradient123157"
       x1="-24.478001"
       x2="-24.478001"
       y1="11.104"
       y2="8.4912004"
       gradientTransform="matrix(1.2703058,0,0,1.2703058,38.961658,-4.9378192)"
       gradientUnits="userSpaceOnUse"
       xlink:href="#a-9" />
    <radialGradient
       id="c-7"
       cx="24.047001"
       cy="23.948999"
       r="2.9867001"
       gradientTransform="matrix(0.32528943,-5.9392216e-8,4.498202e-8,0.24635611,0.11361948,1.6450199)"
       gradientUnits="userSpaceOnUse">
      <stop
         stop-color="#2839e6"
         offset="0"
         id="stop10-7" />
      <stop
         stop-opacity="0"
         offset="1"
         id="stop12-5" />
    </radialGradient>
    <linearGradient
       id="linearGradient123141"
       x1="-24.485001"
       x2="-24.485001"
       y1="8.6962004"
       y2="9.7505999"
       gradientTransform="matrix(1.582147,0,0,1.582147,46.646147,-8.004653)"
       gradientUnits="userSpaceOnUse"
       xlink:href="#d-6" />
    <linearGradient
       id="d-6"
       x1="361.35999"
       x2="361.35999"
       y1="616.07001"
       y2="722.78998"
       gradientTransform="matrix(0.0040372,0,0,0.0040372,-25.925,7.1257)"
       gradientUnits="userSpaceOnUse">
      <stop
         stop-color="#fff"
         offset="0"
         id="stop15" />
      <stop
         stop-color="#fff"
         stop-opacity="0"
         offset="1"
         id="stop17" />
    </linearGradient>
    <linearGradient
       id="linearGradient123161"
       x1="361.35999"
       x2="361.35999"
       y1="616.07001"
       y2="722.78998"
       gradientTransform="matrix(0.00638745,0,0,0.00638745,5.6274015,3.269252)"
       gradientUnits="userSpaceOnUse"
       xlink:href="#d-6" />
    <linearGradient
       inkscape:collect="always"
       xlink:href="#linearGradient946"
       id="linearGradient948"
       x1="8.9958334"
       y1="2.9104166"
       x2="8.9958334"
       y2="12.964583"
       gradientUnits="userSpaceOnUse" />
    <linearGradient
       inkscape:collect="always"
       id="linearGradient946">
      <stop
         style="stop-color:#b380ff;stop-opacity:1"
         offset="0"
         id="stop942" />
      <stop
         style="stop-color:#3771c8;stop-opacity:1"
         offset="1"
         id="stop944" />
    </linearGradient>
  </defs>
  <sodipodi:namedview
     id="base"
     pagecolor="#e2e2e2"
     bordercolor="#666666"
     borderopacity="1.0"
     inkscape:pageopacity="0"
     inkscape:pageshadow="2"
     inkscape:zoom="9.7248728"
     inkscape:cx="32.905315"
     inkscape:cy="32.493998"
     inkscape:document-units="px"
     inkscape:current-layer="layer1"
     inkscape:document-rotation="0"
     showgrid="true"
     units="px"
     inkscape:window-width="1920"
     inkscape:window-height="990"
     inkscape:window-x="0"
     inkscape:window-y="0"
     inkscape:window-maximized="1"
     inkscape:object-paths="true"
     inkscape:snap-grids="true"
     inkscape:snap-intersection-paths="true"
     inkscape:snap-smooth-nodes="true"
     inkscape:snap-midpoints="true"
     inkscape:showpageshadow="2"
     inkscape:pagecheckerboard="0"
     inkscape:deskcolor="#d1d1d1">
    <inkscape:grid
       id="grid2"
       units="px"
       originx="0"
       originy="0"
       spacingx="0.26458333"
       spacingy="0.26458333"
       empcolor="#0099e5"
       empopacity="0.30196078"
       color="#0099e5"
       opacity="0.14902"
       empspacing="5"
       dotted="false"
       gridanglex="30"
       gridanglez="30"
       visible="true" />
  </sodipodi:namedview>
  <metadata
     id="metadata1111">
    <rdf:RDF>
      <cc:Work
         rdf:about="">
        <dc:format>image/svg+xml</dc:format>
        <dc:type
           rdf:resource="http://purl.org/dc/dcmitype/StillImage" />
      </cc:Work>
    </rdf:RDF>
  </metadata>
  <g
     inkscape:label="Layer 1"
     inkscape:groupmode="layer"
     id="layer1">
    <g
       id="g918"
       transform="translate(0.47625037,0.92604234)">
      <rect
         ry="4.8357682"
         rx="4.8357682"
         style="fill:url(#linearGradient926);fill-opacity:1;stroke-width:6.09228"
         x="0.13229237"
         y="-16.457085"
         width="15.875001"
         height="15.875001"
         id="use1056"
         transform="rotate(90)"
         class="ColorScheme-Highlight" />
      <path
         d="m 5.344583,0.13229167 c -2.6384245,0 -4.76249953,2.12407483 -4.76249953,4.76249963 H 5.344583 Z"
         style="opacity:0.15;fill:url(#radialGradient25);fill-opacity:1;stroke-width:6.09228"
         id="path20" />
      <rect
         y="0.13229151"
         x="5.3445826"
         height="1.5875"
         width="6.3500004"
         id="rect20"
         style="opacity:0.15;fill:url(#linearGradient25);fill-opacity:1;stroke-width:4.83577;stroke-linecap:round;stroke-linejoin:round;paint-order:stroke fill markers" />
      <path
         d="m 0.58208347,11.244792 c 0,2.638424 2.12407503,4.762499 4.76249953,4.762499 v -4.762499 z"
         style="opacity:0.15;fill:url(#radialGradient29);fill-opacity:1;stroke-width:6.09228"
         id="use20" />
      <rect
         y="0.5820834"
         x="-11.244792"
         height="1.5875"
         width="6.3500004"
         id="use21"
         style="opacity:0.15;fill:url(#linearGradient34);fill-opacity:1;stroke-width:4.83577;stroke-linecap:round;stroke-linejoin:round;paint-order:stroke fill markers"
         transform="rotate(-90)" />
      <path
         d="m 11.694583,16.007291 c 2.638425,0 4.7625,-2.124074 4.7625,-4.762499 h -4.7625 z"
         style="opacity:0.15;fill:url(#radialGradient30);fill-opacity:1;stroke-width:6.09228"
         id="use22" />
      <rect
         y="-16.007292"
         x="-11.694584"
         height="1.5875"
         width="6.3500004"
         id="use23"
         style="opacity:0.15;fill:url(#linearGradient35);fill-opacity:1;stroke-width:4.83577;stroke-linecap:round;stroke-linejoin:round;paint-order:stroke fill markers"
         transform="scale(-1)" />
      <path
         d="m 16.457083,4.8947913 c 0,-2.6384245 -2.124074,-4.76249963 -4.7625,-4.76249963 V 4.8947913 Z"
         style="opacity:0.15;fill:url(#radialGradient31);fill-opacity:1;stroke-width:6.09228"
         id="use24" />
      <rect
         y="-16.457081"
         x="4.8947906"
         height="1.5875"
         width="6.3500004"
         id="use25"
         style="opacity:0.15;fill:url(#linearGradient36);fill-opacity:1;stroke-width:4.83577;stroke-linecap:round;stroke-linejoin:round;paint-order:stroke fill markers"
         transform="rotate(90)" />
      <path
         d="m 5.3445832,0.13229107 c -2.638425,0 -4.76250035,2.12407473 -4.76250035,4.76249973 H 5.3445832 Z"
         style="opacity:0.5;fill:url(#radialGradient15);fill-opacity:1;stroke-width:6.09228"
         id="path14" />
      <rect
         y="0.1322909"
         x="5.3445826"
         height="1.5875"
         width="6.3499999"
         id="rect14"
         style="opacity:0.5;fill:url(#linearGradient15);fill-opacity:1;stroke-width:4.83577;stroke-linecap:round;stroke-linejoin:round;paint-order:stroke fill markers" />
      <path
         d="m 11.694583,0.13229096 c 2.638425,0 4.7625,2.12407504 4.7625,4.76249734 h -4.7625 z"
         style="opacity:0.5;fill:url(#radialGradient17);fill-opacity:1;stroke-width:6.09228"
         id="use14" />
      <path
         id="path17"
         style="opacity:0.5;fill:url(#radialGradient18);fill-opacity:1;stroke-width:6.09228"
         d="m 5.3445834,16.00729 c -2.638425,0 -4.7625,-2.124075 -4.7625,-4.7625 h 4.7625 z" />
      <rect
         style="opacity:0.5;fill:url(#linearGradient18);fill-opacity:1;stroke-width:4.83577;stroke-linecap:round;stroke-linejoin:round;paint-order:stroke fill markers"
         id="rect17"
         width="6.3499994"
         height="1.5874999"
         x="5.3445826"
         y="-16.007292"
         transform="scale(1,-1)" />
      <path
         id="use17"
         style="opacity:0.5;fill:url(#radialGradient20);fill-opacity:1;stroke-width:6.09228"
         d="m 11.694582,16.007291 c 2.638425,0 4.7625,-2.124075 4.7625,-4.7625 h -4.7625 z" />
    </g>
    <rect
       width="13.229166"
       height="13.229165"
       x="2.3812497"
       y="2.3812501"
       fill="url(#a)"
       rx="3.6849496"
       ry="3.7431052"
       id="rect2"
       style="fill:url(#a);stroke-width:0.264582" />
    <ellipse
       opacity="0.4"
       cx="9.1308203"
       cy="9.0401888"
       rx="3.8148015"
       ry="3.9045646"
       fill="url(#paint0_linear_69_230)"
       id="ellipse2"
       style="opacity:0.64951;fill:#80b3ff;fill-opacity:0.523952;stroke-width:0.264583" />
    <path
       d="m 9.6490598,8.9953111 -0.652874,0.6644593 2.6004572,2.4394336 0.655231,-0.664465 z"
       id="path4"
       style="fill:#c83771;stroke-width:0.264583" />
    <path
       fill-rule="evenodd"
       clip-rule="evenodd"
       d="m 8.4814781,3.9945061 c 0.1754987,-0.01776 0.3518903,-0.026476 0.5282748,-0.02571 0.1677299,6.208e-4 0.3352668,0.00973 0.5020924,0.02712 0.052669,0.00563 0.1020213,0.02831 0.1403432,0.064855 0.03838,0.036545 0.063442,0.084771 0.071457,0.1371141 l 0.087862,0.575048 c 0.022321,0.00413 0.044821,0.00805 0.067242,0.011931 0.077276,0.013534 0.1545735,0.027085 0.2305765,0.046518 0.0021,3.052e-4 0.0031,6.15e-4 0.0043,9.498e-4 0.07794,0.02129 0.154022,0.048443 0.230098,0.075574 0.01995,0.00712 0.03985,0.014204 0.05972,0.021201 l 0.359813,-0.4497605 c 0.03312,-0.041365 0.0791,-0.07055 0.13062,-0.082992 0.05142,-0.012428 0.105719,-0.00736 0.154094,0.014262 0.314662,0.1407346 0.614047,0.3132269 0.893379,0.515205 0.04298,0.03106 0.07436,0.075504 0.08936,0.1263552 0.0149,0.050861 0.01267,0.1052438 -0.0063,0.1546299 l -0.213719,0.5488667 c 0.151229,0.132198 0.292221,0.2748719 0.423587,0.4268448 l 0.552458,-0.2155303 c 0.04921,-0.019195 0.103487,-0.021531 0.154297,-0.00663 0.05074,0.014891 0.09506,0.046161 0.126203,0.088935 0.202226,0.2788399 0.375465,0.5778041 0.516568,0.8920272 0.02167,0.048373 0.02677,0.102569 0.0142,0.1541004 -0.01252,0.051522 -0.04157,0.097471 -0.08304,0.1306183 L 13.051378,7.597704 c 0.06517,0.1897617 0.11696,0.3831944 0.155205,0.5801909 l 0.58903,0.090244 c 0.0524,0.00807 0.10071,0.033222 0.137242,0.071631 0.0365,0.038422 0.05932,0.087886 0.06478,0.1406272 0.03477,0.342606 0.03445,0.6879105 -0.0021,1.03042 -0.0057,0.0526 -0.02826,0.1019034 -0.06465,0.1402233 -0.0364,0.03836 -0.08456,0.063472 -0.136795,0.071587 l -0.57571,0.088376 c -0.0046,0.022234 -0.0081,0.044465 -0.01189,0.066719 v 1.82e-4 c -0.01344,0.077226 -0.02711,0.1544646 -0.0466,0.2304026 l -0.0016,0.0031 -0.0011,0.0022 c -0.02093,0.0769 -0.0478,0.151947 -0.07463,0.226994 -0.0075,0.02108 -0.01512,0.04221 -0.02246,0.06332 l 0.449742,0.360454 c 0.04127,0.03309 0.07033,0.07897 0.08285,0.130426 0.01246,0.05138 0.0074,0.10552 -0.01406,0.153843 -0.140746,0.314687 -0.313265,0.614081 -0.515221,0.893436 -0.03108,0.04295 -0.07547,0.07435 -0.126384,0.08938 -0.05082,0.01493 -0.1052,0.01269 -0.154569,-0.0065 l -0.548143,-0.21407 c -0.132045,0.151138 -0.274384,0.29229 -0.426272,0.423545 l 0.215532,0.552665 c 0.01941,0.04923 0.02169,0.10367 0.0066,0.154478 -0.01481,0.0509 -0.04621,0.09533 -0.08911,0.126471 -0.278983,0.202232 -0.57808,0.375015 -0.892457,0.516122 -0.04831,0.02168 -0.10256,0.02682 -0.154084,0.01426 -0.05143,-0.01243 -0.09741,-0.04159 -0.130571,-0.08295 l -0.371481,-0.46396 c -0.189597,0.06517 -0.382865,0.116964 -0.5796932,0.1552 l -0.090683,0.589097 c -0.00832,0.05233 -0.033323,0.100438 -0.071704,0.136973 -0.03847,0.0364 -0.087822,0.05912 -0.1405025,0.06452 -0.3424205,0.03473 -0.6875788,0.03437 -1.0299052,-0.0019 -0.05258,-0.0057 -0.1018925,-0.02821 -0.1402136,-0.06464 -0.038378,-0.0364 -0.06346,-0.08453 -0.071565,-0.136855 l -0.088241,-0.575464 c -0.02251,-0.0047 -0.045147,-0.0083 -0.067837,-0.01213 -0.077106,-0.01341 -0.1541674,-0.02697 -0.2299655,-0.04633 l -0.00226,-0.0012 -0.00236,-7.34e-4 c -0.077216,-0.02105 -0.1524381,-0.0479 -0.2277434,-0.07475 -0.020729,-0.0074 -0.041319,-0.01471 -0.062155,-0.02196 l -0.3603758,0.44975 c -0.033107,0.04126 -0.078987,0.07033 -0.1304114,0.08285 -0.051372,0.01239 -0.1054999,0.0075 -0.1538095,-0.0141 -0.3146684,-0.140762 -0.6140374,-0.313284 -0.893389,-0.51524 -0.042951,-0.03105 -0.074347,-0.07547 -0.089356,-0.12639 -0.014892,-0.05084 -0.012646,-0.105193 0.00642,-0.15456 l 0.214003,-0.548782 C 6.0298929,12.102574 5.8885702,11.960267 5.7571647,11.808335 l -0.5525836,0.215528 c -0.049273,0.01937 -0.1036854,0.0217 -0.1545229,0.0068 -0.050846,-0.01484 -0.095312,-0.04622 -0.1264433,-0.08912 -0.2023406,-0.278991 -0.3751097,-0.578099 -0.516203,-0.892485 -0.021749,-0.04839 -0.026952,-0.10273 -0.014456,-0.154367 0.012486,-0.05158 0.041597,-0.09764 0.083152,-0.130825 L 4.9402948,10.392349 C 4.8753974,10.202854 4.8235597,10.009609 4.7854038,9.8127555 L 4.1964682,9.722479 C 4.1440572,9.714269 4.0957769,9.689293 4.0592329,9.650854 4.0226629,9.612404 3.9999359,9.562992 3.9944439,9.5102191 c -0.034759,-0.34261 -0.034432,-0.6879155 0.00208,-1.0304115 0.00565,-0.052608 0.028229,-0.1019142 0.06471,-0.1402239 0.036401,-0.038318 0.084548,-0.063482 0.1368118,-0.071567 l 0.5755434,-0.0884 c 0.00466,-0.022267 0.00812,-0.044569 0.011924,-0.066859 0.013544,-0.077241 0.027132,-0.1545311 0.046573,-0.230486 2.868e-4,-0.00127 0.0018,-0.00245 0.00206,-0.00368 0.020897,-0.07656 0.047663,-0.1512547 0.074494,-0.2259528 0.00772,-0.02127 0.015387,-0.042605 0.022667,-0.063908 L 4.480401,7.227926 C 4.439141,7.194805 4.410072,7.148945 4.397565,7.0975133 4.385113,7.0460883 4.390245,6.9919907 4.41166,6.9436734 4.5523881,6.6289921 4.724882,6.3295978 4.9268505,6.0502461 c 0.031057,-0.042961 0.075504,-0.074381 0.1263426,-0.089363 0.050866,-0.014974 0.1052389,-0.012651 0.1546168,0.00662 L 5.7571568,6.1816325 C 5.8893487,6.0304147 6.0316818,5.8892672 6.1835776,5.757984 L 5.9680538,5.2053804 c -0.019413,-0.049332 -0.021679,-0.1036822 -0.00653,-0.1545311 0.014822,-0.050847 0.046247,-0.095317 0.089109,-0.1264451 0.2789775,-0.202265 0.5780713,-0.3750355 0.8924541,-0.5161381 0.048335,-0.021696 0.1025583,-0.02671 0.1540825,-0.014258 0.051492,0.012427 0.097481,0.041617 0.130622,0.082983 L 7.5994548,4.940773 C 7.7890133,4.875582 7.9822818,4.8237516 8.1791071,4.7855589 l 0.090654,-0.589546 c 0.00822,-0.052333 0.033363,-0.1005039 0.071724,-0.1369658 0.03845,-0.036453 0.087822,-0.059158 0.1405065,-0.064539 z m 0.5147077,8.5912069 c 0.9880757,0 1.8829402,-0.399121 2.5321382,-1.04496 2.05e-4,-1.67e-4 0.0012,-5.17e-4 0.0018,-7.71e-4 0.653297,-0.650204 1.057652,-1.5503007 1.057652,-2.5448435 0,-1.8206213 -1.355089,-3.3247487 -3.1117067,-3.5587714 v 2.8186984 c 0.3707936,0.1701852 0.6283047,0.5447472 0.6283047,0.979453 0,0.5948727 -0.4822395,1.0771215 -1.0771217,1.0771215 -0.5948761,0 -1.0771194,-0.4822488 -1.0771194,-1.0771215 0,-0.4347058 0.2575108,-0.8092678 0.6283193,-0.979453 V 5.4289206 C 6.7928857,5.6363653 5.4069463,7.1539303 5.4069463,8.9951503 c 0,1.9829237 1.6074771,3.5904097 3.5904011,3.5904097 z"
       id="path6"
       style="fill:url(#linearGradient948);fill-opacity:1;stroke-width:1" />
  </g>
</svg>
