<?xml version="1.0" encoding="UTF-8" standalone="no"?>
<svg
   width="68"
   height="68"
   viewBox="0 0 17.991665 17.991665"
   version="1.1"
   id="svg1114"
   inkscape:version="1.3.2 (091e20ef0f, 2023-11-25)"
   sodipodi:docname="keepass.svg"
   xmlns:inkscape="http://www.inkscape.org/namespaces/inkscape"
   xmlns:sodipodi="http://sodipodi.sourceforge.net/DTD/sodipodi-0.dtd"
   xmlns:xlink="http://www.w3.org/1999/xlink"
   xmlns="http://www.w3.org/2000/svg"
   xmlns:svg="http://www.w3.org/2000/svg"
   xmlns:rdf="http://www.w3.org/1999/02/22-rdf-syntax-ns#"
   xmlns:cc="http://creativecommons.org/ns#"
   xmlns:dc="http://purl.org/dc/elements/1.1/">
  <style
     type="text/css"
     id="current-color-scheme">.ColorScheme-Highlight { color:#5599ff; }
</style>
  <defs
     id="defs1108">
    <linearGradient
       id="linearGradient12"
       inkscape:collect="always">
      <stop
         style="stop-color:#ffffff;stop-opacity:0;"
         offset="0"
         id="stop10" />
      <stop
         id="stop11"
         offset="0.65909404"
         style="stop-color:#ffffff;stop-opacity:0" />
      <stop
         style="stop-color:#ffffff;stop-opacity:1;"
         offset="1"
         id="stop12" />
    </linearGradient>
    <linearGradient
       id="linearGradient9"
       inkscape:collect="always">
      <stop
         style="stop-color:#000000;stop-opacity:0;"
         offset="0"
         id="stop1" />
      <stop
         id="stop8"
         offset="0.66102529"
         style="stop-color:#000000;stop-opacity:0" />
      <stop
         style="stop-color:#000000;stop-opacity:1;"
         offset="1"
         id="stop9" />
    </linearGradient>
    <linearGradient
       id="linearGradient7"
       inkscape:collect="always">
      <stop
         style="stop-color:#000000;stop-opacity:0;"
         offset="0"
         id="stop5" />
      <stop
         id="stop6"
         offset="0.6586886"
         style="stop-color:#000000;stop-opacity:0" />
      <stop
         style="stop-color:#000000;stop-opacity:1;"
         offset="1"
         id="stop7" />
    </linearGradient>
    <linearGradient
       id="linearGradient4"
       inkscape:collect="always">
      <stop
         style="stop-color:#000000;stop-opacity:0;"
         offset="0"
         id="stop2" />
      <stop
         id="stop3"
         offset="0.67055255"
         style="stop-color:#000000;stop-opacity:0" />
      <stop
         style="stop-color:#000000;stop-opacity:1;"
         offset="1"
         id="stop4" />
    </linearGradient>
    <linearGradient
       inkscape:collect="always"
       id="linearGradient899">
      <stop
         style="stop-color:#2ad58e;stop-opacity:1;"
         offset="0"
         id="stop895" />
      <stop
         style="stop-color:#21ab71;stop-opacity:1;"
         offset="1"
         id="stop897" />
    </linearGradient>
    <linearGradient
       id="linearGradient1167"
       x1="40.751999"
       x2="40.751999"
       y1="28.507999"
       y2="17.205999"
       gradientUnits="userSpaceOnUse">
      <stop
         style="stop-color:#84fb6e;stop-opacity:1"
         stop-color="#0ab816"
         offset="0"
         id="stop1163" />
      <stop
         style="stop-color:#0dd41a;stop-opacity:1"
         stop-color="#0cf36c"
         offset="1"
         id="stop1165" />
    </linearGradient>
    <linearGradient
       id="cornerBevel"
       inkscape:collect="always">
      <stop
         style="stop-color:#000000;stop-opacity:0;"
         offset="0"
         id="stop2663" />
      <stop
         id="stop2671"
         offset="0.66666675"
         style="stop-color:#000000;stop-opacity:0" />
      <stop
         style="stop-color:#000000;stop-opacity:1;"
         offset="1"
         id="stop2661" />
    </linearGradient>
    <linearGradient
       id="bevel"
       inkscape:collect="always">
      <stop
         id="stop2685"
         offset="0"
         style="stop-color:#000000;stop-opacity:1;" />
      <stop
         id="stop2687"
         offset="1"
         style="stop-color:#000000;stop-opacity:0;" />
    </linearGradient>
    <linearGradient
       id="highlightCorner"
       inkscape:collect="always">
      <stop
         style="stop-color:#ffffff;stop-opacity:0;"
         offset="0"
         id="stop2613" />
      <stop
         id="stop2621"
         offset="0.66666669"
         style="stop-color:#ffffff;stop-opacity:0" />
      <stop
         style="stop-color:#ffffff;stop-opacity:1;"
         offset="1"
         id="stop2611" />
    </linearGradient>
    <linearGradient
       inkscape:collect="always"
       id="highlight">
      <stop
         style="stop-color:#ffffff;stop-opacity:1;"
         offset="0"
         id="stop2921" />
      <stop
         style="stop-color:#ffffff;stop-opacity:0;"
         offset="1"
         id="stop2923" />
    </linearGradient>
    <radialGradient
       inkscape:collect="always"
       xlink:href="#highlightCorner"
       id="radialGradient15"
       gradientUnits="userSpaceOnUse"
       gradientTransform="matrix(0.04294597,-12.079348,17.933991,0.06376112,14.524179,-50.373789)"
       cx="-4.5799766"
       cy="-0.50206107"
       fx="-4.5799766"
       fy="-0.50206107"
       r="0.39687499" />
    <linearGradient
       inkscape:collect="always"
       xlink:href="#highlight"
       id="linearGradient15"
       gradientUnits="userSpaceOnUse"
       x1="-3.8453064"
       y1="-1.1532172"
       x2="-3.8453064"
       y2="-0.8954913"
       gradientTransform="matrix(6.0923077,0,0,6.0923077,32.228528,7.1537621)" />
    <radialGradient
       inkscape:collect="always"
       xlink:href="#linearGradient12"
       id="radialGradient17"
       gradientUnits="userSpaceOnUse"
       gradientTransform="matrix(-0.02247554,-12.045403,-17.967828,0.03352619,1.6640208,-50.22331)"
       cx="-4.575222"
       cy="-0.55256462"
       fx="-4.575222"
       fy="-0.55256462"
       r="0.39687499" />
    <radialGradient
       inkscape:collect="always"
       xlink:href="#linearGradient7"
       id="radialGradient18"
       gradientUnits="userSpaceOnUse"
       gradientTransform="matrix(0.06461187,12.09952,17.933731,-0.09576873,14.609502,64.748231)"
       cx="-4.4284906"
       cy="-0.50121039"
       fx="-4.4284906"
       fy="-0.50121039"
       r="0.39687499" />
    <linearGradient
       inkscape:collect="always"
       xlink:href="#bevel"
       id="linearGradient18"
       gradientUnits="userSpaceOnUse"
       x1="-3.8415797"
       y1="-1.4506671"
       x2="-3.8406549"
       y2="-1.1968651"
       gradientTransform="matrix(6.0923076,0,0,6.0923076,32.228527,-7.1537627)" />
    <radialGradient
       inkscape:collect="always"
       xlink:href="#linearGradient4"
       id="radialGradient20"
       gradientUnits="userSpaceOnUse"
       gradientTransform="matrix(-0.01031383,11.991438,-17.967296,-0.01545561,1.7353715,64.305742)"
       cx="-4.4236727"
       cy="-0.55004197"
       fx="-4.4236727"
       fy="-0.55004197"
       r="0.39687499" />
    <radialGradient
       inkscape:collect="always"
       xlink:href="#cornerBevel"
       id="radialGradient25"
       gradientUnits="userSpaceOnUse"
       gradientTransform="matrix(12.184614,0,0,12.184614,59.63122,10.377613)"
       cx="-4.4568658"
       cy="-0.44864327"
       fx="-4.4568658"
       fy="-0.44864327"
       r="0.39687496" />
    <linearGradient
       inkscape:collect="always"
       xlink:href="#bevel"
       id="linearGradient25"
       gradientUnits="userSpaceOnUse"
       x1="-3.8487544"
       y1="-1.146081"
       x2="-3.8455966"
       y2="-0.890971"
       gradientTransform="matrix(6.0923077,0,0,6.0923077,32.228528,7.1537627)" />
    <radialGradient
       inkscape:collect="always"
       xlink:href="#cornerBevel"
       id="radialGradient29"
       gradientUnits="userSpaceOnUse"
       gradientTransform="matrix(0,-12.184614,12.184614,0,11.27353,-44.427768)"
       cx="-4.5705457"
       cy="-0.48653662"
       fx="-4.5705457"
       fy="-0.48653662"
       r="0.39687496" />
    <radialGradient
       inkscape:collect="always"
       xlink:href="#cornerBevel"
       id="radialGradient30"
       gradientUnits="userSpaceOnUse"
       gradientTransform="matrix(-12.184514,-0.04945749,0.04847411,-11.942243,-43.502155,3.8519053)"
       cx="-4.5342312"
       cy="-0.60337442"
       fx="-4.5342312"
       fy="-0.60337442"
       r="0.39687496" />
    <radialGradient
       inkscape:collect="always"
       xlink:href="#linearGradient9"
       id="radialGradient31"
       gradientUnits="userSpaceOnUse"
       gradientTransform="matrix(0,-12.151612,11.978956,0,18.475664,-48.770776)"
       cx="-4.4175329"
       cy="-0.56489283"
       fx="-4.4175329"
       fy="-0.56489283"
       r="0.39687496" />
    <linearGradient
       inkscape:collect="always"
       xlink:href="#bevel"
       id="linearGradient34"
       gradientUnits="userSpaceOnUse"
       x1="-3.99717"
       y1="-1.2218677"
       x2="-4.0003276"
       y2="-0.96675771"
       gradientTransform="matrix(6.0923077,0,0,6.0923077,17.025077,8.0496826)" />
    <linearGradient
       inkscape:collect="always"
       xlink:href="#bevel"
       id="linearGradient35"
       gradientUnits="userSpaceOnUse"
       x1="-4.0919032"
       y1="-1.4492278"
       x2="-4.0950613"
       y2="-1.1972755"
       gradientTransform="matrix(6.0923077,0,0,6.0923077,16.129161,-7.1537627)" />
    <linearGradient
       inkscape:collect="always"
       xlink:href="#bevel"
       id="linearGradient36"
       gradientUnits="userSpaceOnUse"
       x1="-3.8734362"
       y1="-1.3717227"
       x2="-3.8765941"
       y2="-1.116071"
       gradientTransform="matrix(6.0923077,0,0,6.0923077,31.33261,-8.0496826)" />
    <linearGradient
       id="paint2_linear_77:3-7"
       x1="79.398094"
       y1="-197.84389"
       x2="82.901054"
       y2="-199.97827"
       gradientUnits="userSpaceOnUse"
       gradientTransform="matrix(1.9248511,0,0,1.7314595,-40.88733,399.61741)">
      <stop
         stop-color="#EBFAFF"
         stop-opacity="0.1"
         id="stop29-5-7"
         offset="0"
         style="stop-color:#c3c3c3;stop-opacity:1;" />
      <stop
         offset="1"
         stop-color="#70A9FF"
         stop-opacity="0.5"
         id="stop30-0-1"
         style="stop-color:#05c7ff;stop-opacity:0.80000001;" />
    </linearGradient>
    <linearGradient
       inkscape:collect="always"
       xlink:href="#linearGradient899"
       id="linearGradient926"
       x1="1.1521901"
       y1="-9.3133945"
       x2="16.919081"
       y2="-9.2251434"
       gradientUnits="userSpaceOnUse"
       gradientTransform="translate(-0.92604234,0.47624996)" />
    <linearGradient
       id="s"
       x1="-1129.7"
       x2="-1106.6"
       y1="944.53003"
       y2="962.73999"
       gradientTransform="matrix(0,0.33027506,0.34249609,0,-318.20579,377.70211)"
       gradientUnits="userSpaceOnUse">
      <stop
         stop-color="#BFBFBF"
         offset="0"
         id="stop5-6" />
      <stop
         stop-color="#fff"
         offset=".5"
         id="stop6-7" />
      <stop
         stop-color="#BFBFBF"
         offset="1"
         id="stop7-3" />
    </linearGradient>
    <linearGradient
       id="r"
       x1="-1196.7"
       x2="-1197.3"
       y1="860.46002"
       y2="818.53998"
       gradientTransform="matrix(0.10799212,0,0,0.10414376,1.5565706,1.7949998)"
       gradientUnits="userSpaceOnUse">
      <stop
         stop-color="#323232"
         offset="0"
         id="stop8-5"
         style="stop-color:#000000;stop-opacity:1;" />
      <stop
         offset="1"
         id="stop9-6" />
    </linearGradient>
    <linearGradient
       inkscape:collect="always"
       xlink:href="#linearGradient4153"
       id="linearGradient1468"
       gradientUnits="userSpaceOnUse"
       gradientTransform="matrix(0.27781265,0,0,0.27781265,5.1863837,7.3391031)"
       x1="11.663"
       y1="13.65"
       x2="9.6639996"
       y2="5.8860002" />
    <linearGradient
       id="linearGradient4153">
      <stop
         style="stop-color:#bf4231;stop-opacity:1"
         offset="0"
         id="stop4155" />
      <stop
         style="stop-color:#e05e4c;stop-opacity:1"
         offset="1"
         id="stop4157" />
    </linearGradient>
  </defs>
  <sodipodi:namedview
     id="base"
     pagecolor="#e2e2e2"
     bordercolor="#666666"
     borderopacity="1.0"
     inkscape:pageopacity="0"
     inkscape:pageshadow="2"
     inkscape:zoom="9.7248729"
     inkscape:cx="32.596827"
     inkscape:cy="31.774194"
     inkscape:document-units="px"
     inkscape:current-layer="layer1"
     inkscape:document-rotation="0"
     showgrid="true"
     units="px"
     inkscape:window-width="1920"
     inkscape:window-height="990"
     inkscape:window-x="0"
     inkscape:window-y="0"
     inkscape:window-maximized="1"
     inkscape:object-paths="true"
     inkscape:snap-grids="true"
     inkscape:snap-intersection-paths="true"
     inkscape:snap-smooth-nodes="true"
     inkscape:snap-midpoints="true"
     inkscape:showpageshadow="2"
     inkscape:pagecheckerboard="0"
     inkscape:deskcolor="#d1d1d1">
    <inkscape:grid
       id="grid2"
       units="px"
       originx="0"
       originy="0"
       spacingx="0.26458333"
       spacingy="0.26458333"
       empcolor="#0099e5"
       empopacity="0.30196078"
       color="#0099e5"
       opacity="0.14902"
       empspacing="5"
       dotted="false"
       gridanglex="30"
       gridanglez="30"
       visible="true" />
  </sodipodi:namedview>
  <metadata
     id="metadata1111">
    <rdf:RDF>
      <cc:Work
         rdf:about="">
        <dc:format>image/svg+xml</dc:format>
        <dc:type
           rdf:resource="http://purl.org/dc/dcmitype/StillImage" />
      </cc:Work>
    </rdf:RDF>
  </metadata>
  <g
     inkscape:label="Layer 1"
     inkscape:groupmode="layer"
     id="layer1">
    <g
       id="g918"
       transform="translate(0.47625037,0.92604234)">
      <rect
         ry="4.8357682"
         rx="4.8357682"
         style="fill:url(#linearGradient926);fill-opacity:1;stroke-width:6.09228"
         x="0.13229237"
         y="-16.457085"
         width="15.875001"
         height="15.875001"
         id="use1056"
         transform="rotate(90)"
         class="ColorScheme-Highlight" />
      <path
         d="m 5.344583,0.13229167 c -2.6384245,0 -4.76249953,2.12407483 -4.76249953,4.76249963 H 5.344583 Z"
         style="opacity:0.15;fill:url(#radialGradient25);fill-opacity:1;stroke-width:6.09228"
         id="path20" />
      <rect
         y="0.13229151"
         x="5.3445826"
         height="1.5875"
         width="6.3500004"
         id="rect20"
         style="opacity:0.15;fill:url(#linearGradient25);fill-opacity:1;stroke-width:4.83577;stroke-linecap:round;stroke-linejoin:round;paint-order:stroke fill markers" />
      <path
         d="m 0.58208347,11.244792 c 0,2.638424 2.12407503,4.762499 4.76249953,4.762499 v -4.762499 z"
         style="opacity:0.15;fill:url(#radialGradient29);fill-opacity:1;stroke-width:6.09228"
         id="use20" />
      <rect
         y="0.5820834"
         x="-11.244792"
         height="1.5875"
         width="6.3500004"
         id="use21"
         style="opacity:0.15;fill:url(#linearGradient34);fill-opacity:1;stroke-width:4.83577;stroke-linecap:round;stroke-linejoin:round;paint-order:stroke fill markers"
         transform="rotate(-90)" />
      <path
         d="m 11.694583,16.007291 c 2.638425,0 4.7625,-2.124074 4.7625,-4.762499 h -4.7625 z"
         style="opacity:0.15;fill:url(#radialGradient30);fill-opacity:1;stroke-width:6.09228"
         id="use22" />
      <rect
         y="-16.007292"
         x="-11.694584"
         height="1.5875"
         width="6.3500004"
         id="use23"
         style="opacity:0.15;fill:url(#linearGradient35);fill-opacity:1;stroke-width:4.83577;stroke-linecap:round;stroke-linejoin:round;paint-order:stroke fill markers"
         transform="scale(-1)" />
      <path
         d="m 16.457083,4.8947913 c 0,-2.6384245 -2.124074,-4.76249963 -4.7625,-4.76249963 V 4.8947913 Z"
         style="opacity:0.15;fill:url(#radialGradient31);fill-opacity:1;stroke-width:6.09228"
         id="use24" />
      <rect
         y="-16.457081"
         x="4.8947906"
         height="1.5875"
         width="6.3500004"
         id="use25"
         style="opacity:0.15;fill:url(#linearGradient36);fill-opacity:1;stroke-width:4.83577;stroke-linecap:round;stroke-linejoin:round;paint-order:stroke fill markers"
         transform="rotate(90)" />
      <path
         d="m 5.3445832,0.13229107 c -2.638425,0 -4.76250035,2.12407473 -4.76250035,4.76249973 H 5.3445832 Z"
         style="opacity:0.5;fill:url(#radialGradient15);fill-opacity:1;stroke-width:6.09228"
         id="path14" />
      <rect
         y="0.1322909"
         x="5.3445826"
         height="1.5875"
         width="6.3499999"
         id="rect14"
         style="opacity:0.5;fill:url(#linearGradient15);fill-opacity:1;stroke-width:4.83577;stroke-linecap:round;stroke-linejoin:round;paint-order:stroke fill markers" />
      <path
         d="m 11.694583,0.13229096 c 2.638425,0 4.7625,2.12407504 4.7625,4.76249734 h -4.7625 z"
         style="opacity:0.5;fill:url(#radialGradient17);fill-opacity:1;stroke-width:6.09228"
         id="use14" />
      <path
         id="path17"
         style="opacity:0.5;fill:url(#radialGradient18);fill-opacity:1;stroke-width:6.09228"
         d="m 5.3445834,16.00729 c -2.638425,0 -4.7625,-2.124075 -4.7625,-4.7625 h 4.7625 z" />
      <rect
         style="opacity:0.5;fill:url(#linearGradient18);fill-opacity:1;stroke-width:4.83577;stroke-linecap:round;stroke-linejoin:round;paint-order:stroke fill markers"
         id="rect17"
         width="6.3499994"
         height="1.5874999"
         x="5.3445826"
         y="-16.007292"
         transform="scale(1,-1)" />
      <path
         id="use17"
         style="opacity:0.5;fill:url(#radialGradient20);fill-opacity:1;stroke-width:6.09228"
         d="m 11.694582,16.007291 c 2.638425,0 4.7625,-2.124075 4.7625,-4.7625 h -4.7625 z" />
    </g>
    <path
       style="opacity:0.15;fill:#000000;fill-opacity:1;stroke:none;stroke-width:2.77813;stroke-miterlimit:4;stroke-dasharray:none;stroke-opacity:0.392157"
       d="M 8.4966171,3.1077326 A 0.59905625,0.59194929 0 0 0 7.8975658,3.6996817 0.59905625,0.59194929 0 0 0 8.4966171,4.291631 0.59905625,0.59194929 0 0 0 9.095676,3.6996817 0.59905625,0.59194929 0 0 0 8.4966171,3.1077326 Z M 10.49347,3.502365 A 0.59905625,0.59194929 0 0 0 9.8944173,4.0943146 0.59905625,0.59194929 0 0 0 10.49347,4.686264 0.59905625,0.59194929 0 0 0 11.092527,4.0943146 0.59905625,0.59194929 0 0 0 10.49347,3.502365 Z M 7.2985086,4.291631 A 0.59905625,0.59194929 0 0 0 6.6994485,4.8835805 0.59905625,0.59194929 0 0 0 7.2985086,5.4755296 0.59905625,0.59194929 0 0 0 7.8975658,4.8835805 0.59905625,0.59194929 0 0 0 7.2985086,4.291631 Z M 12.090956,4.686264 A 0.59905625,0.59194929 0 0 0 11.491897,5.2782131 0.59905625,0.59194929 0 0 0 12.090956,5.8701625 0.59905625,0.59194929 0 0 0 12.69001,5.2782131 0.59905625,0.59194929 0 0 0 12.090956,4.686264 Z M 8.0972462,5.8701625 A 0.59905625,0.59194929 0 0 0 7.4981897,6.462112 0.59905625,0.59194929 0 0 0 8.0972462,7.0540604 0.59905625,0.59194929 0 0 0 8.6963021,6.462112 0.59905625,0.59194929 0 0 0 8.0972462,5.8701625 Z M 13.289065,6.2647948 A 0.59905625,0.59194929 0 0 0 12.69001,6.8567445 0.59905625,0.59194929 0 0 0 13.289065,7.4486937 0.59905625,0.59194929 0 0 0 13.888122,6.8567445 0.59905625,0.59194929 0 0 0 13.289065,6.2647948 Z M 9.295363,7.4486937 A 0.59905625,0.59194929 0 0 0 8.6963021,8.0406433 0.59905625,0.59194929 0 0 0 9.295363,8.6325925 0.59905625,0.59194929 0 0 0 9.8944173,8.0406433 0.59905625,0.59194929 0 0 0 9.295363,7.4486937 Z m 4.393074,0.3946332 A 0.59905625,0.59194929 0 0 0 13.089378,8.4352762 0.59905625,0.59194929 0 0 0 13.688437,9.0272246 0.59905625,0.59194929 0 0 0 14.287496,8.4352762 0.59905625,0.59194929 0 0 0 13.688437,7.8433269 Z M 8.0972462,8.6325925 A 0.59905625,0.59194929 0 0 0 7.4981897,9.2245409 0.59905625,0.59194929 0 0 0 8.0972462,9.8164906 0.59905625,0.59194929 0 0 0 8.6963021,9.2245409 0.59905625,0.59194929 0 0 0 8.0972462,8.6325925 Z m 2.7955968,0 a 0.59905625,0.59194929 0 0 0 -0.599058,0.5919484 0.59905625,0.59194929 0 0 0 0.599058,0.5919497 0.59905625,0.59194929 0 0 0 0.599054,-0.5919497 0.59905625,0.59194929 0 0 0 -0.599054,-0.5919484 z m 1.597482,0.7892653 a 0.59905625,0.59194929 0 0 0 -0.599058,0.5919492 0.59905625,0.59194929 0 0 0 0.599058,0.591947 0.59905625,0.59194929 0 0 0 0.599053,-0.591947 0.59905625,0.59194929 0 0 0 -0.599053,-0.5919492 z M 6.8991351,9.8164906 A 0.59905625,0.59194929 0 0 0 6.3000802,10.408437 0.59905625,0.59194929 0 0 0 6.8991351,11.000387 0.59905625,0.59194929 0 0 0 7.4981897,10.408437 0.59905625,0.59194929 0 0 0 6.8991351,9.8164906 Z M 5.7010219,11.000387 a 0.59905625,0.59194929 0 0 0 -0.5990543,0.591952 0.59905625,0.59194929 0 0 0 0.5990543,0.591946 0.59905625,0.59194929 0 0 0 0.5990583,-0.591946 0.59905625,0.59194929 0 0 0 -0.5990583,-0.591952 z m -1.1981102,1.183898 a 0.59905625,0.59194929 0 0 0 -0.5990565,0.591948 0.59905625,0.59194929 0 0 0 0.5990565,0.591953 0.59905625,0.59194929 0 0 0 0.5990559,-0.591953 0.59905625,0.59194929 0 0 0 -0.5990559,-0.591948 z m 1.1981102,1.183901 a 0.59905625,0.59194929 0 0 0 -0.5990543,0.591945 0.59905625,0.59194929 0 0 0 0.5990543,0.59195 0.59905625,0.59194929 0 0 0 0.5990583,-0.59195 0.59905625,0.59194929 0 0 0 -0.5990583,-0.591945 z"
       id="path4342-73-3" />
    <path
       style="fill:#ffffff;fill-opacity:1;stroke:none;stroke-width:2.77813;stroke-miterlimit:4;stroke-dasharray:none;stroke-opacity:0.392157"
       d="M 8.2969352,2.9104164 A 0.59905625,0.59194929 0 0 0 7.697878,3.502365 0.59905625,0.59194929 0 0 0 8.2969352,4.0943146 0.59905625,0.59194929 0 0 0 8.8959911,3.502365 0.59905625,0.59194929 0 0 0 8.2969352,2.9104164 Z M 10.293785,3.3050495 A 0.59905625,0.59194929 0 0 0 9.6947317,3.8969984 0.59905625,0.59194929 0 0 0 10.293785,4.4889474 0.59905625,0.59194929 0 0 0 10.892843,3.8969984 0.59905625,0.59194929 0 0 0 10.293785,3.3050495 Z M 7.0988256,4.0943146 A 0.59905625,0.59194929 0 0 0 6.4997644,4.686264 0.59905625,0.59194929 0 0 0 7.0988256,5.2782131 0.59905625,0.59194929 0 0 0 7.697878,4.686264 0.59905625,0.59194929 0 0 0 7.0988256,4.0943146 Z M 11.891267,4.4889474 A 0.59905625,0.59194929 0 0 0 11.292211,5.0808968 0.59905625,0.59194929 0 0 0 11.891267,5.6728465 0.59905625,0.59194929 0 0 0 12.490325,5.0808968 0.59905625,0.59194929 0 0 0 11.891267,4.4889474 Z M 7.8975658,5.6728465 A 0.59905625,0.59194929 0 0 0 7.2985086,6.2647948 0.59905625,0.59194929 0 0 0 7.8975658,6.8567445 0.59905625,0.59194929 0 0 0 8.4966171,6.2647948 0.59905625,0.59194929 0 0 0 7.8975658,5.6728465 Z M 13.089378,6.0674791 A 0.59905625,0.59194929 0 0 0 12.490325,6.6594277 0.59905625,0.59194929 0 0 0 13.089378,7.2513774 0.59905625,0.59194929 0 0 0 13.688437,6.6594277 0.59905625,0.59194929 0 0 0 13.089378,6.0674791 Z M 9.095676,7.2513774 A 0.59905625,0.59194929 0 0 0 8.4966171,7.8433269 0.59905625,0.59194929 0 0 0 9.095676,8.4352762 0.59905625,0.59194929 0 0 0 9.6947317,7.8433269 0.59905625,0.59194929 0 0 0 9.095676,7.2513774 Z m 4.393076,0.3946327 A 0.59905625,0.59194929 0 0 0 12.889698,8.2379596 0.59905625,0.59194929 0 0 0 13.488752,8.8299092 0.59905625,0.59194929 0 0 0 14.087806,8.2379596 0.59905625,0.59194929 0 0 0 13.488752,7.6460101 Z M 7.8975658,8.4352762 A 0.59905625,0.59194929 0 0 0 7.2985086,9.0272246 0.59905625,0.59194929 0 0 0 7.8975658,9.6191737 0.59905625,0.59194929 0 0 0 8.4966171,9.0272246 0.59905625,0.59194929 0 0 0 7.8975658,8.4352762 Z m 2.7955892,0 a 0.59905625,0.59194929 0 0 0 -0.599053,0.5919484 0.59905625,0.59194929 0 0 0 0.599053,0.5919491 0.59905625,0.59194929 0 0 0 0.599056,-0.5919491 0.59905625,0.59194929 0 0 0 -0.599056,-0.5919484 z m 1.597483,0.7892647 a 0.59905625,0.59194929 0 0 0 -0.599054,0.5919497 0.59905625,0.59194929 0 0 0 0.599054,0.5919464 0.59905625,0.59194929 0 0 0 0.59906,-0.5919464 0.59905625,0.59194929 0 0 0 -0.59906,-0.5919497 z M 6.6994485,9.6191737 a 0.59905625,0.59194929 0 0 0 -0.59905,0.5919473 0.59905625,0.59194929 0 0 0 0.59905,0.591952 A 0.59905625,0.59194929 0 0 0 7.2985086,10.211121 0.59905625,0.59194929 0 0 0 6.6994485,9.6191737 Z M 5.501338,10.803073 A 0.59905625,0.59194929 0 0 0 4.9022798,11.395019 0.59905625,0.59194929 0 0 0 5.501338,11.986972 0.59905625,0.59194929 0 0 0 6.1003985,11.395019 0.59905625,0.59194929 0 0 0 5.501338,10.803073 Z M 4.3032297,11.986972 A 0.59905625,0.59194929 0 0 0 3.7041663,12.57892 0.59905625,0.59194929 0 0 0 4.3032297,13.170867 0.59905625,0.59194929 0 0 0 4.9022798,12.57892 0.59905625,0.59194929 0 0 0 4.3032297,11.986972 Z M 5.501338,13.170867 A 0.59905625,0.59194929 0 0 0 4.9022798,13.762821 0.59905625,0.59194929 0 0 0 5.501338,14.354765 0.59905625,0.59194929 0 0 0 6.1003985,13.762821 0.59905625,0.59194929 0 0 0 5.501338,13.170867 Z"
       id="path4342-6" />
    <path
       style="fill:url(#linearGradient1468);fill-opacity:1;stroke:none;stroke-width:0.555627;stroke-linecap:round;stroke-linejoin:round;stroke-miterlimit:4;stroke-dasharray:none;stroke-opacity:1"
       d="M 8.0009868,11.364524 9.1305804,12.480716 8.0009868,13.596903 8.5657846,14.155 9.695374,13.038808 10.824961,14.155 l 0.564797,-0.558097 -1.12959,-1.116187 1.12959,-1.116192 -0.564797,-0.558098 -1.129587,1.116192 -1.1295894,-1.116192 z"
       id="rect4146-3"
       inkscape:transform-center-x="-1.4619187"
       inkscape:transform-center-y="-9.8231147" />
  </g>
</svg>
