<?xml version="1.0" encoding="UTF-8" standalone="no"?>
<svg
   width="68"
   height="68"
   viewBox="0 0 17.991665 17.991665"
   version="1.1"
   id="svg1114"
   inkscape:version="1.3.2 (091e20ef0f, 2023-11-25)"
   sodipodi:docname="kirogi.svg"
   xmlns:inkscape="http://www.inkscape.org/namespaces/inkscape"
   xmlns:sodipodi="http://sodipodi.sourceforge.net/DTD/sodipodi-0.dtd"
   xmlns:xlink="http://www.w3.org/1999/xlink"
   xmlns="http://www.w3.org/2000/svg"
   xmlns:svg="http://www.w3.org/2000/svg"
   xmlns:rdf="http://www.w3.org/1999/02/22-rdf-syntax-ns#"
   xmlns:cc="http://creativecommons.org/ns#"
   xmlns:dc="http://purl.org/dc/elements/1.1/">
  <style
     type="text/css"
     id="current-color-scheme">.ColorScheme-Highlight { color:#5599ff; }
</style>
  <defs
     id="defs1108">
    <linearGradient
       id="linearGradient12"
       inkscape:collect="always">
      <stop
         style="stop-color:#ffffff;stop-opacity:0;"
         offset="0"
         id="stop10" />
      <stop
         id="stop11"
         offset="0.65909404"
         style="stop-color:#ffffff;stop-opacity:0" />
      <stop
         style="stop-color:#ffffff;stop-opacity:1;"
         offset="1"
         id="stop12" />
    </linearGradient>
    <linearGradient
       id="linearGradient9"
       inkscape:collect="always">
      <stop
         style="stop-color:#000000;stop-opacity:0;"
         offset="0"
         id="stop1" />
      <stop
         id="stop8"
         offset="0.66102529"
         style="stop-color:#000000;stop-opacity:0" />
      <stop
         style="stop-color:#000000;stop-opacity:1;"
         offset="1"
         id="stop9" />
    </linearGradient>
    <linearGradient
       id="linearGradient7"
       inkscape:collect="always">
      <stop
         style="stop-color:#000000;stop-opacity:0;"
         offset="0"
         id="stop5" />
      <stop
         id="stop6"
         offset="0.6586886"
         style="stop-color:#000000;stop-opacity:0" />
      <stop
         style="stop-color:#000000;stop-opacity:1;"
         offset="1"
         id="stop7" />
    </linearGradient>
    <linearGradient
       id="linearGradient4"
       inkscape:collect="always">
      <stop
         style="stop-color:#000000;stop-opacity:0;"
         offset="0"
         id="stop2" />
      <stop
         id="stop3"
         offset="0.67055255"
         style="stop-color:#000000;stop-opacity:0" />
      <stop
         style="stop-color:#000000;stop-opacity:1;"
         offset="1"
         id="stop4" />
    </linearGradient>
    <linearGradient
       inkscape:collect="always"
       id="linearGradient899">
      <stop
         style="stop-color:#b380ff;stop-opacity:1;"
         offset="0"
         id="stop895" />
      <stop
         style="stop-color:#2a7fff;stop-opacity:1;"
         offset="1"
         id="stop897" />
    </linearGradient>
    <linearGradient
       id="linearGradient1167"
       x1="40.751999"
       x2="40.751999"
       y1="28.507999"
       y2="17.205999"
       gradientUnits="userSpaceOnUse">
      <stop
         style="stop-color:#84fb6e;stop-opacity:1"
         stop-color="#0ab816"
         offset="0"
         id="stop1163" />
      <stop
         style="stop-color:#0dd41a;stop-opacity:1"
         stop-color="#0cf36c"
         offset="1"
         id="stop1165" />
    </linearGradient>
    <linearGradient
       id="cornerBevel"
       inkscape:collect="always">
      <stop
         style="stop-color:#000000;stop-opacity:0;"
         offset="0"
         id="stop2663" />
      <stop
         id="stop2671"
         offset="0.66666675"
         style="stop-color:#000000;stop-opacity:0" />
      <stop
         style="stop-color:#000000;stop-opacity:1;"
         offset="1"
         id="stop2661" />
    </linearGradient>
    <linearGradient
       id="bevel"
       inkscape:collect="always">
      <stop
         id="stop2685"
         offset="0"
         style="stop-color:#000000;stop-opacity:1;" />
      <stop
         id="stop2687"
         offset="1"
         style="stop-color:#000000;stop-opacity:0;" />
    </linearGradient>
    <linearGradient
       id="highlightCorner"
       inkscape:collect="always">
      <stop
         style="stop-color:#ffffff;stop-opacity:0;"
         offset="0"
         id="stop2613" />
      <stop
         id="stop2621"
         offset="0.66666669"
         style="stop-color:#ffffff;stop-opacity:0" />
      <stop
         style="stop-color:#ffffff;stop-opacity:1;"
         offset="1"
         id="stop2611" />
    </linearGradient>
    <linearGradient
       inkscape:collect="always"
       id="highlight">
      <stop
         style="stop-color:#ffffff;stop-opacity:1;"
         offset="0"
         id="stop2921" />
      <stop
         style="stop-color:#ffffff;stop-opacity:0;"
         offset="1"
         id="stop2923" />
    </linearGradient>
    <radialGradient
       inkscape:collect="always"
       xlink:href="#highlightCorner"
       id="radialGradient15"
       gradientUnits="userSpaceOnUse"
       gradientTransform="matrix(0.04294597,-12.079348,17.933991,0.06376112,14.524179,-50.373789)"
       cx="-4.5799766"
       cy="-0.50206107"
       fx="-4.5799766"
       fy="-0.50206107"
       r="0.39687499" />
    <linearGradient
       inkscape:collect="always"
       xlink:href="#highlight"
       id="linearGradient15"
       gradientUnits="userSpaceOnUse"
       x1="-3.8453064"
       y1="-1.1532172"
       x2="-3.8453064"
       y2="-0.8954913"
       gradientTransform="matrix(6.0923077,0,0,6.0923077,32.228528,7.1537621)" />
    <radialGradient
       inkscape:collect="always"
       xlink:href="#linearGradient12"
       id="radialGradient17"
       gradientUnits="userSpaceOnUse"
       gradientTransform="matrix(-0.02247554,-12.045403,-17.967828,0.03352619,1.6640208,-50.22331)"
       cx="-4.575222"
       cy="-0.55256462"
       fx="-4.575222"
       fy="-0.55256462"
       r="0.39687499" />
    <radialGradient
       inkscape:collect="always"
       xlink:href="#linearGradient7"
       id="radialGradient18"
       gradientUnits="userSpaceOnUse"
       gradientTransform="matrix(0.06461187,12.09952,17.933731,-0.09576873,14.609502,64.748231)"
       cx="-4.4284906"
       cy="-0.50121039"
       fx="-4.4284906"
       fy="-0.50121039"
       r="0.39687499" />
    <linearGradient
       inkscape:collect="always"
       xlink:href="#bevel"
       id="linearGradient18"
       gradientUnits="userSpaceOnUse"
       x1="-3.8415797"
       y1="-1.4506671"
       x2="-3.8406549"
       y2="-1.1968651"
       gradientTransform="matrix(6.0923076,0,0,6.0923076,32.228527,-7.1537627)" />
    <radialGradient
       inkscape:collect="always"
       xlink:href="#linearGradient4"
       id="radialGradient20"
       gradientUnits="userSpaceOnUse"
       gradientTransform="matrix(-0.01031383,11.991438,-17.967296,-0.01545561,1.7353715,64.305742)"
       cx="-4.4236727"
       cy="-0.55004197"
       fx="-4.4236727"
       fy="-0.55004197"
       r="0.39687499" />
    <radialGradient
       inkscape:collect="always"
       xlink:href="#cornerBevel"
       id="radialGradient25"
       gradientUnits="userSpaceOnUse"
       gradientTransform="matrix(12.184614,0,0,12.184614,59.63122,10.377613)"
       cx="-4.4568658"
       cy="-0.44864327"
       fx="-4.4568658"
       fy="-0.44864327"
       r="0.39687496" />
    <linearGradient
       inkscape:collect="always"
       xlink:href="#bevel"
       id="linearGradient25"
       gradientUnits="userSpaceOnUse"
       x1="-3.8487544"
       y1="-1.146081"
       x2="-3.8455966"
       y2="-0.890971"
       gradientTransform="matrix(6.0923077,0,0,6.0923077,32.228528,7.1537627)" />
    <radialGradient
       inkscape:collect="always"
       xlink:href="#cornerBevel"
       id="radialGradient29"
       gradientUnits="userSpaceOnUse"
       gradientTransform="matrix(0,-12.184614,12.184614,0,11.27353,-44.427768)"
       cx="-4.5705457"
       cy="-0.48653662"
       fx="-4.5705457"
       fy="-0.48653662"
       r="0.39687496" />
    <radialGradient
       inkscape:collect="always"
       xlink:href="#cornerBevel"
       id="radialGradient30"
       gradientUnits="userSpaceOnUse"
       gradientTransform="matrix(-12.184514,-0.04945749,0.04847411,-11.942243,-43.502155,3.8519053)"
       cx="-4.5342312"
       cy="-0.60337442"
       fx="-4.5342312"
       fy="-0.60337442"
       r="0.39687496" />
    <radialGradient
       inkscape:collect="always"
       xlink:href="#linearGradient9"
       id="radialGradient31"
       gradientUnits="userSpaceOnUse"
       gradientTransform="matrix(0,-12.151612,11.978956,0,18.475664,-48.770776)"
       cx="-4.4175329"
       cy="-0.56489283"
       fx="-4.4175329"
       fy="-0.56489283"
       r="0.39687496" />
    <linearGradient
       inkscape:collect="always"
       xlink:href="#bevel"
       id="linearGradient34"
       gradientUnits="userSpaceOnUse"
       x1="-3.99717"
       y1="-1.2218677"
       x2="-4.0003276"
       y2="-0.96675771"
       gradientTransform="matrix(6.0923077,0,0,6.0923077,17.025077,8.0496826)" />
    <linearGradient
       inkscape:collect="always"
       xlink:href="#bevel"
       id="linearGradient35"
       gradientUnits="userSpaceOnUse"
       x1="-4.0919032"
       y1="-1.4492278"
       x2="-4.0950613"
       y2="-1.1972755"
       gradientTransform="matrix(6.0923077,0,0,6.0923077,16.129161,-7.1537627)" />
    <linearGradient
       inkscape:collect="always"
       xlink:href="#bevel"
       id="linearGradient36"
       gradientUnits="userSpaceOnUse"
       x1="-3.8734362"
       y1="-1.3717227"
       x2="-3.8765941"
       y2="-1.116071"
       gradientTransform="matrix(6.0923077,0,0,6.0923077,31.33261,-8.0496826)" />
    <linearGradient
       id="paint2_linear_77:3-7"
       x1="79.398094"
       y1="-197.84389"
       x2="82.901054"
       y2="-199.97827"
       gradientUnits="userSpaceOnUse"
       gradientTransform="matrix(1.9248511,0,0,1.7314595,-40.88733,399.61741)">
      <stop
         stop-color="#EBFAFF"
         stop-opacity="0.1"
         id="stop29-5-7"
         offset="0"
         style="stop-color:#c3c3c3;stop-opacity:1;" />
      <stop
         offset="1"
         stop-color="#70A9FF"
         stop-opacity="0.5"
         id="stop30-0-1"
         style="stop-color:#05c7ff;stop-opacity:0.80000001;" />
    </linearGradient>
    <linearGradient
       inkscape:collect="always"
       xlink:href="#linearGradient899"
       id="linearGradient926"
       x1="0.98894888"
       y1="-9.3406019"
       x2="16.919081"
       y2="-9.2251434"
       gradientUnits="userSpaceOnUse"
       gradientTransform="translate(-0.92604234,0.47624996)" />
    <linearGradient
       id="a"
       x1="7.9369998"
       x2="7.9369998"
       y1="15.081"
       y2="1.852"
       gradientTransform="matrix(0.89278359,0,0,0.89278351,0.90778552,0.91466447)"
       gradientUnits="userSpaceOnUse">
      <stop
         offset="0"
         stop-color="#f1efeb"
         id="stop1-3" />
      <stop
         offset="1"
         stop-color="#fff"
         id="stop2-3" />
    </linearGradient>
    <linearGradient
       inkscape:collect="always"
       xlink:href="#h"
       id="linearGradient854"
       gradientUnits="userSpaceOnUse"
       gradientTransform="matrix(0.27781774,0,0,0.27778882,0.7400648,0.7412526)"
       x1="24"
       y1="24"
       x2="24"
       y2="21" />
    <linearGradient
       id="h"
       gradientTransform="matrix(0.27781773,0,0,0.27778883,-17.861455,-14.756217)"
       gradientUnits="userSpaceOnUse"
       x1="24"
       x2="24"
       y1="24"
       y2="21">
      <stop
         offset="0"
         stop-color="#232629"
         id="stop12-7" />
      <stop
         offset="1"
         stop-color="#4f535c"
         id="stop14" />
    </linearGradient>
  </defs>
  <sodipodi:namedview
     id="base"
     pagecolor="#e2e2e2"
     bordercolor="#666666"
     borderopacity="1.0"
     inkscape:pageopacity="0"
     inkscape:pageshadow="2"
     inkscape:zoom="9.7248729"
     inkscape:cx="33.933605"
     inkscape:cy="38.663744"
     inkscape:document-units="px"
     inkscape:current-layer="layer1"
     inkscape:document-rotation="0"
     showgrid="true"
     units="px"
     inkscape:window-width="1920"
     inkscape:window-height="990"
     inkscape:window-x="0"
     inkscape:window-y="0"
     inkscape:window-maximized="1"
     inkscape:object-paths="true"
     inkscape:snap-grids="true"
     inkscape:snap-intersection-paths="true"
     inkscape:snap-smooth-nodes="true"
     inkscape:snap-midpoints="true"
     inkscape:showpageshadow="2"
     inkscape:pagecheckerboard="0"
     inkscape:deskcolor="#d1d1d1">
    <inkscape:grid
       id="grid2"
       units="px"
       originx="0"
       originy="0"
       spacingx="0.26458333"
       spacingy="0.26458333"
       empcolor="#0099e5"
       empopacity="0.30196078"
       color="#0099e5"
       opacity="0.14902"
       empspacing="5"
       dotted="false"
       gridanglex="30"
       gridanglez="30"
       visible="true" />
  </sodipodi:namedview>
  <metadata
     id="metadata1111">
    <rdf:RDF>
      <cc:Work
         rdf:about="">
        <dc:format>image/svg+xml</dc:format>
        <dc:type
           rdf:resource="http://purl.org/dc/dcmitype/StillImage" />
      </cc:Work>
    </rdf:RDF>
  </metadata>
  <g
     inkscape:label="Layer 1"
     inkscape:groupmode="layer"
     id="layer1">
    <g
       id="g918"
       transform="translate(0.47625037,0.92604234)">
      <rect
         ry="4.8357682"
         rx="4.8357682"
         style="fill:url(#linearGradient926);fill-opacity:1;stroke-width:6.09228"
         x="0.13229237"
         y="-16.457085"
         width="15.875001"
         height="15.875001"
         id="use1056"
         transform="rotate(90)"
         class="ColorScheme-Highlight" />
      <path
         d="m 5.344583,0.13229167 c -2.6384245,0 -4.76249953,2.12407483 -4.76249953,4.76249963 H 5.344583 Z"
         style="opacity:0.15;fill:url(#radialGradient25);fill-opacity:1;stroke-width:6.09228"
         id="path20" />
      <rect
         y="0.13229151"
         x="5.3445826"
         height="1.5875"
         width="6.3500004"
         id="rect20"
         style="opacity:0.15;fill:url(#linearGradient25);fill-opacity:1;stroke-width:4.83577;stroke-linecap:round;stroke-linejoin:round;paint-order:stroke fill markers" />
      <path
         d="m 0.58208347,11.244792 c 0,2.638424 2.12407503,4.762499 4.76249953,4.762499 v -4.762499 z"
         style="opacity:0.15;fill:url(#radialGradient29);fill-opacity:1;stroke-width:6.09228"
         id="use20" />
      <rect
         y="0.5820834"
         x="-11.244792"
         height="1.5875"
         width="6.3500004"
         id="use21"
         style="opacity:0.15;fill:url(#linearGradient34);fill-opacity:1;stroke-width:4.83577;stroke-linecap:round;stroke-linejoin:round;paint-order:stroke fill markers"
         transform="rotate(-90)" />
      <path
         d="m 11.694583,16.007291 c 2.638425,0 4.7625,-2.124074 4.7625,-4.762499 h -4.7625 z"
         style="opacity:0.15;fill:url(#radialGradient30);fill-opacity:1;stroke-width:6.09228"
         id="use22" />
      <rect
         y="-16.007292"
         x="-11.694584"
         height="1.5875"
         width="6.3500004"
         id="use23"
         style="opacity:0.15;fill:url(#linearGradient35);fill-opacity:1;stroke-width:4.83577;stroke-linecap:round;stroke-linejoin:round;paint-order:stroke fill markers"
         transform="scale(-1)" />
      <path
         d="m 16.457083,4.8947913 c 0,-2.6384245 -2.124074,-4.76249963 -4.7625,-4.76249963 V 4.8947913 Z"
         style="opacity:0.15;fill:url(#radialGradient31);fill-opacity:1;stroke-width:6.09228"
         id="use24" />
      <rect
         y="-16.457081"
         x="4.8947906"
         height="1.5875"
         width="6.3500004"
         id="use25"
         style="opacity:0.15;fill:url(#linearGradient36);fill-opacity:1;stroke-width:4.83577;stroke-linecap:round;stroke-linejoin:round;paint-order:stroke fill markers"
         transform="rotate(90)" />
      <path
         d="m 5.3445832,0.13229107 c -2.638425,0 -4.76250035,2.12407473 -4.76250035,4.76249973 H 5.3445832 Z"
         style="opacity:0.5;fill:url(#radialGradient15);fill-opacity:1;stroke-width:6.09228"
         id="path14" />
      <rect
         y="0.1322909"
         x="5.3445826"
         height="1.5875"
         width="6.3499999"
         id="rect14"
         style="opacity:0.5;fill:url(#linearGradient15);fill-opacity:1;stroke-width:4.83577;stroke-linecap:round;stroke-linejoin:round;paint-order:stroke fill markers" />
      <path
         d="m 11.694583,0.13229096 c 2.638425,0 4.7625,2.12407504 4.7625,4.76249734 h -4.7625 z"
         style="opacity:0.5;fill:url(#radialGradient17);fill-opacity:1;stroke-width:6.09228"
         id="use14" />
      <path
         id="path17"
         style="opacity:0.5;fill:url(#radialGradient18);fill-opacity:1;stroke-width:6.09228"
         d="m 5.3445834,16.00729 c -2.638425,0 -4.7625,-2.124075 -4.7625,-4.7625 h 4.7625 z" />
      <rect
         style="opacity:0.5;fill:url(#linearGradient18);fill-opacity:1;stroke-width:4.83577;stroke-linecap:round;stroke-linejoin:round;paint-order:stroke fill markers"
         id="rect17"
         width="6.3499994"
         height="1.5874999"
         x="5.3445826"
         y="-16.007292"
         transform="scale(1,-1)" />
      <path
         id="use17"
         style="opacity:0.5;fill:url(#radialGradient20);fill-opacity:1;stroke-width:6.09228"
         d="m 11.694582,16.007291 c 2.638425,0 4.7625,-2.124075 4.7625,-4.7625 h -4.7625 z" />
    </g>
    <rect
       width="13.229166"
       height="13.229165"
       x="2.3812497"
       y="2.3812501"
       fill="url(#a)"
       rx="3.6849496"
       ry="3.7431052"
       id="rect2"
       style="fill:#1c2d4a;stroke-width:0.264582;fill-opacity:1" />
    <path
       d="m 5.3840659,10.757876 c 0,0.763928 -0.07223,2.565683 0.346716,2.984597 0.07223,0.07218 0.116128,0.07112 0.153633,0.07112 0.115572,0 -0.02501,-1.318676 0.333104,-2.037322 z m 7.2232621,0 -0.833457,1.018384 c 0.358384,0.718646 0.21753,2.037322 0.333379,2.037322 0.03723,0 0.08084,0.0013 0.153357,-0.07113 0.418948,-0.418906 0.346721,-2.220662 0.346721,-2.984589 z"
       id="path48-2"
       style="fill:#ffb380;stroke-width:0.277802" />
    <path
       d="M 9.2005357,4.3656246 C 8.7973228,5.1173766 7.5425338,5.1362756 6.7728598,5.7546874 5.6682259,6.6429314 5.1064579,8.8099949 5.1064579,9.921876 c 0,0.555416 0.370661,1.389063 0.556517,1.666246 0.554418,0.833647 1.4101939,1.223172 2.2218688,1.389062 0.364362,0.07455 1.7094541,0.0567 2.2218693,0 0.868377,-0.09554 1.667452,-0.556465 2.222919,-1.389062 0.185855,-0.277183 0.55652,-1.200074 0.55652,-1.666246 0,-1.1118811 -0.466219,-3.4364356 -1.667455,-4.1671886 -0.63947,-0.3958259 -1.7126012,-0.5543658 -2.0433621,-0.7013558 0.03885,-0.121793 0.2037059,-0.205787 0.02625,-0.687707 z"
       id="path50-6"
       style="fill:#f9f9f9;stroke-width:1.04998" />
    <path
       d="m 7.7135668,5.4353885 a 0.97180626,0.97171479 0 0 0 -0.373943,0.06028 C 6.5486769,5.8006835 6.3592048,5.8937435 5.9397009,6.3132094 5.2676599,6.9851864 4.973451,9.2255766 5.4437959,8.90167 6.9904068,7.8371736 7.8788678,7.7321684 8.1172357,7.5974394 c 0.30171,-0.1702872 0.261982,-0.450856 0.878459,-0.450856 0.6164781,0 0.5767501,0.2805688 0.8784601,0.450856 C 10.112522,7.7318903 11.000981,7.8371736 12.547596,8.90167 13.017935,9.2255766 12.72401,6.9854644 12.051688,6.3132094 11.632461,5.8940214 11.442712,5.8006835 10.651487,5.4956685 a 0.97236191,0.97227039 0 0 0 -0.373664,-0.06028 c -0.3847773,0.0072 -0.8051152,0.179453 -1.2821283,0.179453 -0.477013,0 -0.897351,-0.172231 -1.2821279,-0.179453 z"
       id="path52-1"
       style="fill:#00bbbb;fill-opacity:1;stroke-width:0.277802" />
    <path
       d="m 8.9957788,6.8644674 c -0.8137749,0 -0.6363189,0.510268 -0.878877,0.728654 0.30241,-0.170089 0.262508,-0.451472 0.878877,-0.451472 0.6163699,0 0.577519,0.281383 0.8788779,0.451472 -0.2425571,-0.218386 -0.0651,-0.728654 -0.8788779,-0.728654 z"
       opacity="0.388"
       id="path54-8"
       style="stroke-width:1.04998" />
    <path
       d="m 8.9957788,13.258568 c -1.1109351,0 -2.7783859,-1.110831 -2.7783859,-1.666246 0,-0.556465 0.8337259,-0.833647 1.1109339,-1.389063 0.278259,-0.5564673 0.8337259,-1.3890641 1.667452,-1.3890641 0.8337259,0 1.3891932,0.8325968 1.6664002,1.3890641 0.27826,0.555416 1.111986,0.832598 1.111986,1.388013 0,0.556465 -1.667452,1.667296 -2.7783862,1.667296 z"
       id="path56-7"
       style="fill:#ff7f2a;stroke-width:1.04998" />
    <path
       d="m 7.8354928,10.480442 c -0.158555,0 -0.227857,0.266683 -0.243607,0.398975 -0.0074,0.06405 0.07455,0.15644 0.139654,0.15644 0.1470039,0 0.201606,-0.556465 0.103952,-0.556465 z m 2.3205722,0 c -0.0987,0 -0.042,0.555415 0.102903,0.555415 0.0651,0 0.148055,-0.09239 0.140704,-0.15644 -0.01575,-0.132292 -0.08505,-0.398975 -0.243607,-0.398975 z"
       opacity="0.55"
       id="path58-9"
       style="stroke-width:1.04998" />
    <path
       d="m 6.6445238,8.8133339 c -0.103627,0 -0.1491879,0.1933443 -0.1491879,0.3911307 0,0.1977871 0.01334,0.4422431 0.120851,0.4422431 0.107515,0 0.156967,-0.231956 0.156967,-0.4422431 0,-0.2102877 -0.025,-0.3911307 -0.1286301,-0.3911307 z m 4.7023412,0 c -0.103627,0 -0.12863,0.2116786 -0.12863,0.3911307 0,0.1794531 0.06612,0.4422431 0.156967,0.4422431 0.09084,0 0.12085,-0.250567 0.12085,-0.4422431 0,-0.1916754 -0.04556,-0.3911307 -0.149187,-0.3911307 z"
       fill="url(#h)"
       id="path60-2"
       style="fill:url(#linearGradient854);stroke-width:0.277802" />
    <path
       d="m 7.6601378,5.6255455 c -0.268809,0.021 -0.579618,0.1154929 -0.887278,0.2708819 -0.4662149,0.238336 -0.8631269,0.528118 -1.1109349,1.007938 -0.0882,0.169039 -0.411613,0.9428401 0,1.214773 0.32341,0.2141866 0.585919,-0.2624836 1.1109349,-0.556465 0.525016,-0.291882 1.2033369,-0.367477 1.3891929,-0.487169 0.262509,-0.171139 0.2782591,-0.608962 0.2782591,-0.900844 0,-0.416823 -0.33181,-0.5837629 -0.780174,-0.5491149 z m 2.6712822,0 c -0.4483633,-0.03465 -0.7801733,0.1322919 -0.7801733,0.5491149 0,0.292932 0.0147,0.729705 0.278258,0.900844 0.1858563,0.1207421 0.8631253,0.195287 1.3891923,0.4882189 0.525017,0.2929315 0.787524,0.7696017 1.110935,0.5554151 0.410562,-0.2719329 0.0882,-1.045734 0,-1.215823 -0.247809,-0.47877 -0.64472,-0.768552 -1.110935,-1.006888 A 2.4339759,2.433747 0 0 0 10.33142,5.6255455 Z"
       id="path64-2"
       style="fill:#808080;stroke-width:1.04998" />
    <path
       d="m 7.6695878,5.7095405 a 2.3730739,2.3728507 0 0 0 -0.808525,0.234134 C 6.4116489,6.1589114 6.0609369,6.4035464 5.8383299,6.8077714 a 1.8575077,1.8573329 0 0 0 -0.165904,0.4798189 0.70037191,0.70030599 0 0 0 -0.0022,0.2687839 c 0.0168,0.07034 0.0441,0.111293 0.0987,0.1459402 0.0399,0.025199 0.04095,0.021 0.0714,0.0147 a 0.61216915,0.61211152 0 0 0 0.1680627,-0.09239 C 6.1616939,7.5154312 6.3717009,7.3232932 6.6636088,7.1700035 c 0.28981,-0.152241 0.606919,-0.2414851 0.869428,-0.3097311 0.2635581,-0.0672 0.494565,-0.136491 0.507165,-0.144891 0.0651,-0.0399 0.116554,-0.128092 0.1470049,-0.259334 0.0315,-0.131241 0.0378,-0.290831 0.0378,-0.426273 0,-0.115493 -0.0315,-0.173239 -0.0819,-0.2204859 a 0.46516453,0.46512078 0 0 0 -0.2625079,-0.09764 1.0762834,1.076182 0 0 0 -0.212107,-0.0022 z m 2.6534322,0 a 1.0762834,1.076182 0 0 0 -0.212107,0.0021 0.46516453,0.46512078 0 0 0 -0.2625072,0.09764 c -0.0504,0.04725 -0.0819,0.1049929 -0.0819,0.2204849 0,0.135442 0.0063,0.293982 0.03675,0.426274 0.0315,0.131242 0.084,0.219436 0.148055,0.258284 0.012599,0.0084 0.2436072,0.07874 0.5071632,0.14594 0.263559,0.0672 0.579619,0.1574909 0.869428,0.3097311 0.291909,0.1532897 0.501915,0.3464779 0.65522,0.4546218 0.07665,0.05354 0.136505,0.08504 0.168006,0.09239 0.0315,0.0074 0.0315,0.010501 0.0714,-0.015751 0.0546,-0.0336 0.0819,-0.0735 0.0987,-0.1448911 a 0.69932189,0.69925607 0 0 0 -0.0021,-0.26879 1.8564577,1.856283 0 0 0 -0.165906,-0.4798188 C 11.930615,6.4024804 11.579905,6.1588954 11.13049,5.9436584 A 2.3730739,2.3728507 0 0 0 10.321966,5.7095245 Z"
       id="path66-3"
       style="fill:#2ad4ff;stroke-width:1.04998" />
  </g>
</svg>
