<?xml version="1.0" encoding="UTF-8" standalone="no"?>
<svg
   width="68"
   height="68"
   viewBox="0 0 17.991665 17.991665"
   version="1.1"
   id="svg1114"
   inkscape:version="1.3.2 (091e20ef0f, 2023-11-25)"
   sodipodi:docname="kruler.svg"
   xmlns:inkscape="http://www.inkscape.org/namespaces/inkscape"
   xmlns:sodipodi="http://sodipodi.sourceforge.net/DTD/sodipodi-0.dtd"
   xmlns:xlink="http://www.w3.org/1999/xlink"
   xmlns="http://www.w3.org/2000/svg"
   xmlns:svg="http://www.w3.org/2000/svg"
   xmlns:rdf="http://www.w3.org/1999/02/22-rdf-syntax-ns#"
   xmlns:cc="http://creativecommons.org/ns#"
   xmlns:dc="http://purl.org/dc/elements/1.1/">
  <style
     type="text/css"
     id="current-color-scheme">.ColorScheme-Highlight { color:#5599ff; }
</style>
  <defs
     id="defs1108">
    <linearGradient
       id="linearGradient12"
       inkscape:collect="always">
      <stop
         style="stop-color:#ffffff;stop-opacity:0;"
         offset="0"
         id="stop10" />
      <stop
         id="stop11"
         offset="0.65909404"
         style="stop-color:#ffffff;stop-opacity:0" />
      <stop
         style="stop-color:#ffffff;stop-opacity:1;"
         offset="1"
         id="stop12" />
    </linearGradient>
    <linearGradient
       id="linearGradient9"
       inkscape:collect="always">
      <stop
         style="stop-color:#000000;stop-opacity:0;"
         offset="0"
         id="stop1" />
      <stop
         id="stop8"
         offset="0.66102529"
         style="stop-color:#000000;stop-opacity:0" />
      <stop
         style="stop-color:#000000;stop-opacity:1;"
         offset="1"
         id="stop9" />
    </linearGradient>
    <linearGradient
       id="linearGradient7"
       inkscape:collect="always">
      <stop
         style="stop-color:#000000;stop-opacity:0;"
         offset="0"
         id="stop5" />
      <stop
         id="stop6"
         offset="0.6586886"
         style="stop-color:#000000;stop-opacity:0" />
      <stop
         style="stop-color:#000000;stop-opacity:1;"
         offset="1"
         id="stop7" />
    </linearGradient>
    <linearGradient
       id="linearGradient4"
       inkscape:collect="always">
      <stop
         style="stop-color:#000000;stop-opacity:0;"
         offset="0"
         id="stop2" />
      <stop
         id="stop3"
         offset="0.67055255"
         style="stop-color:#000000;stop-opacity:0" />
      <stop
         style="stop-color:#000000;stop-opacity:1;"
         offset="1"
         id="stop4" />
    </linearGradient>
    <linearGradient
       inkscape:collect="always"
       id="linearGradient899">
      <stop
         style="stop-color:#00d4aa;stop-opacity:1;"
         offset="0"
         id="stop895" />
      <stop
         style="stop-color:#5599ff;stop-opacity:1;"
         offset="1"
         id="stop897" />
    </linearGradient>
    <linearGradient
       id="linearGradient1167"
       x1="40.751999"
       x2="40.751999"
       y1="28.507999"
       y2="17.205999"
       gradientUnits="userSpaceOnUse">
      <stop
         style="stop-color:#84fb6e;stop-opacity:1"
         stop-color="#0ab816"
         offset="0"
         id="stop1163" />
      <stop
         style="stop-color:#0dd41a;stop-opacity:1"
         stop-color="#0cf36c"
         offset="1"
         id="stop1165" />
    </linearGradient>
    <linearGradient
       id="cornerBevel"
       inkscape:collect="always">
      <stop
         style="stop-color:#000000;stop-opacity:0;"
         offset="0"
         id="stop2663" />
      <stop
         id="stop2671"
         offset="0.66666675"
         style="stop-color:#000000;stop-opacity:0" />
      <stop
         style="stop-color:#000000;stop-opacity:1;"
         offset="1"
         id="stop2661" />
    </linearGradient>
    <linearGradient
       id="bevel"
       inkscape:collect="always">
      <stop
         id="stop2685"
         offset="0"
         style="stop-color:#000000;stop-opacity:1;" />
      <stop
         id="stop2687"
         offset="1"
         style="stop-color:#000000;stop-opacity:0;" />
    </linearGradient>
    <linearGradient
       id="highlightCorner"
       inkscape:collect="always">
      <stop
         style="stop-color:#ffffff;stop-opacity:0;"
         offset="0"
         id="stop2613" />
      <stop
         id="stop2621"
         offset="0.66666669"
         style="stop-color:#ffffff;stop-opacity:0" />
      <stop
         style="stop-color:#ffffff;stop-opacity:1;"
         offset="1"
         id="stop2611" />
    </linearGradient>
    <linearGradient
       inkscape:collect="always"
       id="highlight">
      <stop
         style="stop-color:#ffffff;stop-opacity:1;"
         offset="0"
         id="stop2921" />
      <stop
         style="stop-color:#ffffff;stop-opacity:0;"
         offset="1"
         id="stop2923" />
    </linearGradient>
    <radialGradient
       inkscape:collect="always"
       xlink:href="#highlightCorner"
       id="radialGradient15"
       gradientUnits="userSpaceOnUse"
       gradientTransform="matrix(0.04294597,-12.079348,17.933991,0.06376112,14.524179,-50.373789)"
       cx="-4.5799766"
       cy="-0.50206107"
       fx="-4.5799766"
       fy="-0.50206107"
       r="0.39687499" />
    <linearGradient
       inkscape:collect="always"
       xlink:href="#highlight"
       id="linearGradient15"
       gradientUnits="userSpaceOnUse"
       x1="-3.8453064"
       y1="-1.1532172"
       x2="-3.8453064"
       y2="-0.8954913"
       gradientTransform="matrix(6.0923077,0,0,6.0923077,32.228528,7.1537621)" />
    <radialGradient
       inkscape:collect="always"
       xlink:href="#linearGradient12"
       id="radialGradient17"
       gradientUnits="userSpaceOnUse"
       gradientTransform="matrix(-0.02247554,-12.045403,-17.967828,0.03352619,1.6640208,-50.22331)"
       cx="-4.575222"
       cy="-0.55256462"
       fx="-4.575222"
       fy="-0.55256462"
       r="0.39687499" />
    <radialGradient
       inkscape:collect="always"
       xlink:href="#linearGradient7"
       id="radialGradient18"
       gradientUnits="userSpaceOnUse"
       gradientTransform="matrix(0.06461187,12.09952,17.933731,-0.09576873,14.609502,64.748231)"
       cx="-4.4284906"
       cy="-0.50121039"
       fx="-4.4284906"
       fy="-0.50121039"
       r="0.39687499" />
    <linearGradient
       inkscape:collect="always"
       xlink:href="#bevel"
       id="linearGradient18"
       gradientUnits="userSpaceOnUse"
       x1="-3.8415797"
       y1="-1.4506671"
       x2="-3.8406549"
       y2="-1.1968651"
       gradientTransform="matrix(6.0923076,0,0,6.0923076,32.228527,-7.1537627)" />
    <radialGradient
       inkscape:collect="always"
       xlink:href="#linearGradient4"
       id="radialGradient20"
       gradientUnits="userSpaceOnUse"
       gradientTransform="matrix(-0.01031383,11.991438,-17.967296,-0.01545561,1.7353715,64.305742)"
       cx="-4.4236727"
       cy="-0.55004197"
       fx="-4.4236727"
       fy="-0.55004197"
       r="0.39687499" />
    <radialGradient
       inkscape:collect="always"
       xlink:href="#cornerBevel"
       id="radialGradient25"
       gradientUnits="userSpaceOnUse"
       gradientTransform="matrix(12.184614,0,0,12.184614,59.63122,10.377613)"
       cx="-4.4568658"
       cy="-0.44864327"
       fx="-4.4568658"
       fy="-0.44864327"
       r="0.39687496" />
    <linearGradient
       inkscape:collect="always"
       xlink:href="#bevel"
       id="linearGradient25"
       gradientUnits="userSpaceOnUse"
       x1="-3.8487544"
       y1="-1.146081"
       x2="-3.8455966"
       y2="-0.890971"
       gradientTransform="matrix(6.0923077,0,0,6.0923077,32.228528,7.1537627)" />
    <radialGradient
       inkscape:collect="always"
       xlink:href="#cornerBevel"
       id="radialGradient29"
       gradientUnits="userSpaceOnUse"
       gradientTransform="matrix(0,-12.184614,12.184614,0,11.27353,-44.427768)"
       cx="-4.5705457"
       cy="-0.48653662"
       fx="-4.5705457"
       fy="-0.48653662"
       r="0.39687496" />
    <radialGradient
       inkscape:collect="always"
       xlink:href="#cornerBevel"
       id="radialGradient30"
       gradientUnits="userSpaceOnUse"
       gradientTransform="matrix(-12.184514,-0.04945749,0.04847411,-11.942243,-43.502155,3.8519053)"
       cx="-4.5342312"
       cy="-0.60337442"
       fx="-4.5342312"
       fy="-0.60337442"
       r="0.39687496" />
    <radialGradient
       inkscape:collect="always"
       xlink:href="#linearGradient9"
       id="radialGradient31"
       gradientUnits="userSpaceOnUse"
       gradientTransform="matrix(0,-12.151612,11.978956,0,18.475664,-48.770776)"
       cx="-4.4175329"
       cy="-0.56489283"
       fx="-4.4175329"
       fy="-0.56489283"
       r="0.39687496" />
    <linearGradient
       inkscape:collect="always"
       xlink:href="#bevel"
       id="linearGradient34"
       gradientUnits="userSpaceOnUse"
       x1="-3.99717"
       y1="-1.2218677"
       x2="-4.0003276"
       y2="-0.96675771"
       gradientTransform="matrix(6.0923077,0,0,6.0923077,17.025077,8.0496826)" />
    <linearGradient
       inkscape:collect="always"
       xlink:href="#bevel"
       id="linearGradient35"
       gradientUnits="userSpaceOnUse"
       x1="-4.0919032"
       y1="-1.4492278"
       x2="-4.0950613"
       y2="-1.1972755"
       gradientTransform="matrix(6.0923077,0,0,6.0923077,16.129161,-7.1537627)" />
    <linearGradient
       inkscape:collect="always"
       xlink:href="#bevel"
       id="linearGradient36"
       gradientUnits="userSpaceOnUse"
       x1="-3.8734362"
       y1="-1.3717227"
       x2="-3.8765941"
       y2="-1.116071"
       gradientTransform="matrix(6.0923077,0,0,6.0923077,31.33261,-8.0496826)" />
    <linearGradient
       id="paint2_linear_77:3-7"
       x1="79.398094"
       y1="-197.84389"
       x2="82.901054"
       y2="-199.97827"
       gradientUnits="userSpaceOnUse"
       gradientTransform="matrix(1.9248511,0,0,1.7314595,-40.88733,399.61741)">
      <stop
         stop-color="#EBFAFF"
         stop-opacity="0.1"
         id="stop29-5-7"
         offset="0"
         style="stop-color:#c3c3c3;stop-opacity:1;" />
      <stop
         offset="1"
         stop-color="#70A9FF"
         stop-opacity="0.5"
         id="stop30-0-1"
         style="stop-color:#05c7ff;stop-opacity:0.80000001;" />
    </linearGradient>
    <linearGradient
       inkscape:collect="always"
       xlink:href="#linearGradient899"
       id="linearGradient926"
       x1="0.98894888"
       y1="-9.3406019"
       x2="16.919081"
       y2="-9.2251434"
       gradientUnits="userSpaceOnUse"
       gradientTransform="translate(-0.92604234,0.47624996)" />
    <linearGradient
       id="a"
       x1="7.9369998"
       x2="7.9369998"
       y1="15.081"
       y2="1.852"
       gradientTransform="matrix(0.89278359,0,0,0.89278351,0.90778541,0.91466447)"
       gradientUnits="userSpaceOnUse">
      <stop
         offset="0"
         stop-color="#f1efeb"
         id="stop1-3" />
      <stop
         offset="1"
         stop-color="#fff"
         id="stop2-3" />
    </linearGradient>
    <linearGradient
       id="_lgradient_0"
       x1="-1.7544001"
       y1="1.5432271"
       x2="1.114476"
       y2="-0.60842943"
       gradientTransform="matrix(1.0144797,0,0,4.0579199,5.4839703,5.3793748)"
       gradientUnits="userSpaceOnUse">
      <stop
         offset="0"
         stop-opacity="1"
         style="stop-color:#8e79ff;stop-opacity:1;"
         id="stop1-3-3" />
      <stop
         offset="51.73913043478261%"
         stop-opacity="1"
         style="stop-color:rgb(32,189,255)"
         id="stop2-9" />
      <stop
         offset="0.96701127"
         stop-opacity="1"
         style="stop-color:rgb(165,254,203)"
         id="stop3-6" />
    </linearGradient>
    <linearGradient
       id="_lgradient_1"
       x1="0.19365497"
       y1="0.4999997"
       x2="2.1846924"
       y2="0.4999997"
       gradientTransform="matrix(3.4550665,0,0,4.0579199,5.6809094,5.3793748)"
       gradientUnits="userSpaceOnUse">
      <stop
         offset="0%"
         stop-opacity="1"
         style="stop-color:rgb(67,233,123)"
         id="stop4-5" />
      <stop
         offset="0.51851851"
         stop-opacity="1"
         style="stop-color:#06ceab;stop-opacity:1"
         id="stop5-7" />
    </linearGradient>
    <linearGradient
       id="paint0_linear"
       x1="9.2719002"
       y1="53.834301"
       x2="53.8694"
       y2="9.0662603"
       gradientUnits="userSpaceOnUse"
       gradientTransform="matrix(0.26458331,0,0,0.26458331,9.7352942e-8,1.7850882e-5)">
      <stop
         stop-color="#0072FF"
         id="stop4-36" />
      <stop
         offset="1"
         stop-color="#00E5A1"
         id="stop6-7" />
    </linearGradient>
  </defs>
  <sodipodi:namedview
     id="base"
     pagecolor="#e2e2e2"
     bordercolor="#666666"
     borderopacity="1.0"
     inkscape:pageopacity="0"
     inkscape:pageshadow="2"
     inkscape:zoom="9.7248729"
     inkscape:cx="33.933605"
     inkscape:cy="38.663744"
     inkscape:document-units="px"
     inkscape:current-layer="layer1"
     inkscape:document-rotation="0"
     showgrid="true"
     units="px"
     inkscape:window-width="1920"
     inkscape:window-height="990"
     inkscape:window-x="0"
     inkscape:window-y="0"
     inkscape:window-maximized="1"
     inkscape:object-paths="true"
     inkscape:snap-grids="true"
     inkscape:snap-intersection-paths="true"
     inkscape:snap-smooth-nodes="true"
     inkscape:snap-midpoints="true"
     inkscape:showpageshadow="2"
     inkscape:pagecheckerboard="0"
     inkscape:deskcolor="#d1d1d1">
    <inkscape:grid
       id="grid2"
       units="px"
       originx="0"
       originy="0"
       spacingx="0.26458333"
       spacingy="0.26458333"
       empcolor="#0099e5"
       empopacity="0.30196078"
       color="#0099e5"
       opacity="0.14902"
       empspacing="5"
       dotted="false"
       gridanglex="30"
       gridanglez="30"
       visible="true" />
  </sodipodi:namedview>
  <metadata
     id="metadata1111">
    <rdf:RDF>
      <cc:Work
         rdf:about="">
        <dc:format>image/svg+xml</dc:format>
        <dc:type
           rdf:resource="http://purl.org/dc/dcmitype/StillImage" />
      </cc:Work>
    </rdf:RDF>
  </metadata>
  <g
     inkscape:label="Layer 1"
     inkscape:groupmode="layer"
     id="layer1">
    <g
       id="g918"
       transform="translate(0.47625037,0.92604234)">
      <rect
         ry="4.8357682"
         rx="4.8357682"
         style="fill:url(#linearGradient926);fill-opacity:1;stroke-width:6.09228"
         x="0.13229237"
         y="-16.457085"
         width="15.875001"
         height="15.875001"
         id="use1056"
         transform="rotate(90)"
         class="ColorScheme-Highlight" />
      <path
         d="m 5.344583,0.13229167 c -2.6384245,0 -4.76249953,2.12407483 -4.76249953,4.76249963 H 5.344583 Z"
         style="opacity:0.15;fill:url(#radialGradient25);fill-opacity:1;stroke-width:6.09228"
         id="path20" />
      <rect
         y="0.13229151"
         x="5.3445826"
         height="1.5875"
         width="6.3500004"
         id="rect20"
         style="opacity:0.15;fill:url(#linearGradient25);fill-opacity:1;stroke-width:4.83577;stroke-linecap:round;stroke-linejoin:round;paint-order:stroke fill markers" />
      <path
         d="m 0.58208347,11.244792 c 0,2.638424 2.12407503,4.762499 4.76249953,4.762499 v -4.762499 z"
         style="opacity:0.15;fill:url(#radialGradient29);fill-opacity:1;stroke-width:6.09228"
         id="use20" />
      <rect
         y="0.5820834"
         x="-11.244792"
         height="1.5875"
         width="6.3500004"
         id="use21"
         style="opacity:0.15;fill:url(#linearGradient34);fill-opacity:1;stroke-width:4.83577;stroke-linecap:round;stroke-linejoin:round;paint-order:stroke fill markers"
         transform="rotate(-90)" />
      <path
         d="m 11.694583,16.007291 c 2.638425,0 4.7625,-2.124074 4.7625,-4.762499 h -4.7625 z"
         style="opacity:0.15;fill:url(#radialGradient30);fill-opacity:1;stroke-width:6.09228"
         id="use22" />
      <rect
         y="-16.007292"
         x="-11.694584"
         height="1.5875"
         width="6.3500004"
         id="use23"
         style="opacity:0.15;fill:url(#linearGradient35);fill-opacity:1;stroke-width:4.83577;stroke-linecap:round;stroke-linejoin:round;paint-order:stroke fill markers"
         transform="scale(-1)" />
      <path
         d="m 16.457083,4.8947913 c 0,-2.6384245 -2.124074,-4.76249963 -4.7625,-4.76249963 V 4.8947913 Z"
         style="opacity:0.15;fill:url(#radialGradient31);fill-opacity:1;stroke-width:6.09228"
         id="use24" />
      <rect
         y="-16.457081"
         x="4.8947906"
         height="1.5875"
         width="6.3500004"
         id="use25"
         style="opacity:0.15;fill:url(#linearGradient36);fill-opacity:1;stroke-width:4.83577;stroke-linecap:round;stroke-linejoin:round;paint-order:stroke fill markers"
         transform="rotate(90)" />
      <path
         d="m 5.3445832,0.13229107 c -2.638425,0 -4.76250035,2.12407473 -4.76250035,4.76249973 H 5.3445832 Z"
         style="opacity:0.5;fill:url(#radialGradient15);fill-opacity:1;stroke-width:6.09228"
         id="path14" />
      <rect
         y="0.1322909"
         x="5.3445826"
         height="1.5875"
         width="6.3499999"
         id="rect14"
         style="opacity:0.5;fill:url(#linearGradient15);fill-opacity:1;stroke-width:4.83577;stroke-linecap:round;stroke-linejoin:round;paint-order:stroke fill markers" />
      <path
         d="m 11.694583,0.13229096 c 2.638425,0 4.7625,2.12407504 4.7625,4.76249734 h -4.7625 z"
         style="opacity:0.5;fill:url(#radialGradient17);fill-opacity:1;stroke-width:6.09228"
         id="use14" />
      <path
         id="path17"
         style="opacity:0.5;fill:url(#radialGradient18);fill-opacity:1;stroke-width:6.09228"
         d="m 5.3445834,16.00729 c -2.638425,0 -4.7625,-2.124075 -4.7625,-4.7625 h 4.7625 z" />
      <rect
         style="opacity:0.5;fill:url(#linearGradient18);fill-opacity:1;stroke-width:4.83577;stroke-linecap:round;stroke-linejoin:round;paint-order:stroke fill markers"
         id="rect17"
         width="6.3499994"
         height="1.5874999"
         x="5.3445826"
         y="-16.007292"
         transform="scale(1,-1)" />
      <path
         id="use17"
         style="opacity:0.5;fill:url(#radialGradient20);fill-opacity:1;stroke-width:6.09228"
         d="m 11.694582,16.007291 c 2.638425,0 4.7625,-2.124075 4.7625,-4.7625 h -4.7625 z" />
    </g>
    <rect
       width="13.229166"
       height="13.229165"
       x="2.3812497"
       y="2.3812501"
       fill="url(#a)"
       rx="3.6849496"
       ry="3.7431052"
       id="rect2"
       style="fill:url(#a);stroke-width:0.264582" />
    <path
       d="M 14.472344,4.5130418 C 14.393444,4.2495348 14.02196,4.1497739 13.839062,4.3702399 10.747484,7.4709754 7.6596416,10.574812 4.5699241,13.677402 c -0.14014,0.118721 -0.1672528,0.317989 -0.097042,0.482311 0.0081,0.01904 0.021195,0.03539 0.037183,0.0485 0.094237,0.07673 0.2046932,0.137791 0.330417,0.1292 0.674536,0.0055 1.3490708,0 2.0236053,0.0015 0.5783503,0 1.1567008,0.0015 1.7344306,0 h 0.00188 c 0.6199407,0 1.2392605,0.0015 1.858568,0 0.484041,0 0.968072,1.8e-5 1.452095,0 0.685072,0 1.369548,-0.0015 2.05464,0.0015 0.138997,-0.0055 0.305309,0.0096 0.410172,-0.101426 0.09355,-0.07915 0.11375,-0.201282 0.122752,-0.317156 0.0022,-0.02452 -0.0023,-0.04938 -0.01276,-0.07155 -0.06461,-0.131986 -0.181651,-0.250532 -0.337708,-0.247652 -0.573388,-0.0079 -1.146773,1.7e-5 -1.720162,-0.0023 -0.495816,0 -0.991637,0 -1.487457,0 -0.621171,-0.0024 -1.2423365,0 -1.8641365,0 -0.5789702,-0.0015 -1.1579407,0 -1.7362905,0 -0.5270307,-0.0034 -1.0540606,0.0031 -1.5810992,-0.0034 -0.023258,0 -0.034686,-0.02798 -0.018672,-0.04501 0.1258111,-0.132893 0.2553525,-0.262028 0.3842997,-0.391471 0.062319,-0.06252 0.1633397,-0.06272 0.2255654,-6.5e-5 0.072493,0.073 0.1449771,0.146098 0.2173302,0.219266 0.062038,0.06271 0.162911,0.06311 0.2250262,0 0.045648,-0.04605 0.091218,-0.09218 0.1366996,-0.138431 0.063949,-0.06497 0.060432,-0.170538 -0.00509,-0.233852 -0.063179,-0.06096 -0.1249232,-0.123437 -0.185973,-0.186158 l -0.02629,-0.02741 c -0.060562,-0.06315 -0.059829,-0.163605 0.00204,-0.225542 l 0.1372912,-0.137657 c 0.061581,-0.06169 0.1610028,-0.06221 0.2230855,-0.0015 0.043771,0.04313 0.087459,0.08639 0.1310664,0.129665 0.062301,0.06187 0.1625603,0.06183 0.2247067,0 0.044705,-0.04468 0.089493,-0.08915 0.134439,-0.133521 0.064992,-0.06412 0.064417,-0.169919 -5.886e-4,-0.234001 -0.035172,-0.03465 -0.070051,-0.06942 -0.1046449,-0.104142 l -0.021347,-0.02149 c -0.061842,-0.0622 -0.061521,-0.163219 4.15e-4,-0.225395 0.046093,-0.04625 0.092271,-0.09248 0.1385537,-0.13869 0.062178,-0.06201 0.1625293,-0.0615 0.2244531,0 0.043017,0.04322 0.086073,0.08653 0.1290781,0.129763 0.061826,0.06213 0.1619408,0.06281 0.2238017,0 0.046139,-0.04631 0.09207,-0.09283 0.1380136,-0.1395 0.062145,-0.06307 0.061337,-0.164882 -6.682e-4,-0.228066 -0.040988,-0.04177 -0.081576,-0.08391 -0.1217079,-0.126442 -0.060826,-0.06448 -0.055391,-0.166384 0.010078,-0.226113 0.050369,-0.04595 0.081672,-0.0756 0.1245639,-0.11805 0.059826,-0.0592 0.1548497,-0.06262 0.2164555,-0.0052 0.1667738,0.155106 0.3347715,0.325701 0.4968709,0.486038 0.061403,0.06071 0.1596833,0.06033 0.2207962,0 0.048635,-0.04858 0.09711,-0.09736 0.1452845,-0.146422 0.060996,-0.0622 0.060139,-0.162227 -0.00135,-0.223941 -0.1624927,-0.163046 -0.3252763,-0.3258 -0.4880596,-0.48897 l -0.00418,-0.0043 c -0.062169,-0.06331 -0.062773,-0.165323 -3.248e-4,-0.228251 l 0.1361658,-0.137169 c 0.061758,-0.06221 0.1618452,-0.06261 0.2239283,0 0.041548,0.04141 0.083035,0.08287 0.1245793,0.124353 l 0.00625,0.0063 c 0.061905,0.06183 0.1617331,0.06183 0.2236728,1.5e-5 0.080436,-0.0803 0.1608685,-0.160507 0.2418868,-0.240427 0.00625,-0.0066 0.00606,-0.01692 -3.498e-4,-0.02331 C 9.7698678,10.035684 9.6940942,9.9593133 9.618116,9.8828645 9.5558578,9.8202035 9.5558758,9.7185264 9.618259,9.655998 L 9.7525671,9.5213726 c 0.061921,-0.062069 0.1621954,-0.062401 0.2242636,0 0.03972,0.039636 0.07923,0.079523 0.1179973,0.1200497 0.06383,0.066736 0.170478,0.07032 0.235709,0.00491 0.06995,-0.070088 0.139951,-0.1400023 0.209714,-0.209923 0.02352,-0.023596 0.02334,-0.061999 -4.92e-4,-0.085315 -0.06436,-0.063013 -0.128526,-0.1261914 -0.191882,-0.1902084 l -0.0069,-0.00703 c -0.06229,-0.06242 -0.06242,-0.1638574 -3.02e-4,-0.22645 0.04527,-0.045659 0.09052,-0.09126 0.135709,-0.1369136 0.0618,-0.062421 0.162111,-0.062956 0.224293,-0.00153 0.164718,0.1643065 0.328572,0.3294123 0.492985,0.4937171 0.0618,0.061788 0.16158,0.061728 0.223441,-4.72e-5 l 0.0058,-0.00581 c 0.07725,-0.077205 0.15461,-0.1544144 0.232465,-0.2316312 0.0074,-0.00793 0.0074,-0.020616 -1.7e-5,-0.028586 -0.195199,-0.2036025 -0.406853,-0.3928525 -0.593961,-0.6044386 -0.05494,-0.062156 -0.04877,-0.1563056 0.0099,-0.2146425 0.04346,-0.042985 0.08658,-0.086301 0.129445,-0.1299204 0.05793,-0.058965 0.151195,-0.064755 0.212611,-0.00938 0.04862,0.043795 0.09595,0.088939 0.142572,0.1349771 0.0622,0.061503 0.16188,0.063636 0.224375,0.00246 0.04765,-0.046637 0.09498,-0.093547 0.142291,-0.1405773 0.06027,-0.05987 0.06322,-0.1568818 0.005,-0.2189469 -0.04368,-0.046729 -0.08802,-0.092902 -0.132747,-0.1386573 -0.06193,-0.063406 -0.06179,-0.1654094 0.0011,-0.2280022 0.04061,-0.040452 0.08106,-0.080939 0.121688,-0.1214726 l 0.0092,-0.00938 c 0.06177,-0.061718 0.161386,-0.061821 0.223341,0 0.04416,0.043852 0.08824,0.087681 0.132656,0.1313613 0.06288,0.061821 0.163511,0.059717 0.22496,-0.00356 0.04588,-0.047234 0.09204,-0.094303 0.138267,-0.1413618 0.06161,-0.06282 0.06094,-0.1639854 -0.0021,-0.2259699 l -0.07124,-0.070747 -0.0581,-0.058258 c -0.06212,-0.062311 -0.06247,-0.1635029 -5.54e-4,-0.2260792 l 0.0079,-0.00829 c 0.04253,-0.043028 0.08502,-0.08604 0.127554,-0.1290574 0.06148,-0.062301 0.161448,-0.063341 0.223751,-0.00185 0.07808,0.077013 0.155683,0.15429 0.233196,0.2317625 0.06198,0.061984 0.162082,0.062113 0.224061,7.99e-5 0.0456,-0.045622 0.09111,-0.091245 0.13669,-0.1368012 0.06471,-0.064644 0.06245,-0.1706097 -0.0031,-0.2341142 -0.04411,-0.04253 -0.08752,-0.085567 -0.130651,-0.1291247 -0.03198,-0.032063 -0.06374,-0.064256 -0.09528,-0.096513 -0.06137,-0.062738 -0.06036,-0.1637136 0.0022,-0.225811 0.075,-0.075027 0.14976,-0.1502566 0.224736,-0.22533 0.101351,-0.101472 0.276172,-0.025742 0.278997,0.1181139 3.99e-4,0.02002 0.0013,0.040027 0.002,0.060067 -0.003,1.2378045 -0.003,2.4756085 -6e-4,3.7134137 -0.0026,0.9466958 0,1.8927828 -0.0026,2.8394818 -0.0023,0.08795 0.0111,0.17589 0.04021,0.258962 0.0085,0.02506 0.02513,0.04653 0.04586,0.06291 0.05447,0.04278 0.111176,0.083 0.172354,0.115841 0.0177,0.0091 0.0373,0.01505 0.0573,0.01536 0.147381,0.0023 0.281496,-0.06112 0.374661,-0.174672 0.01423,-0.01735 0.02322,-0.03838 0.02699,-0.06057 0.01556,-0.09203 0.01869,-0.186196 0.01977,-0.279348 -0.0029,-1.230956 -0.0011,-2.4619096 -0.0025,-3.6928814 0.0024,-1.2415327 0,-2.483065 5.94e-4,-3.7245979 6.04e-4,-0.1645614 0.0023,-0.3291073 -0.0015,-0.4936689 -2.23e-4,-0.011683 -0.0022,-0.023473 -0.0048,-0.034685 z"
       fill="url(#paint0_linear)"
       id="path2"
       style="fill:url(#paint0_linear);stroke-width:0.264583" />
    <path
       color-rendering="auto"
       shape-rendering="auto"
       image-rendering="auto"
       text-rendering="auto"
       d="m 6.6096212,3.6247913 -0.938063,0.087964 V 7.3443216 L 6.599356,7.217518 V 5.6653089 L 7.8360759,7.3834985 8.8049364,7.0907146 7.5370874,5.440908 8.815198,3.8790672 7.825816,3.6642937 6.599356,5.2261328 Z M 4.4967478,4.5130975 c -0.00906,0 -0.023127,0.00566 -0.030797,0.00993 l -0.360623,0.35154 c -0.015725,0.015347 -0.021524,0.040844 -0.00906,0.058747 L 4.5186722,5.5972236 C 4.4429244,5.7180594 4.386985,5.8501711 4.3435799,5.9875991 L 3.560004,6.1439512 c -0.021898,0.00566 -0.041046,0.017879 -0.041046,0.039157 v 0.4879702 c 0,0.020567 0.020143,0.04349 0.041046,0.048792 l 0.7625493,0.1756019 c 0.040736,0.1590111 0.1022529,0.3103759 0.1854294,0.4491334 l -0.4434356,0.634688 c -0.012295,0.017933 -0.00567,0.043491 0.00908,0.058752 l 0.3607078,0.3415796 c 0.015742,0.013959 0.043038,0.021233 0.061937,0.00964 L 5.1870818,7.9889395 c 0.1357707,0.074352 0.2781295,0.1361075 0.4327577,0.1756034 l 0.1648604,0.7322817 c 0.00438,0.021239 0.018929,0.039215 0.041026,0.039215 h 0.5152248 c 0.021863,0 0.04638,-0.01893 0.051613,-0.039215 L 6.578028,8.1645447 C 6.7376344,8.1237223 6.8925853,8.0566592 7.0316548,7.9789829 l 0.6801804,0.4295448 c 0.018834,0.011246 0.046025,0.00523 0.061927,-0.00953 L 8.1343734,8.0573909 c 0.015759,-0.015353 0.021538,-0.040844 0.00906,-0.058437 l -0.2473571,-0.3903727 -0.08246,0.029195 c -0.011972,0.00533 -0.024149,0 -0.030807,-0.00964 0,0 -0.1559476,-0.2237358 -0.3605871,-0.5075561 -0.2450309,0.4541102 -0.7440142,0.7614978 -1.319169,0.7614978 -0.8175313,0 -1.484065,-0.6217454 -1.484065,-1.3961928 0,-0.5696321 0.3612462,-1.0592633 0.8761391,-1.2786833 V 4.8457197 c -0.093718,0.031204 -0.1817792,0.063071 -0.2678789,0.1075499 0,0 -0.010767,0 -0.010767,0 L 4.526938,4.5237178 C 4.516049,4.5180578 4.506474,4.5131318 4.496141,4.5140078"
       id="path29-3-5"
       style="fill:#297eff;fill-opacity:1;stroke-width:0.999956" />
  </g>
</svg>
