<?xml version="1.0" encoding="UTF-8" standalone="no"?>
<svg
   width="68"
   height="68"
   viewBox="0 0 17.991665 17.991665"
   version="1.1"
   id="svg1114"
   inkscape:version="1.3.2 (091e20ef0f, 2023-11-25)"
   sodipodi:docname="kxstitch.svg"
   xmlns:inkscape="http://www.inkscape.org/namespaces/inkscape"
   xmlns:sodipodi="http://sodipodi.sourceforge.net/DTD/sodipodi-0.dtd"
   xmlns:xlink="http://www.w3.org/1999/xlink"
   xmlns="http://www.w3.org/2000/svg"
   xmlns:svg="http://www.w3.org/2000/svg"
   xmlns:rdf="http://www.w3.org/1999/02/22-rdf-syntax-ns#"
   xmlns:cc="http://creativecommons.org/ns#"
   xmlns:dc="http://purl.org/dc/elements/1.1/">
  <style
     type="text/css"
     id="current-color-scheme">.ColorScheme-Highlight { color:#5599ff; }
</style>
  <defs
     id="defs1108">
    <linearGradient
       id="linearGradient12"
       inkscape:collect="always">
      <stop
         style="stop-color:#ffffff;stop-opacity:0;"
         offset="0"
         id="stop10" />
      <stop
         id="stop11"
         offset="0.65909404"
         style="stop-color:#ffffff;stop-opacity:0" />
      <stop
         style="stop-color:#ffffff;stop-opacity:1;"
         offset="1"
         id="stop12" />
    </linearGradient>
    <linearGradient
       id="linearGradient9"
       inkscape:collect="always">
      <stop
         style="stop-color:#000000;stop-opacity:0;"
         offset="0"
         id="stop1" />
      <stop
         id="stop8"
         offset="0.66102529"
         style="stop-color:#000000;stop-opacity:0" />
      <stop
         style="stop-color:#000000;stop-opacity:1;"
         offset="1"
         id="stop9" />
    </linearGradient>
    <linearGradient
       id="linearGradient7"
       inkscape:collect="always">
      <stop
         style="stop-color:#000000;stop-opacity:0;"
         offset="0"
         id="stop5" />
      <stop
         id="stop6"
         offset="0.6586886"
         style="stop-color:#000000;stop-opacity:0" />
      <stop
         style="stop-color:#000000;stop-opacity:1;"
         offset="1"
         id="stop7" />
    </linearGradient>
    <linearGradient
       id="linearGradient4"
       inkscape:collect="always">
      <stop
         style="stop-color:#000000;stop-opacity:0;"
         offset="0"
         id="stop2" />
      <stop
         id="stop3"
         offset="0.67055255"
         style="stop-color:#000000;stop-opacity:0" />
      <stop
         style="stop-color:#000000;stop-opacity:1;"
         offset="1"
         id="stop4" />
    </linearGradient>
    <linearGradient
       inkscape:collect="always"
       id="linearGradient899">
      <stop
         style="stop-color:#b380ff;stop-opacity:1;"
         offset="0"
         id="stop895" />
      <stop
         style="stop-color:#67a3ff;stop-opacity:1;"
         offset="1"
         id="stop897" />
    </linearGradient>
    <linearGradient
       id="linearGradient1167"
       x1="40.751999"
       x2="40.751999"
       y1="28.507999"
       y2="17.205999"
       gradientUnits="userSpaceOnUse">
      <stop
         style="stop-color:#84fb6e;stop-opacity:1"
         stop-color="#0ab816"
         offset="0"
         id="stop1163" />
      <stop
         style="stop-color:#0dd41a;stop-opacity:1"
         stop-color="#0cf36c"
         offset="1"
         id="stop1165" />
    </linearGradient>
    <linearGradient
       id="cornerBevel"
       inkscape:collect="always">
      <stop
         style="stop-color:#000000;stop-opacity:0;"
         offset="0"
         id="stop2663" />
      <stop
         id="stop2671"
         offset="0.66666675"
         style="stop-color:#000000;stop-opacity:0" />
      <stop
         style="stop-color:#000000;stop-opacity:1;"
         offset="1"
         id="stop2661" />
    </linearGradient>
    <linearGradient
       id="bevel"
       inkscape:collect="always">
      <stop
         id="stop2685"
         offset="0"
         style="stop-color:#000000;stop-opacity:1;" />
      <stop
         id="stop2687"
         offset="1"
         style="stop-color:#000000;stop-opacity:0;" />
    </linearGradient>
    <linearGradient
       id="highlightCorner"
       inkscape:collect="always">
      <stop
         style="stop-color:#ffffff;stop-opacity:0;"
         offset="0"
         id="stop2613" />
      <stop
         id="stop2621"
         offset="0.66666669"
         style="stop-color:#ffffff;stop-opacity:0" />
      <stop
         style="stop-color:#ffffff;stop-opacity:1;"
         offset="1"
         id="stop2611" />
    </linearGradient>
    <linearGradient
       inkscape:collect="always"
       id="highlight">
      <stop
         style="stop-color:#ffffff;stop-opacity:1;"
         offset="0"
         id="stop2921" />
      <stop
         style="stop-color:#ffffff;stop-opacity:0;"
         offset="1"
         id="stop2923" />
    </linearGradient>
    <radialGradient
       inkscape:collect="always"
       xlink:href="#highlightCorner"
       id="radialGradient15"
       gradientUnits="userSpaceOnUse"
       gradientTransform="matrix(0.04294597,-12.079348,17.933991,0.06376112,14.524179,-50.373789)"
       cx="-4.5799766"
       cy="-0.50206107"
       fx="-4.5799766"
       fy="-0.50206107"
       r="0.39687499" />
    <linearGradient
       inkscape:collect="always"
       xlink:href="#highlight"
       id="linearGradient15"
       gradientUnits="userSpaceOnUse"
       x1="-3.8453064"
       y1="-1.1532172"
       x2="-3.8453064"
       y2="-0.8954913"
       gradientTransform="matrix(6.0923077,0,0,6.0923077,32.228528,7.1537621)" />
    <radialGradient
       inkscape:collect="always"
       xlink:href="#linearGradient12"
       id="radialGradient17"
       gradientUnits="userSpaceOnUse"
       gradientTransform="matrix(-0.02247554,-12.045403,-17.967828,0.03352619,1.6640208,-50.22331)"
       cx="-4.575222"
       cy="-0.55256462"
       fx="-4.575222"
       fy="-0.55256462"
       r="0.39687499" />
    <radialGradient
       inkscape:collect="always"
       xlink:href="#linearGradient7"
       id="radialGradient18"
       gradientUnits="userSpaceOnUse"
       gradientTransform="matrix(0.06461187,12.09952,17.933731,-0.09576873,14.609502,64.748231)"
       cx="-4.4284906"
       cy="-0.50121039"
       fx="-4.4284906"
       fy="-0.50121039"
       r="0.39687499" />
    <linearGradient
       inkscape:collect="always"
       xlink:href="#bevel"
       id="linearGradient18"
       gradientUnits="userSpaceOnUse"
       x1="-3.8415797"
       y1="-1.4506671"
       x2="-3.8406549"
       y2="-1.1968651"
       gradientTransform="matrix(6.0923076,0,0,6.0923076,32.228527,-7.1537627)" />
    <radialGradient
       inkscape:collect="always"
       xlink:href="#linearGradient4"
       id="radialGradient20"
       gradientUnits="userSpaceOnUse"
       gradientTransform="matrix(-0.01031383,11.991438,-17.967296,-0.01545561,1.7353715,64.305742)"
       cx="-4.4236727"
       cy="-0.55004197"
       fx="-4.4236727"
       fy="-0.55004197"
       r="0.39687499" />
    <radialGradient
       inkscape:collect="always"
       xlink:href="#cornerBevel"
       id="radialGradient25"
       gradientUnits="userSpaceOnUse"
       gradientTransform="matrix(12.184614,0,0,12.184614,59.63122,10.377613)"
       cx="-4.4568658"
       cy="-0.44864327"
       fx="-4.4568658"
       fy="-0.44864327"
       r="0.39687496" />
    <linearGradient
       inkscape:collect="always"
       xlink:href="#bevel"
       id="linearGradient25"
       gradientUnits="userSpaceOnUse"
       x1="-3.8487544"
       y1="-1.146081"
       x2="-3.8455966"
       y2="-0.890971"
       gradientTransform="matrix(6.0923077,0,0,6.0923077,32.228528,7.1537627)" />
    <radialGradient
       inkscape:collect="always"
       xlink:href="#cornerBevel"
       id="radialGradient29"
       gradientUnits="userSpaceOnUse"
       gradientTransform="matrix(0,-12.184614,12.184614,0,11.27353,-44.427768)"
       cx="-4.5705457"
       cy="-0.48653662"
       fx="-4.5705457"
       fy="-0.48653662"
       r="0.39687496" />
    <radialGradient
       inkscape:collect="always"
       xlink:href="#cornerBevel"
       id="radialGradient30"
       gradientUnits="userSpaceOnUse"
       gradientTransform="matrix(-12.184514,-0.04945749,0.04847411,-11.942243,-43.502155,3.8519053)"
       cx="-4.5342312"
       cy="-0.60337442"
       fx="-4.5342312"
       fy="-0.60337442"
       r="0.39687496" />
    <radialGradient
       inkscape:collect="always"
       xlink:href="#linearGradient9"
       id="radialGradient31"
       gradientUnits="userSpaceOnUse"
       gradientTransform="matrix(0,-12.151612,11.978956,0,18.475664,-48.770776)"
       cx="-4.4175329"
       cy="-0.56489283"
       fx="-4.4175329"
       fy="-0.56489283"
       r="0.39687496" />
    <linearGradient
       inkscape:collect="always"
       xlink:href="#bevel"
       id="linearGradient34"
       gradientUnits="userSpaceOnUse"
       x1="-3.99717"
       y1="-1.2218677"
       x2="-4.0003276"
       y2="-0.96675771"
       gradientTransform="matrix(6.0923077,0,0,6.0923077,17.025077,8.0496826)" />
    <linearGradient
       inkscape:collect="always"
       xlink:href="#bevel"
       id="linearGradient35"
       gradientUnits="userSpaceOnUse"
       x1="-4.0919032"
       y1="-1.4492278"
       x2="-4.0950613"
       y2="-1.1972755"
       gradientTransform="matrix(6.0923077,0,0,6.0923077,16.129161,-7.1537627)" />
    <linearGradient
       inkscape:collect="always"
       xlink:href="#bevel"
       id="linearGradient36"
       gradientUnits="userSpaceOnUse"
       x1="-3.8734362"
       y1="-1.3717227"
       x2="-3.8765941"
       y2="-1.116071"
       gradientTransform="matrix(6.0923077,0,0,6.0923077,31.33261,-8.0496826)" />
    <linearGradient
       id="paint2_linear_77:3-7"
       x1="79.398094"
       y1="-197.84389"
       x2="82.901054"
       y2="-199.97827"
       gradientUnits="userSpaceOnUse"
       gradientTransform="matrix(1.9248511,0,0,1.7314595,-40.88733,399.61741)">
      <stop
         stop-color="#EBFAFF"
         stop-opacity="0.1"
         id="stop29-5-7"
         offset="0"
         style="stop-color:#c3c3c3;stop-opacity:1;" />
      <stop
         offset="1"
         stop-color="#70A9FF"
         stop-opacity="0.5"
         id="stop30-0-1"
         style="stop-color:#05c7ff;stop-opacity:0.80000001;" />
    </linearGradient>
    <linearGradient
       inkscape:collect="always"
       xlink:href="#linearGradient899"
       id="linearGradient926"
       x1="0.98894888"
       y1="-9.3406019"
       x2="16.919081"
       y2="-9.2251434"
       gradientUnits="userSpaceOnUse"
       gradientTransform="translate(-0.92604234,0.47624996)" />
    <linearGradient
       id="a"
       x1="7.9369998"
       x2="7.9369998"
       y1="15.081"
       y2="1.852"
       gradientTransform="matrix(0.89278359,0,0,0.89278351,0.90778538,0.91466447)"
       gradientUnits="userSpaceOnUse">
      <stop
         offset="0"
         stop-color="#f1efeb"
         id="stop1-3" />
      <stop
         offset="1"
         stop-color="#fff"
         id="stop2-3" />
    </linearGradient>
    <linearGradient
       id="b-3"
       gradientTransform="matrix(0.9444453,0,0,0.94444519,-301.19123,-493.75403)"
       gradientUnits="userSpaceOnUse"
       x1="400.57141"
       x2="400.57141"
       y1="545.79797"
       y2="517.79797">
      <stop
         offset="0"
         stop-color="#eff0f1"
         id="stop7-6" />
      <stop
         offset="1"
         stop-color="#fcfcfc"
         id="stop9-7" />
    </linearGradient>
    <linearGradient
       id="d-9"
       gradientUnits="userSpaceOnUse"
       x1="13.571427"
       x2="13.142856"
       y1="21.285715"
       y2="3.2857144"
       gradientTransform="translate(-2.571427,-2.5714273)">
      <stop
         offset="0"
         stop-color="#788085"
         id="stop17-1" />
      <stop
         offset="1"
         stop-color="#9ba1a6"
         id="stop19-2" />
    </linearGradient>
    <linearGradient
       id="f-9-3"
       gradientUnits="userSpaceOnUse"
       x1="9.1779842"
       x2="11.427132"
       y1="7.534945"
       y2="9.7840929"
       gradientTransform="matrix(0.82283289,0,0,0.85921943,-0.93663235,-1.3146308)">
      <stop
         offset="0"
         id="stop2617-1-6" />
      <stop
         offset="1"
         stop-opacity="0"
         id="stop2619-2-0" />
    </linearGradient>
    <linearGradient
       inkscape:collect="always"
       xlink:href="#linearGradient5580"
       id="linearGradient5582-0-5"
       x1="11"
       y1="13"
       x2="10.34375"
       y2="10.96875"
       gradientUnits="userSpaceOnUse"
       gradientTransform="matrix(0.84004267,0,0,0.84350126,-2.2636409,-2.288179)" />
    <linearGradient
       inkscape:collect="always"
       id="linearGradient5580">
      <stop
         style="stop-color:#313031;stop-opacity:1;"
         offset="0"
         id="stop5576" />
      <stop
         style="stop-color:#8d8d8d;stop-opacity:1"
         offset="1"
         id="stop5578" />
    </linearGradient>
  </defs>
  <sodipodi:namedview
     id="base"
     pagecolor="#e2e2e2"
     bordercolor="#666666"
     borderopacity="1.0"
     inkscape:pageopacity="0"
     inkscape:pageshadow="2"
     inkscape:zoom="9.7248729"
     inkscape:cx="33.933605"
     inkscape:cy="28.997808"
     inkscape:document-units="px"
     inkscape:current-layer="layer1"
     inkscape:document-rotation="0"
     showgrid="true"
     units="px"
     inkscape:window-width="1920"
     inkscape:window-height="990"
     inkscape:window-x="0"
     inkscape:window-y="0"
     inkscape:window-maximized="1"
     inkscape:object-paths="true"
     inkscape:snap-grids="true"
     inkscape:snap-intersection-paths="true"
     inkscape:snap-smooth-nodes="true"
     inkscape:snap-midpoints="true"
     inkscape:showpageshadow="2"
     inkscape:pagecheckerboard="0"
     inkscape:deskcolor="#d1d1d1">
    <inkscape:grid
       id="grid2"
       units="px"
       originx="0"
       originy="0"
       spacingx="0.26458333"
       spacingy="0.26458333"
       empcolor="#0099e5"
       empopacity="0.30196078"
       color="#0099e5"
       opacity="0.14902"
       empspacing="5"
       dotted="false"
       gridanglex="30"
       gridanglez="30"
       visible="true" />
  </sodipodi:namedview>
  <metadata
     id="metadata1111">
    <rdf:RDF>
      <cc:Work
         rdf:about="">
        <dc:format>image/svg+xml</dc:format>
        <dc:type
           rdf:resource="http://purl.org/dc/dcmitype/StillImage" />
      </cc:Work>
    </rdf:RDF>
  </metadata>
  <g
     inkscape:label="Layer 1"
     inkscape:groupmode="layer"
     id="layer1">
    <g
       id="g918"
       transform="translate(0.47625037,0.92604234)">
      <rect
         ry="4.8357682"
         rx="4.8357682"
         style="fill:url(#linearGradient926);fill-opacity:1;stroke-width:6.09228"
         x="0.13229237"
         y="-16.457085"
         width="15.875001"
         height="15.875001"
         id="use1056"
         transform="rotate(90)"
         class="ColorScheme-Highlight" />
      <path
         d="m 5.344583,0.13229167 c -2.6384245,0 -4.76249953,2.12407483 -4.76249953,4.76249963 H 5.344583 Z"
         style="opacity:0.15;fill:url(#radialGradient25);fill-opacity:1;stroke-width:6.09228"
         id="path20" />
      <rect
         y="0.13229151"
         x="5.3445826"
         height="1.5875"
         width="6.3500004"
         id="rect20"
         style="opacity:0.15;fill:url(#linearGradient25);fill-opacity:1;stroke-width:4.83577;stroke-linecap:round;stroke-linejoin:round;paint-order:stroke fill markers" />
      <path
         d="m 0.58208347,11.244792 c 0,2.638424 2.12407503,4.762499 4.76249953,4.762499 v -4.762499 z"
         style="opacity:0.15;fill:url(#radialGradient29);fill-opacity:1;stroke-width:6.09228"
         id="use20" />
      <rect
         y="0.5820834"
         x="-11.244792"
         height="1.5875"
         width="6.3500004"
         id="use21"
         style="opacity:0.15;fill:url(#linearGradient34);fill-opacity:1;stroke-width:4.83577;stroke-linecap:round;stroke-linejoin:round;paint-order:stroke fill markers"
         transform="rotate(-90)" />
      <path
         d="m 11.694583,16.007291 c 2.638425,0 4.7625,-2.124074 4.7625,-4.762499 h -4.7625 z"
         style="opacity:0.15;fill:url(#radialGradient30);fill-opacity:1;stroke-width:6.09228"
         id="use22" />
      <rect
         y="-16.007292"
         x="-11.694584"
         height="1.5875"
         width="6.3500004"
         id="use23"
         style="opacity:0.15;fill:url(#linearGradient35);fill-opacity:1;stroke-width:4.83577;stroke-linecap:round;stroke-linejoin:round;paint-order:stroke fill markers"
         transform="scale(-1)" />
      <path
         d="m 16.457083,4.8947913 c 0,-2.6384245 -2.124074,-4.76249963 -4.7625,-4.76249963 V 4.8947913 Z"
         style="opacity:0.15;fill:url(#radialGradient31);fill-opacity:1;stroke-width:6.09228"
         id="use24" />
      <rect
         y="-16.457081"
         x="4.8947906"
         height="1.5875"
         width="6.3500004"
         id="use25"
         style="opacity:0.15;fill:url(#linearGradient36);fill-opacity:1;stroke-width:4.83577;stroke-linecap:round;stroke-linejoin:round;paint-order:stroke fill markers"
         transform="rotate(90)" />
      <path
         d="m 5.3445832,0.13229107 c -2.638425,0 -4.76250035,2.12407473 -4.76250035,4.76249973 H 5.3445832 Z"
         style="opacity:0.5;fill:url(#radialGradient15);fill-opacity:1;stroke-width:6.09228"
         id="path14" />
      <rect
         y="0.1322909"
         x="5.3445826"
         height="1.5875"
         width="6.3499999"
         id="rect14"
         style="opacity:0.5;fill:url(#linearGradient15);fill-opacity:1;stroke-width:4.83577;stroke-linecap:round;stroke-linejoin:round;paint-order:stroke fill markers" />
      <path
         d="m 11.694583,0.13229096 c 2.638425,0 4.7625,2.12407504 4.7625,4.76249734 h -4.7625 z"
         style="opacity:0.5;fill:url(#radialGradient17);fill-opacity:1;stroke-width:6.09228"
         id="use14" />
      <path
         id="path17"
         style="opacity:0.5;fill:url(#radialGradient18);fill-opacity:1;stroke-width:6.09228"
         d="m 5.3445834,16.00729 c -2.638425,0 -4.7625,-2.124075 -4.7625,-4.7625 h 4.7625 z" />
      <rect
         style="opacity:0.5;fill:url(#linearGradient18);fill-opacity:1;stroke-width:4.83577;stroke-linecap:round;stroke-linejoin:round;paint-order:stroke fill markers"
         id="rect17"
         width="6.3499994"
         height="1.5874999"
         x="5.3445826"
         y="-16.007292"
         transform="scale(1,-1)" />
      <path
         id="use17"
         style="opacity:0.5;fill:url(#radialGradient20);fill-opacity:1;stroke-width:6.09228"
         d="m 11.694582,16.007291 c 2.638425,0 4.7625,-2.124075 4.7625,-4.7625 h -4.7625 z" />
    </g>
    <rect
       width="13.229166"
       height="13.229165"
       x="2.3812497"
       y="2.3812501"
       fill="url(#a)"
       rx="3.6849496"
       ry="3.7431052"
       id="rect2"
       style="fill:url(#a);stroke-width:0.264582" />
    <path
       style="fill:#cdc6cd;fill-opacity:1;fill-rule:evenodd;stroke:none;stroke-width:0.26052px;stroke-linecap:butt;stroke-linejoin:miter;stroke-opacity:1"
       d="M 6.6479483,6.429496 C 6.3100173,5.4919436 6.012823,4.8640024 5.7731013,4.1091212 6.1601493,3.9720459 6.4987099,3.8775829 6.9690662,3.7064563 8.1857275,3.7090163 7.7082665,3.7207973 8.4461293,3.7041663 8.7769281,4.256891 9.0631666,5.280731 9.2834978,5.8498718 8.806019,5.9412418 9.0087467,5.9088518 8.3840759,6.0454929 6.867928,6.3771205 6.6479483,6.4296327 6.6479483,6.4296327 Z"
       id="path6525-5-9"
       inkscape:connector-curvature="0"
       sodipodi:nodetypes="cccccsc" />
    <path
       style="fill:#cdc6cd;fill-opacity:1;fill-rule:evenodd;stroke:none;stroke-width:0.26052px;stroke-linecap:butt;stroke-linejoin:miter;stroke-opacity:1"
       d="m 13.880124,8.7158873 c -0.649727,0.035021 -1.616275,0.2754364 -2.506575,0.6225497 v 0.2998078 c 0.21224,0.5974892 0.438381,1.0402212 0.732941,1.8574352 0,0 0.20541,-0.0153 1.721534,-0.346868 0.188731,-0.04123 0.334337,-0.06114 0.453675,-0.07485 l 0.0058,-1.6016413 C 14.148053,9.1820522 13.994652,8.9072842 13.880092,8.7158843 Z"
       id="path6611-6-1"
       inkscape:connector-curvature="0"
       sodipodi:nodetypes="cccccccc" />
    <path
       sodipodi:nodetypes="ccccsc"
       inkscape:connector-curvature="0"
       id="path6659-2-2"
       d="M 11.169256,8.6870608 C 10.831347,7.749512 10.74691,7.6273209 10.507126,6.8724202 11.422348,6.5054455 12.076548,6.1851259 12.748897,6.148828 c 0.330794,0.5527474 0.621877,1.537918 0.958546,2.0732696 -0.477519,0.091414 -0.793285,0.1362436 -1.417941,0.2728671 -1.516159,0.3315863 -1.120246,0.1920961 -1.120246,0.1920961 z"
       style="fill:#cdc6cd;fill-opacity:1;fill-rule:evenodd;stroke:none;stroke-width:0.26052px;stroke-linecap:butt;stroke-linejoin:miter;stroke-opacity:1" />
    <path
       sodipodi:nodetypes="ccccsc"
       inkscape:connector-curvature="0"
       id="path6663-9-7"
       d="M 8.4551935,12.107826 C 8.1172552,11.170263 7.8680224,10.739226 7.6282689,9.9843073 8.543498,9.7862576 9.7598428,9.4900063 10.432186,9.453774 c 0.190283,0.557585 0.457152,1.586212 0.79379,2.121539 -0.477521,0.09146 -0.759872,0.147792 -1.3888891,0.263199 -1.123647,0.206179 -1.3818975,0.269314 -1.3818934,0.269314 z"
       style="fill:#cdc6cd;fill-opacity:1;fill-rule:evenodd;stroke:none;stroke-width:0.26052px;stroke-linecap:butt;stroke-linejoin:miter;stroke-opacity:1" />
    <path
       style="fill:#cdc6cd;fill-opacity:1;fill-rule:evenodd;stroke:none;stroke-width:0.26052px;stroke-linecap:butt;stroke-linejoin:miter;stroke-opacity:1"
       d="M 7.4691369,9.4733539 C 7.1311871,8.5357545 6.9256322,8.0226832 6.6858398,7.2678017 7.6010815,6.9008204 8.9337412,6.7107853 9.606043,6.674512 9.9368998,7.2272405 10.111641,8.3523534 10.448279,8.8877549 9.9708295,8.9791343 9.8585448,8.9084003 9.2338707,9.0447545 7.7177121,9.3764258 7.4691369,9.4733539 7.4691369,9.4733539 Z"
       id="path6661-1-0"
       inkscape:connector-curvature="0"
       sodipodi:nodetypes="ccccsc" />
    <path
       sodipodi:nodetypes="ccccsc"
       inkscape:connector-curvature="0"
       id="path6667-2-9"
       d="M 4.8419599,12.864472 C 4.5040291,11.926942 4.2548164,11.495892 4.0150595,10.740964 4.9302919,10.37402 6.1708567,10.164668 6.8431903,10.128339 7.1740006,10.681137 7.440855,11.825574 7.7775053,12.36094 7.3000094,12.45241 7.1877585,12.38148 6.5630838,12.517959 5.0468981,12.849572 4.8419599,12.864472 4.8419599,12.864472 Z"
       style="fill:#cdc6cd;fill-opacity:1;fill-rule:evenodd;stroke:none;stroke-width:0.26052px;stroke-linecap:butt;stroke-linejoin:miter;stroke-opacity:1" />
    <path
       style="fill:#cdc6cd;fill-opacity:1;fill-rule:evenodd;stroke:none;stroke-width:0.26052px;stroke-linecap:butt;stroke-linejoin:miter;stroke-opacity:1"
       d="M 5.6456145,7.2963773 C 5.1319976,7.3239523 4.4198289,7.479079 3.7041665,7.7138408 v 1.924398 c 0.054528,0.1383107 0.1082739,0.2727793 0.1678174,0.4379932 0,0 0.2047509,-0.01513 1.7209042,-0.3469121 C 6.2175575,9.5926622 6.0891009,9.6378385 6.5666012,9.5464646 6.3088073,8.9906209 5.9763961,7.8491375 5.6456145,7.2963773 Z"
       id="path6669-7-3"
       inkscape:connector-curvature="0"
       sodipodi:nodetypes="ccccccc" />
    <path
       style="fill:#838183;fill-opacity:1;fill-rule:evenodd;stroke:none;stroke-width:0.26052px;stroke-linecap:butt;stroke-linejoin:miter;stroke-opacity:1"
       d="M 11.818459,7.9079009 C 11.541844,7.243081 11.314468,6.5952438 11.314468,6.5952438 c 0,0 0.46522,-0.2919822 1.434432,-0.4464158 0.216884,0.3735746 0.440611,0.9419274 0.76321,1.4430258 -0.688511,0.1187344 -1.053807,0.2005874 -1.589454,0.3667428 z"
       id="path6681-0-6"
       inkscape:connector-curvature="0"
       sodipodi:nodetypes="cccccc" />
    <path
       style="fill:#838183;fill-opacity:1;fill-rule:evenodd;stroke:none;stroke-width:0.26052px;stroke-linecap:butt;stroke-linejoin:miter;stroke-opacity:1"
       d="M 7.7925278,8.8429219 C 7.5159831,8.1780108 7.3564054,7.3226823 7.3564054,7.3226823 c 0,0 0.4845851,-0.214756 1.4538083,-0.3691999 0.216903,0.373584 0.4406193,1.0191604 0.7632774,1.5202309 -0.6885619,0.1187501 -0.952105,0.1137422 -1.4877486,0.2799122 z"
       id="path6683-9-0"
       inkscape:connector-curvature="0"
       sodipodi:nodetypes="cccccc" />
    <path
       style="fill:#838183;fill-opacity:1;fill-rule:evenodd;stroke:none;stroke-width:0.26052px;stroke-linecap:butt;stroke-linejoin:miter;stroke-opacity:1"
       d="M 12.459826,10.890321 C 12.183224,10.22549 11.955839,9.5776812 11.955839,9.5776812 c 0,0 0.484616,-0.2147622 1.453809,-0.3692273 0.216897,0.3735903 0.421225,0.8647131 0.743868,1.3658181 -0.688543,0.118715 -1.053826,0.200598 -1.589478,0.36675 z"
       id="path6689-3-6"
       inkscape:connector-curvature="0"
       sodipodi:nodetypes="cccccc" />
    <path
       sodipodi:nodetypes="ccccc"
       inkscape:connector-curvature="0"
       id="path6695-6-2"
       d="m 8.3212232,10.304387 c 0,0 0.484611,-0.214752 1.4537765,-0.3691977 C 9.9918752,10.308779 10.196262,10.79992 10.518875,11.30093 9.830341,11.419729 9.2178977,11.665695 8.6822181,11.831857 8.2474219,11.430946 8.2033254,10.860375 8.3212232,10.304387 Z"
       style="fill:#838183;fill-opacity:1;fill-rule:evenodd;stroke:none;stroke-width:0.26052px;stroke-linecap:butt;stroke-linejoin:miter;stroke-opacity:1" />
    <path
       style="fill:#838183;fill-opacity:1;fill-rule:evenodd;stroke:none;stroke-width:0.26052px;stroke-linecap:butt;stroke-linejoin:miter;stroke-opacity:1"
       d="M 5.2631558,12.318972 C 4.9865581,11.65409 4.7351924,10.941389 4.7351924,10.941389 c 0,0 0.6735973,-0.137485 1.6428004,-0.291912 0.2168598,0.373588 0.2322477,0.787475 0.5548266,1.288511 -0.6885027,0.118796 -0.9509974,0.149474 -1.4866653,0.315627 z"
       id="path6697-0-6"
       inkscape:connector-curvature="0"
       sodipodi:nodetypes="cccccc" />
    <path
       style="fill:#838183;fill-opacity:1;fill-rule:evenodd;stroke:none;stroke-width:0.26052px;stroke-linecap:butt;stroke-linejoin:miter;stroke-opacity:1"
       d="M 7.0324393,5.7673511 C 6.755771,5.1024974 6.528412,4.4546536 6.528412,4.4546536 c 0,0 0.4846386,-0.2147469 1.4537946,-0.3691965 0.2168829,0.3735847 0.3146422,0.8550816 0.5500085,1.3754362 -0.6884943,0.1187468 -0.8599512,0.190983 -1.395597,0.3571479 z"
       id="path6527-62-1"
       inkscape:connector-curvature="0"
       sodipodi:nodetypes="cccccc" />
    <path
       style="fill:#cdc6cd;fill-opacity:1;fill-rule:evenodd;stroke:none;stroke-width:0.26052px;stroke-linecap:butt;stroke-linejoin:miter;stroke-opacity:1"
       d="m 9.1534687,3.7075633 c 0.3120508,0.6179452 0.6157701,1.1577724 0.8026306,1.9937759 0,0 0.5688087,-0.109941 1.4162257,-0.3643747 0.612371,-0.183834 0.570452,-0.102864 1.047952,-0.1942358 C 12.180372,4.7611618 11.897099,4.1998383 11.634044,3.7075633 Z"
       id="path6655-6-8"
       inkscape:connector-curvature="0" />
    <path
       style="fill:#838183;fill-opacity:1;fill-rule:evenodd;stroke:none;stroke-width:0.26052px;stroke-linecap:butt;stroke-linejoin:miter;stroke-opacity:1"
       d="m 9.8185683,3.7075633 c -0.087903,0.031469 -0.1465874,0.054309 -0.1465874,0.054309 0,0 0.2273834,0.6478247 0.5040411,1.3126823 l 0.104202,0.050686 C 10.815829,4.9590754 11.181133,4.8772063 11.869633,4.7584595 11.627009,4.3815507 11.455052,4.027427 11.29057,3.7075647 Z"
       id="path6685-1-7"
       inkscape:connector-curvature="0" />
    <path
       style="fill:#cdc6cd;fill-opacity:1;fill-rule:evenodd;stroke:none;stroke-width:0.190657px;stroke-linecap:butt;stroke-linejoin:miter;stroke-opacity:1"
       d="M 4.3941953,6.8769532 C 4.1468744,6.1908603 3.9294246,5.7313546 3.753945,5.1789143 4.0371857,5.0786274 4.2849662,5.0095121 4.6291837,4.8842408 c 0.8903197,0.00256 0.5409262,0.010541 1.0809049,-0.00228 0.2420842,0.4044807 0.4515192,1.153713 0.6127519,1.5701638 C 5.9734567,6.5190476 6.1218043,6.4953176 5.6646627,6.595317 4.5551557,6.8380392 4.3941953,6.876473 4.3941953,6.876473 Z"
       id="path6525-3-8-9"
       inkscape:connector-curvature="0"
       sodipodi:nodetypes="cccccsc" />
    <path
       style="fill:#838183;fill-opacity:1;fill-rule:evenodd;stroke:none;stroke-width:0.190657px;stroke-linecap:butt;stroke-linejoin:miter;stroke-opacity:1"
       d="M 4.6755208,6.3923914 C 4.473095,5.905876 4.3067072,5.4318064 4.3067072,5.4318064 c 0,0 0.3546473,-0.1571904 1.0638777,-0.2702066 0.1587125,0.2734061 0.230237,0.6257483 0.4025164,1.0065411 -0.5038595,0.086908 -0.6293417,0.1397597 -1.02133,0.2613551 z"
       id="path6527-6-7-2"
       inkscape:connector-curvature="0"
       sodipodi:nodetypes="cccccc" />
    <path
       style="fill:#cdc6cd;fill-opacity:1;fill-rule:evenodd;stroke:none;stroke-width:0.26052px;stroke-linecap:butt;stroke-linejoin:miter;stroke-opacity:1"
       d="m 8.4503433,12.293681 c 0.3120498,0.617991 0.6157747,1.157785 0.8026372,1.993823 0,0 0.5688112,-0.110027 1.4162245,-0.364364 0.612324,-0.183852 0.570487,-0.102934 1.047952,-0.194255 -0.239913,-0.38158 -0.523127,-0.942889 -0.786273,-1.435204 z"
       id="path6655-5-9-0"
       inkscape:connector-curvature="0" />
    <path
       style="fill:#838183;fill-opacity:1;fill-rule:evenodd;stroke:none;stroke-width:0.26052px;stroke-linecap:butt;stroke-linejoin:miter;stroke-opacity:1"
       d="m 9.1154813,12.293681 c -0.087963,0.03154 -0.1466098,0.05443 -0.1466098,0.05443 0,0 0.2273873,0.647826 0.5039755,1.312711 l 0.1042348,0.05073 c 0.5356422,-0.1662 0.9009572,-0.248092 1.5894532,-0.366844 -0.242623,-0.376864 -0.414534,-0.731039 -0.579067,-1.050902 z"
       id="path6685-3-2-2"
       inkscape:connector-curvature="0" />
    <g
       transform="matrix(0.29642089,0,0,0.29520547,4.1777545,3.8729573)"
       id="g6318-7-3"
       style="stroke-width:0.841772">
      <path
         style="fill:url(#linearGradient5582-0-5);fill-opacity:1;stroke-width:0.841772"
         d="M 29.5,5 C 30.394021,4.7647422 31.587765,4.8368738 31.804966,4.8449792 31.137786,5.4977278 30.645092,5.757392 29.968294,6.060879 22.034188,9.319426 10.203578,13.079821 3.2901786,15.970982 2.5368092,16.082708 2.0736607,15.786458 1.7477678,15.446429 1.1941964,14.707589 1.2455357,14.749346 0.94419643,13.5 0.81361876,11.969952 1.8710547,11.346308 2.625,11.125"
         id="path6456-5-7"
         inkscape:connector-curvature="0"
         sodipodi:nodetypes="ccccccc" />
      <path
         style="fill:#cdc6cd;fill-opacity:1;stroke-width:0.841772"
         d="M 26.28125,9.28125 26.1875,9.4375 26.234375,9.359375 26.28125,9.28125"
         id="path6514-9-5"
         inkscape:connector-curvature="0"
         sodipodi:nodetypes="cccc" />
      <path
         style="fill:#ff0000;fill-opacity:1;stroke-width:0.841772"
         d="m 24,10.5 c 0.166667,-0.166667 0.375,-0.291667 0.625,-0.375 C 24.875,10.041667 25.166667,10 25.5,10 H 26 l 0.375,0.125 c 0.25,0.08333 0.458333,0.208333 0.625,0.375 l 0.5,0.5 c 0.166667,0.166667 0.291667,0.375 0.375,0.625 L 28,12 27.875,12.375 c -0.08333,0.25 -0.25,0.416667 -0.5,0.5 l -0.75,0.25 c -1.304687,0.544541 -2.300021,1.037125 -2.929405,1.680309 0.456218,0.208568 1.646446,0.865508 1.929405,1.069691 1.641094,1.285957 1.860131,1.186233 3.75,2.25 0.25,0.08333 0.416667,0.25 0.5,0.5 C 29.95833,18.875 30,19.166667 30,19.5 v 1 c 0,0.333333 -0.166667,0.5 -0.5,0.5 h -0.5 -0.5 -1 -1 c -0.333333,0 -0.625,-0.04167 -0.875,-0.125 -0.25,-0.08333 -0.621745,-0.25 -0.705078,-0.5 -4.132018,-3.325598 -7.26765,-5.009111 -11.294922,-6.5 -0.25,-0.08333 -0.416667,-0.25 -0.5,-0.5 -0.08333,-0.25 -0.08333,-0.5 0,-0.75 0.08333,-0.25 0.208251,-0.439643 0.456055,-0.529297 l 0.771972,-0.279297 C 15.539792,11.379496 16.08139,11.209768 17.18457,10.802734 17.48584,11.054521 17.833333,11.333333 18,11.5 c 0.166667,0.166667 0.375,0.291667 0.625,0.375 l 0.75,0.25 c 0.25,0.08333 1.333333,0.688802 1.542969,0.792969 0.143609,-0.115126 0.319328,-0.09783 0.621089,-0.355469 C 21.84082,12.304866 22.833333,11.666667 23,11.5 L 23.5,11 24,10.5"
         id="path6568-2-9"
         inkscape:connector-curvature="0"
         sodipodi:nodetypes="csscsssscssccccsssscccssccsssccsssczscc" />
      <path
         style="fill:#ff0000;fill-opacity:1;stroke-width:0.841772"
         d="m 4,12.5 c 0.1666667,-0.166667 0.375,-0.291667 0.625,-0.375 0.25,-0.08333 0.5,-0.08333 0.75,0 0.25,0.08333 0.4166667,0.25 0.5,0.5 0.4984038,0.831301 0.8061239,1.34354 1.125,1.875 0.6035569,1.443751 0.6942543,1.655914 0.90625,2.59375 L 8,18.5 v 1 c 0,1.666667 -0.46875,1.897786 -0.46875,3.564453 0,0.333333 -0.041667,0.625 -0.125,0.875 -0.083333,0.25 -0.2083332,0.458333 -0.375,0.625 l -0.5,0.5 c -0.1666669,0.166667 -0.375,0.291667 -0.625,0.375 -0.25,0.08333 -0.375,-0.04167 -0.375,-0.375 v -1 -1 C 5.53125,21.397786 6,21.166667 6,19.5 v -1 C 6,18.166667 5.9583333,17.875 5.875,17.625 5.2232143,16.104911 4.7706237,15.364989 4.296875,14.470982 L 3.625,13.875 C 3.4278598,13.700128 3.25,13.666667 3.25,13.5 3.25,13.333333 3.3333333,13.166667 3.5,13 L 4,12.5"
         id="path6576-2-2"
         inkscape:connector-curvature="0"
         sodipodi:nodetypes="cssccccccssssscccsccsssc" />
      <path
         style="fill:#c50000;fill-opacity:1;stroke-width:0.841772"
         d="m 20.917969,12.917969 c 0.172256,-0.134951 0.276209,-0.127605 0.50582,-0.260114 1.147004,0.26424 2.803292,1.654887 2.271806,2.147454"
         id="path6590-8-2"
         inkscape:connector-curvature="0"
         sodipodi:nodetypes="ccc" />
      <path
         style="fill:#ff0000;fill-opacity:1;stroke-width:0.841772"
         d="m 1.2945303,14.775383 0.4532375,0.671046 0.4409529,0.311872 c 0.272145,0.192479 0.5912998,0.242798 1.170166,0.185058 L 3.1025391,16.996338 3,17.5 C 2.0839014,20.558871 1.7398727,22.45373 1.4350364,25.075322 1.1346541,27.127112 1,29.5 1,31.5 V 32 H 0.5 0 C 0,27.666667 0,23.333333 0,19 l 0.33035714,-0.861607"
         id="path6618-9-8"
         inkscape:connector-curvature="0"
         sodipodi:nodetypes="ccscccccccccc" />
      <path
         style="fill:#c50000;fill-opacity:1;stroke-width:0.841772"
         d="m 18.047454,15.800193 c 1.093446,0.500667 1.827568,0.915476 2.543648,1.373505 C 20.366083,17.647581 20.25185,17.511146 20,18 17.366457,16.518996 17.97265,16.97516 17.444107,16.495126"
         id="path6624-7-9"
         inkscape:connector-curvature="0"
         sodipodi:nodetypes="cccc" />
      <path
         style="fill:#cdc6cd;fill-opacity:1;stroke-width:0.841772"
         d="M 30,16.5 V 16 H 30.5 31 V 16.5 17 H 30.5 30 v -0.5"
         id="path6634-3-7"
         inkscape:connector-curvature="0" />
      <path
         style="fill:#ff0000;fill-opacity:1;stroke-width:0.841772"
         d="M 17.444107,16.495126 C 19.094003,17.543995 18.82255,17.323656 20,18 c -0.166667,0.166667 -0.791667,1.375 -0.875,1.625 L 19,20 l 0.125,0.375 c 0.08333,0.25 0.208333,0.458333 0.375,0.625 0.166667,0.166667 0.291667,0.375 0.375,0.625 0.08333,0.25 0.08333,0.5 0,0.75 -0.08333,0.25 -0.25,0.416667 -0.5,0.5 -0.679863,0.516016 -1.406477,0.643886 -2,1 C 16.778952,24.078379 16.126622,24 15.5,24 14.697933,23.756374 13.958191,23.546004 14,22.5 c 0.299213,-1.375151 1.183089,-3.057117 1.831456,-4.18501"
         id="path6642-6-3"
         inkscape:connector-curvature="0"
         sodipodi:nodetypes="ccscssssccccc" />
    </g>
  </g>
</svg>
