<?xml version="1.0" encoding="UTF-8" standalone="no"?>
<svg
   width="68"
   height="68"
   viewBox="0 0 17.991665 17.991665"
   version="1.1"
   id="svg1114"
   inkscape:version="1.3.2 (091e20ef0f, 2023-11-25)"
   sodipodi:docname="org.texstudio.TeXstudio.svg"
   xmlns:inkscape="http://www.inkscape.org/namespaces/inkscape"
   xmlns:sodipodi="http://sodipodi.sourceforge.net/DTD/sodipodi-0.dtd"
   xmlns:xlink="http://www.w3.org/1999/xlink"
   xmlns="http://www.w3.org/2000/svg"
   xmlns:svg="http://www.w3.org/2000/svg"
   xmlns:rdf="http://www.w3.org/1999/02/22-rdf-syntax-ns#"
   xmlns:cc="http://creativecommons.org/ns#"
   xmlns:dc="http://purl.org/dc/elements/1.1/">
  <style
     type="text/css"
     id="current-color-scheme">.ColorScheme-Highlight { color:#5599ff; }
</style>
  <defs
     id="defs1108">
    <linearGradient
       id="linearGradient12"
       inkscape:collect="always">
      <stop
         style="stop-color:#ffffff;stop-opacity:0;"
         offset="0"
         id="stop10" />
      <stop
         id="stop11"
         offset="0.65909404"
         style="stop-color:#ffffff;stop-opacity:0" />
      <stop
         style="stop-color:#ffffff;stop-opacity:1;"
         offset="1"
         id="stop12" />
    </linearGradient>
    <linearGradient
       id="linearGradient9"
       inkscape:collect="always">
      <stop
         style="stop-color:#000000;stop-opacity:0;"
         offset="0"
         id="stop1" />
      <stop
         id="stop8"
         offset="0.66102529"
         style="stop-color:#000000;stop-opacity:0" />
      <stop
         style="stop-color:#000000;stop-opacity:1;"
         offset="1"
         id="stop9" />
    </linearGradient>
    <linearGradient
       id="linearGradient7"
       inkscape:collect="always">
      <stop
         style="stop-color:#000000;stop-opacity:0;"
         offset="0"
         id="stop5" />
      <stop
         id="stop6"
         offset="0.6586886"
         style="stop-color:#000000;stop-opacity:0" />
      <stop
         style="stop-color:#000000;stop-opacity:1;"
         offset="1"
         id="stop7" />
    </linearGradient>
    <linearGradient
       id="linearGradient4"
       inkscape:collect="always">
      <stop
         style="stop-color:#000000;stop-opacity:0;"
         offset="0"
         id="stop2" />
      <stop
         id="stop3"
         offset="0.67055255"
         style="stop-color:#000000;stop-opacity:0" />
      <stop
         style="stop-color:#000000;stop-opacity:1;"
         offset="1"
         id="stop4" />
    </linearGradient>
    <linearGradient
       inkscape:collect="always"
       id="linearGradient899">
      <stop
         style="stop-color:#566592;stop-opacity:1;"
         offset="0"
         id="stop895" />
      <stop
         style="stop-color:#9955ff;stop-opacity:1;"
         offset="1"
         id="stop897" />
    </linearGradient>
    <linearGradient
       id="linearGradient1167"
       x1="40.751999"
       x2="40.751999"
       y1="28.507999"
       y2="17.205999"
       gradientUnits="userSpaceOnUse">
      <stop
         style="stop-color:#84fb6e;stop-opacity:1"
         stop-color="#0ab816"
         offset="0"
         id="stop1163" />
      <stop
         style="stop-color:#0dd41a;stop-opacity:1"
         stop-color="#0cf36c"
         offset="1"
         id="stop1165" />
    </linearGradient>
    <linearGradient
       id="cornerBevel"
       inkscape:collect="always">
      <stop
         style="stop-color:#000000;stop-opacity:0;"
         offset="0"
         id="stop2663" />
      <stop
         id="stop2671"
         offset="0.66666675"
         style="stop-color:#000000;stop-opacity:0" />
      <stop
         style="stop-color:#000000;stop-opacity:1;"
         offset="1"
         id="stop2661" />
    </linearGradient>
    <linearGradient
       id="bevel"
       inkscape:collect="always">
      <stop
         id="stop2685"
         offset="0"
         style="stop-color:#000000;stop-opacity:1;" />
      <stop
         id="stop2687"
         offset="1"
         style="stop-color:#000000;stop-opacity:0;" />
    </linearGradient>
    <linearGradient
       id="highlightCorner"
       inkscape:collect="always">
      <stop
         style="stop-color:#ffffff;stop-opacity:0;"
         offset="0"
         id="stop2613" />
      <stop
         id="stop2621"
         offset="0.66666669"
         style="stop-color:#ffffff;stop-opacity:0" />
      <stop
         style="stop-color:#ffffff;stop-opacity:1;"
         offset="1"
         id="stop2611" />
    </linearGradient>
    <linearGradient
       inkscape:collect="always"
       id="highlight">
      <stop
         style="stop-color:#ffffff;stop-opacity:1;"
         offset="0"
         id="stop2921" />
      <stop
         style="stop-color:#ffffff;stop-opacity:0;"
         offset="1"
         id="stop2923" />
    </linearGradient>
    <radialGradient
       inkscape:collect="always"
       xlink:href="#highlightCorner"
       id="radialGradient15"
       gradientUnits="userSpaceOnUse"
       gradientTransform="matrix(0.04294597,-12.079348,17.933991,0.06376112,14.524179,-50.373789)"
       cx="-4.5799766"
       cy="-0.50206107"
       fx="-4.5799766"
       fy="-0.50206107"
       r="0.39687499" />
    <linearGradient
       inkscape:collect="always"
       xlink:href="#highlight"
       id="linearGradient15"
       gradientUnits="userSpaceOnUse"
       x1="-3.8453064"
       y1="-1.1532172"
       x2="-3.8453064"
       y2="-0.8954913"
       gradientTransform="matrix(6.0923077,0,0,6.0923077,32.228528,7.1537621)" />
    <radialGradient
       inkscape:collect="always"
       xlink:href="#linearGradient12"
       id="radialGradient17"
       gradientUnits="userSpaceOnUse"
       gradientTransform="matrix(-0.02247554,-12.045403,-17.967828,0.03352619,1.6640208,-50.22331)"
       cx="-4.575222"
       cy="-0.55256462"
       fx="-4.575222"
       fy="-0.55256462"
       r="0.39687499" />
    <radialGradient
       inkscape:collect="always"
       xlink:href="#linearGradient7"
       id="radialGradient18"
       gradientUnits="userSpaceOnUse"
       gradientTransform="matrix(0.06461187,12.09952,17.933731,-0.09576873,14.609502,64.748231)"
       cx="-4.4284906"
       cy="-0.50121039"
       fx="-4.4284906"
       fy="-0.50121039"
       r="0.39687499" />
    <linearGradient
       inkscape:collect="always"
       xlink:href="#bevel"
       id="linearGradient18"
       gradientUnits="userSpaceOnUse"
       x1="-3.8415797"
       y1="-1.4506671"
       x2="-3.8406549"
       y2="-1.1968651"
       gradientTransform="matrix(6.0923076,0,0,6.0923076,32.228527,-7.1537627)" />
    <radialGradient
       inkscape:collect="always"
       xlink:href="#linearGradient4"
       id="radialGradient20"
       gradientUnits="userSpaceOnUse"
       gradientTransform="matrix(-0.01031383,11.991438,-17.967296,-0.01545561,1.7353715,64.305742)"
       cx="-4.4236727"
       cy="-0.55004197"
       fx="-4.4236727"
       fy="-0.55004197"
       r="0.39687499" />
    <radialGradient
       inkscape:collect="always"
       xlink:href="#cornerBevel"
       id="radialGradient25"
       gradientUnits="userSpaceOnUse"
       gradientTransform="matrix(12.184614,0,0,12.184614,59.63122,10.377613)"
       cx="-4.4568658"
       cy="-0.44864327"
       fx="-4.4568658"
       fy="-0.44864327"
       r="0.39687496" />
    <linearGradient
       inkscape:collect="always"
       xlink:href="#bevel"
       id="linearGradient25"
       gradientUnits="userSpaceOnUse"
       x1="-3.8487544"
       y1="-1.146081"
       x2="-3.8455966"
       y2="-0.890971"
       gradientTransform="matrix(6.0923077,0,0,6.0923077,32.228528,7.1537627)" />
    <radialGradient
       inkscape:collect="always"
       xlink:href="#cornerBevel"
       id="radialGradient29"
       gradientUnits="userSpaceOnUse"
       gradientTransform="matrix(0,-12.184614,12.184614,0,11.27353,-44.427768)"
       cx="-4.5705457"
       cy="-0.48653662"
       fx="-4.5705457"
       fy="-0.48653662"
       r="0.39687496" />
    <radialGradient
       inkscape:collect="always"
       xlink:href="#cornerBevel"
       id="radialGradient30"
       gradientUnits="userSpaceOnUse"
       gradientTransform="matrix(-12.184514,-0.04945749,0.04847411,-11.942243,-43.502155,3.8519053)"
       cx="-4.5342312"
       cy="-0.60337442"
       fx="-4.5342312"
       fy="-0.60337442"
       r="0.39687496" />
    <radialGradient
       inkscape:collect="always"
       xlink:href="#linearGradient9"
       id="radialGradient31"
       gradientUnits="userSpaceOnUse"
       gradientTransform="matrix(0,-12.151612,11.978956,0,18.475664,-48.770776)"
       cx="-4.4175329"
       cy="-0.56489283"
       fx="-4.4175329"
       fy="-0.56489283"
       r="0.39687496" />
    <linearGradient
       inkscape:collect="always"
       xlink:href="#bevel"
       id="linearGradient34"
       gradientUnits="userSpaceOnUse"
       x1="-3.99717"
       y1="-1.2218677"
       x2="-4.0003276"
       y2="-0.96675771"
       gradientTransform="matrix(6.0923077,0,0,6.0923077,17.025077,8.0496826)" />
    <linearGradient
       inkscape:collect="always"
       xlink:href="#bevel"
       id="linearGradient35"
       gradientUnits="userSpaceOnUse"
       x1="-4.0919032"
       y1="-1.4492278"
       x2="-4.0950613"
       y2="-1.1972755"
       gradientTransform="matrix(6.0923077,0,0,6.0923077,16.129161,-7.1537627)" />
    <linearGradient
       inkscape:collect="always"
       xlink:href="#bevel"
       id="linearGradient36"
       gradientUnits="userSpaceOnUse"
       x1="-3.8734362"
       y1="-1.3717227"
       x2="-3.8765941"
       y2="-1.116071"
       gradientTransform="matrix(6.0923077,0,0,6.0923077,31.33261,-8.0496826)" />
    <linearGradient
       id="paint2_linear_77:3-7"
       x1="79.398094"
       y1="-197.84389"
       x2="82.901054"
       y2="-199.97827"
       gradientUnits="userSpaceOnUse"
       gradientTransform="matrix(1.9248511,0,0,1.7314595,-40.88733,399.61741)">
      <stop
         stop-color="#EBFAFF"
         stop-opacity="0.1"
         id="stop29-5-7"
         offset="0"
         style="stop-color:#c3c3c3;stop-opacity:1;" />
      <stop
         offset="1"
         stop-color="#70A9FF"
         stop-opacity="0.5"
         id="stop30-0-1"
         style="stop-color:#05c7ff;stop-opacity:0.80000001;" />
    </linearGradient>
    <linearGradient
       inkscape:collect="always"
       xlink:href="#linearGradient899"
       id="linearGradient926"
       x1="1.1521901"
       y1="-9.3133945"
       x2="16.919081"
       y2="-9.2251434"
       gradientUnits="userSpaceOnUse"
       gradientTransform="translate(-0.92604234,0.47624996)" />
    <linearGradient
       id="s"
       x1="-1129.7"
       x2="-1106.6"
       y1="944.53003"
       y2="962.73999"
       gradientTransform="matrix(0,0.33027508,0.34249609,0,-318.20579,377.70211)"
       gradientUnits="userSpaceOnUse">
      <stop
         stop-color="#BFBFBF"
         offset="0"
         id="stop5-6" />
      <stop
         stop-color="#fff"
         offset=".5"
         id="stop6-7" />
      <stop
         stop-color="#BFBFBF"
         offset="1"
         id="stop7-3" />
    </linearGradient>
    <linearGradient
       id="r"
       x1="-1196.7"
       x2="-1197.3"
       y1="860.46002"
       y2="818.53998"
       gradientTransform="matrix(0.10799212,0,0,0.10414375,1.5565706,1.7949999)"
       gradientUnits="userSpaceOnUse">
      <stop
         stop-color="#323232"
         offset="0"
         id="stop8-5"
         style="stop-color:#000000;stop-opacity:1;" />
      <stop
         offset="1"
         id="stop9-6" />
    </linearGradient>
    <linearGradient
       id="c"
       gradientUnits="userSpaceOnUse"
       x1="15"
       x2="38"
       y1="13"
       y2="36"
       gradientTransform="scale(0.2645834)">
      <stop
         offset="0"
         stop-color="#194f95"
         id="stop12-3" />
      <stop
         offset="1"
         stop-color="#194f95"
         stop-opacity="0"
         id="stop14" />
    </linearGradient>
  </defs>
  <sodipodi:namedview
     id="base"
     pagecolor="#e2e2e2"
     bordercolor="#666666"
     borderopacity="1.0"
     inkscape:pageopacity="0"
     inkscape:pageshadow="2"
     inkscape:zoom="9.724873"
     inkscape:cx="31.362877"
     inkscape:cy="31.465707"
     inkscape:document-units="px"
     inkscape:current-layer="layer1"
     inkscape:document-rotation="0"
     showgrid="true"
     units="px"
     inkscape:window-width="1920"
     inkscape:window-height="990"
     inkscape:window-x="0"
     inkscape:window-y="0"
     inkscape:window-maximized="1"
     inkscape:object-paths="true"
     inkscape:snap-grids="true"
     inkscape:snap-intersection-paths="true"
     inkscape:snap-smooth-nodes="true"
     inkscape:snap-midpoints="true"
     inkscape:showpageshadow="2"
     inkscape:pagecheckerboard="0"
     inkscape:deskcolor="#d1d1d1">
    <inkscape:grid
       id="grid2"
       units="px"
       originx="0"
       originy="0"
       spacingx="0.26458333"
       spacingy="0.26458333"
       empcolor="#0099e5"
       empopacity="0.30196078"
       color="#0099e5"
       opacity="0.14902"
       empspacing="5"
       dotted="false"
       gridanglex="30"
       gridanglez="30"
       visible="true" />
  </sodipodi:namedview>
  <metadata
     id="metadata1111">
    <rdf:RDF>
      <cc:Work
         rdf:about="">
        <dc:format>image/svg+xml</dc:format>
        <dc:type
           rdf:resource="http://purl.org/dc/dcmitype/StillImage" />
      </cc:Work>
    </rdf:RDF>
  </metadata>
  <g
     inkscape:label="Layer 1"
     inkscape:groupmode="layer"
     id="layer1">
    <g
       id="g918"
       transform="translate(0.47625037,0.92604234)">
      <rect
         ry="4.8357682"
         rx="4.8357682"
         style="fill:url(#linearGradient926);fill-opacity:1;stroke-width:6.09228"
         x="0.13229237"
         y="-16.457085"
         width="15.875001"
         height="15.875001"
         id="use1056"
         transform="rotate(90)"
         class="ColorScheme-Highlight" />
      <path
         d="m 5.344583,0.13229167 c -2.6384245,0 -4.76249953,2.12407483 -4.76249953,4.76249963 H 5.344583 Z"
         style="opacity:0.15;fill:url(#radialGradient25);fill-opacity:1;stroke-width:6.09228"
         id="path20" />
      <rect
         y="0.13229151"
         x="5.3445826"
         height="1.5875"
         width="6.3500004"
         id="rect20"
         style="opacity:0.15;fill:url(#linearGradient25);fill-opacity:1;stroke-width:4.83577;stroke-linecap:round;stroke-linejoin:round;paint-order:stroke fill markers" />
      <path
         d="m 0.58208347,11.244792 c 0,2.638424 2.12407503,4.762499 4.76249953,4.762499 v -4.762499 z"
         style="opacity:0.15;fill:url(#radialGradient29);fill-opacity:1;stroke-width:6.09228"
         id="use20" />
      <rect
         y="0.5820834"
         x="-11.244792"
         height="1.5875"
         width="6.3500004"
         id="use21"
         style="opacity:0.15;fill:url(#linearGradient34);fill-opacity:1;stroke-width:4.83577;stroke-linecap:round;stroke-linejoin:round;paint-order:stroke fill markers"
         transform="rotate(-90)" />
      <path
         d="m 11.694583,16.007291 c 2.638425,0 4.7625,-2.124074 4.7625,-4.762499 h -4.7625 z"
         style="opacity:0.15;fill:url(#radialGradient30);fill-opacity:1;stroke-width:6.09228"
         id="use22" />
      <rect
         y="-16.007292"
         x="-11.694584"
         height="1.5875"
         width="6.3500004"
         id="use23"
         style="opacity:0.15;fill:url(#linearGradient35);fill-opacity:1;stroke-width:4.83577;stroke-linecap:round;stroke-linejoin:round;paint-order:stroke fill markers"
         transform="scale(-1)" />
      <path
         d="m 16.457083,4.8947913 c 0,-2.6384245 -2.124074,-4.76249963 -4.7625,-4.76249963 V 4.8947913 Z"
         style="opacity:0.15;fill:url(#radialGradient31);fill-opacity:1;stroke-width:6.09228"
         id="use24" />
      <rect
         y="-16.457081"
         x="4.8947906"
         height="1.5875"
         width="6.3500004"
         id="use25"
         style="opacity:0.15;fill:url(#linearGradient36);fill-opacity:1;stroke-width:4.83577;stroke-linecap:round;stroke-linejoin:round;paint-order:stroke fill markers"
         transform="rotate(90)" />
      <path
         d="m 5.3445832,0.13229107 c -2.638425,0 -4.76250035,2.12407473 -4.76250035,4.76249973 H 5.3445832 Z"
         style="opacity:0.5;fill:url(#radialGradient15);fill-opacity:1;stroke-width:6.09228"
         id="path14" />
      <rect
         y="0.1322909"
         x="5.3445826"
         height="1.5875"
         width="6.3499999"
         id="rect14"
         style="opacity:0.5;fill:url(#linearGradient15);fill-opacity:1;stroke-width:4.83577;stroke-linecap:round;stroke-linejoin:round;paint-order:stroke fill markers" />
      <path
         d="m 11.694583,0.13229096 c 2.638425,0 4.7625,2.12407504 4.7625,4.76249734 h -4.7625 z"
         style="opacity:0.5;fill:url(#radialGradient17);fill-opacity:1;stroke-width:6.09228"
         id="use14" />
      <path
         id="path17"
         style="opacity:0.5;fill:url(#radialGradient18);fill-opacity:1;stroke-width:6.09228"
         d="m 5.3445834,16.00729 c -2.638425,0 -4.7625,-2.124075 -4.7625,-4.7625 h 4.7625 z" />
      <rect
         style="opacity:0.5;fill:url(#linearGradient18);fill-opacity:1;stroke-width:4.83577;stroke-linecap:round;stroke-linejoin:round;paint-order:stroke fill markers"
         id="rect17"
         width="6.3499994"
         height="1.5874999"
         x="5.3445826"
         y="-16.007292"
         transform="scale(1,-1)" />
      <path
         id="use17"
         style="opacity:0.5;fill:url(#radialGradient20);fill-opacity:1;stroke-width:6.09228"
         d="m 11.694582,16.007291 c 2.638425,0 4.7625,-2.124075 4.7625,-4.7625 h -4.7625 z" />
    </g>
    <path
       style="opacity:0.2;stroke-width:0.264583"
       d="m 3.7598563,5.2498968 a 1.1141346,1.1141578 0 0 0 -1.1140232,1.114047 v 1.114045 a 1.1141346,1.1141578 0 0 0 0.8912188,1.0905469 v 2.4744083 a 1.1141346,1.1141578 0 0 0 1.1140227,1.114047 h 1.3368279 a 1.1141346,1.1141578 0 0 0 0.445609,-0.09358 v 0.316379 a 1.1141346,1.1141578 0 0 0 1.1140232,1.114045 H 10.6668 a 1.1141346,1.1141578 0 0 0 1.11402,-1.114045 v -0.222813 h 0.371638 a 1.1141346,1.1141578 0 0 0 0.520449,-0.129676 1.1141346,1.1141578 0 0 0 0.518721,0.129676 h 1.040044 a 1.1141346,1.1141578 0 0 0 1.036565,-1.522671 L 14.499733,8.6860277 15.265625,6.7790948 a 1.1141346,1.1141578 0 0 0 -1.033953,-1.529198 h -1.040044 a 1.1141346,1.1141578 0 0 0 -0.520458,0.129682 1.1141346,1.1141578 0 0 0 -0.518712,-0.129682 h -1.040051 a 1.1141346,1.1141578 0 0 0 -1.090523,1.336855 H 7.9931439 V 6.3639438 A 1.1141346,1.1141578 0 0 0 6.8791207,5.2498968 Z"
       id="path2" />
    <path
       style="fill:#7f2aff;stroke-width:0.264583"
       d="M 3.7598563,5.0270879 A 1.1141346,1.1141578 0 0 0 2.6458331,6.1411338 v 1.114046 a 1.1141346,1.1141578 0 0 0 0.8912188,1.0905469 v 2.4744063 a 1.1141346,1.1141578 0 0 0 1.1140227,1.114056 h 1.3368279 a 1.1141346,1.1141578 0 0 0 0.445609,-0.0936 v 0.316377 a 1.1141346,1.1141578 0 0 0 1.1140232,1.114052 H 10.6668 a 1.1141346,1.1141578 0 0 0 1.11402,-1.114038 v -0.222803 h 0.371638 a 1.1141346,1.1141578 0 0 0 0.520449,-0.129685 1.1141346,1.1141578 0 0 0 0.518721,0.129685 h 1.040044 a 1.1141346,1.1141578 0 0 0 1.036565,-1.522681 L 14.499733,8.4632187 15.265625,6.5562848 A 1.1141346,1.1141578 0 0 0 14.231672,5.0270829 H 13.191628 A 1.1141346,1.1141578 0 0 0 12.67117,5.1567698 1.1141346,1.1141578 0 0 0 12.152458,5.0270879 H 11.112407 A 1.1141346,1.1141578 0 0 0 10.021884,6.3639438 H 7.9931439 v -0.22281 A 1.1141346,1.1141578 0 0 0 6.8791207,5.0270879 Z"
       id="path4" />
    <path
       style="opacity:0.2;stroke-width:0.264583"
       d="m 3.7598563,6.3639438 v 1.114045 H 4.6510746 V 11.042944 H 5.9879025 V 7.4779888 h 0.8912182 v -1.114045 z m 7.3525507,0 0.930815,2.3181729 -0.930815,2.3608273 h 1.040051 l 0.519577,-1.1697506 0.519593,1.1697506 h 1.040044 L 13.30085,8.6821167 14.231672,6.3639438 h -1.040044 l -0.519593,1.169748 -0.519577,-1.169748 z M 7.5475346,7.7007988 V 12.379805 H 10.6668 V 11.265751 H 8.6615576 V 10.597326 H 10.6668 V 9.4832732 H 8.6615576 V 8.8148447 H 10.6668 V 7.7007988 Z"
       id="path6" />
    <path
       style="fill:#ffd440;stroke-width:0.264583"
       d="m 3.7598563,6.1411338 v 1.114046 H 4.6510746 V 10.820133 H 5.9879025 V 7.2551798 h 0.8912182 v -1.114046 z m 7.3525507,0 0.930815,2.3181739 -0.930815,2.3608253 h 1.040051 l 0.519577,-1.1697526 0.519593,1.1697526 h 1.040044 L 13.30085,8.4593077 14.231672,6.1411338 h -1.040044 l -0.519593,1.169749 -0.519577,-1.169749 z M 7.5475346,7.4779888 V 12.156991 H 10.6668 V 11.042944 H 8.6615576 V 10.374516 H 10.6668 V 9.2604637 H 8.6615576 V 8.5920357 H 10.6668 V 7.4779888 Z"
       id="path8" />
    <path
       style="opacity:0.1;fill:#ffffff;stroke-width:0.264583"
       d="M 3.7598563,5.0270879 A 1.1141346,1.1141578 0 0 0 2.6458331,6.1411338 v 0.22281 a 1.1141346,1.1141578 0 0 1 1.1140232,-1.114047 h 3.1192644 a 1.1141346,1.1141578 0 0 1 1.1140232,1.114047 v -0.22281 A 1.1141346,1.1141578 0 0 0 6.8791207,5.0270879 Z m 4.2332876,1.3368559 v 0.222808 h 2.0287401 a 1.1141346,1.1141578 0 0 1 -0.02089,-0.222808 z M 11.112407,5.0270879 a 1.1141346,1.1141578 0 0 0 -1.106188,1.2258849 1.1141346,1.1141578 0 0 1 1.106188,-1.003076 h 1.040051 a 1.1141346,1.1141578 0 0 1 0.518712,0.129682 1.1141346,1.1141578 0 0 1 0.520458,-0.129682 h 1.040044 a 1.1141346,1.1141578 0 0 1 1.1075,1.003512 1.1141346,1.1141578 0 0 0 -1.1075,-1.2263209 H 13.191628 A 1.1141346,1.1141578 0 0 0 12.67117,5.1567698 1.1141346,1.1141578 0 0 0 12.152458,5.0270879 Z m 3.431717,3.5484108 -0.04439,0.110534 0.768502,1.9482883 a 1.1141346,1.1141578 0 0 1 0.0709,0.297218 1.1141346,1.1141578 0 0 0 -0.0709,-0.520032 z"
       id="path10" />
    <path
       style="opacity:0.2;fill:#ffffff;stroke-width:0.264583"
       d="m 3.7598563,6.1411338 v 0.22281 h 3.1192644 v -0.22281 z m 7.3525507,0 0.08964,0.22281 h 0.950403 l 0.519578,1.169748 0.519593,-1.169748 h 0.950402 l 0.08964,-0.22281 h -1.040036 l -0.519588,1.169749 -0.519577,-1.169749 z m -3.5648724,1.336855 v 0.22281 H 10.6668 v -0.22281 z m 4.4513084,1.0935939 -0.886436,2.2485503 h 0.0879 l 0.842914,-2.1380163 z m 1.346402,0 -0.04439,0.110534 0.842922,2.1380163 h 0.0879 z M 8.6615576,9.2604637 V 9.4832732 H 10.6668 V 9.2604637 Z m 0,1.7824803 v 0.222807 H 10.6668 v -0.222807 z"
       id="path12" />
  </g>
</svg>
