<?xml version="1.0" encoding="UTF-8" standalone="no"?>
<svg
   width="68"
   height="68"
   viewBox="0 0 17.991665 17.991665"
   version="1.1"
   id="svg1114"
   inkscape:version="1.3.2 (091e20ef0f, 2023-11-25)"
   sodipodi:docname="krename.svg"
   xmlns:inkscape="http://www.inkscape.org/namespaces/inkscape"
   xmlns:sodipodi="http://sodipodi.sourceforge.net/DTD/sodipodi-0.dtd"
   xmlns:xlink="http://www.w3.org/1999/xlink"
   xmlns="http://www.w3.org/2000/svg"
   xmlns:svg="http://www.w3.org/2000/svg"
   xmlns:rdf="http://www.w3.org/1999/02/22-rdf-syntax-ns#"
   xmlns:cc="http://creativecommons.org/ns#"
   xmlns:dc="http://purl.org/dc/elements/1.1/">
  <style
     type="text/css"
     id="current-color-scheme">.ColorScheme-Highlight { color:#5599ff; }
</style>
  <defs
     id="defs1108">
    <linearGradient
       id="linearGradient12"
       inkscape:collect="always">
      <stop
         style="stop-color:#ffffff;stop-opacity:0;"
         offset="0"
         id="stop10" />
      <stop
         id="stop11"
         offset="0.65909404"
         style="stop-color:#ffffff;stop-opacity:0" />
      <stop
         style="stop-color:#ffffff;stop-opacity:1;"
         offset="1"
         id="stop12" />
    </linearGradient>
    <linearGradient
       id="linearGradient9"
       inkscape:collect="always">
      <stop
         style="stop-color:#000000;stop-opacity:0;"
         offset="0"
         id="stop1" />
      <stop
         id="stop8"
         offset="0.66102529"
         style="stop-color:#000000;stop-opacity:0" />
      <stop
         style="stop-color:#000000;stop-opacity:1;"
         offset="1"
         id="stop9" />
    </linearGradient>
    <linearGradient
       id="linearGradient7"
       inkscape:collect="always">
      <stop
         style="stop-color:#000000;stop-opacity:0;"
         offset="0"
         id="stop5" />
      <stop
         id="stop6"
         offset="0.6586886"
         style="stop-color:#000000;stop-opacity:0" />
      <stop
         style="stop-color:#000000;stop-opacity:1;"
         offset="1"
         id="stop7" />
    </linearGradient>
    <linearGradient
       id="linearGradient4"
       inkscape:collect="always">
      <stop
         style="stop-color:#000000;stop-opacity:0;"
         offset="0"
         id="stop2" />
      <stop
         id="stop3"
         offset="0.67055255"
         style="stop-color:#000000;stop-opacity:0" />
      <stop
         style="stop-color:#000000;stop-opacity:1;"
         offset="1"
         id="stop4" />
    </linearGradient>
    <linearGradient
       inkscape:collect="always"
       id="linearGradient899">
      <stop
         style="stop-color:#ffccaa;stop-opacity:1;"
         offset="0"
         id="stop895" />
      <stop
         style="stop-color:#408cff;stop-opacity:1;"
         offset="1"
         id="stop897" />
    </linearGradient>
    <linearGradient
       id="linearGradient1167"
       x1="40.751999"
       x2="40.751999"
       y1="28.507999"
       y2="17.205999"
       gradientUnits="userSpaceOnUse">
      <stop
         style="stop-color:#84fb6e;stop-opacity:1"
         stop-color="#0ab816"
         offset="0"
         id="stop1163" />
      <stop
         style="stop-color:#0dd41a;stop-opacity:1"
         stop-color="#0cf36c"
         offset="1"
         id="stop1165" />
    </linearGradient>
    <linearGradient
       id="cornerBevel"
       inkscape:collect="always">
      <stop
         style="stop-color:#000000;stop-opacity:0;"
         offset="0"
         id="stop2663" />
      <stop
         id="stop2671"
         offset="0.66666675"
         style="stop-color:#000000;stop-opacity:0" />
      <stop
         style="stop-color:#000000;stop-opacity:1;"
         offset="1"
         id="stop2661" />
    </linearGradient>
    <linearGradient
       id="bevel"
       inkscape:collect="always">
      <stop
         id="stop2685"
         offset="0"
         style="stop-color:#000000;stop-opacity:1;" />
      <stop
         id="stop2687"
         offset="1"
         style="stop-color:#000000;stop-opacity:0;" />
    </linearGradient>
    <linearGradient
       id="highlightCorner"
       inkscape:collect="always">
      <stop
         style="stop-color:#ffffff;stop-opacity:0;"
         offset="0"
         id="stop2613" />
      <stop
         id="stop2621"
         offset="0.66666669"
         style="stop-color:#ffffff;stop-opacity:0" />
      <stop
         style="stop-color:#ffffff;stop-opacity:1;"
         offset="1"
         id="stop2611" />
    </linearGradient>
    <linearGradient
       inkscape:collect="always"
       id="highlight">
      <stop
         style="stop-color:#ffffff;stop-opacity:1;"
         offset="0"
         id="stop2921" />
      <stop
         style="stop-color:#ffffff;stop-opacity:0;"
         offset="1"
         id="stop2923" />
    </linearGradient>
    <radialGradient
       inkscape:collect="always"
       xlink:href="#highlightCorner"
       id="radialGradient15"
       gradientUnits="userSpaceOnUse"
       gradientTransform="matrix(0.04294597,-12.079348,17.933991,0.06376112,14.524179,-50.373789)"
       cx="-4.5799766"
       cy="-0.50206107"
       fx="-4.5799766"
       fy="-0.50206107"
       r="0.39687499" />
    <linearGradient
       inkscape:collect="always"
       xlink:href="#highlight"
       id="linearGradient15"
       gradientUnits="userSpaceOnUse"
       x1="-3.8453064"
       y1="-1.1532172"
       x2="-3.8453064"
       y2="-0.8954913"
       gradientTransform="matrix(6.0923077,0,0,6.0923077,32.228528,7.1537621)" />
    <radialGradient
       inkscape:collect="always"
       xlink:href="#linearGradient12"
       id="radialGradient17"
       gradientUnits="userSpaceOnUse"
       gradientTransform="matrix(-0.02247554,-12.045403,-17.967828,0.03352619,1.6640208,-50.22331)"
       cx="-4.575222"
       cy="-0.55256462"
       fx="-4.575222"
       fy="-0.55256462"
       r="0.39687499" />
    <radialGradient
       inkscape:collect="always"
       xlink:href="#linearGradient7"
       id="radialGradient18"
       gradientUnits="userSpaceOnUse"
       gradientTransform="matrix(0.06461187,12.09952,17.933731,-0.09576873,14.609502,64.748231)"
       cx="-4.4284906"
       cy="-0.50121039"
       fx="-4.4284906"
       fy="-0.50121039"
       r="0.39687499" />
    <linearGradient
       inkscape:collect="always"
       xlink:href="#bevel"
       id="linearGradient18"
       gradientUnits="userSpaceOnUse"
       x1="-3.8415797"
       y1="-1.4506671"
       x2="-3.8406549"
       y2="-1.1968651"
       gradientTransform="matrix(6.0923076,0,0,6.0923076,32.228527,-7.1537627)" />
    <radialGradient
       inkscape:collect="always"
       xlink:href="#linearGradient4"
       id="radialGradient20"
       gradientUnits="userSpaceOnUse"
       gradientTransform="matrix(-0.01031383,11.991438,-17.967296,-0.01545561,1.7353715,64.305742)"
       cx="-4.4236727"
       cy="-0.55004197"
       fx="-4.4236727"
       fy="-0.55004197"
       r="0.39687499" />
    <radialGradient
       inkscape:collect="always"
       xlink:href="#cornerBevel"
       id="radialGradient25"
       gradientUnits="userSpaceOnUse"
       gradientTransform="matrix(12.184614,0,0,12.184614,59.63122,10.377613)"
       cx="-4.4568658"
       cy="-0.44864327"
       fx="-4.4568658"
       fy="-0.44864327"
       r="0.39687496" />
    <linearGradient
       inkscape:collect="always"
       xlink:href="#bevel"
       id="linearGradient25"
       gradientUnits="userSpaceOnUse"
       x1="-3.8487544"
       y1="-1.146081"
       x2="-3.8455966"
       y2="-0.890971"
       gradientTransform="matrix(6.0923077,0,0,6.0923077,32.228528,7.1537627)" />
    <radialGradient
       inkscape:collect="always"
       xlink:href="#cornerBevel"
       id="radialGradient29"
       gradientUnits="userSpaceOnUse"
       gradientTransform="matrix(0,-12.184614,12.184614,0,11.27353,-44.427768)"
       cx="-4.5705457"
       cy="-0.48653662"
       fx="-4.5705457"
       fy="-0.48653662"
       r="0.39687496" />
    <radialGradient
       inkscape:collect="always"
       xlink:href="#cornerBevel"
       id="radialGradient30"
       gradientUnits="userSpaceOnUse"
       gradientTransform="matrix(-12.184514,-0.04945749,0.04847411,-11.942243,-43.502155,3.8519053)"
       cx="-4.5342312"
       cy="-0.60337442"
       fx="-4.5342312"
       fy="-0.60337442"
       r="0.39687496" />
    <radialGradient
       inkscape:collect="always"
       xlink:href="#linearGradient9"
       id="radialGradient31"
       gradientUnits="userSpaceOnUse"
       gradientTransform="matrix(0,-12.151612,11.978956,0,18.475664,-48.770776)"
       cx="-4.4175329"
       cy="-0.56489283"
       fx="-4.4175329"
       fy="-0.56489283"
       r="0.39687496" />
    <linearGradient
       inkscape:collect="always"
       xlink:href="#bevel"
       id="linearGradient34"
       gradientUnits="userSpaceOnUse"
       x1="-3.99717"
       y1="-1.2218677"
       x2="-4.0003276"
       y2="-0.96675771"
       gradientTransform="matrix(6.0923077,0,0,6.0923077,17.025077,8.0496826)" />
    <linearGradient
       inkscape:collect="always"
       xlink:href="#bevel"
       id="linearGradient35"
       gradientUnits="userSpaceOnUse"
       x1="-4.0919032"
       y1="-1.4492278"
       x2="-4.0950613"
       y2="-1.1972755"
       gradientTransform="matrix(6.0923077,0,0,6.0923077,16.129161,-7.1537627)" />
    <linearGradient
       inkscape:collect="always"
       xlink:href="#bevel"
       id="linearGradient36"
       gradientUnits="userSpaceOnUse"
       x1="-3.8734362"
       y1="-1.3717227"
       x2="-3.8765941"
       y2="-1.116071"
       gradientTransform="matrix(6.0923077,0,0,6.0923077,31.33261,-8.0496826)" />
    <linearGradient
       id="paint2_linear_77:3-7"
       x1="79.398094"
       y1="-197.84389"
       x2="82.901054"
       y2="-199.97827"
       gradientUnits="userSpaceOnUse"
       gradientTransform="matrix(1.9248511,0,0,1.7314595,-40.88733,399.61741)">
      <stop
         stop-color="#EBFAFF"
         stop-opacity="0.1"
         id="stop29-5-7"
         offset="0"
         style="stop-color:#c3c3c3;stop-opacity:1;" />
      <stop
         offset="1"
         stop-color="#70A9FF"
         stop-opacity="0.5"
         id="stop30-0-1"
         style="stop-color:#05c7ff;stop-opacity:0.80000001;" />
    </linearGradient>
    <linearGradient
       inkscape:collect="always"
       xlink:href="#linearGradient899"
       id="linearGradient926"
       x1="1.1249832"
       y1="-9.2861881"
       x2="16.919081"
       y2="-9.2251434"
       gradientUnits="userSpaceOnUse"
       gradientTransform="translate(-0.92604234,0.47624996)" />
    <linearGradient
       id="b-3-7-1"
       gradientTransform="matrix(0.12415839,-0.25724252,0.11338321,0.05472453,-20.939127,21.087281)"
       gradientUnits="userSpaceOnUse"
       x1="115"
       x2="115"
       y1="183"
       y2="174">
      <stop
         offset="0"
         stop-color="#e01b24"
         id="stop13-65-2"
         style="stop-color:#a1171c;stop-opacity:1;" />
      <stop
         offset="0.25380161"
         stop-color="#e01b24"
         id="stop26-6-7"
         style="stop-color:#e3242a;stop-opacity:1;" />
      <stop
         offset="1"
         stop-color="#f66151"
         id="stop15-6-9-0" />
    </linearGradient>
    <inkscape:path-effect
       effect="fillet_chamfer"
       id="path-effect25-5-3"
       is_visible="true"
       lpeversion="1"
       nodesatellites_param="F,0,0,1,0,0,0,1 @ F,0,0,1,0,0,0,1 @ F,0,0,1,0,0,0,1"
       radius="0"
       unit="px"
       method="auto"
       mode="F"
       chamfer_steps="1"
       flexible="false"
       use_knot_distance="true"
       apply_no_radius="true"
       apply_with_radius="true"
       only_selected="false"
       hide_knots="false"
       satellites_param="F,0,0,1,0,0,0,1 @ F,0,0,1,0,0,0,1 @ F,0,0,1,0,0,0,1" />
    <linearGradient
       id="g-6"
       y1="37"
       y2="4"
       x2="0"
       gradientUnits="userSpaceOnUse"
       gradientTransform="matrix(-0.21281827,0.11668617,-0.12287088,-0.20210685,14.396429,9.7869991)">
      <stop
         stop-color="#da4453"
         id="stop7-2" />
      <stop
         offset="1"
         stop-color="#ff7336"
         id="stop9-9" />
    </linearGradient>
    <linearGradient
       inkscape:collect="always"
       xlink:href="#a"
       id="linearGradient755"
       gradientUnits="userSpaceOnUse"
       gradientTransform="matrix(-0.21281827,0.11668617,-0.12287088,-0.20210685,14.396429,9.7869991)"
       x1="20.438"
       y1="22.313"
       x2="23.531"
       y2="25.406" />
    <linearGradient
       id="a"
       y1="30"
       x1="24"
       y2="44"
       x2="38"
       gradientUnits="userSpaceOnUse">
      <stop
         id="stop2-6" />
      <stop
         offset="1"
         stop-opacity="0"
         id="stop4-7" />
    </linearGradient>
  </defs>
  <sodipodi:namedview
     id="base"
     pagecolor="#e2e2e2"
     bordercolor="#666666"
     borderopacity="1.0"
     inkscape:pageopacity="0"
     inkscape:pageshadow="2"
     inkscape:zoom="9.7248729"
     inkscape:cx="30.026099"
     inkscape:cy="28.689321"
     inkscape:document-units="px"
     inkscape:current-layer="layer1"
     inkscape:document-rotation="0"
     showgrid="true"
     units="px"
     inkscape:window-width="1920"
     inkscape:window-height="990"
     inkscape:window-x="0"
     inkscape:window-y="0"
     inkscape:window-maximized="1"
     inkscape:object-paths="true"
     inkscape:snap-grids="true"
     inkscape:snap-intersection-paths="true"
     inkscape:snap-smooth-nodes="true"
     inkscape:snap-midpoints="true"
     inkscape:showpageshadow="2"
     inkscape:pagecheckerboard="0"
     inkscape:deskcolor="#d1d1d1">
    <inkscape:grid
       id="grid2"
       units="px"
       originx="0"
       originy="0"
       spacingx="0.26458333"
       spacingy="0.26458333"
       empcolor="#0099e5"
       empopacity="0.30196078"
       color="#0099e5"
       opacity="0.14902"
       empspacing="5"
       dotted="false"
       gridanglex="30"
       gridanglez="30"
       visible="true" />
  </sodipodi:namedview>
  <metadata
     id="metadata1111">
    <rdf:RDF>
      <cc:Work
         rdf:about="">
        <dc:format>image/svg+xml</dc:format>
        <dc:type
           rdf:resource="http://purl.org/dc/dcmitype/StillImage" />
      </cc:Work>
    </rdf:RDF>
  </metadata>
  <g
     inkscape:label="Layer 1"
     inkscape:groupmode="layer"
     id="layer1">
    <g
       id="g918"
       transform="translate(0.47625037,0.92604234)">
      <rect
         ry="4.8357682"
         rx="4.8357682"
         style="fill:url(#linearGradient926);fill-opacity:1;stroke-width:6.09228"
         x="0.13229237"
         y="-16.457085"
         width="15.875001"
         height="15.875001"
         id="use1056"
         transform="rotate(90)"
         class="ColorScheme-Highlight" />
      <path
         d="m 5.344583,0.13229167 c -2.6384245,0 -4.76249953,2.12407483 -4.76249953,4.76249963 H 5.344583 Z"
         style="opacity:0.15;fill:url(#radialGradient25);fill-opacity:1;stroke-width:6.09228"
         id="path20" />
      <rect
         y="0.13229151"
         x="5.3445826"
         height="1.5875"
         width="6.3500004"
         id="rect20"
         style="opacity:0.15;fill:url(#linearGradient25);fill-opacity:1;stroke-width:4.83577;stroke-linecap:round;stroke-linejoin:round;paint-order:stroke fill markers" />
      <path
         d="m 0.58208347,11.244792 c 0,2.638424 2.12407503,4.762499 4.76249953,4.762499 v -4.762499 z"
         style="opacity:0.15;fill:url(#radialGradient29);fill-opacity:1;stroke-width:6.09228"
         id="use20" />
      <rect
         y="0.5820834"
         x="-11.244792"
         height="1.5875"
         width="6.3500004"
         id="use21"
         style="opacity:0.15;fill:url(#linearGradient34);fill-opacity:1;stroke-width:4.83577;stroke-linecap:round;stroke-linejoin:round;paint-order:stroke fill markers"
         transform="rotate(-90)" />
      <path
         d="m 11.694583,16.007291 c 2.638425,0 4.7625,-2.124074 4.7625,-4.762499 h -4.7625 z"
         style="opacity:0.15;fill:url(#radialGradient30);fill-opacity:1;stroke-width:6.09228"
         id="use22" />
      <rect
         y="-16.007292"
         x="-11.694584"
         height="1.5875"
         width="6.3500004"
         id="use23"
         style="opacity:0.15;fill:url(#linearGradient35);fill-opacity:1;stroke-width:4.83577;stroke-linecap:round;stroke-linejoin:round;paint-order:stroke fill markers"
         transform="scale(-1)" />
      <path
         d="m 16.457083,4.8947913 c 0,-2.6384245 -2.124074,-4.76249963 -4.7625,-4.76249963 V 4.8947913 Z"
         style="opacity:0.15;fill:url(#radialGradient31);fill-opacity:1;stroke-width:6.09228"
         id="use24" />
      <rect
         y="-16.457081"
         x="4.8947906"
         height="1.5875"
         width="6.3500004"
         id="use25"
         style="opacity:0.15;fill:url(#linearGradient36);fill-opacity:1;stroke-width:4.83577;stroke-linecap:round;stroke-linejoin:round;paint-order:stroke fill markers"
         transform="rotate(90)" />
      <path
         d="m 5.3445832,0.13229107 c -2.638425,0 -4.76250035,2.12407473 -4.76250035,4.76249973 H 5.3445832 Z"
         style="opacity:0.5;fill:url(#radialGradient15);fill-opacity:1;stroke-width:6.09228"
         id="path14" />
      <rect
         y="0.1322909"
         x="5.3445826"
         height="1.5875"
         width="6.3499999"
         id="rect14"
         style="opacity:0.5;fill:url(#linearGradient15);fill-opacity:1;stroke-width:4.83577;stroke-linecap:round;stroke-linejoin:round;paint-order:stroke fill markers" />
      <path
         d="m 11.694583,0.13229096 c 2.638425,0 4.7625,2.12407504 4.7625,4.76249734 h -4.7625 z"
         style="opacity:0.5;fill:url(#radialGradient17);fill-opacity:1;stroke-width:6.09228"
         id="use14" />
      <path
         id="path17"
         style="opacity:0.5;fill:url(#radialGradient18);fill-opacity:1;stroke-width:6.09228"
         d="m 5.3445834,16.00729 c -2.638425,0 -4.7625,-2.124075 -4.7625,-4.7625 h 4.7625 z" />
      <rect
         style="opacity:0.5;fill:url(#linearGradient18);fill-opacity:1;stroke-width:4.83577;stroke-linecap:round;stroke-linejoin:round;paint-order:stroke fill markers"
         id="rect17"
         width="6.3499994"
         height="1.5874999"
         x="5.3445826"
         y="-16.007292"
         transform="scale(1,-1)" />
      <path
         id="use17"
         style="opacity:0.5;fill:url(#radialGradient20);fill-opacity:1;stroke-width:6.09228"
         d="m 11.694582,16.007291 c 2.638425,0 4.7625,-2.124075 4.7625,-4.7625 h -4.7625 z" />
    </g>
    <path
       d="M 6.1224667,4.3334171 H 5.0524504 L 2.6458329,10.536138 h 1.0700166 l 0.59862,-1.5506763 H 6.8552982 L 7.459068,10.536138 H 8.5290828 Z M 4.721149,7.9517952 5.5874567,5.7137075 6.4537669,7.9517952 Z"
       style="fill:#fefefe;fill-opacity:1;stroke-width:0.709185"
       id="path42-0" />
    <path
       style="fill:url(#g-6);fill-rule:evenodd;stroke-width:0.239476"
       d="m 13.085046,3.1763868 -0.775228,0.2504351 c -0.775664,0.2510129 -1.636284,0.9488879 -1.636284,0.9488879 l 0.02965,0.9279255 c -0.04996,0.0563 -0.102619,0.1160054 -0.155229,0.1762357 L 10.273254,4.8582244 9.6749817,5.4333577 9.9932104,6.1186765 9.9849588,6.1278965 9.5612072,5.5373139 c 0,0 -0.3431609,0.3104544 -1.4169173,1.4976111 C 7.0705342,8.2221037 6.1404392,9.6487329 6.1404392,9.6487329 l -0.06367,1.0485651 c -0.057666,0.0665 -0.1192999,0.138227 -0.1762318,0.202988 l -0.067635,-0.875498 -0.3800949,0.485647 -0.1315962,0.501044 -0.205605,0.190769 c 0,0 -0.4125252,1.072074 -0.3735364,1.281711 0.039259,0.209855 0.8533095,-0.07827 0.8533095,-0.07827 L 5.661922,12.145941 6.308849,12.037083 5.6228684,11.803771 c 0.019126,-0.02547 0.043232,-0.05583 0.063109,-0.08112 a 3.0412197,3.0207808 6.8689769 0 0 0.3588911,0.137345 c 0.4354867,0.14041 0.7487922,0.02496 0.7487922,0.02496 l 0.3557422,-0.349833 c 0,0 -0.263195,0.133034 -0.5463434,0.142928 -0.2785898,0.01054 -0.7339003,-0.166419 -0.7472953,-0.171802 0.027969,-0.03613 0.058145,-0.07525 0.087282,-0.111444 0.1202122,-0.01285 1.2063748,-0.134177 1.8706137,-0.475111 0.7024654,-0.361293 2.1449391,-1.5763659 2.1449391,-1.5763659 0,0 -0.3151597,-0.047085 -0.994544,-0.1516781 C 8.3257027,9.0928993 7.757842,9.0182004 7.6916072,9.0141477 7.7258047,8.9720707 7.7215982,8.7040675 7.7215982,8.7040675 l 2.7708308,-0.034641 c 0,0 0.207019,-0.3007979 0.524596,-0.7850043 0.317597,-0.4841982 1.136079,-1.7004234 1.136079,-1.7004234 0,0 -0.463797,-0.077647 -0.874063,-0.1911613 C 10.888111,5.8841012 10.521768,5.7389714 10.48718,5.7251534 l 0.0168,-0.019433 c 0.06004,-0.018242 0.446273,-0.1324655 0.730778,-0.1777693 0.307347,-0.048849 1.229957,-0.047032 1.229957,-0.047032 0,0 0.01919,-0.1245694 0.109532,-0.3726455 0.09025,-0.2485584 0.277821,-0.8223454 0.277821,-0.8223454 l -1.667422,0.648102 c 0.07496,-0.079669 0.14562,-0.150583 0.218864,-0.2255567 l 1.526658,-0.6232024 c 0,0 0.03201,-0.1788711 0.08388,-0.4112238 0.05165,-0.2325772 0.07045,-0.4990476 0.07045,-0.4990476"
       id="path44-6" />
    <path
       style="fill:#31363b;fill-rule:evenodd;stroke-width:0.239476"
       d="m 13.085559,3.1763146 c 0,0 -1.616372,1.325116 -3.2677629,3.083133 -1.6511794,1.757728 -3.3484055,3.7699204 -5.0746527,6.0970134 -1.499788,2.021133 -1.2188124,1.930417 -1.2188124,1.930417 0,0 0.368268,-0.207618 1.5570592,-1.792467 C 6.2180238,10.979679 7.6595603,9.0196015 10.010645,6.3692362 11.13126,5.1062137 13.085492,3.1776284 13.085492,3.1776284"
       id="path46-2" />
    <path
       style="opacity:0.2;fill:url(#linearGradient755);fill-rule:evenodd;stroke-width:0.239476"
       d="m 13.085046,3.1763868 -0.25115,0.2416735 -0.917479,0.9074542 -1.412449,1.3816538 c 0.05978,-0.017938 0.446055,-0.1321743 0.730852,-0.1772654 0.30757,-0.049142 1.229888,-0.047541 1.229888,-0.047541 0,0 0.01974,-0.1241059 0.109819,-0.3724255 0.09026,-0.2485612 0.277605,-0.8220541 0.277605,-0.8220541 l -1.439806,0.5551444 c 0.07566,-0.080076 0.146193,-0.1501537 0.219675,-0.2254017 l 1.298551,-0.5301536 c 0,0 0.03148,-0.1788015 0.08355,-0.4114495 0.05166,-0.2325711 0.07078,-0.4988269 0.07078,-0.4988269 M 10.503741,5.7074625 7.7211422,8.7065491 10.49244,8.6713211 c 0,0 0.207296,-0.3005911 0.524889,-0.7847887 0.3176,-0.4841971 1.13608,-1.7004203 1.13608,-1.7004203 0,0 -0.463798,-0.07765 -0.874064,-0.1911615 C 10.888136,5.8860058 10.521495,5.740657 10.486982,5.7273517 l 0.01703,-0.019705 M 7.7216265,8.7064618 4.7870828,12.541107 c 0.1784238,0.08863 0.80757,-0.134034 0.80757,-0.134034 l 0.066103,-0.259175 0.6477321,-0.108705 -0.6862737,-0.233536 c 0.019114,-0.02545 0.043219,-0.05533 0.062871,-0.0808 a 3.0555528,3.0350176 6.8693902 0 0 0.3591294,0.137006 c 0.4355848,0.140899 0.7480771,0.0253 0.7480771,0.0253 L 7.1509889,11.53769 c 0,0 -0.2632674,0.132526 -0.5460469,0.143146 -0.2785927,0.01054 -0.7334653,-0.167004 -0.7470753,-0.172094 l 0.086369,-0.111663 c 0.120509,-0.01266 1.2063751,-0.134186 1.8708356,-0.475409 0.7028331,-0.360564 2.1447174,-1.5760747 2.1447174,-1.5760747 0,0 -0.3151592,-0.047085 -0.9940294,-0.1517496 -0.6385797,-0.098465 -1.20644,-0.1731658 -1.2724605,-0.1775032 0.033928,-0.042265 0.029776,-0.3097924 0.029776,-0.3097924"
       id="path48-6" />
    <path
       fill="url(#b)"
       d="m 10.868261,7.8202812 v 5.9339218 h 2.611917 a 1.8656541,1.8543554 0 0 0 1.865654,-1.854347 1.8656541,1.8543554 0 0 0 -1.069107,-1.67472 1.4925275,1.4834886 0 0 0 0.322845,-0.921378 1.4925275,1.4834886 0 0 0 -1.492522,-1.4834768 h -1.49253 z m 0.746257,0.7417347 h 1.49253 a 0.74626161,0.74174214 0 0 1 0.746259,0.7417421 0.74626161,0.74174214 0 0 1 -0.746259,0.741736 h -1.49253 z m 0,2.2252291 h 1.86566 a 1.1193903,1.1126171 0 0 1 1.119392,1.112611 1.1193903,1.1126171 0 0 1 -1.119392,1.112613 h -1.86566 v -1.112613 z m 0,1.112611 a 1.8656541,1.8543554 0 0 0 0.0016,0.02833 v -0.07166 a 1.8656541,1.8543554 0 0 0 -0.0016,0.0434"
       id="path35-2-8"
       style="fill:#ffcc00;fill-opacity:1;stroke-width:0.191825" />
  </g>
</svg>
