<?xml version="1.0" encoding="UTF-8" standalone="no"?>
<svg
   width="68"
   height="68"
   viewBox="0 0 17.991665 17.991665"
   version="1.1"
   id="svg1114"
   inkscape:version="1.3.2 (091e20ef0f, 2023-11-25)"
   sodipodi:docname="org.xfce.catfish.svg"
   xmlns:inkscape="http://www.inkscape.org/namespaces/inkscape"
   xmlns:sodipodi="http://sodipodi.sourceforge.net/DTD/sodipodi-0.dtd"
   xmlns:xlink="http://www.w3.org/1999/xlink"
   xmlns="http://www.w3.org/2000/svg"
   xmlns:svg="http://www.w3.org/2000/svg"
   xmlns:rdf="http://www.w3.org/1999/02/22-rdf-syntax-ns#"
   xmlns:cc="http://creativecommons.org/ns#"
   xmlns:dc="http://purl.org/dc/elements/1.1/">
  <style
     type="text/css"
     id="current-color-scheme">.ColorScheme-Highlight { color:#5599ff; }
</style>
  <defs
     id="defs1108">
    <linearGradient
       id="linearGradient12"
       inkscape:collect="always">
      <stop
         style="stop-color:#ffffff;stop-opacity:0;"
         offset="0"
         id="stop10" />
      <stop
         id="stop11"
         offset="0.65909404"
         style="stop-color:#ffffff;stop-opacity:0" />
      <stop
         style="stop-color:#ffffff;stop-opacity:1;"
         offset="1"
         id="stop12" />
    </linearGradient>
    <linearGradient
       id="linearGradient9"
       inkscape:collect="always">
      <stop
         style="stop-color:#000000;stop-opacity:0;"
         offset="0"
         id="stop1" />
      <stop
         id="stop8"
         offset="0.66102529"
         style="stop-color:#000000;stop-opacity:0" />
      <stop
         style="stop-color:#000000;stop-opacity:1;"
         offset="1"
         id="stop9" />
    </linearGradient>
    <linearGradient
       id="linearGradient7"
       inkscape:collect="always">
      <stop
         style="stop-color:#000000;stop-opacity:0;"
         offset="0"
         id="stop5" />
      <stop
         id="stop6"
         offset="0.6586886"
         style="stop-color:#000000;stop-opacity:0" />
      <stop
         style="stop-color:#000000;stop-opacity:1;"
         offset="1"
         id="stop7" />
    </linearGradient>
    <linearGradient
       id="linearGradient4"
       inkscape:collect="always">
      <stop
         style="stop-color:#000000;stop-opacity:0;"
         offset="0"
         id="stop2" />
      <stop
         id="stop3"
         offset="0.67055255"
         style="stop-color:#000000;stop-opacity:0" />
      <stop
         style="stop-color:#000000;stop-opacity:1;"
         offset="1"
         id="stop4" />
    </linearGradient>
    <linearGradient
       inkscape:collect="always"
       id="linearGradient899">
      <stop
         style="stop-color:#b380ff;stop-opacity:1;"
         offset="0"
         id="stop895" />
      <stop
         style="stop-color:#2a7fff;stop-opacity:1;"
         offset="1"
         id="stop897" />
    </linearGradient>
    <linearGradient
       id="linearGradient1167"
       x1="40.751999"
       x2="40.751999"
       y1="28.507999"
       y2="17.205999"
       gradientUnits="userSpaceOnUse">
      <stop
         style="stop-color:#84fb6e;stop-opacity:1"
         stop-color="#0ab816"
         offset="0"
         id="stop1163" />
      <stop
         style="stop-color:#0dd41a;stop-opacity:1"
         stop-color="#0cf36c"
         offset="1"
         id="stop1165" />
    </linearGradient>
    <linearGradient
       id="cornerBevel"
       inkscape:collect="always">
      <stop
         style="stop-color:#000000;stop-opacity:0;"
         offset="0"
         id="stop2663" />
      <stop
         id="stop2671"
         offset="0.66666675"
         style="stop-color:#000000;stop-opacity:0" />
      <stop
         style="stop-color:#000000;stop-opacity:1;"
         offset="1"
         id="stop2661" />
    </linearGradient>
    <linearGradient
       id="bevel"
       inkscape:collect="always">
      <stop
         id="stop2685"
         offset="0"
         style="stop-color:#000000;stop-opacity:1;" />
      <stop
         id="stop2687"
         offset="1"
         style="stop-color:#000000;stop-opacity:0;" />
    </linearGradient>
    <linearGradient
       id="highlightCorner"
       inkscape:collect="always">
      <stop
         style="stop-color:#ffffff;stop-opacity:0;"
         offset="0"
         id="stop2613" />
      <stop
         id="stop2621"
         offset="0.66666669"
         style="stop-color:#ffffff;stop-opacity:0" />
      <stop
         style="stop-color:#ffffff;stop-opacity:1;"
         offset="1"
         id="stop2611" />
    </linearGradient>
    <linearGradient
       inkscape:collect="always"
       id="highlight">
      <stop
         style="stop-color:#ffffff;stop-opacity:1;"
         offset="0"
         id="stop2921" />
      <stop
         style="stop-color:#ffffff;stop-opacity:0;"
         offset="1"
         id="stop2923" />
    </linearGradient>
    <radialGradient
       inkscape:collect="always"
       xlink:href="#highlightCorner"
       id="radialGradient15"
       gradientUnits="userSpaceOnUse"
       gradientTransform="matrix(0.04294597,-12.079348,17.933991,0.06376112,14.524179,-50.373789)"
       cx="-4.5799766"
       cy="-0.50206107"
       fx="-4.5799766"
       fy="-0.50206107"
       r="0.39687499" />
    <linearGradient
       inkscape:collect="always"
       xlink:href="#highlight"
       id="linearGradient15"
       gradientUnits="userSpaceOnUse"
       x1="-3.8453064"
       y1="-1.1532172"
       x2="-3.8453064"
       y2="-0.8954913"
       gradientTransform="matrix(6.0923077,0,0,6.0923077,32.228528,7.1537621)" />
    <radialGradient
       inkscape:collect="always"
       xlink:href="#linearGradient12"
       id="radialGradient17"
       gradientUnits="userSpaceOnUse"
       gradientTransform="matrix(-0.02247554,-12.045403,-17.967828,0.03352619,1.6640208,-50.22331)"
       cx="-4.575222"
       cy="-0.55256462"
       fx="-4.575222"
       fy="-0.55256462"
       r="0.39687499" />
    <radialGradient
       inkscape:collect="always"
       xlink:href="#linearGradient7"
       id="radialGradient18"
       gradientUnits="userSpaceOnUse"
       gradientTransform="matrix(0.06461187,12.09952,17.933731,-0.09576873,14.609502,64.748231)"
       cx="-4.4284906"
       cy="-0.50121039"
       fx="-4.4284906"
       fy="-0.50121039"
       r="0.39687499" />
    <linearGradient
       inkscape:collect="always"
       xlink:href="#bevel"
       id="linearGradient18"
       gradientUnits="userSpaceOnUse"
       x1="-3.8415797"
       y1="-1.4506671"
       x2="-3.8406549"
       y2="-1.1968651"
       gradientTransform="matrix(6.0923076,0,0,6.0923076,32.228527,-7.1537627)" />
    <radialGradient
       inkscape:collect="always"
       xlink:href="#linearGradient4"
       id="radialGradient20"
       gradientUnits="userSpaceOnUse"
       gradientTransform="matrix(-0.01031383,11.991438,-17.967296,-0.01545561,1.7353715,64.305742)"
       cx="-4.4236727"
       cy="-0.55004197"
       fx="-4.4236727"
       fy="-0.55004197"
       r="0.39687499" />
    <radialGradient
       inkscape:collect="always"
       xlink:href="#cornerBevel"
       id="radialGradient25"
       gradientUnits="userSpaceOnUse"
       gradientTransform="matrix(12.184614,0,0,12.184614,59.63122,10.377613)"
       cx="-4.4568658"
       cy="-0.44864327"
       fx="-4.4568658"
       fy="-0.44864327"
       r="0.39687496" />
    <linearGradient
       inkscape:collect="always"
       xlink:href="#bevel"
       id="linearGradient25"
       gradientUnits="userSpaceOnUse"
       x1="-3.8487544"
       y1="-1.146081"
       x2="-3.8455966"
       y2="-0.890971"
       gradientTransform="matrix(6.0923077,0,0,6.0923077,32.228528,7.1537627)" />
    <radialGradient
       inkscape:collect="always"
       xlink:href="#cornerBevel"
       id="radialGradient29"
       gradientUnits="userSpaceOnUse"
       gradientTransform="matrix(0,-12.184614,12.184614,0,11.27353,-44.427768)"
       cx="-4.5705457"
       cy="-0.48653662"
       fx="-4.5705457"
       fy="-0.48653662"
       r="0.39687496" />
    <radialGradient
       inkscape:collect="always"
       xlink:href="#cornerBevel"
       id="radialGradient30"
       gradientUnits="userSpaceOnUse"
       gradientTransform="matrix(-12.184514,-0.04945749,0.04847411,-11.942243,-43.502155,3.8519053)"
       cx="-4.5342312"
       cy="-0.60337442"
       fx="-4.5342312"
       fy="-0.60337442"
       r="0.39687496" />
    <radialGradient
       inkscape:collect="always"
       xlink:href="#linearGradient9"
       id="radialGradient31"
       gradientUnits="userSpaceOnUse"
       gradientTransform="matrix(0,-12.151612,11.978956,0,18.475664,-48.770776)"
       cx="-4.4175329"
       cy="-0.56489283"
       fx="-4.4175329"
       fy="-0.56489283"
       r="0.39687496" />
    <linearGradient
       inkscape:collect="always"
       xlink:href="#bevel"
       id="linearGradient34"
       gradientUnits="userSpaceOnUse"
       x1="-3.99717"
       y1="-1.2218677"
       x2="-4.0003276"
       y2="-0.96675771"
       gradientTransform="matrix(6.0923077,0,0,6.0923077,17.025077,8.0496826)" />
    <linearGradient
       inkscape:collect="always"
       xlink:href="#bevel"
       id="linearGradient35"
       gradientUnits="userSpaceOnUse"
       x1="-4.0919032"
       y1="-1.4492278"
       x2="-4.0950613"
       y2="-1.1972755"
       gradientTransform="matrix(6.0923077,0,0,6.0923077,16.129161,-7.1537627)" />
    <linearGradient
       inkscape:collect="always"
       xlink:href="#bevel"
       id="linearGradient36"
       gradientUnits="userSpaceOnUse"
       x1="-3.8734362"
       y1="-1.3717227"
       x2="-3.8765941"
       y2="-1.116071"
       gradientTransform="matrix(6.0923077,0,0,6.0923077,31.33261,-8.0496826)" />
    <linearGradient
       id="paint2_linear_77:3-7"
       x1="79.398094"
       y1="-197.84389"
       x2="82.901054"
       y2="-199.97827"
       gradientUnits="userSpaceOnUse"
       gradientTransform="matrix(1.9248511,0,0,1.7314595,-40.88733,399.61741)">
      <stop
         stop-color="#EBFAFF"
         stop-opacity="0.1"
         id="stop29-5-7"
         offset="0"
         style="stop-color:#c3c3c3;stop-opacity:1;" />
      <stop
         offset="1"
         stop-color="#70A9FF"
         stop-opacity="0.5"
         id="stop30-0-1"
         style="stop-color:#05c7ff;stop-opacity:0.80000001;" />
    </linearGradient>
    <linearGradient
       inkscape:collect="always"
       xlink:href="#linearGradient899"
       id="linearGradient926"
       x1="0.98894888"
       y1="-9.3406019"
       x2="16.919081"
       y2="-9.2251434"
       gradientUnits="userSpaceOnUse"
       gradientTransform="translate(-0.92604234,0.47624996)" />
  </defs>
  <sodipodi:namedview
     id="base"
     pagecolor="#e2e2e2"
     bordercolor="#666666"
     borderopacity="1.0"
     inkscape:pageopacity="0"
     inkscape:pageshadow="2"
     inkscape:zoom="9.7248729"
     inkscape:cx="33.933605"
     inkscape:cy="30.437416"
     inkscape:document-units="px"
     inkscape:current-layer="layer1"
     inkscape:document-rotation="0"
     showgrid="true"
     units="px"
     inkscape:window-width="1920"
     inkscape:window-height="994"
     inkscape:window-x="0"
     inkscape:window-y="0"
     inkscape:window-maximized="1"
     inkscape:object-paths="true"
     inkscape:snap-grids="true"
     inkscape:snap-intersection-paths="true"
     inkscape:snap-smooth-nodes="true"
     inkscape:snap-midpoints="true"
     inkscape:showpageshadow="2"
     inkscape:pagecheckerboard="0"
     inkscape:deskcolor="#d1d1d1"
     showguides="true">
    <inkscape:grid
       id="grid2"
       units="px"
       originx="0"
       originy="0"
       spacingx="0.26458333"
       spacingy="0.26458333"
       empcolor="#0099e5"
       empopacity="0.30196078"
       color="#0099e5"
       opacity="0.14902"
       empspacing="5"
       dotted="false"
       gridanglex="30"
       gridanglez="30"
       visible="true" />
    <sodipodi:guide
       position="19.262461,1.6675457"
       orientation="1,0"
       id="guide1"
       inkscape:locked="false" />
  </sodipodi:namedview>
  <metadata
     id="metadata1111">
    <rdf:RDF>
      <cc:Work
         rdf:about="">
        <dc:format>image/svg+xml</dc:format>
        <dc:type
           rdf:resource="http://purl.org/dc/dcmitype/StillImage" />
      </cc:Work>
    </rdf:RDF>
  </metadata>
  <g
     inkscape:label="Layer 1"
     inkscape:groupmode="layer"
     id="layer1">
    <g
       id="g918"
       transform="translate(0.47625037,0.92604234)">
      <rect
         ry="4.8357682"
         rx="4.8357682"
         style="fill:url(#linearGradient926);fill-opacity:1;stroke-width:6.09228"
         x="0.13229237"
         y="-16.457085"
         width="15.875001"
         height="15.875001"
         id="use1056"
         transform="rotate(90)"
         class="ColorScheme-Highlight" />
      <path
         d="m 5.344583,0.13229167 c -2.6384245,0 -4.76249953,2.12407483 -4.76249953,4.76249963 H 5.344583 Z"
         style="opacity:0.15;fill:url(#radialGradient25);fill-opacity:1;stroke-width:6.09228"
         id="path20" />
      <rect
         y="0.13229151"
         x="5.3445826"
         height="1.5875"
         width="6.3500004"
         id="rect20"
         style="opacity:0.15;fill:url(#linearGradient25);fill-opacity:1;stroke-width:4.83577;stroke-linecap:round;stroke-linejoin:round;paint-order:stroke fill markers" />
      <path
         d="m 0.58208347,11.244792 c 0,2.638424 2.12407503,4.762499 4.76249953,4.762499 v -4.762499 z"
         style="opacity:0.15;fill:url(#radialGradient29);fill-opacity:1;stroke-width:6.09228"
         id="use20" />
      <rect
         y="0.5820834"
         x="-11.244792"
         height="1.5875"
         width="6.3500004"
         id="use21"
         style="opacity:0.15;fill:url(#linearGradient34);fill-opacity:1;stroke-width:4.83577;stroke-linecap:round;stroke-linejoin:round;paint-order:stroke fill markers"
         transform="rotate(-90)" />
      <path
         d="m 11.694583,16.007291 c 2.638425,0 4.7625,-2.124074 4.7625,-4.762499 h -4.7625 z"
         style="opacity:0.15;fill:url(#radialGradient30);fill-opacity:1;stroke-width:6.09228"
         id="use22" />
      <rect
         y="-16.007292"
         x="-11.694584"
         height="1.5875"
         width="6.3500004"
         id="use23"
         style="opacity:0.15;fill:url(#linearGradient35);fill-opacity:1;stroke-width:4.83577;stroke-linecap:round;stroke-linejoin:round;paint-order:stroke fill markers"
         transform="scale(-1)" />
      <path
         d="m 16.457083,4.8947913 c 0,-2.6384245 -2.124074,-4.76249963 -4.7625,-4.76249963 V 4.8947913 Z"
         style="opacity:0.15;fill:url(#radialGradient31);fill-opacity:1;stroke-width:6.09228"
         id="use24" />
      <rect
         y="-16.457081"
         x="4.8947906"
         height="1.5875"
         width="6.3500004"
         id="use25"
         style="opacity:0.15;fill:url(#linearGradient36);fill-opacity:1;stroke-width:4.83577;stroke-linecap:round;stroke-linejoin:round;paint-order:stroke fill markers"
         transform="rotate(90)" />
      <path
         d="m 5.3445832,0.13229107 c -2.638425,0 -4.76250035,2.12407473 -4.76250035,4.76249973 H 5.3445832 Z"
         style="opacity:0.5;fill:url(#radialGradient15);fill-opacity:1;stroke-width:6.09228"
         id="path14" />
      <rect
         y="0.1322909"
         x="5.3445826"
         height="1.5875"
         width="6.3499999"
         id="rect14"
         style="opacity:0.5;fill:url(#linearGradient15);fill-opacity:1;stroke-width:4.83577;stroke-linecap:round;stroke-linejoin:round;paint-order:stroke fill markers" />
      <path
         d="m 11.694583,0.13229096 c 2.638425,0 4.7625,2.12407504 4.7625,4.76249734 h -4.7625 z"
         style="opacity:0.5;fill:url(#radialGradient17);fill-opacity:1;stroke-width:6.09228"
         id="use14" />
      <path
         id="path17"
         style="opacity:0.5;fill:url(#radialGradient18);fill-opacity:1;stroke-width:6.09228"
         d="m 5.3445834,16.00729 c -2.638425,0 -4.7625,-2.124075 -4.7625,-4.7625 h 4.7625 z" />
      <rect
         style="opacity:0.5;fill:url(#linearGradient18);fill-opacity:1;stroke-width:4.83577;stroke-linecap:round;stroke-linejoin:round;paint-order:stroke fill markers"
         id="rect17"
         width="6.3499994"
         height="1.5874999"
         x="5.3445826"
         y="-16.007292"
         transform="scale(1,-1)" />
      <path
         id="use17"
         style="opacity:0.5;fill:url(#radialGradient20);fill-opacity:1;stroke-width:6.09228"
         d="m 11.694582,16.007291 c 2.638425,0 4.7625,-2.124075 4.7625,-4.7625 h -4.7625 z" />
    </g>
    <path
       style="fill:#d79f87;stroke-width:0.264583"
       d="M 10.620048,5.9133109 C 11.586457,5.0763797 12.934255,4.4342851 14.517134,4.3895921 14.8175,6.2377455 14.106059,7.7213745 13.634776,8.3583452"
       id="path1" />
    <path
       style="fill:#946e5d;stroke-width:0.264583"
       d="M 11.21536,6.068993 C 12.061431,5.4905882 12.892389,5.0787883 13.993488,4.9849038 13.927002,6.8857079 13.537939,7.1336201 13.13839,7.7630323"
       id="path2" />
    <path
       style="fill:#d79f87;stroke-width:0.264583"
       d="M 4.071607,9.9042628 C 4.2129995,9.0505236 4.0578501,5.9571379 9.1084807,5.6199116 12.527552,6.1219736 13.734802,7.4509974 13.993488,9.9042628 13.922008,11.215065 10.497038,14.625623 9.0831677,14.506881 7.5563355,14.594151 4.0946135,11.102358 4.071607,9.9042628 Z"
       id="path3-3" />
    <path
       style="fill:#d79f87;stroke-width:0.264583"
       d="M 7.4450469,5.9133109 C 6.4786361,5.0763797 5.1308385,4.4342851 3.547957,4.3895921 3.2475918,6.2377455 3.9590354,7.7213745 4.4303192,8.3583452"
       id="path4" />
    <path
       style="fill:#946e5d;stroke-width:0.264583"
       d="M 6.8497331,6.068993 C 6.0036639,5.4905882 5.1727023,5.0787883 4.071607,4.9849038 4.138093,6.8857079 4.5271532,7.1336201 4.9267038,7.7630323"
       id="path5" />
    <path
       style="opacity:0.2;fill:#ffffff;stroke-width:0.264583"
       d="M 3.5479955,4.3895921 C 3.4905339,4.7431534 3.4708737,5.0823576 3.4786157,5.4054216 3.4816957,5.142305 3.5021441,4.8701422 3.5479955,4.588031 5.1083231,4.6320862 6.438314,5.2576353 7.4016362,6.0770892 7.8921507,5.9523338 8.4561547,5.8617467 9.1085097,5.8181894 9.6929367,5.9040064 10.20817,6.016262 10.669658,6.1518911 l -0.04962,-0.040309 c 0.966409,-0.8369287 2.314172,-1.478857 3.897053,-1.5235507 0.04645,0.2857926 0.0663,0.5616675 0.06899,0.8282437 0.0085,-0.326434 -0.01092,-0.6695444 -0.06899,-1.0266827 -1.582881,0.044694 -2.930644,0.686624 -3.897053,1.5235507 l 0.04962,0.040309 C 10.20817,5.8178246 9.6929367,5.705568 9.1085097,5.6197506 8.4561547,5.6633079 7.8921507,5.7538943 7.4016362,5.8786507 6.438314,5.0592006 5.1083231,4.4336506 3.5479955,4.3895921 Z M 4.3425189,8.422295 C 4.1374748,9.045881 4.1204467,9.6094578 4.071607,9.9043758 c 6.297e-4,0.0344 0.00503,0.07126 0.011242,0.1092972 C 4.127907,9.6821518 4.153517,9.1203788 4.3859269,8.4901205 4.3719829,8.4703375 4.3567749,8.4434375 4.3425199,8.4222965 Z m 9.3378091,0.065888 c -0.01497,0.021258 -0.03118,0.048938 -0.04574,0.068601 0.171729,0.4302585 0.282772,0.9126198 0.346103,1.449525 0.0057,-0.03492 0.01106,-0.06949 0.01274,-0.1019332 -0.05525,-0.5238881 -0.15871,-0.9922624 -0.31316,-1.4161928 z"
       id="path6" />
    <path
       style="fill:#946e5d;stroke-width:0.264583"
       d="m 10.123955,12.029434 a 1.0914078,1.0914078 0 1 1 -2.1828159,0 1.0914078,1.0914078 0 1 1 2.1828159,0 z"
       id="path7" />
    <path
       style="opacity:0.1;stroke-width:0.264583"
       d="m 8.7547327,10.377853 c 0,0 -2.7376465,-0.348982 -3.1951299,1.152886 -0.306905,1.007521 0.3941004,1.033143 0.5025154,1.714379 0.1084146,0.681233 -0.680825,0.508224 -0.680825,0.508224 l 0.075418,0.151383 c 0,0 0.770385,0.13517 0.7939542,-0.594728 0.023567,-0.729903 -0.7130813,-1.06017 -0.2605699,-1.779258 0.4525116,-0.719088 2.136362,-0.297523 2.136362,-0.297523 z"
       id="path8" />
    <path
       style="fill:#4a3025;stroke-width:0.264583"
       d="m 8.7547327,10.179415 c 0,0 -2.7376465,-0.3489822 -3.1951299,1.152888 -0.306905,1.007523 0.3941004,1.033138 0.5025154,1.714375 0.1084146,0.68124 -0.680825,0.508218 -0.680825,0.508218 l 0.075418,0.151396 c 0,0 0.770385,0.13517 0.7939542,-0.594737 0.023567,-0.729895 -0.7130813,-1.060175 -0.2605699,-1.779252 0.4525116,-0.71909 2.136362,-0.297526 2.136362,-0.297526 z"
       id="path9" />
    <path
       style="opacity:0.1;stroke-width:0.264583"
       d="m 6.7505156,6.3739682 c -1.1502029,0 -2.0837473,0.9337309 -2.083595,2.0835949 -2.779e-4,1.1499667 0.9333198,2.0835929 2.083595,2.0835929 1.1501981,0 2.0837421,-0.9337272 2.0835941,-2.0835929 2.7e-4,-1.1499639 -0.9333208,-2.0835949 -2.0835941,-2.0835949 z m 0,0.5953127 c 0.821623,0 1.4884693,0.6668778 1.4882803,1.4882822 1.071e-4,0.821333 -0.6667084,1.4882847 -1.4882803,1.4882847 -0.8216297,0 -1.4884763,-0.6668787 -1.4882822,-1.4882847 C 5.262126,7.6362313 5.9289411,6.9692809 6.7505156,6.9692809 Z"
       id="path10" />
    <path
       d="m 6.7505156,6.1755303 c -1.1502029,0 -2.0837473,0.9337323 -2.083595,2.0835967 -2.779e-4,1.149965 0.9333198,2.083594 2.083595,2.083594 1.1501981,0 2.0837421,-0.9337298 2.0835941,-2.083594 2.7e-4,-1.1499648 -0.9333208,-2.0835967 -2.0835941,-2.0835967 z m 0,0.5953148 c 0.821623,0 1.4884693,0.6668769 1.4882803,1.4882819 C 8.238903,9.0804595 7.5720875,9.7474098 6.7505156,9.7474098 5.9288859,9.7474098 5.2620393,9.0805302 5.2622334,8.259127 5.262126,7.4377918 5.9289411,6.7708451 6.7505156,6.7708451 Z"
       id="path11"
       style="fill:#f2f2f2;stroke-width:0.264583" />
    <path
       style="opacity:0.1;stroke-width:0.264583"
       d="m 9.3103597,10.377853 c 0,0 2.7376493,-0.348982 3.1951323,1.152886 0.306901,1.007521 -0.394101,1.033143 -0.502517,1.714379 -0.108416,0.681233 0.680826,0.508224 0.680826,0.508224 l -0.07542,0.151383 c 0,0 -0.770384,0.13517 -0.793953,-0.594728 -0.02358,-0.729903 0.713082,-1.06017 0.260568,-1.779258 -0.452511,-0.719088 -2.1363623,-0.297523 -2.1363623,-0.297523 z"
       id="path12" />
    <path
       style="fill:#4a3025;stroke-width:0.264583"
       d="m 9.3103597,10.179415 c 0,0 2.7376493,-0.3489822 3.1951323,1.152888 0.306901,1.007523 -0.394101,1.033138 -0.502517,1.714375 -0.108416,0.68124 0.680826,0.508218 0.680826,0.508218 l -0.07542,0.151396 c 0,0 -0.770384,0.13517 -0.793953,-0.594737 -0.02357,-0.729895 0.713082,-1.060175 0.260568,-1.779252 -0.452511,-0.71909 -2.1363623,-0.297526 -2.1363623,-0.297526 z"
       id="path13" />
    <path
       style="fill:#383838;stroke-width:0.264583"
       d="m 10.123955,10.838816 a 1.0914078,1.0914078 0 1 1 -2.1828159,0 1.0914078,1.0914078 0 1 1 2.1828159,0 z"
       id="path14-5" />
    <path
       style="opacity:0.2;stroke-width:0.264583"
       d="m 11.311343,8.1601761 c -0.410122,0.00377 -0.707575,0.047259 -0.946308,0.1597562 -0.318308,0.1499939 -0.5201203,0.4211293 -0.7321763,0.8574841 a 0.05176905,0.05043368 0 0 0 0.01476,0.061263 c 0.244764,0.1873733 0.4735133,0.2848034 0.6878953,0.3059184 0.214379,0.02112 0.412398,-0.03531 0.590229,-0.1465567 0.355659,-0.2225197 0.63751,-0.6582996 0.879984,-1.1574952 a 0.05176905,0.05043368 0 0 0 -0.04469,-0.0719 c -0.163734,-0.00645 -0.312992,-0.00972 -0.449698,-0.00847 z"
       id="path15" />
    <path
       style="fill:#aef766;stroke-width:0.264583"
       d="m 11.311343,7.9617367 c -0.410122,0.00377 -0.707576,0.04726 -0.946308,0.1597582 C 10.046727,8.2714895 9.8449147,8.542623 9.6328587,8.9789783 a 0.05176905,0.05043368 0 0 0 0.01476,0.061263 c 0.244764,0.1873748 0.4735133,0.284805 0.6878953,0.3059207 0.214379,0.021118 0.412398,-0.035308 0.590229,-0.1465576 0.355659,-0.2225233 0.63751,-0.6582999 0.879984,-1.1574961 a 0.05176905,0.05043368 0 0 0 -0.04469,-0.0719 c -0.163733,-0.00647 -0.312991,-0.00972 -0.449698,-0.00847 z"
       id="path16" />
    <path
       style="fill:#263742;stroke-width:0.264583"
       d="m 10.436199,8.2789713 c -0.03691,0.3953471 -0.02139,0.5693195 0.258263,0.7937498 C 10.67503,8.7077936 10.66499,8.5308637 10.436199,8.2789713 Z"
       id="path17-3" />
    <path
       style="opacity:0.1;stroke-width:0.264583"
       d="M 14.578086,8.0338954 A 4.6878622,1.0707226 18.246416 1 1 5.6698259,5.1109096 4.6878622,1.0707226 18.246416 1 1 14.578086,8.0338954 Z"
       id="path18" />
    <path
       style="fill:#00ccff;fill-opacity:1;stroke-width:0.264583"
       d="M 14.578086,7.8354591 A 4.6878622,1.0707226 18.246416 1 1 5.6698259,4.9124715 4.6878622,1.0707226 18.246416 1 1 14.578086,7.8354591 Z"
       id="path19" />
    <path
       style="opacity:0.1;stroke-width:0.264583"
       d="M 9.0937827,3.5958398 C 10.093318,3.6291108 11.797115,3.91829 13.199739,4.8041839 l -0.71836,2.1481035 C 11.000033,7.0793589 9.2914657,6.4651355 8.4372326,5.7125055 Z"
       id="path20-5" />
    <path
       style="fill:#00ccff;fill-opacity:1;stroke-width:0.264583"
       d="m 9.0937827,3.3974053 c 0.9995353,0.033267 2.7033323,0.3224448 4.1059563,1.2083402 l -0.71836,2.1481059 C 11.000033,6.8809199 9.2914657,6.2666974 8.4372326,5.5140666 Z"
       id="path21" />
    <path
       style="opacity:0.2;stroke-width:0.264583"
       d="m 9.1258417,3.3989763 c 1.2469033,0.977709 3.2395233,1.373707 4.0562433,1.2593201 l 0.0176,-0.052605 C 11.811463,3.7288842 10.129317,3.4371315 9.1258387,3.3989763 Z"
       id="path22" />
    <path
       style="fill:#1b65cf;stroke-width:0.264583"
       d="M 4.678842,8.0089883 C 4.4174128,8.0919523 4.2534819,8.170324 4.1590293,8.2580434 c -0.047226,0.043858 -0.078268,0.092742 -0.085726,0.1459582 -0.00746,0.053218 0.010346,0.105168 0.041236,0.1492168 0.061797,0.088098 0.173635,0.1583097 0.3163373,0.2289775 0.1427019,0.070669 0.3170552,0.1389486 0.5024461,0.2067315 L 4.9723933,8.883121 C 4.7885831,8.8159165 4.6171555,8.748531 4.4813393,8.6812719 4.3455204,8.6140142 4.2457772,8.5442365 4.2067787,8.4886486 c -0.019484,-0.027792 -0.024588,-0.048858 -0.021677,-0.069453 0.00289,-0.020603 0.015706,-0.046402 0.05046,-0.078677 0.069504,-0.064549 0.2231737,-0.1433901 0.4774914,-0.2240955 z"
       id="path23" />
    <path
       style="opacity:0.1;stroke-width:0.264583"
       d="m 9.0325467,11.434135 a 1.0914074,1.0914074 0 1 1 -2.1828136,0 1.0914074,1.0914074 0 1 1 2.1828136,0 z"
       id="path24" />
    <path
       style="fill:#79503c;stroke-width:0.264583"
       d="m 9.0325467,11.235687 a 1.0914074,1.0914074 0 1 1 -2.1828136,0 1.0914074,1.0914074 0 1 1 2.1828136,0 z"
       id="path25" />
    <path
       style="opacity:0.1;stroke-width:0.264583"
       d="m 11.215351,11.434025 a 1.0914075,1.0910503 0 1 1 -2.1828153,0 1.0914075,1.0910503 0 1 1 2.1828153,0 z"
       id="path26" />
    <path
       style="fill:#79503c;stroke-width:0.264583"
       d="m 11.215351,11.235586 a 1.0914075,1.0910503 0 1 1 -2.1828153,0 1.0914075,1.0910503 0 1 1 2.1828153,0 z"
       id="path27" />
    <path
       style="opacity:0.2;fill:#ffffff;stroke-width:0.264583"
       d="M 8.5915347,5.0164652 8.4372326,5.5138782 C 9.2914657,6.2665088 10.999966,6.8811877 12.481314,6.7541174 L 12.627952,6.3149015 C 12.195159,6.3501133 11.133063,6.2127324 10.453529,6.0222705 9.7236087,5.8176894 8.9286587,5.3840023 8.5915347,5.0164652 Z"
       id="path28" />
    <path
       style="opacity:0.3;fill:#1b65cf;stroke-width:0.264583"
       d="m 6.7505156,6.7708451 c 0.821623,0 1.4884693,0.6668769 1.4882803,1.4882819 C 8.238903,9.0804595 7.5720875,9.7474088 6.7505156,9.7474088 5.9288864,9.7474088 5.2620398,9.0805302 5.2622334,8.259127 5.262126,7.4377918 5.9289411,6.7708451 6.7505156,6.7708451 Z"
       id="path29" />
    <path
       style="opacity:0.2;stroke-width:0.264583"
       d="m 6.158439,8.1601761 c 0.4101205,0.00377 0.7075743,0.047258 0.9463061,0.1597562 0.31831,0.1499939 0.5201223,0.4211293 0.7321748,0.8574841 a 0.05176905,0.05043368 0 0 1 -0.014757,0.061263 C 7.5774008,9.4260526 7.3486503,9.5234828 7.1342676,9.5445978 6.9198878,9.5657158 6.7218679,9.5092898 6.5440417,9.398041 6.1883787,9.1755213 5.9065295,8.7397414 5.6640551,8.2405457 a 0.05176905,0.05043368 0 0 1 0.044684,-0.0719 c 0.1637331,-0.00645 0.3129935,-0.00972 0.4497032,-0.00847 z"
       id="path30" />
    <path
       style="fill:#aef766;stroke-width:0.264583"
       d="m 6.158439,7.9617367 c 0.4101205,0.00377 0.7075743,0.04726 0.9463061,0.1597582 0.31831,0.1499946 0.5201223,0.4211281 0.7321748,0.8574834 a 0.05176905,0.05043368 0 0 1 -0.014757,0.061263 C 7.5774008,9.2276153 7.3486503,9.3250455 7.1342676,9.3461612 6.9198864,9.3672786 6.7218668,9.310853 6.5440395,9.1996036 6.1883783,8.9770803 5.9065299,8.5413037 5.6640551,8.0421075 a 0.05176905,0.05043368 0 0 1 0.044685,-0.0719 c 0.1637322,-0.00647 0.3129931,-0.00972 0.4497028,-0.00847 z"
       id="path31" />
    <path
       style="fill:#263742;stroke-width:0.264583"
       d="M 7.033581,8.2789713 C 7.070485,8.6743184 7.0549688,8.8482908 6.7753195,9.0727211 6.7947557,8.7077936 6.8047755,8.5308637 7.033581,8.2789713 Z"
       id="path32" />
  </g>
</svg>
