<?xml version="1.0" encoding="UTF-8" standalone="no"?>
<svg
   width="68"
   height="68"
   viewBox="0 0 17.991665 17.991665"
   version="1.1"
   id="svg1114"
   inkscape:version="1.3.2 (091e20ef0f, 2023-11-25)"
   sodipodi:docname="yast.svg"
   xmlns:inkscape="http://www.inkscape.org/namespaces/inkscape"
   xmlns:sodipodi="http://sodipodi.sourceforge.net/DTD/sodipodi-0.dtd"
   xmlns:xlink="http://www.w3.org/1999/xlink"
   xmlns="http://www.w3.org/2000/svg"
   xmlns:svg="http://www.w3.org/2000/svg"
   xmlns:rdf="http://www.w3.org/1999/02/22-rdf-syntax-ns#"
   xmlns:cc="http://creativecommons.org/ns#"
   xmlns:dc="http://purl.org/dc/elements/1.1/">
  <style
     type="text/css"
     id="current-color-scheme">.ColorScheme-Highlight { color:#5599ff; }
</style>
  <defs
     id="defs1108">
    <linearGradient
       id="linearGradient12"
       inkscape:collect="always">
      <stop
         style="stop-color:#ffffff;stop-opacity:0;"
         offset="0"
         id="stop10" />
      <stop
         id="stop11"
         offset="0.65909404"
         style="stop-color:#ffffff;stop-opacity:0" />
      <stop
         style="stop-color:#ffffff;stop-opacity:1;"
         offset="1"
         id="stop12" />
    </linearGradient>
    <linearGradient
       id="linearGradient9"
       inkscape:collect="always">
      <stop
         style="stop-color:#000000;stop-opacity:0;"
         offset="0"
         id="stop1" />
      <stop
         id="stop8"
         offset="0.66102529"
         style="stop-color:#000000;stop-opacity:0" />
      <stop
         style="stop-color:#000000;stop-opacity:1;"
         offset="1"
         id="stop9" />
    </linearGradient>
    <linearGradient
       id="linearGradient7"
       inkscape:collect="always">
      <stop
         style="stop-color:#000000;stop-opacity:0;"
         offset="0"
         id="stop5" />
      <stop
         id="stop6"
         offset="0.6586886"
         style="stop-color:#000000;stop-opacity:0" />
      <stop
         style="stop-color:#000000;stop-opacity:1;"
         offset="1"
         id="stop7" />
    </linearGradient>
    <linearGradient
       id="linearGradient4"
       inkscape:collect="always">
      <stop
         style="stop-color:#000000;stop-opacity:0;"
         offset="0"
         id="stop2" />
      <stop
         id="stop3"
         offset="0.67055255"
         style="stop-color:#000000;stop-opacity:0" />
      <stop
         style="stop-color:#000000;stop-opacity:1;"
         offset="1"
         id="stop4" />
    </linearGradient>
    <linearGradient
       inkscape:collect="always"
       id="linearGradient899">
      <stop
         style="stop-color:#00cccc;stop-opacity:1;"
         offset="0"
         id="stop895" />
      <stop
         style="stop-color:#4173bf;stop-opacity:1;"
         offset="1"
         id="stop897" />
    </linearGradient>
    <linearGradient
       id="linearGradient1167"
       x1="40.751999"
       x2="40.751999"
       y1="28.507999"
       y2="17.205999"
       gradientUnits="userSpaceOnUse">
      <stop
         style="stop-color:#84fb6e;stop-opacity:1"
         stop-color="#0ab816"
         offset="0"
         id="stop1163" />
      <stop
         style="stop-color:#0dd41a;stop-opacity:1"
         stop-color="#0cf36c"
         offset="1"
         id="stop1165" />
    </linearGradient>
    <linearGradient
       id="cornerBevel"
       inkscape:collect="always">
      <stop
         style="stop-color:#000000;stop-opacity:0;"
         offset="0"
         id="stop2663" />
      <stop
         id="stop2671"
         offset="0.66666675"
         style="stop-color:#000000;stop-opacity:0" />
      <stop
         style="stop-color:#000000;stop-opacity:1;"
         offset="1"
         id="stop2661" />
    </linearGradient>
    <linearGradient
       id="bevel"
       inkscape:collect="always">
      <stop
         id="stop2685"
         offset="0"
         style="stop-color:#000000;stop-opacity:1;" />
      <stop
         id="stop2687"
         offset="1"
         style="stop-color:#000000;stop-opacity:0;" />
    </linearGradient>
    <linearGradient
       id="highlightCorner"
       inkscape:collect="always">
      <stop
         style="stop-color:#ffffff;stop-opacity:0;"
         offset="0"
         id="stop2613" />
      <stop
         id="stop2621"
         offset="0.66666669"
         style="stop-color:#ffffff;stop-opacity:0" />
      <stop
         style="stop-color:#ffffff;stop-opacity:1;"
         offset="1"
         id="stop2611" />
    </linearGradient>
    <linearGradient
       inkscape:collect="always"
       id="highlight">
      <stop
         style="stop-color:#ffffff;stop-opacity:1;"
         offset="0"
         id="stop2921" />
      <stop
         style="stop-color:#ffffff;stop-opacity:0;"
         offset="1"
         id="stop2923" />
    </linearGradient>
    <radialGradient
       inkscape:collect="always"
       xlink:href="#highlightCorner"
       id="radialGradient15"
       gradientUnits="userSpaceOnUse"
       gradientTransform="matrix(0.04294597,-12.079348,17.933991,0.06376112,14.524179,-50.373789)"
       cx="-4.5799766"
       cy="-0.50206107"
       fx="-4.5799766"
       fy="-0.50206107"
       r="0.39687499" />
    <linearGradient
       inkscape:collect="always"
       xlink:href="#highlight"
       id="linearGradient15"
       gradientUnits="userSpaceOnUse"
       x1="-3.8453064"
       y1="-1.1532172"
       x2="-3.8453064"
       y2="-0.8954913"
       gradientTransform="matrix(6.0923077,0,0,6.0923077,32.228528,7.1537621)" />
    <radialGradient
       inkscape:collect="always"
       xlink:href="#linearGradient12"
       id="radialGradient17"
       gradientUnits="userSpaceOnUse"
       gradientTransform="matrix(-0.02247554,-12.045403,-17.967828,0.03352619,1.6640208,-50.22331)"
       cx="-4.575222"
       cy="-0.55256462"
       fx="-4.575222"
       fy="-0.55256462"
       r="0.39687499" />
    <radialGradient
       inkscape:collect="always"
       xlink:href="#linearGradient7"
       id="radialGradient18"
       gradientUnits="userSpaceOnUse"
       gradientTransform="matrix(0.06461187,12.09952,17.933731,-0.09576873,14.609502,64.748231)"
       cx="-4.4284906"
       cy="-0.50121039"
       fx="-4.4284906"
       fy="-0.50121039"
       r="0.39687499" />
    <linearGradient
       inkscape:collect="always"
       xlink:href="#bevel"
       id="linearGradient18"
       gradientUnits="userSpaceOnUse"
       x1="-3.8415797"
       y1="-1.4506671"
       x2="-3.8406549"
       y2="-1.1968651"
       gradientTransform="matrix(6.0923076,0,0,6.0923076,32.228527,-7.1537627)" />
    <radialGradient
       inkscape:collect="always"
       xlink:href="#linearGradient4"
       id="radialGradient20"
       gradientUnits="userSpaceOnUse"
       gradientTransform="matrix(-0.01031383,11.991438,-17.967296,-0.01545561,1.7353715,64.305742)"
       cx="-4.4236727"
       cy="-0.55004197"
       fx="-4.4236727"
       fy="-0.55004197"
       r="0.39687499" />
    <radialGradient
       inkscape:collect="always"
       xlink:href="#cornerBevel"
       id="radialGradient25"
       gradientUnits="userSpaceOnUse"
       gradientTransform="matrix(12.184614,0,0,12.184614,59.63122,10.377613)"
       cx="-4.4568658"
       cy="-0.44864327"
       fx="-4.4568658"
       fy="-0.44864327"
       r="0.39687496" />
    <linearGradient
       inkscape:collect="always"
       xlink:href="#bevel"
       id="linearGradient25"
       gradientUnits="userSpaceOnUse"
       x1="-3.8487544"
       y1="-1.146081"
       x2="-3.8455966"
       y2="-0.890971"
       gradientTransform="matrix(6.0923077,0,0,6.0923077,32.228528,7.1537627)" />
    <radialGradient
       inkscape:collect="always"
       xlink:href="#cornerBevel"
       id="radialGradient29"
       gradientUnits="userSpaceOnUse"
       gradientTransform="matrix(0,-12.184614,12.184614,0,11.27353,-44.427768)"
       cx="-4.5705457"
       cy="-0.48653662"
       fx="-4.5705457"
       fy="-0.48653662"
       r="0.39687496" />
    <radialGradient
       inkscape:collect="always"
       xlink:href="#cornerBevel"
       id="radialGradient30"
       gradientUnits="userSpaceOnUse"
       gradientTransform="matrix(-12.184514,-0.04945749,0.04847411,-11.942243,-43.502155,3.8519053)"
       cx="-4.5342312"
       cy="-0.60337442"
       fx="-4.5342312"
       fy="-0.60337442"
       r="0.39687496" />
    <radialGradient
       inkscape:collect="always"
       xlink:href="#linearGradient9"
       id="radialGradient31"
       gradientUnits="userSpaceOnUse"
       gradientTransform="matrix(0,-12.151612,11.978956,0,18.475664,-48.770776)"
       cx="-4.4175329"
       cy="-0.56489283"
       fx="-4.4175329"
       fy="-0.56489283"
       r="0.39687496" />
    <linearGradient
       inkscape:collect="always"
       xlink:href="#bevel"
       id="linearGradient34"
       gradientUnits="userSpaceOnUse"
       x1="-3.99717"
       y1="-1.2218677"
       x2="-4.0003276"
       y2="-0.96675771"
       gradientTransform="matrix(6.0923077,0,0,6.0923077,17.025077,8.0496826)" />
    <linearGradient
       inkscape:collect="always"
       xlink:href="#bevel"
       id="linearGradient35"
       gradientUnits="userSpaceOnUse"
       x1="-4.0919032"
       y1="-1.4492278"
       x2="-4.0950613"
       y2="-1.1972755"
       gradientTransform="matrix(6.0923077,0,0,6.0923077,16.129161,-7.1537627)" />
    <linearGradient
       inkscape:collect="always"
       xlink:href="#bevel"
       id="linearGradient36"
       gradientUnits="userSpaceOnUse"
       x1="-3.8734362"
       y1="-1.3717227"
       x2="-3.8765941"
       y2="-1.116071"
       gradientTransform="matrix(6.0923077,0,0,6.0923077,31.33261,-8.0496826)" />
    <linearGradient
       id="paint2_linear_77:3-7"
       x1="79.398094"
       y1="-197.84389"
       x2="82.901054"
       y2="-199.97827"
       gradientUnits="userSpaceOnUse"
       gradientTransform="matrix(1.9248511,0,0,1.7314595,-40.88733,399.61741)">
      <stop
         stop-color="#EBFAFF"
         stop-opacity="0.1"
         id="stop29-5-7"
         offset="0"
         style="stop-color:#c3c3c3;stop-opacity:1;" />
      <stop
         offset="1"
         stop-color="#70A9FF"
         stop-opacity="0.5"
         id="stop30-0-1"
         style="stop-color:#05c7ff;stop-opacity:0.80000001;" />
    </linearGradient>
    <linearGradient
       inkscape:collect="always"
       xlink:href="#linearGradient899"
       id="linearGradient926"
       x1="1.0705695"
       y1="-9.2045679"
       x2="16.919081"
       y2="-9.2251434"
       gradientUnits="userSpaceOnUse"
       gradientTransform="translate(-0.92604234,0.47624996)" />
    <linearGradient
       id="b-3-5"
       gradientUnits="userSpaceOnUse"
       x1="19"
       x2="37"
       y1="1021.362"
       y2="1039.3621"
       gradientTransform="matrix(0.27781248,0,0,0.27781248,0.74083391,-278.2835)">
      <stop
         offset="0"
         stop-color="#292c2f"
         id="stop6025-6-3" />
      <stop
         offset="1"
         stop-opacity="0"
         id="stop6027-7-5" />
    </linearGradient>
  </defs>
  <sodipodi:namedview
     id="base"
     pagecolor="#e2e2e2"
     bordercolor="#666666"
     borderopacity="1.0"
     inkscape:pageopacity="0"
     inkscape:pageshadow="2"
     inkscape:zoom="9.7248729"
     inkscape:cx="32.596827"
     inkscape:cy="31.774194"
     inkscape:document-units="px"
     inkscape:current-layer="layer1"
     inkscape:document-rotation="0"
     showgrid="true"
     units="px"
     inkscape:window-width="1920"
     inkscape:window-height="990"
     inkscape:window-x="0"
     inkscape:window-y="0"
     inkscape:window-maximized="1"
     inkscape:object-paths="true"
     inkscape:snap-grids="true"
     inkscape:snap-intersection-paths="true"
     inkscape:snap-smooth-nodes="true"
     inkscape:snap-midpoints="true"
     inkscape:showpageshadow="2"
     inkscape:pagecheckerboard="0"
     inkscape:deskcolor="#d1d1d1">
    <inkscape:grid
       id="grid2"
       units="px"
       originx="0"
       originy="0"
       spacingx="0.26458333"
       spacingy="0.26458333"
       empcolor="#0099e5"
       empopacity="0.30196078"
       color="#0099e5"
       opacity="0.14902"
       empspacing="5"
       dotted="false"
       gridanglex="30"
       gridanglez="30"
       visible="true" />
  </sodipodi:namedview>
  <metadata
     id="metadata1111">
    <rdf:RDF>
      <cc:Work
         rdf:about="">
        <dc:format>image/svg+xml</dc:format>
        <dc:type
           rdf:resource="http://purl.org/dc/dcmitype/StillImage" />
      </cc:Work>
    </rdf:RDF>
  </metadata>
  <g
     inkscape:label="Layer 1"
     inkscape:groupmode="layer"
     id="layer1">
    <g
       id="g918"
       transform="translate(0.47625037,0.92604234)">
      <rect
         ry="4.8357682"
         rx="4.8357682"
         style="fill:url(#linearGradient926);fill-opacity:1;stroke-width:6.09228"
         x="0.13229237"
         y="-16.457085"
         width="15.875001"
         height="15.875001"
         id="use1056"
         transform="rotate(90)"
         class="ColorScheme-Highlight" />
      <path
         d="m 5.344583,0.13229167 c -2.6384245,0 -4.76249953,2.12407483 -4.76249953,4.76249963 H 5.344583 Z"
         style="opacity:0.15;fill:url(#radialGradient25);fill-opacity:1;stroke-width:6.09228"
         id="path20" />
      <rect
         y="0.13229151"
         x="5.3445826"
         height="1.5875"
         width="6.3500004"
         id="rect20"
         style="opacity:0.15;fill:url(#linearGradient25);fill-opacity:1;stroke-width:4.83577;stroke-linecap:round;stroke-linejoin:round;paint-order:stroke fill markers" />
      <path
         d="m 0.58208347,11.244792 c 0,2.638424 2.12407503,4.762499 4.76249953,4.762499 v -4.762499 z"
         style="opacity:0.15;fill:url(#radialGradient29);fill-opacity:1;stroke-width:6.09228"
         id="use20" />
      <rect
         y="0.5820834"
         x="-11.244792"
         height="1.5875"
         width="6.3500004"
         id="use21"
         style="opacity:0.15;fill:url(#linearGradient34);fill-opacity:1;stroke-width:4.83577;stroke-linecap:round;stroke-linejoin:round;paint-order:stroke fill markers"
         transform="rotate(-90)" />
      <path
         d="m 11.694583,16.007291 c 2.638425,0 4.7625,-2.124074 4.7625,-4.762499 h -4.7625 z"
         style="opacity:0.15;fill:url(#radialGradient30);fill-opacity:1;stroke-width:6.09228"
         id="use22" />
      <rect
         y="-16.007292"
         x="-11.694584"
         height="1.5875"
         width="6.3500004"
         id="use23"
         style="opacity:0.15;fill:url(#linearGradient35);fill-opacity:1;stroke-width:4.83577;stroke-linecap:round;stroke-linejoin:round;paint-order:stroke fill markers"
         transform="scale(-1)" />
      <path
         d="m 16.457083,4.8947913 c 0,-2.6384245 -2.124074,-4.76249963 -4.7625,-4.76249963 V 4.8947913 Z"
         style="opacity:0.15;fill:url(#radialGradient31);fill-opacity:1;stroke-width:6.09228"
         id="use24" />
      <rect
         y="-16.457081"
         x="4.8947906"
         height="1.5875"
         width="6.3500004"
         id="use25"
         style="opacity:0.15;fill:url(#linearGradient36);fill-opacity:1;stroke-width:4.83577;stroke-linecap:round;stroke-linejoin:round;paint-order:stroke fill markers"
         transform="rotate(90)" />
      <path
         d="m 5.3445832,0.13229107 c -2.638425,0 -4.76250035,2.12407473 -4.76250035,4.76249973 H 5.3445832 Z"
         style="opacity:0.5;fill:url(#radialGradient15);fill-opacity:1;stroke-width:6.09228"
         id="path14" />
      <rect
         y="0.1322909"
         x="5.3445826"
         height="1.5875"
         width="6.3499999"
         id="rect14"
         style="opacity:0.5;fill:url(#linearGradient15);fill-opacity:1;stroke-width:4.83577;stroke-linecap:round;stroke-linejoin:round;paint-order:stroke fill markers" />
      <path
         d="m 11.694583,0.13229096 c 2.638425,0 4.7625,2.12407504 4.7625,4.76249734 h -4.7625 z"
         style="opacity:0.5;fill:url(#radialGradient17);fill-opacity:1;stroke-width:6.09228"
         id="use14" />
      <path
         id="path17"
         style="opacity:0.5;fill:url(#radialGradient18);fill-opacity:1;stroke-width:6.09228"
         d="m 5.3445834,16.00729 c -2.638425,0 -4.7625,-2.124075 -4.7625,-4.7625 h 4.7625 z" />
      <rect
         style="opacity:0.5;fill:url(#linearGradient18);fill-opacity:1;stroke-width:4.83577;stroke-linecap:round;stroke-linejoin:round;paint-order:stroke fill markers"
         id="rect17"
         width="6.3499994"
         height="1.5874999"
         x="5.3445826"
         y="-16.007292"
         transform="scale(1,-1)" />
      <path
         id="use17"
         style="opacity:0.5;fill:url(#radialGradient20);fill-opacity:1;stroke-width:6.09228"
         d="m 11.694582,16.007291 c 2.638425,0 4.7625,-2.124075 4.7625,-4.7625 h -4.7625 z" />
    </g>
    <path
       d="m 11.366058,4.6763445 -7.0088691,4.7947367 3.173512,3.1735148 -0.5168345,0.516843 3.2445866,3.244584 a 7.143529,7.1435286 0 0 0 6.290231,-6.547045 z"
       fill="url(#b)"
       opacity="0.2"
       id="path6034-1"
       style="fill:url(#b-3-5);stroke-width:0.277813" />
    <path
       d="m 11.067821,13.476468 a 1.8173138,1.8173136 0 0 0 -0.159661,-0.06318 15.719335,15.719333 0 0 1 -0.228951,-0.08288 L 10.393822,13.22468 C 10.301642,13.1904 10.14916,13.13362 10.055225,13.097906 l -0.1710838,-0.06431 -1.2965548,0.06176 c -0.7132821,0.03425 -1.3590565,0.06605 -1.4351355,0.07074 -0.076075,0.0037 -0.1382268,0.0028 -0.1382268,-0.0037 0,-0.01432 0.1150157,-0.198587 0.3978939,-0.638272 l 0.09144,-0.1418 0.00356,-1.026527 0.00356,-1.026167 0.070365,-0.703286 C 7.61998,9.2395217 7.647119,8.9162772 7.641772,8.9077041 c -0.00539,-0.0087 -0.00287,-0.02429 0.00607,-0.035008 0.00895,-0.010618 0.020002,-0.069301 0.025,-0.1303699 l 0.00868,-0.1107446 -0.1114413,0.011502 a 0.71506727,0.71506723 0 0 0 -0.1364379,0.023149 0.6854216,0.68542156 0 0 1 -0.1339411,0.0225 C 6.9385374,8.7232612 6.6531529,8.7893289 6.4209884,8.8921986 a 1.6380109,1.6380107 0 0 1 -0.1189376,0.049995 c -0.022145,0 -0.745427,0.3393176 -0.8690103,0.4075384 C 5.3026714,9.422246 5.2640969,9.439021 5.2151639,9.443664 a 0.37824981,0.37824979 0 0 0 -0.075367,0.055722 c -0.073217,0.06322 -0.218235,0.119297 -0.3468184,0.1339434 -0.067862,0.0078 -0.119658,0 -0.2089478,-0.02465 C 4.4782754,9.5771867 4.4511294,9.5600494 4.3318324,9.4475317 4.2275375,9.3493058 4.184676,9.2946607 4.1378856,9.1992947 4.083238,9.0878527 4.0775237,9.0632099 4.0750229,8.9231979 4.0728711,8.7878273 4.0775487,8.7610392 4.1132404,8.6985335 4.1625309,8.6135264 4.2911141,8.5235157 4.3846946,8.5092296 A 0.31360091,0.31360089 0 0 0 4.5225649,8.4402911 C 4.561857,8.4081484 4.6529343,8.337784 4.7247266,8.284206 5.2897803,7.8648803 5.538018,7.6591471 5.538018,7.6116428 5.538018,7.5959258 5.8137582,7.126598 5.8601908,7.0633769 5.9091246,6.9965861 6.0584234,6.8812172 6.1673622,6.8269258 6.2645146,6.7776323 6.4959648,6.6940561 6.6281198,6.6597677 6.8763572,6.5961914 6.8524267,6.6083276 6.8209956,6.561901 6.8056329,6.5393771 6.6316876,6.3429296 6.4348834,6.1254087 6.2377224,5.9078891 6.0655632,5.7096565 6.0523475,5.6850115 6.0391322,5.6600095 5.9701972,5.5046368 5.8987619,5.3396212 5.8273266,5.1742494 5.7537482,5.0063762 5.7351754,4.966372 5.65231,4.7881403 5.638737,4.7484936 5.638737,4.6845599 c 0,-0.080009 0.030359,-0.1282197 0.1035775,-0.1632305 0.115719,-0.056082 0.1632299,-0.027141 0.434327,0.262526 a 17.869894,17.869892 0 0 0 0.5354072,0.5393367 c 0.2814555,0.2714531 0.5657675,0.5971982 0.636846,0.7300672 0.045005,0.08358 0.2378798,0.3221738 0.3264586,0.402896 0.055362,0.051087 0.1067937,0.083943 0.1300126,0.083943 0.09001,0 0.2218063,-0.088221 0.3993234,-0.2678834 C 8.5597255,5.9132526 8.8536816,5.6364402 8.9683348,5.5532188 9.111206,5.4489255 9.7344784,5.1488947 10.050227,5.0317413 c 0.124291,-0.045721 0.241444,-0.090011 0.259661,-0.097505 0.01864,-0.00781 0.06397,-0.022858 0.100724,-0.033579 a 0.32110164,0.32110162 0 0 0 0.08324,-0.033568 0.07322116,0.07322116 0 0 1 0.04184,-0.014283 c 0.01432,0 0.139304,-0.041077 0.277529,-0.090714 0.443609,-0.1589431 0.456469,-0.1610858 0.548979,-0.087156 0.06995,0.055718 0.09285,0.1271539 0.06431,0.2000191 C 11.37298,5.0103362 10.950045,5.5750311 10.715735,5.8236269 10.429924,6.1265001 10.273487,6.2272241 9.781654,6.4265281 9.2119466,6.6576174 9.1890879,6.6697622 9.0230009,6.837991 8.9265629,6.935151 8.7572615,7.2255282 8.7822633,7.2501731 c 0.00648,0.00605 0.043215,0 0.082149,-0.015366 C 9.3422853,7.0555027 9.5162294,6.9954976 9.7734,6.9190618 c 0.1660899,-0.048931 0.316815,-0.09537 0.335389,-0.1025073 a 1.1072469,1.1072469 0 0 1 0.134293,-0.032861 c 0.05539,-0.010618 0.11179,-0.025003 0.125721,-0.031433 0.014,-0.00718 0.10073,-0.021432 0.192874,-0.032502 a 1.975186,1.9751858 0 0 0 0.201094,-0.031431 c 0.01867,-0.00605 0.169662,-0.00605 0.335748,0 0.261097,0.0089 0.318956,0.016068 0.429328,0.051781 0.479688,0.1560865 0.902581,0.450399 1.3787,0.96009 0.199302,0.2135919 0.333959,0.4021807 0.454685,0.6372022 0.154659,0.3007423 0.172162,0.3675344 0.219312,0.8318636 0.06289,0.6189907 0.148586,1.3951327 0.192512,1.7433807 0.08218,0.652202 0.132877,1.028672 0.142877,1.06296 0.0033,0.01328 0.01573,0.09001 0.02569,0.170373 0.0098,0.08033 0.04398,0.298601 0.07614,0.485762 0.03174,0.186443 0.05787,0.366461 0.05787,0.399319 0,0.05856 -0.0011,0.05964 -0.07787,0.07 a 1.4322773,1.4322773 0 0 1 -0.138231,0.01033 c -0.05074,0 -0.08,0.01789 -0.178232,0.105727 -0.06432,0.05713 -0.125728,0.104657 -0.136445,0.104657 -0.01009,0 -0.05073,-0.05108 -0.09001,-0.113551 l -0.07073,-0.113556 h -0.09181 c -0.08326,0 -0.10357,0.0077 -0.220367,0.0854 a 2.4870196,2.4870194 0 0 0 -0.161437,0.113562 c -0.01789,0.01572 -0.04067,0.02644 -0.04996,0.02326 -0.02788,-0.0089 -0.05749,-0.108927 -0.05856,-0.196093 l -9.28e-4,-0.07926 -0.110009,0.01035 c -0.06073,0.0069 -0.166438,0.0225 -0.235729,0.03636 -0.15859,0.03173 -0.18824,0.02396 -0.142873,-0.03823 0.01789,-0.02497 0.112826,-0.164302 0.210728,-0.309673 l 0.178603,-0.265027 -0.02711,-0.230021 a 18.556387,18.556385 0 0 1 -0.03638,-0.331747 c -0.0055,-0.05609 -0.01604,-0.105727 -0.02396,-0.110709 -0.0077,-0.0034 -0.01432,-0.02497 -0.01432,-0.0461 0,-0.02103 -0.03714,-0.113219 -0.08215,-0.205738 l -0.13375,-0.273383 c -0.02857,-0.05773 -0.08926,-0.171029 -0.135743,-0.251393 l -0.08394,-0.145726 -0.105341,0.0047 c -0.180731,0.0082 -0.176451,0.0058 -0.188593,0.129296 -0.0057,0.0604 -0.01789,0.12215 -0.02644,0.137866 a 0.15965787,0.15965785 0 0 0 -0.01604,0.06646 c 0,0.02067 -0.01072,0.07398 -0.02502,0.117874 a 2.250211,2.2502108 0 0 0 -0.04989,0.233592 c -0.01431,0.08458 -0.0329,0.190734 -0.04144,0.235378 -0.0089,0.04473 -0.02431,0.135724 -0.03462,0.20288 -0.01035,0.06677 -0.02607,0.154297 -0.03392,0.194661 -0.0077,0.04 -0.02278,0.127498 -0.03323,0.19466 -0.01009,0.06723 -0.02607,0.152158 -0.03461,0.189661 -0.03145,0.139299 -0.02175,0.156795 0.266453,0.490046 0.102532,0.117829 0.166799,0.205018 0.156086,0.211447 a 1.1365354,1.1365354 0 0 1 -0.148229,0.03963 c -0.260737,0.05785 -0.342172,0.07857 -0.515759,0.131794 -0.153949,0.04681 -0.200024,0.04995 -0.265745,0.01643 z M 9.3448,12.738176 c 0.2196639,-0.227871 0.2839548,-0.305019 0.3235999,-0.38932 0.1075151,-0.228595 0.1328724,-0.28288 0.2328843,-0.506835 0.05714,-0.127149 0.1035808,-0.250018 0.1035808,-0.272168 -3.76e-4,-0.03144 -0.3757522,-0.950088 -0.3946797,-0.965804 a 13.331611,13.331611 0 0 0 -0.5329101,-0.150013 0.18358875,0.18358873 0 0 1 -0.061793,-0.02325 c -0.03,-0.02289 -0.066792,0.0037 -0.2032335,0.138585 l -0.1221535,0.122154 0.00998,0.08646 c 0.018924,0.15823 0.042147,0.328603 0.05894,0.426823 0.00895,0.05356 0.039294,0.243245 0.067151,0.421477 0.027866,0.178592 0.057858,0.368608 0.066794,0.422182 0.00922,0.05365 0.03929,0.243235 0.066794,0.421823 0.0275,0.17859 0.057861,0.359677 0.067152,0.402894 0.00922,0.04293 0.016787,0.09644 0.016787,0.118915 0,0.02222 0.00607,0.03824 0.013575,0.03531 A 7.3578344,7.357834 0 0 0 9.344786,12.738111 Z"
       fill="#fcfcfc"
       id="path6036-2"
       style="stroke-width:0.277813" />
    <path
       d="m 11.067821,13.476468 a 1.8180282,1.818028 0 0 0 -0.159661,-0.06318 15.719335,15.719333 0 0 1 -0.228951,-0.08288 l -0.285387,-0.106071 a 41.539619,41.539617 0 0 1 -0.338597,-0.126449 l -0.1710838,-0.06433 -1.2965548,0.06173 c -0.7132821,0.03428 -1.3590565,0.06605 -1.4351355,0.07074 -0.076075,0.0037 -0.1382268,0.0028 -0.1382268,-0.0037 0,-0.01431 0.1150157,-0.198591 0.3978939,-0.638277 l 0.09144,-0.141821 0.00356,-1.026526 0.00356,-1.026166 0.070365,-0.703287 C 7.61998,9.2394286 7.647119,8.9161846 7.641772,8.9076116 c -0.00539,-0.0087 -0.00287,-0.02429 0.00607,-0.035007 0.00895,-0.010618 0.020002,-0.069301 0.025,-0.1303696 l 0.00866,-0.1107215 -0.1114418,0.011497 a 0.71506727,0.71506723 0 0 0 -0.1364176,0.023182 0.6854216,0.68542156 0 0 1 -0.1339411,0.0225 C 6.9385284,8.7230783 6.6531439,8.7891467 6.4209792,8.8920167 a 1.6380109,1.6380107 0 0 1 -0.11894,0.049995 c -0.022145,0 -0.7454275,0.3393184 -0.8690101,0.4075386 -0.1303694,0.072513 -0.1689448,0.08929 -0.2178774,0.093932 a 0.37824981,0.37824979 0 0 0 -0.075366,0.055719 c -0.073215,0.06322 -0.2182349,0.1192947 -0.3468178,0.1339421 -0.067866,0.0078 -0.1196571,0 -0.2089479,-0.02465 C 4.4782749,9.5771747 4.4511294,9.5600354 4.3318324,9.4475181 4.2275374,9.3492925 4.184676,9.2946478 4.1378856,9.1992815 4.0832382,9.0878383 4.0775234,9.063197 4.0750229,8.9231843 4.0728829,8.7878143 4.0775329,8.761026 4.1132409,8.6985203 4.1625299,8.6135113 4.2911148,8.5235026 4.3846953,8.5092168 A 0.31360091,0.31360089 0 0 0 4.522565,8.4402808 C 4.5618569,8.4081387 4.6529343,8.3377734 4.7247268,8.2841954 5.2897804,7.8648698 5.538018,7.6591361 5.538018,7.6116316 c 0,-0.015719 0.2757403,-0.4850438 0.3221728,-0.548265 C 5.9091208,6.9965756 6.0584231,6.8812058 6.1673619,6.8269141 6.2645149,6.7776181 6.4959646,6.6940449 6.6281195,6.659756 6.8763569,6.596181 6.8524263,6.608316 6.8209954,6.561893 A 14.212049,14.212049 0 0 0 6.4348834,6.1254087 C 6.2377224,5.9078891 6.0655632,5.7096565 6.0523475,5.6850115 6.0391322,5.6600095 5.9701972,5.5046368 5.8987619,5.3396212 5.8273266,5.1742494 5.7537482,5.0063762 5.7351754,4.966372 5.65231,4.7881403 5.638737,4.7484936 5.638737,4.6845599 c 0,-0.080009 0.030359,-0.1282197 0.1035775,-0.1632305 0.115719,-0.056082 0.1632299,-0.027141 0.434327,0.262526 a 17.869532,17.86953 0 0 0 0.5354072,0.5393367 c 0.2814555,0.2714531 0.5657675,0.5971982 0.636846,0.7300672 0.045005,0.08358 0.2378798,0.3221738 0.3264586,0.402896 0.055362,0.051087 0.1067937,0.083943 0.1300126,0.083943 0.09001,0 0.2218063,-0.088221 0.3993234,-0.2678834 C 8.5597255,5.9132526 8.8536816,5.6364402 8.9683348,5.5532188 9.111206,5.4489255 9.7344784,5.1488947 10.050227,5.0317413 c 0.124291,-0.045721 0.241444,-0.090011 0.259661,-0.097505 0.01864,-0.00781 0.06397,-0.022858 0.100724,-0.033579 a 0.32110164,0.32110162 0 0 0 0.08324,-0.033568 0.07322116,0.07322116 0 0 1 0.04184,-0.014283 c 0.01432,0 0.139304,-0.041077 0.277529,-0.090714 0.443609,-0.1589431 0.456469,-0.1610858 0.548979,-0.087156 0.06995,0.055718 0.09285,0.1271539 0.06431,0.2000191 C 11.37298,5.0103362 10.950045,5.5750311 10.715735,5.8236269 10.429924,6.1265001 10.273487,6.2272241 9.781654,6.4265281 9.2119466,6.6576174 9.1890879,6.6697622 9.0230009,6.837991 8.9265629,6.935151 8.7572615,7.2255282 8.7822633,7.2501731 c 0.00648,0.00605 0.043215,0 0.082149,-0.015366 C 9.3422853,7.0555027 9.5162294,6.9954976 9.7734,6.9190618 c 0.1660899,-0.048931 0.316815,-0.09537 0.335389,-0.1025073 a 1.1072469,1.1072469 0 0 1 0.134293,-0.032861 c 0.05539,-0.010618 0.11179,-0.025003 0.125721,-0.031433 0.014,-0.00718 0.10073,-0.021432 0.192874,-0.032502 0.09217,-0.011009 0.182872,-0.025003 0.201094,-0.031429 0.01867,-0.00605 0.169662,-0.00605 0.335748,0 0.261097,0.0089 0.318956,0.016068 0.429328,0.051781 0.479688,0.1560866 0.902581,0.4503992 1.3787,0.9600902 0.199302,0.2135915 0.333959,0.4021805 0.454685,0.6372018 0.154659,0.3007424 0.172162,0.3675346 0.219312,0.8318636 0.06289,0.6189909 0.148586,1.3951329 0.192869,1.7433809 0.08217,0.652202 0.13252,1.028674 0.142877,1.062961 0.0028,0.01328 0.01543,0.09001 0.02496,0.170374 0.0097,0.08033 0.04432,0.298599 0.07645,0.485762 0.03174,0.186441 0.05784,0.366459 0.05784,0.39932 0,0.05856 -0.0011,0.05965 -0.07789,0.07003 a 1.4322773,1.4322773 0 0 1 -0.138234,0.01035 c -0.05071,0 -0.07997,0.01789 -0.178231,0.105724 -0.06426,0.05712 -0.125727,0.104657 -0.136441,0.104657 -0.01009,0 -0.05075,-0.05108 -0.09001,-0.113552 l -0.07073,-0.113555 h -0.09183 c -0.08325,0 -0.103573,0.0077 -0.220378,0.08502 a 2.485234,2.4852338 0 0 0 -0.161443,0.114302 c -0.01789,0.01537 -0.04039,0.0257 -0.04996,0.02279 -0.02789,-0.0089 -0.05752,-0.108928 -0.05856,-0.196094 l -9.29e-4,-0.07928 -0.110007,0.01034 a 2.9359904,2.9359902 0 0 0 -0.235734,0.03636 c -0.158589,0.03145 -0.188235,0.02357 -0.142872,-0.03819 0.01789,-0.02498 0.112833,-0.1643 0.210732,-0.310029 L 12.70161,12.47527 12.67477,12.245246 a 18.556387,18.556385 0 0 1 -0.03685,-0.332272 c -0.0055,-0.05574 -0.01603,-0.105383 -0.02392,-0.110019 -0.0077,-0.0047 -0.01432,-0.02567 -0.01432,-0.04647 0,-0.02066 -0.03715,-0.113215 -0.08216,-0.205734 l -0.133652,-0.273235 c -0.0286,-0.05784 -0.08923,-0.171468 -0.135728,-0.25148 l -0.08394,-0.146087 -0.105342,0.0055 c -0.180732,0.0079 -0.17644,0.0058 -0.188586,0.129297 -0.0057,0.0604 -0.01789,0.12215 -0.02642,0.13787 a 0.15965787,0.15965785 0 0 0 -0.01609,0.06603 c 0,0.02142 -0.01072,0.07426 -0.02497,0.117877 a 2.2498541,2.2498539 0 0 0 -0.04998,0.233947 c -0.01432,0.08459 -0.03289,0.190733 -0.04145,0.235027 -0.0089,0.04472 -0.02428,0.135725 -0.03464,0.202872 -0.01009,0.06723 -0.0257,0.154657 -0.03395,0.194663 -0.0077,0.04039 -0.02278,0.127878 -0.03322,0.195017 -0.01034,0.06678 -0.02605,0.152156 -0.03463,0.189302 -0.03145,0.1393 -0.02179,0.157158 0.266454,0.490048 0.102498,0.118206 0.166799,0.205376 0.156082,0.211806 a 1.1365354,1.1365354 0 0 1 -0.148221,0.03924 c -0.260732,0.05828 -0.342166,0.07896 -0.515762,0.132165 -0.153944,0.04646 -0.200017,0.04962 -0.265737,0.01643 z m 0.241085,-0.34932 c -0.03753,-0.08319 -0.06499,-0.153591 -0.06174,-0.157166 0.003,-0.0028 0.04821,0.04398 0.100034,0.105003 0.146444,0.173231 0.145731,0.172871 0.245381,0.15001 0.04646,-0.01033 0.08463,-0.02325 0.08463,-0.02749 0,-0.0033 -0.06255,-0.09287 -0.139305,-0.196802 a 12.628328,12.628328 0 0 1 -0.151453,-0.20967 c -0.0076,-0.01047 0.06781,-0.488256 0.16644,-1.060816 0.178576,-1.035813 0.179297,-1.040814 0.145716,-1.067241 A 33.278126,33.278124 0 0 0 11.498582,10.51258 2.1134131,2.1134129 0 0 1 11.252489,10.297565 c -0.08028,-0.09075 -0.09001,-0.121799 -0.01674,-0.05536 0.0814,0.07398 0.03687,-0.01603 -0.106807,-0.21502 -0.122873,-0.170379 -0.147513,-0.2153846 -0.159309,-0.2907493 -0.01463,-0.09538 -7.07e-4,-0.3407489 0.01965,-0.3407489 0.0073,0 0.01642,0.05393 0.02143,0.1200058 0.0068,0.07501 0.0225,0.1439431 0.04355,0.1825194 0.01897,0.03429 0.08791,0.1793044 0.153589,0.322178 0.06503,0.14287 0.127511,0.270737 0.138934,0.284308 0.02221,0.02714 0.26075,0.206811 0.382899,0.287525 0.045,0.02998 0.08215,0.06897 0.08821,0.09284 0.006,0.0225 0.02141,0.04114 0.03429,0.04114 0.01283,0 0.09358,-0.02604 0.179667,-0.05781 0.151435,-0.05576 0.215372,-0.09284 0.215372,-0.12502 0,-0.0085 0.01035,-0.03821 0.02396,-0.06605 0.154659,-0.331464 0.197162,-0.453977 0.185018,-0.536127 -0.0069,-0.04608 -0.0057,-0.04679 0.0077,-0.01 0.02999,0.08216 0.01789,0.156088 -0.05469,0.325035 -0.03966,0.0932 -0.08216,0.18716 -0.09358,0.207877 a 0.11251059,0.11251059 0 0 0 -0.01215,0.07137 0.188232,0.18823198 0 0 1 -0.01606,0.09284 l -0.02501,0.06072 0.228592,0.400035 c 0.238238,0.415756 0.258233,0.464333 0.30039,0.732215 0.04709,0.298249 0.105356,0.575768 0.126087,0.599349 0.01643,0.01929 0.0028,0.04392 -0.06967,0.133933 -0.179295,0.220742 -0.236094,0.298246 -0.226454,0.307175 0.01537,0.01535 0.181449,-0.02711 0.25038,-0.06356 0.06256,-0.03325 0.103573,-0.02822 0.06604,0.0086 -0.03145,0.03037 -0.02327,0.04528 0.02428,0.04528 h 0.04426 l -0.01195,0.09999 c -0.01328,0.113568 -0.02642,0.114259 0.129294,-0.0086 0.06429,-0.05078 0.08461,-0.05933 0.103573,-0.04354 a 0.10000938,0.10000938 0 0 0 0.06289,0.01538 0.17251618,0.17251616 0 0 1 0.06779,0.0089 0.19501832,0.1950183 0 0 0 0.08603,0.0028 l 0.05641,-0.01033 0.02249,0.09749 c 0.02642,0.115385 0.04577,0.109629 0.09181,-0.02711 0.04321,-0.129298 0.04891,-0.134293 0.15358,-0.134293 0.07864,0 0.09001,-0.0028 0.0822,-0.02857 a 3.3081682,3.308168 0 0 1 -0.0358,-0.222788 c -0.039,-0.290934 -0.17152,-1.201381 -0.191522,-1.322105 C 13.548032,10.827033 13.421235,9.6704887 13.388376,9.1382958 13.367316,8.8032644 13.342655,8.7093268 13.203709,8.4318006 13.003691,8.0324766 12.620794,7.6052949 12.170395,7.2781205 11.917871,7.094532 11.732148,6.9980942 11.470333,6.9148727 l -0.164661,-0.052504 -0.321455,0.0082 c -0.334678,0.00821 -0.467549,0.027495 -0.800076,0.1142948 A 13.015505,13.015505 0 0 0 9.0686802,7.3527881 L 8.7543647,7.4785138 c -0.034648,0.01394 -0.06286,0.033222 -0.06286,0.04322 0,0.04893 0.1417995,0.2400225 0.2768122,0.3728937 0.2100191,0.2068043 0.2550236,0.2371643 0.3678915,0.2482364 0.1185789,0.012083 0.1392987,0.037505 0.030358,0.037505 -0.1128665,0 -0.190374,-0.051781 -0.4186106,-0.2807408 C 8.7715093,7.722822 8.7418633,7.6828181 8.6182808,7.452082 8.5350588,7.2977819 8.6589988,6.9588218 8.8847337,6.7234416 9.0426066,6.5580695 9.19012,6.4698474 9.52158,6.3405501 9.6787349,6.279468 9.9048342,6.183034 10.025198,6.1262433 c 0.179658,-0.08573 0.241804,-0.125006 0.3561,-0.226807 0.216812,-0.1928754 0.489333,-0.5175482 0.730427,-0.8690105 0.132159,-0.1932315 0.152518,-0.2378793 0.100013,-0.2168063 -0.01642,0.0065 -0.07858,0.028581 -0.138582,0.048929 C 10.257721,5.142578 10.203426,5.1625797 9.8855432,5.2929492 9.3944236,5.4947558 9.1336851,5.6411984 8.8783041,5.8587178 8.8200848,5.9087182 8.6472108,6.0794536 8.4943395,6.2387547 8.2085985,6.5359252 8.0935875,6.6327198 7.9600034,6.688082 7.8053455,6.7523783 7.6528315,6.7087938 7.5153186,6.5609286 A 4.2439708,4.2439706 0 0 1 7.1742222,6.1271947 C 7.0431379,5.9282481 6.881337,5.7450167 6.5370188,5.4056987 A 31.524394,31.524392 0 0 1 6.0012543,4.8652912 C 5.9012435,4.7602769 5.8162369,4.6770599 5.8126652,4.6802734 c -0.00356,0.00358 0.019645,0.062513 0.051784,0.1307266 0.032151,0.068578 0.092151,0.2028764 0.1325126,0.2989565 0.040716,0.096075 0.089295,0.2071631 0.1075165,0.2471667 0.1321559,0.2857412 0.1196579,0.2693107 0.619702,0.8204338 l 0.486831,0.5364785 -0.152872,0.027861 C 6.7384666,6.7994042 6.3362858,6.9319138 6.1744847,7.0326375 6.0430444,7.1147922 6.0158986,7.1490806 5.8219518,7.4798218 5.6665801,7.7452045 5.6330055,7.7905653 5.5129945,7.9020051 5.4390592,7.9705832 5.2379685,8.1305981 5.0654518,8.2581101 4.8932935,8.3856231 4.7200625,8.5174206 4.6807732,8.5509946 l -0.071433,0.061425 0.1285833,0.068941 c 0.071433,0.037863 0.129298,0.071433 0.129298,0.075006 0,0.00358 -0.053573,-0.011852 -0.1196582,-0.033566 -0.1807318,-0.059293 -0.2596676,-0.065007 -0.3550339,-0.025005 -0.066793,0.027866 -0.086432,0.046439 -0.1142985,0.1078704 -0.03107,0.06787 -0.032502,0.084641 -0.014641,0.187161 0.029641,0.1703732 0.1678723,0.3500316 0.335031,0.4371841 0.073573,0.037865 0.2482373,0.02928 0.3439612,-0.016791 0.071431,-0.03465 0.091799,-0.055719 0.1385838,-0.1446561 0.044293,-0.084641 0.054652,-0.1235818 0.055362,-0.2107337 0.0018,-0.1535854 0.024291,-0.1968047 0.038226,-0.074281 0.023929,0.2085904 0.032149,0.2675259 0.038226,0.2675259 0.00356,0 0.1968043,-0.090714 0.4300401,-0.2018057 C 6.1026979,8.8303073 6.4684464,8.674579 6.6538211,8.6192165 6.7595429,8.587074 6.8659839,8.5688564 7.4503247,8.4799176 7.846076,8.4202749 8.0443091,8.3388329 8.2182541,8.1641737 l 0.056796,-0.057151 -0.039292,0.071434 C 8.189322,8.2631091 8.1003864,8.3395482 7.9771603,8.4020537 7.8714324,8.4556267 7.8807231,8.4267005 7.845005,8.8224515 A 111.97482,111.97482 0 0 1 7.777139,9.5364461 L 7.709631,10.22438 C 7.691769,10.41118 7.68534,10.725854 7.68534,11.448777 v 0.972947 l -0.1378698,0.203592 c -0.075721,0.111854 -0.1518004,0.218948 -0.1693013,0.238593 -0.047146,0.05185 -0.022502,0.06997 0.094653,0.06997 h 0.1046582 l 0.06286,-0.07962 c 0.099296,-0.125731 0.1196571,-0.133229 0.070726,-0.02572 a 0.80364698,0.80364692 0 0 1 -0.061793,0.116106 c -0.013935,0.0161 -0.010649,0.02431 0.011815,0.03252 0.03215,0.01195 1.1601102,-0.05 1.175111,-0.06429 0.013211,-0.01238 -0.060732,-0.530764 -0.1535908,-1.082236 -0.014651,-0.08463 -0.048593,-0.300041 -0.075736,-0.478636 -0.027154,-0.178584 -0.060013,-0.386461 -0.073583,-0.462186 a 5.8784098,5.8784094 0 0 1 -0.035357,-0.230005 l -0.01148,-0.09214 0.1067923,-0.110722 c 0.058596,-0.06074 0.1500307,-0.158236 0.2025363,-0.216098 l 0.095721,-0.105012 0.055362,0.02107 c 0.1028675,0.03929 1.3497671,0.440755 1.3690611,0.440755 0.03649,0 0.01895,-0.03105 -0.07033,-0.125024 a 0.88151145,0.88151139 0 0 1 -0.110006,-0.134653 c -0.02637,-0.05286 0.106442,0.08358 0.211087,0.216808 0.04288,0.0547 0.129301,0.158942 0.191805,0.231451 0.09786,0.113578 0.119295,0.130725 0.156445,0.123582 0.03222,-0.0065 0.04284,0 0.04284,0.01894 0,0.01467 -0.05537,0.240024 -0.123233,0.500761 -0.297525,1.144391 -0.385388,1.500145 -0.3761,1.523721 0.007,0.01535 0.143943,0.06778 0.363602,0.138581 l 0.353602,0.113929 v -0.10255 c 0,-0.05642 -0.0077,-0.107168 -0.01674,-0.112507 -0.0097,-0.0055 -0.01642,-0.0225 -0.016,-0.03752 9.3e-4,-0.04997 0.04355,0.02222 0.108601,0.184656 l 0.06067,0.151799 0.128575,0.0037 c 0.07138,0.0028 0.135379,0 0.142875,-0.0046 0.0076,-0.0055 -0.01748,-0.07789 -0.05469,-0.160731 z m -0.21037,-3.508552 c 0.01708,-0.1443009 0.04068,-0.1728751 0.04149,-0.04999 3.36e-4,0.1078707 -0.01059,0.1514424 -0.03684,0.1514424 -0.01059,0 -0.01214,-0.03715 -0.0046,-0.1014401 z M 4.6925765,9.2771347 c -0.026791,-0.018921 -0.029644,-0.033581 -0.018925,-0.093933 0.016788,-0.09429 0.016788,-0.1407275 7.146e-4,-0.2093058 l -0.013215,-0.057151 0.043572,0.039293 c 0.024291,0.021432 0.068216,0.08429 0.098577,0.1403712 0.045711,0.085733 0.051784,0.1092977 0.037865,0.1478711 -0.019287,0.053572 -0.095723,0.070367 -0.1485864,0.032861 z M 4.4004068,9.1146188 a 0.14001319,0.14001319 0 0 1 -0.036435,-0.08573 c 0,-0.026796 -0.00895,-0.05715 -0.020003,-0.067857 -0.011818,-0.011498 -0.012858,-0.019645 -0.00356,-0.019645 0.035359,0 0.1089355,0.094291 0.1185815,0.1514434 0.01149,0.068937 -0.00648,0.075366 -0.05858,0.021795 z M 7.2706764,7.785923 c -0.051787,-0.02393 -0.088936,-0.1089324 -0.088936,-0.2035907 0,-0.076791 0.00248,-0.081076 0.06286,-0.1071425 0.068578,-0.028567 0.096079,-0.03286 0.1957325,-0.028929 0.064287,0.00358 0.065013,0.00358 0.035004,0.035008 -0.016789,0.017855 -0.023216,0.032143 -0.014289,0.032143 0.025002,0 0.07287,0.090717 0.07287,0.1385844 0,0.063931 -0.1021547,0.1539433 -0.1728734,0.1525147 A 0.27323997,0.27323995 0 0 1 7.2706753,7.7862893 Z M 7.1145906,7.4080298 c 0,-0.00403 0.037506,-0.025713 0.083575,-0.048213 a 0.34003197,0.34003195 0 0 1 0.1803749,-0.038931 l 0.096788,0.00358 -0.092154,0.011852 C 7.3324555,7.3435079 7.2510189,7.3638158 7.2028,7.3827588 7.154217,7.4016788 7.114579,7.4134738 7.114579,7.4095538 Z M 6.8467084,6.9983486 c 0,-0.022857 0.1428701,-0.082505 0.2796692,-0.1171504 0.1421556,-0.036078 0.225735,-0.042869 0.1057308,-0.00823 -0.1117947,0.032144 -0.3143154,0.1017994 -0.3525336,0.1214484 -0.017857,0.00966 -0.033215,0.011009 -0.033215,0.00358 z M 9.3119401,6.2404209 c 0,-0.0043 0.1189399,-0.1192959 0.26431,-0.2557385 0.1453703,-0.135727 0.2964601,-0.2785975 0.3357471,-0.3168157 0.03892,-0.03823 0.07106,-0.062855 0.07106,-0.054659 0,0.017855 -0.2653809,0.3378894 -0.3164604,0.3818227 -0.057859,0.049993 -0.046832,0.075005 0.02432,0.055721 0.083929,-0.022142 0.09285,-0.00358 0.01357,0.028587 -0.03572,0.014287 -0.1346541,0.058215 -0.2189467,0.097508 -0.1528713,0.07073 -0.1735875,0.078581 -0.1735875,0.063577 z m 0.032859,6.4977551 c 0.2196629,-0.227871 0.2839548,-0.305019 0.3235998,-0.38932 0.1075131,-0.228595 0.1328724,-0.28288 0.2328843,-0.506835 0.05714,-0.127149 0.1035828,-0.250018 0.1035828,-0.272168 -3.77e-4,-0.03144 -0.3757531,-0.950088 -0.3946806,-0.965804 a 13.331611,13.331611 0 0 0 -0.5329103,-0.150013 0.18358875,0.18358873 0 0 1 -0.061794,-0.02325 c -0.03,-0.0229 -0.066794,0.0037 -0.2032335,0.13858 l -0.1221536,0.122154 0.00998,0.08646 c 0.018924,0.158229 0.042147,0.328602 0.05894,0.426822 0.00895,0.05356 0.039294,0.243245 0.067148,0.421477 0.027868,0.178592 0.057857,0.368608 0.066794,0.422182 0.00922,0.05365 0.039294,0.243235 0.066794,0.421823 0.027502,0.17859 0.05786,0.359678 0.067152,0.402894 0.00922,0.04293 0.01679,0.09645 0.01679,0.118915 0,0.02222 0.00607,0.03823 0.013574,0.03532 a 7.3578344,7.357834 0 0 0 0.287525,-0.289285 z"
       fill="#173f4f"
       id="path6038-7"
       style="stroke-width:0.277813" />
  </g>
</svg>
