<?xml version="1.0" encoding="UTF-8" standalone="no"?>
<svg
   width="68"
   height="68"
   viewBox="0 0 17.991665 17.991665"
   version="1.1"
   id="svg1114"
   inkscape:version="1.3.2 (091e20ef0f, 2023-11-25)"
   sodipodi:docname="pattern-rpm-devel.svg"
   xmlns:inkscape="http://www.inkscape.org/namespaces/inkscape"
   xmlns:sodipodi="http://sodipodi.sourceforge.net/DTD/sodipodi-0.dtd"
   xmlns:xlink="http://www.w3.org/1999/xlink"
   xmlns="http://www.w3.org/2000/svg"
   xmlns:svg="http://www.w3.org/2000/svg"
   xmlns:rdf="http://www.w3.org/1999/02/22-rdf-syntax-ns#"
   xmlns:cc="http://creativecommons.org/ns#"
   xmlns:dc="http://purl.org/dc/elements/1.1/">
  <style
     type="text/css"
     id="current-color-scheme">.ColorScheme-Highlight { color:#5599ff; }
</style>
  <defs
     id="defs1108">
    <linearGradient
       id="linearGradient12"
       inkscape:collect="always">
      <stop
         style="stop-color:#ffffff;stop-opacity:0;"
         offset="0"
         id="stop10" />
      <stop
         id="stop11"
         offset="0.65909404"
         style="stop-color:#ffffff;stop-opacity:0" />
      <stop
         style="stop-color:#ffffff;stop-opacity:1;"
         offset="1"
         id="stop12" />
    </linearGradient>
    <linearGradient
       id="linearGradient9"
       inkscape:collect="always">
      <stop
         style="stop-color:#000000;stop-opacity:0;"
         offset="0"
         id="stop1" />
      <stop
         id="stop8"
         offset="0.66102529"
         style="stop-color:#000000;stop-opacity:0" />
      <stop
         style="stop-color:#000000;stop-opacity:1;"
         offset="1"
         id="stop9" />
    </linearGradient>
    <linearGradient
       id="linearGradient7"
       inkscape:collect="always">
      <stop
         style="stop-color:#000000;stop-opacity:0;"
         offset="0"
         id="stop5" />
      <stop
         id="stop6"
         offset="0.6586886"
         style="stop-color:#000000;stop-opacity:0" />
      <stop
         style="stop-color:#000000;stop-opacity:1;"
         offset="1"
         id="stop7" />
    </linearGradient>
    <linearGradient
       id="linearGradient4"
       inkscape:collect="always">
      <stop
         style="stop-color:#000000;stop-opacity:0;"
         offset="0"
         id="stop2" />
      <stop
         id="stop3"
         offset="0.67055255"
         style="stop-color:#000000;stop-opacity:0" />
      <stop
         style="stop-color:#000000;stop-opacity:1;"
         offset="1"
         id="stop4" />
    </linearGradient>
    <linearGradient
       inkscape:collect="always"
       id="linearGradient899">
      <stop
         style="stop-color:#ff5555;stop-opacity:1;"
         offset="0"
         id="stop895" />
      <stop
         style="stop-color:#c83771;stop-opacity:1;"
         offset="1"
         id="stop897" />
    </linearGradient>
    <linearGradient
       id="linearGradient1167"
       x1="40.751999"
       x2="40.751999"
       y1="28.507999"
       y2="17.205999"
       gradientUnits="userSpaceOnUse">
      <stop
         style="stop-color:#84fb6e;stop-opacity:1"
         stop-color="#0ab816"
         offset="0"
         id="stop1163" />
      <stop
         style="stop-color:#0dd41a;stop-opacity:1"
         stop-color="#0cf36c"
         offset="1"
         id="stop1165" />
    </linearGradient>
    <linearGradient
       id="cornerBevel"
       inkscape:collect="always">
      <stop
         style="stop-color:#000000;stop-opacity:0;"
         offset="0"
         id="stop2663" />
      <stop
         id="stop2671"
         offset="0.66666675"
         style="stop-color:#000000;stop-opacity:0" />
      <stop
         style="stop-color:#000000;stop-opacity:1;"
         offset="1"
         id="stop2661" />
    </linearGradient>
    <linearGradient
       id="bevel"
       inkscape:collect="always">
      <stop
         id="stop2685"
         offset="0"
         style="stop-color:#000000;stop-opacity:1;" />
      <stop
         id="stop2687"
         offset="1"
         style="stop-color:#000000;stop-opacity:0;" />
    </linearGradient>
    <linearGradient
       id="highlightCorner"
       inkscape:collect="always">
      <stop
         style="stop-color:#ffffff;stop-opacity:0;"
         offset="0"
         id="stop2613" />
      <stop
         id="stop2621"
         offset="0.66666669"
         style="stop-color:#ffffff;stop-opacity:0" />
      <stop
         style="stop-color:#ffffff;stop-opacity:1;"
         offset="1"
         id="stop2611" />
    </linearGradient>
    <linearGradient
       inkscape:collect="always"
       id="highlight">
      <stop
         style="stop-color:#ffffff;stop-opacity:1;"
         offset="0"
         id="stop2921" />
      <stop
         style="stop-color:#ffffff;stop-opacity:0;"
         offset="1"
         id="stop2923" />
    </linearGradient>
    <radialGradient
       inkscape:collect="always"
       xlink:href="#highlightCorner"
       id="radialGradient15"
       gradientUnits="userSpaceOnUse"
       gradientTransform="matrix(0.04294597,-12.079348,17.933991,0.06376112,14.524179,-50.373789)"
       cx="-4.5799766"
       cy="-0.50206107"
       fx="-4.5799766"
       fy="-0.50206107"
       r="0.39687499" />
    <linearGradient
       inkscape:collect="always"
       xlink:href="#highlight"
       id="linearGradient15"
       gradientUnits="userSpaceOnUse"
       x1="-3.8453064"
       y1="-1.1532172"
       x2="-3.8453064"
       y2="-0.8954913"
       gradientTransform="matrix(6.0923077,0,0,6.0923077,32.228528,7.1537621)" />
    <radialGradient
       inkscape:collect="always"
       xlink:href="#linearGradient12"
       id="radialGradient17"
       gradientUnits="userSpaceOnUse"
       gradientTransform="matrix(-0.02247554,-12.045403,-17.967828,0.03352619,1.6640208,-50.22331)"
       cx="-4.575222"
       cy="-0.55256462"
       fx="-4.575222"
       fy="-0.55256462"
       r="0.39687499" />
    <radialGradient
       inkscape:collect="always"
       xlink:href="#linearGradient7"
       id="radialGradient18"
       gradientUnits="userSpaceOnUse"
       gradientTransform="matrix(0.06461187,12.09952,17.933731,-0.09576873,14.609502,64.748231)"
       cx="-4.4284906"
       cy="-0.50121039"
       fx="-4.4284906"
       fy="-0.50121039"
       r="0.39687499" />
    <linearGradient
       inkscape:collect="always"
       xlink:href="#bevel"
       id="linearGradient18"
       gradientUnits="userSpaceOnUse"
       x1="-3.8415797"
       y1="-1.4506671"
       x2="-3.8406549"
       y2="-1.1968651"
       gradientTransform="matrix(6.0923076,0,0,6.0923076,32.228527,-7.1537627)" />
    <radialGradient
       inkscape:collect="always"
       xlink:href="#linearGradient4"
       id="radialGradient20"
       gradientUnits="userSpaceOnUse"
       gradientTransform="matrix(-0.01031383,11.991438,-17.967296,-0.01545561,1.7353715,64.305742)"
       cx="-4.4236727"
       cy="-0.55004197"
       fx="-4.4236727"
       fy="-0.55004197"
       r="0.39687499" />
    <radialGradient
       inkscape:collect="always"
       xlink:href="#cornerBevel"
       id="radialGradient25"
       gradientUnits="userSpaceOnUse"
       gradientTransform="matrix(12.184614,0,0,12.184614,59.63122,10.377613)"
       cx="-4.4568658"
       cy="-0.44864327"
       fx="-4.4568658"
       fy="-0.44864327"
       r="0.39687496" />
    <linearGradient
       inkscape:collect="always"
       xlink:href="#bevel"
       id="linearGradient25"
       gradientUnits="userSpaceOnUse"
       x1="-3.8487544"
       y1="-1.146081"
       x2="-3.8455966"
       y2="-0.890971"
       gradientTransform="matrix(6.0923077,0,0,6.0923077,32.228528,7.1537627)" />
    <radialGradient
       inkscape:collect="always"
       xlink:href="#cornerBevel"
       id="radialGradient29"
       gradientUnits="userSpaceOnUse"
       gradientTransform="matrix(0,-12.184614,12.184614,0,11.27353,-44.427768)"
       cx="-4.5705457"
       cy="-0.48653662"
       fx="-4.5705457"
       fy="-0.48653662"
       r="0.39687496" />
    <radialGradient
       inkscape:collect="always"
       xlink:href="#cornerBevel"
       id="radialGradient30"
       gradientUnits="userSpaceOnUse"
       gradientTransform="matrix(-12.184514,-0.04945749,0.04847411,-11.942243,-43.502155,3.8519053)"
       cx="-4.5342312"
       cy="-0.60337442"
       fx="-4.5342312"
       fy="-0.60337442"
       r="0.39687496" />
    <radialGradient
       inkscape:collect="always"
       xlink:href="#linearGradient9"
       id="radialGradient31"
       gradientUnits="userSpaceOnUse"
       gradientTransform="matrix(0,-12.151612,11.978956,0,18.475664,-48.770776)"
       cx="-4.4175329"
       cy="-0.56489283"
       fx="-4.4175329"
       fy="-0.56489283"
       r="0.39687496" />
    <linearGradient
       inkscape:collect="always"
       xlink:href="#bevel"
       id="linearGradient34"
       gradientUnits="userSpaceOnUse"
       x1="-3.99717"
       y1="-1.2218677"
       x2="-4.0003276"
       y2="-0.96675771"
       gradientTransform="matrix(6.0923077,0,0,6.0923077,17.025077,8.0496826)" />
    <linearGradient
       inkscape:collect="always"
       xlink:href="#bevel"
       id="linearGradient35"
       gradientUnits="userSpaceOnUse"
       x1="-4.0919032"
       y1="-1.4492278"
       x2="-4.0950613"
       y2="-1.1972755"
       gradientTransform="matrix(6.0923077,0,0,6.0923077,16.129161,-7.1537627)" />
    <linearGradient
       inkscape:collect="always"
       xlink:href="#bevel"
       id="linearGradient36"
       gradientUnits="userSpaceOnUse"
       x1="-3.8734362"
       y1="-1.3717227"
       x2="-3.8765941"
       y2="-1.116071"
       gradientTransform="matrix(6.0923077,0,0,6.0923077,31.33261,-8.0496826)" />
    <linearGradient
       id="paint2_linear_77:3-7"
       x1="79.398094"
       y1="-197.84389"
       x2="82.901054"
       y2="-199.97827"
       gradientUnits="userSpaceOnUse"
       gradientTransform="matrix(1.9248511,0,0,1.7314595,-40.88733,399.61741)">
      <stop
         stop-color="#EBFAFF"
         stop-opacity="0.1"
         id="stop29-5-7"
         offset="0"
         style="stop-color:#c3c3c3;stop-opacity:1;" />
      <stop
         offset="1"
         stop-color="#70A9FF"
         stop-opacity="0.5"
         id="stop30-0-1"
         style="stop-color:#05c7ff;stop-opacity:0.80000001;" />
    </linearGradient>
    <linearGradient
       inkscape:collect="always"
       xlink:href="#linearGradient899"
       id="linearGradient926"
       x1="0.98894888"
       y1="-9.3406019"
       x2="16.919081"
       y2="-9.2251434"
       gradientUnits="userSpaceOnUse"
       gradientTransform="translate(-0.92604234,0.47624996)" />
    <linearGradient
       id="b-3"
       y1="13.1"
       x1="19"
       y2="44"
       x2="44"
       gradientUnits="userSpaceOnUse"
       gradientTransform="matrix(1.0500005,0,0,1.0500005,-81.945771,-13.755001)">
      <stop
         stop-color="#292c2f"
         id="stop7-6" />
      <stop
         offset="1"
         stop-color="#292c2f"
         stop-opacity="0"
         id="stop9-7" />
    </linearGradient>
    <linearGradient
       id="d-3"
       gradientUnits="userSpaceOnUse"
       x1="3.8"
       x2="13.8"
       y1="-17"
       y2="-7"
       gradientTransform="matrix(0.39687499,0,0,0.39687499,5.9002089,14.155208)">
      <stop
         offset="0"
         id="stop22-6" />
      <stop
         offset="1"
         stop-opacity="0"
         id="stop24-0" />
    </linearGradient>
    <linearGradient
       id="e-6"
       gradientUnits="userSpaceOnUse"
       x1="3.8"
       x2="3.8"
       y1="-6"
       y2="-28"
       gradientTransform="matrix(0.39687499,0,0,0.39687499,5.9002089,14.155208)">
      <stop
         offset="0"
         stop-color="#4d4d4d"
         id="stop7-2" />
      <stop
         offset="1"
         stop-color="#7f8c8d"
         id="stop9-6" />
    </linearGradient>
  </defs>
  <sodipodi:namedview
     id="base"
     pagecolor="#e2e2e2"
     bordercolor="#666666"
     borderopacity="1.0"
     inkscape:pageopacity="0"
     inkscape:pageshadow="2"
     inkscape:zoom="9.7248729"
     inkscape:cx="30.437416"
     inkscape:cy="34.55058"
     inkscape:document-units="px"
     inkscape:current-layer="layer1"
     inkscape:document-rotation="0"
     showgrid="true"
     units="px"
     inkscape:window-width="1920"
     inkscape:window-height="990"
     inkscape:window-x="0"
     inkscape:window-y="0"
     inkscape:window-maximized="1"
     inkscape:object-paths="true"
     inkscape:snap-grids="true"
     inkscape:snap-intersection-paths="true"
     inkscape:snap-smooth-nodes="true"
     inkscape:snap-midpoints="true"
     inkscape:showpageshadow="2"
     inkscape:pagecheckerboard="0"
     inkscape:deskcolor="#d1d1d1">
    <inkscape:grid
       id="grid2"
       units="px"
       originx="0"
       originy="0"
       spacingx="0.26458333"
       spacingy="0.26458333"
       empcolor="#0099e5"
       empopacity="0.30196078"
       color="#0099e5"
       opacity="0.14902"
       empspacing="5"
       dotted="false"
       gridanglex="30"
       gridanglez="30"
       visible="true" />
  </sodipodi:namedview>
  <metadata
     id="metadata1111">
    <rdf:RDF>
      <cc:Work
         rdf:about="">
        <dc:format>image/svg+xml</dc:format>
        <dc:type
           rdf:resource="http://purl.org/dc/dcmitype/StillImage" />
      </cc:Work>
    </rdf:RDF>
  </metadata>
  <g
     inkscape:label="Layer 1"
     inkscape:groupmode="layer"
     id="layer1">
    <g
       id="g918"
       transform="translate(0.47625037,0.92604234)">
      <rect
         ry="4.8357682"
         rx="4.8357682"
         style="fill:url(#linearGradient926);fill-opacity:1;stroke-width:6.09228"
         x="0.13229237"
         y="-16.457085"
         width="15.875001"
         height="15.875001"
         id="use1056"
         transform="rotate(90)"
         class="ColorScheme-Highlight" />
      <path
         d="m 5.344583,0.13229167 c -2.6384245,0 -4.76249953,2.12407483 -4.76249953,4.76249963 H 5.344583 Z"
         style="opacity:0.15;fill:url(#radialGradient25);fill-opacity:1;stroke-width:6.09228"
         id="path20" />
      <rect
         y="0.13229151"
         x="5.3445826"
         height="1.5875"
         width="6.3500004"
         id="rect20"
         style="opacity:0.15;fill:url(#linearGradient25);fill-opacity:1;stroke-width:4.83577;stroke-linecap:round;stroke-linejoin:round;paint-order:stroke fill markers" />
      <path
         d="m 0.58208347,11.244792 c 0,2.638424 2.12407503,4.762499 4.76249953,4.762499 v -4.762499 z"
         style="opacity:0.15;fill:url(#radialGradient29);fill-opacity:1;stroke-width:6.09228"
         id="use20" />
      <rect
         y="0.5820834"
         x="-11.244792"
         height="1.5875"
         width="6.3500004"
         id="use21"
         style="opacity:0.15;fill:url(#linearGradient34);fill-opacity:1;stroke-width:4.83577;stroke-linecap:round;stroke-linejoin:round;paint-order:stroke fill markers"
         transform="rotate(-90)" />
      <path
         d="m 11.694583,16.007291 c 2.638425,0 4.7625,-2.124074 4.7625,-4.762499 h -4.7625 z"
         style="opacity:0.15;fill:url(#radialGradient30);fill-opacity:1;stroke-width:6.09228"
         id="use22" />
      <rect
         y="-16.007292"
         x="-11.694584"
         height="1.5875"
         width="6.3500004"
         id="use23"
         style="opacity:0.15;fill:url(#linearGradient35);fill-opacity:1;stroke-width:4.83577;stroke-linecap:round;stroke-linejoin:round;paint-order:stroke fill markers"
         transform="scale(-1)" />
      <path
         d="m 16.457083,4.8947913 c 0,-2.6384245 -2.124074,-4.76249963 -4.7625,-4.76249963 V 4.8947913 Z"
         style="opacity:0.15;fill:url(#radialGradient31);fill-opacity:1;stroke-width:6.09228"
         id="use24" />
      <rect
         y="-16.457081"
         x="4.8947906"
         height="1.5875"
         width="6.3500004"
         id="use25"
         style="opacity:0.15;fill:url(#linearGradient36);fill-opacity:1;stroke-width:4.83577;stroke-linecap:round;stroke-linejoin:round;paint-order:stroke fill markers"
         transform="rotate(90)" />
      <path
         d="m 5.3445832,0.13229107 c -2.638425,0 -4.76250035,2.12407473 -4.76250035,4.76249973 H 5.3445832 Z"
         style="opacity:0.5;fill:url(#radialGradient15);fill-opacity:1;stroke-width:6.09228"
         id="path14" />
      <rect
         y="0.1322909"
         x="5.3445826"
         height="1.5875"
         width="6.3499999"
         id="rect14"
         style="opacity:0.5;fill:url(#linearGradient15);fill-opacity:1;stroke-width:4.83577;stroke-linecap:round;stroke-linejoin:round;paint-order:stroke fill markers" />
      <path
         d="m 11.694583,0.13229096 c 2.638425,0 4.7625,2.12407504 4.7625,4.76249734 h -4.7625 z"
         style="opacity:0.5;fill:url(#radialGradient17);fill-opacity:1;stroke-width:6.09228"
         id="use14" />
      <path
         id="path17"
         style="opacity:0.5;fill:url(#radialGradient18);fill-opacity:1;stroke-width:6.09228"
         d="m 5.3445834,16.00729 c -2.638425,0 -4.7625,-2.124075 -4.7625,-4.7625 h 4.7625 z" />
      <rect
         style="opacity:0.5;fill:url(#linearGradient18);fill-opacity:1;stroke-width:4.83577;stroke-linecap:round;stroke-linejoin:round;paint-order:stroke fill markers"
         id="rect17"
         width="6.3499994"
         height="1.5874999"
         x="5.3445826"
         y="-16.007292"
         transform="scale(1,-1)" />
      <path
         id="use17"
         style="opacity:0.5;fill:url(#radialGradient20);fill-opacity:1;stroke-width:6.09228"
         d="m 11.694582,16.007291 c 2.638425,0 4.7625,-2.124075 4.7625,-4.7625 h -4.7625 z" />
    </g>
    <path
       d="m 8.9958332,3.4395832 a 5.5562499,5.5562499 0 0 0 -1.190625,0.13335 V 4.3900988 A 4.7624999,4.7624999 0 0 0 6.581246,4.8969081 L 6.004586,4.3202488 A 5.5562499,5.5562499 0 0 0 4.31628,6.0006171 l 0.580628,0.580628 A 4.7624999,4.7624999 0 0 0 4.388115,7.8052081 H 3.574521 a 5.5562499,5.5562499 0 0 0 -0.134938,1.190625 5.5562499,5.5562499 0 0 0 0.13335,1.1906299 h 0.817166 a 4.7624999,4.7624999 0 0 0 0.506809,1.223958 l -0.576659,0.57666 a 5.5562499,5.5562499 0 0 0 1.680369,1.688306 l 0.580628,-0.580628 a 4.7624999,4.7624999 0 0 0 1.2239622,0.508794 v 0.813593 a 5.5562499,5.5562499 0 0 0 1.190625,0.134938 5.5562499,5.5562499 0 0 0 1.1906258,-0.13335 v -0.817166 a 4.7624999,4.7624999 0 0 0 1.223964,-0.506809 l 0.57666,0.576659 a 5.5562499,5.5562499 0 0 0 1.688306,-1.680368 l -0.580628,-0.580629 a 4.7624999,4.7624999 0 0 0 0.508794,-1.223958 h 0.813593 a 5.5562499,5.5562499 0 0 0 0.134938,-1.1906299 5.5562499,5.5562499 0 0 0 -0.13335,-1.190625 H 13.60157 A 4.7624999,4.7624999 0 0 0 13.094761,6.5812451 L 13.67142,6.0045861 A 5.5562499,5.5562499 0 0 0 11.991052,4.31628 L 11.410423,4.8969081 A 4.7624999,4.7624999 0 0 0 10.186459,4.3881144 V 3.5745207 A 5.5562499,5.5562499 0 0 0 8.9958332,3.4395832 Z M 11.991052,4.31628 A 5.5562499,5.5562499 0 0 0 10.202731,3.5792832 5.5562499,5.5562499 0 0 1 11.991052,4.31628 Z m 2.427684,3.4889281 a 5.5562499,5.5562499 0 0 0 -0.729456,-1.770063 5.5562499,5.5562499 0 0 1 0.729456,1.770063 z M 13.675389,11.99105 a 5.5562499,5.5562499 0 0 0 0.736997,-1.788315 5.5562499,5.5562499 0 0 1 -0.736997,1.788315 z m -3.48893,2.427684 a 5.5562499,5.5562499 0 0 0 1.770064,-0.729456 5.5562499,5.5562499 0 0 1 -1.770064,0.729456 z M 6.000618,13.675387 A 5.5562499,5.5562499 0 0 0 7.7889363,14.412384 5.5562499,5.5562499 0 0 1 6.000618,13.675387 Z M 3.572933,10.186463 A 5.5562499,5.5562499 0 0 0 4.30239,11.956521 5.5562499,5.5562499 0 0 1 3.572933,10.186463 Z M 4.31628,6.0006171 A 5.5562499,5.5562499 0 0 0 3.579283,7.7889361 5.5562499,5.5562499 0 0 1 4.31628,6.0006171 Z M 7.8052082,3.5729332 A 5.5562499,5.5562499 0 0 0 6.035146,4.3023894 5.5562499,5.5562499 0 0 1 7.8052082,3.5729332 Z"
       id="path27-1"
       style="fill:#f9f9f9;stroke-width:0.396875" />
    <path
       d="M 13.361458,8.9958332 A 4.3656249,4.3656249 0 0 1 8.995833,13.361459 4.3656249,4.3656249 0 0 1 4.6302081,8.9958332 4.3656249,4.3656249 0 0 1 8.995833,4.6302083 4.3656249,4.3656249 0 0 1 13.361458,8.9958332 Z"
       id="path29-7"
       style="fill:#1a1a1a;stroke-width:0.396875" />
    <path
       d="M 9.2065736,5.427927 A 3.5663187,3.5663187 0 0 0 8.2508986,5.50373 l 0.073025,0.3909219 a 3.1785718,3.1785718 0 0 1 0.8596312,-0.070644 3.1710312,3.1710312 0 0 1 2.6515222,1.7526 L 12.189486,7.3992051 A 3.5671124,3.5671124 0 0 0 9.2061767,5.427927 Z M 7.2221986,5.8974301 A 3.5718749,3.5718749 0 0 0 5.7616987,7.478977 L 6.1069799,7.6841613 A 3.1757937,3.1757937 0 0 1 7.4007924,6.2526332 Z M 12.09503,8.3120176 c 0.0056,0.026194 0.01032,0.052784 0.01548,0.079375 -0.0052,-0.026591 -0.0099,-0.053181 -0.01587,-0.079375 z M 5.4743612,8.4207613 c -0.020638,0.1194594 -0.035719,0.2409031 -0.044053,0.36195 -0.00714,0.1325562 -0.00675,0.2651125 7.937e-4,0.3976687 L 5.8319456,9.203399 A 3.1654749,3.1654749 0 0 1 5.8263856,8.80573 3.1710312,3.1710312 0 0 1 5.8565476,8.5259332 Z m 6.6794068,0.2718594 c 0.0032,0.032941 0.0063,0.065484 0.0087,0.098425 -0.0024,-0.032941 -0.0056,-0.065484 -0.0087,-0.098425 z"
       fill="#fcfcfc"
       id="path31-9"
       style="stroke-width:0.396875" />
    <path
       d="m 12.189486,7.3992051 -0.354409,0.1774031 a 3.155553,3.155553 0 0 1 0.3302,1.603375 3.133328,3.133328 0 0 1 -0.0512,0.3948906 l 0.397669,0.023813 c 0.02381,-0.130175 0.04048,-0.2619375 0.04961,-0.3944938 a 3.5532218,3.5532218 0 0 0 -0.37187,-1.8049879 z"
       fill="#ed1515"
       id="path33-2"
       style="stroke-width:0.396875" />
    <path
       d="m 9.8272861,9.1379144 a 0.61158436,0.61158436 0 0 1 -0.00714,0.038894 c 0.00278,-0.0127 0.00476,-0.025797 0.00714,-0.038894 z"
       fill="#fcbcbe"
       id="path37-2"
       style="stroke-width:0.396875" />
    <path
       d="m 8.4346517,9.5570144 4.1330563,4.1330576 1.5875,-2.291954 L 12.81774,10.06065 9.392708,8.9958332 Z"
       fill="url(#d)"
       opacity="0.2"
       id="path39-3"
       style="fill:url(#d-3);stroke-width:0.396875" />
    <path
       d="m 9.3843736,8.9160613 a 0.39687499,0.39687499 0 0 1 0.00833,0.079772 0.39687499,0.39687499 0 0 1 -0.1341438,0.2968625 l 3.2464382,1.0822792 0.187325,0.06271 0.125809,-0.377031 -0.188515,-0.06271 z"
       fill="#da4453"
       id="path41-7"
       style="stroke-width:0.396875" />
    <circle
       cx="8.9958344"
       cy="8.9958296"
       fill="#eff0f1"
       r="0.79374999"
       id="circle43-5"
       style="stroke-width:0.396875" />
    <path
       d="M 9.392708,8.9958332 A 0.39687499,0.39687499 0 0 1 8.995833,9.3927082 0.39687499,0.39687499 0 0 1 8.598958,8.9958332 0.39687499,0.39687499 0 0 1 8.995833,8.5989582 0.39687499,0.39687499 0 0 1 9.392708,8.9958332 Z"
       fill="#31363b"
       id="path45-9"
       style="stroke-width:0.396875" />
    <path
       d="M 8.995833,4.6302083 A 4.3656249,4.3656249 0 0 0 4.6302081,8.9958332 4.3656249,4.3656249 0 0 0 4.7897518,10.142803 L 5.1679737,10.039616 A 3.9687499,3.9687499 0 0 1 5.0270831,8.9958332 3.9687499,3.9687499 0 0 1 8.995833,5.0270833 a 3.9687499,3.9687499 0 0 1 3.96875,3.9687499 3.9687499,3.9687499 0 0 1 -0.14724,1.0425918 L 13.203502,10.1432 A 4.3656249,4.3656249 0 0 0 13.361458,8.9958332 4.3656249,4.3656249 0 0 0 8.995833,4.6302083 Z"
       fill="url(#e)"
       id="path47-2"
       style="fill:url(#e-6);stroke-width:0.396875" />
  </g>
</svg>
