<?xml version="1.0" encoding="UTF-8" standalone="no"?>
<svg
   width="68"
   height="68"
   viewBox="0 0 17.991665 17.991665"
   version="1.1"
   id="svg1114"
   inkscape:version="1.3.2 (091e20ef0f, 2023-11-25)"
   sodipodi:docname="pattern-vulkan-devel.svg"
   xmlns:inkscape="http://www.inkscape.org/namespaces/inkscape"
   xmlns:sodipodi="http://sodipodi.sourceforge.net/DTD/sodipodi-0.dtd"
   xmlns:xlink="http://www.w3.org/1999/xlink"
   xmlns="http://www.w3.org/2000/svg"
   xmlns:svg="http://www.w3.org/2000/svg"
   xmlns:rdf="http://www.w3.org/1999/02/22-rdf-syntax-ns#"
   xmlns:cc="http://creativecommons.org/ns#"
   xmlns:dc="http://purl.org/dc/elements/1.1/">
  <style
     type="text/css"
     id="current-color-scheme">.ColorScheme-Highlight { color:#5599ff; }
</style>
  <defs
     id="defs1108">
    <linearGradient
       id="linearGradient12"
       inkscape:collect="always">
      <stop
         style="stop-color:#ffffff;stop-opacity:0;"
         offset="0"
         id="stop10" />
      <stop
         id="stop11"
         offset="0.65909404"
         style="stop-color:#ffffff;stop-opacity:0" />
      <stop
         style="stop-color:#ffffff;stop-opacity:1;"
         offset="1"
         id="stop12" />
    </linearGradient>
    <linearGradient
       id="linearGradient9"
       inkscape:collect="always">
      <stop
         style="stop-color:#000000;stop-opacity:0;"
         offset="0"
         id="stop1" />
      <stop
         id="stop8"
         offset="0.66102529"
         style="stop-color:#000000;stop-opacity:0" />
      <stop
         style="stop-color:#000000;stop-opacity:1;"
         offset="1"
         id="stop9" />
    </linearGradient>
    <linearGradient
       id="linearGradient7"
       inkscape:collect="always">
      <stop
         style="stop-color:#000000;stop-opacity:0;"
         offset="0"
         id="stop5" />
      <stop
         id="stop6"
         offset="0.6586886"
         style="stop-color:#000000;stop-opacity:0" />
      <stop
         style="stop-color:#000000;stop-opacity:1;"
         offset="1"
         id="stop7" />
    </linearGradient>
    <linearGradient
       id="linearGradient4"
       inkscape:collect="always">
      <stop
         style="stop-color:#000000;stop-opacity:0;"
         offset="0"
         id="stop2" />
      <stop
         id="stop3"
         offset="0.67055255"
         style="stop-color:#000000;stop-opacity:0" />
      <stop
         style="stop-color:#000000;stop-opacity:1;"
         offset="1"
         id="stop4" />
    </linearGradient>
    <linearGradient
       inkscape:collect="always"
       id="linearGradient899">
      <stop
         style="stop-color:#2a436f;stop-opacity:1;"
         offset="0"
         id="stop895" />
      <stop
         style="stop-color:#273e66;stop-opacity:1;"
         offset="1"
         id="stop897" />
    </linearGradient>
    <linearGradient
       id="linearGradient1167"
       x1="40.751999"
       x2="40.751999"
       y1="28.507999"
       y2="17.205999"
       gradientUnits="userSpaceOnUse">
      <stop
         style="stop-color:#84fb6e;stop-opacity:1"
         stop-color="#0ab816"
         offset="0"
         id="stop1163" />
      <stop
         style="stop-color:#0dd41a;stop-opacity:1"
         stop-color="#0cf36c"
         offset="1"
         id="stop1165" />
    </linearGradient>
    <linearGradient
       id="cornerBevel"
       inkscape:collect="always">
      <stop
         style="stop-color:#000000;stop-opacity:0;"
         offset="0"
         id="stop2663" />
      <stop
         id="stop2671"
         offset="0.66666675"
         style="stop-color:#000000;stop-opacity:0" />
      <stop
         style="stop-color:#000000;stop-opacity:1;"
         offset="1"
         id="stop2661" />
    </linearGradient>
    <linearGradient
       id="bevel"
       inkscape:collect="always">
      <stop
         id="stop2685"
         offset="0"
         style="stop-color:#000000;stop-opacity:1;" />
      <stop
         id="stop2687"
         offset="1"
         style="stop-color:#000000;stop-opacity:0;" />
    </linearGradient>
    <linearGradient
       id="highlightCorner"
       inkscape:collect="always">
      <stop
         style="stop-color:#ffffff;stop-opacity:0;"
         offset="0"
         id="stop2613" />
      <stop
         id="stop2621"
         offset="0.66666669"
         style="stop-color:#ffffff;stop-opacity:0" />
      <stop
         style="stop-color:#ffffff;stop-opacity:1;"
         offset="1"
         id="stop2611" />
    </linearGradient>
    <linearGradient
       inkscape:collect="always"
       id="highlight">
      <stop
         style="stop-color:#ffffff;stop-opacity:1;"
         offset="0"
         id="stop2921" />
      <stop
         style="stop-color:#ffffff;stop-opacity:0;"
         offset="1"
         id="stop2923" />
    </linearGradient>
    <radialGradient
       inkscape:collect="always"
       xlink:href="#highlightCorner"
       id="radialGradient15"
       gradientUnits="userSpaceOnUse"
       gradientTransform="matrix(0.04294597,-12.079348,17.933991,0.06376112,14.524179,-50.373789)"
       cx="-4.5799766"
       cy="-0.50206107"
       fx="-4.5799766"
       fy="-0.50206107"
       r="0.39687499" />
    <linearGradient
       inkscape:collect="always"
       xlink:href="#highlight"
       id="linearGradient15"
       gradientUnits="userSpaceOnUse"
       x1="-3.8453064"
       y1="-1.1532172"
       x2="-3.8453064"
       y2="-0.8954913"
       gradientTransform="matrix(6.0923077,0,0,6.0923077,32.228528,7.1537621)" />
    <radialGradient
       inkscape:collect="always"
       xlink:href="#linearGradient12"
       id="radialGradient17"
       gradientUnits="userSpaceOnUse"
       gradientTransform="matrix(-0.02247554,-12.045403,-17.967828,0.03352619,1.6640208,-50.22331)"
       cx="-4.575222"
       cy="-0.55256462"
       fx="-4.575222"
       fy="-0.55256462"
       r="0.39687499" />
    <radialGradient
       inkscape:collect="always"
       xlink:href="#linearGradient7"
       id="radialGradient18"
       gradientUnits="userSpaceOnUse"
       gradientTransform="matrix(0.06461187,12.09952,17.933731,-0.09576873,14.609502,64.748231)"
       cx="-4.4284906"
       cy="-0.50121039"
       fx="-4.4284906"
       fy="-0.50121039"
       r="0.39687499" />
    <linearGradient
       inkscape:collect="always"
       xlink:href="#bevel"
       id="linearGradient18"
       gradientUnits="userSpaceOnUse"
       x1="-3.8415797"
       y1="-1.4506671"
       x2="-3.8406549"
       y2="-1.1968651"
       gradientTransform="matrix(6.0923076,0,0,6.0923076,32.228527,-7.1537627)" />
    <radialGradient
       inkscape:collect="always"
       xlink:href="#linearGradient4"
       id="radialGradient20"
       gradientUnits="userSpaceOnUse"
       gradientTransform="matrix(-0.01031383,11.991438,-17.967296,-0.01545561,1.7353715,64.305742)"
       cx="-4.4236727"
       cy="-0.55004197"
       fx="-4.4236727"
       fy="-0.55004197"
       r="0.39687499" />
    <radialGradient
       inkscape:collect="always"
       xlink:href="#cornerBevel"
       id="radialGradient25"
       gradientUnits="userSpaceOnUse"
       gradientTransform="matrix(12.184614,0,0,12.184614,59.63122,10.377613)"
       cx="-4.4568658"
       cy="-0.44864327"
       fx="-4.4568658"
       fy="-0.44864327"
       r="0.39687496" />
    <linearGradient
       inkscape:collect="always"
       xlink:href="#bevel"
       id="linearGradient25"
       gradientUnits="userSpaceOnUse"
       x1="-3.8487544"
       y1="-1.146081"
       x2="-3.8455966"
       y2="-0.890971"
       gradientTransform="matrix(6.0923077,0,0,6.0923077,32.228528,7.1537627)" />
    <radialGradient
       inkscape:collect="always"
       xlink:href="#cornerBevel"
       id="radialGradient29"
       gradientUnits="userSpaceOnUse"
       gradientTransform="matrix(0,-12.184614,12.184614,0,11.27353,-44.427768)"
       cx="-4.5705457"
       cy="-0.48653662"
       fx="-4.5705457"
       fy="-0.48653662"
       r="0.39687496" />
    <radialGradient
       inkscape:collect="always"
       xlink:href="#cornerBevel"
       id="radialGradient30"
       gradientUnits="userSpaceOnUse"
       gradientTransform="matrix(-12.184514,-0.04945749,0.04847411,-11.942243,-43.502155,3.8519053)"
       cx="-4.5342312"
       cy="-0.60337442"
       fx="-4.5342312"
       fy="-0.60337442"
       r="0.39687496" />
    <radialGradient
       inkscape:collect="always"
       xlink:href="#linearGradient9"
       id="radialGradient31"
       gradientUnits="userSpaceOnUse"
       gradientTransform="matrix(0,-12.151612,11.978956,0,18.475664,-48.770776)"
       cx="-4.4175329"
       cy="-0.56489283"
       fx="-4.4175329"
       fy="-0.56489283"
       r="0.39687496" />
    <linearGradient
       inkscape:collect="always"
       xlink:href="#bevel"
       id="linearGradient34"
       gradientUnits="userSpaceOnUse"
       x1="-3.99717"
       y1="-1.2218677"
       x2="-4.0003276"
       y2="-0.96675771"
       gradientTransform="matrix(6.0923077,0,0,6.0923077,17.025077,8.0496826)" />
    <linearGradient
       inkscape:collect="always"
       xlink:href="#bevel"
       id="linearGradient35"
       gradientUnits="userSpaceOnUse"
       x1="-4.0919032"
       y1="-1.4492278"
       x2="-4.0950613"
       y2="-1.1972755"
       gradientTransform="matrix(6.0923077,0,0,6.0923077,16.129161,-7.1537627)" />
    <linearGradient
       inkscape:collect="always"
       xlink:href="#bevel"
       id="linearGradient36"
       gradientUnits="userSpaceOnUse"
       x1="-3.8734362"
       y1="-1.3717227"
       x2="-3.8765941"
       y2="-1.116071"
       gradientTransform="matrix(6.0923077,0,0,6.0923077,31.33261,-8.0496826)" />
    <linearGradient
       id="paint2_linear_77:3-7"
       x1="79.398094"
       y1="-197.84389"
       x2="82.901054"
       y2="-199.97827"
       gradientUnits="userSpaceOnUse"
       gradientTransform="matrix(1.9248511,0,0,1.7314595,-40.88733,399.61741)">
      <stop
         stop-color="#EBFAFF"
         stop-opacity="0.1"
         id="stop29-5-7"
         offset="0"
         style="stop-color:#c3c3c3;stop-opacity:1;" />
      <stop
         offset="1"
         stop-color="#70A9FF"
         stop-opacity="0.5"
         id="stop30-0-1"
         style="stop-color:#05c7ff;stop-opacity:0.80000001;" />
    </linearGradient>
    <linearGradient
       inkscape:collect="always"
       xlink:href="#linearGradient899"
       id="linearGradient926"
       x1="1.1249832"
       y1="-9.2589808"
       x2="16.919081"
       y2="-9.2251434"
       gradientUnits="userSpaceOnUse"
       gradientTransform="translate(-0.92604234,0.47624996)" />
    <linearGradient
       xlink:href="#bevel"
       id="linearGradient4304-3"
       x1="26.929001"
       y1="5.9949999"
       x2="47.120998"
       y2="37.126999"
       gradientUnits="userSpaceOnUse"
       gradientTransform="matrix(0.27781247,0,0,0.27781247,0.74083456,0.740834)" />
  </defs>
  <sodipodi:namedview
     id="base"
     pagecolor="#e2e2e2"
     bordercolor="#666666"
     borderopacity="1.0"
     inkscape:pageopacity="0"
     inkscape:pageshadow="2"
     inkscape:zoom="9.7248729"
     inkscape:cx="32.596827"
     inkscape:cy="31.774194"
     inkscape:document-units="px"
     inkscape:current-layer="layer1"
     inkscape:document-rotation="0"
     showgrid="true"
     units="px"
     inkscape:window-width="1920"
     inkscape:window-height="990"
     inkscape:window-x="0"
     inkscape:window-y="0"
     inkscape:window-maximized="1"
     inkscape:object-paths="true"
     inkscape:snap-grids="true"
     inkscape:snap-intersection-paths="true"
     inkscape:snap-smooth-nodes="true"
     inkscape:snap-midpoints="true"
     inkscape:showpageshadow="2"
     inkscape:pagecheckerboard="0"
     inkscape:deskcolor="#d1d1d1">
    <inkscape:grid
       id="grid2"
       units="px"
       originx="0"
       originy="0"
       spacingx="0.26458333"
       spacingy="0.26458333"
       empcolor="#0099e5"
       empopacity="0.30196078"
       color="#0099e5"
       opacity="0.14902"
       empspacing="5"
       dotted="false"
       gridanglex="30"
       gridanglez="30"
       visible="true" />
  </sodipodi:namedview>
  <metadata
     id="metadata1111">
    <rdf:RDF>
      <cc:Work
         rdf:about="">
        <dc:format>image/svg+xml</dc:format>
        <dc:type
           rdf:resource="http://purl.org/dc/dcmitype/StillImage" />
      </cc:Work>
    </rdf:RDF>
  </metadata>
  <g
     inkscape:label="Layer 1"
     inkscape:groupmode="layer"
     id="layer1">
    <g
       id="g918"
       transform="translate(0.47625037,0.92604234)">
      <rect
         ry="4.8357682"
         rx="4.8357682"
         style="fill:url(#linearGradient926);fill-opacity:1;stroke-width:6.09228"
         x="0.13229237"
         y="-16.457085"
         width="15.875001"
         height="15.875001"
         id="use1056"
         transform="rotate(90)"
         class="ColorScheme-Highlight" />
      <path
         d="m 5.344583,0.13229167 c -2.6384245,0 -4.76249953,2.12407483 -4.76249953,4.76249963 H 5.344583 Z"
         style="opacity:0.15;fill:url(#radialGradient25);fill-opacity:1;stroke-width:6.09228"
         id="path20" />
      <rect
         y="0.13229151"
         x="5.3445826"
         height="1.5875"
         width="6.3500004"
         id="rect20"
         style="opacity:0.15;fill:url(#linearGradient25);fill-opacity:1;stroke-width:4.83577;stroke-linecap:round;stroke-linejoin:round;paint-order:stroke fill markers" />
      <path
         d="m 0.58208347,11.244792 c 0,2.638424 2.12407503,4.762499 4.76249953,4.762499 v -4.762499 z"
         style="opacity:0.15;fill:url(#radialGradient29);fill-opacity:1;stroke-width:6.09228"
         id="use20" />
      <rect
         y="0.5820834"
         x="-11.244792"
         height="1.5875"
         width="6.3500004"
         id="use21"
         style="opacity:0.15;fill:url(#linearGradient34);fill-opacity:1;stroke-width:4.83577;stroke-linecap:round;stroke-linejoin:round;paint-order:stroke fill markers"
         transform="rotate(-90)" />
      <path
         d="m 11.694583,16.007291 c 2.638425,0 4.7625,-2.124074 4.7625,-4.762499 h -4.7625 z"
         style="opacity:0.15;fill:url(#radialGradient30);fill-opacity:1;stroke-width:6.09228"
         id="use22" />
      <rect
         y="-16.007292"
         x="-11.694584"
         height="1.5875"
         width="6.3500004"
         id="use23"
         style="opacity:0.15;fill:url(#linearGradient35);fill-opacity:1;stroke-width:4.83577;stroke-linecap:round;stroke-linejoin:round;paint-order:stroke fill markers"
         transform="scale(-1)" />
      <path
         d="m 16.457083,4.8947913 c 0,-2.6384245 -2.124074,-4.76249963 -4.7625,-4.76249963 V 4.8947913 Z"
         style="opacity:0.15;fill:url(#radialGradient31);fill-opacity:1;stroke-width:6.09228"
         id="use24" />
      <rect
         y="-16.457081"
         x="4.8947906"
         height="1.5875"
         width="6.3500004"
         id="use25"
         style="opacity:0.15;fill:url(#linearGradient36);fill-opacity:1;stroke-width:4.83577;stroke-linecap:round;stroke-linejoin:round;paint-order:stroke fill markers"
         transform="rotate(90)" />
      <path
         d="m 5.3445832,0.13229107 c -2.638425,0 -4.76250035,2.12407473 -4.76250035,4.76249973 H 5.3445832 Z"
         style="opacity:0.5;fill:url(#radialGradient15);fill-opacity:1;stroke-width:6.09228"
         id="path14" />
      <rect
         y="0.1322909"
         x="5.3445826"
         height="1.5875"
         width="6.3499999"
         id="rect14"
         style="opacity:0.5;fill:url(#linearGradient15);fill-opacity:1;stroke-width:4.83577;stroke-linecap:round;stroke-linejoin:round;paint-order:stroke fill markers" />
      <path
         d="m 11.694583,0.13229096 c 2.638425,0 4.7625,2.12407504 4.7625,4.76249734 h -4.7625 z"
         style="opacity:0.5;fill:url(#radialGradient17);fill-opacity:1;stroke-width:6.09228"
         id="use14" />
      <path
         id="path17"
         style="opacity:0.5;fill:url(#radialGradient18);fill-opacity:1;stroke-width:6.09228"
         d="m 5.3445834,16.00729 c -2.638425,0 -4.7625,-2.124075 -4.7625,-4.7625 h 4.7625 z" />
      <rect
         style="opacity:0.5;fill:url(#linearGradient18);fill-opacity:1;stroke-width:4.83577;stroke-linecap:round;stroke-linejoin:round;paint-order:stroke fill markers"
         id="rect17"
         width="6.3499994"
         height="1.5874999"
         x="5.3445826"
         y="-16.007292"
         transform="scale(1,-1)" />
      <path
         id="use17"
         style="opacity:0.5;fill:url(#radialGradient20);fill-opacity:1;stroke-width:6.09228"
         d="m 11.694582,16.007291 c 2.638425,0 4.7625,-2.124075 4.7625,-4.7625 h -4.7625 z" />
    </g>
    <path
       d="m 4.2228558,3.5718747 c -0.3605847,0 -0.6509812,0.290397 -0.6509812,0.6509818 v 1.9524128 c 0,0.3605847 0.2903965,0.6509806 0.6509812,0.6509806 h 3.8507995 c 0.3605849,0 0.6509814,-0.2903959 0.6509814,-0.6509806 V 4.2228565 c 0,-0.3605848 -0.2903965,-0.6509818 -0.6509814,-0.6509818 z m 5.6951578,0 c -0.3605846,0 -0.6509809,0.290397 -0.6509809,0.6509818 v 1.9524128 c 0,0.3605847 0.2903963,0.6509806 0.6509809,0.6509806 H 13.76881 c 0.360583,0 0.65098,-0.2903959 0.65098,-0.6509806 V 4.2228565 c 0,-0.3605848 -0.290397,-0.6509818 -0.65098,-0.6509818 z M 6.6636379,7.368646 c -0.3605847,0 -0.6509813,0.290396 -0.6509813,0.6509807 v 1.9524127 c 0,0.3605856 0.2903966,0.6509816 0.6509813,0.6509816 h 3.8507941 c 0.360587,0 0.650985,-0.290396 0.650985,-0.6509816 V 8.0196267 c 0,-0.3605847 -0.290398,-0.6509807 -0.650985,-0.6509807 z m 5.6951551,0 c -0.360585,0 -0.650982,0.290396 -0.650982,0.6509807 v 1.9524127 c 0,0.3605856 0.290397,0.6509816 0.650982,0.6509816 H 14.41979 V 7.368646 Z m -8.1359372,3.796771 c -0.3605847,0 -0.6509812,0.290397 -0.6509812,0.650981 v 1.952413 c 0,0.360583 0.2903965,0.650981 0.6509812,0.650981 h 3.8507995 c 0.3605849,0 0.6509814,-0.290398 0.6509814,-0.650981 v -1.952413 c 0,-0.360584 -0.2903965,-0.650981 -0.6509814,-0.650981 z m 5.6951578,0 c -0.3605846,0 -0.6509809,0.290397 -0.6509809,0.650981 v 1.952413 c 0,0.360583 0.2903963,0.650981 0.6509809,0.650981 H 13.76881 c 0.360583,0 0.65098,-0.290398 0.65098,-0.650981 v -1.952413 c 0,-0.360584 -0.290397,-0.650981 -0.65098,-0.650981 z"
       id="path2"
       style="fill:#c83771;fill-opacity:1;stroke-width:0.264583" />
    <path
       d="m 8.1822408,3.5829983 v 2.1584604 c 0,0.3004867 -0.2419088,0.5423959 -0.542396,0.5423959 H 3.5829981 c 0.05171,0.3082041 0.3165367,0.5423953 0.6398578,0.5423953 h 3.8507994 c 0.3605849,0 0.6509814,-0.2903959 0.6509814,-0.6509806 V 4.2228565 c 0,-0.3233209 -0.2341918,-0.588148 -0.5423959,-0.6398582 z m 5.6951542,0 v 2.1584604 c 0,0.3004867 -0.241908,0.5423959 -0.542395,0.5423959 H 9.278156 c 0.05171,0.3082041 0.3165372,0.5423953 0.6398576,0.5423953 H 13.76881 c 0.360583,0 0.65098,-0.2903959 0.65098,-0.6509806 V 4.2228565 c 0,-0.3233209 -0.234191,-0.588148 -0.542395,-0.6398582 z M 10.623019,7.3797696 V 9.53823 c 0,0.300487 -0.241906,0.542396 -0.542393,0.542396 H 6.0237802 c 0.051709,0.308205 0.3165368,0.542395 0.6398577,0.542395 h 3.8507941 c 0.360587,0 0.650985,-0.290396 0.650985,-0.6509816 V 8.0196267 c 0,-0.3233209 -0.234192,-0.5881479 -0.542398,-0.6398571 z m 1.095915,2.7008564 c 0.05172,0.308205 0.316538,0.542395 0.639859,0.542395 H 14.41979 V 10.080626 Z M 8.1822408,11.176542 V 13.335 c 0,0.300487 -0.2419088,0.542397 -0.542396,0.542397 H 3.5829981 c 0.05171,0.308205 0.3165367,0.542395 0.6398578,0.542395 h 3.8507994 c 0.3605849,0 0.6509814,-0.290398 0.6509814,-0.650981 v -1.952413 c 0,-0.32332 -0.2341918,-0.588147 -0.5423959,-0.639856 z m 5.6951542,0 V 13.335 c 0,0.300487 -0.241908,0.542397 -0.542395,0.542397 H 9.278156 c 0.05171,0.308205 0.3165372,0.542395 0.6398576,0.542395 H 13.76881 c 0.360583,0 0.65098,-0.290398 0.65098,-0.650981 v -1.952413 c 0,-0.32332 -0.234191,-0.588147 -0.542395,-0.639856 z"
       fill="#101010"
       opacity="0.23"
       id="path3"
       style="opacity:0.439825;fill:#a5a5a5;fill-opacity:1;stroke-width:0.264583" />
    <rect
       fill="#eff0f1"
       height="4.5243745"
       ry="0.56554675"
       width="4.5243745"
       x="2.645833"
       y="6.7468743"
       id="rect216-6-5-6"
       style="stroke-width:0.282773"
       rx="0.56554675" />
    <path
       d="m 4.6527121,7.1805265 -0.205671,0.617009 a 1.3229166,1.3229166 0 0 0 -0.0708,0.02894 l -0.581368,-0.290433 -0.374148,0.374147 0.290936,0.581872 a 1.3229166,1.3229166 0 0 0 -0.03049,0.07028 l -0.615976,0.205671 v 0.529166 l 0.617008,0.205671 a 1.3229166,1.3229166 0 0 0 0.02894,0.0708 l -0.290433,0.5813705 0.374147,0.374147 0.581872,-0.290936 a 1.3229166,1.3229166 0 0 0 0.07028,0.03049 l 0.205671,0.615976 h 0.529166 l 0.205671,-0.617008 a 1.3229166,1.3229166 0 0 0 0.0708,-0.02894 l 0.58137,0.290433 0.3741471,-0.374147 -0.2909361,-0.5818725 a 1.3229166,1.3229166 0 0 0 0.03049,-0.07028 L 6.7693642,9.2972115 V 8.7680455 L 6.1523561,8.5623735 a 1.3229166,1.3229166 0 0 0 -0.02894,-0.0708 l 0.2904331,-0.581369 -0.3741471,-0.374147 -0.581872,0.290936 a 1.3229166,1.3229166 0 0 0 -0.07028,-0.03049 l -0.205671,-0.615977 z m 0.264583,0.79375 a 1.0583333,1.0583333 0 0 0 -0.0894,0.0046 1.0583333,1.0583333 0 0 1 0.0894,-0.0046 z m 0.0894,0.0046 a 1.0583333,1.0583333 0 0 1 0.05581,0.0067 1.0583333,1.0583333 0 0 0 -0.05581,-0.0067 z m -0.234611,0.0067 a 1.0583333,1.0583333 0 0 0 -0.04909,0.0072 1.0583333,1.0583333 0 0 1 0.04909,-0.0072 z m 0.339513,0.0072 a 1.0583333,1.0583333 0 0 1 0.05891,0.01344 1.0583333,1.0583333 0 0 0 -0.05891,-0.01344 z m -0.447516,0.01344 a 1.0583333,1.0583333 0 0 0 -0.04083,0.01033 1.0583333,1.0583333 0 0 1 0.04083,-0.01033 z m 0.547264,0.01033 a 1.0583333,1.0583333 0 0 1 0.05684,0.0186 1.0583333,1.0583333 0 0 0 -0.05684,-0.0186 z m -0.644922,0.0186 a 1.0583333,1.0583333 0 0 0 -0.04754,0.01757 1.0583333,1.0583333 0 0 1 0.04754,-0.01757 z m 0.7493,0.01757 a 1.0583333,1.0583333 0 0 1 0.04599,0.02067 1.0583333,1.0583333 0 0 0 -0.04599,-0.02067 z m -0.84283,0.02067 a 1.0583333,1.0583333 0 0 0 -0.04909,0.02377 1.0583333,1.0583333 0 0 1 0.04909,-0.02377 z m 0.937921,0.02377 a 1.0583333,1.0583333 0 0 1 0.04341,0.0248 1.0583333,1.0583333 0 0 0 -0.04341,-0.0248 z m -1.030419,0.0248 a 1.0583333,1.0583333 0 0 0 -0.04961,0.03049 1.0583333,1.0583333 0 0 1 0.04961,-0.03049 z m 1.123447,0.03049 a 1.0583333,1.0583333 0 0 1 0.03566,0.02584 1.0583333,1.0583333 0 0 0 -0.03566,-0.02584 z m -1.208723,0.02584 a 1.0583333,1.0583333 0 0 0 -0.04909,0.03721 1.0583333,1.0583333 0 0 1 0.04909,-0.03721 z m 1.293469,0.03721 a 1.0583333,1.0583333 0 0 1 0.03411,0.02997 1.0583333,1.0583333 0 0 0 -0.03411,-0.02997 z m -0.671274,0.02325 a 0.79374998,0.79374998 0 0 1 0.79375,0.79375 0.79374998,0.79374998 0 0 1 -0.79375,0.79375 0.79374998,0.79374998 0 0 1 -0.79375,-0.79375 0.79374998,0.79374998 0 0 1 0.79375,-0.79375 z m -0.705379,0.0067 a 1.0583333,1.0583333 0 0 0 -0.04238,0.03927 1.0583333,1.0583333 0 0 1 0.01034,-0.01137 1.0583333,1.0583333 0 0 1 0.03204,-0.02791 z m 1.453144,0.03927 a 1.0583333,1.0583333 0 0 1 0.01137,0.01033 1.0583333,1.0583333 0 0 1 0.02791,0.03204 1.0583333,1.0583333 0 0 0 -0.03927,-0.04238 z m -1.534795,0.04238 a 1.0583333,1.0583333 0 0 0 -0.02997,0.03411 1.0583333,1.0583333 0 0 1 0.02997,-0.03411 z m 1.604037,0.03411 a 1.0583333,1.0583333 0 0 1 0.03721,0.04909 1.0583333,1.0583333 0 0 0 -0.03721,-0.04909 z m -1.671214,0.04909 a 1.0583333,1.0583333 0 0 0 -0.02584,0.03566 1.0583333,1.0583333 0 0 1 0.02584,-0.03566 z m 1.734264,0.03566 a 1.0583333,1.0583333 0 0 1 0.03049,0.04961 1.0583333,1.0583333 0 0 0 -0.03049,-0.04961 z m -1.790594,0.04961 a 1.0583333,1.0583333 0 0 0 -0.02481,0.04341 1.0583333,1.0583333 0 0 1 0.02481,-0.04341 z m 1.845892,0.04341 a 1.0583333,1.0583333 0 0 1 0.02377,0.04909 1.0583333,1.0583333 0 0 0 -0.02377,-0.04909 z m -1.89447,0.04909 a 1.0583333,1.0583333 0 0 0 -0.02067,0.04599 1.0583333,1.0583333 0 0 1 0.02067,-0.04599 z m 1.938893,0.04599 a 1.0583333,1.0583333 0 0 1 0.01757,0.04754 1.0583333,1.0583333 0 0 0 -0.01757,-0.04754 z m -1.977152,0.04754 a 1.0583333,1.0583333 0 0 0 -0.0186,0.05684 1.0583333,1.0583333 0 0 1 0.0186,-0.05684 z m 2.013321,0.05684 a 1.0583333,1.0583333 0 0 1 0.01034,0.04082 1.0583333,1.0583333 0 0 0 -0.01034,-0.04082 z m -2.042266,0.04082 a 1.0583333,1.0583333 0 0 0 -0.01344,0.05891 1.0583333,1.0583333 0 0 1 0.01344,-0.05891 z m 2.066025,0.05891 a 1.0583333,1.0583333 0 0 1 0.0072,0.04909 1.0583333,1.0583333 0 0 0 -0.0072,-0.04909 z m -2.086689,0.04909 a 1.0583333,1.0583333 0 0 0 -0.0067,0.05581 1.0583333,1.0583333 0 0 1 0.0067,-0.05581 z m 2.100659,0.05581 a 1.0583333,1.0583333 0 0 1 0.0046,0.0894 1.0583333,1.0583333 0 0 0 -0.0046,-0.0894 z m -2.11201,0.0894 a 1.0583333,1.0583333 0 0 0 0.0047,0.0894 1.0583333,1.0583333 0 0 1 -0.0047,-0.0894 z m 2.11201,0.0894 a 1.0583333,1.0583333 0 0 1 -0.0067,0.05581 1.0583333,1.0583333 0 0 0 0.0067,-0.05581 z m -2.100659,0.05581 a 1.0583333,1.0583333 0 0 0 0.0072,0.04909 1.0583333,1.0583333 0 0 1 -0.0072,-0.04909 z m 2.086689,0.04909 a 1.0583333,1.0583333 0 0 1 -0.01344,0.05891 1.0583333,1.0583333 0 0 0 0.01344,-0.05891 z m -2.066025,0.05891 a 1.0583333,1.0583333 0 0 0 0.01033,0.04082 1.0583333,1.0583333 0 0 1 -0.01033,-0.04082 z m 2.042266,0.04082 a 1.0583333,1.0583333 0 0 1 -0.0186,0.05684 1.0583333,1.0583333 0 0 0 0.0186,-0.05684 z m -2.013321,0.05684 a 1.0583333,1.0583333 0 0 0 0.01757,0.04754 1.0583333,1.0583333 0 0 1 -0.01757,-0.04754 z m 1.977152,0.04754 a 1.0583333,1.0583333 0 0 1 -0.02067,0.04599 1.0583333,1.0583333 0 0 0 0.02067,-0.04599 z m -1.938893,0.04599 a 1.0583333,1.0583333 0 0 0 0.02377,0.04909 1.0583333,1.0583333 0 0 1 -0.02377,-0.04909 z m 1.89447,0.04909 a 1.0583333,1.0583333 0 0 1 -0.02481,0.04341 1.0583333,1.0583333 0 0 0 0.02481,-0.04341 z m -1.845892,0.04341 a 1.0583333,1.0583333 0 0 0 0.03049,0.04961 1.0583333,1.0583333 0 0 1 -0.03049,-0.04961 z m 1.790594,0.04961 a 1.0583333,1.0583333 0 0 1 -0.02584,0.03566 1.0583333,1.0583333 0 0 0 0.02584,-0.03566 z m -1.734265,0.03566 a 1.0583333,1.0583333 0 0 0 0.03721,0.04909 1.0583333,1.0583333 0 0 1 -0.03721,-0.04909 z m 1.671214,0.04909 a 1.0583333,1.0583333 0 0 1 -0.02997,0.03411 1.0583333,1.0583333 0 0 0 0.02997,-0.03411 z m -1.604036,0.03411 a 1.0583333,1.0583333 0 0 0 0.03927,0.04238 1.0583333,1.0583333 0 0 1 -0.01137,-0.01033 1.0583333,1.0583333 0 0 1 -0.02791,-0.03204 z m 1.534795,0.04238 a 1.0583333,1.0583333 0 0 1 -0.01033,0.01137 1.0583333,1.0583333 0 0 1 -0.03204,0.02791 1.0583333,1.0583333 0 0 0 0.04238,-0.03927 z m -1.453145,0.03927 a 1.0583333,1.0583333 0 0 0 0.03411,0.02997 1.0583333,1.0583333 0 0 1 -0.03411,-0.02997 z m 1.376654,0.02997 a 1.0583333,1.0583333 0 0 1 -0.04909,0.03721 1.0583333,1.0583333 0 0 0 0.04909,-0.03721 z m -1.293469,0.03721 a 1.0583333,1.0583333 0 0 0 0.03565,0.02584 1.0583333,1.0583333 0 0 1 -0.03565,-0.02584 z m 1.208723,0.02584 a 1.0583333,1.0583333 0 0 1 -0.04961,0.03049 1.0583333,1.0583333 0 0 0 0.04961,-0.03049 z m -1.123447,0.03049 a 1.0583333,1.0583333 0 0 0 0.04341,0.02481 1.0583333,1.0583333 0 0 1 -0.04341,-0.02481 z m 1.030419,0.02481 a 1.0583333,1.0583333 0 0 1 -0.04909,0.02377 1.0583333,1.0583333 0 0 0 0.04909,-0.02377 z m -0.937921,0.02377 a 1.0583333,1.0583333 0 0 0 0.04599,0.020669 1.0583333,1.0583333 0 0 1 -0.04599,-0.020669 z m 0.84283,0.020669 a 1.0583333,1.0583333 0 0 1 -0.04754,0.01757 1.0583333,1.0583333 0 0 0 0.04754,-0.01757 z m -0.7493,0.01757 a 1.0583333,1.0583333 0 0 0 0.05684,0.0186 1.0583333,1.0583333 0 0 1 -0.05684,-0.0186 z m 0.644922,0.0186 a 1.0583333,1.0583333 0 0 1 -0.04082,0.01033 1.0583333,1.0583333 0 0 0 0.04082,-0.01033 z m -0.547264,0.01033 a 1.0583333,1.0583333 0 0 0 0.05891,0.01343 1.0583333,1.0583333 0 0 1 -0.05891,-0.01343 z m 0.447516,0.01343 a 1.0583333,1.0583333 0 0 1 -0.04909,0.0072 1.0583333,1.0583333 0 0 0 0.04909,-0.0072 z m -0.339513,0.0072 a 1.0583333,1.0583333 0 0 0 0.05581,0.0067 1.0583333,1.0583333 0 0 1 -0.05581,-0.0067 z m 0.234611,0.0067 a 1.0583333,1.0583333 0 0 1 -0.0894,0.0046 1.0583333,1.0583333 0 0 0 0.0894,-0.0046 z"
       fill="#3d3846"
       id="path23-3"
       style="stroke-width:0.264583" />
  </g>
</svg>
