<?xml version="1.0" encoding="UTF-8" standalone="no"?>
<svg
   width="68"
   height="68"
   viewBox="0 0 17.991665 17.991665"
   version="1.1"
   id="svg1114"
   inkscape:version="1.4.1 (unknown)"
   sodipodi:docname="portal-2.svg"
   xmlns:inkscape="http://www.inkscape.org/namespaces/inkscape"
   xmlns:sodipodi="http://sodipodi.sourceforge.net/DTD/sodipodi-0.dtd"
   xmlns:xlink="http://www.w3.org/1999/xlink"
   xmlns="http://www.w3.org/2000/svg"
   xmlns:svg="http://www.w3.org/2000/svg"
   xmlns:rdf="http://www.w3.org/1999/02/22-rdf-syntax-ns#"
   xmlns:cc="http://creativecommons.org/ns#"
   xmlns:dc="http://purl.org/dc/elements/1.1/">
  <style
     type="text/css"
     id="current-color-scheme">.ColorScheme-Highlight { color:#5599ff; }
</style>
  <defs
     id="defs1108">
    <linearGradient
       id="linearGradient12"
       inkscape:collect="always">
      <stop
         style="stop-color:#ffffff;stop-opacity:0;"
         offset="0"
         id="stop10" />
      <stop
         id="stop11"
         offset="0.65909404"
         style="stop-color:#ffffff;stop-opacity:0" />
      <stop
         style="stop-color:#ffffff;stop-opacity:1;"
         offset="1"
         id="stop12" />
    </linearGradient>
    <linearGradient
       id="linearGradient9"
       inkscape:collect="always">
      <stop
         style="stop-color:#000000;stop-opacity:0;"
         offset="0"
         id="stop1" />
      <stop
         id="stop8"
         offset="0.66102529"
         style="stop-color:#000000;stop-opacity:0" />
      <stop
         style="stop-color:#000000;stop-opacity:1;"
         offset="1"
         id="stop9" />
    </linearGradient>
    <linearGradient
       id="linearGradient7"
       inkscape:collect="always">
      <stop
         style="stop-color:#000000;stop-opacity:0;"
         offset="0"
         id="stop5" />
      <stop
         id="stop6"
         offset="0.6586886"
         style="stop-color:#000000;stop-opacity:0" />
      <stop
         style="stop-color:#000000;stop-opacity:1;"
         offset="1"
         id="stop7" />
    </linearGradient>
    <linearGradient
       id="linearGradient4"
       inkscape:collect="always">
      <stop
         style="stop-color:#000000;stop-opacity:0;"
         offset="0"
         id="stop2" />
      <stop
         id="stop3"
         offset="0.67055255"
         style="stop-color:#000000;stop-opacity:0" />
      <stop
         style="stop-color:#000000;stop-opacity:1;"
         offset="1"
         id="stop4" />
    </linearGradient>
    <linearGradient
       inkscape:collect="always"
       id="linearGradient899">
      <stop
         style="stop-color:#b380ff;stop-opacity:1;"
         offset="0"
         id="stop895" />
      <stop
         style="stop-color:#67a3ff;stop-opacity:1;"
         offset="1"
         id="stop897" />
    </linearGradient>
    <linearGradient
       id="linearGradient1167"
       x1="40.751999"
       x2="40.751999"
       y1="28.507999"
       y2="17.205999"
       gradientUnits="userSpaceOnUse">
      <stop
         style="stop-color:#84fb6e;stop-opacity:1"
         stop-color="#0ab816"
         offset="0"
         id="stop1163" />
      <stop
         style="stop-color:#0dd41a;stop-opacity:1"
         stop-color="#0cf36c"
         offset="1"
         id="stop1165" />
    </linearGradient>
    <linearGradient
       id="cornerBevel"
       inkscape:collect="always">
      <stop
         style="stop-color:#000000;stop-opacity:0;"
         offset="0"
         id="stop2663" />
      <stop
         id="stop2671"
         offset="0.66666675"
         style="stop-color:#000000;stop-opacity:0" />
      <stop
         style="stop-color:#000000;stop-opacity:1;"
         offset="1"
         id="stop2661" />
    </linearGradient>
    <linearGradient
       id="bevel"
       inkscape:collect="always">
      <stop
         id="stop2685"
         offset="0"
         style="stop-color:#000000;stop-opacity:1;" />
      <stop
         id="stop2687"
         offset="1"
         style="stop-color:#000000;stop-opacity:0;" />
    </linearGradient>
    <linearGradient
       id="highlightCorner"
       inkscape:collect="always">
      <stop
         style="stop-color:#ffffff;stop-opacity:0;"
         offset="0"
         id="stop2613" />
      <stop
         id="stop2621"
         offset="0.66666669"
         style="stop-color:#ffffff;stop-opacity:0" />
      <stop
         style="stop-color:#ffffff;stop-opacity:1;"
         offset="1"
         id="stop2611" />
    </linearGradient>
    <linearGradient
       inkscape:collect="always"
       id="highlight">
      <stop
         style="stop-color:#ffffff;stop-opacity:1;"
         offset="0"
         id="stop2921" />
      <stop
         style="stop-color:#ffffff;stop-opacity:0;"
         offset="1"
         id="stop2923" />
    </linearGradient>
    <radialGradient
       inkscape:collect="always"
       xlink:href="#highlightCorner"
       id="radialGradient15"
       gradientUnits="userSpaceOnUse"
       gradientTransform="matrix(0.04294597,-12.079348,17.933991,0.06376112,15.000429,-49.447747)"
       cx="-4.5799766"
       cy="-0.50206107"
       fx="-4.5799766"
       fy="-0.50206107"
       r="0.39687499" />
    <linearGradient
       inkscape:collect="always"
       xlink:href="#highlight"
       id="linearGradient15"
       gradientUnits="userSpaceOnUse"
       x1="-3.8453064"
       y1="-1.1532172"
       x2="-3.8453064"
       y2="-0.8954913"
       gradientTransform="matrix(6.0923077,0,0,6.0923077,32.704778,8.0798044)" />
    <radialGradient
       inkscape:collect="always"
       xlink:href="#linearGradient12"
       id="radialGradient17"
       gradientUnits="userSpaceOnUse"
       gradientTransform="matrix(-0.02247554,-12.045403,-17.967828,0.03352619,2.1402712,-49.297268)"
       cx="-4.575222"
       cy="-0.55256462"
       fx="-4.575222"
       fy="-0.55256462"
       r="0.39687499" />
    <radialGradient
       inkscape:collect="always"
       xlink:href="#linearGradient7"
       id="radialGradient18"
       gradientUnits="userSpaceOnUse"
       gradientTransform="matrix(0.06461187,12.09952,17.933731,-0.09576873,15.085752,65.674273)"
       cx="-4.4284906"
       cy="-0.50121039"
       fx="-4.4284906"
       fy="-0.50121039"
       r="0.39687499" />
    <linearGradient
       inkscape:collect="always"
       xlink:href="#bevel"
       id="linearGradient18"
       gradientUnits="userSpaceOnUse"
       x1="-3.8415797"
       y1="-1.4506671"
       x2="-3.8406549"
       y2="-1.1968651"
       gradientTransform="matrix(6.0923076,0,0,6.0923076,32.704777,-8.079805)" />
    <radialGradient
       inkscape:collect="always"
       xlink:href="#linearGradient4"
       id="radialGradient20"
       gradientUnits="userSpaceOnUse"
       gradientTransform="matrix(-0.01031383,11.991438,-17.967296,-0.01545561,2.2116219,65.231784)"
       cx="-4.4236727"
       cy="-0.55004197"
       fx="-4.4236727"
       fy="-0.55004197"
       r="0.39687499" />
    <radialGradient
       inkscape:collect="always"
       xlink:href="#cornerBevel"
       id="radialGradient25"
       gradientUnits="userSpaceOnUse"
       gradientTransform="matrix(12.184614,0,0,12.184614,60.10747,11.303655)"
       cx="-4.4568658"
       cy="-0.44864327"
       fx="-4.4568658"
       fy="-0.44864327"
       r="0.39687496" />
    <linearGradient
       inkscape:collect="always"
       xlink:href="#bevel"
       id="linearGradient25"
       gradientUnits="userSpaceOnUse"
       x1="-3.8487544"
       y1="-1.146081"
       x2="-3.8455966"
       y2="-0.890971"
       gradientTransform="matrix(6.0923077,0,0,6.0923077,32.704778,8.079805)" />
    <radialGradient
       inkscape:collect="always"
       xlink:href="#cornerBevel"
       id="radialGradient29"
       gradientUnits="userSpaceOnUse"
       gradientTransform="matrix(0,-12.184614,12.184614,0,11.74978,-43.501726)"
       cx="-4.5705457"
       cy="-0.48653662"
       fx="-4.5705457"
       fy="-0.48653662"
       r="0.39687496" />
    <radialGradient
       inkscape:collect="always"
       xlink:href="#cornerBevel"
       id="radialGradient30"
       gradientUnits="userSpaceOnUse"
       gradientTransform="matrix(-12.184514,-0.04945749,0.04847411,-11.942243,-43.025905,4.7779476)"
       cx="-4.5342312"
       cy="-0.60337442"
       fx="-4.5342312"
       fy="-0.60337442"
       r="0.39687496" />
    <radialGradient
       inkscape:collect="always"
       xlink:href="#linearGradient9"
       id="radialGradient31"
       gradientUnits="userSpaceOnUse"
       gradientTransform="matrix(0,-12.151612,11.978956,0,18.951914,-47.844734)"
       cx="-4.4175329"
       cy="-0.56489283"
       fx="-4.4175329"
       fy="-0.56489283"
       r="0.39687496" />
    <linearGradient
       inkscape:collect="always"
       xlink:href="#bevel"
       id="linearGradient34"
       gradientUnits="userSpaceOnUse"
       x1="-3.99717"
       y1="-1.2218677"
       x2="-4.0003276"
       y2="-0.96675771"
       gradientTransform="matrix(6.0923077,0,0,6.0923077,16.099035,8.525933)" />
    <linearGradient
       inkscape:collect="always"
       xlink:href="#bevel"
       id="linearGradient35"
       gradientUnits="userSpaceOnUse"
       x1="-4.0919032"
       y1="-1.4492278"
       x2="-4.0950613"
       y2="-1.1972755"
       gradientTransform="matrix(6.0923077,0,0,6.0923077,15.652911,-8.079805)" />
    <linearGradient
       inkscape:collect="always"
       xlink:href="#bevel"
       id="linearGradient36"
       gradientUnits="userSpaceOnUse"
       x1="-3.8734362"
       y1="-1.3717227"
       x2="-3.8765941"
       y2="-1.116071"
       gradientTransform="matrix(6.0923077,0,0,6.0923077,32.258652,-8.525933)" />
    <linearGradient
       id="paint2_linear_77:3-7"
       x1="79.398094"
       y1="-197.84389"
       x2="82.901054"
       y2="-199.97827"
       gradientUnits="userSpaceOnUse"
       gradientTransform="matrix(1.9248511,0,0,1.7314595,-40.88733,399.61741)">
      <stop
         stop-color="#EBFAFF"
         stop-opacity="0.1"
         id="stop29-5-7"
         offset="0"
         style="stop-color:#c3c3c3;stop-opacity:1;" />
      <stop
         offset="1"
         stop-color="#70A9FF"
         stop-opacity="0.5"
         id="stop30-0-1"
         style="stop-color:#05c7ff;stop-opacity:0.80000001;" />
    </linearGradient>
    <linearGradient
       inkscape:collect="always"
       xlink:href="#linearGradient899"
       id="linearGradient926"
       x1="0.98894888"
       y1="-9.3406019"
       x2="16.919081"
       y2="-9.2251434"
       gradientUnits="userSpaceOnUse" />
    <linearGradient
       id="a"
       x1="7.9369998"
       x2="7.9369998"
       y1="15.081"
       y2="1.852"
       gradientTransform="matrix(0.89278359,0,0,0.89278351,0.90778538,0.91466447)"
       gradientUnits="userSpaceOnUse">
      <stop
         offset="0"
         stop-color="#f1efeb"
         id="stop1-3" />
      <stop
         offset="1"
         stop-color="#fff"
         id="stop2-3" />
    </linearGradient>
    <linearGradient
       id="b-3"
       gradientTransform="matrix(0.9444453,0,0,0.94444519,-301.19123,-493.75403)"
       gradientUnits="userSpaceOnUse"
       x1="400.57141"
       x2="400.57141"
       y1="545.79797"
       y2="517.79797">
      <stop
         offset="0"
         stop-color="#eff0f1"
         id="stop7-6" />
      <stop
         offset="1"
         stop-color="#fcfcfc"
         id="stop9-7" />
    </linearGradient>
    <linearGradient
       id="d-9"
       gradientUnits="userSpaceOnUse"
       x1="13.571427"
       x2="13.142856"
       y1="21.285715"
       y2="3.2857144"
       gradientTransform="translate(-2.571427,-2.5714273)">
      <stop
         offset="0"
         stop-color="#788085"
         id="stop17-1" />
      <stop
         offset="1"
         stop-color="#9ba1a6"
         id="stop19-2" />
    </linearGradient>
    <linearGradient
       id="f-9-3"
       gradientUnits="userSpaceOnUse"
       x1="9.1779842"
       x2="11.427132"
       y1="7.534945"
       y2="9.7840929"
       gradientTransform="matrix(0.82283289,0,0,0.85921943,-0.93663235,-1.3146308)">
      <stop
         offset="0"
         id="stop2617-1-6" />
      <stop
         offset="1"
         stop-opacity="0"
         id="stop2619-2-0" />
    </linearGradient>
  </defs>
  <sodipodi:namedview
     id="base"
     pagecolor="#e2e2e2"
     bordercolor="#666666"
     borderopacity="1.0"
     inkscape:pageopacity="0"
     inkscape:pageshadow="2"
     inkscape:zoom="9.7248729"
     inkscape:cx="33.933605"
     inkscape:cy="35.321798"
     inkscape:document-units="px"
     inkscape:current-layer="layer1"
     inkscape:document-rotation="0"
     showgrid="false"
     units="px"
     inkscape:window-width="1920"
     inkscape:window-height="998"
     inkscape:window-x="0"
     inkscape:window-y="0"
     inkscape:window-maximized="1"
     inkscape:object-paths="true"
     inkscape:snap-grids="true"
     inkscape:snap-intersection-paths="true"
     inkscape:snap-smooth-nodes="true"
     inkscape:snap-midpoints="true"
     inkscape:showpageshadow="2"
     inkscape:pagecheckerboard="0"
     inkscape:deskcolor="#d1d1d1"
     showguides="false">
    <inkscape:grid
       id="grid2"
       units="px"
       originx="0"
       originy="0"
       spacingx="0.26458333"
       spacingy="0.26458333"
       empcolor="#0099e5"
       empopacity="0.30196078"
       color="#0099e5"
       opacity="0.14902"
       empspacing="5"
       dotted="false"
       gridanglex="30"
       gridanglez="30"
       visible="false" />
  </sodipodi:namedview>
  <metadata
     id="metadata1111">
    <rdf:RDF>
      <cc:Work
         rdf:about="">
        <dc:format>image/svg+xml</dc:format>
        <dc:type
           rdf:resource="http://purl.org/dc/dcmitype/StillImage" />
      </cc:Work>
    </rdf:RDF>
  </metadata>
  <g
     inkscape:label="Layer 1"
     inkscape:groupmode="layer"
     id="layer1">
    <rect
       ry="4.8357682"
       rx="4.8357682"
       style="fill:url(#linearGradient926);fill-opacity:1;stroke-width:6.09228"
       x="1.0583347"
       y="-16.933334"
       width="15.875001"
       height="15.875001"
       id="use1056"
       transform="rotate(90)"
       class="ColorScheme-Highlight" />
    <path
       d="m 5.8208334,1.058334 c -2.6384245,0 -4.7624996,2.1240748 -4.7624996,4.7624996 h 4.7624996 z"
       style="opacity:0.15;fill:url(#radialGradient25);fill-opacity:1;stroke-width:6.09228"
       id="path20" />
    <rect
       y="1.0583339"
       x="5.8208327"
       height="1.5875"
       width="6.3500004"
       id="rect20"
       style="opacity:0.15;fill:url(#linearGradient25);fill-opacity:1;stroke-width:4.83577;stroke-linecap:round;stroke-linejoin:round;paint-order:stroke fill markers" />
    <path
       d="m 1.0583338,12.170834 c 0,2.638424 2.1240751,4.762499 4.7624996,4.762499 v -4.762499 z"
       style="opacity:0.15;fill:url(#radialGradient29);fill-opacity:1;stroke-width:6.09228"
       id="use20" />
    <rect
       y="1.0583338"
       x="-12.170835"
       height="1.5875"
       width="6.3500004"
       id="use21"
       style="opacity:0.15;fill:url(#linearGradient34);fill-opacity:1;stroke-width:4.83577;stroke-linecap:round;stroke-linejoin:round;paint-order:stroke fill markers"
       transform="rotate(-90)" />
    <path
       d="m 12.170833,16.933333 c 2.638425,0 4.7625,-2.124074 4.7625,-4.762499 h -4.7625 z"
       style="opacity:0.15;fill:url(#radialGradient30);fill-opacity:1;stroke-width:6.09228"
       id="use22" />
    <rect
       y="-16.933334"
       x="-12.170835"
       height="1.5875"
       width="6.3500004"
       id="use23"
       style="opacity:0.15;fill:url(#linearGradient35);fill-opacity:1;stroke-width:4.83577;stroke-linecap:round;stroke-linejoin:round;paint-order:stroke fill markers"
       transform="scale(-1)" />
    <path
       d="m 16.933333,5.8208336 c 0,-2.6384245 -2.124074,-4.7624996 -4.7625,-4.7624996 v 4.7624996 z"
       style="opacity:0.15;fill:url(#radialGradient31);fill-opacity:1;stroke-width:6.09228"
       id="use24" />
    <rect
       y="-16.933331"
       x="5.8208332"
       height="1.5875"
       width="6.3500004"
       id="use25"
       style="opacity:0.15;fill:url(#linearGradient36);fill-opacity:1;stroke-width:4.83577;stroke-linecap:round;stroke-linejoin:round;paint-order:stroke fill markers"
       transform="rotate(90)" />
    <path
       d="m 5.8208336,1.0583334 c -2.638425,0 -4.7625004,2.1240747 -4.7625004,4.7624997 h 4.7625004 z"
       style="opacity:0.5;fill:url(#radialGradient15);fill-opacity:1;stroke-width:6.09228"
       id="path14" />
    <rect
       y="1.0583333"
       x="5.8208327"
       height="1.5875"
       width="6.3499999"
       id="rect14"
       style="opacity:0.5;fill:url(#linearGradient15);fill-opacity:1;stroke-width:4.83577;stroke-linecap:round;stroke-linejoin:round;paint-order:stroke fill markers" />
    <path
       d="m 12.170833,1.0583333 c 2.638425,0 4.7625,2.124075 4.7625,4.7624973 h -4.7625 z"
       style="opacity:0.5;fill:url(#radialGradient17);fill-opacity:1;stroke-width:6.09228"
       id="use14" />
    <path
       id="path17"
       style="opacity:0.5;fill:url(#radialGradient18);fill-opacity:1;stroke-width:6.09228"
       d="m 5.8208338,16.933332 c -2.638425,0 -4.7625,-2.124075 -4.7625,-4.7625 h 4.7625 z" />
    <rect
       style="opacity:0.5;fill:url(#linearGradient18);fill-opacity:1;stroke-width:4.83577;stroke-linecap:round;stroke-linejoin:round;paint-order:stroke fill markers"
       id="rect17"
       width="6.3499994"
       height="1.5874999"
       x="5.8208327"
       y="-16.933334"
       transform="scale(1,-1)" />
    <path
       id="use17"
       style="opacity:0.5;fill:url(#radialGradient20);fill-opacity:1;stroke-width:6.09228"
       d="m 12.170832,16.933333 c 2.638425,0 4.7625,-2.124075 4.7625,-4.7625 h -4.7625 z" />
    <rect
       width="13.229166"
       height="13.229165"
       x="2.3812497"
       y="2.3812501"
       rx="3.6849496"
       ry="3.7431052"
       id="rect2"
       style="fill:#273e66;stroke-width:0.264582;fill-opacity:1" />
    <path
       d="M 8.5456599,13.477384 C 8.1278695,13.435907 7.7167122,13.343832 7.444817,13.229354 a 2.4868421,2.4885702 0 0 1 -0.123514,-0.0531 6.6315802,6.6361891 0 0 1 -0.048909,-0.26213 l -0.083722,-0.467017 c -0.1309733,-0.70758 -0.2718955,-1.551203 -0.2619466,-1.561154 0.00488,-0.0055 0.8107092,0.534213 1.7424471,1.166307 0.8529859,0.579008 1.0187769,0.691824 1.4075504,0.952296 0.389604,0.262129 0.366398,0.243876 0.347333,0.254664 a 3.31579,3.3180946 0 0 1 -0.401209,0.130233 4.9736845,4.9771413 0 0 1 -0.5935294,0.0938 7.4605278,7.4657131 0 0 1 -0.883658,-0.0055 M 10.594816,13.029477 A 17.4079,17.41999 0 0 1 9.7302245,12.433877 15.750008,15.760952 0 0 0 9.1773174,12.051469 1.6578956,1.6590479 0 0 1 8.9137116,11.868976 c -0.056374,-0.04809 -0.081238,-0.0862 -0.056374,-0.0862 0.014916,0 0.7626349,-0.139362 1.3097414,-0.243876 0.634142,-0.121107 1.799643,-0.350063 2.587142,-0.506842 0.144249,-0.02904 0.265266,-0.04984 0.270239,-0.04477 0.0079,0.0079 -0.05644,0.135217 -0.164134,0.316055 a 4.3934213,4.3964748 0 0 1 -1.079284,1.23018 6.6315802,6.6361891 0 0 1 -0.563689,0.379092 4.9736845,4.9771413 0 0 1 -0.444316,0.222315 c -0.0079,0 -0.08868,-0.0473 -0.178221,-0.104537 z M 6.8305666,12.934032 A 3.8131583,3.8158085 0 0 1 5.8250543,12.194101 4.6421062,4.6453325 0 0 1 5.1104999,11.274993 5.8026328,5.8066652 0 0 1 4.8742514,10.835344 c 0,-0.0125 0.3539591,-0.543339 0.6532097,-0.9796721 0.2478555,-0.362502 0.4957115,-0.733294 0.626685,-0.939849 0.015743,-0.02325 0.030667,-0.03987 0.033986,-0.03655 0.016581,0.01663 0.2287908,1.045203 0.407013,1.9734371 0.1575007,0.819568 0.1890007,0.982986 0.2503419,1.289913 0.070459,0.355861 0.1608156,0.797168 0.1740792,0.8486 q 0.00743,0.03068 -0.00488,0.03068 c -0.00664,0 -0.089521,-0.03987 -0.1840265,-0.08797 m 4.0162283,-1.820784 c -0.0039,-0.01152 0.0079,-0.03566 0.03478,-0.06548 0.02247,-0.02658 0.154177,-0.217332 0.291784,-0.425545 0.222153,-0.335127 0.380486,-0.564073 0.721186,-1.0476911 a 57.197373,57.237126 0 0 0 1.26166,-1.839053 1.6578956,1.6590479 0 0 1 0.09787,-0.143508 c 0.01406,-0.0018 0.09201,0.224801 0.134289,0.38822 0.08126,0.315218 0.10608,0.551634 0.105276,0.980501 q -0.0031,0.925745 -0.276863,1.6416221 l -0.0332,0.0862 -0.05802,0.01152 -0.23377,0.04555 -1.008004,0.192452 a 72.118432,72.168555 0 0 1 -0.998872,0.186642 q -0.03238,0.0079 -0.03809,-0.01152 M 4.7026649,10.332637 C 4.5592581,9.9684769 4.4987442,9.5819149 4.4979158,9.0278009 c 0,-0.447944 0.028186,-0.71588 0.1185384,-1.120693 0.035648,-0.162585 0.1392634,-0.488589 0.1616459,-0.510981 0.00822,-0.0079 0.1094228,-0.03068 0.2263033,-0.05063 0.2113812,-0.03655 0.6076187,-0.109484 1.0527626,-0.194108 0.7443946,-0.141017 1.0726573,-0.196595 1.098356,-0.18664 0.00822,0.0031 0.016581,0.01582 0.016581,0.02735 0,0.02405 0.00332,0.0174 -0.2097247,0.317713 l -0.2586332,0.36584 -0.3614204,0.512644 a 92.013173,92.077123 0 0 0 -1.386831,1.9975001 4.9736845,4.9771413 0 0 1 -0.1931455,0.27872 0.82894747,0.8295236 0 0 1 -0.059684,-0.132719 z M 11.761146,9.1431039 a 7.4605278,7.4657131 0 0 0 -0.04141,-0.244709 l -0.07873,-0.44545 -0.298424,-1.768551 c -0.04806,-0.294469 -0.204752,-1.183719 -0.259464,-1.469902 a 1.1605262,1.1613333 0 0 1 -0.02989,-0.216508 c 0.01328,-0.01329 0.245373,0.116961 0.45344,0.255494 a 4.3934213,4.3964748 0 0 1 1.269121,1.289902 c 0.132631,0.207383 0.305052,0.526756 0.364731,0.676895 l 0.0215,0.05649 -0.06963,0.109483 c -0.0754,0.119457 -0.180713,0.267111 -0.489082,0.690997 -0.110244,0.152631 -0.269406,0.378259 -0.353125,0.501864 -0.211389,0.310237 -0.448462,0.623793 -0.474167,0.623793 -0.0039,0 -0.01044,-0.02658 -0.01484,-0.05972 M 11.044925,7.1705049 A 9.1184225,9.1247596 0 0 0 10.605598,6.8635819 129.31579,129.40572 0 0 1 7.7830286,4.9158599 2.4868421,2.4885702 0 0 1 7.543463,4.7167759 c 0,-0.0079 0.2395656,-0.08287 0.359763,-0.111172 0.1201983,-0.02815 0.3862902,-0.07468 0.5404748,-0.09284 0.077919,-0.0094 0.2619481,-0.01485 0.5404738,-0.01485 0.3705403,0 0.4443165,0.0039 0.6026439,0.02482 0.281841,0.03902 0.4807845,0.07798 0.6755865,0.134381 0.174079,0.04984 0.455923,0.156786 0.455923,0.172548 l 0.04552,0.265449 c 0.0248,0.141012 0.08282,0.491075 0.130148,0.776428 0.08282,0.51265 0.134288,0.812934 0.192319,1.134793 0.02735,0.153459 0.029,0.201575 0.0063,0.201575 a 0.16578956,0.16590479 0 0 1 -0.04804,-0.03734 M 4.9422156,7.0435919 a 4.3436855,4.3467039 0 0 1 1.7391322,-1.914541 c 0.188171,-0.112807 0.4907367,-0.265444 0.5263825,-0.265444 0.026526,0 0.090358,0.04397 0.9201308,0.627113 0.4915658,0.344259 0.6349744,0.442967 0.7999348,0.548317 0.142578,0.09127 0.2818415,0.200741 0.2818415,0.222317 0,0.0048 -0.014082,0.0125 -0.030666,0.01582 a 228.78944,228.94847 0 0 1 -2.5763692,0.484446 l -1.6520927,0.306928 c -0.017411,0.0048 -0.018249,0.0018 -0.00822,-0.02482"
       style="fill:#ff9955;fill-opacity:1;stroke-width:0.0112644"
       id="path1" />
  </g>
</svg>
