<?xml version="1.0" encoding="UTF-8" standalone="no"?>
<svg
   width="68"
   height="68"
   viewBox="0 0 17.991665 17.991665"
   version="1.1"
   id="svg1114"
   inkscape:version="1.4.1 (unknown)"
   sodipodi:docname="portal2.svg"
   xmlns:inkscape="http://www.inkscape.org/namespaces/inkscape"
   xmlns:sodipodi="http://sodipodi.sourceforge.net/DTD/sodipodi-0.dtd"
   xmlns:xlink="http://www.w3.org/1999/xlink"
   xmlns="http://www.w3.org/2000/svg"
   xmlns:svg="http://www.w3.org/2000/svg"
   xmlns:rdf="http://www.w3.org/1999/02/22-rdf-syntax-ns#"
   xmlns:cc="http://creativecommons.org/ns#"
   xmlns:dc="http://purl.org/dc/elements/1.1/">
  <style
     type="text/css"
     id="current-color-scheme">.ColorScheme-Highlight { color:#5599ff; }
</style>
  <defs
     id="defs1108">
    <linearGradient
       id="linearGradient12"
       inkscape:collect="always">
      <stop
         style="stop-color:#ffffff;stop-opacity:0;"
         offset="0"
         id="stop10" />
      <stop
         id="stop11"
         offset="0.65909404"
         style="stop-color:#ffffff;stop-opacity:0" />
      <stop
         style="stop-color:#ffffff;stop-opacity:1;"
         offset="1"
         id="stop12" />
    </linearGradient>
    <linearGradient
       id="linearGradient9"
       inkscape:collect="always">
      <stop
         style="stop-color:#000000;stop-opacity:0;"
         offset="0"
         id="stop1" />
      <stop
         id="stop8"
         offset="0.66102529"
         style="stop-color:#000000;stop-opacity:0" />
      <stop
         style="stop-color:#000000;stop-opacity:1;"
         offset="1"
         id="stop9" />
    </linearGradient>
    <linearGradient
       id="linearGradient7"
       inkscape:collect="always">
      <stop
         style="stop-color:#000000;stop-opacity:0;"
         offset="0"
         id="stop5" />
      <stop
         id="stop6"
         offset="0.6586886"
         style="stop-color:#000000;stop-opacity:0" />
      <stop
         style="stop-color:#000000;stop-opacity:1;"
         offset="1"
         id="stop7" />
    </linearGradient>
    <linearGradient
       id="linearGradient4"
       inkscape:collect="always">
      <stop
         style="stop-color:#000000;stop-opacity:0;"
         offset="0"
         id="stop2" />
      <stop
         id="stop3"
         offset="0.67055255"
         style="stop-color:#000000;stop-opacity:0" />
      <stop
         style="stop-color:#000000;stop-opacity:1;"
         offset="1"
         id="stop4" />
    </linearGradient>
    <linearGradient
       inkscape:collect="always"
       id="linearGradient899">
      <stop
         style="stop-color:#b380ff;stop-opacity:1;"
         offset="0"
         id="stop895" />
      <stop
         style="stop-color:#67a3ff;stop-opacity:1;"
         offset="1"
         id="stop897" />
    </linearGradient>
    <linearGradient
       id="linearGradient1167"
       x1="40.751999"
       x2="40.751999"
       y1="28.507999"
       y2="17.205999"
       gradientUnits="userSpaceOnUse">
      <stop
         style="stop-color:#84fb6e;stop-opacity:1"
         stop-color="#0ab816"
         offset="0"
         id="stop1163" />
      <stop
         style="stop-color:#0dd41a;stop-opacity:1"
         stop-color="#0cf36c"
         offset="1"
         id="stop1165" />
    </linearGradient>
    <linearGradient
       id="cornerBevel"
       inkscape:collect="always">
      <stop
         style="stop-color:#000000;stop-opacity:0;"
         offset="0"
         id="stop2663" />
      <stop
         id="stop2671"
         offset="0.66666675"
         style="stop-color:#000000;stop-opacity:0" />
      <stop
         style="stop-color:#000000;stop-opacity:1;"
         offset="1"
         id="stop2661" />
    </linearGradient>
    <linearGradient
       id="bevel"
       inkscape:collect="always">
      <stop
         id="stop2685"
         offset="0"
         style="stop-color:#000000;stop-opacity:1;" />
      <stop
         id="stop2687"
         offset="1"
         style="stop-color:#000000;stop-opacity:0;" />
    </linearGradient>
    <linearGradient
       id="highlightCorner"
       inkscape:collect="always">
      <stop
         style="stop-color:#ffffff;stop-opacity:0;"
         offset="0"
         id="stop2613" />
      <stop
         id="stop2621"
         offset="0.66666669"
         style="stop-color:#ffffff;stop-opacity:0" />
      <stop
         style="stop-color:#ffffff;stop-opacity:1;"
         offset="1"
         id="stop2611" />
    </linearGradient>
    <linearGradient
       inkscape:collect="always"
       id="highlight">
      <stop
         style="stop-color:#ffffff;stop-opacity:1;"
         offset="0"
         id="stop2921" />
      <stop
         style="stop-color:#ffffff;stop-opacity:0;"
         offset="1"
         id="stop2923" />
    </linearGradient>
    <radialGradient
       inkscape:collect="always"
       xlink:href="#highlightCorner"
       id="radialGradient15"
       gradientUnits="userSpaceOnUse"
       gradientTransform="matrix(0.04294597,-12.079348,17.933991,0.06376112,15.000429,-49.447747)"
       cx="-4.5799766"
       cy="-0.50206107"
       fx="-4.5799766"
       fy="-0.50206107"
       r="0.39687499" />
    <linearGradient
       inkscape:collect="always"
       xlink:href="#highlight"
       id="linearGradient15"
       gradientUnits="userSpaceOnUse"
       x1="-3.8453064"
       y1="-1.1532172"
       x2="-3.8453064"
       y2="-0.8954913"
       gradientTransform="matrix(6.0923077,0,0,6.0923077,32.704778,8.0798044)" />
    <radialGradient
       inkscape:collect="always"
       xlink:href="#linearGradient12"
       id="radialGradient17"
       gradientUnits="userSpaceOnUse"
       gradientTransform="matrix(-0.02247554,-12.045403,-17.967828,0.03352619,2.1402712,-49.297268)"
       cx="-4.575222"
       cy="-0.55256462"
       fx="-4.575222"
       fy="-0.55256462"
       r="0.39687499" />
    <radialGradient
       inkscape:collect="always"
       xlink:href="#linearGradient7"
       id="radialGradient18"
       gradientUnits="userSpaceOnUse"
       gradientTransform="matrix(0.06461187,12.09952,17.933731,-0.09576873,15.085752,65.674273)"
       cx="-4.4284906"
       cy="-0.50121039"
       fx="-4.4284906"
       fy="-0.50121039"
       r="0.39687499" />
    <linearGradient
       inkscape:collect="always"
       xlink:href="#bevel"
       id="linearGradient18"
       gradientUnits="userSpaceOnUse"
       x1="-3.8415797"
       y1="-1.4506671"
       x2="-3.8406549"
       y2="-1.1968651"
       gradientTransform="matrix(6.0923076,0,0,6.0923076,32.704777,-8.079805)" />
    <radialGradient
       inkscape:collect="always"
       xlink:href="#linearGradient4"
       id="radialGradient20"
       gradientUnits="userSpaceOnUse"
       gradientTransform="matrix(-0.01031383,11.991438,-17.967296,-0.01545561,2.2116219,65.231784)"
       cx="-4.4236727"
       cy="-0.55004197"
       fx="-4.4236727"
       fy="-0.55004197"
       r="0.39687499" />
    <radialGradient
       inkscape:collect="always"
       xlink:href="#cornerBevel"
       id="radialGradient25"
       gradientUnits="userSpaceOnUse"
       gradientTransform="matrix(12.184614,0,0,12.184614,60.10747,11.303655)"
       cx="-4.4568658"
       cy="-0.44864327"
       fx="-4.4568658"
       fy="-0.44864327"
       r="0.39687496" />
    <linearGradient
       inkscape:collect="always"
       xlink:href="#bevel"
       id="linearGradient25"
       gradientUnits="userSpaceOnUse"
       x1="-3.8487544"
       y1="-1.146081"
       x2="-3.8455966"
       y2="-0.890971"
       gradientTransform="matrix(6.0923077,0,0,6.0923077,32.704778,8.079805)" />
    <radialGradient
       inkscape:collect="always"
       xlink:href="#cornerBevel"
       id="radialGradient29"
       gradientUnits="userSpaceOnUse"
       gradientTransform="matrix(0,-12.184614,12.184614,0,11.74978,-43.501726)"
       cx="-4.5705457"
       cy="-0.48653662"
       fx="-4.5705457"
       fy="-0.48653662"
       r="0.39687496" />
    <radialGradient
       inkscape:collect="always"
       xlink:href="#cornerBevel"
       id="radialGradient30"
       gradientUnits="userSpaceOnUse"
       gradientTransform="matrix(-12.184514,-0.04945749,0.04847411,-11.942243,-43.025905,4.7779476)"
       cx="-4.5342312"
       cy="-0.60337442"
       fx="-4.5342312"
       fy="-0.60337442"
       r="0.39687496" />
    <radialGradient
       inkscape:collect="always"
       xlink:href="#linearGradient9"
       id="radialGradient31"
       gradientUnits="userSpaceOnUse"
       gradientTransform="matrix(0,-12.151612,11.978956,0,18.951914,-47.844734)"
       cx="-4.4175329"
       cy="-0.56489283"
       fx="-4.4175329"
       fy="-0.56489283"
       r="0.39687496" />
    <linearGradient
       inkscape:collect="always"
       xlink:href="#bevel"
       id="linearGradient34"
       gradientUnits="userSpaceOnUse"
       x1="-3.99717"
       y1="-1.2218677"
       x2="-4.0003276"
       y2="-0.96675771"
       gradientTransform="matrix(6.0923077,0,0,6.0923077,16.099035,8.525933)" />
    <linearGradient
       inkscape:collect="always"
       xlink:href="#bevel"
       id="linearGradient35"
       gradientUnits="userSpaceOnUse"
       x1="-4.0919032"
       y1="-1.4492278"
       x2="-4.0950613"
       y2="-1.1972755"
       gradientTransform="matrix(6.0923077,0,0,6.0923077,15.652911,-8.079805)" />
    <linearGradient
       inkscape:collect="always"
       xlink:href="#bevel"
       id="linearGradient36"
       gradientUnits="userSpaceOnUse"
       x1="-3.8734362"
       y1="-1.3717227"
       x2="-3.8765941"
       y2="-1.116071"
       gradientTransform="matrix(6.0923077,0,0,6.0923077,32.258652,-8.525933)" />
    <linearGradient
       id="paint2_linear_77:3-7"
       x1="79.398094"
       y1="-197.84389"
       x2="82.901054"
       y2="-199.97827"
       gradientUnits="userSpaceOnUse"
       gradientTransform="matrix(1.9248511,0,0,1.7314595,-40.88733,399.61741)">
      <stop
         stop-color="#EBFAFF"
         stop-opacity="0.1"
         id="stop29-5-7"
         offset="0"
         style="stop-color:#c3c3c3;stop-opacity:1;" />
      <stop
         offset="1"
         stop-color="#70A9FF"
         stop-opacity="0.5"
         id="stop30-0-1"
         style="stop-color:#05c7ff;stop-opacity:0.80000001;" />
    </linearGradient>
    <linearGradient
       inkscape:collect="always"
       xlink:href="#linearGradient899"
       id="linearGradient926"
       x1="0.98894888"
       y1="-9.3406019"
       x2="16.919081"
       y2="-9.2251434"
       gradientUnits="userSpaceOnUse" />
    <linearGradient
       id="a"
       x1="7.9369998"
       x2="7.9369998"
       y1="15.081"
       y2="1.852"
       gradientTransform="matrix(0.89278359,0,0,0.89278351,0.90778538,0.91466447)"
       gradientUnits="userSpaceOnUse">
      <stop
         offset="0"
         stop-color="#f1efeb"
         id="stop1-3" />
      <stop
         offset="1"
         stop-color="#fff"
         id="stop2-3" />
    </linearGradient>
    <linearGradient
       id="b-3"
       gradientTransform="matrix(0.9444453,0,0,0.94444519,-301.19123,-493.75403)"
       gradientUnits="userSpaceOnUse"
       x1="400.57141"
       x2="400.57141"
       y1="545.79797"
       y2="517.79797">
      <stop
         offset="0"
         stop-color="#eff0f1"
         id="stop7-6" />
      <stop
         offset="1"
         stop-color="#fcfcfc"
         id="stop9-7" />
    </linearGradient>
    <linearGradient
       id="d-9"
       gradientUnits="userSpaceOnUse"
       x1="13.571427"
       x2="13.142856"
       y1="21.285715"
       y2="3.2857144"
       gradientTransform="translate(-2.571427,-2.5714273)">
      <stop
         offset="0"
         stop-color="#788085"
         id="stop17-1" />
      <stop
         offset="1"
         stop-color="#9ba1a6"
         id="stop19-2" />
    </linearGradient>
    <linearGradient
       id="f-9-3"
       gradientUnits="userSpaceOnUse"
       x1="9.1779842"
       x2="11.427132"
       y1="7.534945"
       y2="9.7840929"
       gradientTransform="matrix(0.82283289,0,0,0.85921943,-0.93663235,-1.3146308)">
      <stop
         offset="0"
         id="stop2617-1-6" />
      <stop
         offset="1"
         stop-opacity="0"
         id="stop2619-2-0" />
    </linearGradient>
  </defs>
  <sodipodi:namedview
     id="base"
     pagecolor="#e2e2e2"
     bordercolor="#666666"
     borderopacity="1.0"
     inkscape:pageopacity="0"
     inkscape:pageshadow="2"
     inkscape:zoom="9.7248729"
     inkscape:cx="33.98502"
     inkscape:cy="43.548127"
     inkscape:document-units="px"
     inkscape:current-layer="layer1"
     inkscape:document-rotation="0"
     showgrid="false"
     units="px"
     inkscape:window-width="1920"
     inkscape:window-height="998"
     inkscape:window-x="0"
     inkscape:window-y="0"
     inkscape:window-maximized="1"
     inkscape:object-paths="true"
     inkscape:snap-grids="true"
     inkscape:snap-intersection-paths="true"
     inkscape:snap-smooth-nodes="true"
     inkscape:snap-midpoints="true"
     inkscape:showpageshadow="2"
     inkscape:pagecheckerboard="0"
     inkscape:deskcolor="#d1d1d1"
     showguides="false">
    <inkscape:grid
       id="grid2"
       units="px"
       originx="0"
       originy="0"
       spacingx="0.26458333"
       spacingy="0.26458333"
       empcolor="#0099e5"
       empopacity="0.30196078"
       color="#0099e5"
       opacity="0.14902"
       empspacing="5"
       dotted="false"
       gridanglex="30"
       gridanglez="30"
       visible="false" />
  </sodipodi:namedview>
  <metadata
     id="metadata1111">
    <rdf:RDF>
      <cc:Work
         rdf:about="">
        <dc:format>image/svg+xml</dc:format>
        <dc:type
           rdf:resource="http://purl.org/dc/dcmitype/StillImage" />
      </cc:Work>
    </rdf:RDF>
  </metadata>
  <g
     inkscape:label="Layer 1"
     inkscape:groupmode="layer"
     id="layer1">
    <rect
       ry="4.8357682"
       rx="4.8357682"
       style="fill:url(#linearGradient926);fill-opacity:1;stroke-width:6.09228"
       x="1.0583347"
       y="-16.933334"
       width="15.875001"
       height="15.875001"
       id="use1056"
       transform="rotate(90)"
       class="ColorScheme-Highlight" />
    <path
       d="m 5.8208334,1.058334 c -2.6384245,0 -4.7624996,2.1240748 -4.7624996,4.7624996 h 4.7624996 z"
       style="opacity:0.15;fill:url(#radialGradient25);fill-opacity:1;stroke-width:6.09228"
       id="path20" />
    <rect
       y="1.0583339"
       x="5.8208327"
       height="1.5875"
       width="6.3500004"
       id="rect20"
       style="opacity:0.15;fill:url(#linearGradient25);fill-opacity:1;stroke-width:4.83577;stroke-linecap:round;stroke-linejoin:round;paint-order:stroke fill markers" />
    <path
       d="m 1.0583338,12.170834 c 0,2.638424 2.1240751,4.762499 4.7624996,4.762499 v -4.762499 z"
       style="opacity:0.15;fill:url(#radialGradient29);fill-opacity:1;stroke-width:6.09228"
       id="use20" />
    <rect
       y="1.0583338"
       x="-12.170835"
       height="1.5875"
       width="6.3500004"
       id="use21"
       style="opacity:0.15;fill:url(#linearGradient34);fill-opacity:1;stroke-width:4.83577;stroke-linecap:round;stroke-linejoin:round;paint-order:stroke fill markers"
       transform="rotate(-90)" />
    <path
       d="m 12.170833,16.933333 c 2.638425,0 4.7625,-2.124074 4.7625,-4.762499 h -4.7625 z"
       style="opacity:0.15;fill:url(#radialGradient30);fill-opacity:1;stroke-width:6.09228"
       id="use22" />
    <rect
       y="-16.933334"
       x="-12.170835"
       height="1.5875"
       width="6.3500004"
       id="use23"
       style="opacity:0.15;fill:url(#linearGradient35);fill-opacity:1;stroke-width:4.83577;stroke-linecap:round;stroke-linejoin:round;paint-order:stroke fill markers"
       transform="scale(-1)" />
    <path
       d="m 16.933333,5.8208336 c 0,-2.6384245 -2.124074,-4.7624996 -4.7625,-4.7624996 v 4.7624996 z"
       style="opacity:0.15;fill:url(#radialGradient31);fill-opacity:1;stroke-width:6.09228"
       id="use24" />
    <rect
       y="-16.933331"
       x="5.8208332"
       height="1.5875"
       width="6.3500004"
       id="use25"
       style="opacity:0.15;fill:url(#linearGradient36);fill-opacity:1;stroke-width:4.83577;stroke-linecap:round;stroke-linejoin:round;paint-order:stroke fill markers"
       transform="rotate(90)" />
    <path
       d="m 5.8208336,1.0583334 c -2.638425,0 -4.7625004,2.1240747 -4.7625004,4.7624997 h 4.7625004 z"
       style="opacity:0.5;fill:url(#radialGradient15);fill-opacity:1;stroke-width:6.09228"
       id="path14" />
    <rect
       y="1.0583333"
       x="5.8208327"
       height="1.5875"
       width="6.3499999"
       id="rect14"
       style="opacity:0.5;fill:url(#linearGradient15);fill-opacity:1;stroke-width:4.83577;stroke-linecap:round;stroke-linejoin:round;paint-order:stroke fill markers" />
    <path
       d="m 12.170833,1.0583333 c 2.638425,0 4.7625,2.124075 4.7625,4.7624973 h -4.7625 z"
       style="opacity:0.5;fill:url(#radialGradient17);fill-opacity:1;stroke-width:6.09228"
       id="use14" />
    <path
       id="path17"
       style="opacity:0.5;fill:url(#radialGradient18);fill-opacity:1;stroke-width:6.09228"
       d="m 5.8208338,16.933332 c -2.638425,0 -4.7625,-2.124075 -4.7625,-4.7625 h 4.7625 z" />
    <rect
       style="opacity:0.5;fill:url(#linearGradient18);fill-opacity:1;stroke-width:4.83577;stroke-linecap:round;stroke-linejoin:round;paint-order:stroke fill markers"
       id="rect17"
       width="6.3499994"
       height="1.5874999"
       x="5.8208327"
       y="-16.933334"
       transform="scale(1,-1)" />
    <path
       id="use17"
       style="opacity:0.5;fill:url(#radialGradient20);fill-opacity:1;stroke-width:6.09228"
       d="m 12.170832,16.933333 c 2.638425,0 4.7625,-2.124075 4.7625,-4.7625 h -4.7625 z" />
    <rect
       width="13.229166"
       height="13.229165"
       x="2.3812497"
       y="2.3812501"
       rx="3.6849496"
       ry="3.7431052"
       id="rect2"
       style="fill:#273e66;stroke-width:0.264582;fill-opacity:1" />
    <g
       id="g1"
       transform="matrix(0.22489581,0,0,0.22489581,2.0240624,2.0240623)">
      <path
         d="m 28.998469,50.928126 c -1.85772,-0.184427 -3.685949,-0.593854 -4.894942,-1.102871 a 11.057841,11.065526 0 0 1 -0.549208,-0.236065 29.48758,29.508074 0 0 1 -0.21747,-1.165566 l -0.372277,-2.076629 c -0.58238,-3.146302 -1.208994,-6.897516 -1.164759,-6.941775 0.02209,-0.02587 3.604853,2.375398 7.747862,5.186038 3.792839,2.57458 4.530029,3.076212 6.258737,4.234412 1.732396,1.165565 1.629187,1.084425 1.54441,1.132373 a 14.743791,14.754038 0 0 1 -1.783999,0.579092 22.115682,22.131052 0 0 1 -2.639134,0.416801 33.173529,33.196584 0 0 1 -3.92922,-0.02584 m 9.111662,-1.991803 a 77.404895,77.458691 0 0 1 -3.844447,-2.648346 70.033002,70.081674 0 0 0 -2.458526,-1.700408 7.3718951,7.3770185 0 0 1 -1.172132,-0.811468 c -0.250646,-0.213928 -0.36122,-0.383609 -0.250646,-0.383609 0.06631,0 3.391076,-0.619665 5.823802,-1.084416 2.819744,-0.538523 8.002188,-1.556553 11.503838,-2.253679 0.641359,-0.129098 1.179503,-0.221309 1.201619,-0.199182 0.03688,0.03691 -0.250643,0.601229 -0.729814,1.40532 a 19.53552,19.549097 0 0 1 -4.799105,5.470061 29.48758,29.508074 0 0 1 -2.506448,1.685648 22.115682,22.131052 0 0 1 -1.975666,0.988519 c -0.03687,0 -0.394392,-0.210239 -0.792475,-0.464751 z M 21.372239,48.512105 a 16.955356,16.96714 0 0 1 -4.471051,-3.290146 20.641306,20.655652 0 0 1 -3.177289,-4.086868 25.801632,25.819564 0 0 1 -1.050491,-1.954914 c 0,-0.05532 1.573896,-2.415975 2.904522,-4.356126 1.102099,-1.611877 2.204199,-3.260644 2.786579,-4.179083 0.07003,-0.103275 0.136382,-0.17705 0.151123,-0.162295 0.07371,0.07381 1.017323,4.647524 1.809799,8.774963 0.70033,3.644249 0.840399,4.370891 1.113155,5.735638 0.313311,1.582367 0.715073,3.544653 0.77405,3.773338 q 0.0332,0.136479 -0.02209,0.136479 c -0.02952,0 -0.398083,-0.177046 -0.818282,-0.390986 M 39.23068,40.415831 c -0.0184,-0.05162 0.03687,-0.15861 0.15481,-0.291389 0.09952,-0.118042 0.685589,-0.966393 1.297453,-1.892216 0.987836,-1.490156 1.691854,-2.508176 3.206779,-4.658579 a 254.33035,254.50711 0 0 0 5.610009,-8.177426 7.3718951,7.3770185 0 0 1 0.434942,-0.638115 c 0.06264,-0.008 0.409138,0.999584 0.597126,1.72622 0.361219,1.401641 0.471801,2.452863 0.468114,4.359827 q -0.01472,4.116369 -1.231107,7.299558 l -0.147437,0.3836 -0.258019,0.05162 -1.039439,0.202867 -4.482109,0.85573 a 320.67743,320.9003 0 0 1 -4.441562,0.829924 q -0.143751,0.03691 -0.169555,-0.05162 M 11.910424,36.944944 c -0.637664,-1.619259 -0.906739,-3.338105 -0.910426,-5.802023 0,-1.991802 0.12532,-3.18319 0.527088,-4.983175 0.158499,-0.722951 0.619241,-2.172539 0.718761,-2.272125 0.03688,-0.03691 0.486546,-0.136479 1.006266,-0.225 0.939915,-0.16229 2.701801,-0.486881 4.681153,-0.863115 3.30998,-0.627042 4.769613,-0.874172 4.883881,-0.829911 0.03687,0.01473 0.07371,0.07006 0.07371,0.121722 0,0.10696 0.01472,0.07749 -0.932545,1.412704 l -1.150017,1.626624 -1.607069,2.279506 a 409.14017,409.42452 0 0 0 -6.1666,8.881925 22.115682,22.131052 0 0 1 -0.858828,1.239335 3.6859473,3.688509 0 0 1 -0.26539,-0.590158 z M 43.296255,31.655619 A 33.173529,33.196584 0 0 0 43.111956,30.567513 L 42.761792,28.586782 41.434853,20.72288 C 41.22107,19.413457 40.524426,15.459377 40.281151,14.186841 a 5.1603263,5.1639127 0 0 1 -0.132695,-0.962698 c 0.05895,-0.05899 1.091044,0.520075 2.016215,1.136056 a 19.53552,19.549097 0 0 1 5.643182,5.735632 c 0.589754,0.922128 1.356431,2.342202 1.62182,3.009824 l 0.09583,0.250821 -0.309617,0.486887 c -0.335422,0.531143 -0.803538,1.187695 -2.174712,3.072521 -0.490229,0.678694 -1.197933,1.681962 -1.57021,2.231543 -0.939918,1.37951 -1.9941,2.773769 -2.108365,2.773769 -0.0184,0 -0.04792,-0.118034 -0.06631,-0.265577 M 40.111607,22.884347 A 40.545421,40.5736 0 0 0 38.158055,21.519596 575.00778,575.40741 0 0 1 25.607401,12.858978 11.057841,11.065526 0 0 1 24.542163,11.973737 c 0,-0.0369 1.065238,-0.36885 1.599701,-0.494264 0.534463,-0.125405 1.717653,-0.331965 2.403239,-0.413112 0.346483,-0.04427 1.164765,-0.06636 2.403239,-0.06636 1.647623,0 1.975671,0.01841 2.679689,0.110653 1.253217,0.173364 2.137845,0.346725 3.004043,0.597544 0.774051,0.221307 2.027275,0.697128 2.027275,0.767205 l 0.202722,1.180327 c 0.110582,0.627044 0.368596,2.183597 0.578699,3.452445 0.368596,2.279497 0.597122,3.614738 0.855136,5.045876 0.121637,0.682379 0.129011,0.896309 0.02953,0.896309 A 0.73718951,0.73770185 0 0 1 40.11161,22.884358 M 12.975655,22.320004 a 19.314367,19.32779 0 0 1 7.733119,-8.513074 c 0.836711,-0.501638 2.182081,-1.180328 2.340579,-1.180328 0.117951,0 0.40177,0.195495 4.0914,2.788514 2.185767,1.530731 2.823438,1.969665 3.55694,2.438106 0.63398,0.405739 1.25322,0.892617 1.25322,0.988523 0,0.02209 -0.06264,0.05531 -0.136377,0.07004 A 1017.3212,1018.0282 0 0 1 20.35861,21.065918 l -7.346095,1.364752 c -0.07744,0.02215 -0.08112,0.008 -0.03687,-0.110653"
         style="fill:#3499cb;fill-opacity:1;stroke-width:0.0500901"
         id="path1-5" />
      <text
         xml:space="preserve"
         style="font-size:21.3333px;font-family:'Blush Asliring';-inkscape-font-specification:'Blush Asliring';text-align:start;writing-mode:lr-tb;direction:ltr;text-anchor:start;opacity:1;fill:#f2f2f2;fill-opacity:1;stroke:#f2f2f2;stroke-width:0.216;stroke-linecap:round;stroke-linejoin:round;stroke-opacity:1;paint-order:fill markers stroke"
         x="24.813343"
         y="38.701889"
         id="text1"><tspan
           sodipodi:role="line"
           id="tspan1"
           x="24.813343"
           y="38.701889">2</tspan></text>
    </g>
  </g>
</svg>
