<?xml version="1.0" encoding="UTF-8" standalone="no"?>
<svg
   width="68"
   height="68"
   viewBox="0 0 17.991665 17.991665"
   version="1.1"
   id="svg1114"
   inkscape:version="1.3.2 (091e20ef0f, 2023-11-25)"
   sodipodi:docname="reddit.svg"
   xmlns:inkscape="http://www.inkscape.org/namespaces/inkscape"
   xmlns:sodipodi="http://sodipodi.sourceforge.net/DTD/sodipodi-0.dtd"
   xmlns:xlink="http://www.w3.org/1999/xlink"
   xmlns="http://www.w3.org/2000/svg"
   xmlns:svg="http://www.w3.org/2000/svg"
   xmlns:rdf="http://www.w3.org/1999/02/22-rdf-syntax-ns#"
   xmlns:cc="http://creativecommons.org/ns#"
   xmlns:dc="http://purl.org/dc/elements/1.1/">
  <style
     type="text/css"
     id="current-color-scheme">.ColorScheme-Highlight { color:#5599ff; }
</style>
  <defs
     id="defs1108">
    <linearGradient
       id="linearGradient12"
       inkscape:collect="always">
      <stop
         style="stop-color:#ffffff;stop-opacity:0;"
         offset="0"
         id="stop10" />
      <stop
         id="stop11"
         offset="0.65909404"
         style="stop-color:#ffffff;stop-opacity:0" />
      <stop
         style="stop-color:#ffffff;stop-opacity:1;"
         offset="1"
         id="stop12" />
    </linearGradient>
    <linearGradient
       id="linearGradient9"
       inkscape:collect="always">
      <stop
         style="stop-color:#000000;stop-opacity:0;"
         offset="0"
         id="stop1" />
      <stop
         id="stop8"
         offset="0.66102529"
         style="stop-color:#000000;stop-opacity:0" />
      <stop
         style="stop-color:#000000;stop-opacity:1;"
         offset="1"
         id="stop9" />
    </linearGradient>
    <linearGradient
       id="linearGradient7"
       inkscape:collect="always">
      <stop
         style="stop-color:#000000;stop-opacity:0;"
         offset="0"
         id="stop5" />
      <stop
         id="stop6"
         offset="0.6586886"
         style="stop-color:#000000;stop-opacity:0" />
      <stop
         style="stop-color:#000000;stop-opacity:1;"
         offset="1"
         id="stop7" />
    </linearGradient>
    <linearGradient
       id="linearGradient4"
       inkscape:collect="always">
      <stop
         style="stop-color:#000000;stop-opacity:0;"
         offset="0"
         id="stop2" />
      <stop
         id="stop3"
         offset="0.67055255"
         style="stop-color:#000000;stop-opacity:0" />
      <stop
         style="stop-color:#000000;stop-opacity:1;"
         offset="1"
         id="stop4" />
    </linearGradient>
    <linearGradient
       inkscape:collect="always"
       id="linearGradient899">
      <stop
         style="stop-color:#ff5555;stop-opacity:1;"
         offset="0"
         id="stop895" />
      <stop
         style="stop-color:#c83771;stop-opacity:1;"
         offset="1"
         id="stop897" />
    </linearGradient>
    <linearGradient
       id="linearGradient1167"
       x1="40.751999"
       x2="40.751999"
       y1="28.507999"
       y2="17.205999"
       gradientUnits="userSpaceOnUse">
      <stop
         style="stop-color:#84fb6e;stop-opacity:1"
         stop-color="#0ab816"
         offset="0"
         id="stop1163" />
      <stop
         style="stop-color:#0dd41a;stop-opacity:1"
         stop-color="#0cf36c"
         offset="1"
         id="stop1165" />
    </linearGradient>
    <linearGradient
       id="cornerBevel"
       inkscape:collect="always">
      <stop
         style="stop-color:#000000;stop-opacity:0;"
         offset="0"
         id="stop2663" />
      <stop
         id="stop2671"
         offset="0.66666675"
         style="stop-color:#000000;stop-opacity:0" />
      <stop
         style="stop-color:#000000;stop-opacity:1;"
         offset="1"
         id="stop2661" />
    </linearGradient>
    <linearGradient
       id="bevel"
       inkscape:collect="always">
      <stop
         id="stop2685"
         offset="0"
         style="stop-color:#000000;stop-opacity:1;" />
      <stop
         id="stop2687"
         offset="1"
         style="stop-color:#000000;stop-opacity:0;" />
    </linearGradient>
    <linearGradient
       id="highlightCorner"
       inkscape:collect="always">
      <stop
         style="stop-color:#ffffff;stop-opacity:0;"
         offset="0"
         id="stop2613" />
      <stop
         id="stop2621"
         offset="0.66666669"
         style="stop-color:#ffffff;stop-opacity:0" />
      <stop
         style="stop-color:#ffffff;stop-opacity:1;"
         offset="1"
         id="stop2611" />
    </linearGradient>
    <linearGradient
       inkscape:collect="always"
       id="highlight">
      <stop
         style="stop-color:#ffffff;stop-opacity:1;"
         offset="0"
         id="stop2921" />
      <stop
         style="stop-color:#ffffff;stop-opacity:0;"
         offset="1"
         id="stop2923" />
    </linearGradient>
    <radialGradient
       inkscape:collect="always"
       xlink:href="#highlightCorner"
       id="radialGradient15"
       gradientUnits="userSpaceOnUse"
       gradientTransform="matrix(0.04294597,-12.079348,17.933991,0.06376112,15.000429,-49.447747)"
       cx="-4.5799766"
       cy="-0.50206107"
       fx="-4.5799766"
       fy="-0.50206107"
       r="0.39687499" />
    <linearGradient
       inkscape:collect="always"
       xlink:href="#highlight"
       id="linearGradient15"
       gradientUnits="userSpaceOnUse"
       x1="-3.8453064"
       y1="-1.1532172"
       x2="-3.8453064"
       y2="-0.8954913"
       gradientTransform="matrix(6.0923077,0,0,6.0923077,32.704778,8.0798044)" />
    <radialGradient
       inkscape:collect="always"
       xlink:href="#linearGradient12"
       id="radialGradient17"
       gradientUnits="userSpaceOnUse"
       gradientTransform="matrix(-0.02247554,-12.045403,-17.967828,0.03352619,2.1402712,-49.297268)"
       cx="-4.575222"
       cy="-0.55256462"
       fx="-4.575222"
       fy="-0.55256462"
       r="0.39687499" />
    <radialGradient
       inkscape:collect="always"
       xlink:href="#linearGradient7"
       id="radialGradient18"
       gradientUnits="userSpaceOnUse"
       gradientTransform="matrix(0.06461187,12.09952,17.933731,-0.09576873,15.085752,65.674273)"
       cx="-4.4284906"
       cy="-0.50121039"
       fx="-4.4284906"
       fy="-0.50121039"
       r="0.39687499" />
    <linearGradient
       inkscape:collect="always"
       xlink:href="#bevel"
       id="linearGradient18"
       gradientUnits="userSpaceOnUse"
       x1="-3.8415797"
       y1="-1.4506671"
       x2="-3.8406549"
       y2="-1.1968651"
       gradientTransform="matrix(6.0923076,0,0,6.0923076,32.704777,-8.079805)" />
    <radialGradient
       inkscape:collect="always"
       xlink:href="#linearGradient4"
       id="radialGradient20"
       gradientUnits="userSpaceOnUse"
       gradientTransform="matrix(-0.01031383,11.991438,-17.967296,-0.01545561,2.2116219,65.231784)"
       cx="-4.4236727"
       cy="-0.55004197"
       fx="-4.4236727"
       fy="-0.55004197"
       r="0.39687499" />
    <radialGradient
       inkscape:collect="always"
       xlink:href="#cornerBevel"
       id="radialGradient25"
       gradientUnits="userSpaceOnUse"
       gradientTransform="matrix(12.184614,0,0,12.184614,60.10747,11.303655)"
       cx="-4.4568658"
       cy="-0.44864327"
       fx="-4.4568658"
       fy="-0.44864327"
       r="0.39687496" />
    <linearGradient
       inkscape:collect="always"
       xlink:href="#bevel"
       id="linearGradient25"
       gradientUnits="userSpaceOnUse"
       x1="-3.8487544"
       y1="-1.146081"
       x2="-3.8455966"
       y2="-0.890971"
       gradientTransform="matrix(6.0923077,0,0,6.0923077,32.704778,8.079805)" />
    <radialGradient
       inkscape:collect="always"
       xlink:href="#cornerBevel"
       id="radialGradient29"
       gradientUnits="userSpaceOnUse"
       gradientTransform="matrix(0,-12.184614,12.184614,0,11.74978,-43.501726)"
       cx="-4.5705457"
       cy="-0.48653662"
       fx="-4.5705457"
       fy="-0.48653662"
       r="0.39687496" />
    <radialGradient
       inkscape:collect="always"
       xlink:href="#cornerBevel"
       id="radialGradient30"
       gradientUnits="userSpaceOnUse"
       gradientTransform="matrix(-12.184514,-0.04945749,0.04847411,-11.942243,-43.025905,4.7779476)"
       cx="-4.5342312"
       cy="-0.60337442"
       fx="-4.5342312"
       fy="-0.60337442"
       r="0.39687496" />
    <radialGradient
       inkscape:collect="always"
       xlink:href="#linearGradient9"
       id="radialGradient31"
       gradientUnits="userSpaceOnUse"
       gradientTransform="matrix(0,-12.151612,11.978956,0,18.951914,-47.844734)"
       cx="-4.4175329"
       cy="-0.56489283"
       fx="-4.4175329"
       fy="-0.56489283"
       r="0.39687496" />
    <linearGradient
       inkscape:collect="always"
       xlink:href="#bevel"
       id="linearGradient34"
       gradientUnits="userSpaceOnUse"
       x1="-3.99717"
       y1="-1.2218677"
       x2="-4.0003276"
       y2="-0.96675771"
       gradientTransform="matrix(6.0923077,0,0,6.0923077,16.099035,8.525933)" />
    <linearGradient
       inkscape:collect="always"
       xlink:href="#bevel"
       id="linearGradient35"
       gradientUnits="userSpaceOnUse"
       x1="-4.0919032"
       y1="-1.4492278"
       x2="-4.0950613"
       y2="-1.1972755"
       gradientTransform="matrix(6.0923077,0,0,6.0923077,15.652911,-8.079805)" />
    <linearGradient
       inkscape:collect="always"
       xlink:href="#bevel"
       id="linearGradient36"
       gradientUnits="userSpaceOnUse"
       x1="-3.8734362"
       y1="-1.3717227"
       x2="-3.8765941"
       y2="-1.116071"
       gradientTransform="matrix(6.0923077,0,0,6.0923077,32.258652,-8.525933)" />
    <linearGradient
       id="paint2_linear_77:3-7"
       x1="79.398094"
       y1="-197.84389"
       x2="82.901054"
       y2="-199.97827"
       gradientUnits="userSpaceOnUse"
       gradientTransform="matrix(1.9248511,0,0,1.7314595,-40.88733,399.61741)">
      <stop
         stop-color="#EBFAFF"
         stop-opacity="0.1"
         id="stop29-5-7"
         offset="0"
         style="stop-color:#c3c3c3;stop-opacity:1;" />
      <stop
         offset="1"
         stop-color="#70A9FF"
         stop-opacity="0.5"
         id="stop30-0-1"
         style="stop-color:#05c7ff;stop-opacity:0.80000001;" />
    </linearGradient>
    <linearGradient
       inkscape:collect="always"
       xlink:href="#linearGradient899"
       id="linearGradient926"
       x1="0.98894888"
       y1="-9.3406019"
       x2="16.919081"
       y2="-9.2251434"
       gradientUnits="userSpaceOnUse" />
  </defs>
  <sodipodi:namedview
     id="base"
     pagecolor="#e2e2e2"
     bordercolor="#666666"
     borderopacity="1.0"
     inkscape:pageopacity="0"
     inkscape:pageshadow="2"
     inkscape:zoom="9.7248729"
     inkscape:cx="32.648242"
     inkscape:cy="37.121308"
     inkscape:document-units="px"
     inkscape:current-layer="layer1"
     inkscape:document-rotation="0"
     showgrid="true"
     units="px"
     inkscape:window-width="1920"
     inkscape:window-height="990"
     inkscape:window-x="0"
     inkscape:window-y="0"
     inkscape:window-maximized="1"
     inkscape:object-paths="true"
     inkscape:snap-grids="true"
     inkscape:snap-intersection-paths="true"
     inkscape:snap-smooth-nodes="true"
     inkscape:snap-midpoints="true"
     inkscape:showpageshadow="2"
     inkscape:pagecheckerboard="0"
     inkscape:deskcolor="#d1d1d1">
    <inkscape:grid
       id="grid2"
       units="px"
       originx="0"
       originy="0"
       spacingx="0.26458333"
       spacingy="0.26458333"
       empcolor="#0099e5"
       empopacity="0.30196078"
       color="#0099e5"
       opacity="0.14902"
       empspacing="5"
       dotted="false"
       gridanglex="30"
       gridanglez="30"
       visible="true" />
  </sodipodi:namedview>
  <metadata
     id="metadata1111">
    <rdf:RDF>
      <cc:Work
         rdf:about="">
        <dc:format>image/svg+xml</dc:format>
        <dc:type
           rdf:resource="http://purl.org/dc/dcmitype/StillImage" />
      </cc:Work>
    </rdf:RDF>
  </metadata>
  <g
     inkscape:label="Layer 1"
     inkscape:groupmode="layer"
     id="layer1">
    <g
       id="g1">
      <rect
         ry="4.8357682"
         rx="4.8357682"
         style="fill:url(#linearGradient926);fill-opacity:1;stroke-width:6.09228"
         x="1.0583347"
         y="-16.933334"
         width="15.875001"
         height="15.875001"
         id="use1056"
         transform="rotate(90)"
         class="ColorScheme-Highlight" />
      <path
         d="m 5.8208334,1.058334 c -2.6384245,0 -4.7624996,2.1240748 -4.7624996,4.7624996 h 4.7624996 z"
         style="opacity:0.15;fill:url(#radialGradient25);fill-opacity:1;stroke-width:6.09228"
         id="path20" />
      <rect
         y="1.0583339"
         x="5.8208327"
         height="1.5875"
         width="6.3500004"
         id="rect20"
         style="opacity:0.15;fill:url(#linearGradient25);fill-opacity:1;stroke-width:4.83577;stroke-linecap:round;stroke-linejoin:round;paint-order:stroke fill markers" />
      <path
         d="m 1.0583338,12.170834 c 0,2.638424 2.1240751,4.762499 4.7624996,4.762499 v -4.762499 z"
         style="opacity:0.15;fill:url(#radialGradient29);fill-opacity:1;stroke-width:6.09228"
         id="use20" />
      <rect
         y="1.0583338"
         x="-12.170835"
         height="1.5875"
         width="6.3500004"
         id="use21"
         style="opacity:0.15;fill:url(#linearGradient34);fill-opacity:1;stroke-width:4.83577;stroke-linecap:round;stroke-linejoin:round;paint-order:stroke fill markers"
         transform="rotate(-90)" />
      <path
         d="m 12.170833,16.933333 c 2.638425,0 4.7625,-2.124074 4.7625,-4.762499 h -4.7625 z"
         style="opacity:0.15;fill:url(#radialGradient30);fill-opacity:1;stroke-width:6.09228"
         id="use22" />
      <rect
         y="-16.933334"
         x="-12.170835"
         height="1.5875"
         width="6.3500004"
         id="use23"
         style="opacity:0.15;fill:url(#linearGradient35);fill-opacity:1;stroke-width:4.83577;stroke-linecap:round;stroke-linejoin:round;paint-order:stroke fill markers"
         transform="scale(-1)" />
      <path
         d="m 16.933333,5.8208336 c 0,-2.6384245 -2.124074,-4.7624996 -4.7625,-4.7624996 v 4.7624996 z"
         style="opacity:0.15;fill:url(#radialGradient31);fill-opacity:1;stroke-width:6.09228"
         id="use24" />
      <rect
         y="-16.933331"
         x="5.8208332"
         height="1.5875"
         width="6.3500004"
         id="use25"
         style="opacity:0.15;fill:url(#linearGradient36);fill-opacity:1;stroke-width:4.83577;stroke-linecap:round;stroke-linejoin:round;paint-order:stroke fill markers"
         transform="rotate(90)" />
      <path
         d="m 5.8208336,1.0583334 c -2.638425,0 -4.7625004,2.1240747 -4.7625004,4.7624997 h 4.7625004 z"
         style="opacity:0.5;fill:url(#radialGradient15);fill-opacity:1;stroke-width:6.09228"
         id="path14" />
      <rect
         y="1.0583333"
         x="5.8208327"
         height="1.5875"
         width="6.3499999"
         id="rect14"
         style="opacity:0.5;fill:url(#linearGradient15);fill-opacity:1;stroke-width:4.83577;stroke-linecap:round;stroke-linejoin:round;paint-order:stroke fill markers" />
      <path
         d="m 12.170833,1.0583333 c 2.638425,0 4.7625,2.124075 4.7625,4.7624973 h -4.7625 z"
         style="opacity:0.5;fill:url(#radialGradient17);fill-opacity:1;stroke-width:6.09228"
         id="use14" />
      <path
         id="path17"
         style="opacity:0.5;fill:url(#radialGradient18);fill-opacity:1;stroke-width:6.09228"
         d="m 5.8208338,16.933332 c -2.638425,0 -4.7625,-2.124075 -4.7625,-4.7625 h 4.7625 z" />
      <rect
         style="opacity:0.5;fill:url(#linearGradient18);fill-opacity:1;stroke-width:4.83577;stroke-linecap:round;stroke-linejoin:round;paint-order:stroke fill markers"
         id="rect17"
         width="6.3499994"
         height="1.5874999"
         x="5.8208327"
         y="-16.933334"
         transform="scale(1,-1)" />
      <path
         id="use17"
         style="opacity:0.5;fill:url(#radialGradient20);fill-opacity:1;stroke-width:6.09228"
         d="m 12.170832,16.933333 c 2.638425,0 4.7625,-2.124075 4.7625,-4.7625 h -4.7625 z" />
    </g>
    <path
       style="opacity:0.2;stroke-width:0.743397"
       d="M 9.6772702,3.5076195 C 9.5075869,3.5061195 9.362393,3.6268275 9.3378736,3.7921405 L 8.758121,7.5076975 c -1.3317778,0.03884 -2.5954241,0.408999 -3.5485043,1.039305 -0.2525796,-0.244422 -0.5925815,-0.381572 -0.9468854,-0.381945 -0.746866,0 -1.3523191,0.595606 -1.3523149,1.3303327 3.633e-4,0.4961714 0.2813845,0.9509098 0.7289827,1.1796188 -0.033388,0.16009 -0.051021,0.32157 -0.052822,0.483271 -4.1e-6,2.02047 2.4218046,3.658387 5.4092583,3.658387 2.9874476,0 5.4092526,-1.637917 5.4092486,-3.658387 -0.0013,-0.16132 -0.02046,-0.322306 -0.05414,-0.481976 0.448528,-0.228566 0.730169,-0.6839944 0.730303,-1.1809138 4e-6,-0.7347267 -0.605449,-1.3303327 -1.352319,-1.3303327 -0.355403,3.3e-5 -0.69651,0.137715 -0.949523,0.383245 -0.900894,-0.598297 -2.08287,-0.964589 -3.3411339,-1.035416 l 0.5137142,-3.26865 1.7577387,0.384555 c 0.06264,0.499417 0.493468,0.874821 1.004994,0.875621 0.560139,0 1.014235,-0.446696 1.014235,-0.997736 0,-0.55104 -0.454096,-0.997749 -1.014235,-0.997749 -0.348858,2.89e-4 -0.673067,0.17695 -0.858402,0.467699 L 9.747258,3.5167215 c -0.022931,-0.0037 -0.04639,-0.0086 -0.07004,-0.0086 z M 7.3054394,9.4953902 c 0.5601468,0 1.0142367,0.4466928 1.0142367,0.9977388 0,0.551047 -0.4540899,0.997734 -1.0142367,0.997734 -0.5601469,0 -1.0142359,-0.446687 -1.0142359,-0.997734 0,-0.551046 0.454089,-0.9977388 1.0142359,-0.9977388 z m 3.3807836,0 c 0.560147,0 1.014236,0.4466928 1.014236,0.9977388 0,0.551047 -0.454089,0.997734 -1.014236,0.997734 -0.560146,0 -1.014233,-0.446687 -1.014233,-0.997734 0,-0.551046 0.454087,-0.9977388 1.014233,-0.9977388 z m 0.657669,2.9814358 c 0.314549,-0.02625 0.4918,0.347337 0.269404,0.567712 0,0 -0.22149,0.231168 -0.643142,0.422228 -0.421646,0.191111 -1.0693709,0.368448 -1.9822433,0.353374 -0.9076111,-0.01536 -1.5438045,-0.191857 -1.9611219,-0.372866 -0.417318,-0.180889 -0.63918,-0.39364 -0.63918,-0.39364 -0.2070262,-0.199759 -0.079106,-0.546405 0.2099789,-0.569018 0.010866,-9.5e-4 0.021987,-9.91e-4 0.033015,-9.91e-4 0.091543,9.91e-4 0.1787434,0.03863 0.2416733,0.104018 0,0 0.096382,0.10643 0.429202,0.250742 0.3328187,0.144323 0.8773312,0.299315 1.7022769,0.314395 0.8196785,0.01369 1.3526581,-0.140874 1.6811461,-0.28971 0.328487,-0.148825 0.425241,-0.265026 0.425241,-0.265026 0.05817,-0.06968 0.142438,-0.113245 0.233752,-0.120806 z"
       id="path2-3" />
    <path
       style="fill:#ffffff;stroke-width:0.743397"
       d="m 9.6772702,3.1750135 c -0.1696833,-0.0015 -0.3148772,0.119169 -0.3393966,0.28452 L 8.758121,7.1750795 C 7.4263432,7.2139415 6.1626969,7.5840745 5.2096167,8.2143915 4.9570371,7.9699595 4.6170352,7.8328135 4.2627313,7.8324405 c -0.746866,0 -1.3523191,0.595611 -1.3523149,1.330332 3.633e-4,0.4961768 0.2813845,0.9509165 0.7289827,1.1796215 -0.033389,0.160091 -0.051021,0.321575 -0.052822,0.483276 -4.1e-6,2.020468 2.4218046,3.658388 5.4092573,3.658388 2.9874476,0 5.4092526,-1.63792 5.4092476,-3.658388 -0.0013,-0.161326 -0.02046,-0.322307 -0.05415,-0.481982 0.448529,-0.228555 0.730171,-0.6840007 0.730304,-1.1809155 4e-6,-0.734721 -0.60545,-1.330332 -1.352319,-1.330332 -0.355403,3.9e-5 -0.69651,0.137713 -0.949523,0.383243 -0.900897,-0.59829 -2.082878,-0.964578 -3.3411438,-1.035412 l 0.5137231,-3.268645 1.7577427,0.38455 c 0.06257,0.499422 0.493465,0.874822 1.004991,0.875627 0.560142,0 1.014235,-0.446707 1.014235,-0.997749 0,-0.551033 -0.454092,-0.997734 -1.014235,-0.997734 -0.348859,2.89e-4 -0.673068,0.176947 -0.858402,0.467686 L 9.747256,3.1841145 c -0.022941,-0.0037 -0.04639,-0.0086 -0.07006,-0.0086 z m -2.3718308,5.987759 c 0.5601468,0 1.0142367,0.4466931 1.0142367,0.9977435 0,0.551043 -0.4540899,0.997737 -1.0142367,0.997737 -0.5601469,0 -1.0142359,-0.446694 -1.0142359,-0.997737 0,-0.5510504 0.454089,-0.9977435 1.0142359,-0.9977435 z m 3.3807836,0 c 0.560147,0 1.014236,0.4466931 1.014236,0.9977435 0,0.551043 -0.454089,0.997737 -1.014236,0.997737 -0.560146,0 -1.014233,-0.446694 -1.014233,-0.997737 0,-0.5510504 0.454087,-0.9977435 1.014233,-0.9977435 z m 0.657669,2.9814335 c 0.314549,-0.02625 0.4918,0.347346 0.269404,0.567718 0,0 -0.22149,0.23117 -0.643142,0.422235 -0.421646,0.191105 -1.0693709,0.368444 -1.9822433,0.353364 C 8.0802996,13.472343 7.4441062,13.295669 7.0267888,13.11466 6.6094708,12.933781 6.3876088,12.721023 6.3876088,12.721023 6.1805826,12.521258 6.3085038,12.17461 6.5975877,12.152 c 0.010866,-9.51e-4 0.021987,-9.92e-4 0.033015,-9.92e-4 0.091543,9.92e-4 0.1787434,0.03865 0.2416733,0.103989 0,0 0.096382,0.106438 0.429202,0.250743 0.3328187,0.144324 0.8773312,0.299318 1.7022769,0.314401 0.8196785,0.01368 1.3526561,-0.140874 1.6811441,-0.289723 0.328485,-0.14878 0.425239,-0.265015 0.425239,-0.265015 0.05817,-0.06966 0.14244,-0.11327 0.233754,-0.120829 z"
       id="path3-6" />
  </g>
</svg>
