<?xml version="1.0" encoding="UTF-8" standalone="no"?>
<svg
   width="68"
   height="68"
   viewBox="0 0 17.991665 17.991665"
   version="1.1"
   id="svg1114"
   inkscape:version="1.3.2 (091e20ef0f, 2023-11-25)"
   sodipodi:docname="rosegarden.svg"
   xmlns:inkscape="http://www.inkscape.org/namespaces/inkscape"
   xmlns:sodipodi="http://sodipodi.sourceforge.net/DTD/sodipodi-0.dtd"
   xmlns:xlink="http://www.w3.org/1999/xlink"
   xmlns="http://www.w3.org/2000/svg"
   xmlns:svg="http://www.w3.org/2000/svg"
   xmlns:rdf="http://www.w3.org/1999/02/22-rdf-syntax-ns#"
   xmlns:cc="http://creativecommons.org/ns#"
   xmlns:dc="http://purl.org/dc/elements/1.1/">
  <style
     type="text/css"
     id="current-color-scheme">.ColorScheme-Highlight { color:#5599ff; }
</style>
  <defs
     id="defs1108">
    <linearGradient
       id="linearGradient12"
       inkscape:collect="always">
      <stop
         style="stop-color:#ffffff;stop-opacity:0;"
         offset="0"
         id="stop10" />
      <stop
         id="stop11"
         offset="0.65909404"
         style="stop-color:#ffffff;stop-opacity:0" />
      <stop
         style="stop-color:#ffffff;stop-opacity:1;"
         offset="1"
         id="stop12" />
    </linearGradient>
    <linearGradient
       id="linearGradient9"
       inkscape:collect="always">
      <stop
         style="stop-color:#000000;stop-opacity:0;"
         offset="0"
         id="stop1" />
      <stop
         id="stop8"
         offset="0.66102529"
         style="stop-color:#000000;stop-opacity:0" />
      <stop
         style="stop-color:#000000;stop-opacity:1;"
         offset="1"
         id="stop9" />
    </linearGradient>
    <linearGradient
       id="linearGradient7"
       inkscape:collect="always">
      <stop
         style="stop-color:#000000;stop-opacity:0;"
         offset="0"
         id="stop5" />
      <stop
         id="stop6"
         offset="0.6586886"
         style="stop-color:#000000;stop-opacity:0" />
      <stop
         style="stop-color:#000000;stop-opacity:1;"
         offset="1"
         id="stop7" />
    </linearGradient>
    <linearGradient
       id="linearGradient4"
       inkscape:collect="always">
      <stop
         style="stop-color:#000000;stop-opacity:0;"
         offset="0"
         id="stop2" />
      <stop
         id="stop3"
         offset="0.67055255"
         style="stop-color:#000000;stop-opacity:0" />
      <stop
         style="stop-color:#000000;stop-opacity:1;"
         offset="1"
         id="stop4" />
    </linearGradient>
    <linearGradient
       inkscape:collect="always"
       id="linearGradient899">
      <stop
         style="stop-color:#d35f8d;stop-opacity:1"
         offset="0"
         id="stop895" />
      <stop
         style="stop-color:#c83771;stop-opacity:1"
         offset="1"
         id="stop897" />
    </linearGradient>
    <linearGradient
       id="linearGradient1167"
       x1="40.751999"
       x2="40.751999"
       y1="28.507999"
       y2="17.205999"
       gradientUnits="userSpaceOnUse">
      <stop
         style="stop-color:#84fb6e;stop-opacity:1"
         stop-color="#0ab816"
         offset="0"
         id="stop1163" />
      <stop
         style="stop-color:#0dd41a;stop-opacity:1"
         stop-color="#0cf36c"
         offset="1"
         id="stop1165" />
    </linearGradient>
    <linearGradient
       id="cornerBevel"
       inkscape:collect="always">
      <stop
         style="stop-color:#000000;stop-opacity:0;"
         offset="0"
         id="stop2663" />
      <stop
         id="stop2671"
         offset="0.66666675"
         style="stop-color:#000000;stop-opacity:0" />
      <stop
         style="stop-color:#000000;stop-opacity:1;"
         offset="1"
         id="stop2661" />
    </linearGradient>
    <linearGradient
       id="bevel"
       inkscape:collect="always">
      <stop
         id="stop2685"
         offset="0"
         style="stop-color:#000000;stop-opacity:1;" />
      <stop
         id="stop2687"
         offset="1"
         style="stop-color:#000000;stop-opacity:0;" />
    </linearGradient>
    <linearGradient
       id="highlightCorner"
       inkscape:collect="always">
      <stop
         style="stop-color:#ffffff;stop-opacity:0;"
         offset="0"
         id="stop2613" />
      <stop
         id="stop2621"
         offset="0.66666669"
         style="stop-color:#ffffff;stop-opacity:0" />
      <stop
         style="stop-color:#ffffff;stop-opacity:1;"
         offset="1"
         id="stop2611" />
    </linearGradient>
    <linearGradient
       inkscape:collect="always"
       id="highlight">
      <stop
         style="stop-color:#ffffff;stop-opacity:1;"
         offset="0"
         id="stop2921" />
      <stop
         style="stop-color:#ffffff;stop-opacity:0;"
         offset="1"
         id="stop2923" />
    </linearGradient>
    <radialGradient
       inkscape:collect="always"
       xlink:href="#highlightCorner"
       id="radialGradient15"
       gradientUnits="userSpaceOnUse"
       gradientTransform="matrix(0.04294597,-12.079348,17.933991,0.06376112,14.524179,-50.373789)"
       cx="-4.5799766"
       cy="-0.50206107"
       fx="-4.5799766"
       fy="-0.50206107"
       r="0.39687499" />
    <linearGradient
       inkscape:collect="always"
       xlink:href="#highlight"
       id="linearGradient15"
       gradientUnits="userSpaceOnUse"
       x1="-3.8453064"
       y1="-1.1532172"
       x2="-3.8453064"
       y2="-0.8954913"
       gradientTransform="matrix(6.0923077,0,0,6.0923077,32.228528,7.1537621)" />
    <radialGradient
       inkscape:collect="always"
       xlink:href="#linearGradient12"
       id="radialGradient17"
       gradientUnits="userSpaceOnUse"
       gradientTransform="matrix(-0.02247554,-12.045403,-17.967828,0.03352619,1.6640208,-50.22331)"
       cx="-4.575222"
       cy="-0.55256462"
       fx="-4.575222"
       fy="-0.55256462"
       r="0.39687499" />
    <radialGradient
       inkscape:collect="always"
       xlink:href="#linearGradient7"
       id="radialGradient18"
       gradientUnits="userSpaceOnUse"
       gradientTransform="matrix(0.06461187,12.09952,17.933731,-0.09576873,14.609502,64.748231)"
       cx="-4.4284906"
       cy="-0.50121039"
       fx="-4.4284906"
       fy="-0.50121039"
       r="0.39687499" />
    <linearGradient
       inkscape:collect="always"
       xlink:href="#bevel"
       id="linearGradient18"
       gradientUnits="userSpaceOnUse"
       x1="-3.8415797"
       y1="-1.4506671"
       x2="-3.8406549"
       y2="-1.1968651"
       gradientTransform="matrix(6.0923076,0,0,6.0923076,32.228527,-7.1537627)" />
    <radialGradient
       inkscape:collect="always"
       xlink:href="#linearGradient4"
       id="radialGradient20"
       gradientUnits="userSpaceOnUse"
       gradientTransform="matrix(-0.01031383,11.991438,-17.967296,-0.01545561,1.7353715,64.305742)"
       cx="-4.4236727"
       cy="-0.55004197"
       fx="-4.4236727"
       fy="-0.55004197"
       r="0.39687499" />
    <radialGradient
       inkscape:collect="always"
       xlink:href="#cornerBevel"
       id="radialGradient25"
       gradientUnits="userSpaceOnUse"
       gradientTransform="matrix(12.184614,0,0,12.184614,59.63122,10.377613)"
       cx="-4.4568658"
       cy="-0.44864327"
       fx="-4.4568658"
       fy="-0.44864327"
       r="0.39687496" />
    <linearGradient
       inkscape:collect="always"
       xlink:href="#bevel"
       id="linearGradient25"
       gradientUnits="userSpaceOnUse"
       x1="-3.8487544"
       y1="-1.146081"
       x2="-3.8455966"
       y2="-0.890971"
       gradientTransform="matrix(6.0923077,0,0,6.0923077,32.228528,7.1537627)" />
    <radialGradient
       inkscape:collect="always"
       xlink:href="#cornerBevel"
       id="radialGradient29"
       gradientUnits="userSpaceOnUse"
       gradientTransform="matrix(0,-12.184614,12.184614,0,11.27353,-44.427768)"
       cx="-4.5705457"
       cy="-0.48653662"
       fx="-4.5705457"
       fy="-0.48653662"
       r="0.39687496" />
    <radialGradient
       inkscape:collect="always"
       xlink:href="#cornerBevel"
       id="radialGradient30"
       gradientUnits="userSpaceOnUse"
       gradientTransform="matrix(-12.184514,-0.04945749,0.04847411,-11.942243,-43.502155,3.8519053)"
       cx="-4.5342312"
       cy="-0.60337442"
       fx="-4.5342312"
       fy="-0.60337442"
       r="0.39687496" />
    <radialGradient
       inkscape:collect="always"
       xlink:href="#linearGradient9"
       id="radialGradient31"
       gradientUnits="userSpaceOnUse"
       gradientTransform="matrix(0,-12.151612,11.978956,0,18.475664,-48.770776)"
       cx="-4.4175329"
       cy="-0.56489283"
       fx="-4.4175329"
       fy="-0.56489283"
       r="0.39687496" />
    <linearGradient
       inkscape:collect="always"
       xlink:href="#bevel"
       id="linearGradient34"
       gradientUnits="userSpaceOnUse"
       x1="-3.99717"
       y1="-1.2218677"
       x2="-4.0003276"
       y2="-0.96675771"
       gradientTransform="matrix(6.0923077,0,0,6.0923077,17.025077,8.0496826)" />
    <linearGradient
       inkscape:collect="always"
       xlink:href="#bevel"
       id="linearGradient35"
       gradientUnits="userSpaceOnUse"
       x1="-4.0919032"
       y1="-1.4492278"
       x2="-4.0950613"
       y2="-1.1972755"
       gradientTransform="matrix(6.0923077,0,0,6.0923077,16.129161,-7.1537627)" />
    <linearGradient
       inkscape:collect="always"
       xlink:href="#bevel"
       id="linearGradient36"
       gradientUnits="userSpaceOnUse"
       x1="-3.8734362"
       y1="-1.3717227"
       x2="-3.8765941"
       y2="-1.116071"
       gradientTransform="matrix(6.0923077,0,0,6.0923077,31.33261,-8.0496826)" />
    <linearGradient
       id="paint2_linear_77:3-7"
       x1="79.398094"
       y1="-197.84389"
       x2="82.901054"
       y2="-199.97827"
       gradientUnits="userSpaceOnUse"
       gradientTransform="matrix(1.9248511,0,0,1.7314595,-40.88733,399.61741)">
      <stop
         stop-color="#EBFAFF"
         stop-opacity="0.1"
         id="stop29-5-7"
         offset="0"
         style="stop-color:#c3c3c3;stop-opacity:1;" />
      <stop
         offset="1"
         stop-color="#70A9FF"
         stop-opacity="0.5"
         id="stop30-0-1"
         style="stop-color:#05c7ff;stop-opacity:0.80000001;" />
    </linearGradient>
    <linearGradient
       inkscape:collect="always"
       xlink:href="#linearGradient899"
       id="linearGradient926"
       x1="0.98894888"
       y1="-9.3406019"
       x2="16.919081"
       y2="-9.2251434"
       gradientUnits="userSpaceOnUse"
       gradientTransform="translate(-0.92604234,0.47624996)" />
    <linearGradient
       id="a"
       x1="7.9369998"
       x2="7.9369998"
       y1="15.081"
       y2="1.852"
       gradientTransform="matrix(0.89278359,0,0,0.89278351,0.90778525,0.91466447)"
       gradientUnits="userSpaceOnUse">
      <stop
         offset="0"
         stop-color="#f1efeb"
         id="stop1-3" />
      <stop
         offset="1"
         stop-color="#fff"
         id="stop2-3" />
    </linearGradient>
    <linearGradient
       id="b-3"
       gradientTransform="matrix(0.9444453,0,0,0.94444519,-301.19123,-493.75403)"
       gradientUnits="userSpaceOnUse"
       x1="400.57141"
       x2="400.57141"
       y1="545.79797"
       y2="517.79797">
      <stop
         offset="0"
         stop-color="#eff0f1"
         id="stop7-6" />
      <stop
         offset="1"
         stop-color="#fcfcfc"
         id="stop9-7" />
    </linearGradient>
    <linearGradient
       id="d-9"
       gradientUnits="userSpaceOnUse"
       x1="13.571427"
       x2="13.142856"
       y1="21.285715"
       y2="3.2857144"
       gradientTransform="translate(-2.571427,-2.5714273)">
      <stop
         offset="0"
         stop-color="#788085"
         id="stop17-1" />
      <stop
         offset="1"
         stop-color="#9ba1a6"
         id="stop19-2" />
    </linearGradient>
    <linearGradient
       id="f-9-3"
       gradientUnits="userSpaceOnUse"
       x1="9.1779842"
       x2="11.427132"
       y1="7.534945"
       y2="9.7840929"
       gradientTransform="matrix(0.82283289,0,0,0.85921943,-0.93663235,-1.3146308)">
      <stop
         offset="0"
         id="stop2617-1-6" />
      <stop
         offset="1"
         stop-opacity="0"
         id="stop2619-2-0" />
    </linearGradient>
    <linearGradient
       id="linearGradient1000"
       x1="-25.122"
       x2="-15.582"
       y1="9.3423996"
       y2="9.3423996"
       gradientUnits="userSpaceOnUse"
       gradientTransform="matrix(1.1265644,0,0,1.1265644,30.833983,-2.9272276)">
      <stop
         stop-color="#407fff"
         offset="0"
         id="stop47" />
      <stop
         stop-color="#ff407a"
         offset="1"
         id="stop49" />
    </linearGradient>
    <linearGradient
       id="linearGradient952"
       x1="-20.384001"
       x2="-23.271999"
       y1="6.1331"
       y2="15.312"
       gradientUnits="userSpaceOnUse"
       gradientTransform="matrix(1.1265644,0,0,1.1265644,32.45849,-2.726057)">
      <stop
         stop-color="#232323"
         offset="0"
         id="stop40" />
      <stop
         stop-color="#323296"
         offset=".95004"
         id="stop42" />
      <stop
         stop-color="#232323"
         offset="1"
         id="stop44" />
    </linearGradient>
    <radialGradient
       id="radialGradient123159"
       cx="-24.473"
       cy="9.8347998"
       r="1.5211"
       gradientTransform="matrix(1.472694,0,0,1.472694,43.967571,-6.9281934)"
       gradientUnits="userSpaceOnUse">
      <stop
         stop-color="#291dc0"
         offset="0"
         id="stop29" />
      <stop
         stop-color="#1b1b23"
         offset="1"
         id="stop31" />
    </radialGradient>
    <linearGradient
       id="linearGradient123197"
       x1="-36.117001"
       x2="-33.220001"
       y1="10.638"
       y2="7.7403998"
       gradientUnits="userSpaceOnUse"
       gradientTransform="matrix(1.582147,0,0,1.582147,62.777717,-6.9871742)">
      <stop
         offset="0"
         id="stop35" />
      <stop
         stop-opacity="0"
         offset="1"
         id="stop37" />
    </linearGradient>
    <radialGradient
       id="radialGradient123131"
       cx="-24.473"
       cy="9.8347998"
       r="1.1409"
       gradientTransform="matrix(2.2469652,0,0,1.663153,62.863953,-8.8020552)"
       gradientUnits="userSpaceOnUse"
       xlink:href="#a-9" />
    <linearGradient
       id="a-9"
       x1="23.487"
       x2="23.487"
       y1="15.18"
       y2="32.912998"
       gradientTransform="matrix(0.12676,0,0,0.12676,-27.515,6.7925)"
       gradientUnits="userSpaceOnUse">
      <stop
         stop-color="#141414"
         offset="0"
         id="stop5-3" />
      <stop
         stop-color="#30277f"
         offset="1"
         id="stop7-6-3" />
    </linearGradient>
    <linearGradient
       id="linearGradient123149"
       x1="-24.478001"
       x2="-24.478001"
       y1="11.104"
       y2="8.4912004"
       gradientTransform="matrix(1.582147,0,0,1.582147,46.593934,-8.004653)"
       gradientUnits="userSpaceOnUse">
      <stop
         stop-color="#2d1edc"
         offset="0"
         id="stop22" />
      <stop
         stop-color="#141414"
         offset="1"
         id="stop24" />
    </linearGradient>
    <radialGradient
       id="radialGradient123155"
       cx="-24.473"
       cy="9.8347998"
       r="1.1409"
       gradientTransform="matrix(1.8041223,0,0,1.3354112,52.025763,-5.5780667)"
       gradientUnits="userSpaceOnUse"
       xlink:href="#a-9" />
    <linearGradient
       id="linearGradient123157"
       x1="-24.478001"
       x2="-24.478001"
       y1="11.104"
       y2="8.4912004"
       gradientTransform="matrix(1.2703058,0,0,1.2703058,38.961658,-4.9378192)"
       gradientUnits="userSpaceOnUse"
       xlink:href="#a-9" />
    <radialGradient
       id="c-7"
       cx="24.047001"
       cy="23.948999"
       r="2.9867001"
       gradientTransform="matrix(0.32528943,-5.9392216e-8,4.498202e-8,0.24635611,0.11361948,1.6450199)"
       gradientUnits="userSpaceOnUse">
      <stop
         stop-color="#2839e6"
         offset="0"
         id="stop10-7" />
      <stop
         stop-opacity="0"
         offset="1"
         id="stop12-5" />
    </radialGradient>
    <linearGradient
       id="linearGradient123141"
       x1="-24.485001"
       x2="-24.485001"
       y1="8.6962004"
       y2="9.7505999"
       gradientTransform="matrix(1.582147,0,0,1.582147,46.646147,-8.004653)"
       gradientUnits="userSpaceOnUse"
       xlink:href="#d-6" />
    <linearGradient
       id="d-6"
       x1="361.35999"
       x2="361.35999"
       y1="616.07001"
       y2="722.78998"
       gradientTransform="matrix(0.0040372,0,0,0.0040372,-25.925,7.1257)"
       gradientUnits="userSpaceOnUse">
      <stop
         stop-color="#fff"
         offset="0"
         id="stop15" />
      <stop
         stop-color="#fff"
         stop-opacity="0"
         offset="1"
         id="stop17" />
    </linearGradient>
    <linearGradient
       id="linearGradient123161"
       x1="361.35999"
       x2="361.35999"
       y1="616.07001"
       y2="722.78998"
       gradientTransform="matrix(0.00638745,0,0,0.00638745,5.6274015,3.269252)"
       gradientUnits="userSpaceOnUse"
       xlink:href="#d-6" />
    <linearGradient
       id="paint0_linear_37_400"
       x1="12.500009"
       y1="50.254704"
       x2="51.750008"
       y2="49.419804"
       gradientUnits="userSpaceOnUse"
       gradientTransform="scale(0.26458335)">
      <stop
         offset="0.195531"
         stop-color="#6D4AFF"
         id="stop3-2"
         style="stop-color:#5439c5;stop-opacity:1;" />
      <stop
         offset="0.66951799"
         stop-color="#8062FF"
         id="stop4-9"
         style="stop-color:#674fcd;stop-opacity:1;" />
      <stop
         offset="1"
         stop-color="#B6A4FF"
         id="stop5-1"
         style="stop-color:#8761c0;stop-opacity:1;" />
    </linearGradient>
    <linearGradient
       id="paint0_linear_278_74"
       x1="63.292892"
       y1="49.501076"
       x2="64"
       y2="13"
       gradientUnits="userSpaceOnUse"
       gradientTransform="matrix(0.79502814,0,0,0.78711813,-18.510185,5.7254723)">
      <stop
         stop-color="#5570FF"
         id="stop2-7" />
      <stop
         offset="1"
         stop-color="#4DD3FF"
         id="stop3-5"
         style="stop-color:#b380ff;stop-opacity:1" />
    </linearGradient>
    <linearGradient
       id="paint1_linear_278_74"
       x1="111.0028"
       y1="1.6666744"
       x2="109.01905"
       y2="-45.814518"
       gradientUnits="userSpaceOnUse"
       gradientTransform="matrix(0.63207005,0,0,0.61955527,-82.728586,41.628282)"
       xlink:href="#linearGradient899">
      <stop
         stop-color="#5570FF"
         id="stop4-3" />
      <stop
         offset="1"
         stop-color="#4DD3FF"
         id="stop5-5" />
    </linearGradient>
    <linearGradient
       id="linearGradient13"
       x1="111.0028"
       y1="1.6666744"
       x2="109.01905"
       y2="-45.814518"
       gradientUnits="userSpaceOnUse"
       gradientTransform="matrix(0.50822228,0,0,0.5053205,-64.273678,43.718324)"
       spreadMethod="pad">
      <stop
         stop-color="#5570FF"
         id="stop12-3" />
      <stop
         offset="1"
         stop-color="#4DD3FF"
         id="stop13"
         style="stop-color:#b380ff;stop-opacity:1" />
    </linearGradient>
    <linearGradient
       id="linearGradient2"
       x1="111.0028"
       y1="1.6666744"
       x2="109.01905"
       y2="-45.814518"
       gradientUnits="userSpaceOnUse"
       gradientTransform="matrix(0.63207005,0,0,0.61955527,-80.653566,46.350982)"
       xlink:href="#linearGradient13">
      <stop
         stop-color="#5570FF"
         id="stop1-6" />
      <stop
         offset="1"
         stop-color="#4DD3FF"
         id="stop2-75" />
    </linearGradient>
    <linearGradient
       xlink:href="#linearGradient4174"
       id="linearGradient4181"
       x1="417.39099"
       y1="534.987"
       x2="402.98599"
       y2="504.664"
       gradientUnits="userSpaceOnUse"
       gradientTransform="matrix(0.80863949,0,0,0.82947496,67.734415,78.688428)" />
    <linearGradient
       id="linearGradient4174">
      <stop
         style="stop-color:#df2323;stop-opacity:1"
         offset="0"
         id="stop209" />
      <stop
         style="stop-color:#e76f6f;stop-opacity:1"
         offset="1"
         id="stop211" />
    </linearGradient>
  </defs>
  <sodipodi:namedview
     id="base"
     pagecolor="#e2e2e2"
     bordercolor="#666666"
     borderopacity="1.0"
     inkscape:pageopacity="0"
     inkscape:pageshadow="2"
     inkscape:zoom="9.7248728"
     inkscape:cx="25.450204"
     inkscape:cy="41.131643"
     inkscape:document-units="px"
     inkscape:current-layer="layer1"
     inkscape:document-rotation="0"
     showgrid="true"
     units="px"
     inkscape:window-width="1920"
     inkscape:window-height="990"
     inkscape:window-x="0"
     inkscape:window-y="0"
     inkscape:window-maximized="1"
     inkscape:object-paths="true"
     inkscape:snap-grids="true"
     inkscape:snap-intersection-paths="true"
     inkscape:snap-smooth-nodes="true"
     inkscape:snap-midpoints="true"
     inkscape:showpageshadow="2"
     inkscape:pagecheckerboard="0"
     inkscape:deskcolor="#d1d1d1">
    <inkscape:grid
       id="grid2"
       units="px"
       originx="0"
       originy="0"
       spacingx="0.26458333"
       spacingy="0.26458333"
       empcolor="#0099e5"
       empopacity="0.30196078"
       color="#0099e5"
       opacity="0.14902"
       empspacing="5"
       dotted="false"
       gridanglex="30"
       gridanglez="30"
       visible="true" />
  </sodipodi:namedview>
  <metadata
     id="metadata1111">
    <rdf:RDF>
      <cc:Work
         rdf:about="">
        <dc:format>image/svg+xml</dc:format>
        <dc:type
           rdf:resource="http://purl.org/dc/dcmitype/StillImage" />
      </cc:Work>
    </rdf:RDF>
  </metadata>
  <g
     inkscape:label="Layer 1"
     inkscape:groupmode="layer"
     id="layer1">
    <g
       id="g918"
       transform="translate(0.47625037,0.92604234)">
      <rect
         ry="4.8357682"
         rx="4.8357682"
         style="fill:url(#linearGradient926);fill-opacity:1;stroke-width:6.09228"
         x="0.13229237"
         y="-16.457085"
         width="15.875001"
         height="15.875001"
         id="use1056"
         transform="rotate(90)"
         class="ColorScheme-Highlight" />
      <path
         d="m 5.344583,0.13229167 c -2.6384245,0 -4.76249953,2.12407483 -4.76249953,4.76249963 H 5.344583 Z"
         style="opacity:0.15;fill:url(#radialGradient25);fill-opacity:1;stroke-width:6.09228"
         id="path20" />
      <rect
         y="0.13229151"
         x="5.3445826"
         height="1.5875"
         width="6.3500004"
         id="rect20"
         style="opacity:0.15;fill:url(#linearGradient25);fill-opacity:1;stroke-width:4.83577;stroke-linecap:round;stroke-linejoin:round;paint-order:stroke fill markers" />
      <path
         d="m 0.58208347,11.244792 c 0,2.638424 2.12407503,4.762499 4.76249953,4.762499 v -4.762499 z"
         style="opacity:0.15;fill:url(#radialGradient29);fill-opacity:1;stroke-width:6.09228"
         id="use20" />
      <rect
         y="0.5820834"
         x="-11.244792"
         height="1.5875"
         width="6.3500004"
         id="use21"
         style="opacity:0.15;fill:url(#linearGradient34);fill-opacity:1;stroke-width:4.83577;stroke-linecap:round;stroke-linejoin:round;paint-order:stroke fill markers"
         transform="rotate(-90)" />
      <path
         d="m 11.694583,16.007291 c 2.638425,0 4.7625,-2.124074 4.7625,-4.762499 h -4.7625 z"
         style="opacity:0.15;fill:url(#radialGradient30);fill-opacity:1;stroke-width:6.09228"
         id="use22" />
      <rect
         y="-16.007292"
         x="-11.694584"
         height="1.5875"
         width="6.3500004"
         id="use23"
         style="opacity:0.15;fill:url(#linearGradient35);fill-opacity:1;stroke-width:4.83577;stroke-linecap:round;stroke-linejoin:round;paint-order:stroke fill markers"
         transform="scale(-1)" />
      <path
         d="m 16.457083,4.8947913 c 0,-2.6384245 -2.124074,-4.76249963 -4.7625,-4.76249963 V 4.8947913 Z"
         style="opacity:0.15;fill:url(#radialGradient31);fill-opacity:1;stroke-width:6.09228"
         id="use24" />
      <rect
         y="-16.457081"
         x="4.8947906"
         height="1.5875"
         width="6.3500004"
         id="use25"
         style="opacity:0.15;fill:url(#linearGradient36);fill-opacity:1;stroke-width:4.83577;stroke-linecap:round;stroke-linejoin:round;paint-order:stroke fill markers"
         transform="rotate(90)" />
      <path
         d="m 5.3445832,0.13229107 c -2.638425,0 -4.76250035,2.12407473 -4.76250035,4.76249973 H 5.3445832 Z"
         style="opacity:0.5;fill:url(#radialGradient15);fill-opacity:1;stroke-width:6.09228"
         id="path14" />
      <rect
         y="0.1322909"
         x="5.3445826"
         height="1.5875"
         width="6.3499999"
         id="rect14"
         style="opacity:0.5;fill:url(#linearGradient15);fill-opacity:1;stroke-width:4.83577;stroke-linecap:round;stroke-linejoin:round;paint-order:stroke fill markers" />
      <path
         d="m 11.694583,0.13229096 c 2.638425,0 4.7625,2.12407504 4.7625,4.76249734 h -4.7625 z"
         style="opacity:0.5;fill:url(#radialGradient17);fill-opacity:1;stroke-width:6.09228"
         id="use14" />
      <path
         id="path17"
         style="opacity:0.5;fill:url(#radialGradient18);fill-opacity:1;stroke-width:6.09228"
         d="m 5.3445834,16.00729 c -2.638425,0 -4.7625,-2.124075 -4.7625,-4.7625 h 4.7625 z" />
      <rect
         style="opacity:0.5;fill:url(#linearGradient18);fill-opacity:1;stroke-width:4.83577;stroke-linecap:round;stroke-linejoin:round;paint-order:stroke fill markers"
         id="rect17"
         width="6.3499994"
         height="1.5874999"
         x="5.3445826"
         y="-16.007292"
         transform="scale(1,-1)" />
      <path
         id="use17"
         style="opacity:0.5;fill:url(#radialGradient20);fill-opacity:1;stroke-width:6.09228"
         d="m 11.694582,16.007291 c 2.638425,0 4.7625,-2.124075 4.7625,-4.7625 h -4.7625 z" />
    </g>
    <rect
       width="13.229166"
       height="13.229165"
       x="2.3812497"
       y="2.3812501"
       fill="url(#a)"
       rx="3.6849496"
       ry="3.7431052"
       id="rect2"
       style="fill:#1c2d4a;stroke-width:0.264582;fill-opacity:1" />
    <g
       transform="matrix(0.27850869,0,0,0.27151288,-103.47195,-132.03775)"
       id="g233-3-0"
       style="stroke-width:0.81899">
      <path
         d="m 409.63727,529.597 c -0.0543,0.32513 0.21268,1.09323 0.33573,1.54674 0.13446,0.4956 0.22781,0.94285 0.33574,1.3406 0.14467,0.53326 0.2016,0.84613 0.33574,1.34051 0.1582,0.58311 0.31602,0.98573 0.55956,1.54674 0.22815,0.52561 0.36197,0.87335 0.55956,1.23744 0.22651,0.41741 0.21266,1.09315 0.33574,1.54683 0.13986,0.51544 0.33607,1.03244 0.44765,1.44358 0.14143,0.52135 0.33574,0.68348 0.33574,1.3406 0,0.77011 -0.14584,0.86083 -0.8953,0.51561 -0.51413,-0.23684 -0.71124,-1.46797 -2.23824,-1.65765 -3.14372,-0.42529 -5.13366,1.43966 -5.17776,4 2.00313,-1.06354 5.05396,-1.98957 6.63261,-1.92989 0.64216,0 1.10422,0.0444 1.45487,0.20623 0.26523,0.12221 -0.34923,1.72366 -0.0875,1.72366 h 2.00002 c 0,0 0.0767,-1.97368 0.0415,-2.13615 -0.11001,-0.50683 0,-1.13098 0,-1.64998 0,-0.43168 0.11191,-0.98182 0.11191,-1.54666 0,-0.44315 0.13097,-0.81203 0.48371,-1.13698 0.13189,-0.12151 0.22383,-0.27494 0.33574,-0.41254 0.44088,-0.54161 -1.49487,0.24572 -2.01446,0.72453 0,0 -0.11191,-0.19587 -0.11191,-0.82499 0,-0.53779 -0.31299,-1.05044 -0.44765,-1.54674 -0.14919,-0.54988 -0.17813,-0.96598 -0.33573,-1.54674 -0.20709,-0.76332 -0.38504,-1.41914 -0.55957,-2.06243 -0.11922,-0.43942 -0.3351,-0.92572 -0.44765,-1.34043 -0.11351,-0.41845 -0.11191,-0.90162 -0.11191,-1.44376 0,-0.71087 0.0234,-0.90649 -0.33574,-1.23744 -0.5163,-0.47568 -1.54237,0.0888 -1.54237,0.51561 z"
         style="fill:#377d50;fill-rule:evenodd;stroke:none;stroke-width:0.81899"
         id="path217-5-1" />
      <path
         d="m 411.26935,504.81888 c -1.51975,0.32879 -2.09695,3.00094 -3.76092,2.97912 -2.01411,-0.0161 -4.53017,-0.0827 -6.8062,-0.91986 -2.11197,-0.0477 -2.58544,3.41512 -4.67033,3.1845 -1.60889,0.20463 -5.51113,2.01597 -6.21608,4.80851 -0.50686,1.7227 -0.23756,3.6509 0.92262,5.06087 1.42606,2.16025 3.23867,4.1384 5.45201,5.51798 1.62325,0.78836 3.48117,0.79066 5.17897,1.34543 0.29289,0.21856 0.91918,0.94519 1.13179,1.11884 l 0.0859,0.10912 c -0.85502,0.83957 -2.6562,1.37548 -1.69368,2.83642 0.56451,2.70571 3.3947,5.80929 5.71002,5.93819 2.31452,-0.17732 1.12898,-3.10323 1.90247,-4.47324 1.54646,-2.84691 4.0533,-0.99713 5.70744,0.26524 1.7416,1.1407 2.51968,-2.14751 4.14846,-0.729 1.11395,-0.502 2.51264,-2.33518 3.84661,-3.20182 1.0339,-1.44575 -0.53851,-3.69095 1.69568,-4.2949 1.44818,-1.09041 1.60024,-3.10433 2.86693,-4.36438 1.35559,-1.41365 1.05722,-4.46946 -1.41805,-4.1989 -1.61408,-0.0145 -4.67537,2.60762 -4.9896,-0.63334 -0.85229,-2.57655 -1.47604,-5.49211 -3.78294,-7.23121 -1.474,-1.59899 -3.94608,-3.06489 -5.3111,-3.11757 z"
         style="fill:url(#linearGradient4181);fill-opacity:1;fill-rule:evenodd;stroke:none;stroke-width:0.81899"
         id="path219-6-9" />
      <path
         d="m 400.57144,519.798 c 1.5561,1.25285 3.57058,2.22095 5.65337,2.20511 1.96894,-0.0856 3.95794,-1.80654 5.89828,-0.73077 1.55908,0.53198 3.51393,2.09809 1.75263,3.58534 -1.2376,0.6829 -2.56081,1.26668 -3.43112,2.39508 -1.32286,1.06128 -2.99504,1.61471 -4.53886,2.31196 -1.60006,0.88169 -3.06219,-0.97396 -3.47381,-1.61966 -0.0148,0.0151 -0.0365,0.026 -0.0517,0.0402 0,0 3.9e-4,0 0,0.0109 -8e-5,3.4e-4 -0.002,0 -0.002,0 4.1e-4,-4.2e-4 -4.3e-4,0 0,0 6.2e-4,-5.9e-4 0.002,0 0.002,0 1.4e-4,-0.0435 -0.0898,-0.20347 -0.33479,-0.56634 -1.38914,-1.41828 -1.55913,-3.63645 -1.3347,-5.48674 0.90852,-0.24495 0.19315,-1.38677 -0.13931,-2.13463 z"
         style="fill:#f57373;fill-opacity:1;fill-rule:evenodd;stroke:none;stroke-width:0.81899"
         id="path221-2-6" />
      <path
         d="m 410.51738,506.43616 c -0.88173,0.87822 -0.85518,2.58435 -2.34073,2.59192 1.3292,0.23232 1.292,1.02025 -0.0573,0.71392 -1.59757,-0.18205 -3.84111,-0.46769 -4.69145,1.27206 -1.0956,1.48429 -0.80092,3.36407 0.18287,4.78617 0.20809,2.16428 2.7382,0.58119 4.14146,0.86926 1.75754,-0.62268 3.75554,-2.11271 3.29845,-4.23551 -0.27947,-1.51316 2.0298,-1.02295 0.93408,-2.52368 -1.1092,-0.60189 -2.77255,-3.04486 -0.43733,-3.04625 2.3966,0.48021 3.38853,2.9537 4.87254,4.60404 1.15965,1.59997 1.89876,3.48801 1.95436,5.47469 0.25522,1.41227 1.07382,3.26004 -0.35327,4.32622 -1.48609,0.83439 1.52351,0.38966 1.22594,-0.81551 0.23922,-1.39548 2.30056,-2.74443 3.27665,-2.35747 -0.89329,0.67504 -3.08673,3.0099 -0.9223,3.40286 0.65194,0.0635 1.69783,0.2345 0.36783,0.12186 -1.85792,-0.64851 -3.519,0.60033 -4.44482,2.12263 -0.83761,0.45081 0.16427,-2.02173 -0.66393,-2.53047 0.73716,-2.05008 -0.56464,-4.05598 -2.43897,-4.91063 -1.68081,-0.38619 -2.23556,-3.17455 -2.56694,-3.83167 -0.27904,2.12001 -1.62783,3.83714 -3.78433,4.36441 1.49264,0.0426 2.90215,0.83482 4.45136,0.70844 0.85511,0.37322 3.43314,-0.35226 2.85167,1.00695 -1.85703,0.27337 -3.63872,-0.66452 -5.50301,-0.59806 -1.99013,-0.38984 -4.0341,-0.48743 -6.03592,-0.44803 -1.29438,-1.06018 -1.4888,-3.0813 -1.65498,-4.68197 -0.21358,-1.45967 1.50323,-2.61953 1.84756,-3.35867 -1.20814,-1.03079 -3.29469,0.0304 -3.94011,1.30398 -0.6615,1.36278 -1.4941,2.66693 -1.68581,4.19454 -0.5004,1.20274 -0.24382,2.78027 1.34521,2.65397 -0.42151,1.67138 -2.39498,-1.19413 -2.74525,-2.05939 -0.27149,-1.88395 1.2775,-3.37129 2.05687,-4.93107 1.23576,-1.09915 2.71862,-2.3325 4.43525,-2.3412 1.12968,-0.38123 1.72683,0.9652 2.76758,0.3547 1.99323,0.58084 3.06229,-0.21515 3.66374,-1.69056 0.16755,-0.20153 0.3454,-0.4048 0.59301,-0.51248 z"
         style="fill:#ffafa5;fill-rule:evenodd;stroke:none;stroke-width:0.81899"
         id="path223-9-2" />
      <g
         style="fill:#ffafa5;fill-rule:evenodd;stroke:none;stroke-width:0.81899"
         transform="matrix(0.86978533,0,0,0.86978533,387.63657,-370.51357)"
         id="g229-1-1">
        <path
           d="m 11.3769,1012.6819 c -0.9847,2.4591 -2.25062,5.5965 -0.416956,7.9734 1.16881,1.4944 3.22063,2.6262 2.74492,4.8443 -0.08076,1.4024 -0.157232,3.6558 -1.73141,1.9647 -1.77078,-0.83 -2.54551,-2.7184 -4.22154,-3.6934 -1.37302,-0.9062 -3.66733,-3.2481 -2.76168,-4.3284 0.85616,1.9235 2.42031,4.0852 4.7085,4.2034 2.91756,-0.2538 -0.83962,-2.882 -1.0226,-4.4495 -1.15239,-2.0516 -0.718753,-5.0231 1.51061,-6.1469 0.370468,-0.1921 0.775057,-0.3205 1.19015,-0.3676 z"
           style="fill:#ffafa5;stroke-width:0.81899"
           id="path225-2-2" />
        <path
           d="m 22.636,1013.8241 c 1.29924,-0.4252 3.56855,1.4002 3.37634,1.7651 -1.83607,-1.7127 -0.369981,1.1529 -0.853193,1.9031 0.812672,-1.3461 -1.93229,-3.1761 -2.03927,-2.1803 1.01603,0.4401 1.52376,2.156 0.454389,2.6726 1.18648,-1.1162 -0.48513,-3.1503 -1.50937,-1.9174 1.9058,1.6913 -2.92027,1.0786 -1.17005,-0.7514 0.366383,-0.6114 1.0615,-1.2572 1.74116,-1.4917 z"
           style="fill:#ffafa5;stroke-width:0.81899"
           id="path227-7-0" />
      </g>
      <path
         style="opacity:0.15;fill:#000000;fill-opacity:1;fill-rule:evenodd;stroke:none;stroke-width:0.81899"
         d="m 5.0292969,16.251953 c -0.1195965,1.380775 0.237899,2.788101 1.1386719,3.882813 1.42606,2.16025 3.2378318,4.137998 5.4511722,5.517578 1.62325,0.78836 3.481887,0.790933 5.179687,1.345703 0.168996,0.126108 0.430255,0.399574 0.677734,0.660156 0.19514,-0.139594 0.384024,-0.281356 0.539063,-0.433594 l -0.08594,-0.107421 c -0.212611,-0.17365 -0.83797,-0.900581 -1.13086,-1.119141 -1.6978,-0.55477 -3.556437,-0.557343 -5.179687,-1.345703 C 9.4058006,23.272764 7.5940288,21.295016 6.1679688,19.134766 5.4849168,18.304651 5.118162,17.293635 5.0292969,16.251953 Z m 37.9121091,1.351563 c -0.09265,0.591262 -0.331702,1.16959 -0.742187,1.597656 -1.26669,1.26005 -1.419008,3.274824 -2.867188,4.365234 -2.23419,0.60395 -0.661412,2.849172 -1.695312,4.294922 -1.33397,0.86664 -2.731753,2.699172 -3.845703,3.201172 -1.62878,-1.41851 -2.406838,1.871169 -4.148438,0.730469 -1.65414,-1.26237 -4.162524,-3.112535 -5.708984,-0.265625 -0.77349,1.37001 0.412176,4.295336 -1.902344,4.472656 -2.31532,-0.1289 -5.144474,-3.23179 -5.708984,-5.9375 -0.0656,-0.09957 -0.08781,-0.185981 -0.128907,-0.277344 -0.199056,0.34438 -0.219004,0.749275 0.128907,1.277344 0.56451,2.70571 3.393664,5.8086 5.708984,5.9375 2.31452,-0.17732 1.128854,-3.102646 1.902344,-4.472656 1.54646,-2.84691 4.054844,-0.996745 5.708984,0.265625 1.7416,1.1407 2.519658,-2.148979 4.148438,-0.730469 1.11395,-0.502 2.511733,-2.334532 3.845703,-3.201172 1.0339,-1.44575 -0.538878,-3.690972 1.695312,-4.294922 1.44818,-1.09041 1.600498,-3.105184 2.867188,-4.365234 0.646135,-0.67381 0.904209,-1.715719 0.742187,-2.597656 z"
         transform="translate(384.57143,499.798)"
         id="path231-0-7" />
    </g>
  </g>
</svg>
