<?xml version="1.0" encoding="UTF-8" standalone="no"?>
<svg
   width="68"
   height="68"
   viewBox="0 0 17.991665 17.991665"
   version="1.1"
   id="svg1114"
   inkscape:version="1.4.2 (unknown)"
   sodipodi:docname="sonic-visualiser.svg"
   xmlns:inkscape="http://www.inkscape.org/namespaces/inkscape"
   xmlns:sodipodi="http://sodipodi.sourceforge.net/DTD/sodipodi-0.dtd"
   xmlns:xlink="http://www.w3.org/1999/xlink"
   xmlns="http://www.w3.org/2000/svg"
   xmlns:svg="http://www.w3.org/2000/svg"
   xmlns:rdf="http://www.w3.org/1999/02/22-rdf-syntax-ns#"
   xmlns:cc="http://creativecommons.org/ns#"
   xmlns:dc="http://purl.org/dc/elements/1.1/">
  <style
     type="text/css"
     id="current-color-scheme">.ColorScheme-Highlight { color:#5599ff; }
</style>
  <defs
     id="defs1108">
    <linearGradient
       id="linearGradient12"
       inkscape:collect="always">
      <stop
         style="stop-color:#ffffff;stop-opacity:0;"
         offset="0"
         id="stop10" />
      <stop
         id="stop11"
         offset="0.65909404"
         style="stop-color:#ffffff;stop-opacity:0" />
      <stop
         style="stop-color:#ffffff;stop-opacity:1;"
         offset="1"
         id="stop12" />
    </linearGradient>
    <linearGradient
       id="linearGradient9"
       inkscape:collect="always">
      <stop
         style="stop-color:#000000;stop-opacity:0;"
         offset="0"
         id="stop1" />
      <stop
         id="stop8"
         offset="0.66102529"
         style="stop-color:#000000;stop-opacity:0" />
      <stop
         style="stop-color:#000000;stop-opacity:1;"
         offset="1"
         id="stop9" />
    </linearGradient>
    <linearGradient
       id="linearGradient7"
       inkscape:collect="always">
      <stop
         style="stop-color:#000000;stop-opacity:0;"
         offset="0"
         id="stop5" />
      <stop
         id="stop6"
         offset="0.6586886"
         style="stop-color:#000000;stop-opacity:0" />
      <stop
         style="stop-color:#000000;stop-opacity:1;"
         offset="1"
         id="stop7" />
    </linearGradient>
    <linearGradient
       id="linearGradient4"
       inkscape:collect="always">
      <stop
         style="stop-color:#000000;stop-opacity:0;"
         offset="0"
         id="stop2" />
      <stop
         id="stop3"
         offset="0.67055255"
         style="stop-color:#000000;stop-opacity:0" />
      <stop
         style="stop-color:#000000;stop-opacity:1;"
         offset="1"
         id="stop4" />
    </linearGradient>
    <linearGradient
       inkscape:collect="always"
       id="linearGradient899">
      <stop
         style="stop-color:#566592;stop-opacity:1;"
         offset="0"
         id="stop895" />
      <stop
         style="stop-color:#4c5580;stop-opacity:1;"
         offset="1"
         id="stop897" />
    </linearGradient>
    <linearGradient
       id="linearGradient1167"
       x1="40.751999"
       x2="40.751999"
       y1="28.507999"
       y2="17.205999"
       gradientUnits="userSpaceOnUse">
      <stop
         style="stop-color:#84fb6e;stop-opacity:1"
         stop-color="#0ab816"
         offset="0"
         id="stop1163" />
      <stop
         style="stop-color:#0dd41a;stop-opacity:1"
         stop-color="#0cf36c"
         offset="1"
         id="stop1165" />
    </linearGradient>
    <linearGradient
       id="cornerBevel"
       inkscape:collect="always">
      <stop
         style="stop-color:#000000;stop-opacity:0;"
         offset="0"
         id="stop2663" />
      <stop
         id="stop2671"
         offset="0.66666675"
         style="stop-color:#000000;stop-opacity:0" />
      <stop
         style="stop-color:#000000;stop-opacity:1;"
         offset="1"
         id="stop2661" />
    </linearGradient>
    <linearGradient
       id="bevel"
       inkscape:collect="always">
      <stop
         id="stop2685"
         offset="0"
         style="stop-color:#000000;stop-opacity:1;" />
      <stop
         id="stop2687"
         offset="1"
         style="stop-color:#000000;stop-opacity:0;" />
    </linearGradient>
    <linearGradient
       id="highlightCorner"
       inkscape:collect="always">
      <stop
         style="stop-color:#ffffff;stop-opacity:0;"
         offset="0"
         id="stop2613" />
      <stop
         id="stop2621"
         offset="0.66666669"
         style="stop-color:#ffffff;stop-opacity:0" />
      <stop
         style="stop-color:#ffffff;stop-opacity:1;"
         offset="1"
         id="stop2611" />
    </linearGradient>
    <linearGradient
       inkscape:collect="always"
       id="highlight">
      <stop
         style="stop-color:#ffffff;stop-opacity:1;"
         offset="0"
         id="stop2921" />
      <stop
         style="stop-color:#ffffff;stop-opacity:0;"
         offset="1"
         id="stop2923" />
    </linearGradient>
    <radialGradient
       inkscape:collect="always"
       xlink:href="#highlightCorner"
       id="radialGradient15"
       gradientUnits="userSpaceOnUse"
       gradientTransform="matrix(0.04294597,-12.079348,17.933991,0.06376112,14.524179,-50.373789)"
       cx="-4.5799766"
       cy="-0.50206107"
       fx="-4.5799766"
       fy="-0.50206107"
       r="0.39687499" />
    <linearGradient
       inkscape:collect="always"
       xlink:href="#highlight"
       id="linearGradient15"
       gradientUnits="userSpaceOnUse"
       x1="-3.8453064"
       y1="-1.1532172"
       x2="-3.8453064"
       y2="-0.8954913"
       gradientTransform="matrix(6.0923077,0,0,6.0923077,32.228528,7.1537621)" />
    <radialGradient
       inkscape:collect="always"
       xlink:href="#linearGradient12"
       id="radialGradient17"
       gradientUnits="userSpaceOnUse"
       gradientTransform="matrix(-0.02247554,-12.045403,-17.967828,0.03352619,1.6640208,-50.22331)"
       cx="-4.575222"
       cy="-0.55256462"
       fx="-4.575222"
       fy="-0.55256462"
       r="0.39687499" />
    <radialGradient
       inkscape:collect="always"
       xlink:href="#linearGradient7"
       id="radialGradient18"
       gradientUnits="userSpaceOnUse"
       gradientTransform="matrix(0.06461187,12.09952,17.933731,-0.09576873,14.609502,64.748231)"
       cx="-4.4284906"
       cy="-0.50121039"
       fx="-4.4284906"
       fy="-0.50121039"
       r="0.39687499" />
    <linearGradient
       inkscape:collect="always"
       xlink:href="#bevel"
       id="linearGradient18"
       gradientUnits="userSpaceOnUse"
       x1="-3.8415797"
       y1="-1.4506671"
       x2="-3.8406549"
       y2="-1.1968651"
       gradientTransform="matrix(6.0923076,0,0,6.0923076,32.228527,-7.1537627)" />
    <radialGradient
       inkscape:collect="always"
       xlink:href="#linearGradient4"
       id="radialGradient20"
       gradientUnits="userSpaceOnUse"
       gradientTransform="matrix(-0.01031383,11.991438,-17.967296,-0.01545561,1.7353715,64.305742)"
       cx="-4.4236727"
       cy="-0.55004197"
       fx="-4.4236727"
       fy="-0.55004197"
       r="0.39687499" />
    <radialGradient
       inkscape:collect="always"
       xlink:href="#cornerBevel"
       id="radialGradient25"
       gradientUnits="userSpaceOnUse"
       gradientTransform="matrix(12.184614,0,0,12.184614,59.63122,10.377613)"
       cx="-4.4568658"
       cy="-0.44864327"
       fx="-4.4568658"
       fy="-0.44864327"
       r="0.39687496" />
    <linearGradient
       inkscape:collect="always"
       xlink:href="#bevel"
       id="linearGradient25"
       gradientUnits="userSpaceOnUse"
       x1="-3.8487544"
       y1="-1.146081"
       x2="-3.8455966"
       y2="-0.890971"
       gradientTransform="matrix(6.0923077,0,0,6.0923077,32.228528,7.1537627)" />
    <radialGradient
       inkscape:collect="always"
       xlink:href="#cornerBevel"
       id="radialGradient29"
       gradientUnits="userSpaceOnUse"
       gradientTransform="matrix(0,-12.184614,12.184614,0,11.27353,-44.427768)"
       cx="-4.5705457"
       cy="-0.48653662"
       fx="-4.5705457"
       fy="-0.48653662"
       r="0.39687496" />
    <radialGradient
       inkscape:collect="always"
       xlink:href="#cornerBevel"
       id="radialGradient30"
       gradientUnits="userSpaceOnUse"
       gradientTransform="matrix(-12.184514,-0.04945749,0.04847411,-11.942243,-43.502155,3.8519053)"
       cx="-4.5342312"
       cy="-0.60337442"
       fx="-4.5342312"
       fy="-0.60337442"
       r="0.39687496" />
    <radialGradient
       inkscape:collect="always"
       xlink:href="#linearGradient9"
       id="radialGradient31"
       gradientUnits="userSpaceOnUse"
       gradientTransform="matrix(0,-12.151612,11.978956,0,18.475664,-48.770776)"
       cx="-4.4175329"
       cy="-0.56489283"
       fx="-4.4175329"
       fy="-0.56489283"
       r="0.39687496" />
    <linearGradient
       inkscape:collect="always"
       xlink:href="#bevel"
       id="linearGradient34"
       gradientUnits="userSpaceOnUse"
       x1="-3.99717"
       y1="-1.2218677"
       x2="-4.0003276"
       y2="-0.96675771"
       gradientTransform="matrix(6.0923077,0,0,6.0923077,17.025077,8.0496826)" />
    <linearGradient
       inkscape:collect="always"
       xlink:href="#bevel"
       id="linearGradient35"
       gradientUnits="userSpaceOnUse"
       x1="-4.0919032"
       y1="-1.4492278"
       x2="-4.0950613"
       y2="-1.1972755"
       gradientTransform="matrix(6.0923077,0,0,6.0923077,16.129161,-7.1537627)" />
    <linearGradient
       inkscape:collect="always"
       xlink:href="#bevel"
       id="linearGradient36"
       gradientUnits="userSpaceOnUse"
       x1="-3.8734362"
       y1="-1.3717227"
       x2="-3.8765941"
       y2="-1.116071"
       gradientTransform="matrix(6.0923077,0,0,6.0923077,31.33261,-8.0496826)" />
    <linearGradient
       id="paint2_linear_77:3-7"
       x1="79.398094"
       y1="-197.84389"
       x2="82.901054"
       y2="-199.97827"
       gradientUnits="userSpaceOnUse"
       gradientTransform="matrix(1.9248511,0,0,1.7314595,-40.88733,399.61741)">
      <stop
         stop-color="#EBFAFF"
         stop-opacity="0.1"
         id="stop29-5-7"
         offset="0"
         style="stop-color:#c3c3c3;stop-opacity:1;" />
      <stop
         offset="1"
         stop-color="#70A9FF"
         stop-opacity="0.5"
         id="stop30-0-1"
         style="stop-color:#05c7ff;stop-opacity:0.80000001;" />
    </linearGradient>
    <linearGradient
       inkscape:collect="always"
       xlink:href="#linearGradient899"
       id="linearGradient926"
       x1="1.1249832"
       y1="-9.2589808"
       x2="16.919081"
       y2="-9.2251434"
       gradientUnits="userSpaceOnUse"
       gradientTransform="translate(-0.92604234,0.47624996)" />
    <linearGradient
       xlink:href="#bevel"
       id="linearGradient4304-3"
       x1="26.929001"
       y1="5.9949999"
       x2="47.120998"
       y2="37.126999"
       gradientUnits="userSpaceOnUse"
       gradientTransform="matrix(0.27781247,0,0,0.27781247,0.74083456,0.740834)" />
  </defs>
  <sodipodi:namedview
     id="base"
     pagecolor="#e2e2e2"
     bordercolor="#666666"
     borderopacity="1.0"
     inkscape:pageopacity="0"
     inkscape:pageshadow="2"
     inkscape:zoom="6.8765236"
     inkscape:cx="31.847488"
     inkscape:cy="25.521617"
     inkscape:document-units="px"
     inkscape:current-layer="layer1"
     inkscape:document-rotation="0"
     showgrid="true"
     units="px"
     inkscape:window-width="1920"
     inkscape:window-height="990"
     inkscape:window-x="0"
     inkscape:window-y="0"
     inkscape:window-maximized="1"
     inkscape:object-paths="true"
     inkscape:snap-grids="true"
     inkscape:snap-intersection-paths="true"
     inkscape:snap-smooth-nodes="true"
     inkscape:snap-midpoints="true"
     inkscape:showpageshadow="2"
     inkscape:pagecheckerboard="0"
     inkscape:deskcolor="#d1d1d1">
    <inkscape:grid
       id="grid2"
       units="px"
       originx="0"
       originy="0"
       spacingx="0.26458333"
       spacingy="0.26458333"
       empcolor="#0099e5"
       empopacity="0.30196078"
       color="#0099e5"
       opacity="0.14902"
       empspacing="5"
       dotted="false"
       gridanglex="30"
       gridanglez="30"
       visible="true" />
  </sodipodi:namedview>
  <metadata
     id="metadata1111">
    <rdf:RDF>
      <cc:Work
         rdf:about="">
        <dc:format>image/svg+xml</dc:format>
        <dc:type
           rdf:resource="http://purl.org/dc/dcmitype/StillImage" />
      </cc:Work>
    </rdf:RDF>
  </metadata>
  <g
     inkscape:label="Layer 1"
     inkscape:groupmode="layer"
     id="layer1">
    <g
       id="g918"
       transform="translate(0.47625037,0.92604234)">
      <rect
         ry="4.8357682"
         rx="4.8357682"
         style="fill:url(#linearGradient926);fill-opacity:1;stroke-width:6.09228"
         x="0.13229237"
         y="-16.457085"
         width="15.875001"
         height="15.875001"
         id="use1056"
         transform="rotate(90)"
         class="ColorScheme-Highlight" />
      <path
         d="m 5.344583,0.13229167 c -2.6384245,0 -4.76249953,2.12407483 -4.76249953,4.76249963 H 5.344583 Z"
         style="opacity:0.15;fill:url(#radialGradient25);fill-opacity:1;stroke-width:6.09228"
         id="path20" />
      <rect
         y="0.13229151"
         x="5.3445826"
         height="1.5875"
         width="6.3500004"
         id="rect20"
         style="opacity:0.15;fill:url(#linearGradient25);fill-opacity:1;stroke-width:4.83577;stroke-linecap:round;stroke-linejoin:round;paint-order:stroke fill markers" />
      <path
         d="m 0.58208347,11.244792 c 0,2.638424 2.12407503,4.762499 4.76249953,4.762499 v -4.762499 z"
         style="opacity:0.15;fill:url(#radialGradient29);fill-opacity:1;stroke-width:6.09228"
         id="use20" />
      <rect
         y="0.5820834"
         x="-11.244792"
         height="1.5875"
         width="6.3500004"
         id="use21"
         style="opacity:0.15;fill:url(#linearGradient34);fill-opacity:1;stroke-width:4.83577;stroke-linecap:round;stroke-linejoin:round;paint-order:stroke fill markers"
         transform="rotate(-90)" />
      <path
         d="m 11.694583,16.007291 c 2.638425,0 4.7625,-2.124074 4.7625,-4.762499 h -4.7625 z"
         style="opacity:0.15;fill:url(#radialGradient30);fill-opacity:1;stroke-width:6.09228"
         id="use22" />
      <rect
         y="-16.007292"
         x="-11.694584"
         height="1.5875"
         width="6.3500004"
         id="use23"
         style="opacity:0.15;fill:url(#linearGradient35);fill-opacity:1;stroke-width:4.83577;stroke-linecap:round;stroke-linejoin:round;paint-order:stroke fill markers"
         transform="scale(-1)" />
      <path
         d="m 16.457083,4.8947913 c 0,-2.6384245 -2.124074,-4.76249963 -4.7625,-4.76249963 V 4.8947913 Z"
         style="opacity:0.15;fill:url(#radialGradient31);fill-opacity:1;stroke-width:6.09228"
         id="use24" />
      <rect
         y="-16.457081"
         x="4.8947906"
         height="1.5875"
         width="6.3500004"
         id="use25"
         style="opacity:0.15;fill:url(#linearGradient36);fill-opacity:1;stroke-width:4.83577;stroke-linecap:round;stroke-linejoin:round;paint-order:stroke fill markers"
         transform="rotate(90)" />
      <path
         d="m 5.3445832,0.13229107 c -2.638425,0 -4.76250035,2.12407473 -4.76250035,4.76249973 H 5.3445832 Z"
         style="opacity:0.5;fill:url(#radialGradient15);fill-opacity:1;stroke-width:6.09228"
         id="path14" />
      <rect
         y="0.1322909"
         x="5.3445826"
         height="1.5875"
         width="6.3499999"
         id="rect14"
         style="opacity:0.5;fill:url(#linearGradient15);fill-opacity:1;stroke-width:4.83577;stroke-linecap:round;stroke-linejoin:round;paint-order:stroke fill markers" />
      <path
         d="m 11.694583,0.13229096 c 2.638425,0 4.7625,2.12407504 4.7625,4.76249734 h -4.7625 z"
         style="opacity:0.5;fill:url(#radialGradient17);fill-opacity:1;stroke-width:6.09228"
         id="use14" />
      <path
         id="path17"
         style="opacity:0.5;fill:url(#radialGradient18);fill-opacity:1;stroke-width:6.09228"
         d="m 5.3445834,16.00729 c -2.638425,0 -4.7625,-2.124075 -4.7625,-4.7625 h 4.7625 z" />
      <rect
         style="opacity:0.5;fill:url(#linearGradient18);fill-opacity:1;stroke-width:4.83577;stroke-linecap:round;stroke-linejoin:round;paint-order:stroke fill markers"
         id="rect17"
         width="6.3499994"
         height="1.5874999"
         x="5.3445826"
         y="-16.007292"
         transform="scale(1,-1)" />
      <path
         id="use17"
         style="opacity:0.5;fill:url(#radialGradient20);fill-opacity:1;stroke-width:6.09228"
         d="m 11.694582,16.007291 c 2.638425,0 4.7625,-2.124075 4.7625,-4.7625 h -4.7625 z" />
    </g>
    <path
       d="m 8.998101,4.7624996 c -0.1832984,0 -0.2782304,0.1169156 -0.3182724,0.1764207 -0.040062,0.0595 -0.056233,0.104122 -0.072133,0.1508313 C 8.575968,5.1828131 8.5552082,5.2820972 8.5335011,5.4045564 8.4900238,5.6494757 8.4502828,5.9788075 8.4113027,6.3721399 8.2669793,8.0232407 8.1675611,9.531174 8.0443178,11.060546 7.9134794,9.8359359 7.8330569,8.5951365 7.6897994,7.3863606 7.6494106,7.0490802 7.6086779,6.7664531 7.5631124,6.5519724 7.5403296,6.4447374 7.5182361,6.3565151 7.4830265,6.2690046 7.4654203,6.225079 7.4464354,6.1807955 7.4015592,6.1244097 7.3566839,6.0680196 7.2576105,5.9735772 7.0995061,5.9735772 c -0.1222015,0 -0.2171305,0.060553 -0.2682232,0.1086276 -0.05144,0.048079 -0.077331,0.090972 -0.099064,0.1304183 C 6.6887249,6.2918451 6.6645569,6.3655209 6.6390169,6.451659 6.5882649,6.6239297 6.5444239,6.8404908 6.5002397,7.0982089 6.330052,8.1903174 6.2113103,9.1945098 6.0625336,10.215009 5.9724365,9.6276209 5.9216906,9.0066625 5.8481696,8.4279269 5.824697,8.2456242 5.8019119,8.0920204 5.7760229,7.9692206 5.7632506,7.9076447 5.7515141,7.8557529 5.7273506,7.7941733 5.7152815,7.7633847 5.7028421,7.7305205 5.6652137,7.6807053 5.6275872,7.6308922 5.5368007,7.5312599 5.37318,7.5312599 c -0.1259978,0 -0.1984855,0.050504 -0.2454423,0.086499 -0.046944,0.03598 -0.074909,0.068503 -0.1011472,0.1006546 -0.052129,0.063988 -0.092174,0.1290391 -0.1342813,0.202018 -0.084227,0.1463321 -0.1708783,0.3220589 -0.2561407,0.4946873 -0.08561,0.1726153 -0.1701872,0.3424709 -0.2361142,0.4545633 -0.013771,0.023186 -0.018295,0.028034 -0.029687,0.045309 H 1.0668432 c -0.0049,0.1148549 -0.00851,0.2300396 -0.00851,0.3459354 0,0.115889 0.0039,0.2310929 0.00851,0.3459414 h 3.4433934 c 0.2395714,0 0.2920339,-0.1176245 0.3452007,-0.1823081 0.05419,-0.064674 0.09561,-0.1311204 0.1387655,-0.2047928 0.067659,-0.1152045 0.135314,-0.2532221 0.2029741,-0.3884822 0.035549,0.3054561 0.070763,0.6254553 0.111836,0.9876441 0.054187,0.4780861 0.1139177,0.9575451 0.1846822,1.3332541 0.03555,0.187845 0.072143,0.345932 0.1225442,0.48569 0.025199,0.06911 0.051441,0.133516 0.1039016,0.205487 0.052461,0.072 0.1619012,0.185072 0.3417425,0.185072 0.1222004,0 0.21713,-0.06054 0.2682226,-0.108631 0.051441,-0.0481 0.07733,-0.09091 0.099064,-0.130444 0.04349,-0.07918 0.06766,-0.152903 0.093198,-0.239041 0.05075,-0.17227 0.094592,-0.388834 0.138766,-0.646554 0.15431,-1.0066565 0.2706381,-1.9195231 0.3990481,-2.8405204 0.1622407,1.4553741 0.2426754,2.8473324 0.4125103,4.2823034 0.040374,0.337278 0.081113,0.619906 0.1266878,0.834384 0.022787,0.107251 0.044885,0.195459 0.080076,0.28297 0.017598,0.04381 0.036594,0.08828 0.081478,0.144596 0.044885,0.05626 0.1446403,0.150834 0.3027443,0.150834 0.1832996,0 0.2775369,-0.116926 0.3175811,-0.176417 0.040052,-0.05955 0.056253,-0.104002 0.072135,-0.150836 0.031728,-0.09299 0.053181,-0.192348 0.074894,-0.314803 0.043472,-0.244922 0.082519,-0.574251 0.1215076,-0.967572 0.1360047,-1.565723 0.2343914,-2.9819982 0.345201,-4.414747 0.1297911,1.476812 0.2040177,2.95428 0.3451991,4.41475 0.038624,0.393335 0.078009,0.72265 0.121516,0.967572 0.021776,0.122432 0.042772,0.221745 0.074884,0.314804 0.015905,0.04676 0.032075,0.09128 0.072122,0.150836 0.040074,0.05955 0.1342827,0.176418 0.3175797,0.176418 0.158103,0 0.257867,-0.09421 0.302747,-0.150836 0.04482,-0.05628 0.06389,-0.100708 0.08148,-0.144594 0.03553,-0.08761 0.05735,-0.175741 0.08004,-0.282972 0.04571,-0.214478 0.08619,-0.497105 0.126667,-0.834381 0.163617,-1.496168 0.266831,-2.8739996 0.412506,-4.2823059 0.147397,0.9478543 0.240958,1.9077683 0.399046,2.8405349 0.04407,0.257718 0.08809,0.474278 0.138748,0.646552 0.02511,0.08602 0.04961,0.160166 0.09326,0.23904 0.02187,0.03949 0.04762,0.08209 0.09918,0.13043 0.05154,0.0481 0.14602,0.108631 0.268226,0.108631 0.179853,0 0.289274,-0.113154 0.341744,-0.185074 0.05254,-0.072 0.07837,-0.136324 0.103773,-0.205488 0.0507,-0.138364 0.08735,-0.298196 0.122521,-0.485692 0.07112,-0.375683 0.130512,-0.854799 0.184687,-1.3332501 0.04246,-0.3732638 0.07902,-0.7064025 0.115245,-1.017389 0.0682,0.1432234 0.136388,0.289204 0.204351,0.4113106 0.04083,0.073338 0.08,0.1383677 0.132197,0.2041027 0.05227,0.06541 0.103132,0.1899147 0.348641,0.1899147 h 3.443397 c 0.0048,-0.1148585 0.0086,-0.2300459 0.0086,-0.3459412 0,-0.1158896 -0.0038,-0.2310855 -0.0086,-0.3459352 h -3.296299 c -0.0095,-0.015577 -0.01271,-0.018683 -0.02412,-0.038396 C 13.541995,8.7638345 13.461472,8.5936441 13.377941,8.4192899 13.294401,8.2449366 13.208446,8.0671294 13.118362,7.9159583 13.073082,7.8405473 13.028922,7.772056 12.967846,7.7045881 12.906766,7.6371441 12.825278,7.5316209 12.618511,7.5316209 c -0.163623,0 -0.254406,0.099285 -0.292035,0.1494456 -0.03756,0.049818 -0.04997,0.082676 -0.06203,0.1134698 -0.02386,0.061567 -0.03555,0.1134708 -0.04861,0.1750465 -0.02574,0.1228077 -0.04861,0.2764033 -0.07212,0.4587077 -0.04698,0.364607 -0.09535,0.8395791 -0.149122,1.3128554 -0.01959,0.1750456 -0.04409,0.3065001 -0.06532,0.4742781 C 11.762511,9.163436 11.667239,8.1363755 11.491518,7.0986182 11.447408,6.8408998 11.403468,6.6243387 11.35277,6.4520645 11.32766,6.3659392 11.30315,6.291897 11.25951,6.2130283 11.23764,6.1735783 11.21189,6.1310493 11.16033,6.08261 11.10883,6.03453 11.014308,5.9739755 10.89211,5.9739755 c -0.158106,0 -0.257171,0.094094 -0.302057,0.1508328 -0.04486,0.056395 -0.06397,0.1006545 -0.08157,0.1445949 -0.03555,0.087534 -0.05738,0.1757401 -0.08,0.2829682 -0.04567,0.2144778 -0.08619,0.4971041 -0.126638,0.8343864 C 10.162797,8.6933508 10.059919,9.8706059 9.9473873,11.06095 9.8055199,9.4803194 9.7323399,7.937215 9.5804417,6.372539 9.5417833,5.979207 9.5020862,5.6498899 9.4582448,5.4049688 9.4364874,5.2825045 9.4161362,5.1832316 9.3840415,5.0901644 9.3681566,5.0434585 9.351946,4.9988306 9.3119029,4.9393329 9.2718492,4.8798334 9.1769312,4.7629123 8.9936295,4.7629123 Z"
       fill="#b2e567"
       stroke-width="0.352773"
       id="path2"
       style="fill:#9b73d9;fill-opacity:1;stroke-width:1.21706" />
  </g>
</svg>
