<?xml version="1.0" encoding="UTF-8" standalone="no"?>
<svg
   width="68"
   height="68"
   viewBox="0 0 17.991665 17.991665"
   version="1.1"
   id="svg1114"
   inkscape:version="1.3.2 (091e20ef0f, 2023-11-25)"
   sodipodi:docname="distributor-logo-pop-os.svg"
   xmlns:inkscape="http://www.inkscape.org/namespaces/inkscape"
   xmlns:sodipodi="http://sodipodi.sourceforge.net/DTD/sodipodi-0.dtd"
   xmlns:xlink="http://www.w3.org/1999/xlink"
   xmlns="http://www.w3.org/2000/svg"
   xmlns:svg="http://www.w3.org/2000/svg"
   xmlns:rdf="http://www.w3.org/1999/02/22-rdf-syntax-ns#"
   xmlns:cc="http://creativecommons.org/ns#"
   xmlns:dc="http://purl.org/dc/elements/1.1/">
  <style
     type="text/css"
     id="current-color-scheme">.ColorScheme-Highlight { color:#5599ff; }
</style>
  <defs
     id="defs1108">
    <linearGradient
       id="linearGradient12"
       inkscape:collect="always">
      <stop
         style="stop-color:#ffffff;stop-opacity:0;"
         offset="0"
         id="stop10" />
      <stop
         id="stop11"
         offset="0.65909404"
         style="stop-color:#ffffff;stop-opacity:0" />
      <stop
         style="stop-color:#ffffff;stop-opacity:1;"
         offset="1"
         id="stop12" />
    </linearGradient>
    <linearGradient
       id="linearGradient9"
       inkscape:collect="always">
      <stop
         style="stop-color:#000000;stop-opacity:0;"
         offset="0"
         id="stop1" />
      <stop
         id="stop8"
         offset="0.66102529"
         style="stop-color:#000000;stop-opacity:0" />
      <stop
         style="stop-color:#000000;stop-opacity:1;"
         offset="1"
         id="stop9" />
    </linearGradient>
    <linearGradient
       id="linearGradient7"
       inkscape:collect="always">
      <stop
         style="stop-color:#000000;stop-opacity:0;"
         offset="0"
         id="stop5" />
      <stop
         id="stop6"
         offset="0.6586886"
         style="stop-color:#000000;stop-opacity:0" />
      <stop
         style="stop-color:#000000;stop-opacity:1;"
         offset="1"
         id="stop7" />
    </linearGradient>
    <linearGradient
       id="linearGradient4"
       inkscape:collect="always">
      <stop
         style="stop-color:#000000;stop-opacity:0;"
         offset="0"
         id="stop2" />
      <stop
         id="stop3"
         offset="0.67055255"
         style="stop-color:#000000;stop-opacity:0" />
      <stop
         style="stop-color:#000000;stop-opacity:1;"
         offset="1"
         id="stop4" />
    </linearGradient>
    <linearGradient
       inkscape:collect="always"
       id="linearGradient899">
      <stop
         style="stop-color:#ffdd55;stop-opacity:1"
         offset="0"
         id="stop895" />
      <stop
         style="stop-color:#00aad4;stop-opacity:1;"
         offset="0.51972502"
         id="stop13" />
      <stop
         style="stop-color:#4cb5ab;stop-opacity:1;"
         offset="1"
         id="stop897" />
    </linearGradient>
    <linearGradient
       id="linearGradient1167"
       x1="40.751999"
       x2="40.751999"
       y1="28.507999"
       y2="17.205999"
       gradientUnits="userSpaceOnUse">
      <stop
         style="stop-color:#84fb6e;stop-opacity:1"
         stop-color="#0ab816"
         offset="0"
         id="stop1163" />
      <stop
         style="stop-color:#0dd41a;stop-opacity:1"
         stop-color="#0cf36c"
         offset="1"
         id="stop1165" />
    </linearGradient>
    <linearGradient
       id="cornerBevel"
       inkscape:collect="always">
      <stop
         style="stop-color:#000000;stop-opacity:0;"
         offset="0"
         id="stop2663" />
      <stop
         id="stop2671"
         offset="0.66666675"
         style="stop-color:#000000;stop-opacity:0" />
      <stop
         style="stop-color:#000000;stop-opacity:1;"
         offset="1"
         id="stop2661" />
    </linearGradient>
    <linearGradient
       id="bevel"
       inkscape:collect="always">
      <stop
         id="stop2685"
         offset="0"
         style="stop-color:#000000;stop-opacity:1;" />
      <stop
         id="stop2687"
         offset="1"
         style="stop-color:#000000;stop-opacity:0;" />
    </linearGradient>
    <linearGradient
       id="highlightCorner"
       inkscape:collect="always">
      <stop
         style="stop-color:#ffffff;stop-opacity:0;"
         offset="0"
         id="stop2613" />
      <stop
         id="stop2621"
         offset="0.66666669"
         style="stop-color:#ffffff;stop-opacity:0" />
      <stop
         style="stop-color:#ffffff;stop-opacity:1;"
         offset="1"
         id="stop2611" />
    </linearGradient>
    <linearGradient
       inkscape:collect="always"
       id="highlight">
      <stop
         style="stop-color:#ffffff;stop-opacity:1;"
         offset="0"
         id="stop2921" />
      <stop
         style="stop-color:#ffffff;stop-opacity:0;"
         offset="1"
         id="stop2923" />
    </linearGradient>
    <radialGradient
       inkscape:collect="always"
       xlink:href="#highlightCorner"
       id="radialGradient15"
       gradientUnits="userSpaceOnUse"
       gradientTransform="matrix(0.04294597,-12.079348,17.933991,0.06376112,14.524179,-50.373789)"
       cx="-4.5799766"
       cy="-0.50206107"
       fx="-4.5799766"
       fy="-0.50206107"
       r="0.39687499" />
    <linearGradient
       inkscape:collect="always"
       xlink:href="#highlight"
       id="linearGradient15"
       gradientUnits="userSpaceOnUse"
       x1="-3.8453064"
       y1="-1.1532172"
       x2="-3.8453064"
       y2="-0.8954913"
       gradientTransform="matrix(6.0923077,0,0,6.0923077,32.228528,7.1537621)" />
    <radialGradient
       inkscape:collect="always"
       xlink:href="#linearGradient12"
       id="radialGradient17"
       gradientUnits="userSpaceOnUse"
       gradientTransform="matrix(-0.02247554,-12.045403,-17.967828,0.03352619,1.6640208,-50.22331)"
       cx="-4.575222"
       cy="-0.55256462"
       fx="-4.575222"
       fy="-0.55256462"
       r="0.39687499" />
    <radialGradient
       inkscape:collect="always"
       xlink:href="#linearGradient7"
       id="radialGradient18"
       gradientUnits="userSpaceOnUse"
       gradientTransform="matrix(0.06461187,12.09952,17.933731,-0.09576873,14.609502,64.748231)"
       cx="-4.4284906"
       cy="-0.50121039"
       fx="-4.4284906"
       fy="-0.50121039"
       r="0.39687499" />
    <linearGradient
       inkscape:collect="always"
       xlink:href="#bevel"
       id="linearGradient18"
       gradientUnits="userSpaceOnUse"
       x1="-3.8415797"
       y1="-1.4506671"
       x2="-3.8406549"
       y2="-1.1968651"
       gradientTransform="matrix(6.0923076,0,0,6.0923076,32.228527,-7.1537627)" />
    <radialGradient
       inkscape:collect="always"
       xlink:href="#linearGradient4"
       id="radialGradient20"
       gradientUnits="userSpaceOnUse"
       gradientTransform="matrix(-0.01031383,11.991438,-17.967296,-0.01545561,1.7353715,64.305742)"
       cx="-4.4236727"
       cy="-0.55004197"
       fx="-4.4236727"
       fy="-0.55004197"
       r="0.39687499" />
    <radialGradient
       inkscape:collect="always"
       xlink:href="#cornerBevel"
       id="radialGradient25"
       gradientUnits="userSpaceOnUse"
       gradientTransform="matrix(12.184614,0,0,12.184614,59.63122,10.377613)"
       cx="-4.4568658"
       cy="-0.44864327"
       fx="-4.4568658"
       fy="-0.44864327"
       r="0.39687496" />
    <linearGradient
       inkscape:collect="always"
       xlink:href="#bevel"
       id="linearGradient25"
       gradientUnits="userSpaceOnUse"
       x1="-3.8487544"
       y1="-1.146081"
       x2="-3.8455966"
       y2="-0.890971"
       gradientTransform="matrix(6.0923077,0,0,6.0923077,32.228528,7.1537627)" />
    <radialGradient
       inkscape:collect="always"
       xlink:href="#cornerBevel"
       id="radialGradient29"
       gradientUnits="userSpaceOnUse"
       gradientTransform="matrix(0,-12.184614,12.184614,0,11.27353,-44.427768)"
       cx="-4.5705457"
       cy="-0.48653662"
       fx="-4.5705457"
       fy="-0.48653662"
       r="0.39687496" />
    <radialGradient
       inkscape:collect="always"
       xlink:href="#cornerBevel"
       id="radialGradient30"
       gradientUnits="userSpaceOnUse"
       gradientTransform="matrix(-12.184514,-0.04945749,0.04847411,-11.942243,-43.502155,3.8519053)"
       cx="-4.5342312"
       cy="-0.60337442"
       fx="-4.5342312"
       fy="-0.60337442"
       r="0.39687496" />
    <radialGradient
       inkscape:collect="always"
       xlink:href="#linearGradient9"
       id="radialGradient31"
       gradientUnits="userSpaceOnUse"
       gradientTransform="matrix(0,-12.151612,11.978956,0,18.475664,-48.770776)"
       cx="-4.4175329"
       cy="-0.56489283"
       fx="-4.4175329"
       fy="-0.56489283"
       r="0.39687496" />
    <linearGradient
       inkscape:collect="always"
       xlink:href="#bevel"
       id="linearGradient34"
       gradientUnits="userSpaceOnUse"
       x1="-3.99717"
       y1="-1.2218677"
       x2="-4.0003276"
       y2="-0.96675771"
       gradientTransform="matrix(6.0923077,0,0,6.0923077,17.025077,8.0496826)" />
    <linearGradient
       inkscape:collect="always"
       xlink:href="#bevel"
       id="linearGradient35"
       gradientUnits="userSpaceOnUse"
       x1="-4.0919032"
       y1="-1.4492278"
       x2="-4.0950613"
       y2="-1.1972755"
       gradientTransform="matrix(6.0923077,0,0,6.0923077,16.129161,-7.1537627)" />
    <linearGradient
       inkscape:collect="always"
       xlink:href="#bevel"
       id="linearGradient36"
       gradientUnits="userSpaceOnUse"
       x1="-3.8734362"
       y1="-1.3717227"
       x2="-3.8765941"
       y2="-1.116071"
       gradientTransform="matrix(6.0923077,0,0,6.0923077,31.33261,-8.0496826)" />
    <linearGradient
       id="paint2_linear_77:3-7"
       x1="79.398094"
       y1="-197.84389"
       x2="82.901054"
       y2="-199.97827"
       gradientUnits="userSpaceOnUse"
       gradientTransform="matrix(1.9248511,0,0,1.7314595,-40.88733,399.61741)">
      <stop
         stop-color="#EBFAFF"
         stop-opacity="0.1"
         id="stop29-5-7"
         offset="0"
         style="stop-color:#c3c3c3;stop-opacity:1;" />
      <stop
         offset="1"
         stop-color="#70A9FF"
         stop-opacity="0.5"
         id="stop30-0-1"
         style="stop-color:#05c7ff;stop-opacity:0.80000001;" />
    </linearGradient>
    <linearGradient
       inkscape:collect="always"
       xlink:href="#linearGradient899"
       id="linearGradient926"
       x1="2.4309127"
       y1="-15.679802"
       x2="15.694772"
       y2="-2.7771163"
       gradientUnits="userSpaceOnUse"
       gradientTransform="translate(-0.92604234,0.47624996)" />
  </defs>
  <sodipodi:namedview
     id="base"
     pagecolor="#e2e2e2"
     bordercolor="#666666"
     borderopacity="1.0"
     inkscape:pageopacity="0"
     inkscape:pageshadow="2"
     inkscape:zoom="9.7248729"
     inkscape:cx="32.596827"
     inkscape:cy="31.774194"
     inkscape:document-units="px"
     inkscape:current-layer="layer1"
     inkscape:document-rotation="0"
     showgrid="true"
     units="px"
     inkscape:window-width="1920"
     inkscape:window-height="990"
     inkscape:window-x="0"
     inkscape:window-y="0"
     inkscape:window-maximized="1"
     inkscape:object-paths="true"
     inkscape:snap-grids="true"
     inkscape:snap-intersection-paths="true"
     inkscape:snap-smooth-nodes="true"
     inkscape:snap-midpoints="true"
     inkscape:showpageshadow="2"
     inkscape:pagecheckerboard="0"
     inkscape:deskcolor="#d1d1d1">
    <inkscape:grid
       id="grid2"
       units="px"
       originx="0"
       originy="0"
       spacingx="0.26458333"
       spacingy="0.26458333"
       empcolor="#0099e5"
       empopacity="0.30196078"
       color="#0099e5"
       opacity="0.14902"
       empspacing="5"
       dotted="false"
       gridanglex="30"
       gridanglez="30"
       visible="true" />
  </sodipodi:namedview>
  <metadata
     id="metadata1111">
    <rdf:RDF>
      <cc:Work
         rdf:about="">
        <dc:format>image/svg+xml</dc:format>
        <dc:type
           rdf:resource="http://purl.org/dc/dcmitype/StillImage" />
      </cc:Work>
    </rdf:RDF>
  </metadata>
  <g
     inkscape:label="Layer 1"
     inkscape:groupmode="layer"
     id="layer1">
    <g
       id="g918"
       transform="translate(0.47625037,0.92604234)">
      <rect
         ry="4.8357682"
         rx="4.8357682"
         style="fill:url(#linearGradient926);fill-opacity:1;stroke-width:6.09228"
         x="0.13229237"
         y="-16.457085"
         width="15.875001"
         height="15.875001"
         id="use1056"
         transform="rotate(90)"
         class="ColorScheme-Highlight" />
      <path
         d="m 5.344583,0.13229167 c -2.6384245,0 -4.76249953,2.12407483 -4.76249953,4.76249963 H 5.344583 Z"
         style="opacity:0.15;fill:url(#radialGradient25);fill-opacity:1;stroke-width:6.09228"
         id="path20" />
      <rect
         y="0.13229151"
         x="5.3445826"
         height="1.5875"
         width="6.3500004"
         id="rect20"
         style="opacity:0.15;fill:url(#linearGradient25);fill-opacity:1;stroke-width:4.83577;stroke-linecap:round;stroke-linejoin:round;paint-order:stroke fill markers" />
      <path
         d="m 0.58208347,11.244792 c 0,2.638424 2.12407503,4.762499 4.76249953,4.762499 v -4.762499 z"
         style="opacity:0.15;fill:url(#radialGradient29);fill-opacity:1;stroke-width:6.09228"
         id="use20" />
      <rect
         y="0.5820834"
         x="-11.244792"
         height="1.5875"
         width="6.3500004"
         id="use21"
         style="opacity:0.15;fill:url(#linearGradient34);fill-opacity:1;stroke-width:4.83577;stroke-linecap:round;stroke-linejoin:round;paint-order:stroke fill markers"
         transform="rotate(-90)" />
      <path
         d="m 11.694583,16.007291 c 2.638425,0 4.7625,-2.124074 4.7625,-4.762499 h -4.7625 z"
         style="opacity:0.15;fill:url(#radialGradient30);fill-opacity:1;stroke-width:6.09228"
         id="use22" />
      <rect
         y="-16.007292"
         x="-11.694584"
         height="1.5875"
         width="6.3500004"
         id="use23"
         style="opacity:0.15;fill:url(#linearGradient35);fill-opacity:1;stroke-width:4.83577;stroke-linecap:round;stroke-linejoin:round;paint-order:stroke fill markers"
         transform="scale(-1)" />
      <path
         d="m 16.457083,4.8947913 c 0,-2.6384245 -2.124074,-4.76249963 -4.7625,-4.76249963 V 4.8947913 Z"
         style="opacity:0.15;fill:url(#radialGradient31);fill-opacity:1;stroke-width:6.09228"
         id="use24" />
      <rect
         y="-16.457081"
         x="4.8947906"
         height="1.5875"
         width="6.3500004"
         id="use25"
         style="opacity:0.15;fill:url(#linearGradient36);fill-opacity:1;stroke-width:4.83577;stroke-linecap:round;stroke-linejoin:round;paint-order:stroke fill markers"
         transform="rotate(90)" />
      <path
         d="m 5.3445832,0.13229107 c -2.638425,0 -4.76250035,2.12407473 -4.76250035,4.76249973 H 5.3445832 Z"
         style="opacity:0.5;fill:url(#radialGradient15);fill-opacity:1;stroke-width:6.09228"
         id="path14" />
      <rect
         y="0.1322909"
         x="5.3445826"
         height="1.5875"
         width="6.3499999"
         id="rect14"
         style="opacity:0.5;fill:url(#linearGradient15);fill-opacity:1;stroke-width:4.83577;stroke-linecap:round;stroke-linejoin:round;paint-order:stroke fill markers" />
      <path
         d="m 11.694583,0.13229096 c 2.638425,0 4.7625,2.12407504 4.7625,4.76249734 h -4.7625 z"
         style="opacity:0.5;fill:url(#radialGradient17);fill-opacity:1;stroke-width:6.09228"
         id="use14" />
      <path
         id="path17"
         style="opacity:0.5;fill:url(#radialGradient18);fill-opacity:1;stroke-width:6.09228"
         d="m 5.3445834,16.00729 c -2.638425,0 -4.7625,-2.124075 -4.7625,-4.7625 h 4.7625 z" />
      <rect
         style="opacity:0.5;fill:url(#linearGradient18);fill-opacity:1;stroke-width:4.83577;stroke-linecap:round;stroke-linejoin:round;paint-order:stroke fill markers"
         id="rect17"
         width="6.3499994"
         height="1.5874999"
         x="5.3445826"
         y="-16.007292"
         transform="scale(1,-1)" />
      <path
         id="use17"
         style="opacity:0.5;fill:url(#radialGradient20);fill-opacity:1;stroke-width:6.09228"
         d="m 11.694582,16.007291 c 2.638425,0 4.7625,-2.124075 4.7625,-4.7625 h -4.7625 z" />
    </g>
    <path
       style="fill:#f9f9f9;fill-opacity:1;fill-rule:nonzero;stroke:none;stroke-width:0.254546"
       d="m 8.3138655,12.20383 c -0.026829,-0.03352 -0.02568,-0.03352 0.00796,-0.008 0.019772,0.01618 0.037338,0.03351 0.037338,0.03698 0,0.01734 -0.017526,0.007 -0.045562,-0.02889 z m 1.0263451,-0.165274 c 9.968e-4,-0.02428 0.00694,-0.02889 0.012795,-0.01271 0.00694,0.01502 0.00534,0.03352 -9.968e-4,0.04044 -0.00694,0.007 -0.011395,-0.0059 -0.011395,-0.02774 z m 0,-0.253112 c 9.968e-4,-0.02428 0.00694,-0.03005 0.012795,-0.01271 0.00694,0.01502 0.00534,0.03352 -9.968e-4,0.04044 -0.00694,0.007 -0.011395,-0.0059 -0.011395,-0.02774 z M 8.4596535,9.3259858 c 0.015192,-0.015026 0.031469,-0.020804 0.038465,-0.015026 0.00694,0.007 -0.00534,0.018495 -0.026829,0.026584 -0.030372,0.01155 -0.032667,0.00919 -0.011395,-0.01155 z M 9.3600403,8.8139831 c 0,-0.0046 0.017527,-0.020804 0.037338,-0.036982 0.033865,-0.026584 0.034932,-0.025432 0.00796,0.00802 -0.02798,0.034672 -0.045536,0.046234 -0.045536,0.028892 z M 9.7227578,8.4545413 c 0,-0.0046 0.016328,-0.020806 0.037338,-0.036981 0.033854,-0.025432 0.033854,-0.025432 0.00694,0.00802 -0.026829,0.035828 -0.044374,0.046234 -0.044374,0.028892 z m -1.8229326,-0.5674791 -0.084028,-0.088992 0.090984,0.083215 c 0.084028,0.077439 0.1002655,0.095926 0.084028,0.095926 -0.00302,0 -0.044354,-0.040448 -0.091014,-0.090152 z M 8.6194346,7.3542566 c 0,-0.034671 0.00402,-0.046234 0.010681,-0.025432 0.00402,0.020804 0.00402,0.048542 -9.968e-4,0.063565 -0.00534,0.013871 -0.010601,-0.00351 -0.00896,-0.038136 z m -0.024455,-0.254268 c 9.968e-4,-0.025432 0.00534,-0.030045 0.012795,-0.012714 0.00534,0.015027 0.00534,0.033515 -9.968e-4,0.040449 -0.00694,0.007 -0.012795,-0.00586 -0.011395,-0.027738 z m 1.7914394,-0.093613 c 0,-0.028894 0.004,-0.04045 0.0106,-0.026584 0.0053,0.015026 0.0053,0.038137 0,0.05317 -0.0053,0.013864 -0.0106,0.00233 -0.0106,-0.026584 z m 0,-0.3478838 c 9.97e-4,-0.034671 0.0053,-0.047388 0.0106,-0.026584 0.0053,0.020803 0.0053,0.049699 0,0.063565 -0.0053,0.013868 -0.0106,-0.00233 -0.0106,-0.036982 z M 7.06126,6.0228188 c 9.969e-4,-0.024277 0.00534,-0.028894 0.012795,-0.01271 0.00694,0.015029 0.00534,0.033513 -9.968e-4,0.040447 -0.00694,0.007 -0.012795,-0.0046 -0.011395,-0.027738 z m 1.018186,-0.045079 c -0.026829,-0.033514 -0.02568,-0.034668 0.00796,-0.00802 0.034942,0.027738 0.0466,0.045079 0.029214,0.045079 -0.00402,0 -0.020979,-0.017341 -0.037327,-0.036981 z m -0.1691231,-0.1907007 -0.05126,-0.057784 0.058297,0.050858 c 0.054795,0.048544 0.06767,0.065875 0.05128,0.065875 -0.00302,0 -0.030372,-0.026584 -0.058297,-0.058938 z M 7.061258,5.7697021 c 9.969e-4,-0.024277 0.00534,-0.030046 0.012795,-0.012711 0.00694,0.015028 0.00534,0.033514 -9.968e-4,0.040447 -0.00694,0.00699 -0.012795,-0.00586 -0.011395,-0.027738 z M 7.7388817,5.6391014 c -0.026829,-0.032357 -0.02568,-0.033513 0.00796,-0.007 0.034932,0.026584 0.04661,0.043924 0.029204,0.043924 -0.00402,0 -0.020949,-0.016185 -0.037338,-0.036981 z M 5.3666113,5.3386071 c 0.069965,-0.069346 0.1306245,-0.1259783 0.1364602,-0.1259783 0.00534,0 -0.045542,0.05663 -0.1154605,0.1259783 -0.069974,0.069345 -0.1306305,0.1271336 -0.1364571,0.1271336 -0.00534,0 0.045532,-0.057784 0.1154574,-0.1271336 z M 9.7624111,5.0069029 c -0.026828,-0.033513 -0.02568,-0.034668 0.00796,-0.00802 0.019782,0.01503 0.037327,0.032361 0.037327,0.036981 0,0.017341 -0.017536,0.00586 -0.045532,-0.028892 z M 9.4428451,4.6902242 c -0.026828,-0.033513 -0.02568,-0.034671 0.00796,-0.00802 0.034933,0.027738 0.04661,0.04508 0.029194,0.04508 -0.00402,0 -0.02099,-0.01734 -0.037317,-0.036981 z M 7.6304053,4.1423939 c 0.016328,-0.00586 0.033875,-0.00586 0.040861,0.00116 0.00796,0.00802 -0.00402,0.012709 -0.027976,0.01155 -0.024462,-0.00115 -0.029204,-0.00586 -0.012795,-0.012711 z m 0.5329991,0 c 0.015182,-0.00586 0.033854,-0.00586 0.040861,0.00116 0.00694,0.00802 -0.00534,0.012709 -0.027966,0.01155 -0.024452,-0.00115 -0.030372,-0.00586 -0.012795,-0.012711 z m 0,0"
       id="path4155-7" />
    <path
       style="fill:#f9f9f9;fill-opacity:1;fill-rule:nonzero;stroke:none;stroke-width:0.254546"
       d="m 10.682622,12.025843 c -0.251919,-0.107486 -0.346388,-0.470395 -0.190104,-0.721196 0.153951,-0.247332 0.454855,-0.32477 0.644966,-0.166429 0.03387,0.02774 0.08285,0.100553 0.109661,0.161806 0.04085,0.09246 0.0466,0.137536 0.03848,0.284317 -0.0114,0.216129 -0.08162,0.345573 -0.227432,0.421854 -0.107306,0.05663 -0.271745,0.06472 -0.375548,0.01965 z m 0.374384,-1.549876 c -0.211101,-0.05894 -0.222765,-0.896869 -0.03149,-2.4097613 0.102601,-0.814812 0.152784,-1.0297834 0.285739,-1.2262632 0.08513,-0.1259779 0.177282,-0.18261 0.363892,-0.2219063 0.321899,-0.067032 0.707945,0.015028 0.980863,0.209193 0.306737,0.2172833 0.351055,0.3964256 0.200601,0.8171233 -0.148122,0.4149189 -0.510842,1.134958 -0.922551,1.8365054 -0.367383,0.6229551 -0.580817,0.9153611 -0.716108,0.9789281 -0.0781,0.03698 -0.08285,0.03698 -0.160951,0.01619 z m 0,0"
       id="path4157-5" />
    <path
       style="fill:#f9f9f9;fill-opacity:1;fill-rule:nonzero;stroke:none;stroke-width:0.254546"
       d="M 7.9348135,3.7043609 C 7.6572285,3.7008509 7.3726548,3.7448069 7.0869113,3.8372734 6.3812949,4.0638024 5.3164594,4.8312283 5.0983591,5.270418 5.0354011,5.3975516 5.0259891,5.4380037 5.0271761,5.5651371 5.0281729,5.768551 5.0656421,5.8644797 5.3723965,6.4735661 6.219134,8.1551992 7.2303214,10.031 7.779652,10.938271 c 0.4746819,0.785918 0.6624608,1.005513 0.9272119,1.087572 0.1189609,0.03698 0.1772801,0.03698 0.3090713,-0.0012 C 9.2550311,11.954133 9.3518378,11.768058 9.333178,11.415551 9.3192253,11.145092 9.3121885,11.124289 8.8445203,9.9246106 8.6334193,9.3848701 8.4596426,8.9306556 8.457308,8.9144748 8.456308,8.8982918 8.530736,8.8543808 8.6369186,8.8081427 9.2445635,8.5469398 9.7472393,8.0927257 10.099462,7.4824835 c 0.215766,-0.3709994 0.28341,-0.633357 0.28341,-1.1014407 0,-0.6171766 -0.145786,-1.1210888 -0.4548552,-1.5810822 C 9.6784344,4.4278161 9.3553703,4.1423425 8.9658257,3.951642 8.6392573,3.7909909 8.2928652,3.7089324 7.9348096,3.7043091 Z m -0.592481,1.3233469 c 0.1772741,0 0.341724,0.092459 0.5773205,0.3247692 0.3219003,0.3166787 0.5388308,0.6818996 0.6461333,1.0875718 0.069964,0.2612018 0.079327,0.6622516 0.020949,0.8517965 -0.039623,0.1294455 -0.1329538,0.2519562 -0.2297564,0.3016538 -0.080485,0.041604 -0.2052711,0.036982 -0.29624,-0.01038 C 7.8986595,7.4987329 7.6339034,7.1566286 7.4554616,6.8041212 7.2187055,6.3360378 7.0857407,5.9107171 7.0670767,5.5558983 7.0460792,5.1756526 7.1230604,5.0277153 7.3423314,5.0277153 Z m 0,0"
       id="path4159-3" />
    <path
       style="fill:#f9f9f9;fill-opacity:1;fill-rule:nonzero;stroke:none;stroke-width:0.254546"
       d="m 6.43145,12.877639 h 6.221063 c 0.244923,0 0.444358,0.197635 0.444358,0.440347 0,0.242708 -0.199435,0.440345 -0.444358,0.440345 H 6.43145 c -0.2449272,0 -0.4443625,-0.197637 -0.4443625,-0.440345 0,-0.242712 0.1994353,-0.440347 0.4443625,-0.440347 z m 0,0"
       id="path4161-5" />
  </g>
</svg>
