<?xml version="1.0" encoding="UTF-8" standalone="no"?>
<svg
   width="68"
   height="68"
   viewBox="0 0 17.991665 17.991665"
   version="1.1"
   id="svg1114"
   inkscape:version="1.3.2 (091e20ef0f, 2023-11-25)"
   sodipodi:docname="subtitlecomposer.svg"
   xmlns:inkscape="http://www.inkscape.org/namespaces/inkscape"
   xmlns:sodipodi="http://sodipodi.sourceforge.net/DTD/sodipodi-0.dtd"
   xmlns:xlink="http://www.w3.org/1999/xlink"
   xmlns="http://www.w3.org/2000/svg"
   xmlns:svg="http://www.w3.org/2000/svg"
   xmlns:rdf="http://www.w3.org/1999/02/22-rdf-syntax-ns#"
   xmlns:cc="http://creativecommons.org/ns#"
   xmlns:dc="http://purl.org/dc/elements/1.1/">
  <style
     type="text/css"
     id="current-color-scheme">.ColorScheme-Highlight { color:#5599ff; }
</style>
  <defs
     id="defs1108">
    <linearGradient
       id="linearGradient12"
       inkscape:collect="always">
      <stop
         style="stop-color:#ffffff;stop-opacity:0;"
         offset="0"
         id="stop10" />
      <stop
         id="stop11"
         offset="0.65909404"
         style="stop-color:#ffffff;stop-opacity:0" />
      <stop
         style="stop-color:#ffffff;stop-opacity:1;"
         offset="1"
         id="stop12" />
    </linearGradient>
    <linearGradient
       id="linearGradient9"
       inkscape:collect="always">
      <stop
         style="stop-color:#000000;stop-opacity:0;"
         offset="0"
         id="stop1" />
      <stop
         id="stop8"
         offset="0.66102529"
         style="stop-color:#000000;stop-opacity:0" />
      <stop
         style="stop-color:#000000;stop-opacity:1;"
         offset="1"
         id="stop9" />
    </linearGradient>
    <linearGradient
       id="linearGradient7"
       inkscape:collect="always">
      <stop
         style="stop-color:#000000;stop-opacity:0;"
         offset="0"
         id="stop5" />
      <stop
         id="stop6"
         offset="0.6586886"
         style="stop-color:#000000;stop-opacity:0" />
      <stop
         style="stop-color:#000000;stop-opacity:1;"
         offset="1"
         id="stop7" />
    </linearGradient>
    <linearGradient
       id="linearGradient4"
       inkscape:collect="always">
      <stop
         style="stop-color:#000000;stop-opacity:0;"
         offset="0"
         id="stop2" />
      <stop
         id="stop3"
         offset="0.67055255"
         style="stop-color:#000000;stop-opacity:0" />
      <stop
         style="stop-color:#000000;stop-opacity:1;"
         offset="1"
         id="stop4" />
    </linearGradient>
    <linearGradient
       inkscape:collect="always"
       id="linearGradient899">
      <stop
         style="stop-color:#ffb380;stop-opacity:1;"
         offset="0"
         id="stop895" />
      <stop
         style="stop-color:#b46431;stop-opacity:1;"
         offset="1"
         id="stop897" />
    </linearGradient>
    <linearGradient
       id="linearGradient1167"
       x1="40.751999"
       x2="40.751999"
       y1="28.507999"
       y2="17.205999"
       gradientUnits="userSpaceOnUse">
      <stop
         style="stop-color:#84fb6e;stop-opacity:1"
         stop-color="#0ab816"
         offset="0"
         id="stop1163" />
      <stop
         style="stop-color:#0dd41a;stop-opacity:1"
         stop-color="#0cf36c"
         offset="1"
         id="stop1165" />
    </linearGradient>
    <linearGradient
       id="cornerBevel"
       inkscape:collect="always">
      <stop
         style="stop-color:#000000;stop-opacity:0;"
         offset="0"
         id="stop2663" />
      <stop
         id="stop2671"
         offset="0.66666675"
         style="stop-color:#000000;stop-opacity:0" />
      <stop
         style="stop-color:#000000;stop-opacity:1;"
         offset="1"
         id="stop2661" />
    </linearGradient>
    <linearGradient
       id="bevel"
       inkscape:collect="always">
      <stop
         id="stop2685"
         offset="0"
         style="stop-color:#000000;stop-opacity:1;" />
      <stop
         id="stop2687"
         offset="1"
         style="stop-color:#000000;stop-opacity:0;" />
    </linearGradient>
    <linearGradient
       id="highlightCorner"
       inkscape:collect="always">
      <stop
         style="stop-color:#ffffff;stop-opacity:0;"
         offset="0"
         id="stop2613" />
      <stop
         id="stop2621"
         offset="0.66666669"
         style="stop-color:#ffffff;stop-opacity:0" />
      <stop
         style="stop-color:#ffffff;stop-opacity:1;"
         offset="1"
         id="stop2611" />
    </linearGradient>
    <linearGradient
       inkscape:collect="always"
       id="highlight">
      <stop
         style="stop-color:#ffffff;stop-opacity:1;"
         offset="0"
         id="stop2921" />
      <stop
         style="stop-color:#ffffff;stop-opacity:0;"
         offset="1"
         id="stop2923" />
    </linearGradient>
    <radialGradient
       inkscape:collect="always"
       xlink:href="#highlightCorner"
       id="radialGradient15"
       gradientUnits="userSpaceOnUse"
       gradientTransform="matrix(0.04294597,-12.079348,17.933991,0.06376112,14.524179,-50.373789)"
       cx="-4.5799766"
       cy="-0.50206107"
       fx="-4.5799766"
       fy="-0.50206107"
       r="0.39687499" />
    <linearGradient
       inkscape:collect="always"
       xlink:href="#highlight"
       id="linearGradient15"
       gradientUnits="userSpaceOnUse"
       x1="-3.8453064"
       y1="-1.1532172"
       x2="-3.8453064"
       y2="-0.8954913"
       gradientTransform="matrix(6.0923077,0,0,6.0923077,32.228528,7.1537621)" />
    <radialGradient
       inkscape:collect="always"
       xlink:href="#linearGradient12"
       id="radialGradient17"
       gradientUnits="userSpaceOnUse"
       gradientTransform="matrix(-0.02247554,-12.045403,-17.967828,0.03352619,1.6640208,-50.22331)"
       cx="-4.575222"
       cy="-0.55256462"
       fx="-4.575222"
       fy="-0.55256462"
       r="0.39687499" />
    <radialGradient
       inkscape:collect="always"
       xlink:href="#linearGradient7"
       id="radialGradient18"
       gradientUnits="userSpaceOnUse"
       gradientTransform="matrix(0.06461187,12.09952,17.933731,-0.09576873,14.609502,64.748231)"
       cx="-4.4284906"
       cy="-0.50121039"
       fx="-4.4284906"
       fy="-0.50121039"
       r="0.39687499" />
    <linearGradient
       inkscape:collect="always"
       xlink:href="#bevel"
       id="linearGradient18"
       gradientUnits="userSpaceOnUse"
       x1="-3.8415797"
       y1="-1.4506671"
       x2="-3.8406549"
       y2="-1.1968651"
       gradientTransform="matrix(6.0923076,0,0,6.0923076,32.228527,-7.1537627)" />
    <radialGradient
       inkscape:collect="always"
       xlink:href="#linearGradient4"
       id="radialGradient20"
       gradientUnits="userSpaceOnUse"
       gradientTransform="matrix(-0.01031383,11.991438,-17.967296,-0.01545561,1.7353715,64.305742)"
       cx="-4.4236727"
       cy="-0.55004197"
       fx="-4.4236727"
       fy="-0.55004197"
       r="0.39687499" />
    <radialGradient
       inkscape:collect="always"
       xlink:href="#cornerBevel"
       id="radialGradient25"
       gradientUnits="userSpaceOnUse"
       gradientTransform="matrix(12.184614,0,0,12.184614,59.63122,10.377613)"
       cx="-4.4568658"
       cy="-0.44864327"
       fx="-4.4568658"
       fy="-0.44864327"
       r="0.39687496" />
    <linearGradient
       inkscape:collect="always"
       xlink:href="#bevel"
       id="linearGradient25"
       gradientUnits="userSpaceOnUse"
       x1="-3.8487544"
       y1="-1.146081"
       x2="-3.8455966"
       y2="-0.890971"
       gradientTransform="matrix(6.0923077,0,0,6.0923077,32.228528,7.1537627)" />
    <radialGradient
       inkscape:collect="always"
       xlink:href="#cornerBevel"
       id="radialGradient29"
       gradientUnits="userSpaceOnUse"
       gradientTransform="matrix(0,-12.184614,12.184614,0,11.27353,-44.427768)"
       cx="-4.5705457"
       cy="-0.48653662"
       fx="-4.5705457"
       fy="-0.48653662"
       r="0.39687496" />
    <radialGradient
       inkscape:collect="always"
       xlink:href="#cornerBevel"
       id="radialGradient30"
       gradientUnits="userSpaceOnUse"
       gradientTransform="matrix(-12.184514,-0.04945749,0.04847411,-11.942243,-43.502155,3.8519053)"
       cx="-4.5342312"
       cy="-0.60337442"
       fx="-4.5342312"
       fy="-0.60337442"
       r="0.39687496" />
    <radialGradient
       inkscape:collect="always"
       xlink:href="#linearGradient9"
       id="radialGradient31"
       gradientUnits="userSpaceOnUse"
       gradientTransform="matrix(0,-12.151612,11.978956,0,18.475664,-48.770776)"
       cx="-4.4175329"
       cy="-0.56489283"
       fx="-4.4175329"
       fy="-0.56489283"
       r="0.39687496" />
    <linearGradient
       inkscape:collect="always"
       xlink:href="#bevel"
       id="linearGradient34"
       gradientUnits="userSpaceOnUse"
       x1="-3.99717"
       y1="-1.2218677"
       x2="-4.0003276"
       y2="-0.96675771"
       gradientTransform="matrix(6.0923077,0,0,6.0923077,17.025077,8.0496826)" />
    <linearGradient
       inkscape:collect="always"
       xlink:href="#bevel"
       id="linearGradient35"
       gradientUnits="userSpaceOnUse"
       x1="-4.0919032"
       y1="-1.4492278"
       x2="-4.0950613"
       y2="-1.1972755"
       gradientTransform="matrix(6.0923077,0,0,6.0923077,16.129161,-7.1537627)" />
    <linearGradient
       inkscape:collect="always"
       xlink:href="#bevel"
       id="linearGradient36"
       gradientUnits="userSpaceOnUse"
       x1="-3.8734362"
       y1="-1.3717227"
       x2="-3.8765941"
       y2="-1.116071"
       gradientTransform="matrix(6.0923077,0,0,6.0923077,31.33261,-8.0496826)" />
    <linearGradient
       id="paint2_linear_77:3-7"
       x1="79.398094"
       y1="-197.84389"
       x2="82.901054"
       y2="-199.97827"
       gradientUnits="userSpaceOnUse"
       gradientTransform="matrix(1.9248511,0,0,1.7314595,-40.88733,399.61741)">
      <stop
         stop-color="#EBFAFF"
         stop-opacity="0.1"
         id="stop29-5-7"
         offset="0"
         style="stop-color:#c3c3c3;stop-opacity:1;" />
      <stop
         offset="1"
         stop-color="#70A9FF"
         stop-opacity="0.5"
         id="stop30-0-1"
         style="stop-color:#05c7ff;stop-opacity:0.80000001;" />
    </linearGradient>
    <linearGradient
       inkscape:collect="always"
       xlink:href="#linearGradient899"
       id="linearGradient926"
       x1="0.98894888"
       y1="-9.3406019"
       x2="16.919081"
       y2="-9.2251434"
       gradientUnits="userSpaceOnUse"
       gradientTransform="translate(-0.92604234,0.47624996)" />
    <linearGradient
       id="a"
       x1="7.9369998"
       x2="7.9369998"
       y1="15.081"
       y2="1.852"
       gradientTransform="matrix(0.89278359,0,0,0.89278351,0.90778535,0.91466447)"
       gradientUnits="userSpaceOnUse">
      <stop
         offset="0"
         stop-color="#f1efeb"
         id="stop1-3" />
      <stop
         offset="1"
         stop-color="#fff"
         id="stop2-3" />
    </linearGradient>
    <linearGradient
       id="b-3"
       gradientTransform="matrix(0.9444453,0,0,0.94444519,-301.19123,-493.75403)"
       gradientUnits="userSpaceOnUse"
       x1="400.57141"
       x2="400.57141"
       y1="545.79797"
       y2="517.79797">
      <stop
         offset="0"
         stop-color="#eff0f1"
         id="stop7-6" />
      <stop
         offset="1"
         stop-color="#fcfcfc"
         id="stop9-7" />
    </linearGradient>
    <linearGradient
       id="d-9"
       gradientUnits="userSpaceOnUse"
       x1="13.571427"
       x2="13.142856"
       y1="21.285715"
       y2="3.2857144"
       gradientTransform="translate(-2.571427,-2.5714273)">
      <stop
         offset="0"
         stop-color="#788085"
         id="stop17-1" />
      <stop
         offset="1"
         stop-color="#9ba1a6"
         id="stop19-2" />
    </linearGradient>
    <linearGradient
       xlink:href="#linearGradient4435"
       id="linearGradient4389-3-5"
       y1="524.79797"
       y2="515.79797"
       x2="0"
       gradientUnits="userSpaceOnUse"
       gradientTransform="matrix(0.36049424,0,0,0.36049424,-139.87919,-180.15612)" />
    <linearGradient
       id="linearGradient4435">
      <stop
         style="stop-color:#c61423"
         id="stop15" />
      <stop
         offset="1"
         style="stop-color:#dc2b41"
         id="stop17" />
    </linearGradient>
    <linearGradient
       id="linearGradient4308">
      <stop
         style="stop-color:#884d2c;stop-opacity:1"
         offset="0"
         id="stop363" />
      <stop
         style="stop-color:#ffc169;stop-opacity:1"
         offset="1"
         id="stop365" />
    </linearGradient>
    <linearGradient
       id="linearGradient4325">
      <stop
         offset="0"
         style="stop-color:#2a2c2f;stop-opacity:1"
         id="stop358" />
      <stop
         offset="1"
         style="stop-color:#424649;stop-opacity:1"
         id="stop360" />
    </linearGradient>
    <linearGradient
       id="d-3"
       gradientUnits="userSpaceOnUse"
       x1="27"
       x2="25.42725"
       y1="28"
       y2="32.71825"
       gradientTransform="translate(-58.575692,-29.333333)">
      <stop
         offset="0"
         stop-color="#b1621e"
         id="stop231"
         style="stop-color:#d38d5f;stop-opacity:1" />
      <stop
         offset="1"
         stop-color="#ffa21d"
         id="stop233" />
    </linearGradient>
    <linearGradient
       id="c-6"
       gradientTransform="matrix(2.0428665,-6.8308524,5.7819337,2.3633129,-33.356582,5.3194785)"
       gradientUnits="userSpaceOnUse"
       x1="24"
       x2="24"
       y1="35"
       y2="13">
      <stop
         offset="0"
         stop-color="#cd7223"
         id="stop224"
         style="stop-color:#d38d5f;stop-opacity:1" />
      <stop
         offset=".53"
         stop-color="#f48e00"
         id="stop226"
         style="stop-color:#deaa87;stop-opacity:1" />
      <stop
         offset="1"
         stop-color="#ffa92d"
         id="stop228"
         style="stop-color:#e9c6af;stop-opacity:1" />
    </linearGradient>
  </defs>
  <sodipodi:namedview
     id="base"
     pagecolor="#e2e2e2"
     bordercolor="#666666"
     borderopacity="1.0"
     inkscape:pageopacity="0"
     inkscape:pageshadow="2"
     inkscape:zoom="9.7248729"
     inkscape:cx="33.933605"
     inkscape:cy="37.224137"
     inkscape:document-units="px"
     inkscape:current-layer="layer1"
     inkscape:document-rotation="0"
     showgrid="true"
     units="px"
     inkscape:window-width="1920"
     inkscape:window-height="990"
     inkscape:window-x="0"
     inkscape:window-y="0"
     inkscape:window-maximized="1"
     inkscape:object-paths="true"
     inkscape:snap-grids="true"
     inkscape:snap-intersection-paths="true"
     inkscape:snap-smooth-nodes="true"
     inkscape:snap-midpoints="true"
     inkscape:showpageshadow="2"
     inkscape:pagecheckerboard="0"
     inkscape:deskcolor="#d1d1d1">
    <inkscape:grid
       id="grid2"
       units="px"
       originx="0"
       originy="0"
       spacingx="0.26458333"
       spacingy="0.26458333"
       empcolor="#0099e5"
       empopacity="0.30196078"
       color="#0099e5"
       opacity="0.14902"
       empspacing="5"
       dotted="false"
       gridanglex="30"
       gridanglez="30"
       visible="true" />
  </sodipodi:namedview>
  <metadata
     id="metadata1111">
    <rdf:RDF>
      <cc:Work
         rdf:about="">
        <dc:format>image/svg+xml</dc:format>
        <dc:type
           rdf:resource="http://purl.org/dc/dcmitype/StillImage" />
      </cc:Work>
    </rdf:RDF>
  </metadata>
  <g
     inkscape:label="Layer 1"
     inkscape:groupmode="layer"
     id="layer1">
    <g
       id="g918"
       transform="translate(0.47625037,0.92604234)">
      <rect
         ry="4.8357682"
         rx="4.8357682"
         style="fill:url(#linearGradient926);fill-opacity:1;stroke-width:6.09228"
         x="0.13229237"
         y="-16.457085"
         width="15.875001"
         height="15.875001"
         id="use1056"
         transform="rotate(90)"
         class="ColorScheme-Highlight" />
      <path
         d="m 5.344583,0.13229167 c -2.6384245,0 -4.76249953,2.12407483 -4.76249953,4.76249963 H 5.344583 Z"
         style="opacity:0.15;fill:url(#radialGradient25);fill-opacity:1;stroke-width:6.09228"
         id="path20" />
      <rect
         y="0.13229151"
         x="5.3445826"
         height="1.5875"
         width="6.3500004"
         id="rect20"
         style="opacity:0.15;fill:url(#linearGradient25);fill-opacity:1;stroke-width:4.83577;stroke-linecap:round;stroke-linejoin:round;paint-order:stroke fill markers" />
      <path
         d="m 0.58208347,11.244792 c 0,2.638424 2.12407503,4.762499 4.76249953,4.762499 v -4.762499 z"
         style="opacity:0.15;fill:url(#radialGradient29);fill-opacity:1;stroke-width:6.09228"
         id="use20" />
      <rect
         y="0.5820834"
         x="-11.244792"
         height="1.5875"
         width="6.3500004"
         id="use21"
         style="opacity:0.15;fill:url(#linearGradient34);fill-opacity:1;stroke-width:4.83577;stroke-linecap:round;stroke-linejoin:round;paint-order:stroke fill markers"
         transform="rotate(-90)" />
      <path
         d="m 11.694583,16.007291 c 2.638425,0 4.7625,-2.124074 4.7625,-4.762499 h -4.7625 z"
         style="opacity:0.15;fill:url(#radialGradient30);fill-opacity:1;stroke-width:6.09228"
         id="use22" />
      <rect
         y="-16.007292"
         x="-11.694584"
         height="1.5875"
         width="6.3500004"
         id="use23"
         style="opacity:0.15;fill:url(#linearGradient35);fill-opacity:1;stroke-width:4.83577;stroke-linecap:round;stroke-linejoin:round;paint-order:stroke fill markers"
         transform="scale(-1)" />
      <path
         d="m 16.457083,4.8947913 c 0,-2.6384245 -2.124074,-4.76249963 -4.7625,-4.76249963 V 4.8947913 Z"
         style="opacity:0.15;fill:url(#radialGradient31);fill-opacity:1;stroke-width:6.09228"
         id="use24" />
      <rect
         y="-16.457081"
         x="4.8947906"
         height="1.5875"
         width="6.3500004"
         id="use25"
         style="opacity:0.15;fill:url(#linearGradient36);fill-opacity:1;stroke-width:4.83577;stroke-linecap:round;stroke-linejoin:round;paint-order:stroke fill markers"
         transform="rotate(90)" />
      <path
         d="m 5.3445832,0.13229107 c -2.638425,0 -4.76250035,2.12407473 -4.76250035,4.76249973 H 5.3445832 Z"
         style="opacity:0.5;fill:url(#radialGradient15);fill-opacity:1;stroke-width:6.09228"
         id="path14" />
      <rect
         y="0.1322909"
         x="5.3445826"
         height="1.5875"
         width="6.3499999"
         id="rect14"
         style="opacity:0.5;fill:url(#linearGradient15);fill-opacity:1;stroke-width:4.83577;stroke-linecap:round;stroke-linejoin:round;paint-order:stroke fill markers" />
      <path
         d="m 11.694583,0.13229096 c 2.638425,0 4.7625,2.12407504 4.7625,4.76249734 h -4.7625 z"
         style="opacity:0.5;fill:url(#radialGradient17);fill-opacity:1;stroke-width:6.09228"
         id="use14" />
      <path
         id="path17"
         style="opacity:0.5;fill:url(#radialGradient18);fill-opacity:1;stroke-width:6.09228"
         d="m 5.3445834,16.00729 c -2.638425,0 -4.7625,-2.124075 -4.7625,-4.7625 h 4.7625 z" />
      <rect
         style="opacity:0.5;fill:url(#linearGradient18);fill-opacity:1;stroke-width:4.83577;stroke-linecap:round;stroke-linejoin:round;paint-order:stroke fill markers"
         id="rect17"
         width="6.3499994"
         height="1.5874999"
         x="5.3445826"
         y="-16.007292"
         transform="scale(1,-1)" />
      <path
         id="use17"
         style="opacity:0.5;fill:url(#radialGradient20);fill-opacity:1;stroke-width:6.09228"
         d="m 11.694582,16.007291 c 2.638425,0 4.7625,-2.124075 4.7625,-4.7625 h -4.7625 z" />
    </g>
    <rect
       width="13.229166"
       height="13.229165"
       x="2.3812497"
       y="2.3812501"
       fill="url(#a)"
       rx="3.6849496"
       ry="3.7431052"
       id="rect2"
       style="fill:#192742;stroke-width:0.264582;fill-opacity:1" />
    <path
       style="opacity:0.2;stroke-width:0.264583"
       d="m 12.140397,3.6782751 -1.138699,0.099299 0.02987,4.3962193 h 0.779962 v -0.234962 c 0.1136,0.06615 0.23633,0.1293115 0.370855,0.1855456 0.13453,0.059541 0.275307,0.089042 0.427767,0.089042 0.197308,0 0.388626,-0.036732 0.570985,-0.1128192 0.18235,-0.076084 0.340902,-0.1845626 0.481407,-0.3268027 0.137518,-0.1422403 0.247968,-0.321155 0.331669,-0.5328607 0.154966,-0.4021419 0.136793,-0.8065783 0.02381,-1.0857693 C 13.949255,5.9600003 13.856957,5.7847713 13.734385,5.6292996 13.611821,5.4738275 13.471039,5.3513404 13.306622,5.2554107 13.142197,5.1594817 12.959532,5.1127553 12.762229,5.1127553 c -0.152461,0 -0.274724,0.023672 -0.370388,0.066665 -0.09566,0.043007 -0.194112,0.09612 -0.295753,0.1589725 z M 5.6072501,3.682014 C 5.3836557,3.6916994 5.1751874,3.7334921 4.9784253,3.8078738 4.7816631,3.8822553 4.6085714,3.9857969 4.46249,4.1216234 4.3134272,4.2606837 4.1970321,4.4254809 4.1135572,4.6195191 4.0271048,4.8135567 3.9886405,5.033434 3.9946035,5.2824487 c 0.00294,0.1455286 0.029551,0.2746856 0.080235,0.3878739 0.050675,0.1131899 0.1165461,0.2100867 0.194059,0.2941694 0.074525,0.087316 0.1608832,0.1590648 0.2533024,0.2205104 0.092416,0.061443 0.1879393,0.1127357 0.2803585,0.1547769 0.092417,0.042042 0.1760751,0.078056 0.2565688,0.1006982 0.080492,0.025879 0.1424447,0.045341 0.1931254,0.058273 0.074524,0.032345 0.1406806,0.064157 0.1973235,0.096501 0.053671,0.032343 0.080058,0.077948 0.083029,0.1393927 0.00296,0.093783 -0.035473,0.1583931 -0.1189533,0.1972003 -0.083474,0.038812 -0.1851849,0.061601 -0.3074153,0.068068 C 5.022761,7.0031425 4.9392073,6.9965025 4.8557329,6.9738065 4.7692806,6.9511703 4.6889881,6.9283191 4.6084947,6.8992159 4.5279999,6.8701128 4.4568812,6.8410819 4.3883126,6.8055103 4.3197429,6.769939 4.2598625,6.7437949 4.2091807,6.7243926 L 3.8364583,7.8665693 c 0.09838,0.048505 0.2055049,0.097349 0.3158113,0.139392 0.1103068,0.045278 0.2264173,0.083749 0.3456669,0.1160833 0.1162689,0.032344 0.2355644,0.05469 0.3577964,0.070859 0.1222311,0.016161 0.238443,0.022817 0.3517311,0.019579 C 5.4578896,8.2027894 5.6909628,8.160529 5.9085945,8.0861428 6.1262256,8.0117628 6.3110218,7.9087182 6.4660468,7.776125 6.6210721,7.6435324 6.7401855,7.4815898 6.8266414,7.2875526 6.9130938,7.0935153 6.9489421,6.870346 6.9399978,6.6180962 6.9340398,6.440228 6.9010099,6.2849888 6.8443678,6.1556307 6.7877227,6.0262744 6.7167067,5.9160863 6.6302502,5.8223015 6.5437888,5.7285169 6.4450876,5.6510859 6.3377629,5.5864065 6.2304372,5.5217278 6.1265787,5.4633563 6.0252165,5.4148471 5.938764,5.3760385 5.851737,5.3470429 5.7593187,5.3244047 l -0.080703,-0.022841 c -0.053668,-0.012934 -0.1275819,-0.028642 -0.222981,-0.051283 -0.023851,-0.00321 -0.054261,-0.00983 -0.090034,-0.013057 -0.035777,-0.00321 -0.071232,-0.013135 -0.1040272,-0.02284 -0.035776,-0.00972 -0.066174,-0.022525 -0.090033,-0.038698 -0.023851,-0.016162 -0.035454,-0.035233 -0.035454,-0.064333 0.00294,-0.061444 0.02676,-0.1131428 0.077432,-0.1487164 0.050675,-0.035577 0.1072968,-0.061682 0.1758654,-0.07785 0.065594,-0.016163 0.1348196,-0.02284 0.2033883,-0.02284 0.071551,0 0.1278811,0.00382 0.1726004,0.010253 0.1431,0.022638 0.2680149,0.051195 0.3783213,0.093239 0.1073251,0.042042 0.2266204,0.090532 0.3577955,0.1519793 L 6.7939804,3.885729 C 6.6180871,3.8048761 6.4271253,3.7497415 6.2243997,3.7141673 6.0186933,3.6818287 5.8129435,3.672298 5.6072371,3.6820004 Z M 8.6450147,5.1104297 7.419086,5.202736 v 2.1286454 c 0,0.285722 0.092129,0.5044629 0.2728956,0.6550044 0.1807673,0.1505411 0.4148712,0.2270367 0.7090601,0.2270367 0.2233008,0 0.4179197,-0.040206 0.5845086,-0.1170142 0.1665895,-0.07681 0.2868151,-0.2088593 0.3647934,-0.3962678 h 0.011193 V 8.167268 l 1.0738503,-0.040095 0.08864,-3.0167483 -1.2026005,0.092304 0.035453,1.8806311 c 0.00351,0.082947 -0.021093,0.1382307 -0.067171,0.172026 -0.049618,0.033797 -0.2541603,0.05222 -0.332138,0.05222 -0.095701,0 -0.2417452,-0.018146 -0.2878231,-0.055011 C 8.62367,7.2187968 8.6055572,7.1604478 8.6091019,7.080568 Z m 4.0719623,0.9552321 c 0.0686,0.00621 0.134119,0.02447 0.190792,0.052217 0.05671,0.02774 0.107697,0.065189 0.146479,0.1114209 0.03878,0.046238 0.06536,0.1018065 0.08024,0.1603711 0.01788,0.061643 0.02105,0.1229664 0.01211,0.1846133 -0.0091,0.061644 -0.0334,0.1205586 -0.06621,0.1729584 -0.03576,0.052401 -0.08004,0.1013683 -0.136682,0.1445206 -0.05671,0.043152 -0.122855,0.076785 -0.203391,0.098368 -0.07755,0.024662 -0.151857,0.034139 -0.223448,0.027977 -0.07461,-0.00304 -0.14018,-0.021207 -0.196854,-0.048953 -0.0567,-0.027737 -0.104438,-0.061927 -0.143211,-0.1081568 -0.03881,-0.046239 -0.06858,-0.098724 -0.08353,-0.1603713 -0.01788,-0.061643 -0.02104,-0.122966 -0.0121,-0.1846132 0.009,-0.058562 0.03329,-0.1174763 0.06908,-0.1729585 0.03284,-0.052404 0.08004,-0.1015477 0.136682,-0.1477835 0.0567,-0.043156 0.125835,-0.076786 0.203386,-0.098368 0.08048,-0.024657 0.155123,-0.034321 0.226715,-0.031237 z"
       id="path8" />
    <path
       style="fill:#ff9121;stroke-width:0.264583"
       d="m 12.140397,3.4395829 -1.138699,0.0993 0.02987,4.3962198 H 11.81153 V 7.7001399 c 0.1136,0.06615 0.23633,0.1293113 0.370855,0.1855453 0.13453,0.059541 0.275307,0.089042 0.427767,0.089042 0.197308,0 0.388626,-0.03673 0.570985,-0.1128192 0.182361,-0.076083 0.340911,-0.1845618 0.481416,-0.3268027 0.137515,-0.1422412 0.247965,-0.3211555 0.331666,-0.5328617 0.154964,-0.4021418 0.136791,-0.8065778 0.0238,-1.0857692 C 13.949251,5.7213085 13.856957,5.5460792 13.734385,5.3906074 13.611821,5.2351358 13.471039,5.1126487 13.306622,5.0167189 13.142197,4.9207899 12.959532,4.8740636 12.762229,4.8740636 c -0.152461,0 -0.274724,0.023672 -0.370388,0.066666 -0.09566,0.043007 -0.194112,0.09612 -0.295753,0.1589724 z m -6.5331469,0.00375 C 5.3836557,3.4530171 5.1751874,3.4948096 4.9784253,3.5691919 4.7816631,3.6435712 4.6085714,3.7471137 4.46249,3.8829402 4.3134272,4.0220007 4.1970321,4.1867982 4.1135572,4.3808364 4.0271047,4.5748742 3.9886405,4.7947511 3.9946035,5.0437658 c 0.00294,0.1455286 0.029551,0.2746855 0.080235,0.3878748 0.050675,0.113189 0.1165461,0.2100859 0.194059,0.2941689 0.074525,0.087316 0.1608832,0.1590649 0.2533024,0.2205102 0.092416,0.061445 0.1879393,0.1127353 0.2803585,0.1547768 0.092417,0.042042 0.1760751,0.078056 0.2565688,0.1006982 0.080492,0.025876 0.1424447,0.045341 0.1931254,0.058273 0.074524,0.032345 0.1406806,0.064157 0.1973235,0.096502 0.053671,0.032343 0.080058,0.077948 0.083029,0.1393921 0.00295,0.093784 -0.035473,0.1583929 -0.118953,0.1972006 -0.083475,0.038809 -0.1851846,0.061599 -0.307415,0.068067 -0.083476,0.00323 -0.1670296,-0.00341 -0.250504,-0.026106 C 4.7692808,6.7124828 4.6889881,6.6896347 4.6084947,6.660529 4.5279999,6.6314234 4.4568812,6.6023967 4.3883126,6.5668238 4.3197429,6.5312523 4.2598625,6.5051097 4.2091807,6.4857057 L 3.8364583,7.627882 c 0.09838,0.048505 0.2055049,0.09735 0.3158113,0.139393 0.1103068,0.045278 0.2264173,0.083749 0.3456669,0.1160822 0.1162689,0.032345 0.2355644,0.05469 0.3577964,0.07086 0.1222311,0.016163 0.238443,0.022817 0.3517312,0.019577 C 5.4578896,7.9641042 5.6909628,7.9218422 5.9085945,7.8474568 6.1262256,7.7730765 6.3110218,7.6700311 6.4660468,7.537439 6.6210721,7.4048462 6.7401855,7.2429036 6.8266414,7.0488662 6.9130938,6.854828 6.9489421,6.6316592 6.9399978,6.3794097 6.9340398,6.2015415 6.9010099,6.0463023 6.8443678,5.916944 6.7877227,5.7875878 6.7167067,5.6773997 6.6302502,5.583615 6.5437888,5.4898302 6.4450876,5.4123992 6.3377629,5.34772 6.2304372,5.2830403 6.1265787,5.2246699 6.0252165,5.1761604 5.938764,5.1373526 5.851737,5.1083564 5.7593187,5.0857181 L 5.6786166,5.0628751 C 5.6249496,5.0499421 5.5510347,5.0342328 5.4556356,5.011593 5.431784,5.008363 5.4013749,5.001763 5.3656015,4.998536 5.3298272,4.995306 5.2943689,4.985399 5.2615743,4.975695 5.225799,4.965975 5.1953998,4.953168 5.1715412,4.936998 5.1476896,4.920836 5.1360879,4.901766 5.1360879,4.872665 5.1390267,4.811223 5.1628481,4.7595226 5.2135202,4.723949 5.2641952,4.688372 5.3208169,4.662267 5.3893856,4.646097 5.4549795,4.629935 5.5242052,4.623259 5.5927739,4.623259 c 0.071551,0 0.127881,0.00382 0.1726005,0.010253 C 5.908474,4.656151 6.0333892,4.684707 6.1436956,4.726749 6.2510208,4.76879 6.3703161,4.81728 6.5014911,4.8787278 L 6.7939807,3.647043 C 6.6180871,3.5661895 6.4271253,3.5110547 6.2243997,3.4754804 6.0186933,3.4431418 5.8129435,3.4336115 5.6072371,3.4433125 Z M 8.6450147,4.8717492 7.419086,4.9640542 v 2.1286465 c 0,0.2857222 0.092129,0.5044629 0.2728956,0.6550045 0.1807673,0.1505413 0.4148712,0.2270364 0.7090601,0.2270364 0.2233008,0 0.4179197,-0.040205 0.5845086,-0.1170148 0.1665895,-0.076811 0.2868151,-0.2088593 0.3647934,-0.3962686 h 0.011193 v 0.4671275 l 1.0738503,-0.040094 0.08864,-3.0167486 -1.2026012,0.092304 0.035453,1.8806302 c 0.00351,0.082948 -0.021093,0.1382322 -0.067171,0.1720263 -0.049619,0.033797 -0.2541611,0.052221 -0.3321387,0.052221 -0.095701,0 -0.2417442,-0.018147 -0.2878221,-0.055011 C 8.623666,6.9801146 8.60556,6.9217666 8.609098,6.8418849 Z m 4.0719623,0.9552307 c 0.0686,0.00621 0.134119,0.02447 0.190792,0.052219 0.05671,0.02774 0.107697,0.065189 0.146479,0.1114207 0.03878,0.046239 0.06536,0.1018061 0.08024,0.160371 0.01788,0.061643 0.02105,0.1229667 0.01211,0.184613 -0.0091,0.061643 -0.0334,0.1205592 -0.06621,0.1729586 -0.03576,0.052404 -0.08004,0.1013681 -0.136682,0.1445207 -0.05671,0.043157 -0.122853,0.076787 -0.203389,0.098368 -0.07755,0.024662 -0.151857,0.034141 -0.223448,0.027976 -0.07461,-0.00304 -0.140182,-0.021207 -0.196856,-0.048954 -0.0567,-0.027738 -0.104438,-0.061926 -0.143211,-0.108157 -0.03881,-0.046238 -0.06858,-0.098724 -0.08353,-0.1603714 -0.01788,-0.061643 -0.02104,-0.1229662 -0.0121,-0.184613 0.009,-0.058561 0.03329,-0.1174763 0.06908,-0.1729586 0.03284,-0.052403 0.08004,-0.1015481 0.136682,-0.1477836 0.0567,-0.043155 0.125835,-0.076786 0.203386,-0.098368 0.08048,-0.024657 0.155123,-0.034321 0.226715,-0.031237 z"
       id="path10" />
    <path
       style="opacity:0.2;fill:#ffffff;stroke-width:0.264583"
       d="m 12.140397,3.4395829 -1.138699,0.0993 0.0016,0.2386918 1.130766,-0.098833 z m -6.5331469,0.00375 C 5.3836557,3.4530171 5.1751874,3.4948096 4.9784253,3.5691919 4.7816631,3.6435712 4.6085714,3.7471137 4.46249,3.8829402 4.3134272,4.0220007 4.1970321,4.1867982 4.1135572,4.3808364 4.0271047,4.5748742 3.9886405,4.7947511 3.9946035,5.0437658 c 3.342e-4,0.016467 0.00418,0.030579 0.00511,0.046624 0.01317,-0.17165 0.050373,-0.328384 0.1138497,-0.4708613 C 4.1970434,4.4254898 4.3134394,4.2606926 4.4625027,4.1216318 4.6085834,3.9858053 4.7816748,3.8822639 4.9784375,3.8078826 5.1751996,3.7335009 5.3836681,3.6917101 5.607262,3.6820103 c 0.2057061,-0.00972 0.4114563,-1.72e-4 0.6171625,0.032169 0.183442,0.032192 0.3556055,0.083197 0.5173346,0.1519794 L 6.7940085,3.6470468 C 6.6181158,3.5661918 6.4271534,3.5110582 6.2244279,3.4754838 6.0187215,3.4431453 5.8129718,3.4336151 5.6072656,3.4433164 Z M 8.6450147,4.8717457 7.4190861,4.964053 V 5.2027432 L 8.6408163,5.110901 Z m 1.8790073,0 -1.202601,0.092304 0.00464,0.2382253 1.19094,-0.091377 z m 2.238202,0.00237 c -0.15246,0 -0.274723,0.023672 -0.370388,0.066665 -0.09357,0.042075 -0.189924,0.094641 -0.289223,0.1557121 l -0.0069,0.2419552 c 0.101641,-0.062854 0.200089,-0.1159697 0.295754,-0.1589727 0.09565,-0.043 0.217926,-0.066667 0.370389,-0.066667 0.197305,0 0.379969,0.046726 0.544391,0.1426555 0.164421,0.095928 0.305198,0.2184165 0.427768,0.3738887 0.122569,0.155472 0.214864,0.3307011 0.283625,0.525868 0.04302,0.1063662 0.07231,0.2312245 0.08352,0.3668953 C 14.11788,6.2939512 14.085147,6.0827629 14.017825,5.9165096 13.949185,5.721329 13.856886,5.5461001 13.734316,5.390628 13.611785,5.2351533 13.471007,5.1126665 13.306583,5.0167366 13.142162,4.9208072 12.959497,4.8740811 12.762193,4.8740811 Z m -7.5412256,0.084377 c -0.00239,0.00157 -0.00511,0.00262 -0.00752,0.00423 -0.050675,0.035576 -0.07446,0.087267 -0.077432,0.1487165 0,0.029109 0.011611,0.048167 0.035453,0.064332 0.023851,0.016162 0.054258,0.028991 0.090033,0.0387 0.032792,0.00972 0.068255,0.0196 0.1040271,0.022838 0.035778,0.00319 0.066175,0.00983 0.090033,0.013058 0.095399,0.022638 0.169318,0.038345 0.2229807,0.051285 l 0.080701,0.022839 c 0.092416,0.022638 0.179441,0.051638 0.2658977,0.090445 0.1013626,0.048506 0.2052209,0.1068801 0.3125465,0.1715597 0.1073248,0.064677 0.2060304,0.1421097 0.2924872,0.2358945 0.08645,0.093785 0.157474,0.2039732 0.2141179,0.3333294 0.05267,0.1202868 0.082377,0.2650721 0.091435,0.427501 0.00454,-0.065847 0.00666,-0.1333513 0.00418,-0.2037273 -0.00596,-0.177941 -0.03899,-0.3331802 -0.09563,-0.462538 C 6.7876635,5.7875987 6.7166473,5.6774106 6.6301904,5.5836256 6.543738,5.4898409 6.445028,5.4124104 6.3377029,5.3477311 6.2303775,5.2830507 6.1265193,5.2246804 6.0251568,5.1761715 5.9387047,5.1373639 5.8516779,5.1083674 5.7592586,5.0857294 l -0.080701,-0.022842 c -0.053667,-0.012933 -0.1275804,-0.028642 -0.2229803,-0.051282 -0.023851,-0.00321 -0.054262,-0.00983 -0.090025,-0.013056 -0.035777,-0.00321 -0.071231,-0.013135 -0.1040272,-0.022841 -0.016098,-0.0044 -0.026767,-0.011599 -0.040583,-0.017248 z m 7.9120836,1.4274835 c -0.01225,0.043083 -0.02909,0.084872 -0.05274,0.1226092 -0.03576,0.052404 -0.08003,0.1013682 -0.13668,0.1445205 -0.05671,0.043157 -0.122855,0.076787 -0.203387,0.098368 -0.07755,0.024662 -0.151861,0.034141 -0.223452,0.027977 -0.07461,-0.00304 -0.140184,-0.021199 -0.196856,-0.04895 -0.05671,-0.027738 -0.104439,-0.061925 -0.143215,-0.1081572 -0.03779,-0.045077 -0.06636,-0.096512 -0.08168,-0.1561751 -0.0052,0.016654 -0.01149,0.033201 -0.01395,0.049888 -0.009,0.061643 -0.0061,0.1229661 0.0121,0.1846132 0.01495,0.061643 0.04468,0.1141361 0.08352,0.1603709 0.03878,0.046238 0.08652,0.080414 0.143213,0.1081577 0.05671,0.027739 0.122281,0.045869 0.196853,0.048953 0.07154,0.00618 0.145893,-0.00331 0.223451,-0.027977 0.08048,-0.021575 0.146713,-0.055211 0.203386,-0.098369 0.05671,-0.043153 0.100886,-0.092118 0.136682,-0.1445204 0.03284,-0.052403 0.05727,-0.1113107 0.06621,-0.1729583 0.0091,-0.061642 0.0061,-0.1229661 -0.01209,-0.1846131 -3.35e-4,-0.00126 -0.0012,-0.00249 -0.0016,-0.00375 z M 4.2091874,6.4857084 3.8364649,7.6278858 c 0.02119,0.010445 0.046151,0.019429 0.068113,0.029838 L 4.2091904,6.7243952 c 0.050675,0.019401 0.1105621,0.045547 0.1791317,0.081113 0.068566,0.035575 0.1396875,0.064603 0.2201818,0.093707 0.080492,0.029106 0.1607816,0.051953 0.2472384,0.074591 0.083477,0.022638 0.167028,0.029343 0.2505035,0.026105 0.1222298,-0.00645 0.2239398,-0.02926 0.3074153,-0.06807 0.083476,-0.038811 0.121935,-0.1034152 0.1189535,-0.1971998 -0.00202,-0.041166 -0.018746,-0.072981 -0.042913,-0.1006986 -0.019138,0.023529 -0.04313,0.04391 -0.076038,0.05921 -0.083475,0.038809 -0.1851837,0.061601 -0.3074141,0.068068 C 5.0227755,6.7644408 4.939221,6.7578008 4.855747,6.7351148 4.769293,6.7124752 4.6890011,6.6896282 4.6085076,6.6605213 4.5280131,6.6314151 4.4568943,6.6023895 4.3883254,6.5668156 4.3197561,6.5312441 4.2598754,6.5051014 4.2091937,6.4856973 Z M 9.3526764,6.87265 c -0.00331,0.065506 -0.023069,0.1147904 -0.062969,0.1440542 -0.049619,0.033797 -0.2541621,0.052221 -0.3321399,0.052221 -0.0957,0 -0.2417442,-0.018148 -0.287822,-0.055011 -0.038713,-0.028394 -0.053933,-0.077675 -0.05691,-0.1389256 l -0.00371,0.2055916 c -0.00351,0.079873 0.014557,0.1382307 0.060643,0.1720259 0.046079,0.036865 0.1921224,0.055011 0.2878221,0.055011 0.077973,0 0.282517,-0.018424 0.3321398,-0.05222 0.046086,-0.033797 0.070715,-0.089075 0.067171,-0.172026 z"
       id="path14-3" />
    <rect
       x="3.8364582"
       y="11.793797"
       width="3.1216607"
       height="0.66541886"
       ry="0.3319191"
       id="rect4-5"
       style="fill:#fafafa;fill-rule:evenodd;stroke-width:0.66384;stroke-linecap:square"
       rx="0.33191916" />
    <rect
       x="9.1440449"
       y="11.793797"
       width="5.1434546"
       height="0.66541886"
       ry="0.3319191"
       id="rect5"
       style="fill:#fafafa;fill-rule:evenodd;stroke-width:0.66384;stroke-linecap:square"
       rx="0.33191928" />
    <rect
       x="4.3672171"
       y="13.915503"
       width="4.4006176"
       height="0.66541886"
       ry="0.3319191"
       id="rect6"
       style="fill:#fafafa;fill-rule:evenodd;stroke-width:0.66384;stroke-linecap:square"
       rx="0.33191931" />
    <rect
       x="11.356437"
       y="13.915503"
       width="2.2990646"
       height="0.66541886"
       ry="0.3319191"
       id="rect4-5-3"
       style="fill:#fafafa;fill-rule:evenodd;stroke-width:0.66384;stroke-linecap:square"
       rx="0.33191916" />
  </g>
</svg>
