<?xml version="1.0" encoding="UTF-8" standalone="no"?>
<svg
   width="68"
   height="68"
   viewBox="0 0 17.991665 17.991665"
   version="1.1"
   id="svg1114"
   inkscape:version="1.3.2 (091e20ef0f, 2023-11-25)"
   sodipodi:docname="smw.svg"
   xmlns:inkscape="http://www.inkscape.org/namespaces/inkscape"
   xmlns:sodipodi="http://sodipodi.sourceforge.net/DTD/sodipodi-0.dtd"
   xmlns:xlink="http://www.w3.org/1999/xlink"
   xmlns="http://www.w3.org/2000/svg"
   xmlns:svg="http://www.w3.org/2000/svg"
   xmlns:rdf="http://www.w3.org/1999/02/22-rdf-syntax-ns#"
   xmlns:cc="http://creativecommons.org/ns#"
   xmlns:dc="http://purl.org/dc/elements/1.1/">
  <style
     type="text/css"
     id="current-color-scheme">.ColorScheme-Highlight { color:#5599ff; }
</style>
  <defs
     id="defs1108">
    <linearGradient
       id="linearGradient12"
       inkscape:collect="always">
      <stop
         style="stop-color:#ffffff;stop-opacity:0;"
         offset="0"
         id="stop10" />
      <stop
         id="stop11"
         offset="0.65909404"
         style="stop-color:#ffffff;stop-opacity:0" />
      <stop
         style="stop-color:#ffffff;stop-opacity:1;"
         offset="1"
         id="stop12" />
    </linearGradient>
    <linearGradient
       id="linearGradient9"
       inkscape:collect="always">
      <stop
         style="stop-color:#000000;stop-opacity:0;"
         offset="0"
         id="stop1" />
      <stop
         id="stop8"
         offset="0.66102529"
         style="stop-color:#000000;stop-opacity:0" />
      <stop
         style="stop-color:#000000;stop-opacity:1;"
         offset="1"
         id="stop9" />
    </linearGradient>
    <linearGradient
       id="linearGradient7"
       inkscape:collect="always">
      <stop
         style="stop-color:#000000;stop-opacity:0;"
         offset="0"
         id="stop5" />
      <stop
         id="stop6"
         offset="0.6586886"
         style="stop-color:#000000;stop-opacity:0" />
      <stop
         style="stop-color:#000000;stop-opacity:1;"
         offset="1"
         id="stop7" />
    </linearGradient>
    <linearGradient
       id="linearGradient4"
       inkscape:collect="always">
      <stop
         style="stop-color:#000000;stop-opacity:0;"
         offset="0"
         id="stop2" />
      <stop
         id="stop3"
         offset="0.67055255"
         style="stop-color:#000000;stop-opacity:0" />
      <stop
         style="stop-color:#000000;stop-opacity:1;"
         offset="1"
         id="stop4" />
    </linearGradient>
    <linearGradient
       inkscape:collect="always"
       id="linearGradient899">
      <stop
         style="stop-color:#b380ff;stop-opacity:1;"
         offset="0"
         id="stop895" />
      <stop
         style="stop-color:#2a7fff;stop-opacity:1;"
         offset="1"
         id="stop897" />
    </linearGradient>
    <linearGradient
       id="linearGradient1167"
       x1="40.751999"
       x2="40.751999"
       y1="28.507999"
       y2="17.205999"
       gradientUnits="userSpaceOnUse">
      <stop
         style="stop-color:#84fb6e;stop-opacity:1"
         stop-color="#0ab816"
         offset="0"
         id="stop1163" />
      <stop
         style="stop-color:#0dd41a;stop-opacity:1"
         stop-color="#0cf36c"
         offset="1"
         id="stop1165" />
    </linearGradient>
    <linearGradient
       id="cornerBevel"
       inkscape:collect="always">
      <stop
         style="stop-color:#000000;stop-opacity:0;"
         offset="0"
         id="stop2663" />
      <stop
         id="stop2671"
         offset="0.66666675"
         style="stop-color:#000000;stop-opacity:0" />
      <stop
         style="stop-color:#000000;stop-opacity:1;"
         offset="1"
         id="stop2661" />
    </linearGradient>
    <linearGradient
       id="bevel"
       inkscape:collect="always">
      <stop
         id="stop2685"
         offset="0"
         style="stop-color:#000000;stop-opacity:1;" />
      <stop
         id="stop2687"
         offset="1"
         style="stop-color:#000000;stop-opacity:0;" />
    </linearGradient>
    <linearGradient
       id="highlightCorner"
       inkscape:collect="always">
      <stop
         style="stop-color:#ffffff;stop-opacity:0;"
         offset="0"
         id="stop2613" />
      <stop
         id="stop2621"
         offset="0.66666669"
         style="stop-color:#ffffff;stop-opacity:0" />
      <stop
         style="stop-color:#ffffff;stop-opacity:1;"
         offset="1"
         id="stop2611" />
    </linearGradient>
    <linearGradient
       inkscape:collect="always"
       id="highlight">
      <stop
         style="stop-color:#ffffff;stop-opacity:1;"
         offset="0"
         id="stop2921" />
      <stop
         style="stop-color:#ffffff;stop-opacity:0;"
         offset="1"
         id="stop2923" />
    </linearGradient>
    <radialGradient
       inkscape:collect="always"
       xlink:href="#highlightCorner"
       id="radialGradient15"
       gradientUnits="userSpaceOnUse"
       gradientTransform="matrix(0.04294597,-12.079348,17.933991,0.06376112,14.524179,-50.373789)"
       cx="-4.5799766"
       cy="-0.50206107"
       fx="-4.5799766"
       fy="-0.50206107"
       r="0.39687499" />
    <linearGradient
       inkscape:collect="always"
       xlink:href="#highlight"
       id="linearGradient15"
       gradientUnits="userSpaceOnUse"
       x1="-3.8453064"
       y1="-1.1532172"
       x2="-3.8453064"
       y2="-0.8954913"
       gradientTransform="matrix(6.0923077,0,0,6.0923077,32.228528,7.1537621)" />
    <radialGradient
       inkscape:collect="always"
       xlink:href="#linearGradient12"
       id="radialGradient17"
       gradientUnits="userSpaceOnUse"
       gradientTransform="matrix(-0.02247554,-12.045403,-17.967828,0.03352619,1.6640208,-50.22331)"
       cx="-4.575222"
       cy="-0.55256462"
       fx="-4.575222"
       fy="-0.55256462"
       r="0.39687499" />
    <radialGradient
       inkscape:collect="always"
       xlink:href="#linearGradient7"
       id="radialGradient18"
       gradientUnits="userSpaceOnUse"
       gradientTransform="matrix(0.06461187,12.09952,17.933731,-0.09576873,14.609502,64.748231)"
       cx="-4.4284906"
       cy="-0.50121039"
       fx="-4.4284906"
       fy="-0.50121039"
       r="0.39687499" />
    <linearGradient
       inkscape:collect="always"
       xlink:href="#bevel"
       id="linearGradient18"
       gradientUnits="userSpaceOnUse"
       x1="-3.8415797"
       y1="-1.4506671"
       x2="-3.8406549"
       y2="-1.1968651"
       gradientTransform="matrix(6.0923076,0,0,6.0923076,32.228527,-7.1537627)" />
    <radialGradient
       inkscape:collect="always"
       xlink:href="#linearGradient4"
       id="radialGradient20"
       gradientUnits="userSpaceOnUse"
       gradientTransform="matrix(-0.01031383,11.991438,-17.967296,-0.01545561,1.7353715,64.305742)"
       cx="-4.4236727"
       cy="-0.55004197"
       fx="-4.4236727"
       fy="-0.55004197"
       r="0.39687499" />
    <radialGradient
       inkscape:collect="always"
       xlink:href="#cornerBevel"
       id="radialGradient25"
       gradientUnits="userSpaceOnUse"
       gradientTransform="matrix(12.184614,0,0,12.184614,59.63122,10.377613)"
       cx="-4.4568658"
       cy="-0.44864327"
       fx="-4.4568658"
       fy="-0.44864327"
       r="0.39687496" />
    <linearGradient
       inkscape:collect="always"
       xlink:href="#bevel"
       id="linearGradient25"
       gradientUnits="userSpaceOnUse"
       x1="-3.8487544"
       y1="-1.146081"
       x2="-3.8455966"
       y2="-0.890971"
       gradientTransform="matrix(6.0923077,0,0,6.0923077,32.228528,7.1537627)" />
    <radialGradient
       inkscape:collect="always"
       xlink:href="#cornerBevel"
       id="radialGradient29"
       gradientUnits="userSpaceOnUse"
       gradientTransform="matrix(0,-12.184614,12.184614,0,11.27353,-44.427768)"
       cx="-4.5705457"
       cy="-0.48653662"
       fx="-4.5705457"
       fy="-0.48653662"
       r="0.39687496" />
    <radialGradient
       inkscape:collect="always"
       xlink:href="#cornerBevel"
       id="radialGradient30"
       gradientUnits="userSpaceOnUse"
       gradientTransform="matrix(-12.184514,-0.04945749,0.04847411,-11.942243,-43.502155,3.8519053)"
       cx="-4.5342312"
       cy="-0.60337442"
       fx="-4.5342312"
       fy="-0.60337442"
       r="0.39687496" />
    <radialGradient
       inkscape:collect="always"
       xlink:href="#linearGradient9"
       id="radialGradient31"
       gradientUnits="userSpaceOnUse"
       gradientTransform="matrix(0,-12.151612,11.978956,0,18.475664,-48.770776)"
       cx="-4.4175329"
       cy="-0.56489283"
       fx="-4.4175329"
       fy="-0.56489283"
       r="0.39687496" />
    <linearGradient
       inkscape:collect="always"
       xlink:href="#bevel"
       id="linearGradient34"
       gradientUnits="userSpaceOnUse"
       x1="-3.99717"
       y1="-1.2218677"
       x2="-4.0003276"
       y2="-0.96675771"
       gradientTransform="matrix(6.0923077,0,0,6.0923077,17.025077,8.0496826)" />
    <linearGradient
       inkscape:collect="always"
       xlink:href="#bevel"
       id="linearGradient35"
       gradientUnits="userSpaceOnUse"
       x1="-4.0919032"
       y1="-1.4492278"
       x2="-4.0950613"
       y2="-1.1972755"
       gradientTransform="matrix(6.0923077,0,0,6.0923077,16.129161,-7.1537627)" />
    <linearGradient
       inkscape:collect="always"
       xlink:href="#bevel"
       id="linearGradient36"
       gradientUnits="userSpaceOnUse"
       x1="-3.8734362"
       y1="-1.3717227"
       x2="-3.8765941"
       y2="-1.116071"
       gradientTransform="matrix(6.0923077,0,0,6.0923077,31.33261,-8.0496826)" />
    <linearGradient
       id="paint2_linear_77:3-7"
       x1="79.398094"
       y1="-197.84389"
       x2="82.901054"
       y2="-199.97827"
       gradientUnits="userSpaceOnUse"
       gradientTransform="matrix(1.9248511,0,0,1.7314595,-40.88733,399.61741)">
      <stop
         stop-color="#EBFAFF"
         stop-opacity="0.1"
         id="stop29-5-7"
         offset="0"
         style="stop-color:#c3c3c3;stop-opacity:1;" />
      <stop
         offset="1"
         stop-color="#70A9FF"
         stop-opacity="0.5"
         id="stop30-0-1"
         style="stop-color:#05c7ff;stop-opacity:0.80000001;" />
    </linearGradient>
    <linearGradient
       inkscape:collect="always"
       xlink:href="#linearGradient899"
       id="linearGradient926"
       x1="0.98894888"
       y1="-9.3406019"
       x2="16.919081"
       y2="-9.2251434"
       gradientUnits="userSpaceOnUse"
       gradientTransform="translate(-0.92604234,0.47624996)" />
    <linearGradient
       id="linearGradient4574">
      <stop
         style="stop-color:#f4be00;stop-opacity:1;"
         offset="0"
         id="stop10278" />
      <stop
         style="stop-color:#fff4ca;stop-opacity:1"
         offset="1"
         id="stop10280" />
    </linearGradient>
    <linearGradient
       id="linearGradient4838">
      <stop
         offset="0"
         style="stop-color:#2e9000;stop-opacity:1"
         id="stop10268" />
      <stop
         offset="1"
         style="stop-color:#00ba00;stop-opacity:1"
         id="stop10270" />
    </linearGradient>
  </defs>
  <sodipodi:namedview
     id="base"
     pagecolor="#e2e2e2"
     bordercolor="#666666"
     borderopacity="1.0"
     inkscape:pageopacity="0"
     inkscape:pageshadow="2"
     inkscape:zoom="9.7248729"
     inkscape:cx="33.933605"
     inkscape:cy="38.663744"
     inkscape:document-units="px"
     inkscape:current-layer="layer1"
     inkscape:document-rotation="0"
     showgrid="true"
     units="px"
     inkscape:window-width="1920"
     inkscape:window-height="990"
     inkscape:window-x="0"
     inkscape:window-y="0"
     inkscape:window-maximized="1"
     inkscape:object-paths="true"
     inkscape:snap-grids="true"
     inkscape:snap-intersection-paths="true"
     inkscape:snap-smooth-nodes="true"
     inkscape:snap-midpoints="true"
     inkscape:showpageshadow="2"
     inkscape:pagecheckerboard="0"
     inkscape:deskcolor="#d1d1d1">
    <inkscape:grid
       id="grid2"
       units="px"
       originx="0"
       originy="0"
       spacingx="0.26458333"
       spacingy="0.26458333"
       empcolor="#0099e5"
       empopacity="0.30196078"
       color="#0099e5"
       opacity="0.14902"
       empspacing="5"
       dotted="false"
       gridanglex="30"
       gridanglez="30"
       visible="true" />
  </sodipodi:namedview>
  <metadata
     id="metadata1111">
    <rdf:RDF>
      <cc:Work
         rdf:about="">
        <dc:format>image/svg+xml</dc:format>
        <dc:type
           rdf:resource="http://purl.org/dc/dcmitype/StillImage" />
      </cc:Work>
    </rdf:RDF>
  </metadata>
  <g
     inkscape:label="Layer 1"
     inkscape:groupmode="layer"
     id="layer1">
    <g
       id="g918"
       transform="translate(0.47625037,0.92604234)">
      <rect
         ry="4.8357682"
         rx="4.8357682"
         style="fill:url(#linearGradient926);fill-opacity:1;stroke-width:6.09228"
         x="0.13229237"
         y="-16.457085"
         width="15.875001"
         height="15.875001"
         id="use1056"
         transform="rotate(90)"
         class="ColorScheme-Highlight" />
      <path
         d="m 5.344583,0.13229167 c -2.6384245,0 -4.76249953,2.12407483 -4.76249953,4.76249963 H 5.344583 Z"
         style="opacity:0.15;fill:url(#radialGradient25);fill-opacity:1;stroke-width:6.09228"
         id="path20" />
      <rect
         y="0.13229151"
         x="5.3445826"
         height="1.5875"
         width="6.3500004"
         id="rect20"
         style="opacity:0.15;fill:url(#linearGradient25);fill-opacity:1;stroke-width:4.83577;stroke-linecap:round;stroke-linejoin:round;paint-order:stroke fill markers" />
      <path
         d="m 0.58208347,11.244792 c 0,2.638424 2.12407503,4.762499 4.76249953,4.762499 v -4.762499 z"
         style="opacity:0.15;fill:url(#radialGradient29);fill-opacity:1;stroke-width:6.09228"
         id="use20" />
      <rect
         y="0.5820834"
         x="-11.244792"
         height="1.5875"
         width="6.3500004"
         id="use21"
         style="opacity:0.15;fill:url(#linearGradient34);fill-opacity:1;stroke-width:4.83577;stroke-linecap:round;stroke-linejoin:round;paint-order:stroke fill markers"
         transform="rotate(-90)" />
      <path
         d="m 11.694583,16.007291 c 2.638425,0 4.7625,-2.124074 4.7625,-4.762499 h -4.7625 z"
         style="opacity:0.15;fill:url(#radialGradient30);fill-opacity:1;stroke-width:6.09228"
         id="use22" />
      <rect
         y="-16.007292"
         x="-11.694584"
         height="1.5875"
         width="6.3500004"
         id="use23"
         style="opacity:0.15;fill:url(#linearGradient35);fill-opacity:1;stroke-width:4.83577;stroke-linecap:round;stroke-linejoin:round;paint-order:stroke fill markers"
         transform="scale(-1)" />
      <path
         d="m 16.457083,4.8947913 c 0,-2.6384245 -2.124074,-4.76249963 -4.7625,-4.76249963 V 4.8947913 Z"
         style="opacity:0.15;fill:url(#radialGradient31);fill-opacity:1;stroke-width:6.09228"
         id="use24" />
      <rect
         y="-16.457081"
         x="4.8947906"
         height="1.5875"
         width="6.3500004"
         id="use25"
         style="opacity:0.15;fill:url(#linearGradient36);fill-opacity:1;stroke-width:4.83577;stroke-linecap:round;stroke-linejoin:round;paint-order:stroke fill markers"
         transform="rotate(90)" />
      <path
         d="m 5.3445832,0.13229107 c -2.638425,0 -4.76250035,2.12407473 -4.76250035,4.76249973 H 5.3445832 Z"
         style="opacity:0.5;fill:url(#radialGradient15);fill-opacity:1;stroke-width:6.09228"
         id="path14" />
      <rect
         y="0.1322909"
         x="5.3445826"
         height="1.5875"
         width="6.3499999"
         id="rect14"
         style="opacity:0.5;fill:url(#linearGradient15);fill-opacity:1;stroke-width:4.83577;stroke-linecap:round;stroke-linejoin:round;paint-order:stroke fill markers" />
      <path
         d="m 11.694583,0.13229096 c 2.638425,0 4.7625,2.12407504 4.7625,4.76249734 h -4.7625 z"
         style="opacity:0.5;fill:url(#radialGradient17);fill-opacity:1;stroke-width:6.09228"
         id="use14" />
      <path
         id="path17"
         style="opacity:0.5;fill:url(#radialGradient18);fill-opacity:1;stroke-width:6.09228"
         d="m 5.3445834,16.00729 c -2.638425,0 -4.7625,-2.124075 -4.7625,-4.7625 h 4.7625 z" />
      <rect
         style="opacity:0.5;fill:url(#linearGradient18);fill-opacity:1;stroke-width:4.83577;stroke-linecap:round;stroke-linejoin:round;paint-order:stroke fill markers"
         id="rect17"
         width="6.3499994"
         height="1.5874999"
         x="5.3445826"
         y="-16.007292"
         transform="scale(1,-1)" />
      <path
         id="use17"
         style="opacity:0.5;fill:url(#radialGradient20);fill-opacity:1;stroke-width:6.09228"
         d="m 11.694582,16.007291 c 2.638425,0 4.7625,-2.124075 4.7625,-4.7625 h -4.7625 z" />
    </g>
    <ellipse
       style="opacity:0.2;stroke-width:0.143266"
       cx="0.47722152"
       cy="12.318135"
       rx="0.94349581"
       ry="1.4891255"
       transform="matrix(0.85560658,-0.51762669,0.42609286,0.90467943,0,0)"
       id="ellipse1" />
    <ellipse
       style="opacity:0.2;stroke-width:0.143266"
       cx="-15.887662"
       cy="2.9545834"
       rx="0.94349581"
       ry="1.4891255"
       transform="matrix(-0.85560658,-0.51762669,-0.42609286,0.90467943,0,0)"
       id="ellipse2" />
    <path
       style="opacity:0.2;stroke-width:0.143367"
       d="m 5.9039341,7.9478551 v 2.3452719 c -0.1928194,0.357132 -0.5458875,0.843362 -0.5458875,1.507391 0,1.37356 1.629312,2.486989 3.6391834,2.486989 2.009889,0 3.639328,-1.113429 3.639328,-2.486989 0,-0.609163 -0.353089,-1.068707 -0.54588,-1.41639 V 7.9478551 L 8.9972998,6.7978953 Z"
       id="path2" />
    <path
       style="fill:#ea2028;stroke-width:0.143367"
       d="m 13.18245,7.8276337 c 0,2.2773393 -1.873755,4.1234813 -4.1851502,4.1234813 -2.3113904,0 -4.185142,-1.846142 -4.185142,-4.1234813 0,-2.2773291 2.5341288,-4.1234674 4.185142,-4.1234674 1.6510222,0 4.1851502,1.8461383 4.1851502,4.1234674 z"
       id="path3" />
    <ellipse
       style="fill:#e5b493;stroke-width:0.143266"
       cx="-15.810804"
       cy="2.800349"
       rx="0.94349581"
       ry="1.4891255"
       transform="matrix(-0.85560658,-0.51762669,-0.42609286,0.90467943,0,0)"
       id="ellipse3" />
    <path
       style="opacity:0.1;stroke-width:0.143367"
       d="m 12.739956,9.608853 c 0.176372,3.29e-4 0.330953,0.1346637 0.37805,0.328569 -0.121212,-0.09229 -0.209365,-0.175465 -0.388546,-0.1756503 -0.08348,8e-5 -0.248675,0.04207 -0.325779,0.0643 0.07089,-0.1346306 0.198569,-0.2170376 0.336275,-0.2172236 z"
       id="path4" />
    <path
       style="opacity:0.1;stroke-width:0.143367"
       d="m 12.792007,10.552956 c 0.06859,0.160148 0.0025,0.352775 -0.159704,0.471107 0.03928,-0.145939 0.08219,-0.258361 0.0126,-0.421013 -0.03258,-0.07568 -0.136303,-0.209205 -0.187103,-0.270517 0.153501,0.01193 0.280267,0.0956 0.334116,0.220423 z"
       id="path5" />
    <path
       style="fill:#a84e37;stroke-width:0.143367"
       d="m 12.546256,8.206791 h -0.817444 v 3.08954 c 0.531244,-0.179048 0.861451,-0.448415 0.913213,-0.965501 0.02431,-0.291944 -0.161692,-0.633926 -0.177688,-0.9697234 -0.02518,-0.5323926 0.04773,-0.6677182 0.08178,-1.1543156 z"
       id="path6" />
    <ellipse
       style="fill:#e5b493;stroke-width:0.143266"
       cx="0.55406266"
       cy="12.163905"
       rx="0.94349581"
       ry="1.4891255"
       transform="matrix(0.85560658,-0.51762669,0.42609286,0.90467943,0,0)"
       id="ellipse6" />
    <path
       style="opacity:0.1;stroke-width:0.143367"
       d="M 5.2514433,9.608853 C 5.075071,9.609182 4.9204914,9.7435167 4.8733957,9.937422 4.9945802,9.845142 5.0827565,9.761957 5.2619414,9.7617717 c 0.083376,8e-5 0.2486703,0.04207 0.3257828,0.06429 C 5.5167412,9.691431 5.3891556,9.609024 5.2514433,9.608853 Z"
       id="path7" />
    <path
       style="opacity:0.1;stroke-width:0.143367"
       d="m 5.1993938,10.552956 c -0.068492,0.160148 -0.00329,0.352775 0.1597074,0.471107 -0.039,-0.145939 -0.08238,-0.258361 -0.012679,-0.421013 0.032568,-0.07568 0.1363006,-0.209205 0.1871011,-0.270517 -0.1535043,0.01193 -0.2802655,0.09559 -0.3341295,0.220423 z"
       id="path8" />
    <path
       style="fill:#a84e37;stroke-width:0.143367"
       d="m 5.476393,8.206791 h 0.8174433 v 3.08954 C 5.7625965,11.117283 5.4098025,10.847916 5.3580466,10.33083 5.3337271,10.038887 5.5423171,9.696904 5.5583116,9.3611066 5.5836707,8.828714 5.5107926,8.6933884 5.476393,8.206791 Z"
       id="path9" />
    <path
       style="fill:#f0c3a5;stroke-width:0.143367"
       d="m 5.9039341,7.7685735 v 2.3452695 c -0.1928194,0.357139 -0.5458875,0.843361 -0.5458875,1.507396 0,1.373552 1.629312,2.48698 3.6391834,2.48698 2.009889,0 3.639328,-1.113428 3.639328,-2.48698 0,-0.609158 -0.353089,-1.068708 -0.54588,-1.416392 V 7.7685735 L 8.9972998,6.6186139 Z"
       id="path10" />
    <path
       style="opacity:0.1;stroke-width:0.143367"
       d="M 7.8841363,12.878971 A 1.3489581,0.61676259 0 0 0 9.0520375,13.18856 1.3489581,0.61676259 0 0 0 10.116369,12.949315 2.080745,0.61676259 0 0 1 9.1842619,13.015155 2.080745,0.61676259 0 0 1 7.8841363,12.878929 Z M 8.40298,13.290113 a 0.67888733,0.25191717 0 0 0 -0.012083,0.04681 0.67888733,0.25191717 0 0 0 0.6787181,0.251632 0.67888733,0.25191717 0 0 0 0.6787277,-0.251632 0.67888733,0.25191717 0 0 0 -0.0078,-0.0393 0.97865587,0.25191717 0 0 1 -0.6525858,0.06471 0.97865587,0.25191717 0 0 1 -0.68425,-0.07225 z"
       id="path11" />
    <ellipse
       style="opacity:0.2;stroke-width:0.143367"
       cx="7.5415974"
       cy="9.7482681"
       rx="0.90981299"
       ry="1.0244136"
       id="ellipse11" />
    <path
       style="fill:#5b4b53;stroke-width:0.143367"
       d="m 11.627348,10.522598 c -0.604332,0.535062 -1.606323,0.855047 -2.6773924,0.855028 -1.0511411,-9.91e-4 -2.0363078,-0.310149 -2.6430741,-0.829499 -0.1310608,0.290985 -0.169661,0.559555 -0.2209848,0.83759 -1.86e-5,0.300023 0.2437244,0.543254 0.544405,0.543258 0.087827,-6.2e-5 0.1743965,-0.02113 0.2522198,-0.06201 -0.00465,0.02845 -0.0075,0.05723 -0.0077,0.0867 5.2e-5,0.299978 0.2437734,0.543138 0.5444044,0.543142 0.2063509,-2.73e-4 0.3948175,-0.116875 0.4867303,-0.30127 -0.00355,0.02451 -0.00504,0.0492 -0.00525,0.07457 3.9e-5,0.322374 0.2684825,0.583694 0.5996194,0.583705 0.1993605,-6.6e-5 0.3856522,-0.09647 0.4970597,-0.257545 0.1113984,0.160958 0.2977006,0.257479 0.4970642,0.257545 0.3311842,5.2e-5 0.5997035,-0.261285 0.5997425,-0.583705 -2.15e-4,-0.02472 -0.0017,-0.04947 -0.0047,-0.0747 0.09208,0.184399 0.280357,0.301109 0.486743,0.301399 0.30062,-3e-6 0.544349,-0.243168 0.544401,-0.543144 -2.38e-4,-0.02878 -0.0022,-0.05768 -0.006,-0.0867 0.0777,0.04054 0.164358,0.06184 0.252209,0.06199 0.300687,-4e-6 0.544425,-0.243235 0.544409,-0.543263 -0.0664,-0.29872 -0.173202,-0.6003 -0.281424,-0.863107 z"
       id="path12" />
    <path
       style="fill:#5d4e55;stroke-width:0.143367"
       d="M 7.5194757,7.3457465 A 0.83593821,1.0275185 0 0 0 6.6835589,8.3733675 0.83593821,1.0275185 0 0 0 6.6914343,8.5050434 0.96093822,1.0275185 0 0 1 7.5663196,7.9002937 0.96093822,1.0275185 0 0 1 8.3545061,8.342099 0.83593821,1.0275185 0 0 0 7.5194389,7.3457465 Z"
       id="path13" />
    <ellipse
       style="fill:#ffffff;stroke-width:0.143367"
       cx="8.9973011"
       cy="5.6776981"
       rx="1.4557005"
       ry="1.0756879"
       id="ellipse13" />
    <path
       style="fill:#ed475f;stroke-width:0.143367"
       d="M 9.5057489,4.8479819 8.9826094,5.4133711 8.4874244,4.8745948 7.9026805,6.1020156 8.4129119,6.2560083 8.5722459,5.4329798 8.982136,5.8783817 9.4266204,5.397965 9.6902806,6.1813089 10.091923,6.0226469 Z"
       id="path14-3" />
    <ellipse
       style="opacity:0.2;stroke-width:0.143367"
       cx="-10.452999"
       cy="9.7482681"
       rx="0.90981299"
       ry="1.0244136"
       transform="scale(-1,1)"
       id="ellipse14" />
    <ellipse
       style="fill:#ffffff;stroke-width:0.143367"
       cx="7.5415974"
       cy="9.5689907"
       rx="0.90981299"
       ry="1.0244136"
       id="ellipse15" />
    <path
       style="fill:#2784cf;stroke-width:0.143367"
       d="M 8.0132592,8.7395671 A 0.60180641,0.79881959 0 0 0 7.4116245,9.5384299 0.60180641,0.79881959 0 0 0 8.0132592,10.337301 0.60180641,0.79881959 0 0 0 8.1691249,10.309781 0.90981312,1.0244643 0 0 0 8.4514117,9.5689404 0.90981312,1.0244643 0 0 0 8.0802753,8.7450641 a 0.60180641,0.79881959 0 0 0 -0.067013,-0.0055 z"
       id="path15" />
    <ellipse
       style="fill:#3f3f3f;stroke-width:0.143367"
       cx="7.9965005"
       cy="9.5345573"
       rx="0.32498521"
       ry="0.448203"
       id="ellipse16" />
    <path
       style="fill:#5d4e55;stroke-width:0.143367"
       d="m 10.481038,7.3457465 a 0.83593821,1.0275185 0 0 1 0.835918,1.027621 0.83593821,1.0275185 0 0 1 -0.0069,0.1316759 A 0.96093822,1.0275185 0 0 0 10.434602,7.9002937 0.96093822,1.0275185 0 0 0 9.6463671,8.342099 0.83593821,1.0275185 0 0 1 10.481442,7.3457465 Z"
       id="path16" />
    <ellipse
       style="fill:#ffffff;stroke-width:0.143367"
       cx="-10.452999"
       cy="9.5689907"
       rx="0.90981299"
       ry="1.0244136"
       transform="scale(-1,1)"
       id="ellipse17" />
    <path
       style="fill:#2784cf;stroke-width:0.143367"
       d="M 9.9813419,8.7395671 A 0.60180651,0.79881966 0 0 1 10.582981,9.5384299 0.60180651,0.79881966 0 0 1 9.9813419,10.337301 0.60180651,0.79881966 0 0 1 9.8254727,10.309741 0.90981321,1.0244643 0 0 1 9.5431895,9.5689004 0.90981321,1.0244643 0 0 1 9.9143213,8.7450241 a 0.60180651,0.79881966 0 0 1 0.06701,-0.0053 z"
       id="path17-6" />
    <ellipse
       style="fill:#3f3f3f;stroke-width:0.143367"
       cx="-9.9980879"
       cy="9.5345573"
       rx="0.32498521"
       ry="0.448203"
       transform="scale(-1,1)"
       id="ellipse18" />
    <ellipse
       style="opacity:0.2;stroke-width:0.143367"
       cx="8.9973011"
       cy="11.150049"
       rx="1.4557005"
       ry="1.1653286"
       id="ellipse19" />
    <ellipse
       style="fill:#ffd0ae;stroke-width:0.143367"
       cx="8.9973011"
       cy="10.970759"
       rx="1.4557005"
       ry="1.1653286"
       id="ellipse20" />
    <path
       style="opacity:0.1;stroke-width:0.143367"
       d="M 8.9972998,6.5924858 C 7.5650554,6.6158438 6.0673232,6.9225819 5.462163,8.1361847 5.3419039,8.377351 5.2854852,8.6709599 5.5200419,8.7909837 5.7356289,8.8926299 5.8306943,8.7656934 5.9809925,8.6329096 6.8776069,7.8663597 7.8030842,7.4613797 8.9973071,7.4613797 c 1.1942309,0 2.1197059,0.40498 3.0163229,1.1715299 0.150298,0.1327938 0.245362,0.2597203 0.460948,0.1580741 C 12.709125,8.6709599 12.652705,8.377351 12.532368,8.1361848 11.927284,6.922582 10.429552,6.6158457 8.9972998,6.5924858 Z"
       id="path20-7" />
    <path
       style="fill:#ff3137;stroke-width:0.143367"
       d="M 8.9972998,6.4132041 C 7.5650554,6.4365631 6.0673232,6.7433006 5.462163,7.9569035 5.3419036,8.1980693 5.2854852,8.4916783 5.5200404,8.6117008 5.7356278,8.7133458 5.8306931,8.5864194 5.9809915,8.453628 6.8776056,7.6870778 7.8030826,7.2820983 8.9973059,7.2820983 c 1.1942311,0 2.1197061,0.4049795 3.0163231,1.1715297 0.150298,0.1327924 0.24536,0.2597178 0.460948,0.1580728 0.234546,-0.1200221 0.178127,-0.4136315 0.05777,-0.6547973 C 11.927274,6.7433006 10.429542,6.4365637 8.9972866,6.4132041 Z"
       id="path21" />
    <path
       style="opacity:0.2;fill:#ffffff;stroke-width:0.143367"
       d="m 8.9972998,3.7043009 c -1.6510132,0 -4.185142,1.8461404 -4.185142,4.1234688 0,0.03513 0.00135,0.069779 0.0028,0.1047131 0.054672,-2.2427806 2.5497676,-4.0488863 4.1826463,-4.0488863 1.6328889,0 4.1280139,1.8061057 4.1826589,4.0488865 9.79e-4,-0.034885 0.002,-0.06959 0.002,-0.1047108 0,-2.2773285 -2.534123,-4.1234692 -4.1851489,-4.1234692 z"
       id="path22" />
    <path
       style="opacity:0.2;fill:#ffffff;stroke-width:0.143367"
       d="m 8.9972998,9.8054703 a 1.4557014,1.1653279 0 0 0 -1.4557014,1.1653347 1.4557014,1.1653279 0 0 0 0.00517,0.09327 1.4557014,1.1653279 0 0 1 1.4503689,-1.0795414 1.4557014,1.1653279 0 0 1 1.4503747,1.0718354 1.4557014,1.1653279 0 0 0 0.0043,-0.08554 1.4557014,1.1653279 0 0 0 -1.4556921,-1.1653317 z"
       id="path23" />
    <path
       style="opacity:0.2;fill:#ffffff;stroke-width:0.143367"
       d="M 8.9972998,6.4131286 C 7.5650554,6.4364886 6.0673374,6.7433739 5.462178,7.9569788 5.387267,8.1072172 5.3373867,8.2776365 5.366934,8.4139348 5.382467,8.3218248 5.417703,8.2254555 5.462178,8.1362598 6.0673374,6.9226553 7.5650553,6.6157707 8.9972998,6.59241 c 1.4322532,0.023336 2.9299742,0.3302453 3.5351322,1.5438498 0.04451,0.089196 0.07996,0.1855671 0.09515,0.277675 0.02952,-0.1362983 -0.02032,-0.3067176 -0.09515,-0.456956 C 11.927274,6.7433739 10.429553,6.4364892 8.9972998,6.4131286 Z"
       id="path24" />
  </g>
</svg>
