<?xml version="1.0" encoding="UTF-8" standalone="no"?>
<svg
   width="68"
   height="68"
   viewBox="0 0 17.991665 17.991665"
   version="1.1"
   id="svg1114"
   inkscape:version="1.3.2 (091e20ef0f, 2023-11-25)"
   sodipodi:docname="synfig_icon.svg"
   xmlns:inkscape="http://www.inkscape.org/namespaces/inkscape"
   xmlns:sodipodi="http://sodipodi.sourceforge.net/DTD/sodipodi-0.dtd"
   xmlns:xlink="http://www.w3.org/1999/xlink"
   xmlns="http://www.w3.org/2000/svg"
   xmlns:svg="http://www.w3.org/2000/svg"
   xmlns:rdf="http://www.w3.org/1999/02/22-rdf-syntax-ns#"
   xmlns:cc="http://creativecommons.org/ns#"
   xmlns:dc="http://purl.org/dc/elements/1.1/">
  <style
     type="text/css"
     id="current-color-scheme">.ColorScheme-Highlight { color:#5599ff; }
</style>
  <defs
     id="defs1108">
    <linearGradient
       id="linearGradient12"
       inkscape:collect="always">
      <stop
         style="stop-color:#ffffff;stop-opacity:0;"
         offset="0"
         id="stop10" />
      <stop
         id="stop11"
         offset="0.65909404"
         style="stop-color:#ffffff;stop-opacity:0" />
      <stop
         style="stop-color:#ffffff;stop-opacity:1;"
         offset="1"
         id="stop12" />
    </linearGradient>
    <linearGradient
       id="linearGradient9"
       inkscape:collect="always">
      <stop
         style="stop-color:#000000;stop-opacity:0;"
         offset="0"
         id="stop1" />
      <stop
         id="stop8"
         offset="0.66102529"
         style="stop-color:#000000;stop-opacity:0" />
      <stop
         style="stop-color:#000000;stop-opacity:1;"
         offset="1"
         id="stop9" />
    </linearGradient>
    <linearGradient
       id="linearGradient7"
       inkscape:collect="always">
      <stop
         style="stop-color:#000000;stop-opacity:0;"
         offset="0"
         id="stop5" />
      <stop
         id="stop6"
         offset="0.6586886"
         style="stop-color:#000000;stop-opacity:0" />
      <stop
         style="stop-color:#000000;stop-opacity:1;"
         offset="1"
         id="stop7" />
    </linearGradient>
    <linearGradient
       id="linearGradient4"
       inkscape:collect="always">
      <stop
         style="stop-color:#000000;stop-opacity:0;"
         offset="0"
         id="stop2" />
      <stop
         id="stop3"
         offset="0.67055255"
         style="stop-color:#000000;stop-opacity:0" />
      <stop
         style="stop-color:#000000;stop-opacity:1;"
         offset="1"
         id="stop4" />
    </linearGradient>
    <linearGradient
       inkscape:collect="always"
       id="linearGradient899">
      <stop
         style="stop-color:#5e81ac;stop-opacity:1;"
         offset="0"
         id="stop895" />
      <stop
         style="stop-color:#444d5f;stop-opacity:1;"
         offset="1"
         id="stop897" />
    </linearGradient>
    <linearGradient
       id="linearGradient1167"
       x1="40.751999"
       x2="40.751999"
       y1="28.507999"
       y2="17.205999"
       gradientUnits="userSpaceOnUse">
      <stop
         style="stop-color:#84fb6e;stop-opacity:1"
         stop-color="#0ab816"
         offset="0"
         id="stop1163" />
      <stop
         style="stop-color:#0dd41a;stop-opacity:1"
         stop-color="#0cf36c"
         offset="1"
         id="stop1165" />
    </linearGradient>
    <linearGradient
       id="cornerBevel"
       inkscape:collect="always">
      <stop
         style="stop-color:#000000;stop-opacity:0;"
         offset="0"
         id="stop2663" />
      <stop
         id="stop2671"
         offset="0.66666675"
         style="stop-color:#000000;stop-opacity:0" />
      <stop
         style="stop-color:#000000;stop-opacity:1;"
         offset="1"
         id="stop2661" />
    </linearGradient>
    <linearGradient
       id="bevel"
       inkscape:collect="always">
      <stop
         id="stop2685"
         offset="0"
         style="stop-color:#000000;stop-opacity:1;" />
      <stop
         id="stop2687"
         offset="1"
         style="stop-color:#000000;stop-opacity:0;" />
    </linearGradient>
    <linearGradient
       id="highlightCorner"
       inkscape:collect="always">
      <stop
         style="stop-color:#ffffff;stop-opacity:0;"
         offset="0"
         id="stop2613" />
      <stop
         id="stop2621"
         offset="0.66666669"
         style="stop-color:#ffffff;stop-opacity:0" />
      <stop
         style="stop-color:#ffffff;stop-opacity:1;"
         offset="1"
         id="stop2611" />
    </linearGradient>
    <linearGradient
       inkscape:collect="always"
       id="highlight">
      <stop
         style="stop-color:#ffffff;stop-opacity:1;"
         offset="0"
         id="stop2921" />
      <stop
         style="stop-color:#ffffff;stop-opacity:0;"
         offset="1"
         id="stop2923" />
    </linearGradient>
    <radialGradient
       inkscape:collect="always"
       xlink:href="#highlightCorner"
       id="radialGradient15"
       gradientUnits="userSpaceOnUse"
       gradientTransform="matrix(0.04294597,-12.079348,17.933991,0.06376112,14.524179,-50.373789)"
       cx="-4.5799766"
       cy="-0.50206107"
       fx="-4.5799766"
       fy="-0.50206107"
       r="0.39687499" />
    <linearGradient
       inkscape:collect="always"
       xlink:href="#highlight"
       id="linearGradient15"
       gradientUnits="userSpaceOnUse"
       x1="-3.8453064"
       y1="-1.1532172"
       x2="-3.8453064"
       y2="-0.8954913"
       gradientTransform="matrix(6.0923077,0,0,6.0923077,32.228528,7.1537621)" />
    <radialGradient
       inkscape:collect="always"
       xlink:href="#linearGradient12"
       id="radialGradient17"
       gradientUnits="userSpaceOnUse"
       gradientTransform="matrix(-0.02247554,-12.045403,-17.967828,0.03352619,1.6640208,-50.22331)"
       cx="-4.575222"
       cy="-0.55256462"
       fx="-4.575222"
       fy="-0.55256462"
       r="0.39687499" />
    <radialGradient
       inkscape:collect="always"
       xlink:href="#linearGradient7"
       id="radialGradient18"
       gradientUnits="userSpaceOnUse"
       gradientTransform="matrix(0.06461187,12.09952,17.933731,-0.09576873,14.609502,64.748231)"
       cx="-4.4284906"
       cy="-0.50121039"
       fx="-4.4284906"
       fy="-0.50121039"
       r="0.39687499" />
    <linearGradient
       inkscape:collect="always"
       xlink:href="#bevel"
       id="linearGradient18"
       gradientUnits="userSpaceOnUse"
       x1="-3.8415797"
       y1="-1.4506671"
       x2="-3.8406549"
       y2="-1.1968651"
       gradientTransform="matrix(6.0923076,0,0,6.0923076,32.228527,-7.1537627)" />
    <radialGradient
       inkscape:collect="always"
       xlink:href="#linearGradient4"
       id="radialGradient20"
       gradientUnits="userSpaceOnUse"
       gradientTransform="matrix(-0.01031383,11.991438,-17.967296,-0.01545561,1.7353715,64.305742)"
       cx="-4.4236727"
       cy="-0.55004197"
       fx="-4.4236727"
       fy="-0.55004197"
       r="0.39687499" />
    <radialGradient
       inkscape:collect="always"
       xlink:href="#cornerBevel"
       id="radialGradient25"
       gradientUnits="userSpaceOnUse"
       gradientTransform="matrix(12.184614,0,0,12.184614,59.63122,10.377613)"
       cx="-4.4568658"
       cy="-0.44864327"
       fx="-4.4568658"
       fy="-0.44864327"
       r="0.39687496" />
    <linearGradient
       inkscape:collect="always"
       xlink:href="#bevel"
       id="linearGradient25"
       gradientUnits="userSpaceOnUse"
       x1="-3.8487544"
       y1="-1.146081"
       x2="-3.8455966"
       y2="-0.890971"
       gradientTransform="matrix(6.0923077,0,0,6.0923077,32.228528,7.1537627)" />
    <radialGradient
       inkscape:collect="always"
       xlink:href="#cornerBevel"
       id="radialGradient29"
       gradientUnits="userSpaceOnUse"
       gradientTransform="matrix(0,-12.184614,12.184614,0,11.27353,-44.427768)"
       cx="-4.5705457"
       cy="-0.48653662"
       fx="-4.5705457"
       fy="-0.48653662"
       r="0.39687496" />
    <radialGradient
       inkscape:collect="always"
       xlink:href="#cornerBevel"
       id="radialGradient30"
       gradientUnits="userSpaceOnUse"
       gradientTransform="matrix(-12.184514,-0.04945749,0.04847411,-11.942243,-43.502155,3.8519053)"
       cx="-4.5342312"
       cy="-0.60337442"
       fx="-4.5342312"
       fy="-0.60337442"
       r="0.39687496" />
    <radialGradient
       inkscape:collect="always"
       xlink:href="#linearGradient9"
       id="radialGradient31"
       gradientUnits="userSpaceOnUse"
       gradientTransform="matrix(0,-12.151612,11.978956,0,18.475664,-48.770776)"
       cx="-4.4175329"
       cy="-0.56489283"
       fx="-4.4175329"
       fy="-0.56489283"
       r="0.39687496" />
    <linearGradient
       inkscape:collect="always"
       xlink:href="#bevel"
       id="linearGradient34"
       gradientUnits="userSpaceOnUse"
       x1="-3.99717"
       y1="-1.2218677"
       x2="-4.0003276"
       y2="-0.96675771"
       gradientTransform="matrix(6.0923077,0,0,6.0923077,17.025077,8.0496826)" />
    <linearGradient
       inkscape:collect="always"
       xlink:href="#bevel"
       id="linearGradient35"
       gradientUnits="userSpaceOnUse"
       x1="-4.0919032"
       y1="-1.4492278"
       x2="-4.0950613"
       y2="-1.1972755"
       gradientTransform="matrix(6.0923077,0,0,6.0923077,16.129161,-7.1537627)" />
    <linearGradient
       inkscape:collect="always"
       xlink:href="#bevel"
       id="linearGradient36"
       gradientUnits="userSpaceOnUse"
       x1="-3.8734362"
       y1="-1.3717227"
       x2="-3.8765941"
       y2="-1.116071"
       gradientTransform="matrix(6.0923077,0,0,6.0923077,31.33261,-8.0496826)" />
    <linearGradient
       id="paint2_linear_77:3-7"
       x1="79.398094"
       y1="-197.84389"
       x2="82.901054"
       y2="-199.97827"
       gradientUnits="userSpaceOnUse"
       gradientTransform="matrix(1.9248511,0,0,1.7314595,-40.88733,399.61741)">
      <stop
         stop-color="#EBFAFF"
         stop-opacity="0.1"
         id="stop29-5-7"
         offset="0"
         style="stop-color:#c3c3c3;stop-opacity:1;" />
      <stop
         offset="1"
         stop-color="#70A9FF"
         stop-opacity="0.5"
         id="stop30-0-1"
         style="stop-color:#05c7ff;stop-opacity:0.80000001;" />
    </linearGradient>
    <linearGradient
       inkscape:collect="always"
       xlink:href="#linearGradient899"
       id="linearGradient926"
       x1="1.1521901"
       y1="-9.3133945"
       x2="16.919081"
       y2="-9.2251434"
       gradientUnits="userSpaceOnUse"
       gradientTransform="translate(-0.92604234,0.47624996)" />
    <linearGradient
       id="s"
       x1="-1129.7"
       x2="-1106.6"
       y1="944.53003"
       y2="962.73999"
       gradientTransform="matrix(0,0.33027508,0.34249609,0,-318.20579,377.70211)"
       gradientUnits="userSpaceOnUse">
      <stop
         stop-color="#BFBFBF"
         offset="0"
         id="stop5-6" />
      <stop
         stop-color="#fff"
         offset=".5"
         id="stop6-7" />
      <stop
         stop-color="#BFBFBF"
         offset="1"
         id="stop7-3" />
    </linearGradient>
    <linearGradient
       id="r"
       x1="-1196.7"
       x2="-1197.3"
       y1="860.46002"
       y2="818.53998"
       gradientTransform="matrix(0.10799212,0,0,0.10414375,1.5565706,1.7949999)"
       gradientUnits="userSpaceOnUse">
      <stop
         stop-color="#323232"
         offset="0"
         id="stop8-5"
         style="stop-color:#000000;stop-opacity:1;" />
      <stop
         offset="1"
         id="stop9-6" />
    </linearGradient>
    <linearGradient
       id="c"
       gradientUnits="userSpaceOnUse"
       x1="15"
       x2="38"
       y1="13"
       y2="36"
       gradientTransform="scale(0.2645834)">
      <stop
         offset="0"
         stop-color="#194f95"
         id="stop12-3" />
      <stop
         offset="1"
         stop-color="#194f95"
         stop-opacity="0"
         id="stop14" />
    </linearGradient>
    <linearGradient
       id="b"
       y1="44"
       x1="44"
       y2="4"
       x2="24"
       gradientUnits="userSpaceOnUse"
       gradientTransform="matrix(0.68252265,0,0,0.68182146,2.1336446,-0.31873934)">
      <stop
         stop-color="#c61423"
         id="stop7-36" />
      <stop
         offset="1"
         stop-color="#dc2b41"
         id="stop9-7" />
    </linearGradient>
    <linearGradient
       id="d"
       y1="522.79999"
       y2="538.79999"
       x1="400.57001"
       gradientUnits="userSpaceOnUse"
       x2="416.57001"
       gradientTransform="matrix(0.68252265,0,0,0.68182146,124.22593,158.70694)">
      <stop
         stop-color="#292c2f"
         id="stop17" />
      <stop
         offset="1"
         stop-opacity="0"
         id="stop19" />
    </linearGradient>
    <linearGradient
       spreadMethod="reflect"
       id="a-6"
       x1="428.57001"
       x2="408.57001"
       gradientUnits="userSpaceOnUse"
       gradientTransform="translate(-5.7142728,-5.7142458)">
      <stop
         stop-color="#2f3943"
         id="stop2-3" />
      <stop
         offset="1"
         stop-color="#808c9b"
         id="stop4-2" />
    </linearGradient>
    <linearGradient
       id="b-0"
       y1="-511.20001"
       x1="-395.07001"
       y2="-535.79999"
       x2="-419.67001"
       gradientUnits="userSpaceOnUse"
       gradientTransform="translate(5.7142728,5.7142458)">
      <stop
         stop-color="#18222a"
         id="stop7-6" />
      <stop
         offset="1"
         stop-color="#566069"
         id="stop9-1" />
    </linearGradient>
    <linearGradient
       id="c-3"
       y1="-514"
       x1="-398.07001"
       y2="-533.13"
       x2="-417.20001"
       gradientUnits="userSpaceOnUse">
      <stop
         stop-color="#2e5d89"
         id="stop12-6" />
      <stop
         offset="1"
         stop-color="#1b92f4"
         id="stop14-0" />
    </linearGradient>
    <linearGradient
       xlink:href="#c-3"
       id="g-7"
       y1="-516.79999"
       x1="-401.07001"
       y2="-541.29999"
       x2="-425.57001"
       gradientUnits="userSpaceOnUse"
       gradientTransform="translate(5.7142728,5.7142458)" />
    <linearGradient
       id="d-6"
       y1="536.87"
       x1="421.64001"
       y2="511.82001"
       gradientUnits="userSpaceOnUse"
       x2="396.59"
       gradientTransform="rotate(180,408.57,523.8)">
      <stop
         stop-color="#197cf1"
         id="stop17-1" />
      <stop
         offset="1"
         stop-color="#20bcfa"
         id="stop19-8" />
    </linearGradient>
    <linearGradient
       id="linearGradient6310">
      <stop
         style="stop-color:#b900c4;stop-opacity:1;"
         offset="0"
         id="stop6312" />
      <stop
         style="stop-color:#ae4300;stop-opacity:1;"
         offset="1"
         id="stop6314" />
    </linearGradient>
    <linearGradient
       id="linearGradient1755">
      <stop
         style="stop-color:#ffffff;stop-opacity:1;"
         offset="0"
         id="stop1751" />
      <stop
         style="stop-color:#aecffc;stop-opacity:1;"
         offset="1"
         id="stop1753" />
    </linearGradient>
    <linearGradient
       gradientTransform="translate(379.57,499.8)"
       x2="0"
       gradientUnits="userSpaceOnUse"
       y2="14"
       y1="34"
       id="d-3">
      <stop
         id="stop1056"
         stop-color="#ec0000" />
      <stop
         id="stop1058"
         stop-color="#ff2020"
         offset="1" />
    </linearGradient>
    <linearGradient
       inkscape:collect="always"
       xlink:href="#linearGradient962"
       id="linearGradient964"
       x1="5"
       y1="2"
       x2="5"
       y2="14"
       gradientUnits="userSpaceOnUse" />
    <linearGradient
       inkscape:collect="always"
       id="linearGradient962">
      <stop
         style="stop-color:#8ebbff;stop-opacity:1;"
         offset="0"
         id="stop958" />
      <stop
         style="stop-color:#ba8aff;stop-opacity:1;"
         offset="1"
         id="stop960" />
    </linearGradient>
  </defs>
  <sodipodi:namedview
     id="base"
     pagecolor="#e2e2e2"
     bordercolor="#666666"
     borderopacity="1.0"
     inkscape:pageopacity="0"
     inkscape:pageshadow="2"
     inkscape:zoom="9.7248728"
     inkscape:cx="31.15722"
     inkscape:cy="33.008144"
     inkscape:document-units="px"
     inkscape:current-layer="layer1"
     inkscape:document-rotation="0"
     showgrid="true"
     units="px"
     inkscape:window-width="1920"
     inkscape:window-height="990"
     inkscape:window-x="0"
     inkscape:window-y="0"
     inkscape:window-maximized="1"
     inkscape:object-paths="true"
     inkscape:snap-grids="true"
     inkscape:snap-intersection-paths="true"
     inkscape:snap-smooth-nodes="true"
     inkscape:snap-midpoints="true"
     inkscape:showpageshadow="2"
     inkscape:pagecheckerboard="0"
     inkscape:deskcolor="#d1d1d1">
    <inkscape:grid
       id="grid2"
       units="px"
       originx="0"
       originy="0"
       spacingx="0.26458333"
       spacingy="0.26458333"
       empcolor="#0099e5"
       empopacity="0.30196078"
       color="#0099e5"
       opacity="0.14902"
       empspacing="5"
       dotted="false"
       gridanglex="30"
       gridanglez="30"
       visible="true" />
  </sodipodi:namedview>
  <metadata
     id="metadata1111">
    <rdf:RDF>
      <cc:Work
         rdf:about="">
        <dc:format>image/svg+xml</dc:format>
        <dc:type
           rdf:resource="http://purl.org/dc/dcmitype/StillImage" />
      </cc:Work>
    </rdf:RDF>
  </metadata>
  <g
     inkscape:label="Layer 1"
     inkscape:groupmode="layer"
     id="layer1">
    <g
       id="g918"
       transform="translate(0.47625037,0.92604234)">
      <rect
         ry="4.8357682"
         rx="4.8357682"
         style="fill:url(#linearGradient926);fill-opacity:1;stroke-width:6.09228"
         x="0.13229237"
         y="-16.457085"
         width="15.875001"
         height="15.875001"
         id="use1056"
         transform="rotate(90)"
         class="ColorScheme-Highlight" />
      <path
         d="m 5.344583,0.13229167 c -2.6384245,0 -4.76249953,2.12407483 -4.76249953,4.76249963 H 5.344583 Z"
         style="opacity:0.15;fill:url(#radialGradient25);fill-opacity:1;stroke-width:6.09228"
         id="path20" />
      <rect
         y="0.13229151"
         x="5.3445826"
         height="1.5875"
         width="6.3500004"
         id="rect20"
         style="opacity:0.15;fill:url(#linearGradient25);fill-opacity:1;stroke-width:4.83577;stroke-linecap:round;stroke-linejoin:round;paint-order:stroke fill markers" />
      <path
         d="m 0.58208347,11.244792 c 0,2.638424 2.12407503,4.762499 4.76249953,4.762499 v -4.762499 z"
         style="opacity:0.15;fill:url(#radialGradient29);fill-opacity:1;stroke-width:6.09228"
         id="use20" />
      <rect
         y="0.5820834"
         x="-11.244792"
         height="1.5875"
         width="6.3500004"
         id="use21"
         style="opacity:0.15;fill:url(#linearGradient34);fill-opacity:1;stroke-width:4.83577;stroke-linecap:round;stroke-linejoin:round;paint-order:stroke fill markers"
         transform="rotate(-90)" />
      <path
         d="m 11.694583,16.007291 c 2.638425,0 4.7625,-2.124074 4.7625,-4.762499 h -4.7625 z"
         style="opacity:0.15;fill:url(#radialGradient30);fill-opacity:1;stroke-width:6.09228"
         id="use22" />
      <rect
         y="-16.007292"
         x="-11.694584"
         height="1.5875"
         width="6.3500004"
         id="use23"
         style="opacity:0.15;fill:url(#linearGradient35);fill-opacity:1;stroke-width:4.83577;stroke-linecap:round;stroke-linejoin:round;paint-order:stroke fill markers"
         transform="scale(-1)" />
      <path
         d="m 16.457083,4.8947913 c 0,-2.6384245 -2.124074,-4.76249963 -4.7625,-4.76249963 V 4.8947913 Z"
         style="opacity:0.15;fill:url(#radialGradient31);fill-opacity:1;stroke-width:6.09228"
         id="use24" />
      <rect
         y="-16.457081"
         x="4.8947906"
         height="1.5875"
         width="6.3500004"
         id="use25"
         style="opacity:0.15;fill:url(#linearGradient36);fill-opacity:1;stroke-width:4.83577;stroke-linecap:round;stroke-linejoin:round;paint-order:stroke fill markers"
         transform="rotate(90)" />
      <path
         d="m 5.3445832,0.13229107 c -2.638425,0 -4.76250035,2.12407473 -4.76250035,4.76249973 H 5.3445832 Z"
         style="opacity:0.5;fill:url(#radialGradient15);fill-opacity:1;stroke-width:6.09228"
         id="path14" />
      <rect
         y="0.1322909"
         x="5.3445826"
         height="1.5875"
         width="6.3499999"
         id="rect14"
         style="opacity:0.5;fill:url(#linearGradient15);fill-opacity:1;stroke-width:4.83577;stroke-linecap:round;stroke-linejoin:round;paint-order:stroke fill markers" />
      <path
         d="m 11.694583,0.13229096 c 2.638425,0 4.7625,2.12407504 4.7625,4.76249734 h -4.7625 z"
         style="opacity:0.5;fill:url(#radialGradient17);fill-opacity:1;stroke-width:6.09228"
         id="use14" />
      <path
         id="path17"
         style="opacity:0.5;fill:url(#radialGradient18);fill-opacity:1;stroke-width:6.09228"
         d="m 5.3445834,16.00729 c -2.638425,0 -4.7625,-2.124075 -4.7625,-4.7625 h 4.7625 z" />
      <rect
         style="opacity:0.5;fill:url(#linearGradient18);fill-opacity:1;stroke-width:4.83577;stroke-linecap:round;stroke-linejoin:round;paint-order:stroke fill markers"
         id="rect17"
         width="6.3499994"
         height="1.5874999"
         x="5.3445826"
         y="-16.007292"
         transform="scale(1,-1)" />
      <path
         id="use17"
         style="opacity:0.5;fill:url(#radialGradient20);fill-opacity:1;stroke-width:6.09228"
         d="m 11.694582,16.007291 c 2.638425,0 4.7625,-2.124075 4.7625,-4.7625 h -4.7625 z" />
    </g>
    <path
       fill-rule="evenodd"
       clip-rule="evenodd"
       d="m 9.0136258,2.9104822 v 0 C 8.9692818,2.9092622 8.9265278,2.9250602 8.8958231,2.9533242 8.5450375,3.27594 8.1941236,3.6288647 7.8599214,3.9781063 7.8157584,4.0242873 7.7965284,4.0873514 7.8077044,4.1489378 l 0.9808631,5.4113244 c 0.040749,0.2248502 0.3797334,0.224607 0.4201483,-2.834e-4 l 0.9707592,-5.401724 c 0.01047,-0.060784 -0.0071,-0.1230119 -0.0508,-0.1690934 C 9.8017896,3.6390437 9.4721938,3.2900384 9.1247333,2.9557163 9.0961774,2.9281231 9.0560094,2.9116415 9.013634,2.910484 Z M 9.6083184,9.6877346 C 9.491272,9.8870414 9.7552712,10.090207 9.9351861,9.9392631 l 2.6257769,-2.202484 c 0.06972,-0.058593 0.0918,-0.1537024 0.05301,-0.2342294 -0.192723,-0.3986133 -0.416635,-0.796983 -0.665062,-1.1900321 -0.08322,-0.131705 -0.28359,-0.1265829 -0.362382,0.00764 z m 0.6726236,0.4598114 c -0.221232,0.09955 -0.120782,0.417695 0.1214,0.38456 l 2.91725,-0.399345 C 13.443985,10.115741 13.526149,10.000336 13.49477,9.884442 13.418099,9.6012384 13.335023,9.3292429 13.245021,9.0635414 13.205945,8.9481732 13.069031,8.893026 12.953965,8.944802 Z m 0.128114,0.773352 c -0.242242,-0.0338 -0.343451,0.284459 -0.122151,0.384362 l 3.566644,1.610007 c 0.0064,0.0024 0.01674,0.0036 0.02571,0.0029 v 0 c 0.0813,-0.0047 0.143651,-0.06611 0.143651,-0.138062 v -0.04523 c 0,-0.108905 -0.02946,-0.333238 -0.06923,-0.611816 -0.01986,-0.140267 -0.04506,-0.276217 -0.06865,-0.421351 L 13.8332,11.520823 c -0.02238,-0.07797 -0.09098,-0.135858 -0.174801,-0.14756 z m -0.424925,0.675601 c -0.1777331,-0.157478 -0.4493936,0.04518 -0.3315131,0.247268 l 1.0859521,1.861779 c 0.02556,0.04388 0.08054,0.06387 0.130178,0.04712 v 0 c 0.0059,-0.0015 0.01378,-0.0036 0.01969,-0.0081 0.227964,-0.129631 0.451402,-0.240924 0.67783,-0.336148 0.145498,-0.06117 0.184217,-0.246091 0.06773,-0.349274 z m -0.7802291,0.216937 c -0.041658,-0.22205 -0.3755135,-0.223512 -0.4193404,-0.0015 l -0.516928,2.615212 c -0.014175,0.07173 0.013052,0.144845 0.071524,0.191752 0.058616,0.04694 0.117918,0.09476 0.1835363,0.150172 0.095501,0.08072 0.1842608,0.153574 0.2516215,0.207715 0.03365,0.02722 0.061905,0.04948 0.084062,0.06596 0.010978,0.0067 0.020093,0.01529 0.030045,0.02209 0.0049,0.0021 0.00994,0.0057 0.018409,0.01002 v 0 c 0.00328,0.0011 0.00671,0.0017 0.010181,0.0021 l 0.021488,0.0023 c 0.039257,0.0056 0.079725,-4.87e-4 0.1139201,-0.0199 L 9.2341393,14.95557 c 0.00934,-0.0044 0.018729,-0.01016 0.027273,-0.01844 0.068011,-0.05438 0.14858,-0.119177 0.2381008,-0.193864 0.051429,-0.04292 0.089916,-0.07291 0.1276029,-0.101953 0.058577,-0.04557 0.085818,-0.11765 0.072464,-0.188503 z m -0.8823798,0.06567 C 8.4405514,11.676326 8.16655,11.472917 7.9891538,11.632384 l -1.7227344,1.548623 c -0.059627,0.05373 -0.03912,0.146426 0.036732,0.176022 v 0 c 0.057262,0.02251 0.1100479,0.04281 0.1491142,0.05786 0.019532,0.0062 0.035091,0.01358 0.047248,0.01798 0.00541,0.0014 0.011004,0.0024 0.015624,0.0037 1.913e-4,7.7e-5 3.573e-4,1.63e-4 4.988e-4,3.24e-4 v 0 c 2.427e-4,2.45e-4 5.877e-4,3.69e-4 9.452e-4,3.69e-4 h 3.04e-5 7.32e-5 c 3.447e-4,0 6.814e-4,7.8e-5 9.928e-4,2.44e-4 0.00108,5.64e-4 0.00218,9.98e-4 0.00414,0.0013 5.415e-4,2.38e-4 9.383e-4,-2.45e-4 3.71e-4,-4.49e-4 v 0 c 8.697e-4,2.81e-4 0.00129,2.81e-4 0.00272,6.07e-4 0.00177,6.09e-4 0.0039,0.0011 0.00867,0.0019 0.00105,2.83e-4 0.00218,7.29e-4 0.00365,9.98e-4 2.978e-4,1.18e-4 8.58e-5,9.97e-4 -2.555e-4,9.97e-4 v 0 c -3.416e-4,0 -6.394e-4,9.98e-4 -2.988e-4,9.98e-4 0.010289,0.0032 0.022651,0.0098 0.038711,0.01865 0.041954,0.02026 0.099162,0.04793 0.1619637,0.07912 0.092756,0.04595 0.1820009,0.09236 0.2691429,0.140251 0.1051408,0.05768 0.2404942,0.02438 0.2997119,-0.07658 z m -0.6779772,-0.62572 c 0.2106932,-0.10547 0.066728,-0.410593 -0.1692541,-0.381069 l -3.1469953,0.436507 c -0.092127,0.01071 -0.1658896,0.07848 -0.1815234,0.165805 -0.045902,0.256193 -0.09013,0.530794 -0.1223178,0.764127 -0.0209,0.151551 -0.037457,0.284341 -0.046647,0.382697 -0.00455,0.04812 -0.00705,0.08733 -0.00802,0.119636 -1.78e-5,6.49e-4 1.3e-5,0.0012 0,0.0015 -1.874e-4,0.01378 3.158e-4,0.02554 0.00171,0.03993 8.994e-4,0.008 0.00125,0.01733 0.00618,0.03255 0.00478,0.01544 9.205e-4,0.04676 0.071172,0.08507 0.037918,0.02075 0.043362,0.01656 0.052771,0.01842 0.00947,0.0013 0.016302,0.0024 0.023943,0.0032 0.015267,0.0014 0.031783,0.0024 0.050311,0.0044 0.037098,0.0022 0.082813,0.0057 0.131327,0.0081 0.051708,0.0017 0.1094763,0.0061 0.1683245,0.01279 0.041519,0.0024 0.083302,-0.0026 0.1202442,-0.02245 z M 7.5361274,10.506318 c 0.2433079,0.03622 0.3465655,-0.284139 0.1238473,-0.384233 L 5.0399605,8.9445989 c -0.1150103,-0.051697 -0.2517752,0.00337 -0.2908518,0.1186209 -0.084596,0.2495386 -0.1629489,0.5050466 -0.235579,0.770465 -0.031494,0.1150865 0.0491,0.2301282 0.1724683,0.2484842 z M 8.023724,9.864503 c 0.1778662,0.15671 0.44863,-0.045725 0.3311324,-0.2475491 L 6.4201924,6.2942681 C 6.341869,6.1597524 6.1414526,6.1540712 6.0582754,6.2859058 5.8291728,6.6490672 5.622705,7.0184419 5.4365677,7.3948827 c -0.039223,0.079346 -0.01925,0.1735605 0.048327,0.2330931 z"
       id="path2"
       style="fill:url(#linearGradient964);fill-opacity:1;stroke-width:0.264582"
       sodipodi:nodetypes="ssccccccccsccccccccccccccccccsscsscccccccssccccccccccccssccccccccccccsscccssscsccsscsssscccccccccsccscccccccccccccccscccccscc" />
  </g>
</svg>
