<?xml version="1.0" encoding="UTF-8" standalone="no"?>
<svg
   width="68"
   height="68"
   viewBox="0 0 17.991665 17.991665"
   version="1.1"
   id="svg1114"
   inkscape:version="1.3.2 (091e20ef0f, 2023-11-25)"
   sodipodi:docname="tokodon.svg"
   xmlns:inkscape="http://www.inkscape.org/namespaces/inkscape"
   xmlns:sodipodi="http://sodipodi.sourceforge.net/DTD/sodipodi-0.dtd"
   xmlns:xlink="http://www.w3.org/1999/xlink"
   xmlns="http://www.w3.org/2000/svg"
   xmlns:svg="http://www.w3.org/2000/svg"
   xmlns:rdf="http://www.w3.org/1999/02/22-rdf-syntax-ns#"
   xmlns:cc="http://creativecommons.org/ns#"
   xmlns:dc="http://purl.org/dc/elements/1.1/">
  <style
     type="text/css"
     id="current-color-scheme">.ColorScheme-Highlight { color:#5599ff; }
</style>
  <defs
     id="defs1108">
    <linearGradient
       id="linearGradient12"
       inkscape:collect="always">
      <stop
         style="stop-color:#ffffff;stop-opacity:0;"
         offset="0"
         id="stop10" />
      <stop
         id="stop11"
         offset="0.65909404"
         style="stop-color:#ffffff;stop-opacity:0" />
      <stop
         style="stop-color:#ffffff;stop-opacity:1;"
         offset="1"
         id="stop12" />
    </linearGradient>
    <linearGradient
       id="linearGradient9"
       inkscape:collect="always">
      <stop
         style="stop-color:#000000;stop-opacity:0;"
         offset="0"
         id="stop1" />
      <stop
         id="stop8"
         offset="0.66102529"
         style="stop-color:#000000;stop-opacity:0" />
      <stop
         style="stop-color:#000000;stop-opacity:1;"
         offset="1"
         id="stop9" />
    </linearGradient>
    <linearGradient
       id="linearGradient7"
       inkscape:collect="always">
      <stop
         style="stop-color:#000000;stop-opacity:0;"
         offset="0"
         id="stop5" />
      <stop
         id="stop6"
         offset="0.6586886"
         style="stop-color:#000000;stop-opacity:0" />
      <stop
         style="stop-color:#000000;stop-opacity:1;"
         offset="1"
         id="stop7" />
    </linearGradient>
    <linearGradient
       id="linearGradient4"
       inkscape:collect="always">
      <stop
         style="stop-color:#000000;stop-opacity:0;"
         offset="0"
         id="stop2" />
      <stop
         id="stop3"
         offset="0.67055255"
         style="stop-color:#000000;stop-opacity:0" />
      <stop
         style="stop-color:#000000;stop-opacity:1;"
         offset="1"
         id="stop4" />
    </linearGradient>
    <linearGradient
       inkscape:collect="always"
       id="linearGradient899">
      <stop
         style="stop-color:#566592;stop-opacity:1;"
         offset="0"
         id="stop895" />
      <stop
         style="stop-color:#9955ff;stop-opacity:1;"
         offset="1"
         id="stop897" />
    </linearGradient>
    <linearGradient
       id="linearGradient1167"
       x1="40.751999"
       x2="40.751999"
       y1="28.507999"
       y2="17.205999"
       gradientUnits="userSpaceOnUse">
      <stop
         style="stop-color:#84fb6e;stop-opacity:1"
         stop-color="#0ab816"
         offset="0"
         id="stop1163" />
      <stop
         style="stop-color:#0dd41a;stop-opacity:1"
         stop-color="#0cf36c"
         offset="1"
         id="stop1165" />
    </linearGradient>
    <linearGradient
       id="cornerBevel"
       inkscape:collect="always">
      <stop
         style="stop-color:#000000;stop-opacity:0;"
         offset="0"
         id="stop2663" />
      <stop
         id="stop2671"
         offset="0.66666675"
         style="stop-color:#000000;stop-opacity:0" />
      <stop
         style="stop-color:#000000;stop-opacity:1;"
         offset="1"
         id="stop2661" />
    </linearGradient>
    <linearGradient
       id="bevel"
       inkscape:collect="always">
      <stop
         id="stop2685"
         offset="0"
         style="stop-color:#000000;stop-opacity:1;" />
      <stop
         id="stop2687"
         offset="1"
         style="stop-color:#000000;stop-opacity:0;" />
    </linearGradient>
    <linearGradient
       id="highlightCorner"
       inkscape:collect="always">
      <stop
         style="stop-color:#ffffff;stop-opacity:0;"
         offset="0"
         id="stop2613" />
      <stop
         id="stop2621"
         offset="0.66666669"
         style="stop-color:#ffffff;stop-opacity:0" />
      <stop
         style="stop-color:#ffffff;stop-opacity:1;"
         offset="1"
         id="stop2611" />
    </linearGradient>
    <linearGradient
       inkscape:collect="always"
       id="highlight">
      <stop
         style="stop-color:#ffffff;stop-opacity:1;"
         offset="0"
         id="stop2921" />
      <stop
         style="stop-color:#ffffff;stop-opacity:0;"
         offset="1"
         id="stop2923" />
    </linearGradient>
    <radialGradient
       inkscape:collect="always"
       xlink:href="#highlightCorner"
       id="radialGradient15"
       gradientUnits="userSpaceOnUse"
       gradientTransform="matrix(0.04294597,-12.079348,17.933991,0.06376112,14.524179,-50.373789)"
       cx="-4.5799766"
       cy="-0.50206107"
       fx="-4.5799766"
       fy="-0.50206107"
       r="0.39687499" />
    <linearGradient
       inkscape:collect="always"
       xlink:href="#highlight"
       id="linearGradient15"
       gradientUnits="userSpaceOnUse"
       x1="-3.8453064"
       y1="-1.1532172"
       x2="-3.8453064"
       y2="-0.8954913"
       gradientTransform="matrix(6.0923077,0,0,6.0923077,32.228528,7.1537621)" />
    <radialGradient
       inkscape:collect="always"
       xlink:href="#linearGradient12"
       id="radialGradient17"
       gradientUnits="userSpaceOnUse"
       gradientTransform="matrix(-0.02247554,-12.045403,-17.967828,0.03352619,1.6640208,-50.22331)"
       cx="-4.575222"
       cy="-0.55256462"
       fx="-4.575222"
       fy="-0.55256462"
       r="0.39687499" />
    <radialGradient
       inkscape:collect="always"
       xlink:href="#linearGradient7"
       id="radialGradient18"
       gradientUnits="userSpaceOnUse"
       gradientTransform="matrix(0.06461187,12.09952,17.933731,-0.09576873,14.609502,64.748231)"
       cx="-4.4284906"
       cy="-0.50121039"
       fx="-4.4284906"
       fy="-0.50121039"
       r="0.39687499" />
    <linearGradient
       inkscape:collect="always"
       xlink:href="#bevel"
       id="linearGradient18"
       gradientUnits="userSpaceOnUse"
       x1="-3.8415797"
       y1="-1.4506671"
       x2="-3.8406549"
       y2="-1.1968651"
       gradientTransform="matrix(6.0923076,0,0,6.0923076,32.228527,-7.1537627)" />
    <radialGradient
       inkscape:collect="always"
       xlink:href="#linearGradient4"
       id="radialGradient20"
       gradientUnits="userSpaceOnUse"
       gradientTransform="matrix(-0.01031383,11.991438,-17.967296,-0.01545561,1.7353715,64.305742)"
       cx="-4.4236727"
       cy="-0.55004197"
       fx="-4.4236727"
       fy="-0.55004197"
       r="0.39687499" />
    <radialGradient
       inkscape:collect="always"
       xlink:href="#cornerBevel"
       id="radialGradient25"
       gradientUnits="userSpaceOnUse"
       gradientTransform="matrix(12.184614,0,0,12.184614,59.63122,10.377613)"
       cx="-4.4568658"
       cy="-0.44864327"
       fx="-4.4568658"
       fy="-0.44864327"
       r="0.39687496" />
    <linearGradient
       inkscape:collect="always"
       xlink:href="#bevel"
       id="linearGradient25"
       gradientUnits="userSpaceOnUse"
       x1="-3.8487544"
       y1="-1.146081"
       x2="-3.8455966"
       y2="-0.890971"
       gradientTransform="matrix(6.0923077,0,0,6.0923077,32.228528,7.1537627)" />
    <radialGradient
       inkscape:collect="always"
       xlink:href="#cornerBevel"
       id="radialGradient29"
       gradientUnits="userSpaceOnUse"
       gradientTransform="matrix(0,-12.184614,12.184614,0,11.27353,-44.427768)"
       cx="-4.5705457"
       cy="-0.48653662"
       fx="-4.5705457"
       fy="-0.48653662"
       r="0.39687496" />
    <radialGradient
       inkscape:collect="always"
       xlink:href="#cornerBevel"
       id="radialGradient30"
       gradientUnits="userSpaceOnUse"
       gradientTransform="matrix(-12.184514,-0.04945749,0.04847411,-11.942243,-43.502155,3.8519053)"
       cx="-4.5342312"
       cy="-0.60337442"
       fx="-4.5342312"
       fy="-0.60337442"
       r="0.39687496" />
    <radialGradient
       inkscape:collect="always"
       xlink:href="#linearGradient9"
       id="radialGradient31"
       gradientUnits="userSpaceOnUse"
       gradientTransform="matrix(0,-12.151612,11.978956,0,18.475664,-48.770776)"
       cx="-4.4175329"
       cy="-0.56489283"
       fx="-4.4175329"
       fy="-0.56489283"
       r="0.39687496" />
    <linearGradient
       inkscape:collect="always"
       xlink:href="#bevel"
       id="linearGradient34"
       gradientUnits="userSpaceOnUse"
       x1="-3.99717"
       y1="-1.2218677"
       x2="-4.0003276"
       y2="-0.96675771"
       gradientTransform="matrix(6.0923077,0,0,6.0923077,17.025077,8.0496826)" />
    <linearGradient
       inkscape:collect="always"
       xlink:href="#bevel"
       id="linearGradient35"
       gradientUnits="userSpaceOnUse"
       x1="-4.0919032"
       y1="-1.4492278"
       x2="-4.0950613"
       y2="-1.1972755"
       gradientTransform="matrix(6.0923077,0,0,6.0923077,16.129161,-7.1537627)" />
    <linearGradient
       inkscape:collect="always"
       xlink:href="#bevel"
       id="linearGradient36"
       gradientUnits="userSpaceOnUse"
       x1="-3.8734362"
       y1="-1.3717227"
       x2="-3.8765941"
       y2="-1.116071"
       gradientTransform="matrix(6.0923077,0,0,6.0923077,31.33261,-8.0496826)" />
    <linearGradient
       id="paint2_linear_77:3-7"
       x1="79.398094"
       y1="-197.84389"
       x2="82.901054"
       y2="-199.97827"
       gradientUnits="userSpaceOnUse"
       gradientTransform="matrix(1.9248511,0,0,1.7314595,-40.88733,399.61741)">
      <stop
         stop-color="#EBFAFF"
         stop-opacity="0.1"
         id="stop29-5-7"
         offset="0"
         style="stop-color:#c3c3c3;stop-opacity:1;" />
      <stop
         offset="1"
         stop-color="#70A9FF"
         stop-opacity="0.5"
         id="stop30-0-1"
         style="stop-color:#05c7ff;stop-opacity:0.80000001;" />
    </linearGradient>
    <linearGradient
       inkscape:collect="always"
       xlink:href="#linearGradient899"
       id="linearGradient926"
       x1="1.1521901"
       y1="-9.3133945"
       x2="16.919081"
       y2="-9.2251434"
       gradientUnits="userSpaceOnUse"
       gradientTransform="translate(-0.92604234,0.47624996)" />
    <linearGradient
       id="s"
       x1="-1129.7"
       x2="-1106.6"
       y1="944.53003"
       y2="962.73999"
       gradientTransform="matrix(0,0.33027508,0.34249609,0,-318.20579,377.70211)"
       gradientUnits="userSpaceOnUse">
      <stop
         stop-color="#BFBFBF"
         offset="0"
         id="stop5-6" />
      <stop
         stop-color="#fff"
         offset=".5"
         id="stop6-7" />
      <stop
         stop-color="#BFBFBF"
         offset="1"
         id="stop7-3" />
    </linearGradient>
    <linearGradient
       id="r"
       x1="-1196.7"
       x2="-1197.3"
       y1="860.46002"
       y2="818.53998"
       gradientTransform="matrix(0.10799212,0,0,0.10414375,1.5565706,1.7949999)"
       gradientUnits="userSpaceOnUse">
      <stop
         stop-color="#323232"
         offset="0"
         id="stop8-5"
         style="stop-color:#000000;stop-opacity:1;" />
      <stop
         offset="1"
         id="stop9-6" />
    </linearGradient>
    <linearGradient
       id="c"
       gradientUnits="userSpaceOnUse"
       x1="15"
       x2="38"
       y1="13"
       y2="36"
       gradientTransform="scale(0.2645834)">
      <stop
         offset="0"
         stop-color="#194f95"
         id="stop12-3" />
      <stop
         offset="1"
         stop-color="#194f95"
         stop-opacity="0"
         id="stop14" />
    </linearGradient>
  </defs>
  <sodipodi:namedview
     id="base"
     pagecolor="#e2e2e2"
     bordercolor="#666666"
     borderopacity="1.0"
     inkscape:pageopacity="0"
     inkscape:pageshadow="2"
     inkscape:zoom="4.8624365"
     inkscape:cx="31.260048"
     inkscape:cy="55.733376"
     inkscape:document-units="px"
     inkscape:current-layer="layer1"
     inkscape:document-rotation="0"
     showgrid="false"
     units="px"
     inkscape:window-width="1920"
     inkscape:window-height="994"
     inkscape:window-x="0"
     inkscape:window-y="0"
     inkscape:window-maximized="1"
     inkscape:object-paths="true"
     inkscape:snap-grids="true"
     inkscape:snap-intersection-paths="true"
     inkscape:snap-smooth-nodes="true"
     inkscape:snap-midpoints="true"
     inkscape:showpageshadow="2"
     inkscape:pagecheckerboard="0"
     inkscape:deskcolor="#d1d1d1">
    <inkscape:grid
       id="grid2"
       units="px"
       originx="0"
       originy="0"
       spacingx="0.26458333"
       spacingy="0.26458333"
       empcolor="#0099e5"
       empopacity="0.30196078"
       color="#0099e5"
       opacity="0.14902"
       empspacing="5"
       dotted="false"
       gridanglex="30"
       gridanglez="30"
       visible="false" />
  </sodipodi:namedview>
  <metadata
     id="metadata1111">
    <rdf:RDF>
      <cc:Work
         rdf:about="">
        <dc:format>image/svg+xml</dc:format>
        <dc:type
           rdf:resource="http://purl.org/dc/dcmitype/StillImage" />
      </cc:Work>
    </rdf:RDF>
  </metadata>
  <g
     inkscape:label="Layer 1"
     inkscape:groupmode="layer"
     id="layer1">
    <g
       id="g918"
       transform="translate(0.47625037,0.92604234)">
      <rect
         ry="4.8357682"
         rx="4.8357682"
         style="fill:url(#linearGradient926);fill-opacity:1;stroke-width:6.09228"
         x="0.13229237"
         y="-16.457085"
         width="15.875001"
         height="15.875001"
         id="use1056"
         transform="rotate(90)"
         class="ColorScheme-Highlight" />
      <path
         d="m 5.344583,0.13229167 c -2.6384245,0 -4.76249953,2.12407483 -4.76249953,4.76249963 H 5.344583 Z"
         style="opacity:0.15;fill:url(#radialGradient25);fill-opacity:1;stroke-width:6.09228"
         id="path20" />
      <rect
         y="0.13229151"
         x="5.3445826"
         height="1.5875"
         width="6.3500004"
         id="rect20"
         style="opacity:0.15;fill:url(#linearGradient25);fill-opacity:1;stroke-width:4.83577;stroke-linecap:round;stroke-linejoin:round;paint-order:stroke fill markers" />
      <path
         d="m 0.58208347,11.244792 c 0,2.638424 2.12407503,4.762499 4.76249953,4.762499 v -4.762499 z"
         style="opacity:0.15;fill:url(#radialGradient29);fill-opacity:1;stroke-width:6.09228"
         id="use20" />
      <rect
         y="0.5820834"
         x="-11.244792"
         height="1.5875"
         width="6.3500004"
         id="use21"
         style="opacity:0.15;fill:url(#linearGradient34);fill-opacity:1;stroke-width:4.83577;stroke-linecap:round;stroke-linejoin:round;paint-order:stroke fill markers"
         transform="rotate(-90)" />
      <path
         d="m 11.694583,16.007291 c 2.638425,0 4.7625,-2.124074 4.7625,-4.762499 h -4.7625 z"
         style="opacity:0.15;fill:url(#radialGradient30);fill-opacity:1;stroke-width:6.09228"
         id="use22" />
      <rect
         y="-16.007292"
         x="-11.694584"
         height="1.5875"
         width="6.3500004"
         id="use23"
         style="opacity:0.15;fill:url(#linearGradient35);fill-opacity:1;stroke-width:4.83577;stroke-linecap:round;stroke-linejoin:round;paint-order:stroke fill markers"
         transform="scale(-1)" />
      <path
         d="m 16.457083,4.8947913 c 0,-2.6384245 -2.124074,-4.76249963 -4.7625,-4.76249963 V 4.8947913 Z"
         style="opacity:0.15;fill:url(#radialGradient31);fill-opacity:1;stroke-width:6.09228"
         id="use24" />
      <rect
         y="-16.457081"
         x="4.8947906"
         height="1.5875"
         width="6.3500004"
         id="use25"
         style="opacity:0.15;fill:url(#linearGradient36);fill-opacity:1;stroke-width:4.83577;stroke-linecap:round;stroke-linejoin:round;paint-order:stroke fill markers"
         transform="rotate(90)" />
      <path
         d="m 5.3445832,0.13229107 c -2.638425,0 -4.76250035,2.12407473 -4.76250035,4.76249973 H 5.3445832 Z"
         style="opacity:0.5;fill:url(#radialGradient15);fill-opacity:1;stroke-width:6.09228"
         id="path14" />
      <rect
         y="0.1322909"
         x="5.3445826"
         height="1.5875"
         width="6.3499999"
         id="rect14"
         style="opacity:0.5;fill:url(#linearGradient15);fill-opacity:1;stroke-width:4.83577;stroke-linecap:round;stroke-linejoin:round;paint-order:stroke fill markers" />
      <path
         d="m 11.694583,0.13229096 c 2.638425,0 4.7625,2.12407504 4.7625,4.76249734 h -4.7625 z"
         style="opacity:0.5;fill:url(#radialGradient17);fill-opacity:1;stroke-width:6.09228"
         id="use14" />
      <path
         id="path17"
         style="opacity:0.5;fill:url(#radialGradient18);fill-opacity:1;stroke-width:6.09228"
         d="m 5.3445834,16.00729 c -2.638425,0 -4.7625,-2.124075 -4.7625,-4.7625 h 4.7625 z" />
      <rect
         style="opacity:0.5;fill:url(#linearGradient18);fill-opacity:1;stroke-width:4.83577;stroke-linecap:round;stroke-linejoin:round;paint-order:stroke fill markers"
         id="rect17"
         width="6.3499994"
         height="1.5874999"
         x="5.3445826"
         y="-16.007292"
         transform="scale(1,-1)" />
      <path
         id="use17"
         style="opacity:0.5;fill:url(#radialGradient20);fill-opacity:1;stroke-width:6.09228"
         d="m 11.694582,16.007291 c 2.638425,0 4.7625,-2.124075 4.7625,-4.7625 h -4.7625 z" />
    </g>
    <path
       style="opacity:0.2;stroke-width:0.810042"
       d="m 11.03532,8.2812315 c 0.50744,2.1443595 1.165778,2.9744615 1.631597,3.2173485 0.173764,0.09017 0.4079,0.137547 0.4079,0.20109 0,0.0942 -0.215374,0.197079 -0.4079,0.201079 -0.462546,0.0084 -1.817597,-1.118831 -2.8552821,-2.4130095 -0.422582,-0.526836 0,-1.206508 0,-1.206508 z m -4.0789825,0 C 6.434877,10.48352 5.843669,11.270954 5.3247411,11.49858 c -0.1746626,0.0763 -0.4079007,0.139959 -0.4079007,0.20109 0,0.09964 0.2131685,0.196269 0.4079007,0.201079 0.4755265,0.01203 1.8126204,-1.11319 2.8552925,-2.4130095 0.5457693,-0.681263 0,-1.206508 0,-1.206508 z"
       id="path2-3" />
    <path
       style="fill:#e4e4e4;stroke-width:0.810042"
       d="m 11.03532,7.8790625 c 0.50744,2.1443605 1.165778,2.9744495 1.631597,3.2173665 0.173764,0.09013 0.4079,0.137535 0.4079,0.201083 0,0.09415 -0.215374,0.197057 -0.4079,0.201068 -0.462546,0.0084 -1.817597,-1.118822 -2.8552821,-2.4130115 -0.422582,-0.526827 0,-1.206506 0,-1.206506 z m -4.0789825,0 C 6.434877,10.081347 5.843669,10.868797 5.3247411,11.096429 c -0.1746626,0.0763 -0.4079007,0.13994 -0.4079007,0.201083 0,0.09968 0.2131685,0.196245 0.4079007,0.201068 0.4755265,0.01203 1.8126204,-1.113185 2.8552925,-2.4130115 0.5457693,-0.681279 0,-1.206506 0,-1.206506 z"
       id="path3" />
    <path
       style="opacity:0.2;stroke-width:0.810042"
       d="m 11.85112,4.6617055 c 1.223697,0 2.039506,0.804345 2.039506,2.010851 v 2.010851 c 0,0.427106 -0.356517,0.804332 -0.815809,0.804332 H 10.627428 V 11.49858 c 0,0.361145 0.163151,0.804356 0.163151,0.804356 0.190097,0.416632 0.556379,1.088269 1.129896,1.150204 0.288792,0.03051 0.544125,-0.03447 0.624072,-0.119924 0.04578,-0.04831 0.122414,-0.146368 0.122414,-0.226013 0,-0.143158 0.116643,-0.402163 0.407913,-0.402163 0.259425,-0.0023 0.407896,0.104597 0.407896,0.265418 0,0.233266 -0.34752,0.45125 -0.407896,0.538924 0,0 0.322229,0.112608 0.407896,0.145588 0.106957,0.04032 0.203941,0.170525 0.203941,0.256575 0,0.162485 -0.203941,0.402165 -0.407896,0.402165 -0.249637,0 -0.394841,-0.269458 -0.611854,-0.201087 -0.573494,0.180177 -1.223693,0.201087 -2.447391,0.201087 -1.4415092,0 -2.4188352,-1.093082 -2.6807066,-1.953727 C 7.3642436,11.785746 7.3642436,11.147079 7.3642436,10.292071 V 9.4877365 H 6.1405372 c -1.2236968,0 -2.0394941,-1.206508 -2.0394941,-2.413021 v -1.608668 c 0,-0.402161 0.4079001,-0.804345 0.8157973,-0.804345 z"
       id="path4" />
    <path
       style="fill:#383e5c;fill-opacity:1;stroke-width:0.810042"
       d="m 11.85112,4.2595445 c 1.223697,0 2.039506,0.804345 2.039506,2.010851 v 2.010836 c 0,0.427102 -0.356517,0.804337 -0.815809,0.804337 h -2.447389 v 2.0108605 c 0,0.361132 0.163151,0.80432 0.163151,0.80432 0.190097,0.416668 0.556379,1.088276 1.129896,1.150211 0.288792,0.03051 0.544125,-0.03447 0.624072,-0.119841 0.04578,-0.04832 0.122414,-0.146395 0.122414,-0.22604 0,-0.143168 0.116643,-0.402149 0.407913,-0.402149 0.259425,-0.0023 0.407896,0.104595 0.407896,0.265421 0,0.233248 -0.34752,0.451248 -0.407896,0.538901 0,0 0.322229,0.112632 0.407896,0.145597 0.106957,0.04021 0.203941,0.170514 0.203941,0.256587 0,0.162462 -0.203941,0.40215 -0.407896,0.40215 -0.249637,0 -0.394841,-0.269447 -0.611854,-0.20107 -0.573494,0.180158 -1.223693,0.20107 -2.447391,0.20107 -1.4415092,0 -2.4188352,-1.093078 -2.6807066,-1.953723 C 7.3642426,11.383563 7.3642426,10.744935 7.3642426,9.8899255 V 9.0855735 H 6.1405372 c -1.2236968,0 -2.0394941,-1.206506 -2.0394941,-2.413012 v -1.608667 c 0,-0.402184 0.4079001,-0.804345 0.8157973,-0.804345 z"
       id="path5" />
    <ellipse
       style="opacity:0.1;stroke-width:0.810752"
       cx="-1.7254596"
       cy="12.905123"
       rx="0.89924043"
       ry="0.71023631"
       transform="matrix(0.56480853,-0.82522199,0.89904771,0.43785068,0,0)"
       id="ellipse5" />
    <ellipse
       style="fill:#e4e4e4;stroke-width:0.810752"
       cx="-1.3602843"
       cy="12.675682"
       rx="0.89924043"
       ry="0.71023631"
       transform="matrix(0.56480853,-0.82522199,0.89904771,0.43785068,0,0)"
       id="ellipse6" />
    <ellipse
       style="opacity:0.1;stroke-width:0.810752"
       cx="-9.6896"
       cy="-2.1035898"
       rx="0.89924043"
       ry="0.71023631"
       transform="matrix(-0.56480853,-0.82522199,-0.89904771,0.43785068,0,0)"
       id="ellipse7" />
    <ellipse
       style="fill:#e4e4e4;stroke-width:0.810752"
       cx="-9.323597"
       cy="-2.3338249"
       rx="0.89924043"
       ry="0.71023631"
       transform="matrix(-0.56480853,-0.82522199,-0.89904771,0.43785068,0,0)"
       id="ellipse8" />
    <path
       style="opacity:0.1;fill:#ffffff;stroke-width:0.810042"
       d="m 4.9168404,4.2595445 c -0.4078972,0 -0.8157973,0.402161 -0.8157973,0.804345 v 0.402161 c 0,-0.402161 0.4079001,-0.804345 0.8157973,-0.804345 H 11.85112 c 1.223697,0 2.039506,0.804345 2.039506,2.010851 v -0.402161 c 0,-1.206506 -0.815809,-2.010851 -2.039506,-2.010851 z m 5.7105876,6.8368845 v 0.402151 c 0,0.361145 0.162334,0.804356 0.162334,0.804356 0.190077,0.416632 0.558012,1.088269 1.131516,1.150204 0.288804,0.03051 0.543322,-0.03447 0.623269,-0.119924 0.04578,-0.04831 0.122414,-0.146368 0.122414,-0.226013 0,-0.143158 0.116643,-0.402163 0.407913,-0.402163 0.13949,-0.0011 0.246364,0.02982 0.315701,0.08364 0.05234,-0.06988 0.09216,-0.143973 0.09216,-0.220385 0,-0.160855 -0.148474,-0.268645 -0.407914,-0.265416 -0.291237,0 -0.407894,0.258983 -0.407894,0.402163 0,0.07967 -0.07671,0.177766 -0.122412,0.226027 -0.08004,0.08513 -0.334468,0.150408 -0.62327,0.119844 -0.573511,-0.06184 -0.94144,-0.733545 -1.131516,-1.1502 0,0 -0.162333,-0.443189 -0.162333,-0.804327 z m 2.746797,2.117816 c -0.106953,0.13111 -0.261065,0.239696 -0.299408,0.295197 0,0 0.322238,0.113489 0.407894,0.146378 0.03994,0.01456 0.07588,0.04332 0.108437,0.0763 0.05784,-0.07234 0.09554,-0.153623 0.09554,-0.222799 0,-0.08617 -0.09702,-0.215578 -0.203961,-0.255792 -0.02286,-0.0078 -0.06274,-0.02318 -0.108487,-0.03928 z"
       id="path9" />
  </g>
</svg>
