<?xml version="1.0" encoding="UTF-8" standalone="no"?>
<svg
   width="68"
   height="68"
   viewBox="0 0 17.991665 17.991665"
   version="1.1"
   id="svg1114"
   inkscape:version="1.3.2 (091e20ef0f, 2023-11-25)"
   sodipodi:docname="truecrypt.svg"
   xmlns:inkscape="http://www.inkscape.org/namespaces/inkscape"
   xmlns:sodipodi="http://sodipodi.sourceforge.net/DTD/sodipodi-0.dtd"
   xmlns:xlink="http://www.w3.org/1999/xlink"
   xmlns="http://www.w3.org/2000/svg"
   xmlns:svg="http://www.w3.org/2000/svg"
   xmlns:rdf="http://www.w3.org/1999/02/22-rdf-syntax-ns#"
   xmlns:cc="http://creativecommons.org/ns#"
   xmlns:dc="http://purl.org/dc/elements/1.1/">
  <style
     type="text/css"
     id="current-color-scheme">.ColorScheme-Highlight { color:#5599ff; }
</style>
  <defs
     id="defs1108">
    <linearGradient
       id="linearGradient12"
       inkscape:collect="always">
      <stop
         style="stop-color:#ffffff;stop-opacity:0;"
         offset="0"
         id="stop10" />
      <stop
         id="stop11"
         offset="0.65909404"
         style="stop-color:#ffffff;stop-opacity:0" />
      <stop
         style="stop-color:#ffffff;stop-opacity:1;"
         offset="1"
         id="stop12" />
    </linearGradient>
    <linearGradient
       id="linearGradient9"
       inkscape:collect="always">
      <stop
         style="stop-color:#000000;stop-opacity:0;"
         offset="0"
         id="stop1" />
      <stop
         id="stop8"
         offset="0.66102529"
         style="stop-color:#000000;stop-opacity:0" />
      <stop
         style="stop-color:#000000;stop-opacity:1;"
         offset="1"
         id="stop9" />
    </linearGradient>
    <linearGradient
       id="linearGradient7"
       inkscape:collect="always">
      <stop
         style="stop-color:#000000;stop-opacity:0;"
         offset="0"
         id="stop5" />
      <stop
         id="stop6"
         offset="0.6586886"
         style="stop-color:#000000;stop-opacity:0" />
      <stop
         style="stop-color:#000000;stop-opacity:1;"
         offset="1"
         id="stop7" />
    </linearGradient>
    <linearGradient
       id="linearGradient4"
       inkscape:collect="always">
      <stop
         style="stop-color:#000000;stop-opacity:0;"
         offset="0"
         id="stop2" />
      <stop
         id="stop3"
         offset="0.67055255"
         style="stop-color:#000000;stop-opacity:0" />
      <stop
         style="stop-color:#000000;stop-opacity:1;"
         offset="1"
         id="stop4" />
    </linearGradient>
    <linearGradient
       inkscape:collect="always"
       id="linearGradient899">
      <stop
         style="stop-color:#3465b1;stop-opacity:1;"
         offset="0"
         id="stop895" />
      <stop
         style="stop-color:#2e5b9e;stop-opacity:1;"
         offset="1"
         id="stop897" />
    </linearGradient>
    <linearGradient
       id="linearGradient1167"
       x1="40.751999"
       x2="40.751999"
       y1="28.507999"
       y2="17.205999"
       gradientUnits="userSpaceOnUse">
      <stop
         style="stop-color:#84fb6e;stop-opacity:1"
         stop-color="#0ab816"
         offset="0"
         id="stop1163" />
      <stop
         style="stop-color:#0dd41a;stop-opacity:1"
         stop-color="#0cf36c"
         offset="1"
         id="stop1165" />
    </linearGradient>
    <linearGradient
       id="cornerBevel"
       inkscape:collect="always">
      <stop
         style="stop-color:#000000;stop-opacity:0;"
         offset="0"
         id="stop2663" />
      <stop
         id="stop2671"
         offset="0.66666675"
         style="stop-color:#000000;stop-opacity:0" />
      <stop
         style="stop-color:#000000;stop-opacity:1;"
         offset="1"
         id="stop2661" />
    </linearGradient>
    <linearGradient
       id="bevel"
       inkscape:collect="always">
      <stop
         id="stop2685"
         offset="0"
         style="stop-color:#000000;stop-opacity:1;" />
      <stop
         id="stop2687"
         offset="1"
         style="stop-color:#000000;stop-opacity:0;" />
    </linearGradient>
    <linearGradient
       id="highlightCorner"
       inkscape:collect="always">
      <stop
         style="stop-color:#ffffff;stop-opacity:0;"
         offset="0"
         id="stop2613" />
      <stop
         id="stop2621"
         offset="0.66666669"
         style="stop-color:#ffffff;stop-opacity:0" />
      <stop
         style="stop-color:#ffffff;stop-opacity:1;"
         offset="1"
         id="stop2611" />
    </linearGradient>
    <linearGradient
       inkscape:collect="always"
       id="highlight">
      <stop
         style="stop-color:#ffffff;stop-opacity:1;"
         offset="0"
         id="stop2921" />
      <stop
         style="stop-color:#ffffff;stop-opacity:0;"
         offset="1"
         id="stop2923" />
    </linearGradient>
    <radialGradient
       inkscape:collect="always"
       xlink:href="#highlightCorner"
       id="radialGradient15"
       gradientUnits="userSpaceOnUse"
       gradientTransform="matrix(0.04294597,-12.079348,17.933991,0.06376112,14.524179,-50.373789)"
       cx="-4.5799766"
       cy="-0.50206107"
       fx="-4.5799766"
       fy="-0.50206107"
       r="0.39687499" />
    <linearGradient
       inkscape:collect="always"
       xlink:href="#highlight"
       id="linearGradient15"
       gradientUnits="userSpaceOnUse"
       x1="-3.8453064"
       y1="-1.1532172"
       x2="-3.8453064"
       y2="-0.8954913"
       gradientTransform="matrix(6.0923077,0,0,6.0923077,32.228528,7.1537621)" />
    <radialGradient
       inkscape:collect="always"
       xlink:href="#linearGradient12"
       id="radialGradient17"
       gradientUnits="userSpaceOnUse"
       gradientTransform="matrix(-0.02247554,-12.045403,-17.967828,0.03352619,1.6640208,-50.22331)"
       cx="-4.575222"
       cy="-0.55256462"
       fx="-4.575222"
       fy="-0.55256462"
       r="0.39687499" />
    <radialGradient
       inkscape:collect="always"
       xlink:href="#linearGradient7"
       id="radialGradient18"
       gradientUnits="userSpaceOnUse"
       gradientTransform="matrix(0.06461187,12.09952,17.933731,-0.09576873,14.609502,64.748231)"
       cx="-4.4284906"
       cy="-0.50121039"
       fx="-4.4284906"
       fy="-0.50121039"
       r="0.39687499" />
    <linearGradient
       inkscape:collect="always"
       xlink:href="#bevel"
       id="linearGradient18"
       gradientUnits="userSpaceOnUse"
       x1="-3.8415797"
       y1="-1.4506671"
       x2="-3.8406549"
       y2="-1.1968651"
       gradientTransform="matrix(6.0923076,0,0,6.0923076,32.228527,-7.1537627)" />
    <radialGradient
       inkscape:collect="always"
       xlink:href="#linearGradient4"
       id="radialGradient20"
       gradientUnits="userSpaceOnUse"
       gradientTransform="matrix(-0.01031383,11.991438,-17.967296,-0.01545561,1.7353715,64.305742)"
       cx="-4.4236727"
       cy="-0.55004197"
       fx="-4.4236727"
       fy="-0.55004197"
       r="0.39687499" />
    <radialGradient
       inkscape:collect="always"
       xlink:href="#cornerBevel"
       id="radialGradient25"
       gradientUnits="userSpaceOnUse"
       gradientTransform="matrix(12.184614,0,0,12.184614,59.63122,10.377613)"
       cx="-4.4568658"
       cy="-0.44864327"
       fx="-4.4568658"
       fy="-0.44864327"
       r="0.39687496" />
    <linearGradient
       inkscape:collect="always"
       xlink:href="#bevel"
       id="linearGradient25"
       gradientUnits="userSpaceOnUse"
       x1="-3.8487544"
       y1="-1.146081"
       x2="-3.8455966"
       y2="-0.890971"
       gradientTransform="matrix(6.0923077,0,0,6.0923077,32.228528,7.1537627)" />
    <radialGradient
       inkscape:collect="always"
       xlink:href="#cornerBevel"
       id="radialGradient29"
       gradientUnits="userSpaceOnUse"
       gradientTransform="matrix(0,-12.184614,12.184614,0,11.27353,-44.427768)"
       cx="-4.5705457"
       cy="-0.48653662"
       fx="-4.5705457"
       fy="-0.48653662"
       r="0.39687496" />
    <radialGradient
       inkscape:collect="always"
       xlink:href="#cornerBevel"
       id="radialGradient30"
       gradientUnits="userSpaceOnUse"
       gradientTransform="matrix(-12.184514,-0.04945749,0.04847411,-11.942243,-43.502155,3.8519053)"
       cx="-4.5342312"
       cy="-0.60337442"
       fx="-4.5342312"
       fy="-0.60337442"
       r="0.39687496" />
    <radialGradient
       inkscape:collect="always"
       xlink:href="#linearGradient9"
       id="radialGradient31"
       gradientUnits="userSpaceOnUse"
       gradientTransform="matrix(0,-12.151612,11.978956,0,18.475664,-48.770776)"
       cx="-4.4175329"
       cy="-0.56489283"
       fx="-4.4175329"
       fy="-0.56489283"
       r="0.39687496" />
    <linearGradient
       inkscape:collect="always"
       xlink:href="#bevel"
       id="linearGradient34"
       gradientUnits="userSpaceOnUse"
       x1="-3.99717"
       y1="-1.2218677"
       x2="-4.0003276"
       y2="-0.96675771"
       gradientTransform="matrix(6.0923077,0,0,6.0923077,17.025077,8.0496826)" />
    <linearGradient
       inkscape:collect="always"
       xlink:href="#bevel"
       id="linearGradient35"
       gradientUnits="userSpaceOnUse"
       x1="-4.0919032"
       y1="-1.4492278"
       x2="-4.0950613"
       y2="-1.1972755"
       gradientTransform="matrix(6.0923077,0,0,6.0923077,16.129161,-7.1537627)" />
    <linearGradient
       inkscape:collect="always"
       xlink:href="#bevel"
       id="linearGradient36"
       gradientUnits="userSpaceOnUse"
       x1="-3.8734362"
       y1="-1.3717227"
       x2="-3.8765941"
       y2="-1.116071"
       gradientTransform="matrix(6.0923077,0,0,6.0923077,31.33261,-8.0496826)" />
    <linearGradient
       id="paint2_linear_77:3-7"
       x1="79.398094"
       y1="-197.84389"
       x2="82.901054"
       y2="-199.97827"
       gradientUnits="userSpaceOnUse"
       gradientTransform="matrix(1.9248511,0,0,1.7314595,-40.88733,399.61741)">
      <stop
         stop-color="#EBFAFF"
         stop-opacity="0.1"
         id="stop29-5-7"
         offset="0"
         style="stop-color:#c3c3c3;stop-opacity:1;" />
      <stop
         offset="1"
         stop-color="#70A9FF"
         stop-opacity="0.5"
         id="stop30-0-1"
         style="stop-color:#05c7ff;stop-opacity:0.80000001;" />
    </linearGradient>
    <linearGradient
       inkscape:collect="always"
       xlink:href="#linearGradient899"
       id="linearGradient926"
       x1="1.206604"
       y1="-9.2317743"
       x2="16.919081"
       y2="-9.3067636"
       gradientUnits="userSpaceOnUse"
       gradientTransform="translate(-0.92604234,0.47624996)" />
  </defs>
  <sodipodi:namedview
     id="base"
     pagecolor="#e2e2e2"
     bordercolor="#666666"
     borderopacity="1.0"
     inkscape:pageopacity="0"
     inkscape:pageshadow="2"
     inkscape:zoom="9.7248729"
     inkscape:cx="32.596827"
     inkscape:cy="31.05439"
     inkscape:document-units="px"
     inkscape:current-layer="layer1"
     inkscape:document-rotation="0"
     showgrid="true"
     units="px"
     inkscape:window-width="1920"
     inkscape:window-height="990"
     inkscape:window-x="0"
     inkscape:window-y="0"
     inkscape:window-maximized="1"
     inkscape:object-paths="true"
     inkscape:snap-grids="true"
     inkscape:snap-intersection-paths="true"
     inkscape:snap-smooth-nodes="true"
     inkscape:snap-midpoints="true"
     inkscape:showpageshadow="2"
     inkscape:pagecheckerboard="0"
     inkscape:deskcolor="#d1d1d1">
    <inkscape:grid
       id="grid2"
       units="px"
       originx="0"
       originy="0"
       spacingx="0.26458333"
       spacingy="0.26458333"
       empcolor="#0099e5"
       empopacity="0.30196078"
       color="#0099e5"
       opacity="0.14902"
       empspacing="5"
       dotted="false"
       gridanglex="30"
       gridanglez="30"
       visible="true" />
  </sodipodi:namedview>
  <metadata
     id="metadata1111">
    <rdf:RDF>
      <cc:Work
         rdf:about="">
        <dc:format>image/svg+xml</dc:format>
        <dc:type
           rdf:resource="http://purl.org/dc/dcmitype/StillImage" />
      </cc:Work>
    </rdf:RDF>
  </metadata>
  <g
     inkscape:label="Layer 1"
     inkscape:groupmode="layer"
     id="layer1">
    <g
       id="g918"
       transform="translate(0.47625037,0.92604234)">
      <rect
         ry="4.8357682"
         rx="4.8357682"
         style="fill:url(#linearGradient926);fill-opacity:1;stroke-width:6.09228"
         x="0.13229237"
         y="-16.457085"
         width="15.875001"
         height="15.875001"
         id="use1056"
         transform="rotate(90)"
         class="ColorScheme-Highlight" />
      <path
         d="m 5.344583,0.13229167 c -2.6384245,0 -4.76249953,2.12407483 -4.76249953,4.76249963 H 5.344583 Z"
         style="opacity:0.15;fill:url(#radialGradient25);fill-opacity:1;stroke-width:6.09228"
         id="path20" />
      <rect
         y="0.13229151"
         x="5.3445826"
         height="1.5875"
         width="6.3500004"
         id="rect20"
         style="opacity:0.15;fill:url(#linearGradient25);fill-opacity:1;stroke-width:4.83577;stroke-linecap:round;stroke-linejoin:round;paint-order:stroke fill markers" />
      <path
         d="m 0.58208347,11.244792 c 0,2.638424 2.12407503,4.762499 4.76249953,4.762499 v -4.762499 z"
         style="opacity:0.15;fill:url(#radialGradient29);fill-opacity:1;stroke-width:6.09228"
         id="use20" />
      <rect
         y="0.5820834"
         x="-11.244792"
         height="1.5875"
         width="6.3500004"
         id="use21"
         style="opacity:0.15;fill:url(#linearGradient34);fill-opacity:1;stroke-width:4.83577;stroke-linecap:round;stroke-linejoin:round;paint-order:stroke fill markers"
         transform="rotate(-90)" />
      <path
         d="m 11.694583,16.007291 c 2.638425,0 4.7625,-2.124074 4.7625,-4.762499 h -4.7625 z"
         style="opacity:0.15;fill:url(#radialGradient30);fill-opacity:1;stroke-width:6.09228"
         id="use22" />
      <rect
         y="-16.007292"
         x="-11.694584"
         height="1.5875"
         width="6.3500004"
         id="use23"
         style="opacity:0.15;fill:url(#linearGradient35);fill-opacity:1;stroke-width:4.83577;stroke-linecap:round;stroke-linejoin:round;paint-order:stroke fill markers"
         transform="scale(-1)" />
      <path
         d="m 16.457083,4.8947913 c 0,-2.6384245 -2.124074,-4.76249963 -4.7625,-4.76249963 V 4.8947913 Z"
         style="opacity:0.15;fill:url(#radialGradient31);fill-opacity:1;stroke-width:6.09228"
         id="use24" />
      <rect
         y="-16.457081"
         x="4.8947906"
         height="1.5875"
         width="6.3500004"
         id="use25"
         style="opacity:0.15;fill:url(#linearGradient36);fill-opacity:1;stroke-width:4.83577;stroke-linecap:round;stroke-linejoin:round;paint-order:stroke fill markers"
         transform="rotate(90)" />
      <path
         d="m 5.3445832,0.13229107 c -2.638425,0 -4.76250035,2.12407473 -4.76250035,4.76249973 H 5.3445832 Z"
         style="opacity:0.5;fill:url(#radialGradient15);fill-opacity:1;stroke-width:6.09228"
         id="path14" />
      <rect
         y="0.1322909"
         x="5.3445826"
         height="1.5875"
         width="6.3499999"
         id="rect14"
         style="opacity:0.5;fill:url(#linearGradient15);fill-opacity:1;stroke-width:4.83577;stroke-linecap:round;stroke-linejoin:round;paint-order:stroke fill markers" />
      <path
         d="m 11.694583,0.13229096 c 2.638425,0 4.7625,2.12407504 4.7625,4.76249734 h -4.7625 z"
         style="opacity:0.5;fill:url(#radialGradient17);fill-opacity:1;stroke-width:6.09228"
         id="use14" />
      <path
         id="path17"
         style="opacity:0.5;fill:url(#radialGradient18);fill-opacity:1;stroke-width:6.09228"
         d="m 5.3445834,16.00729 c -2.638425,0 -4.7625,-2.124075 -4.7625,-4.7625 h 4.7625 z" />
      <rect
         style="opacity:0.5;fill:url(#linearGradient18);fill-opacity:1;stroke-width:4.83577;stroke-linecap:round;stroke-linejoin:round;paint-order:stroke fill markers"
         id="rect17"
         width="6.3499994"
         height="1.5874999"
         x="5.3445826"
         y="-16.007292"
         transform="scale(1,-1)" />
      <path
         id="use17"
         style="opacity:0.5;fill:url(#radialGradient20);fill-opacity:1;stroke-width:6.09228"
         d="m 11.694582,16.007291 c 2.638425,0 4.7625,-2.124075 4.7625,-4.7625 h -4.7625 z" />
    </g>
    <path
       d="m 7.2808211,3.1749997 c -0.1738354,0 -0.3223344,0.060542 -0.4448743,0.1831311 C 6.7134045,3.4814326 6.652162,3.6299949 6.652162,3.8031902 c 0,0.1731951 0.061246,0.3217226 0.1837848,0.4436003 0.037758,0.038487 0.078328,0.071391 0.1217968,0.097767 0.09546,0.058445 0.2033903,0.087554 0.323081,0.087554 0.1738363,0 0.3208763,-0.062022 0.4434158,-0.1853199 0.1225417,-0.1218783 0.1852433,-0.2704057 0.1852433,-0.4436008 0,-0.1197338 -0.029095,-0.2269621 -0.087518,-0.3217559 C 7.7956053,3.4379535 7.7627084,3.3966169 7.724238,3.3581296 7.6016968,3.2355396 7.4546576,3.1749995 7.2808211,3.1749997 Z m 1.6066546,0 c -0.1738359,0 -0.3223351,0.060542 -0.4448752,0.1831311 -0.1232533,0.1233018 -0.1837841,0.2718641 -0.1837841,0.4450594 0,0.1731951 0.060534,0.3217226 0.1837841,0.4436003 0.037764,0.038487 0.07833,0.071391 0.1217971,0.097767 0.09546,0.058445 0.2033915,0.087554 0.3230821,0.087554 0.1731227,0 0.3201634,-0.062022 0.4434177,-0.1853199 C 9.453438,4.1249127 9.5146792,3.9763863 9.5146792,3.803191 c 0,-0.1197338 -0.029068,-0.2269787 -0.086754,-0.322486 C 9.4015562,3.437225 9.3686702,3.396617 9.3309352,3.3581287 9.2076401,3.2355401 9.0605985,3.1750006 8.8874757,3.1749997 Z m 1.6066553,0 c -0.174551,0 -0.322354,0.060542 -0.445604,0.1831311 -0.1225415,0.1233018 -0.1837861,0.2718641 -0.1837861,0.4450594 0,0.1731951 0.061284,0.3217226 0.1837861,0.4436003 0.03849,0.038487 0.07908,0.071391 0.122522,0.097767 0.09546,0.058445 0.203393,0.087554 0.323084,0.087554 0.173123,0 0.320145,-0.062022 0.442685,-0.1853199 0.123242,-0.1218784 0.184508,-0.2704054 0.184508,-0.4436006 0,-0.1197325 -0.02913,-0.226979 -0.0876,-0.322486 C 11.007366,3.437228 10.975156,3.396621 10.936786,3.3581295 10.814257,3.2355402 10.667247,3.1750002 10.494123,3.1750002 Z M 5.6748961,4.869144 c -0.1738356,0 -0.3223513,0.060561 -0.4456035,0.1838607 -0.1225416,0.1225921 -0.1830552,0.2711344 -0.1830552,0.44433 0,0.1731949 0.060515,0.3217389 0.1830552,0.4443296 0.03847,0.038486 0.079792,0.07139 0.1232532,0.097765 0.094753,0.057732 0.2026613,0.086825 0.3223514,0.086825 0.1731236,0 0.3208763,-0.062009 0.4434162,-0.1845908 0.1232498,-0.1225944 0.1852418,-0.2711357 0.1852418,-0.4443315 0,-0.1197336 -0.029848,-0.226979 -0.088975,-0.3224861 C 6.1882197,5.1313722 6.1560719,5.0907798 6.1183092,5.0530025 5.9957723,4.9297017 5.8480202,4.8691441 5.6748961,4.869144 Z m 6.4244279,0 c -0.173834,0 -0.321606,0.06056 -0.444141,0.1838607 -0.123244,0.1225935 -0.183788,0.2711344 -0.183789,0.44433 0,0.1731949 0.06057,0.3217389 0.183789,0.4443296 0.03849,0.038486 0.07909,0.07139 0.12257,0.097765 0.09477,0.057732 0.201936,0.086825 0.321618,0.086825 0.173128,0 0.320897,-0.062009 0.444153,-0.1845908 0.122589,-0.1225931 0.183786,-0.2711342 0.183786,-0.4443298 0,-0.1197337 -0.02913,-0.2269958 -0.0876,-0.323215 C 12.61334,5.1313547 12.58118,5.0907817 12.54339,5.0530061 12.420206,4.9297041 12.272434,4.8691467 12.09931,4.869147 Z M 7.2808211,6.5632883 c -0.1738354,0 -0.3223344,0.060559 -0.4448743,0.1838607 C 6.7134045,6.8697425 6.652162,7.0182839 6.652162,7.1914791 c 0,0.1739083 0.061246,0.3217563 0.1837848,0.4450598 0.037758,0.037775 0.078328,0.07067 0.1217968,0.097038 0.09546,0.05773 0.2033903,0.086825 0.323081,0.086825 0.1738363,0 0.3208763,-0.061985 0.4434158,-0.1838604 0.1225421,-0.1233026 0.1852435,-0.2711524 0.1852435,-0.4450603 0,-0.1190313 -0.029093,-0.2262495 -0.087518,-0.3217564 C 7.7956019,6.8262433 7.7627077,6.7856386 7.7242379,6.7471518 7.6016981,6.6238461 7.4546578,6.5632883 7.2808211,6.5632883 Z m 1.6066546,0 c -0.1738359,0 -0.3223351,0.060559 -0.4448752,0.1838607 -0.1232533,0.1225935 -0.1837841,0.2711349 -0.1837841,0.4443301 0,0.1739083 0.060534,0.3217563 0.1837841,0.4450598 0.037764,0.037775 0.07833,0.07067 0.1217971,0.097038 0.09546,0.05773 0.2033915,0.086825 0.3230821,0.086825 0.1731227,0 0.3201634,-0.061985 0.4434177,-0.1838604 0.1225416,-0.1233003 0.1837818,-0.2711514 0.1837818,-0.4450593 0,-0.1197338 -0.029068,-0.2269787 -0.086754,-0.3224859 C 9.4015562,6.8255203 9.3686699,6.7849253 9.3309355,6.7471536 9.2076391,6.6238462 9.0605982,6.5632895 8.8874757,6.5632883 Z m 1.6066553,0 c -0.174551,0 -0.322354,0.060559 -0.445604,0.1838607 -0.1225415,0.1225935 -0.1837861,0.2711349 -0.1837861,0.4443301 0,0.1739083 0.061284,0.3217563 0.1837861,0.4450598 0.03849,0.037775 0.07908,0.07067 0.122522,0.097038 0.09546,0.05773 0.203393,0.086825 0.323084,0.086825 0.173123,0 0.320145,-0.061985 0.442685,-0.1838604 0.123242,-0.1233006 0.184508,-0.2711515 0.184508,-0.4450594 0,-0.1197337 -0.02913,-0.2269787 -0.0876,-0.3224858 -0.02637,-0.043477 -0.05921,-0.084061 -0.09694,-0.1218467 C 10.81427,6.6238455 10.667252,6.5632891 10.494127,6.5632891 Z M 8.8874757,8.2574329 c -0.1738359,0 -0.3223351,0.061267 -0.4448752,0.1838609 -0.1232533,0.1225933 -0.1837841,0.2711347 -0.1837841,0.4443297 0,0.1739084 0.060534,0.3224687 0.1837841,0.4450594 0.037764,0.038487 0.07833,0.070668 0.1217971,0.097039 0.09546,0.058442 0.2033915,0.087554 0.3230821,0.087554 0.1731227,0 0.3201634,-0.062717 0.4434177,-0.1845903 C 9.453439,9.208092 9.5146792,9.0595345 9.5146792,8.8856263 c 0,-0.1190292 -0.029088,-0.2262659 -0.087494,-0.3224861 -0.026369,-0.04348 -0.058526,-0.084072 -0.09626,-0.1218488 C 9.2076391,8.318702 9.0605985,8.2574328 8.8874757,8.2574329 Z m 0,1.6941444 c -0.1738359,0 -0.3223351,0.06198 -0.4448752,0.1838607 -0.1232533,0.1233 -0.1837841,0.271151 -0.1837841,0.44506 0,0.173193 0.060534,0.321737 0.1837841,0.444328 0.037764,0.03777 0.07833,0.07067 0.1217971,0.09704 0.09546,0.05845 0.2033915,0.08755 0.3230821,0.08755 0.1731227,0 0.3201634,-0.06202 0.4434177,-0.184577 0.1225416,-0.122594 0.1837818,-0.271135 0.1837818,-0.444328 0,-0.119736 -0.029068,-0.226981 -0.086754,-0.322488 -0.026379,-0.04348 -0.059255,-0.08409 -0.097,-0.12258 C 9.2076401,10.01356 9.0605991,9.9515773 8.8874757,9.9515773 Z m 0,1.6948707 c -0.1738359,0 -0.3223351,0.06127 -0.4448752,0.18313 -0.1232533,0.123304 -0.1837841,0.271152 -0.1837841,0.445059 0,0.173194 0.060534,0.321741 0.1837841,0.44433 0.037764,0.03776 0.07833,0.07063 0.1217971,0.097 0.09546,0.05844 0.2033915,0.08756 0.3230821,0.08756 0.1731227,0 0.3201634,-0.062 0.4434177,-0.18459 0.1225416,-0.122594 0.1837818,-0.271137 0.1837818,-0.44433 0,-0.119734 -0.029068,-0.226978 -0.086754,-0.322485 -0.026369,-0.04346 -0.059255,-0.08412 -0.097,-0.12258 -0.1232613,-0.121857 -0.2703028,-0.18311 -0.4434258,-0.18311 z m -1.6066546,1.694144 c -0.1738354,0 -0.3223344,0.06132 -0.4448743,0.18313 -0.1225423,0.123296 -0.1837848,0.271867 -0.1837848,0.445064 0,0.173191 0.061246,0.321738 0.1837848,0.444326 0.037758,0.03776 0.078328,0.07059 0.1217968,0.09698 0.09546,0.05842 0.2033903,0.08765 0.323081,0.08765 0.1738363,0 0.3208763,-0.0619 0.4434158,-0.184592 0.1225421,-0.122639 0.1852433,-0.271139 0.1852433,-0.444331 0,-0.118998 -0.029095,-0.226267 -0.087518,-0.322487 -0.026369,-0.04349 -0.059254,-0.08405 -0.097729,-0.122602 C 7.6016977,13.401839 7.454658,13.340574 7.2808222,13.340574 Z m 1.6066546,0 c -0.1738359,0 -0.3223351,0.06132 -0.4448752,0.18313 -0.1232533,0.123296 -0.1837841,0.271867 -0.1837841,0.445064 0,0.173191 0.060534,0.321738 0.1837841,0.444326 0.037764,0.03776 0.07833,0.07059 0.1217971,0.09698 0.09546,0.05842 0.2033915,0.08765 0.3230821,0.08765 0.1731227,0 0.3201634,-0.0619 0.4434177,-0.184592 0.1225416,-0.122639 0.1837828,-0.271139 0.1837828,-0.444331 0,-0.119722 -0.029068,-0.226981 -0.086754,-0.322487 -0.026379,-0.04349 -0.059265,-0.08405 -0.097,-0.122604 -0.123264,-0.121882 -0.2703049,-0.183134 -0.4434274,-0.183134 z"
       fill="#ffffff"
       id="path14-9"
       style="stroke-width:0.277813" />
    <path
       d="m 9.4278896,3.4807044 c 0.057726,0.0955 0.086764,0.2027465 0.086764,0.3224858 0,0.1731951 -0.061235,0.3217226 -0.1837848,0.4436003 -0.1232523,0.123301 -0.2702947,0.1853198 -0.4434178,0.1853198 -0.1196841,0 -0.2276143,-0.029109 -0.3230815,-0.087554 0.026369,0.042764 0.058506,0.083339 0.096272,0.1211131 0.1225425,0.1225929 0.2710383,0.1853194 0.4448752,0.1853194 0.1738389,0 0.3208802,-0.062731 0.4434201,-0.1853194 0.1225405,-0.1218779 0.1845108,-0.2704219 0.1845108,-0.4443299 0,-0.1731952 -0.061984,-0.321739 -0.1845108,-0.4443299 -0.037744,-0.037779 -0.078317,-0.069942 -0.1210688,-0.096305 z m 1.6059224,0 c 0.05841,0.0955 0.08761,0.2027465 0.08761,0.3224858 0,0.1731951 -0.06134,0.3217226 -0.184512,0.4436003 -0.122576,0.123301 -0.269563,0.1853198 -0.442689,0.1853198 -0.119686,0 -0.227614,-0.029109 -0.323083,-0.087554 0.02637,0.042764 0.05852,0.083339 0.09629,0.1211131 0.122543,0.1225929 0.271037,0.1853194 0.444873,0.1853194 0.173121,0 0.320161,-0.062731 0.443417,-0.1853194 0.122587,-0.1225934 0.183784,-0.2708977 0.183784,-0.4443302 0,-0.1731951 -0.06133,-0.3217389 -0.183784,-0.4443298 -0.03778,-0.037778 -0.07836,-0.069942 -0.121788,-0.096318 z m -3.2118481,7.115e-4 c 0.058421,0.094793 0.087518,0.2020158 0.087518,0.3217557 0,0.1731959 -0.062703,0.3217229 -0.1852429,0.4436009 -0.1225427,0.1233 -0.2695803,0.1853189 -0.4434163,0.1853189 -0.1196838,0 -0.2276136,-0.029108 -0.3230805,-0.087554 0.026368,0.042763 0.058505,0.083337 0.096273,0.1211151 0.1232513,0.1225931 0.2717682,0.1853193 0.4456043,0.1853193 0.1731229,0 0.3201465,-0.06273 0.4426869,-0.1853193 0.1232462,-0.1218778 0.1852403,-0.2704222 0.1852403,-0.4443301 0,-0.1731952 -0.061996,-0.3217394 -0.1852425,-0.4443305 -0.03776,-0.037776 -0.077585,-0.069923 -0.1203395,-0.095574 z M 11.033086,5.174101 c 0.05912,0.096219 0.08817,0.2034757 0.08817,0.3232158 0,0.1731947 -0.06134,0.3217389 -0.184514,0.4443294 -0.122573,0.1225932 -0.269562,0.1845904 -0.442684,0.1845904 -0.119687,0 -0.227601,-0.029085 -0.322352,-0.086825 0.02563,0.042054 0.05781,0.082612 0.09554,0.1203877 0.122539,0.1233013 0.271035,0.1853204 0.444871,0.1853204 0.173125,0 0.320167,-0.062023 0.443419,-0.1853204 0.122588,-0.1218778 0.183784,-0.2704041 0.183784,-0.4436001 0,-0.173908 -0.06133,-0.3217556 -0.183784,-0.4450594 -0.03847,-0.038487 -0.07909,-0.07067 -0.122577,-0.097042 z m 1.606656,0 c 0.0584,0.096219 0.08759,0.2034757 0.08759,0.3232158 0,0.1731947 -0.06133,0.3217389 -0.183787,0.4443294 -0.123241,0.1225932 -0.271022,0.1845904 -0.444149,0.1845904 -0.119663,0 -0.226862,-0.029085 -0.321619,-0.086825 0.02637,0.042054 0.05777,0.082612 0.09554,0.1203877 0.123242,0.1233013 0.270329,0.1853204 0.444874,0.1853204 0.173129,0 0.32088,-0.062023 0.443418,-0.1853204 0.123242,-0.1218778 0.184513,-0.2704041 0.184513,-0.4436001 0,-0.173908 -0.06134,-0.3217556 -0.184513,-0.4450594 -0.03774,-0.038487 -0.07833,-0.07067 -0.12178,-0.097043 z m -6.4251615,7.47e-4 c 0.059131,0.0955 0.088973,0.202746 0.088973,0.322486 0,0.1731953 -0.061997,0.3217388 -0.1852428,0.4443298 -0.1225416,0.1225933 -0.2702922,0.1845906 -0.4434159,0.1845906 -0.1196841,0 -0.2275969,-0.029086 -0.3223517,-0.086825 0.025651,0.042052 0.057779,0.082616 0.095535,0.1203879 0.1225422,0.1233 0.2710388,0.1853199 0.4448743,0.1853199 0.1738364,0 0.3201645,-0.062023 0.4434161,-0.1853199 C 6.4589101,6.0379407 6.5216109,5.8894132 6.5216109,5.7162181 6.5216109,5.5423105 6.4589079,5.3944619 6.3363676,5.271158 6.2986066,5.233378 6.2580396,5.201217 6.2145717,5.174845 Z m 1.6066541,0 c 0.059132,0.0955 0.088249,0.202746 0.088249,0.322486 0,0.1731953 -0.062701,0.3217388 -0.185243,0.4443298 -0.1225424,0.1225933 -0.26958,0.1845906 -0.4434158,0.1845906 -0.1189797,0 -0.2268847,-0.029107 -0.3223521,-0.087555 0.025649,0.042765 0.057778,0.083337 0.095536,0.1211153 0.1232511,0.123302 0.2717686,0.1853201 0.445604,0.1853201 0.1731229,0 0.3201474,-0.062023 0.442687,-0.1853201 0.1232519,-0.1218783 0.1852432,-0.2704046 0.1852432,-0.4435995 0,-0.1739082 -0.061996,-0.3217569 -0.1852425,-0.4450601 -0.037763,-0.037778 -0.07831,-0.069942 -0.1210658,-0.096307 z m 1.6059266,0 c 0.058446,0.0955 0.087494,0.202746 0.087494,0.322486 0,0.1731953 -0.061265,0.3217388 -0.1837865,0.4443298 -0.1232492,0.1225933 -0.2702938,0.1845906 -0.4434169,0.1845906 -0.119684,0 -0.2276142,-0.029107 -0.3230819,-0.087555 0.026369,0.042765 0.058506,0.083337 0.096274,0.1211153 0.1225424,0.123302 0.271039,0.1853201 0.4448758,0.1853201 0.1738389,0 0.3208792,-0.062023 0.4434184,-0.1853201 C 9.6714786,6.0379363 9.7334509,5.88941 9.7334509,5.7162151 9.7334509,5.5423069 9.6714769,5.3944582 9.5489371,5.271155 9.5111921,5.233377 9.4706091,5.201213 9.4271412,5.174842 Z M 4.6093844,6.8689927 c 0.058418,0.0955 0.087518,0.2027463 0.087518,0.3224856 0,0.1739084 -0.061982,0.3217561 -0.184513,0.4450598 -0.1232536,0.1218781 -0.2703099,0.1838601 -0.4441455,0.1838601 -0.1196844,0 -0.2268687,-0.029082 -0.3216229,-0.086825 0.025651,0.042762 0.057049,0.083337 0.094808,0.1211155 0.1232501,0.122593 0.2717683,0.1845893 0.4456042,0.1845893 0.1731237,0 0.3208761,-0.062008 0.4434166,-0.1845896 C 4.8536979,7.7320951 4.915692,7.5835536 4.915692,7.4103587 c 0,-0.1739081 -0.061996,-0.3217566 -0.1852423,-0.4450601 -0.037764,-0.037776 -0.078312,-0.06994 -0.1210673,-0.09631 z m 1.6059259,0 c 0.058421,0.0955 0.088249,0.2027463 0.088249,0.3224856 0,0.1739084 -0.061997,0.3217561 -0.185243,0.4450598 C 5.9957742,7.7584162 5.8480238,7.8203982 5.6749,7.8203982 c -0.1196842,0 -0.2276134,-0.029082 -0.3230811,-0.086825 0.026366,0.042762 0.058505,0.083337 0.096269,0.1211155 0.1225417,0.122593 0.2710387,0.1845893 0.4448736,0.1845893 0.1738363,0 0.3201646,-0.062008 0.4434167,-0.1845896 0.1225417,-0.1225941 0.1852424,-0.2711358 0.1852424,-0.4443306 0,-0.1739081 -0.062706,-0.3217565 -0.1852431,-0.4450601 -0.037759,-0.037773 -0.078311,-0.069942 -0.1210702,-0.096308 z m 3.2125793,0 c 0.057726,0.0955 0.086764,0.2027463 0.086764,0.3224856 0,0.1739084 -0.061235,0.3217561 -0.1837848,0.4450598 -0.1232533,0.1218781 -0.2702951,0.1838601 -0.4434181,0.1838601 -0.1196841,0 -0.2276143,-0.029082 -0.3230816,-0.086825 0.026369,0.042762 0.058506,0.083337 0.096273,0.1211155 0.1225427,0.1225933 0.2710384,0.1845896 0.4448756,0.1845896 0.1738379,0 0.3208802,-0.06201 0.4434191,-0.1845896 0.1225405,-0.1225939 0.1845128,-0.2711354 0.1845128,-0.4443303 0,-0.1739081 -0.061974,-0.3217566 -0.1845128,-0.4450601 -0.037744,-0.037776 -0.078317,-0.069942 -0.1210668,-0.09631 z m 1.6059224,0 c 0.05841,0.0955 0.08761,0.2027463 0.08761,0.3224856 0,0.1739084 -0.06134,0.3217561 -0.184512,0.4450598 -0.122576,0.1218781 -0.269562,0.1838601 -0.442688,0.1838601 -0.119685,0 -0.227614,-0.029082 -0.323082,-0.086825 0.02637,0.042762 0.05855,0.083337 0.09625,0.1211155 0.122543,0.1225933 0.271037,0.1845896 0.444872,0.1845896 0.173123,0 0.320162,-0.06201 0.443417,-0.1845896 0.122586,-0.1225935 0.183787,-0.2711349 0.183787,-0.44433 0,-0.173908 -0.06133,-0.3217566 -0.183787,-0.4450601 -0.03777,-0.037775 -0.07835,-0.069942 -0.121787,-0.096314 z m 1.60593,0 c 0.0584,0.0955 0.08759,0.2027463 0.08759,0.3224856 0,0.1739084 -0.06133,0.3217561 -0.183787,0.4450598 -0.123241,0.1218781 -0.271022,0.1838601 -0.444149,0.1838601 -0.119663,0 -0.226862,-0.029082 -0.321619,-0.086825 0.02567,0.042762 0.05777,0.083337 0.09554,0.1211155 0.123242,0.1225933 0.270329,0.1845896 0.444874,0.1845896 0.173129,0 0.32088,-0.06201 0.443418,-0.1845896 0.123242,-0.1225935 0.184513,-0.2711349 0.184513,-0.44433 0,-0.173908 -0.06134,-0.3217566 -0.184513,-0.4450601 -0.03774,-0.037775 -0.07833,-0.069942 -0.12178,-0.096314 z m 1.606652,0 c 0.05839,0.0955 0.08757,0.2027463 0.08757,0.3224856 0,0.1739084 -0.06134,0.3217561 -0.184511,0.4450598 -0.122589,0.1218781 -0.270299,0.1838601 -0.443421,0.1838601 -0.119666,0 -0.226883,-0.029082 -0.32235,-0.086825 0.02637,0.042762 0.05851,0.083337 0.09632,0.1211155 0.122589,0.1225933 0.270307,0.1845896 0.444148,0.1845896 0.173121,0 0.320891,-0.06201 0.444141,-0.1845896 0.122589,-0.1225935 0.183788,-0.2711349 0.183788,-0.44433 0,-0.173908 -0.06133,-0.3217566 -0.183788,-0.4450601 -0.03776,-0.037775 -0.07834,-0.069942 -0.121787,-0.096314 z m -6.4244301,7.472e-4 c 0.058421,0.0955 0.087518,0.2027289 0.087518,0.3217559 0,0.1739084 -0.062703,0.3217561 -0.1852429,0.4450592 -0.1225428,0.1218781 -0.2695804,0.1838612 -0.4434164,0.1838612 -0.1196838,0 -0.2276136,-0.029084 -0.3230805,-0.086825 0.026368,0.042763 0.058505,0.08334 0.096273,0.1211157 0.1232513,0.1225933 0.2717682,0.1845903 0.4456043,0.1845903 0.1731229,0 0.3201465,-0.06201 0.4426869,-0.1845903 C 8.0655554,7.7321145 8.127549,7.5835727 8.127549,7.4103776 c 0,-0.1739078 -0.061996,-0.321756 -0.1852426,-0.4450592 -0.03776,-0.037775 -0.077587,-0.069206 -0.1203425,-0.095579 z M 4.6093844,8.5631546 c 0.058418,0.09622 0.087518,0.2034586 0.087518,0.3224856 0,0.1739081 -0.061982,0.3224693 -0.184513,0.4450597 -0.1232542,0.121878 -0.2703104,0.1845905 -0.4441461,0.1845905 -0.1196844,0 -0.2268685,-0.029086 -0.3216228,-0.086825 0.026366,0.042049 0.057049,0.082613 0.094808,0.1203882 0.1232496,0.1225935 0.271768,0.1845905 0.4456036,0.1845905 0.1731239,0 0.3208763,-0.062009 0.4434169,-0.1845905 C 4.8536981,9.4262602 4.915692,9.277719 4.915692,9.1045237 4.915692,8.9313283 4.853695,8.7827673 4.7304498,8.659464 4.6926908,8.62169 4.6521398,8.589524 4.6093844,8.5631546 Z m 1.6051961,0 c 0.059131,0.09622 0.088973,0.2034586 0.088973,0.3224856 0,0.1739081 -0.061997,0.3224693 -0.1852428,0.4450597 -0.1225423,0.121878 -0.2702929,0.1845905 -0.4434166,0.1845905 -0.119684,0 -0.2275969,-0.029086 -0.3223516,-0.086825 0.025651,0.042049 0.057778,0.082613 0.095535,0.1203882 0.1225425,0.1225935 0.2710388,0.1845905 0.4448745,0.1845905 0.1738365,0 0.3201645,-0.062009 0.4434161,-0.1845905 0.1225423,-0.1225937 0.1852428,-0.2711349 0.1852428,-0.4443302 0,-0.1731954 -0.062703,-0.3217564 -0.1852431,-0.4450597 -0.037759,-0.037774 -0.07833,-0.069942 -0.1217944,-0.09631 z m 3.2125807,0 c 0.058446,0.09622 0.087494,0.2034586 0.087494,0.3224856 0,0.1739081 -0.061265,0.3224693 -0.1837865,0.4450597 -0.1232493,0.121878 -0.270294,0.1845905 -0.4434171,0.1845905 -0.119684,0 -0.2276144,-0.029107 -0.3230819,-0.087554 0.026369,0.042764 0.058506,0.083337 0.096274,0.1211151 0.1225424,0.1225933 0.271039,0.1845907 0.4448759,0.1845907 0.1738379,0 0.3208782,-0.06201 0.4434195,-0.1845907 0.1225395,-0.1225935 0.1845098,-0.2711346 0.1845098,-0.4443298 0,-0.1731952 -0.061974,-0.321756 -0.1845118,-0.4450596 -0.037744,-0.037776 -0.078337,-0.069942 -0.1217986,-0.096308 z m 1.6059248,0 c 0.05912,0.0955 0.08817,0.2027457 0.08817,0.3224856 0,0.1739081 -0.06134,0.3224693 -0.184514,0.4450597 -0.122573,0.121878 -0.269562,0.1845905 -0.442684,0.1845905 -0.119687,0 -0.227601,-0.029086 -0.322352,-0.086825 0.02563,0.042049 0.05781,0.082613 0.09554,0.1203882 0.122539,0.1225935 0.271035,0.1845905 0.44487,0.1845905 0.173126,0 0.320167,-0.062009 0.44342,-0.1845905 0.122588,-0.1225933 0.183784,-0.2711346 0.183784,-0.4443299 0,-0.1731953 -0.06133,-0.3217563 -0.183784,-0.4450595 -0.03847,-0.037774 -0.07909,-0.069942 -0.122577,-0.096314 z m 1.606656,0 c 0.0584,0.0955 0.08759,0.2027457 0.08759,0.3224856 0,0.1739081 -0.06133,0.3224693 -0.183787,0.4450597 -0.123241,0.121878 -0.271022,0.1845905 -0.444149,0.1845905 -0.119663,0 -0.226862,-0.029086 -0.321619,-0.086825 0.02637,0.042049 0.05777,0.082613 0.09554,0.1203882 0.123242,0.1225935 0.270329,0.1845905 0.444874,0.1845905 0.173129,0 0.32088,-0.062009 0.443418,-0.1845905 0.123242,-0.1225933 0.184513,-0.2711346 0.184513,-0.4443299 0,-0.1731953 -0.06134,-0.3217563 -0.184513,-0.4450595 -0.03774,-0.037774 -0.07833,-0.069942 -0.12178,-0.096314 z m 1.605924,0 c 0.0591,0.0955 0.08816,0.2027457 0.08816,0.3224856 0,0.1739081 -0.06134,0.3224693 -0.184518,0.4450597 -0.12259,0.121878 -0.270293,0.1845905 -0.443413,0.1845905 -0.119666,0 -0.226871,-0.029086 -0.321618,-0.086825 0.02567,0.042049 0.05773,0.082613 0.09554,0.1203882 0.122592,0.1225935 0.270309,0.1845905 0.444149,0.1845905 0.173122,0 0.32089,-0.062009 0.444141,-0.1845905 0.122587,-0.1225933 0.183787,-0.2711346 0.183787,-0.4443299 0,-0.1731953 -0.06133,-0.3217563 -0.183787,-0.4450595 -0.03847,-0.037774 -0.07909,-0.069942 -0.122576,-0.096314 z m -6.4237021,7.472e-4 c 0.058421,0.0955 0.087518,0.2027292 0.087518,0.3217561 0,0.1739085 -0.062703,0.3224689 -0.1852429,0.44506 -0.1225428,0.121878 -0.2695804,0.1845899 -0.4434164,0.1845899 -0.1189794,0 -0.2268845,-0.029106 -0.3223518,-0.087554 0.026368,0.042763 0.057776,0.083337 0.095537,0.1211157 0.1232503,0.1225928 0.2717688,0.1845905 0.4456044,0.1845905 0.173123,0 0.3201467,-0.06201 0.4426871,-0.1845905 0.1232492,-0.1225933 0.1852416,-0.2711346 0.1852416,-0.44433 0,-0.1731952 -0.061997,-0.3217558 -0.1852424,-0.4450592 -0.037764,-0.037776 -0.078298,-0.069925 -0.1203391,-0.095577 z m 3.2118481,1.6934142 c 0.05841,0.09622 0.08761,0.203476 0.08761,0.323216 0,0.173194 -0.06134,0.321738 -0.184512,0.444328 -0.122576,0.122592 -0.269562,0.184588 -0.442688,0.184588 -0.119685,0 -0.227614,-0.02908 -0.323082,-0.08682 0.02637,0.04276 0.05855,0.08334 0.09625,0.121118 0.122543,0.121878 0.271037,0.183861 0.444872,0.183861 0.173123,0 0.320162,-0.062 0.443417,-0.183861 0.122587,-0.123303 0.183787,-0.271863 0.183787,-0.445059 0,-0.173193 -0.06133,-0.321737 -0.183787,-0.444329 -0.03846,-0.03848 -0.07908,-0.07067 -0.121786,-0.09704 z m 1.60593,0 c 0.0584,0.09622 0.08759,0.203476 0.08759,0.323216 0,0.173194 -0.06133,0.321738 -0.183787,0.444328 -0.123241,0.122592 -0.271022,0.184588 -0.444149,0.184588 -0.119663,0 -0.226862,-0.02908 -0.321619,-0.08682 0.02567,0.04276 0.05777,0.08334 0.09554,0.121118 0.123242,0.121878 0.270329,0.183861 0.444874,0.183861 0.173129,0 0.32088,-0.062 0.443418,-0.183861 0.123242,-0.123303 0.184513,-0.271863 0.184513,-0.445059 0,-0.173193 -0.06134,-0.321737 -0.184513,-0.444329 -0.03774,-0.03848 -0.07833,-0.07067 -0.12178,-0.09704 z m 1.606652,0 c 0.05839,0.09622 0.08757,0.203476 0.08757,0.323216 0,0.173194 -0.06134,0.321738 -0.184511,0.444328 -0.122589,0.122592 -0.270299,0.184588 -0.443421,0.184588 -0.119666,0 -0.226883,-0.02908 -0.32235,-0.08682 0.02637,0.04276 0.05851,0.08334 0.09632,0.121118 0.122589,0.121878 0.270307,0.183861 0.444148,0.183861 0.173121,0 0.320891,-0.062 0.444141,-0.183861 0.122589,-0.123303 0.183788,-0.271863 0.183788,-0.445059 0,-0.173193 -0.06133,-0.321737 -0.183788,-0.444329 -0.03848,-0.03848 -0.07908,-0.07067 -0.121787,-0.09704 z m -9.6370096,7.47e-4 c 0.058418,0.0955 0.087518,0.202746 0.087518,0.322487 0,0.173193 -0.061982,0.321737 -0.184513,0.444329 -0.1232537,0.122591 -0.27031,0.184587 -0.4441456,0.184587 -0.1196844,0 -0.2268687,-0.02908 -0.3216229,-0.08682 0.025651,0.04276 0.05705,0.08334 0.094808,0.121117 0.1232498,0.121876 0.271768,0.183859 0.4456037,0.183859 0.1731238,0 0.3208762,-0.062 0.4434168,-0.183859 0.1232483,-0.123303 0.1852414,-0.271863 0.1852414,-0.445059 0,-0.173194 -0.061997,-0.321738 -0.1852424,-0.444329 -0.03776,-0.03777 -0.078309,-0.06994 -0.1210619,-0.09631 z m 1.6059259,0 c 0.058421,0.0955 0.088249,0.202746 0.088249,0.322487 0,0.173193 -0.061997,0.321737 -0.185243,0.444329 -0.1225422,0.122591 -0.2702926,0.184587 -0.4434164,0.184587 -0.1196842,0 -0.2276134,-0.02908 -0.3230811,-0.08682 0.026366,0.04276 0.058505,0.08334 0.096271,0.121117 0.1225424,0.121876 0.2710392,0.183859 0.4448745,0.183859 0.1738364,0 0.3201644,-0.062 0.4434162,-0.183859 0.1225437,-0.123303 0.1852442,-0.271862 0.1852442,-0.445059 0,-0.173193 -0.062705,-0.321737 -0.1852431,-0.444329 -0.037763,-0.03778 -0.078311,-0.06994 -0.1210617,-0.09631 z m 1.6066536,0 c 0.058421,0.09622 0.087518,0.203459 0.087518,0.322487 0,0.173193 -0.062703,0.321737 -0.1852429,0.444329 -0.1225429,0.122591 -0.2695805,0.184587 -0.4434165,0.184587 -0.1196838,0 -0.2276136,-0.0291 -0.3230805,-0.08756 0.026368,0.04348 0.058505,0.08406 0.096273,0.121848 0.1232513,0.121878 0.2717682,0.183861 0.4456043,0.183861 0.1731229,0 0.3201465,-0.062 0.4426869,-0.183861 0.1232475,-0.123295 0.1852419,-0.271857 0.1852419,-0.445053 0,-0.173193 -0.061996,-0.321737 -0.1852425,-0.444328 -0.037762,-0.03778 -0.077586,-0.06994 -0.1203417,-0.09631 z m 1.6059257,0 c 0.057726,0.0955 0.086764,0.202746 0.086764,0.322487 0,0.173193 -0.061235,0.321737 -0.1837848,0.444329 -0.1232443,0.122591 -0.2702866,0.184587 -0.4434096,0.184587 -0.1196841,0 -0.2276143,-0.0291 -0.3230816,-0.08756 0.026369,0.04348 0.058506,0.08406 0.096274,0.121848 0.1225423,0.121878 0.2710383,0.183861 0.4448751,0.183861 0.1738389,0 0.3208792,-0.062 0.4434191,-0.183861 0.1225395,-0.1233 0.1845118,-0.271862 0.1845118,-0.445058 0,-0.173193 -0.061974,-0.321737 -0.1845128,-0.444329 -0.037744,-0.03778 -0.078318,-0.06994 -0.1210678,-0.09631 z m 1.6059224,1.693412 c 0.05841,0.0962 0.08761,0.203476 0.08761,0.323214 0,0.173197 -0.06134,0.32174 -0.184512,0.444334 -0.122576,0.122593 -0.269562,0.184587 -0.442688,0.184587 -0.119685,0 -0.227614,-0.02908 -0.323082,-0.08684 0.02637,0.04277 0.05855,0.08338 0.09625,0.121114 0.122543,0.121879 0.271037,0.183862 0.444872,0.183862 0.173123,0 0.320162,-0.06192 0.443417,-0.183862 0.122587,-0.123297 0.183787,-0.271151 0.183787,-0.445059 0,-0.173194 -0.06133,-0.321737 -0.183787,-0.44433 -0.03846,-0.03849 -0.07908,-0.07064 -0.121786,-0.09702 z m 1.60593,0 c 0.0584,0.0962 0.08759,0.203476 0.08759,0.323214 0,0.173197 -0.06133,0.32174 -0.183787,0.444334 -0.123241,0.122593 -0.271022,0.184587 -0.444149,0.184587 -0.119663,0 -0.226862,-0.02908 -0.321619,-0.08684 0.02567,0.04277 0.05777,0.08338 0.09554,0.121114 0.123242,0.121879 0.270329,0.183862 0.444874,0.183862 0.173129,0 0.32088,-0.06192 0.443418,-0.183862 0.123242,-0.123297 0.184513,-0.271151 0.184513,-0.445059 0,-0.173194 -0.06134,-0.321737 -0.184513,-0.44433 -0.03774,-0.03849 -0.07833,-0.07064 -0.12178,-0.09702 z m -6.4244317,7.47e-4 c 0.058421,0.09549 0.088249,0.202744 0.088249,0.322487 0,0.173194 -0.061997,0.321739 -0.185243,0.444328 -0.1225424,0.122594 -0.2702924,0.18459 -0.4434162,0.18459 -0.1196841,0 -0.2276134,-0.02905 -0.3230808,-0.08683 0.026366,0.04277 0.058505,0.08338 0.096271,0.12111 0.1225423,0.121877 0.2710393,0.183862 0.4448745,0.183862 0.1738363,0 0.3201646,-0.06193 0.4434162,-0.183862 0.1225427,-0.1233 0.1852431,-0.27115 0.1852431,-0.44506 0,-0.173194 -0.062703,-0.321741 -0.1852431,-0.44433 -0.037758,-0.03779 -0.078311,-0.0699 -0.1210651,-0.09628 z m 1.6066536,0 c 0.058421,0.0962 0.087518,0.203459 0.087518,0.322487 0,0.173194 -0.062703,0.321739 -0.1852429,0.444328 -0.1225426,0.122594 -0.2695802,0.18459 -0.4434162,0.18459 -0.1196838,0 -0.2276136,-0.02909 -0.3230805,-0.08759 0.026368,0.04348 0.058505,0.08409 0.096273,0.121848 0.1232513,0.121878 0.2717682,0.183864 0.4456043,0.183864 0.1731229,0 0.3201465,-0.06194 0.4426869,-0.183864 0.1232487,-0.123298 0.1852426,-0.271151 0.1852426,-0.44506 0,-0.173193 -0.061996,-0.321737 -0.1852426,-0.444329 -0.03776,-0.03776 -0.077588,-0.06991 -0.1203408,-0.09628 z m 1.6059257,0 c 0.057726,0.09549 0.086764,0.202744 0.086764,0.322487 0,0.173194 -0.061235,0.321739 -0.1837848,0.444328 -0.1232523,0.122594 -0.2702946,0.18459 -0.4434177,0.18459 -0.1196841,0 -0.2276143,-0.02909 -0.3230814,-0.08759 0.026369,0.04348 0.058506,0.08409 0.096274,0.121848 0.1225427,0.121878 0.2710384,0.183864 0.444875,0.183864 0.1738389,0 0.3208792,-0.06194 0.4434191,-0.183864 0.1225415,-0.123298 0.1845118,-0.271151 0.1845118,-0.44506 0,-0.173193 -0.061974,-0.321737 -0.1845118,-0.444329 -0.037744,-0.03776 -0.078318,-0.06991 -0.1210688,-0.09628 z m 1.6059224,1.693414 c 0.05841,0.09624 0.08761,0.203478 0.08761,0.323215 0,0.173197 -0.06134,0.321742 -0.184512,0.444333 -0.122576,0.122639 -0.269562,0.184587 -0.442688,0.184587 -0.119685,0 -0.227614,-0.02912 -0.323082,-0.08685 0.02637,0.04278 0.05855,0.08341 0.09625,0.121157 0.122543,0.121871 0.271037,0.184589 0.444872,0.184589 0.173123,0 0.320162,-0.06271 0.443417,-0.184589 0.122587,-0.122641 0.183787,-0.271155 0.183787,-0.44506 0,-0.173197 -0.06133,-0.321744 -0.183787,-0.444332 -0.03846,-0.03846 -0.07908,-0.0706 -0.121786,-0.09698 z m -3.2118481,7.49e-4 c 0.058421,0.09623 0.087518,0.203456 0.087518,0.322482 0,0.173198 -0.062703,0.321741 -0.1852429,0.444334 -0.1225426,0.122637 -0.2695802,0.184586 -0.4434162,0.184586 -0.1196838,0 -0.2276136,-0.02913 -0.3230805,-0.08765 0.026368,0.04355 0.058505,0.08399 0.096273,0.121846 0.1232513,0.121873 0.2717682,0.184595 0.4456043,0.184595 0.1731229,0 0.3201465,-0.06269 0.4426869,-0.184595 0.1232487,-0.122636 0.1852426,-0.271151 0.1852426,-0.445056 0,-0.173197 -0.061996,-0.321737 -0.1852426,-0.444332 -0.03776,-0.03774 -0.077586,-0.07 -0.1203378,-0.09633 z m 1.6059257,0 c 0.057726,0.09547 0.086764,0.202747 0.086764,0.322482 0,0.173198 -0.061235,0.321741 -0.1837848,0.444334 -0.1232523,0.122637 -0.2702946,0.184586 -0.4434177,0.184586 -0.1196841,0 -0.2276143,-0.02913 -0.3230814,-0.08765 0.026369,0.04355 0.058506,0.08399 0.096274,0.121846 0.1225427,0.121873 0.2710384,0.184595 0.444875,0.184595 0.1738389,0 0.3208792,-0.06269 0.4434191,-0.184595 0.1225415,-0.122636 0.1845118,-0.271151 0.1845118,-0.445056 0,-0.173197 -0.061974,-0.321737 -0.1845118,-0.444332 -0.037744,-0.03774 -0.078318,-0.07 -0.1210638,-0.09636 z"
       fill-opacity="0.2"
       id="path16-1"
       style="stroke-width:0.277813" />
    <path
       d="m 7.2808211,4.869144 c -0.1738354,0 -0.3223344,0.06056 -0.4448743,0.1838607 -0.1225411,0.1225921 -0.1837845,0.2711344 -0.1837848,0.44433 0,0.1731949 0.061246,0.3217389 0.1837848,0.4443296 0.038466,0.038486 0.079066,0.070669 0.1225226,0.097038 0.09546,0.058446 0.2033742,0.087554 0.3223517,0.087554 0.1738361,0 0.3208763,-0.06201 0.4434162,-0.1845907 0.1225411,-0.1225913 0.1852432,-0.2711336 0.1852432,-0.444329 0,-0.1197335 -0.029112,-0.2269789 -0.088249,-0.3224858 C 7.7948685,5.1313723 7.7627058,5.0907802 7.724234,5.0530057 7.6016948,4.9297002 7.4546555,4.8691431 7.2808194,4.8691431 Z m 1.6066546,0 c -0.1738359,0 -0.3223351,0.06056 -0.4448752,0.1838607 -0.1232533,0.1225935 -0.1837841,0.2711344 -0.1837841,0.44433 0,0.1731949 0.060534,0.3217389 0.1837841,0.4443296 0.037764,0.038486 0.07833,0.070669 0.1217971,0.097038 0.09546,0.058446 0.2033915,0.087554 0.3230821,0.087554 0.1731227,0 0.3201634,-0.06201 0.4434177,-0.1845907 0.1225416,-0.1225933 0.1837818,-0.2711338 0.1837818,-0.4443293 0,-0.1197335 -0.029088,-0.226979 -0.087494,-0.3224859 C 9.4008165,5.1313694 9.3686599,5.0907774 9.3309255,5.0530025 9.2076401,4.9296993 9.0605985,4.8691419 8.8874757,4.8691419 Z m 1.6066553,0 c -0.174551,0 -0.322354,0.06056 -0.445604,0.1838607 -0.1225415,0.1225935 -0.1837861,0.2711344 -0.1837861,0.44433 0,0.1731949 0.061284,0.3217389 0.1837861,0.4443296 0.03849,0.038486 0.07982,0.07139 0.12325,0.097765 0.09475,0.057732 0.202664,0.086825 0.322354,0.086825 0.173125,0 0.320147,-0.062009 0.442688,-0.1845908 0.123254,-0.1225931 0.184512,-0.2711342 0.18451,-0.4443298 0,-0.1197337 -0.02913,-0.2269958 -0.08817,-0.323215 -0.02637,-0.042762 -0.05852,-0.083337 -0.09631,-0.1211124 C 10.814277,4.9296998 10.667254,4.8691434 10.494134,4.8691436 Z M 4.0682423,6.5632883 c -0.1738361,0 -0.3216056,0.060559 -0.4441457,0.1838607 C 3.5008458,6.8697425 3.439583,7.0182839 3.439583,7.1914791 c 0,0.1739083 0.061262,0.3217563 0.1845136,0.4450598 0.037758,0.037775 0.079068,0.07067 0.1225263,0.097038 0.094753,0.05773 0.2019327,0.086825 0.3216229,0.086825 0.1738355,0 0.3208925,-0.061985 0.4441457,-0.1838604 0.1225423,-0.1233011 0.1845129,-0.271152 0.1845129,-0.4450599 0,-0.1197337 -0.029095,-0.2269787 -0.087518,-0.3224858 -0.026361,-0.04348 -0.059238,-0.084074 -0.096995,-0.121846 C 4.3891347,6.6238462 4.242078,6.5632895 4.0682423,6.5632883 Z m 1.6066538,0 c -0.1738356,0 -0.3223513,0.06056 -0.4456035,0.1838607 -0.1225428,0.1225935 -0.1830552,0.2711349 -0.1830552,0.4443301 0,0.1739083 0.060515,0.3217563 0.1830552,0.4450598 0.03847,0.037775 0.079066,0.07067 0.1225235,0.097038 0.09546,0.05773 0.2033908,0.086825 0.323081,0.086825 0.1731236,0 0.3208766,-0.061985 0.4434163,-0.1838604 0.1232524,-0.1233016 0.1852435,-0.2711525 0.1852435,-0.4450603 0,-0.119734 -0.029823,-0.2269791 -0.088248,-0.3224861 C 6.1889495,6.8255161 6.1567868,6.7849241 6.1183138,6.7471471 5.9957722,6.6238449 5.8480192,6.5632885 5.6748961,6.5632883 Z m 6.4244279,0 c -0.173834,0 -0.321606,0.060559 -0.444141,0.1838607 -0.123244,0.1225935 -0.183788,0.2711349 -0.183789,0.4443301 0,0.1739083 0.06057,0.3217563 0.183789,0.4450598 0.03778,0.037775 0.07909,0.07067 0.12257,0.097038 0.09477,0.05773 0.201936,0.086825 0.321618,0.086825 0.173128,0 0.320897,-0.061985 0.444153,-0.1838604 0.122589,-0.1233006 0.183786,-0.2711515 0.183786,-0.4450594 0,-0.1197337 -0.02913,-0.2269787 -0.0876,-0.3224858 C 12.61335,6.8255193 12.58119,6.7849343 12.5434,6.7471504 12.420215,6.6238501 12.272435,6.5632894 12.099312,6.5632882 Z m 1.606657,0 c -0.17455,0 -0.321621,0.060559 -0.444879,0.1838607 -0.122588,0.1225935 -0.183051,0.2711349 -0.183051,0.4443301 0,0.1739083 0.06055,0.3217563 0.183051,0.4450598 0.03849,0.037775 0.07909,0.07067 0.122577,0.097038 0.09548,0.05773 0.202663,0.086825 0.322348,0.086825 0.173123,0 0.320877,-0.061985 0.443419,-0.1838604 0.123241,-0.1233006 0.184514,-0.2711515 0.184514,-0.4450594 0,-0.1197337 -0.0291,-0.2269787 -0.08762,-0.3224858 C 14.21997,6.8255163 14.18716,6.7849323 14.1494,6.7471474 14.026837,6.6238434 13.879122,6.5632879 13.705999,6.5632879 Z M 4.0682423,8.2574329 c -0.1738361,0 -0.3216056,0.061267 -0.4441457,0.1838609 C 3.5008458,8.5638871 3.439583,8.7124285 3.439583,8.8856235 c 0,0.1739084 0.061262,0.3224687 0.1845136,0.4450594 0.038468,0.038487 0.079068,0.071398 0.1225263,0.097764 0.094753,0.057732 0.2019327,0.086825 0.3216229,0.086825 0.1738355,0 0.3208925,-0.062717 0.4441457,-0.1845903 0.1225423,-0.1225937 0.1845129,-0.2711513 0.1845129,-0.4450601 0,-0.1190266 -0.029094,-0.226266 -0.087518,-0.3224853 C 4.5830253,8.5196584 4.5501507,8.4790654 4.5123893,8.4412891 4.3891367,8.3187021 4.2420793,8.257432 4.0682438,8.2574322 Z m 1.6066538,0 c -0.1738356,0 -0.3223513,0.061267 -0.4456035,0.1838609 -0.1225428,0.1225933 -0.1830552,0.2711347 -0.1830552,0.4443297 0,0.1739084 0.060515,0.3224687 0.1830552,0.4450594 0.03847,0.038487 0.079792,0.071398 0.1232532,0.097764 0.094753,0.057732 0.2026613,0.086825 0.3223514,0.086825 0.1731236,0 0.3208763,-0.062717 0.4434162,-0.1845903 0.1232511,-0.1225948 0.1852427,-0.2711523 0.1852427,-0.445061 0,-0.1190267 -0.029845,-0.226266 -0.088978,-0.3224853 C 6.1882206,8.5196595 6.1560724,8.4790677 6.118312,8.4412918 5.9957733,8.3187024 5.8480206,8.2574327 5.6748961,8.2574329 Z m 1.605925,0 c -0.1738354,0 -0.3223344,0.061267 -0.4448743,0.1838609 C 6.7134045,8.5638871 6.652162,8.7124285 6.652162,8.8856235 c 0,0.1739084 0.061246,0.3224687 0.1837848,0.4450594 0.038466,0.038487 0.079066,0.070668 0.1225226,0.097039 0.09546,0.058442 0.2033742,0.087554 0.3223517,0.087554 0.1738361,0 0.3208763,-0.062717 0.4434162,-0.1845903 0.1225421,-0.1225937 0.185243,-0.2711511 0.185243,-0.4450595 0,-0.1190292 -0.029094,-0.2262495 -0.087518,-0.3217565 C 7.7956019,8.5203897 7.762709,8.479779 7.7242366,8.4412927 7.6016974,8.3187008 7.4546572,8.2574319 7.2808211,8.2574329 Z m 3.2133099,0 c -0.174551,0 -0.322354,0.061267 -0.445604,0.1838609 -0.1225415,0.1225933 -0.1837861,0.2711347 -0.1837861,0.4443297 0,0.1739084 0.061284,0.3224687 0.1837861,0.4450594 0.03849,0.038487 0.07982,0.071398 0.12325,0.097764 0.09475,0.057732 0.202664,0.086825 0.322354,0.086825 0.173125,0 0.320148,-0.062717 0.442688,-0.1845903 0.123254,-0.1225933 0.184512,-0.2711509 0.184511,-0.4450597 0,-0.1197339 -0.02915,-0.2269782 -0.08817,-0.3224853 C 11.00679,8.5196576 10.97464,8.4790746 10.93683,8.4412888 10.814288,8.318702 10.667262,8.2574325 10.494138,8.2574325 Z m 1.605193,0 c -0.173834,0 -0.321606,0.061267 -0.444141,0.1838609 -0.123244,0.1225933 -0.183788,0.2711347 -0.183789,0.4443297 0,0.1739084 0.06057,0.3224687 0.183789,0.4450594 0.03849,0.038487 0.07909,0.071398 0.12257,0.097764 0.09477,0.057732 0.201936,0.086825 0.321618,0.086825 0.173128,0 0.320897,-0.062717 0.444153,-0.1845903 0.122589,-0.1225933 0.183786,-0.2711509 0.183786,-0.4450597 0,-0.1197339 -0.02913,-0.2269782 -0.0876,-0.3224853 C 12.61335,8.5196576 12.5812,8.4790736 12.54339,8.4412877 12.420203,8.3186941 12.27242,8.2574261 12.099299,8.2574263 Z m 1.606657,0 c -0.17455,0 -0.321621,0.061267 -0.444879,0.1838609 -0.122588,0.1225933 -0.183051,0.2711347 -0.183051,0.4443297 0,0.1739084 0.06055,0.3224687 0.183051,0.4450594 0.03849,0.038487 0.07981,0.071398 0.123243,0.097764 0.09477,0.057732 0.201927,0.086825 0.321621,0.086825 0.173119,0 0.320869,-0.062717 0.443416,-0.1845903 0.12324,-0.1225933 0.184513,-0.2711509 0.184513,-0.4450597 0,-0.1197339 -0.02916,-0.2269782 -0.08816,-0.3224853 -0.02637,-0.043479 -0.05851,-0.084062 -0.09635,-0.1218478 C 14.026813,8.3186964 13.879086,8.2574277 13.70597,8.2574277 Z M 4.0682423,9.9515773 c -0.1738361,0 -0.3216056,0.06198 -0.4441457,0.1838607 -0.1232508,0.1233 -0.1845136,0.271151 -0.1845136,0.44506 0,0.173193 0.061262,0.321737 0.1845136,0.444328 0.037758,0.03848 0.079068,0.0714 0.1225263,0.09776 0.094753,0.05773 0.2019327,0.08682 0.3216229,0.08682 0.1738355,0 0.3208925,-0.06201 0.4441457,-0.184577 0.1225423,-0.122607 0.1845129,-0.271148 0.1845129,-0.444342 0,-0.119735 -0.029097,-0.22698 -0.087518,-0.322487 -0.026361,-0.04347 -0.05924,-0.08407 -0.096998,-0.122562 C 4.3891352,10.013561 4.2420785,9.9515773 4.0682423,9.9515773 Z m 1.6066538,0 c -0.1738356,0 -0.3223513,0.06198 -0.4456035,0.1838607 -0.1225428,0.1233 -0.1830552,0.271151 -0.1830552,0.44506 0,0.173193 0.060515,0.321737 0.1830552,0.444328 0.03847,0.03848 0.079066,0.0714 0.1225235,0.09776 0.09546,0.05773 0.2033908,0.08682 0.323081,0.08682 0.1731236,0 0.3208766,-0.06201 0.4434163,-0.184577 0.1232511,-0.122596 0.1852427,-0.271137 0.1852427,-0.444331 0,-0.119734 -0.029825,-0.22698 -0.088247,-0.322487 -0.026359,-0.04349 -0.058525,-0.08409 -0.096996,-0.122583 C 5.9957717,10.013561 5.8480191,9.9515773 5.6748961,9.9515773 Z m 1.605925,0 c -0.1738354,0 -0.3223344,0.06198 -0.4448743,0.1838607 -0.1225423,0.1233 -0.1837848,0.271151 -0.1837848,0.44506 0,0.173193 0.061246,0.321737 0.1837848,0.444328 0.037758,0.03777 0.078328,0.07067 0.1217968,0.09704 0.09546,0.05845 0.2033903,0.08755 0.323081,0.08755 0.1738363,0 0.3208763,-0.06202 0.4434158,-0.184577 0.1225421,-0.122601 0.1852433,-0.271142 0.1852433,-0.444336 0,-0.119032 -0.029095,-0.226267 -0.087518,-0.322487 -0.026365,-0.04348 -0.059255,-0.08409 -0.097728,-0.122577 C 7.601698,10.01356 7.4546576,9.9515773 7.2808211,9.9515773 Z m 3.2133099,0 c -0.174551,0 -0.322354,0.06198 -0.445604,0.1838607 -0.1225415,0.1233 -0.1837861,0.271151 -0.1837861,0.44506 0,0.173193 0.061284,0.321737 0.1837861,0.444328 0.03849,0.03848 0.07908,0.0714 0.122522,0.09776 0.09546,0.05773 0.203393,0.08682 0.323084,0.08682 0.173123,0 0.320145,-0.06201 0.442686,-0.184577 0.123242,-0.122594 0.184508,-0.271135 0.184508,-0.444328 0,-0.119735 -0.0291,-0.226997 -0.08761,-0.323218 -0.02637,-0.04277 -0.0592,-0.08336 -0.09694,-0.121856 -0.122509,-0.121873 -0.269529,-0.1838567 -0.442653,-0.1838547 z m 1.605193,0 c -0.173834,0 -0.321606,0.06198 -0.444141,0.1838607 -0.123244,0.1233 -0.183788,0.271151 -0.183789,0.44506 0,0.173193 0.06057,0.321737 0.183789,0.444328 0.03778,0.03848 0.07909,0.0714 0.12257,0.09776 0.09477,0.05773 0.201936,0.08682 0.321618,0.08682 0.173128,0 0.320897,-0.06201 0.444153,-0.184577 0.122589,-0.122594 0.183786,-0.271135 0.183786,-0.444328 0,-0.119735 -0.02913,-0.226997 -0.0876,-0.323218 -0.02636,-0.04277 -0.05852,-0.08336 -0.09634,-0.121852 -0.123181,-0.121875 -0.27096,-0.1838587 -0.444081,-0.1838577 z m 1.606657,0 c -0.17455,0 -0.321621,0.06198 -0.444879,0.1838607 -0.122588,0.1233 -0.183051,0.271151 -0.183051,0.44506 0,0.173193 0.06055,0.321737 0.183051,0.444328 0.03849,0.03848 0.07909,0.0714 0.122577,0.09776 0.09548,0.05773 0.202663,0.08682 0.322348,0.08682 0.173123,0 0.320877,-0.06201 0.443419,-0.184577 0.123241,-0.122594 0.184514,-0.271135 0.184514,-0.444328 0,-0.119735 -0.0291,-0.226997 -0.08762,-0.323218 C 14.21998,10.214513 14.18716,10.173923 14.1494,10.13543 14.026839,10.013553 13.879126,9.9515693 13.706003,9.9515693 Z M 5.6748961,11.646448 c -0.1738356,0 -0.3223513,0.06127 -0.4456035,0.18313 -0.1225428,0.123304 -0.1830552,0.271152 -0.1830552,0.445059 0,0.173194 0.060515,0.321741 0.1830552,0.44433 0.03847,0.03849 0.079066,0.07138 0.1225235,0.09776 0.09546,0.05776 0.2033908,0.08684 0.323081,0.08684 0.1731236,0 0.3208766,-0.06195 0.4434163,-0.18459 0.1232511,-0.122593 0.1852427,-0.271137 0.1852427,-0.444331 0,-0.119732 -0.029824,-0.226977 -0.088248,-0.322484 -0.026359,-0.04347 -0.05852,-0.08413 -0.096994,-0.12259 C 5.9957707,11.7077 5.8480193,11.646447 5.6748963,11.646447 Z m 1.605925,0 c -0.1738354,0 -0.3223344,0.06127 -0.4448743,0.18313 -0.1225423,0.123304 -0.1837848,0.271152 -0.1837848,0.445059 0,0.173194 0.061246,0.321741 0.1837848,0.44433 0.037758,0.03776 0.078328,0.07063 0.1217968,0.097 0.09546,0.05844 0.2033903,0.08756 0.323081,0.08756 0.1738363,0 0.3208763,-0.062 0.4434158,-0.18459 0.1225419,-0.122592 0.1852431,-0.271138 0.1852431,-0.444331 0,-0.119026 -0.029098,-0.226264 -0.087518,-0.322485 -0.026365,-0.04345 -0.059254,-0.08412 -0.097728,-0.122574 C 7.6016974,11.707695 7.4546571,11.646442 7.2808207,11.646442 Z m 3.2133099,0 c -0.174551,0 -0.322354,0.06127 -0.445604,0.18313 -0.1225415,0.123304 -0.1837861,0.271152 -0.1837861,0.445059 0,0.173194 0.061284,0.321741 0.1837861,0.44433 0.03849,0.03849 0.07908,0.07138 0.122522,0.09776 0.09546,0.05776 0.203393,0.08684 0.323084,0.08684 0.173123,0 0.320145,-0.06195 0.442685,-0.18459 0.123242,-0.122593 0.184507,-0.271137 0.184507,-0.444331 0,-0.119732 -0.0291,-0.226993 -0.08759,-0.323214 -0.02637,-0.04276 -0.05919,-0.08338 -0.09694,-0.121848 -0.122519,-0.121889 -0.269527,-0.183141 -0.44265,-0.183141 z m 1.605193,0 c -0.173834,0 -0.321606,0.06127 -0.444141,0.18313 -0.123244,0.123304 -0.183788,0.271152 -0.183789,0.445059 0,0.173194 0.06057,0.321741 0.183789,0.44433 0.03778,0.03849 0.07909,0.07138 0.12257,0.09776 0.09477,0.05776 0.201936,0.08684 0.321618,0.08684 0.173128,0 0.320897,-0.06195 0.444153,-0.18459 0.122589,-0.122592 0.183786,-0.271136 0.183786,-0.44433 0,-0.119732 -0.02913,-0.226993 -0.0876,-0.323214 -0.02637,-0.04276 -0.05853,-0.08338 -0.09631,-0.121854 -0.123217,-0.121889 -0.270985,-0.183141 -0.444107,-0.183141 z m -1.605193,1.694144 c -0.174551,0 -0.322354,0.06132 -0.445604,0.18313 -0.1225415,0.123296 -0.1837861,0.271867 -0.1837861,0.445064 0,0.173191 0.061284,0.321738 0.1837861,0.444326 0.03849,0.03852 0.07908,0.07137 0.122522,0.09774 0.09546,0.05764 0.203393,0.08684 0.323084,0.08684 0.173123,0 0.320145,-0.06191 0.442685,-0.184592 0.123242,-0.122637 0.184507,-0.271135 0.184507,-0.444327 0,-0.119738 -0.0291,-0.226999 -0.08759,-0.323219 -0.02637,-0.04275 -0.05922,-0.08341 -0.09694,-0.121823 -0.122525,-0.121872 -0.269547,-0.183136 -0.442671,-0.183136 z"
       fill="#64a2f1"
       id="path18-2"
       style="stroke-width:0.277813" />
  </g>
</svg>
