<?xml version="1.0" encoding="UTF-8" standalone="no"?>
<svg
   xmlns:dc="http://purl.org/dc/elements/1.1/"
   xmlns:cc="http://creativecommons.org/ns#"
   xmlns:rdf="http://www.w3.org/1999/02/22-rdf-syntax-ns#"
   xmlns:svg="http://www.w3.org/2000/svg"
   xmlns="http://www.w3.org/2000/svg"
   xmlns:xlink="http://www.w3.org/1999/xlink"
   xmlns:sodipodi="http://sodipodi.sourceforge.net/DTD/sodipodi-0.dtd"
   xmlns:inkscape="http://www.inkscape.org/namespaces/inkscape"
   width="64"
   height="64"
   viewBox="0 0 16.933333 16.933333"
   version="1.1"
   id="svg1114"
   inkscape:version="1.0.1 (3bc2e813f5, 2020-09-07)"
   sodipodi:docname="update-manager.svg">
  <style
     id="style912"></style>
  <defs
     id="defs1108">
    <linearGradient
       id="linearGradient1167"
       x1="40.751999"
       x2="40.751999"
       y1="28.507999"
       y2="17.205999"
       gradientUnits="userSpaceOnUse">
      <stop
         style="stop-color:#84fb6e;stop-opacity:1"
         stop-color="#0ab816"
         offset="0"
         id="stop1163" />
      <stop
         style="stop-color:#0dd41a;stop-opacity:1"
         stop-color="#0cf36c"
         offset="1"
         id="stop1165" />
    </linearGradient>
    <linearGradient
       inkscape:collect="always"
       id="7">
      <stop
         style="stop-color:#00d4aa;stop-opacity:1"
         offset="0"
         id="stop4635" />
      <stop
         style="stop-color:#5599ff;stop-opacity:1"
         offset="1"
         id="stop4637" />
    </linearGradient>
    <linearGradient
       id="cornerBevel"
       inkscape:collect="always">
      <stop
         style="stop-color:#000000;stop-opacity:0;"
         offset="0"
         id="stop2663" />
      <stop
         id="stop2671"
         offset="0.66666675"
         style="stop-color:#000000;stop-opacity:0" />
      <stop
         style="stop-color:#000000;stop-opacity:1;"
         offset="1"
         id="stop2661" />
    </linearGradient>
    <linearGradient
       id="bevel"
       inkscape:collect="always">
      <stop
         id="stop2685"
         offset="0"
         style="stop-color:#000000;stop-opacity:1;" />
      <stop
         id="stop2687"
         offset="1"
         style="stop-color:#000000;stop-opacity:0;" />
    </linearGradient>
    <linearGradient
       id="highlightCorner"
       inkscape:collect="always">
      <stop
         style="stop-color:#ffffff;stop-opacity:0;"
         offset="0"
         id="stop2613" />
      <stop
         id="stop2621"
         offset="0.66666669"
         style="stop-color:#ffffff;stop-opacity:0" />
      <stop
         style="stop-color:#ffffff;stop-opacity:1;"
         offset="1"
         id="stop2611" />
    </linearGradient>
    <linearGradient
       inkscape:collect="always"
       id="highlight">
      <stop
         style="stop-color:#ffffff;stop-opacity:1;"
         offset="0"
         id="stop2921" />
      <stop
         style="stop-color:#ffffff;stop-opacity:0;"
         offset="1"
         id="stop2923" />
    </linearGradient>
    <linearGradient
       gradientUnits="userSpaceOnUse"
       y2="-5.6125016"
       x2="39.964642"
       y1="-5.6949229"
       x1="24.237219"
       id="linearGradient1064"
       xlink:href="#7"
       inkscape:collect="always"
       gradientTransform="matrix(0.99999878,0,0,0.99999878,-24.072677,-2.9638888)" />
    <radialGradient
       inkscape:collect="always"
       xlink:href="#highlightCorner"
       id="radialGradient15"
       gradientUnits="userSpaceOnUse"
       gradientTransform="matrix(0,-12.184609,18.276905,0,14.973614,-49.949406)"
       cx="-4.4979167"
       cy="-0.52916664"
       fx="-4.4979167"
       fy="-0.52916664"
       r="0.39687499" />
    <linearGradient
       inkscape:collect="always"
       xlink:href="#highlight"
       id="linearGradient15"
       gradientUnits="userSpaceOnUse"
       x1="-3.96875"
       y1="-1.3229166"
       x2="-3.96875"
       y2="-1.0583333"
       gradientTransform="matrix(6.0923077,0,0,6.0923077,32.704778,8.0798041)" />
    <radialGradient
       inkscape:collect="always"
       xlink:href="#highlightCorner"
       id="radialGradient17"
       gradientUnits="userSpaceOnUse"
       gradientTransform="matrix(0,-12.184609,-18.276905,0,2.0782531,-49.949406)"
       cx="-4.4979167"
       cy="-0.52916664"
       fx="-4.4979167"
       fy="-0.52916664"
       r="0.39687499" />
    <radialGradient
       inkscape:collect="always"
       xlink:href="#cornerBevel"
       id="radialGradient18"
       gradientUnits="userSpaceOnUse"
       gradientTransform="matrix(-4.1721285e-6,12.184609,18.276905,4.4241727e-6,14.973595,66.109013)"
       cx="-4.4979167"
       cy="-0.52916664"
       fx="-4.4979167"
       fy="-0.52916664"
       r="0.39687499" />
    <linearGradient
       inkscape:collect="always"
       xlink:href="#bevel"
       id="linearGradient18"
       gradientUnits="userSpaceOnUse"
       x1="-3.96875"
       y1="-1.3229166"
       x2="-3.96875"
       y2="-1.0583333"
       gradientTransform="matrix(6.0923076,0,0,6.0923076,32.704777,-8.0798047)" />
    <radialGradient
       inkscape:collect="always"
       xlink:href="#cornerBevel"
       id="radialGradient20"
       gradientUnits="userSpaceOnUse"
       gradientTransform="matrix(4.1721285e-6,12.184609,-18.276905,4.4241727e-6,2.0782722,66.109013)"
       cx="-4.4979167"
       cy="-0.52916664"
       fx="-4.4979167"
       fy="-0.52916664"
       r="0.39687499" />
    <radialGradient
       inkscape:collect="always"
       xlink:href="#cornerBevel"
       id="radialGradient25"
       gradientUnits="userSpaceOnUse"
       gradientTransform="matrix(12.184614,0,0,12.184614,60.10747,11.303651)"
       cx="-4.4979167"
       cy="-0.52916664"
       fx="-4.4979167"
       fy="-0.52916664"
       r="0.39687496" />
    <linearGradient
       inkscape:collect="always"
       xlink:href="#bevel"
       id="linearGradient25"
       gradientUnits="userSpaceOnUse"
       x1="-3.96875"
       y1="-1.3229166"
       x2="-3.96875"
       y2="-1.0583333"
       gradientTransform="matrix(6.0923077,0,0,6.0923077,32.704778,8.0798047)" />
    <radialGradient
       inkscape:collect="always"
       xlink:href="#cornerBevel"
       id="radialGradient29"
       gradientUnits="userSpaceOnUse"
       gradientTransform="matrix(0,-12.184614,12.184614,0,11.74978,-43.50173)"
       cx="-4.4979167"
       cy="-0.52916664"
       fx="-4.4979167"
       fy="-0.52916664"
       r="0.39687496" />
    <radialGradient
       inkscape:collect="always"
       xlink:href="#cornerBevel"
       id="radialGradient30"
       gradientUnits="userSpaceOnUse"
       gradientTransform="matrix(-12.184614,0,0,-12.184614,-43.055608,4.8559588)"
       cx="-4.4979167"
       cy="-0.52916664"
       fx="-4.4979167"
       fy="-0.52916664"
       r="0.39687496" />
    <radialGradient
       inkscape:collect="always"
       xlink:href="#cornerBevel"
       id="radialGradient31"
       gradientUnits="userSpaceOnUse"
       gradientTransform="matrix(0,12.184614,-12.184614,0,5.3020867,59.661339)"
       cx="-4.4979167"
       cy="-0.52916664"
       fx="-4.4979167"
       fy="-0.52916664"
       r="0.39687496" />
    <linearGradient
       inkscape:collect="always"
       xlink:href="#bevel"
       id="linearGradient34"
       gradientUnits="userSpaceOnUse"
       x1="-3.96875"
       y1="-1.3229166"
       x2="-3.96875"
       y2="-1.0583333"
       gradientTransform="matrix(6.0923077,0,0,6.0923077,16.099039,8.525933)" />
    <linearGradient
       inkscape:collect="always"
       xlink:href="#bevel"
       id="linearGradient35"
       gradientUnits="userSpaceOnUse"
       x1="-3.96875"
       y1="-1.3229166"
       x2="-3.96875"
       y2="-1.0583333"
       gradientTransform="matrix(6.0923077,0,0,6.0923077,15.652911,-8.0798047)" />
    <linearGradient
       inkscape:collect="always"
       xlink:href="#bevel"
       id="linearGradient36"
       gradientUnits="userSpaceOnUse"
       x1="-3.96875"
       y1="-1.3229166"
       x2="-3.96875"
       y2="-1.0583333"
       gradientTransform="matrix(6.0923077,0,0,6.0923077,32.258648,-8.525933)" />
    <linearGradient
       id="linearGradient4213">
      <stop
         style="stop-color:#ee6406"
         id="stop2" />
      <stop
         offset="1"
         style="stop-color:#ffce0d"
         id="stop4" />
    </linearGradient>
    <linearGradient
       xlink:href="#linearGradient4213"
       id="linearGradient4234-9-7"
       x1="428.57101"
       x2="388.57101"
       gradientUnits="userSpaceOnUse"
       gradientTransform="matrix(0.20269488,0,0,0.34081434,-75.249641,-168.77312)" />
    <linearGradient
       id="a"
       x1="7.9369998"
       x2="7.9369998"
       y1="15.081"
       y2="1.852"
       gradientTransform="matrix(0.8927836,0,0,0.8927835,0.90778548,0.91466476)"
       gradientUnits="userSpaceOnUse">
      <stop
         offset="0"
         stop-color="#f1efeb"
         id="stop1" />
      <stop
         offset="1"
         stop-color="#fff"
         id="stop2-3" />
    </linearGradient>
    <filter
       id="b"
       width="1.2160519"
       height="1.2160571"
       x="-0.10802595"
       y="-0.10802855"
       color-interpolation-filters="sRGB">
      <feGaussianBlur
         stdDeviation="1.881"
         id="feGaussianBlur8" />
    </filter>
    <linearGradient
       id="c"
       x1="21.181999"
       x2="49.712002"
       y1="40.243"
       y2="40.243"
       gradientTransform="matrix(1.0202,0,0,1.0202,-1.0554,1.4696016)"
       gradientUnits="userSpaceOnUse">
      <stop
         offset="0"
         stop-color="#0b4e90"
         id="stop5" />
      <stop
         offset="1"
         stop-color="#0d559d"
         id="stop6-3" />
    </linearGradient>
    <linearGradient
       id="d"
       x1="11.804"
       x2="30.743"
       y1="36.254002"
       y2="36.254002"
       gradientTransform="matrix(1.0202,0,0,1.0202,-1.0554,1.4696016)"
       gradientUnits="userSpaceOnUse">
      <stop
         offset="0"
         stop-color="#0078d4"
         id="stop3" />
      <stop
         offset="1"
         stop-color="#108ddc"
         id="stop4-6" />
    </linearGradient>
    <filter
       id="e"
       width="1.1589255"
       height="1.3375919"
       x="-0.07946277"
       y="-0.16879595"
       color-interpolation-filters="sRGB">
      <feGaussianBlur
         stdDeviation=".861"
         id="feGaussianBlur9" />
    </filter>
    <filter
       id="f"
       width="1.3144856"
       height="1.164599"
       x="-0.15724278"
       y="-0.082299501"
       color-interpolation-filters="sRGB">
      <feGaussianBlur
         stdDeviation="1.152"
         id="feGaussianBlur10" />
    </filter>
    <linearGradient
       id="g"
       x1="11.788"
       x2="52.749001"
       y1="25.106001"
       y2="25.106001"
       gradientTransform="matrix(1.0202,0,0,1.0202,-1.0554,1.4696016)"
       gradientUnits="userSpaceOnUse">
      <stop
         offset="0"
         stop-color="#40bfff"
         id="stop1-7" />
      <stop
         offset="1"
         stop-color="#5fde56"
         id="stop2-5" />
    </linearGradient>
    <radialGradient
       inkscape:collect="always"
       xlink:href="#linearGradient1292"
       id="radialGradient1294"
       cx="8.5411577"
       cy="288.60864"
       fx="8.5411577"
       fy="288.60864"
       r="7.7297897"
       gradientUnits="userSpaceOnUse"
       gradientTransform="matrix(0.4994032,0.00489759,-0.00511303,0.52137172,4.6123282,-143.10598)" />
    <linearGradient
       inkscape:collect="always"
       id="linearGradient1292">
      <stop
         style="stop-color:#14d0ff;stop-opacity:1"
         offset="0"
         id="stop1288" />
      <stop
         style="stop-color:#008bad;stop-opacity:1"
         offset="1"
         id="stop1290" />
    </linearGradient>
    <linearGradient
       inkscape:collect="always"
       xlink:href="#linearGradient1308"
       id="linearGradient1310"
       x1="5.3392501"
       y1="-11.829515"
       x2="39.301212"
       y2="47.029041"
       gradientUnits="userSpaceOnUse"
       gradientTransform="matrix(0.18112706,0,0,0.18112706,1.5550832,1.5606168)" />
    <linearGradient
       inkscape:collect="always"
       id="linearGradient1308">
      <stop
         style="stop-color:#00cd9d;stop-opacity:1"
         offset="0"
         id="stop1304" />
      <stop
         style="stop-color:#00ffc4;stop-opacity:1"
         offset="1"
         id="stop1306" />
    </linearGradient>
    <linearGradient
       inkscape:collect="always"
       xlink:href="#linearGradient3874-2"
       id="linearGradient1330"
       gradientUnits="userSpaceOnUse"
       x1="-6.5803928"
       y1="-13.570587"
       x2="47.872643"
       y2="15.421898"
       gradientTransform="matrix(0.18112706,0,0,0.18112706,1.5550832,1.5606168)" />
    <linearGradient
       id="linearGradient3874-2">
      <stop
         style="stop-color:#000d0e;stop-opacity:0.84105963;"
         offset="0"
         id="stop3876" />
      <stop
         style="stop-color:#000000;stop-opacity:0;"
         offset="1"
         id="stop3878" />
    </linearGradient>
    <linearGradient
       inkscape:collect="always"
       xlink:href="#linearGradient1316"
       id="linearGradient1318"
       x1="6.8125157"
       y1="283.3421"
       x2="11.74121"
       y2="294.8681"
       gradientUnits="userSpaceOnUse"
       gradientTransform="matrix(0.68457476,0,0,0.68457476,1.5550832,-190.16596)" />
    <linearGradient
       inkscape:collect="always"
       id="linearGradient1316">
      <stop
         style="stop-color:#24d3ff;stop-opacity:1;"
         offset="0"
         id="stop1312" />
      <stop
         style="stop-color:#00beee;stop-opacity:1"
         offset="1"
         id="stop1314" />
    </linearGradient>
    <linearGradient
       inkscape:collect="always"
       xlink:href="#linearGradient3874-2"
       id="linearGradient1334"
       gradientUnits="userSpaceOnUse"
       x1="16.698956"
       y1="301.76843"
       x2="4.6895914"
       y2="292.99002"
       gradientTransform="matrix(0.68457476,0,0,0.68457476,1.5550832,-190.16596)" />
    <linearGradient
       inkscape:collect="always"
       xlink:href="#linearGradient1351"
       id="linearGradient1353"
       x1="14.467216"
       y1="278.11594"
       x2="2.1129797"
       y2="290.19098"
       gradientUnits="userSpaceOnUse"
       gradientTransform="matrix(0.68457476,0,0,0.68457476,1.5550832,-190.16596)" />
    <linearGradient
       inkscape:collect="always"
       id="linearGradient1351">
      <stop
         style="stop-color:#ffffff;stop-opacity:0.57692307"
         offset="0"
         id="stop1347" />
      <stop
         style="stop-color:#ffffff;stop-opacity:0;"
         offset="1"
         id="stop1349" />
    </linearGradient>
    <linearGradient
       inkscape:collect="always"
       xlink:href="#linearGradient1351"
       id="linearGradient1359"
       gradientUnits="userSpaceOnUse"
       x1="14.467216"
       y1="278.11594"
       x2="2.1129797"
       y2="290.19098"
       gradientTransform="matrix(-0.68457476,0,0,-0.68457476,13.243134,205.01993)" />
  </defs>
  <sodipodi:namedview
     id="base"
     pagecolor="#e2e2e2"
     bordercolor="#666666"
     borderopacity="1.0"
     inkscape:pageopacity="0"
     inkscape:pageshadow="2"
     inkscape:zoom="6.6098081"
     inkscape:cx="46.013544"
     inkscape:cy="27.269913"
     inkscape:document-units="px"
     inkscape:current-layer="layer1"
     inkscape:document-rotation="0"
     showgrid="true"
     units="px"
     inkscape:window-width="1920"
     inkscape:window-height="996"
     inkscape:window-x="0"
     inkscape:window-y="0"
     inkscape:window-maximized="1"
     inkscape:object-paths="true"
     inkscape:snap-grids="true"
     inkscape:snap-intersection-paths="true"
     inkscape:snap-smooth-nodes="true"
     inkscape:snap-midpoints="true"
     inkscape:showpageshadow="2"
     inkscape:pagecheckerboard="0"
     inkscape:deskcolor="#d1d1d1">
    <inkscape:grid
       id="grid1"
       units="px"
       originx="0"
       originy="0"
       spacingx="0.26458333"
       spacingy="0.26458333"
       empcolor="#0099e5"
       empopacity="0.30196078"
       color="#0099e5"
       opacity="0.14901961"
       empspacing="5"
       dotted="false"
       gridanglex="30"
       gridanglez="30"
       visible="true" />
  </sodipodi:namedview>
  <metadata
     id="metadata1111">
    <rdf:RDF>
      <cc:Work
         rdf:about="">
        <dc:format>image/svg+xml</dc:format>
        <dc:type
           rdf:resource="http://purl.org/dc/dcmitype/StillImage" />
      </cc:Work>
    </rdf:RDF>
  </metadata>
  <g
     inkscape:label="Layer 1"
     inkscape:groupmode="layer"
     id="layer1">
    <g
       id="g1">
      <rect
         ry="4.8357682"
         rx="4.8357682"
         style="fill:url(#linearGradient1064);fill-opacity:1;stroke-width:6.09228"
         x="0.13229237"
         y="-16.457085"
         width="15.875001"
         height="15.875001"
         id="use1056"
         transform="rotate(90)" />
      <path
         d="m 5.344583,0.13229167 c -2.6384245,0 -4.76249953,2.12407483 -4.76249953,4.76249963 H 5.344583 Z"
         style="opacity:0.15;fill:url(#radialGradient25);fill-opacity:1;stroke-width:6.09228"
         id="path20" />
      <rect
         y="0.13229151"
         x="5.3445826"
         height="1.5875"
         width="6.3500004"
         id="rect20"
         style="opacity:0.15;fill:url(#linearGradient25);fill-opacity:1;stroke-width:4.83577;stroke-linecap:round;stroke-linejoin:round;paint-order:stroke fill markers" />
      <path
         d="m 0.58208347,11.244792 c 0,2.638424 2.12407503,4.762499 4.76249953,4.762499 v -4.762499 z"
         style="opacity:0.15;fill:url(#radialGradient29);fill-opacity:1;stroke-width:6.09228"
         id="use20" />
      <rect
         y="0.5820834"
         x="-11.244792"
         height="1.5875"
         width="6.3500004"
         id="use21"
         style="opacity:0.15;fill:url(#linearGradient34);fill-opacity:1;stroke-width:4.83577;stroke-linecap:round;stroke-linejoin:round;paint-order:stroke fill markers"
         transform="rotate(-90)" />
      <path
         d="m 11.694583,16.007291 c 2.638425,0 4.7625,-2.124074 4.7625,-4.762499 h -4.7625 z"
         style="opacity:0.15;fill:url(#radialGradient30);fill-opacity:1;stroke-width:6.09228"
         id="use22" />
      <rect
         y="-16.007292"
         x="-11.694584"
         height="1.5875"
         width="6.3500004"
         id="use23"
         style="opacity:0.15;fill:url(#linearGradient35);fill-opacity:1;stroke-width:4.83577;stroke-linecap:round;stroke-linejoin:round;paint-order:stroke fill markers"
         transform="scale(-1)" />
      <path
         d="m 16.457083,4.8947913 c 0,-2.6384245 -2.124074,-4.76249963 -4.7625,-4.76249963 V 4.8947913 Z"
         style="opacity:0.15;fill:url(#radialGradient31);fill-opacity:1;stroke-width:6.09228"
         id="use24" />
      <rect
         y="-16.457083"
         x="4.8947906"
         height="1.5875"
         width="6.3500004"
         id="use25"
         style="opacity:0.15;fill:url(#linearGradient36);fill-opacity:1;stroke-width:4.83577;stroke-linecap:round;stroke-linejoin:round;paint-order:stroke fill markers"
         transform="rotate(90)" />
      <path
         d="m 5.344583,0.13229107 c -2.6384251,0 -4.76250013,2.12407473 -4.76250013,4.76249973 H 5.344583 Z"
         style="opacity:0.5;fill:url(#radialGradient15);fill-opacity:1;stroke-width:6.09228"
         id="path14" />
      <rect
         y="0.1322909"
         x="5.3445826"
         height="1.5875"
         width="6.3499999"
         id="rect14"
         style="opacity:0.5;fill:url(#linearGradient15);fill-opacity:1;stroke-width:4.83577;stroke-linecap:round;stroke-linejoin:round;paint-order:stroke fill markers" />
      <path
         d="m 11.694583,0.13229107 c 2.638425,0 4.7625,2.12407453 4.7625,4.76249943 h -4.7625 z"
         style="opacity:0.5;fill:url(#radialGradient17);fill-opacity:1;stroke-width:6.09228"
         id="use14" />
      <path
         id="path17"
         style="opacity:0.5;fill:url(#radialGradient18);fill-opacity:1;stroke-width:6.09228"
         d="m 5.3445834,16.007291 c -2.638425,0 -4.7625,-2.124075 -4.7625,-4.7625 h 4.7625 z" />
      <rect
         style="opacity:0.5;fill:url(#linearGradient18);fill-opacity:1;stroke-width:4.83577;stroke-linecap:round;stroke-linejoin:round;paint-order:stroke fill markers"
         id="rect17"
         width="6.3499994"
         height="1.5874999"
         x="5.344583"
         y="-16.007292"
         transform="scale(1,-1)" />
      <path
         id="use17"
         style="opacity:0.5;fill:url(#radialGradient20);fill-opacity:1;stroke-width:6.09228"
         d="m 11.694583,16.007291 c 2.638425,0 4.7625,-2.124075 4.7625,-4.7625 h -4.7625 z" />
    </g>
    <rect
       width="13.741059"
       height="13.790612"
       x="1.6568208"
       y="1.1707813"
       fill="url(#a)"
       rx="3.9026039"
       ry="3.7703123"
       id="rect2"
       style="fill:url(#a);stroke-width:0.264583" />
    <path
       sodipodi:nodetypes="sssss"
       inkscape:connector-curvature="0"
       id="circle45-5-7"
       d="m 8.4909057,2.3812435 c -3.065688,0 -5.556412,2.4905618 -5.556412,5.5562496 0,3.0656879 2.490724,5.5562489 5.556412,5.5562489 3.0656873,0 5.5562493,-2.490561 5.5562493,-5.5562489 0,-3.0656879 -2.490562,-5.5562498 -5.5562493,-5.5562496 z"
       style="color:#000000;font-style:normal;font-variant:normal;font-weight:normal;font-stretch:normal;font-size:medium;line-height:normal;font-family:sans-serif;font-variant-ligatures:normal;font-variant-position:normal;font-variant-caps:normal;font-variant-numeric:normal;font-variant-alternates:normal;font-feature-settings:normal;text-indent:0;text-align:start;text-decoration:none;text-decoration-line:none;text-decoration-style:solid;text-decoration-color:#000000;letter-spacing:normal;word-spacing:normal;text-transform:none;writing-mode:lr-tb;direction:ltr;text-orientation:mixed;dominant-baseline:auto;baseline-shift:baseline;text-anchor:start;white-space:normal;shape-padding:0;clip-rule:nonzero;display:inline;overflow:visible;visibility:visible;isolation:auto;mix-blend-mode:normal;color-interpolation:sRGB;color-interpolation-filters:linearRGB;solid-color:#000000;solid-opacity:1;vector-effect:none;fill:#4ab5a2;fill-opacity:0.55000001;fill-rule:nonzero;stroke:none;stroke-width:0.497414;stroke-linecap:butt;stroke-linejoin:miter;stroke-miterlimit:4;stroke-dasharray:none;stroke-dashoffset:0;stroke-opacity:1;color-rendering:auto;image-rendering:auto;shape-rendering:auto;text-rendering:auto;enable-background:accumulate" />
    <path
       sodipodi:nodetypes="sssss"
       inkscape:connector-curvature="0"
       id="circle45-5-7-3"
       d="m 8.4909717,2.910409 c -2.773716,0 -5.02723,2.2533658 -5.02723,5.0270833 0,2.7737177 2.253514,5.0270827 5.02723,5.0270827 2.7737183,0 5.0270833,-2.253365 5.0270833,-5.0270827 0,-2.7737175 -2.253365,-5.0270835 -5.0270833,-5.0270833 z"
       style="color:#000000;font-style:normal;font-variant:normal;font-weight:normal;font-stretch:normal;font-size:medium;line-height:normal;font-family:sans-serif;font-variant-ligatures:normal;font-variant-position:normal;font-variant-caps:normal;font-variant-numeric:normal;font-variant-alternates:normal;font-feature-settings:normal;text-indent:0;text-align:start;text-decoration:none;text-decoration-line:none;text-decoration-style:solid;text-decoration-color:#000000;letter-spacing:normal;word-spacing:normal;text-transform:none;writing-mode:lr-tb;direction:ltr;text-orientation:mixed;dominant-baseline:auto;baseline-shift:baseline;text-anchor:start;white-space:normal;shape-padding:0;clip-rule:nonzero;display:inline;overflow:visible;visibility:visible;isolation:auto;mix-blend-mode:normal;color-interpolation:sRGB;color-interpolation-filters:linearRGB;solid-color:#000000;solid-opacity:1;vector-effect:none;fill:#ffffff;fill-opacity:1;fill-rule:nonzero;stroke:none;stroke-width:0.450046;stroke-linecap:butt;stroke-linejoin:miter;stroke-miterlimit:4;stroke-dasharray:none;stroke-dashoffset:0;stroke-opacity:1;color-rendering:auto;image-rendering:auto;shape-rendering:auto;text-rendering:auto;enable-background:accumulate" />
    <circle
       style="fill:url(#radialGradient1294);fill-opacity:1;stroke:none;stroke-width:0.559684;stroke-linecap:round;stroke-miterlimit:4;stroke-dasharray:none;stroke-dashoffset:0;stroke-opacity:1"
       id="path826"
       cx="8.4846401"
       cy="7.9373937"
       r="5.2916193" />
    <path
       style="fill:#29befd;fill-opacity:1;stroke:none;stroke-width:0.559684;stroke-linecap:round;stroke-miterlimit:4;stroke-dasharray:none;stroke-dashoffset:0;stroke-opacity:1"
       d="M 8.4845837,2.6458927 A 5.2916189,5.2916189 0 0 0 3.1929847,7.9374915 5.2916189,5.2916189 0 0 0 8.4845837,13.22909 5.2916189,5.2916189 0 0 0 13.776182,7.9374915 5.2916189,5.2916189 0 0 0 8.4845837,2.6458927 Z m 0,2.478469 a 2.8131018,2.8131018 0 0 1 2.8131293,2.8131298 2.8131018,2.8131018 0 0 1 -2.8131293,2.8131305 2.8131018,2.8131018 0 0 1 -2.81313,-2.8131305 2.8131018,2.8131018 0 0 1 2.81313,-2.8131298 z"
       id="circle1254" />
    <path
       style="fill:url(#linearGradient1310);fill-opacity:1;stroke:none;stroke-width:0.559684;stroke-linecap:round;stroke-miterlimit:4;stroke-dasharray:none;stroke-dashoffset:0;stroke-opacity:1"
       d="m 8.4845837,2.6458927 a 5.2916189,5.2916189 0 0 0 -0.339967,0.01203 c -0.02203,0.0014 -0.04385,0.0033 -0.0658,0.0049 a 5.2916189,5.2916189 0 0 0 -0.47935,0.05802 c -0.01064,0.0018 -0.02122,0.0038 -0.03184,0.0057 a 5.2916189,5.2916189 0 0 0 -0.495623,0.111436 5.2916189,5.2916189 0 0 0 -0.006,0.0018 5.2916189,5.2916189 0 0 0 -0.493501,0.163792 c -0.0038,0.0015 -0.0075,0.0031 -0.01132,0.0046 a 5.2916189,5.2916189 0 0 0 -0.468735,0.2097861 c -0.0055,0.0028 -0.01109,0.0057 -0.01663,0.0085 a 5.2916189,5.2916189 0 0 0 -0.429825,0.2465747 c -0.01311,0.0084 -0.02624,0.01666 -0.03927,0.02512 a 5.2916189,5.2916189 0 0 0 -0.388786,0.278411 c -0.01328,0.01044 -0.0268,0.02056 -0.03997,0.03113 a 5.2916189,5.2916189 0 0 0 -0.353764,0.310605 c -0.01402,0.01345 -0.02822,0.02673 -0.0421,0.04033 a 5.2916189,5.2916189 0 0 0 -0.325109,0.348811 c -0.0096,0.01121 -0.01955,0.02197 -0.02901,0.03326 a 5.2916189,5.2916189 0 0 0 -0.305298,0.402229 c -0.0024,0.0035 -0.005,0.0068 -0.0074,0.01026 a 5.2916189,5.2916189 0 0 0 -0.922262,2.984352 5.2916189,5.2916189 0 0 0 0.01274,0.353409 c 0.0011,0.016949 0.003,0.03368 0.0042,0.05059 a 5.2916189,5.2916189 0 0 0 0.17582,1.0114111 5.2916189,5.2916189 0 0 0 0.165208,0.4963297 c 0.0013,0.0033 0.0023,0.0066 0.0035,0.0099 a 5.2916189,5.2916189 0 0 0 0.208367,0.4662607 c 0.0044,0.0088 0.009,0.01744 0.01344,0.02618 a 5.2916189,5.2916189 0 0 0 0.247635,0.431593 c 0.0073,0.01134 0.01495,0.02232 0.02229,0.03361 a 5.2916189,5.2916189 0 0 0 0.288317,0.402936 c 0.0059,0.0074 0.01212,0.01454 0.01804,0.02193 a 5.2916189,5.2916189 0 0 0 0.336076,0.382418 5.2916189,5.2916189 0 0 0 0.376758,0.350935 c 0.005,0.0042 0.0098,0.0088 0.01486,0.01309 a 5.2916189,5.2916189 0 0 0 0.02123,0.01627 l 1.473073,-2.001595 c -0.555417,-0.5138856 -0.903168,-1.2489267 -0.90316,-2.0652755 -1.6e-5,-1.553655 1.259475,-2.813146 2.81313,-2.8131299 1.5536543,-1.61e-5 2.8131443,1.2594749 2.8131283,2.8131299 1.1e-5,1.045854 -0.571953,1.9565289 -1.4189453,2.4413235 V 9.6550523 l -3.044491,2.3044177 1.650308,1.249493 v 0.02017 a 5.2916189,5.2916189 0 0 0 1.411514,-0.19209 c 0.0092,-0.0025 0.01805,-0.0059 0.02724,-0.0085 a 5.2916189,5.2916189 0 0 0 0.4422033,-0.147165 c 0.0387,-0.01473 0.07636,-0.03144 0.114619,-0.04705 a 5.2916189,5.2916189 0 0 0 0.33537,-0.149999 c 0.04568,-0.02247 0.09092,-0.0456 0.135846,-0.06934 a 5.2916189,5.2916189 0 0 0 0.304943,-0.174759 c 0.04163,-0.02567 0.08403,-0.05034 0.124879,-0.07712 a 5.2916189,5.2916189 0 0 0 0.354117,-0.252942 c 0.01384,-0.0108 0.02872,-0.0202 0.04245,-0.03113 0.0028,-0.0023 0.0053,-0.0049 0.0081,-0.0071 a 5.2916189,5.2916189 0 0 0 0.347042,-0.30459 c 0.04279,-0.04076 0.08311,-0.08378 0.124525,-0.125939 A 5.2916189,5.2916189 0 0 0 12.4693,11.413584 c 0.04089,-0.04682 0.08068,-0.09467 0.119926,-0.14292 a 5.2916189,5.2916189 0 0 0 0.197405,-0.258963 c 0.03008,-0.042 0.06099,-0.08339 0.08986,-0.126294 a 5.2916189,5.2916189 0 0 0 0.471921,-0.866721 c 0.01146,-0.02674 0.02116,-0.0544 0.03219,-0.08137 a 5.2916189,5.2916189 0 0 0 0.139736,-0.3831262 c 0.01305,-0.04066 0.02506,-0.08168 0.03715,-0.1227558 a 5.2916189,5.2916189 0 0 0 0.112851,-0.441498 c 9.6e-5,-4.763e-4 2.53e-4,-9.525e-4 3.7e-4,-0.0014 a 5.2916189,5.2916189 0 0 0 3.71e-4,-0.0018 5.2916189,5.2916189 0 0 0 0.07641,-0.507297 c 8.21e-4,-0.0083 0.002,-0.01647 0.0028,-0.02476 A 5.2916189,5.2916189 0 0 0 13.77611,7.937476 5.2916189,5.2916189 0 0 0 13.76408,7.5975092 c -0.0014,-0.022021 -0.0033,-0.04385 -0.0049,-0.0658 A 5.2916189,5.2916189 0 0 0 13.70114,7.0530958 c -0.0019,-0.01147 -0.004,-0.022881 -0.006,-0.03432 A 5.2916189,5.2916189 0 0 0 13.584403,6.5263284 c -9.26e-4,-0.0033 -0.0019,-0.0066 -0.0028,-0.0099 A 5.2916189,5.2916189 0 0 0 13.418556,6.025397 c -0.0015,-0.0038 -0.0031,-0.0075 -0.0046,-0.011319 A 5.2916189,5.2916189 0 0 0 13.204173,5.5453402 c -0.0028,-0.0055 -0.0056,-0.011081 -0.0085,-0.016629 A 5.2916189,5.2916189 0 0 0 12.949099,5.0988913 c -0.0084,-0.0131 -0.01665,-0.026241 -0.02512,-0.03927 A 5.2916189,5.2916189 0 0 0 12.645568,4.6708356 c -0.01038,-0.0132 -0.02063,-0.02651 -0.03113,-0.03962 a 5.2916189,5.2916189 0 0 0 -0.310959,-0.354472 c -0.01339,-0.01397 -0.02643,-0.02828 -0.03998,-0.0421 a 5.2916189,5.2916189 0 0 0 -0.348457,-0.3244 c -0.01165,-0.0099 -0.02293,-0.02024 -0.03467,-0.03007 A 5.2916189,5.2916189 0 0 0 11.486279,3.5805347 c -0.007,-0.0049 -0.01382,-0.01004 -0.02087,-0.01486 A 5.2916189,5.2916189 0 0 0 9.0138147,2.6724297 c -3.71e-4,-3.5e-5 -7.15e-4,-3.175e-4 -0.0011,-3.519e-4 a 5.2916189,5.2916189 0 0 0 -0.0032,0 5.2916189,5.2916189 0 0 0 -0.524986,-0.02618 z"
       id="path1259" />
    <path
       style="color:#000000;font-style:normal;font-variant:normal;font-weight:normal;font-stretch:normal;font-size:medium;line-height:normal;font-family:sans-serif;font-variant-ligatures:normal;font-variant-position:normal;font-variant-caps:normal;font-variant-numeric:normal;font-variant-alternates:normal;font-feature-settings:normal;text-indent:0;text-align:start;text-decoration:none;text-decoration-line:none;text-decoration-style:solid;text-decoration-color:#000000;letter-spacing:normal;word-spacing:normal;text-transform:none;writing-mode:lr-tb;direction:ltr;text-orientation:mixed;dominant-baseline:auto;baseline-shift:baseline;text-anchor:start;white-space:normal;shape-padding:0;clip-rule:nonzero;display:inline;overflow:visible;visibility:visible;isolation:auto;mix-blend-mode:normal;color-interpolation:sRGB;color-interpolation-filters:linearRGB;solid-color:#000000;solid-opacity:1;vector-effect:none;fill:#ffffff;fill-opacity:0.24;fill-rule:nonzero;stroke:none;stroke-width:0.0889947;stroke-linecap:butt;stroke-linejoin:miter;stroke-miterlimit:4;stroke-dasharray:none;stroke-dashoffset:0;stroke-opacity:1;color-rendering:auto;image-rendering:auto;shape-rendering:auto;text-rendering:auto;enable-background:accumulate"
       d="m 8.3600587,5.0097426 0.0014,0.08809 c 1.499596,-0.019031 2.7780213,0.977186 2.9631273,2.508539 0.102802,0.8504679 -0.206356,1.9928699 -1.4776703,2.8102984 l 0.01061,-0.7163706 -2.964187,2.2421546 1.709033,1.282393 a 5.2916189,5.2916189 0 0 0 0.142567,-0.0049 l -1.704434,-1.278855 2.725043,-2.0589066 -0.0095,0.7259246 0.06828,-0.04139 C 11.211887,9.7294395 11.521752,8.4980695 11.412687,7.5957864 11.222258,6.0204014 9.8998437,4.9902146 8.3600597,5.0097736 Z"
       id="path1298" />
    <path
       style="fill:url(#linearGradient1330);fill-opacity:1;stroke:none;stroke-width:0.559684;stroke-linecap:round;stroke-miterlimit:4;stroke-dasharray:none;stroke-dashoffset:0;stroke-opacity:1"
       d="m 8.4845837,2.6458927 a 5.2916189,5.2916189 0 0 0 -0.339967,0.01203 c -0.02203,0.0014 -0.04385,0.0033 -0.0658,0.0049 a 5.2916189,5.2916189 0 0 0 -0.47935,0.05802 c -0.01064,0.0018 -0.02122,0.0038 -0.03184,0.0057 a 5.2916189,5.2916189 0 0 0 -0.495623,0.111436 5.2916189,5.2916189 0 0 0 -0.006,0.0018 5.2916189,5.2916189 0 0 0 -0.493501,0.163792 c -0.0038,0.0015 -0.0075,0.0031 -0.01132,0.0046 a 5.2916189,5.2916189 0 0 0 -0.468735,0.2097861 c -0.0055,0.0028 -0.01109,0.0057 -0.01663,0.0085 a 5.2916189,5.2916189 0 0 0 -0.429825,0.2465747 c -0.01311,0.0084 -0.02624,0.01666 -0.03927,0.02512 a 5.2916189,5.2916189 0 0 0 -0.388786,0.278411 c -0.01328,0.01044 -0.0268,0.02056 -0.03997,0.03113 a 5.2916189,5.2916189 0 0 0 -0.353764,0.310605 c -0.01402,0.01345 -0.02822,0.02673 -0.0421,0.04033 a 5.2916189,5.2916189 0 0 0 -0.325109,0.348811 c -0.0096,0.01121 -0.01955,0.02197 -0.02901,0.03326 a 5.2916189,5.2916189 0 0 0 -0.305298,0.402229 c -0.0024,0.0035 -0.005,0.0068 -0.0074,0.01026 a 5.2916189,5.2916189 0 0 0 -0.922262,2.984352 5.2916189,5.2916189 0 0 0 0.01274,0.353409 c 0.0011,0.016949 0.003,0.03368 0.0042,0.05059 a 5.2916189,5.2916189 0 0 0 0.17582,1.0114111 5.2916189,5.2916189 0 0 0 0.165208,0.4963297 c 0.0013,0.0033 0.0023,0.0066 0.0035,0.0099 a 5.2916189,5.2916189 0 0 0 0.208367,0.4662607 c 0.0044,0.0088 0.009,0.01744 0.01344,0.02618 a 5.2916189,5.2916189 0 0 0 0.247635,0.431593 c 0.0073,0.01134 0.01495,0.02232 0.02229,0.03361 a 5.2916189,5.2916189 0 0 0 0.288317,0.402936 c 0.0059,0.0074 0.01212,0.01454 0.01804,0.02193 a 5.2916189,5.2916189 0 0 0 0.336076,0.382418 5.2916189,5.2916189 0 0 0 0.376758,0.350935 c 0.005,0.0042 0.0098,0.0088 0.01486,0.01309 a 5.2916189,5.2916189 0 0 0 0.02123,0.01627 l 1.473073,-2.001595 c -0.555417,-0.5138856 -0.903168,-1.2489267 -0.90316,-2.0652755 -1.6e-5,-1.553655 1.259475,-2.813146 2.81313,-2.8131299 1.5536543,-1.61e-5 2.8131443,1.2594749 2.8131283,2.8131299 1.1e-5,1.045854 -0.571953,1.9565289 -1.4189453,2.4413235 V 9.6550523 l -3.044491,2.3044177 1.650308,1.249493 v 0.02017 a 5.2916189,5.2916189 0 0 0 1.411514,-0.19209 c 0.0092,-0.0025 0.01805,-0.0059 0.02724,-0.0085 a 5.2916189,5.2916189 0 0 0 0.4422033,-0.147165 c 0.0387,-0.01473 0.07636,-0.03144 0.114619,-0.04705 a 5.2916189,5.2916189 0 0 0 0.33537,-0.149999 c 0.04568,-0.02247 0.09092,-0.0456 0.135846,-0.06934 a 5.2916189,5.2916189 0 0 0 0.304943,-0.174759 c 0.04163,-0.02567 0.08403,-0.05034 0.124879,-0.07712 a 5.2916189,5.2916189 0 0 0 0.354117,-0.252942 c 0.01384,-0.0108 0.02872,-0.0202 0.04245,-0.03113 0.0028,-0.0023 0.0053,-0.0049 0.0081,-0.0071 a 5.2916189,5.2916189 0 0 0 0.347042,-0.30459 c 0.04279,-0.04076 0.08311,-0.08378 0.124525,-0.125939 A 5.2916189,5.2916189 0 0 0 12.4693,11.413584 c 0.04089,-0.04682 0.08068,-0.09467 0.119926,-0.14292 a 5.2916189,5.2916189 0 0 0 0.197405,-0.258963 c 0.03008,-0.042 0.06099,-0.08339 0.08986,-0.126294 a 5.2916189,5.2916189 0 0 0 0.471921,-0.866721 c 0.01146,-0.02674 0.02116,-0.0544 0.03219,-0.08137 a 5.2916189,5.2916189 0 0 0 0.139736,-0.3831262 c 0.01305,-0.04066 0.02506,-0.08168 0.03715,-0.1227558 a 5.2916189,5.2916189 0 0 0 0.112851,-0.441498 c 9.6e-5,-4.763e-4 2.53e-4,-9.525e-4 3.7e-4,-0.0014 a 5.2916189,5.2916189 0 0 0 3.71e-4,-0.0018 5.2916189,5.2916189 0 0 0 0.07641,-0.507297 c 8.21e-4,-0.0083 0.002,-0.01647 0.0028,-0.02476 A 5.2916189,5.2916189 0 0 0 13.77611,7.937476 5.2916189,5.2916189 0 0 0 13.76408,7.5975092 c -0.0014,-0.022021 -0.0033,-0.04385 -0.0049,-0.0658 A 5.2916189,5.2916189 0 0 0 13.70114,7.0530958 c -0.0019,-0.01147 -0.004,-0.022881 -0.006,-0.03432 A 5.2916189,5.2916189 0 0 0 13.584403,6.5263284 c -9.26e-4,-0.0033 -0.0019,-0.0066 -0.0028,-0.0099 A 5.2916189,5.2916189 0 0 0 13.418556,6.025397 c -0.0015,-0.0038 -0.0031,-0.0075 -0.0046,-0.011319 A 5.2916189,5.2916189 0 0 0 13.204173,5.5453402 c -0.0028,-0.0055 -0.0056,-0.011081 -0.0085,-0.016629 A 5.2916189,5.2916189 0 0 0 12.949099,5.0988913 c -0.0084,-0.0131 -0.01665,-0.026241 -0.02512,-0.03927 A 5.2916189,5.2916189 0 0 0 12.645568,4.6708356 c -0.01038,-0.0132 -0.02063,-0.02651 -0.03113,-0.03962 a 5.2916189,5.2916189 0 0 0 -0.310959,-0.354472 c -0.01339,-0.01397 -0.02643,-0.02828 -0.03998,-0.0421 a 5.2916189,5.2916189 0 0 0 -0.348457,-0.3244 c -0.01165,-0.0099 -0.02293,-0.02024 -0.03467,-0.03007 A 5.2916189,5.2916189 0 0 0 11.486279,3.5805347 c -0.007,-0.0049 -0.01382,-0.01004 -0.02087,-0.01486 A 5.2916189,5.2916189 0 0 0 9.0138147,2.6724297 c -3.71e-4,-3.5e-5 -7.15e-4,-3.175e-4 -0.0011,-3.519e-4 a 5.2916189,5.2916189 0 0 0 -0.0032,0 5.2916189,5.2916189 0 0 0 -0.524986,-0.02618 z"
       id="path1328" />
    <path
       style="fill:url(#linearGradient1318);fill-opacity:1;stroke:none;stroke-width:0.559684;stroke-linecap:round;stroke-miterlimit:4;stroke-dasharray:none;stroke-dashoffset:0;stroke-opacity:1"
       d="m 8.4845837,2.6458927 a 5.2916189,5.2916189 0 0 0 -1.368359,0.182188 v 0.0036 c -2.245877,0.611953 -3.897409,2.665353 -3.897415,5.1051639 4e-6,1.714522 0.807388,3.2380124 2.064211,4.2051904 a 5.2916189,5.2916189 0 0 0 0.07429,0.0566 c 0.08387,0.06221 0.169932,0.121441 0.25754,0.178651 a 5.2916189,5.2916189 0 0 0 0.247989,0.152117 c 0.0457,0.02634 0.09141,0.05248 0.137968,0.07747 a 5.2916189,5.2916189 0 0 0 0.407182,0.196693 c 0.007,0.003 0.01381,0.0066 0.02087,0.0095 a 5.2916189,5.2916189 0 0 0 0.0014,3.7e-4 5.2916189,5.2916189 0 0 0 2.054309,0.415665 5.2916189,5.2916189 0 0 0 0.02547,-0.0011 l -1.67578,-1.268568 1.439819,-1.094899 0.09835,-0.075 0.05236,-0.03962 c -1.553654,2e-6 -2.72753,-1.2594847 -2.727516,-2.8131416 -1.4e-5,-1.045859 0.571956,-1.9565292 1.418946,-2.4413241 v 0.723801 L 10.160714,3.9148436 8.5104077,2.6653497 v -0.01804 a 5.2916189,5.2916189 0 0 0 -0.02583,-0.0014 z"
       id="path1278" />
    <path
       style="color:#000000;font-style:normal;font-variant:normal;font-weight:normal;font-stretch:normal;font-size:medium;line-height:normal;font-family:sans-serif;font-variant-ligatures:normal;font-variant-position:normal;font-variant-caps:normal;font-variant-numeric:normal;font-variant-alternates:normal;font-feature-settings:normal;text-indent:0;text-align:start;text-decoration:none;text-decoration-line:none;text-decoration-style:solid;text-decoration-color:#000000;letter-spacing:normal;word-spacing:normal;text-transform:none;writing-mode:lr-tb;direction:ltr;text-orientation:mixed;dominant-baseline:auto;baseline-shift:baseline;text-anchor:start;white-space:normal;shape-padding:0;clip-rule:nonzero;display:inline;overflow:visible;visibility:visible;isolation:auto;mix-blend-mode:normal;color-interpolation:sRGB;color-interpolation-filters:linearRGB;solid-color:#000000;solid-opacity:1;vector-effect:none;fill:#ffffff;fill-opacity:0.244444;fill-rule:nonzero;stroke:none;stroke-width:0.0889947;stroke-linecap:butt;stroke-linejoin:miter;stroke-miterlimit:4;stroke-dasharray:none;stroke-dashoffset:0;stroke-opacity:1;color-rendering:auto;image-rendering:auto;shape-rendering:auto;text-rendering:auto;enable-background:accumulate"
       d="m 8.4120617,2.6483687 a 5.2916189,5.2916189 0 0 0 -0.142567,0.0049 l 1.688515,1.266828 -2.725042,2.0603198 0.01061,-0.7273379 -0.06934,0.04139 c -1.387732,0.83733 -1.676392,2.0679198 -1.588395,2.9709077 0.138799,1.4243061 1.203652,2.4037017 2.588489,2.5909677 0.0311,0.0041 0.06234,0.0079 0.09375,0.01132 l 0.113205,-0.07924 c -0.02863,-0.0021 -0.05724,-0.0049 -0.08561,-0.0078 -1.403373,-0.143644 -2.483203,-1.1028024 -2.621744,-2.5244595 -0.08319,-0.853672 0.209355,-1.9935179 1.477672,-2.8106528 l -0.0096,0.7153119 2.9641853,-2.2421538 z"
       id="path1296" />
    <path
       style="fill:url(#linearGradient1334);fill-opacity:1;stroke:none;stroke-width:0.559684;stroke-linecap:round;stroke-miterlimit:4;stroke-dasharray:none;stroke-dashoffset:0;stroke-opacity:1"
       d="m 8.4845837,2.6458927 a 5.2916189,5.2916189 0 0 0 -1.368359,0.182188 v 0.0036 c -2.245877,0.611953 -3.897409,2.665353 -3.897415,5.1051639 4e-6,1.714522 0.807388,3.2380124 2.064211,4.2051904 a 5.2916189,5.2916189 0 0 0 0.07429,0.0566 c 0.08387,0.06221 0.169932,0.121441 0.25754,0.178651 a 5.2916189,5.2916189 0 0 0 0.247989,0.152117 c 0.0457,0.02634 0.09141,0.05248 0.137968,0.07747 a 5.2916189,5.2916189 0 0 0 0.407182,0.196693 c 0.007,0.003 0.01381,0.0066 0.02087,0.0095 a 5.2916189,5.2916189 0 0 0 0.0014,3.7e-4 5.2916189,5.2916189 0 0 0 2.054309,0.415665 5.2916189,5.2916189 0 0 0 0.02547,-0.0011 l -1.67578,-1.268568 1.439819,-1.094899 0.09835,-0.075 0.05236,-0.03962 c -1.553654,2e-6 -2.72753,-1.2594847 -2.727516,-2.8131416 -1.4e-5,-1.045859 0.571956,-1.9565292 1.418946,-2.4413241 v 0.723801 L 10.160714,3.9148436 8.5104077,2.6653497 v -0.01804 a 5.2916189,5.2916189 0 0 0 -0.02583,-0.0014 z"
       id="path1332" />
    <path
       style="fill:url(#linearGradient1353);fill-opacity:1;stroke:none;stroke-width:0.559684;stroke-linecap:round;stroke-miterlimit:4;stroke-dasharray:none;stroke-dashoffset:0;stroke-opacity:1"
       d="m 8.4845837,2.6458927 a 5.2916189,5.2916189 0 0 0 -1.368359,0.182188 v 0.0036 c -2.245877,0.611953 -3.897409,2.665353 -3.897415,5.1051639 4e-6,1.714522 0.807388,3.2380124 2.064211,4.2051904 a 5.2916189,5.2916189 0 0 0 0.07429,0.0566 c 0.08387,0.06221 0.169932,0.121441 0.25754,0.178651 a 5.2916189,5.2916189 0 0 0 0.247989,0.152117 c 0.0457,0.02634 0.09141,0.05248 0.137968,0.07747 a 5.2916189,5.2916189 0 0 0 0.407182,0.196693 c 0.007,0.003 0.01381,0.0066 0.02087,0.0095 a 5.2916189,5.2916189 0 0 0 0.0014,3.7e-4 5.2916189,5.2916189 0 0 0 2.054309,0.415665 5.2916189,5.2916189 0 0 0 0.02547,-0.0011 l -1.67578,-1.268568 1.439819,-1.094899 0.09835,-0.075 0.05236,-0.03962 c -1.553654,2e-6 -2.72753,-1.2594847 -2.727516,-2.8131416 -1.4e-5,-1.045859 0.571956,-1.9565292 1.418946,-2.4413241 v 0.723801 L 10.160714,3.9148436 8.5104077,2.6653497 v -0.01804 a 5.2916189,5.2916189 0 0 0 -0.02583,-0.0014 z"
       id="path1345" />
    <path
       style="opacity:0.571;fill:url(#linearGradient1359);fill-opacity:1;stroke:none;stroke-width:0.559684;stroke-linecap:round;stroke-miterlimit:4;stroke-dasharray:none;stroke-dashoffset:0;stroke-opacity:1"
       d="m 8.4785697,2.6830377 -0.02583,6.853e-4 1.6761313,1.2689519 -1.4398173,1.095251 -0.09835,0.075 -0.052,0.03927 c 1.5536553,-1.4e-5 2.7271783,1.2594728 2.7271643,2.8131299 1.4e-5,1.045859 -0.571956,1.9565278 -1.4189463,2.4413232 V 9.6928486 l -3.044491,2.3044184 1.623068,1.228974 a 5.2916189,5.2916189 0 0 0 0.05908,0.0028 5.2916189,5.2916189 0 0 0 3.9869183,-1.817992 c 0.03958,-0.04623 0.07946,-0.09215 0.117449,-0.139737 a 5.2916189,5.2916189 0 0 0 0.119218,-0.15669 c 0.649425,-0.87847 1.036173,-1.9628875 1.036176,-3.1393006 -7e-6,-2.9224639 -2.343311,-5.2922927 -5.2657743,-5.2923067 z"
       id="path1357" />
  </g>
</svg>
