<?xml version="1.0" encoding="UTF-8" standalone="no"?>
<svg
   width="68"
   height="68"
   viewBox="0 0 17.991665 17.991665"
   version="1.1"
   id="svg1114"
   inkscape:version="1.3.2 (091e20ef0f, 2023-11-25)"
   sodipodi:docname="waterfox.svg"
   xmlns:inkscape="http://www.inkscape.org/namespaces/inkscape"
   xmlns:sodipodi="http://sodipodi.sourceforge.net/DTD/sodipodi-0.dtd"
   xmlns:xlink="http://www.w3.org/1999/xlink"
   xmlns="http://www.w3.org/2000/svg"
   xmlns:svg="http://www.w3.org/2000/svg"
   xmlns:rdf="http://www.w3.org/1999/02/22-rdf-syntax-ns#"
   xmlns:cc="http://creativecommons.org/ns#"
   xmlns:dc="http://purl.org/dc/elements/1.1/">
  <style
     type="text/css"
     id="current-color-scheme">.ColorScheme-Highlight { color:#5599ff; }
</style>
  <defs
     id="defs1108">
    <linearGradient
       id="linearGradient12"
       inkscape:collect="always">
      <stop
         style="stop-color:#ffffff;stop-opacity:0;"
         offset="0"
         id="stop10" />
      <stop
         id="stop11"
         offset="0.65909404"
         style="stop-color:#ffffff;stop-opacity:0" />
      <stop
         style="stop-color:#ffffff;stop-opacity:1;"
         offset="1"
         id="stop12" />
    </linearGradient>
    <linearGradient
       id="linearGradient9"
       inkscape:collect="always">
      <stop
         style="stop-color:#000000;stop-opacity:0;"
         offset="0"
         id="stop1" />
      <stop
         id="stop8"
         offset="0.66102529"
         style="stop-color:#000000;stop-opacity:0" />
      <stop
         style="stop-color:#000000;stop-opacity:1;"
         offset="1"
         id="stop9" />
    </linearGradient>
    <linearGradient
       id="linearGradient7"
       inkscape:collect="always">
      <stop
         style="stop-color:#000000;stop-opacity:0;"
         offset="0"
         id="stop5" />
      <stop
         id="stop6"
         offset="0.6586886"
         style="stop-color:#000000;stop-opacity:0" />
      <stop
         style="stop-color:#000000;stop-opacity:1;"
         offset="1"
         id="stop7" />
    </linearGradient>
    <linearGradient
       id="linearGradient4"
       inkscape:collect="always">
      <stop
         style="stop-color:#000000;stop-opacity:0;"
         offset="0"
         id="stop2" />
      <stop
         id="stop3"
         offset="0.67055255"
         style="stop-color:#000000;stop-opacity:0" />
      <stop
         style="stop-color:#000000;stop-opacity:1;"
         offset="1"
         id="stop4" />
    </linearGradient>
    <linearGradient
       inkscape:collect="always"
       id="linearGradient899">
      <stop
         style="stop-color:#b380ff;stop-opacity:1;"
         offset="0"
         id="stop895" />
      <stop
         style="stop-color:#2a7fff;stop-opacity:1;"
         offset="1"
         id="stop897" />
    </linearGradient>
    <linearGradient
       id="linearGradient1167"
       x1="40.751999"
       x2="40.751999"
       y1="28.507999"
       y2="17.205999"
       gradientUnits="userSpaceOnUse">
      <stop
         style="stop-color:#84fb6e;stop-opacity:1"
         stop-color="#0ab816"
         offset="0"
         id="stop1163" />
      <stop
         style="stop-color:#0dd41a;stop-opacity:1"
         stop-color="#0cf36c"
         offset="1"
         id="stop1165" />
    </linearGradient>
    <linearGradient
       id="cornerBevel"
       inkscape:collect="always">
      <stop
         style="stop-color:#000000;stop-opacity:0;"
         offset="0"
         id="stop2663" />
      <stop
         id="stop2671"
         offset="0.66666675"
         style="stop-color:#000000;stop-opacity:0" />
      <stop
         style="stop-color:#000000;stop-opacity:1;"
         offset="1"
         id="stop2661" />
    </linearGradient>
    <linearGradient
       id="bevel"
       inkscape:collect="always">
      <stop
         id="stop2685"
         offset="0"
         style="stop-color:#000000;stop-opacity:1;" />
      <stop
         id="stop2687"
         offset="1"
         style="stop-color:#000000;stop-opacity:0;" />
    </linearGradient>
    <linearGradient
       id="highlightCorner"
       inkscape:collect="always">
      <stop
         style="stop-color:#ffffff;stop-opacity:0;"
         offset="0"
         id="stop2613" />
      <stop
         id="stop2621"
         offset="0.66666669"
         style="stop-color:#ffffff;stop-opacity:0" />
      <stop
         style="stop-color:#ffffff;stop-opacity:1;"
         offset="1"
         id="stop2611" />
    </linearGradient>
    <linearGradient
       inkscape:collect="always"
       id="highlight">
      <stop
         style="stop-color:#ffffff;stop-opacity:1;"
         offset="0"
         id="stop2921" />
      <stop
         style="stop-color:#ffffff;stop-opacity:0;"
         offset="1"
         id="stop2923" />
    </linearGradient>
    <radialGradient
       inkscape:collect="always"
       xlink:href="#highlightCorner"
       id="radialGradient15"
       gradientUnits="userSpaceOnUse"
       gradientTransform="matrix(0.04294597,-12.079348,17.933991,0.06376112,14.524179,-50.373789)"
       cx="-4.5799766"
       cy="-0.50206107"
       fx="-4.5799766"
       fy="-0.50206107"
       r="0.39687499" />
    <linearGradient
       inkscape:collect="always"
       xlink:href="#highlight"
       id="linearGradient15"
       gradientUnits="userSpaceOnUse"
       x1="-3.8453064"
       y1="-1.1532172"
       x2="-3.8453064"
       y2="-0.8954913"
       gradientTransform="matrix(6.0923077,0,0,6.0923077,32.228528,7.1537621)" />
    <radialGradient
       inkscape:collect="always"
       xlink:href="#linearGradient12"
       id="radialGradient17"
       gradientUnits="userSpaceOnUse"
       gradientTransform="matrix(-0.02247554,-12.045403,-17.967828,0.03352619,1.6640208,-50.22331)"
       cx="-4.575222"
       cy="-0.55256462"
       fx="-4.575222"
       fy="-0.55256462"
       r="0.39687499" />
    <radialGradient
       inkscape:collect="always"
       xlink:href="#linearGradient7"
       id="radialGradient18"
       gradientUnits="userSpaceOnUse"
       gradientTransform="matrix(0.06461187,12.09952,17.933731,-0.09576873,14.609502,64.748231)"
       cx="-4.4284906"
       cy="-0.50121039"
       fx="-4.4284906"
       fy="-0.50121039"
       r="0.39687499" />
    <linearGradient
       inkscape:collect="always"
       xlink:href="#bevel"
       id="linearGradient18"
       gradientUnits="userSpaceOnUse"
       x1="-3.8415797"
       y1="-1.4506671"
       x2="-3.8406549"
       y2="-1.1968651"
       gradientTransform="matrix(6.0923076,0,0,6.0923076,32.228527,-7.1537627)" />
    <radialGradient
       inkscape:collect="always"
       xlink:href="#linearGradient4"
       id="radialGradient20"
       gradientUnits="userSpaceOnUse"
       gradientTransform="matrix(-0.01031383,11.991438,-17.967296,-0.01545561,1.7353715,64.305742)"
       cx="-4.4236727"
       cy="-0.55004197"
       fx="-4.4236727"
       fy="-0.55004197"
       r="0.39687499" />
    <radialGradient
       inkscape:collect="always"
       xlink:href="#cornerBevel"
       id="radialGradient25"
       gradientUnits="userSpaceOnUse"
       gradientTransform="matrix(12.184614,0,0,12.184614,59.63122,10.377613)"
       cx="-4.4568658"
       cy="-0.44864327"
       fx="-4.4568658"
       fy="-0.44864327"
       r="0.39687496" />
    <linearGradient
       inkscape:collect="always"
       xlink:href="#bevel"
       id="linearGradient25"
       gradientUnits="userSpaceOnUse"
       x1="-3.8487544"
       y1="-1.146081"
       x2="-3.8455966"
       y2="-0.890971"
       gradientTransform="matrix(6.0923077,0,0,6.0923077,32.228528,7.1537627)" />
    <radialGradient
       inkscape:collect="always"
       xlink:href="#cornerBevel"
       id="radialGradient29"
       gradientUnits="userSpaceOnUse"
       gradientTransform="matrix(0,-12.184614,12.184614,0,11.27353,-44.427768)"
       cx="-4.5705457"
       cy="-0.48653662"
       fx="-4.5705457"
       fy="-0.48653662"
       r="0.39687496" />
    <radialGradient
       inkscape:collect="always"
       xlink:href="#cornerBevel"
       id="radialGradient30"
       gradientUnits="userSpaceOnUse"
       gradientTransform="matrix(-12.184514,-0.04945749,0.04847411,-11.942243,-43.502155,3.8519053)"
       cx="-4.5342312"
       cy="-0.60337442"
       fx="-4.5342312"
       fy="-0.60337442"
       r="0.39687496" />
    <radialGradient
       inkscape:collect="always"
       xlink:href="#linearGradient9"
       id="radialGradient31"
       gradientUnits="userSpaceOnUse"
       gradientTransform="matrix(0,-12.151612,11.978956,0,18.475664,-48.770776)"
       cx="-4.4175329"
       cy="-0.56489283"
       fx="-4.4175329"
       fy="-0.56489283"
       r="0.39687496" />
    <linearGradient
       inkscape:collect="always"
       xlink:href="#bevel"
       id="linearGradient34"
       gradientUnits="userSpaceOnUse"
       x1="-3.99717"
       y1="-1.2218677"
       x2="-4.0003276"
       y2="-0.96675771"
       gradientTransform="matrix(6.0923077,0,0,6.0923077,17.025077,8.0496826)" />
    <linearGradient
       inkscape:collect="always"
       xlink:href="#bevel"
       id="linearGradient35"
       gradientUnits="userSpaceOnUse"
       x1="-4.0919032"
       y1="-1.4492278"
       x2="-4.0950613"
       y2="-1.1972755"
       gradientTransform="matrix(6.0923077,0,0,6.0923077,16.129161,-7.1537627)" />
    <linearGradient
       inkscape:collect="always"
       xlink:href="#bevel"
       id="linearGradient36"
       gradientUnits="userSpaceOnUse"
       x1="-3.8734362"
       y1="-1.3717227"
       x2="-3.8765941"
       y2="-1.116071"
       gradientTransform="matrix(6.0923077,0,0,6.0923077,31.33261,-8.0496826)" />
    <linearGradient
       id="paint2_linear_77:3-7"
       x1="79.398094"
       y1="-197.84389"
       x2="82.901054"
       y2="-199.97827"
       gradientUnits="userSpaceOnUse"
       gradientTransform="matrix(1.9248511,0,0,1.7314595,-40.88733,399.61741)">
      <stop
         stop-color="#EBFAFF"
         stop-opacity="0.1"
         id="stop29-5-7"
         offset="0"
         style="stop-color:#c3c3c3;stop-opacity:1;" />
      <stop
         offset="1"
         stop-color="#70A9FF"
         stop-opacity="0.5"
         id="stop30-0-1"
         style="stop-color:#05c7ff;stop-opacity:0.80000001;" />
    </linearGradient>
    <linearGradient
       inkscape:collect="always"
       xlink:href="#linearGradient899"
       id="linearGradient926"
       x1="0.98894888"
       y1="-9.3406019"
       x2="16.919081"
       y2="-9.2251434"
       gradientUnits="userSpaceOnUse"
       gradientTransform="translate(-0.92604234,0.47624996)" />
    <linearGradient
       id="a"
       x1="7.9369998"
       x2="7.9369998"
       y1="15.081"
       y2="1.852"
       gradientTransform="matrix(0.89278359,0,0,0.89278351,0.90778552,0.91466447)"
       gradientUnits="userSpaceOnUse">
      <stop
         offset="0"
         stop-color="#f1efeb"
         id="stop1-3" />
      <stop
         offset="1"
         stop-color="#fff"
         id="stop2-3" />
    </linearGradient>
    <linearGradient
       xlink:href="#linearGradient4303"
       id="linearGradient4982-7"
       y1="500.798"
       y2="503.798"
       x2="0"
       gradientUnits="userSpaceOnUse"
       gradientTransform="translate(-2.2119047e-5,-8.0814931)" />
    <linearGradient
       id="linearGradient4303">
      <stop
         style="stop-color:#c6cdd1"
         id="stop17" />
      <stop
         offset="1"
         style="stop-color:#e0e5e7"
         id="stop19" />
    </linearGradient>
    <linearGradient
       xlink:href="#linearGradient4303"
       id="linearGradient4990-5"
       x1="411.57101"
       x2="405.57101"
       gradientUnits="userSpaceOnUse"
       gradientTransform="translate(-8.0814931,2.2119047e-5)" />
    <linearGradient
       xlink:href="#linearGradient4303"
       id="linearGradient4174-5-6"
       y1="543.79797"
       y2="503.798"
       x2="0"
       gradientUnits="userSpaceOnUse"
       gradientTransform="translate(-811.42836,-5.7144606)" />
    <linearGradient
       xlink:href="#linearGradient4909"
       id="linearGradient4915-2"
       y1="509.548"
       x1="-398.634"
       y2="539.17297"
       x2="-416.57101"
       gradientUnits="userSpaceOnUse"
       gradientTransform="translate(5.714491,-5.7144606)" />
    <linearGradient
       id="linearGradient4909">
      <stop
         style="stop-color:#395067;stop-opacity:1"
         id="stop12-3" />
      <stop
         offset="1"
         style="stop-color:#11443a;stop-opacity:1"
         id="stop14" />
    </linearGradient>
    <linearGradient
       xlink:href="#linearGradient4918"
       id="linearGradient4924-2"
       y1="12.42"
       x1="9.2679996"
       y2="38.819"
       x2="35.667"
       gradientUnits="userSpaceOnUse"
       gradientTransform="translate(-5.714491,-5.7144606)" />
    <linearGradient
       id="linearGradient4918">
      <stop
         style="stop-color:#3daefd"
         id="stop7-67" />
      <stop
         offset="1"
         style="stop-color:#24a058"
         id="stop9-5" />
    </linearGradient>
    <linearGradient
       xlink:href="#bevel"
       id="linearGradient5038-9"
       y1="10"
       x1="10"
       y2="22"
       x2="22"
       gradientUnits="userSpaceOnUse"
       gradientTransform="translate(-5.714491,-5.7144606)" />
    <linearGradient
       id="l"
       x1="-112.45"
       x2="-112.42"
       y1="271.04001"
       y2="265.14001"
       gradientUnits="userSpaceOnUse"
       gradientTransform="matrix(0.9984049,0.00368682,0.00378398,0.99129275,-1.5545705,1.8314724)">
      <stop
         stop-color="#0094eb"
         offset="0"
         id="stop10-3" />
      <stop
         stop-color="#06cfeb"
         offset="1"
         id="stop12-67" />
    </linearGradient>
    <linearGradient
       inkscape:collect="always"
       xlink:href="#linearGradient1019"
       id="linearGradient1021"
       x1="13.023313"
       y1="291.81293"
       x2="14.772738"
       y2="286.6188"
       gradientUnits="userSpaceOnUse"
       gradientTransform="translate(-0.69976943,-1.2119635)" />
    <linearGradient
       inkscape:collect="always"
       id="linearGradient1019">
      <stop
         style="stop-color:#ccaaff;stop-opacity:1;"
         offset="0"
         id="stop1015" />
      <stop
         style="stop-color:#2a7fff;stop-opacity:1"
         offset="1"
         id="stop1017" />
    </linearGradient>
    <linearGradient
       id="h-6"
       x1="11.571"
       x2="11.096"
       y1="293.42999"
       y2="289.54999"
       gradientUnits="userSpaceOnUse"
       gradientTransform="matrix(1.000006,0,0,0.98969164,-0.69980233,2.2811275)">
      <stop
         stop-color="#0bc3fc"
         offset="0"
         id="stop20" />
      <stop
         stop-color="#0dd4fe"
         offset="1"
         id="stop22" />
    </linearGradient>
    <linearGradient
       id="g-3"
       x1="11.607"
       x2="11.217"
       y1="294.76001"
       y2="291.42001"
       gradientUnits="userSpaceOnUse"
       gradientTransform="matrix(1.000006,0,0,0.98969164,-0.69980233,2.2811275)">
      <stop
         stop-color="#09a7f8"
         offset="0"
         id="stop25" />
      <stop
         stop-color="#0fbffb"
         offset="1"
         id="stop27" />
    </linearGradient>
    <linearGradient
       id="i-5"
       x1="8.9981003"
       x2="10.294"
       y1="289.45001"
       y2="291.56"
       gradientUnits="userSpaceOnUse"
       gradientTransform="matrix(1.000006,0,0,0.98969164,-0.69980233,2.2811275)">
      <stop
         stop-color="#059af2"
         offset="0"
         id="stop30" />
      <stop
         stop-color="#0598f3"
         stop-opacity="0"
         offset="1"
         id="stop32" />
    </linearGradient>
    <linearGradient
       id="k"
       x1="7.0401001"
       x2="5.7666998"
       y1="286.23999"
       y2="293.70999"
       gradientUnits="userSpaceOnUse"
       gradientTransform="matrix(1.000006,0,0,0.98969164,-0.69980233,2.2811275)">
      <stop
         stop-color="#29f2ff"
         offset="0"
         id="stop35" />
      <stop
         stop-color="#16d5fb"
         offset="1"
         id="stop37" />
    </linearGradient>
    <linearGradient
       id="j-6"
       x1="32.799"
       x2="27.072001"
       y1="42.111"
       y2="39.571999"
       gradientUnits="userSpaceOnUse"
       gradientTransform="matrix(1.000006,0,0,0.98969164,-2.6449546,-2.2901563)">
      <stop
         stop-color="#19dafc"
         offset="0"
         id="stop40" />
      <stop
         stop-color="#17c2f9"
         offset="1"
         id="stop42" />
    </linearGradient>
    <linearGradient
       id="e-2"
       x1="5.2502999"
       x2="5.5640998"
       y1="287.29999"
       y2="285.59"
       gradientUnits="userSpaceOnUse"
       gradientTransform="matrix(1.000006,0,0,0.98969164,-0.69980233,2.2811275)">
      <stop
         stop-color="#08e3ff"
         offset="0"
         id="stop45" />
      <stop
         stop-color="#5cfbfc"
         offset="1"
         id="stop47" />
    </linearGradient>
    <radialGradient
       id="a-9"
       cx="8.6604996"
       cy="283.81"
       r="1.5041"
       gradientTransform="matrix(1.9106115,0.07726028,-0.04715128,1.1421041,4.7529303,-41.74234)"
       gradientUnits="userSpaceOnUse">
      <stop
         stop-color="#8df5fe"
         offset="0"
         id="stop50" />
      <stop
         stop-color="#46eaff"
         offset="1"
         id="stop52" />
    </radialGradient>
    <linearGradient
       id="d-1"
       x1="10.855"
       x2="11.759"
       y1="283.67999"
       y2="282.57001"
       gradientUnits="userSpaceOnUse"
       gradientTransform="matrix(1.000006,0,0,0.98969164,-0.69980233,2.2811275)">
      <stop
         stop-color="#6ee8fe"
         offset="0"
         id="stop55" />
      <stop
         stop-color="#a3f0fe"
         offset="1"
         id="stop57" />
    </linearGradient>
  </defs>
  <sodipodi:namedview
     id="base"
     pagecolor="#e2e2e2"
     bordercolor="#666666"
     borderopacity="1.0"
     inkscape:pageopacity="0"
     inkscape:pageshadow="2"
     inkscape:zoom="9.7248729"
     inkscape:cx="33.933605"
     inkscape:cy="38.663744"
     inkscape:document-units="px"
     inkscape:current-layer="layer1"
     inkscape:document-rotation="0"
     showgrid="true"
     units="px"
     inkscape:window-width="1920"
     inkscape:window-height="990"
     inkscape:window-x="0"
     inkscape:window-y="0"
     inkscape:window-maximized="1"
     inkscape:object-paths="true"
     inkscape:snap-grids="true"
     inkscape:snap-intersection-paths="true"
     inkscape:snap-smooth-nodes="true"
     inkscape:snap-midpoints="true"
     inkscape:showpageshadow="2"
     inkscape:pagecheckerboard="0"
     inkscape:deskcolor="#d1d1d1">
    <inkscape:grid
       id="grid2"
       units="px"
       originx="0"
       originy="0"
       spacingx="0.26458333"
       spacingy="0.26458333"
       empcolor="#0099e5"
       empopacity="0.30196078"
       color="#0099e5"
       opacity="0.14902"
       empspacing="5"
       dotted="false"
       gridanglex="30"
       gridanglez="30"
       visible="true" />
  </sodipodi:namedview>
  <metadata
     id="metadata1111">
    <rdf:RDF>
      <cc:Work
         rdf:about="">
        <dc:format>image/svg+xml</dc:format>
        <dc:type
           rdf:resource="http://purl.org/dc/dcmitype/StillImage" />
      </cc:Work>
    </rdf:RDF>
  </metadata>
  <g
     inkscape:label="Layer 1"
     inkscape:groupmode="layer"
     id="layer1">
    <g
       id="g918"
       transform="translate(0.47625037,0.92604234)">
      <rect
         ry="4.8357682"
         rx="4.8357682"
         style="fill:url(#linearGradient926);fill-opacity:1;stroke-width:6.09228"
         x="0.13229237"
         y="-16.457085"
         width="15.875001"
         height="15.875001"
         id="use1056"
         transform="rotate(90)"
         class="ColorScheme-Highlight" />
      <path
         d="m 5.344583,0.13229167 c -2.6384245,0 -4.76249953,2.12407483 -4.76249953,4.76249963 H 5.344583 Z"
         style="opacity:0.15;fill:url(#radialGradient25);fill-opacity:1;stroke-width:6.09228"
         id="path20" />
      <rect
         y="0.13229151"
         x="5.3445826"
         height="1.5875"
         width="6.3500004"
         id="rect20"
         style="opacity:0.15;fill:url(#linearGradient25);fill-opacity:1;stroke-width:4.83577;stroke-linecap:round;stroke-linejoin:round;paint-order:stroke fill markers" />
      <path
         d="m 0.58208347,11.244792 c 0,2.638424 2.12407503,4.762499 4.76249953,4.762499 v -4.762499 z"
         style="opacity:0.15;fill:url(#radialGradient29);fill-opacity:1;stroke-width:6.09228"
         id="use20" />
      <rect
         y="0.5820834"
         x="-11.244792"
         height="1.5875"
         width="6.3500004"
         id="use21"
         style="opacity:0.15;fill:url(#linearGradient34);fill-opacity:1;stroke-width:4.83577;stroke-linecap:round;stroke-linejoin:round;paint-order:stroke fill markers"
         transform="rotate(-90)" />
      <path
         d="m 11.694583,16.007291 c 2.638425,0 4.7625,-2.124074 4.7625,-4.762499 h -4.7625 z"
         style="opacity:0.15;fill:url(#radialGradient30);fill-opacity:1;stroke-width:6.09228"
         id="use22" />
      <rect
         y="-16.007292"
         x="-11.694584"
         height="1.5875"
         width="6.3500004"
         id="use23"
         style="opacity:0.15;fill:url(#linearGradient35);fill-opacity:1;stroke-width:4.83577;stroke-linecap:round;stroke-linejoin:round;paint-order:stroke fill markers"
         transform="scale(-1)" />
      <path
         d="m 16.457083,4.8947913 c 0,-2.6384245 -2.124074,-4.76249963 -4.7625,-4.76249963 V 4.8947913 Z"
         style="opacity:0.15;fill:url(#radialGradient31);fill-opacity:1;stroke-width:6.09228"
         id="use24" />
      <rect
         y="-16.457081"
         x="4.8947906"
         height="1.5875"
         width="6.3500004"
         id="use25"
         style="opacity:0.15;fill:url(#linearGradient36);fill-opacity:1;stroke-width:4.83577;stroke-linecap:round;stroke-linejoin:round;paint-order:stroke fill markers"
         transform="rotate(90)" />
      <path
         d="m 5.3445832,0.13229107 c -2.638425,0 -4.76250035,2.12407473 -4.76250035,4.76249973 H 5.3445832 Z"
         style="opacity:0.5;fill:url(#radialGradient15);fill-opacity:1;stroke-width:6.09228"
         id="path14" />
      <rect
         y="0.1322909"
         x="5.3445826"
         height="1.5875"
         width="6.3499999"
         id="rect14"
         style="opacity:0.5;fill:url(#linearGradient15);fill-opacity:1;stroke-width:4.83577;stroke-linecap:round;stroke-linejoin:round;paint-order:stroke fill markers" />
      <path
         d="m 11.694583,0.13229096 c 2.638425,0 4.7625,2.12407504 4.7625,4.76249734 h -4.7625 z"
         style="opacity:0.5;fill:url(#radialGradient17);fill-opacity:1;stroke-width:6.09228"
         id="use14" />
      <path
         id="path17"
         style="opacity:0.5;fill:url(#radialGradient18);fill-opacity:1;stroke-width:6.09228"
         d="m 5.3445834,16.00729 c -2.638425,0 -4.7625,-2.124075 -4.7625,-4.7625 h 4.7625 z" />
      <rect
         style="opacity:0.5;fill:url(#linearGradient18);fill-opacity:1;stroke-width:4.83577;stroke-linecap:round;stroke-linejoin:round;paint-order:stroke fill markers"
         id="rect17"
         width="6.3499994"
         height="1.5874999"
         x="5.3445826"
         y="-16.007292"
         transform="scale(1,-1)" />
      <path
         id="use17"
         style="opacity:0.5;fill:url(#radialGradient20);fill-opacity:1;stroke-width:6.09228"
         d="m 11.694582,16.007291 c 2.638425,0 4.7625,-2.124075 4.7625,-4.7625 h -4.7625 z" />
    </g>
    <rect
       width="13.229166"
       height="13.229166"
       x="2.3812499"
       y="2.3812497"
       rx="3.9026039"
       ry="3.7703123"
       id="rect2"
       style="fill:#1c2d4a;fill-opacity:1;stroke-width:0.264583" />
    <g
       transform="matrix(0.75620105,0,0,0.76408201,2.5871735,-211.45964)"
       id="g100"
       style="stroke-width:0.99484">
      <path
         transform="matrix(0.92176,-0.38775,0.4003,0.91639,0,0)"
         d="m -112.36,264.53 c 0.73666,0 1.5053,0.66631 1.5029,1.403 l -0.0216,6.6115 c -0.002,0.73668 -0.7176,1.1739 -1.4543,1.1739 -0.7367,0 -1.4573,-0.62167 -1.4582,-1.3583 l -0.008,-6.3663 c -9.2e-4,-0.73665 0.70255,-1.4638 1.4392,-1.4638 z"
         fill="url(#l)"
         style="fill:url(#l);stroke-width:0.99484;paint-order:normal"
         id="path76" />
      <path
         d="m 14.627,285.98 c -0.67903,-0.28564 -1.6543,0.0269 -1.9469,0.70293 l -2.6267,6.0671 c -0.29305,0.67586 0.17974,1.4485 0.85876,1.7341 0.67903,0.28564 1.604,-0.0991 1.8997,-0.7738 l 2.5558,-5.8308 c 0.29573,-0.6747 -0.06162,-1.6138 -0.74064,-1.8995 z"
         style="fill:url(#linearGradient1021);fill-opacity:1;stroke-width:0.99484;paint-order:normal"
         id="path78" />
      <path
         d="m 9.4787,286.92 c 0.74869,0.97276 1.3095,2.1081 1.7264,2.8238 0.41692,0.71564 0.48742,0.86607 0.80484,1.4515 0.31743,0.58542 1.0304,1.0651 1.7583,0.33374 -0.06556,0.16646 -0.63891,1.5792 -0.92787,2.1644 -0.19233,0.38953 -0.31829,0.52394 -0.65837,0.71608 -0.64137,0.36238 -1.6181,0.13869 -1.9925,-0.49576 l -3.2294,-5.4734 c 1.153,-0.69533 1.3235,-0.83713 2.5186,-1.5204 z"
         fill="url(#h-6)"
         style="fill:url(#h-6);stroke-width:0.99484;paint-order:normal"
         id="path80" />
      <path
         d="m 7.5214,287.46 c 0.83279,0.98115 2.8291,4.5533 3.1749,5.0159 0.34575,0.46256 0.98119,0.95821 1.6226,0.59583 0.34008,-0.19214 0.50591,-0.37395 0.78858,-0.70383 0.22693,-0.26483 0.48073,-0.57508 0.67748,-0.83303 0.0015,-0.002 0.0031,-0.003 0.0047,-0.004 -0.06556,0.16646 -0.65672,1.5764 -0.94568,2.1616 -0.19233,0.38953 -0.31828,0.52358 -0.65836,0.71572 -0.64137,0.36238 -1.6183,0.13887 -1.9926,-0.49558 l -3.2293,-5.4737 c 0.23046,-0.38236 0.31257,-0.51306 0.55777,-0.97893 z"
         fill="url(#g)"
         style="fill:url(#g-3);stroke-width:0.99484;paint-order:normal"
         id="path82" />
      <path
         d="m 9.4787,286.92 c 0.74869,0.97276 1.3095,2.1081 1.7264,2.8238 0.41692,0.71564 0.48742,0.86607 0.80484,1.4515 0.31743,0.58542 1.0304,1.0651 1.7583,0.33374 -0.06556,0.16646 -0.63891,1.5792 -0.92787,2.1644 -0.19233,0.38953 -0.31829,0.52394 -0.65837,0.71608 -0.64137,0.36238 -1.6181,0.13869 -1.9925,-0.49576 l -3.2294,-5.4734 c 1.153,-0.69533 1.3235,-0.83713 2.5186,-1.5204 z"
         style="fill:url(#i-5);fill-opacity:1;stroke-width:0.99484;paint-order:normal"
         id="path84" />
      <path
         d="m 9.7114,285.37 c -0.80203,0.16087 -1.789,0.92972 -2.2383,1.5136 -0.74869,0.97276 -1.3095,2.1081 -1.7264,2.8238 -0.41692,0.71564 -0.48742,0.86607 -0.80484,1.4515 -0.31743,0.58542 -1.0481,1.0681 -1.776,0.33669 0.065564,0.16646 0.65662,1.5762 0.94559,2.1614 0.19233,0.38953 0.31829,0.52394 0.65837,0.71608 0.64137,0.36238 1.6181,0.13869 1.9925,-0.49576 l 3.2294,-5.4734 c 0.18717,-0.31723 0.54304,-0.83477 1.0511,-1.347 0.54335,-0.54774 1.1977,-0.85163 0.97604,-1.2056 -0.47647,-0.76079 -1.4745,-0.65242 -2.2765,-0.49156 z"
         fill="url(#k)"
         style="fill:url(#k);stroke-width:0.99484;paint-order:normal"
         id="path86" />
      <path
         transform="matrix(0.26458,0,0,0.26458,0,280.07)"
         d="m 44.643,21.932 c -0.18143,-0.01305 -0.37094,-0.013 -0.57031,0.002 -2.7191,0.20398 -6.1896,3.0272 -7.5328,4.6097 -3.1476,3.7083 -11.577,18.472 -12.883,20.22 -1.3068,1.7483 -3.7084,3.6216 -6.1325,2.252 -1.2853,-0.7262 -1.9121,-1.4134 -2.9805,-2.6602 -0.85767,-1.0009 -1.8169,-2.1735 -2.5605,-3.1484 -0.0058,-0.0058 -0.01175,-0.0098 -0.01758,-0.01563 0.2478,0.62914 2.4821,5.958 3.5742,8.1699 0.72693,1.4722 1.203,1.9789 2.4883,2.7051 2.4241,1.3696 6.1164,0.52488 7.5312,-1.873 l 12.205,-20.688 c 0.70742,-1.199 1.9834,-3.1816 3.9038,-5.1174 1.8616,-1.8766 4.1184,-2.9594 3.9117,-4.1575 -0.32136,-0.12555 -0.54599,-0.27117 -0.93649,-0.29926 z"
         fill="url(#j)"
         style="fill:url(#j-6);stroke-width:0.99484;paint-order:normal"
         id="path88" />
      <path
         d="m 5.801,287.44 c -0.45626,-0.16508 -0.8287,-0.49434 -0.87998,-1.1136 -0.051274,-0.61926 0.31706,-1.0637 0.74271,-1.0421 0.42565,0.0216 0.57116,0.37722 0.47182,0.70906 -0.099344,0.33185 -0.19943,0.45763 -0.26153,0.68705 -0.0621,0.22942 -0.0636,0.46943 -0.07302,0.75954 z"
         fill="url(#e)"
         id="path90"
         style="fill:url(#e-2);stroke-width:0.99484" />
      <path
         d="m 6.9991,286.19 c -0.38464,-0.65771 -0.28243,-1.4041 -0.058465,-1.9544 0.22396,-0.55032 0.76373,-1.1601 1.3614,-1.3196 0.59767,-0.1595 1.1417,-0.0736 1.3865,0.53454 0.2448,0.60812 -0.28531,1.361 -0.91874,1.5368 -0.63343,0.1758 -1.219,0.51572 -1.7707,1.2027 z"
         fill="url(#a)"
         id="path92"
         style="fill:url(#a-9);stroke-width:0.99484" />
      <circle
         cx="11.342"
         cy="283.14001"
         r="0.67653"
         fill="url(#d)"
         style="fill:url(#d-1);stroke-width:0.99484;paint-order:normal"
         id="circle94" />
      <path
         transform="matrix(0.26458,0,0,0.26458,0,280.07)"
         d="m 40.379,19.467 c -1.2434,-0.0014 -2.5176,0.18998 -3.6543,0.41797 -1.4267,0.28617 -3.0086,1.1241 -4.4648,2.1523 -1.0042,1.2503 -1.745,2.7416 -1.8555,4.459 -0.29625,3.4556 2.1038,4.2135 4.1875,2.4375 0.31882,-0.27175 0.4981,-0.50086 0.6875,-0.71289 0.89753,-0.83277 6.3117,-2.9258 9.7676,-4.6992 0.58502,-0.59856 0.87259,-1.1468 0.51562,-1.7168 -1.1255,-1.7971 -3.1113,-2.3355 -5.1836,-2.3379 z"
         style="fill:#80e5ff;stroke-width:0.99484;paint-order:normal"
         id="path96" />
      <path
         transform="matrix(0.26458,0,0,0.26458,0,280.07)"
         d="m 44.643,21.932 c -0.18143,-0.01305 -0.37094,-0.01305 -0.57031,0.002 -2.7191,0.20398 -6.19,3.0269 -7.5332,4.6094 -0.35325,0.41618 -0.77928,0.98777 -1.248,1.6484 0.96322,1.4549 2.679,1.6774 4.3945,0.5625 0.59158,-0.75002 1.2594,-1.5401 2.0508,-2.3379 1.8616,-1.8766 4.1735,-3.0421 3.9668,-4.2402 -0.32136,-0.12555 -0.67,-0.21605 -1.0605,-0.24414 z"
         style="fill:#aaeeff;stroke-width:0.99484;paint-order:normal"
         id="path98" />
    </g>
  </g>
</svg>
