<?xml version="1.0" encoding="UTF-8" standalone="no"?>
<svg
   width="68"
   height="68"
   viewBox="0 0 17.991665 17.991665"
   version="1.1"
   id="svg1114"
   inkscape:version="1.4 (e7c3feb100, 2024-10-09)"
   sodipodi:docname="accessories-camera.svg"
   xmlns:inkscape="http://www.inkscape.org/namespaces/inkscape"
   xmlns:sodipodi="http://sodipodi.sourceforge.net/DTD/sodipodi-0.dtd"
   xmlns:xlink="http://www.w3.org/1999/xlink"
   xmlns="http://www.w3.org/2000/svg"
   xmlns:svg="http://www.w3.org/2000/svg"
   xmlns:rdf="http://www.w3.org/1999/02/22-rdf-syntax-ns#"
   xmlns:cc="http://creativecommons.org/ns#"
   xmlns:dc="http://purl.org/dc/elements/1.1/">
  <style
     type="text/css"
     id="current-color-scheme">.ColorScheme-Highlight { color:#5599ff; }
</style>
  <defs
     id="defs1108">
    <linearGradient
       id="linearGradient12"
       inkscape:collect="always">
      <stop
         style="stop-color:#ffffff;stop-opacity:0;"
         offset="0"
         id="stop10" />
      <stop
         id="stop11"
         offset="0.65909404"
         style="stop-color:#ffffff;stop-opacity:0" />
      <stop
         style="stop-color:#ffffff;stop-opacity:1;"
         offset="1"
         id="stop12" />
    </linearGradient>
    <linearGradient
       id="linearGradient9"
       inkscape:collect="always">
      <stop
         style="stop-color:#000000;stop-opacity:0;"
         offset="0"
         id="stop1" />
      <stop
         id="stop8"
         offset="0.66102529"
         style="stop-color:#000000;stop-opacity:0" />
      <stop
         style="stop-color:#000000;stop-opacity:1;"
         offset="1"
         id="stop9" />
    </linearGradient>
    <linearGradient
       id="linearGradient7"
       inkscape:collect="always">
      <stop
         style="stop-color:#000000;stop-opacity:0;"
         offset="0"
         id="stop5" />
      <stop
         id="stop6"
         offset="0.6586886"
         style="stop-color:#000000;stop-opacity:0" />
      <stop
         style="stop-color:#000000;stop-opacity:1;"
         offset="1"
         id="stop7" />
    </linearGradient>
    <linearGradient
       id="linearGradient4"
       inkscape:collect="always">
      <stop
         style="stop-color:#000000;stop-opacity:0;"
         offset="0"
         id="stop2" />
      <stop
         id="stop3"
         offset="0.67055255"
         style="stop-color:#000000;stop-opacity:0" />
      <stop
         style="stop-color:#000000;stop-opacity:1;"
         offset="1"
         id="stop4" />
    </linearGradient>
    <linearGradient
       inkscape:collect="always"
       id="linearGradient899">
      <stop
         style="stop-color:#b380ff;stop-opacity:1;"
         offset="0"
         id="stop895" />
      <stop
         style="stop-color:#67a3ff;stop-opacity:1;"
         offset="1"
         id="stop897" />
    </linearGradient>
    <linearGradient
       id="linearGradient1167"
       x1="40.751999"
       x2="40.751999"
       y1="28.507999"
       y2="17.205999"
       gradientUnits="userSpaceOnUse">
      <stop
         style="stop-color:#84fb6e;stop-opacity:1"
         stop-color="#0ab816"
         offset="0"
         id="stop1163" />
      <stop
         style="stop-color:#0dd41a;stop-opacity:1"
         stop-color="#0cf36c"
         offset="1"
         id="stop1165" />
    </linearGradient>
    <linearGradient
       id="cornerBevel"
       inkscape:collect="always">
      <stop
         style="stop-color:#000000;stop-opacity:0;"
         offset="0"
         id="stop2663" />
      <stop
         id="stop2671"
         offset="0.66666675"
         style="stop-color:#000000;stop-opacity:0" />
      <stop
         style="stop-color:#000000;stop-opacity:1;"
         offset="1"
         id="stop2661" />
    </linearGradient>
    <linearGradient
       id="bevel"
       inkscape:collect="always">
      <stop
         id="stop2685"
         offset="0"
         style="stop-color:#000000;stop-opacity:1;" />
      <stop
         id="stop2687"
         offset="1"
         style="stop-color:#000000;stop-opacity:0;" />
    </linearGradient>
    <linearGradient
       id="highlightCorner"
       inkscape:collect="always">
      <stop
         style="stop-color:#ffffff;stop-opacity:0;"
         offset="0"
         id="stop2613" />
      <stop
         id="stop2621"
         offset="0.66666669"
         style="stop-color:#ffffff;stop-opacity:0" />
      <stop
         style="stop-color:#ffffff;stop-opacity:1;"
         offset="1"
         id="stop2611" />
    </linearGradient>
    <linearGradient
       inkscape:collect="always"
       id="highlight">
      <stop
         style="stop-color:#ffffff;stop-opacity:1;"
         offset="0"
         id="stop2921" />
      <stop
         style="stop-color:#ffffff;stop-opacity:0;"
         offset="1"
         id="stop2923" />
    </linearGradient>
    <radialGradient
       inkscape:collect="always"
       xlink:href="#highlightCorner"
       id="radialGradient15"
       gradientUnits="userSpaceOnUse"
       gradientTransform="matrix(0.04294597,-12.079348,17.933991,0.06376112,14.524179,-50.373789)"
       cx="-4.5799766"
       cy="-0.50206107"
       fx="-4.5799766"
       fy="-0.50206107"
       r="0.39687499" />
    <linearGradient
       inkscape:collect="always"
       xlink:href="#highlight"
       id="linearGradient15"
       gradientUnits="userSpaceOnUse"
       x1="-3.8453064"
       y1="-1.1532172"
       x2="-3.8453064"
       y2="-0.8954913"
       gradientTransform="matrix(6.0923077,0,0,6.0923077,32.228528,7.1537621)" />
    <radialGradient
       inkscape:collect="always"
       xlink:href="#linearGradient12"
       id="radialGradient17"
       gradientUnits="userSpaceOnUse"
       gradientTransform="matrix(-0.02247554,-12.045403,-17.967828,0.03352619,1.6640208,-50.22331)"
       cx="-4.575222"
       cy="-0.55256462"
       fx="-4.575222"
       fy="-0.55256462"
       r="0.39687499" />
    <radialGradient
       inkscape:collect="always"
       xlink:href="#linearGradient7"
       id="radialGradient18"
       gradientUnits="userSpaceOnUse"
       gradientTransform="matrix(0.06461187,12.09952,17.933731,-0.09576873,14.609502,64.748231)"
       cx="-4.4284906"
       cy="-0.50121039"
       fx="-4.4284906"
       fy="-0.50121039"
       r="0.39687499" />
    <linearGradient
       inkscape:collect="always"
       xlink:href="#bevel"
       id="linearGradient18"
       gradientUnits="userSpaceOnUse"
       x1="-3.8415797"
       y1="-1.4506671"
       x2="-3.8406549"
       y2="-1.1968651"
       gradientTransform="matrix(6.0923076,0,0,6.0923076,32.228527,-7.1537627)" />
    <radialGradient
       inkscape:collect="always"
       xlink:href="#linearGradient4"
       id="radialGradient20"
       gradientUnits="userSpaceOnUse"
       gradientTransform="matrix(-0.01031383,11.991438,-17.967296,-0.01545561,1.7353715,64.305742)"
       cx="-4.4236727"
       cy="-0.55004197"
       fx="-4.4236727"
       fy="-0.55004197"
       r="0.39687499" />
    <radialGradient
       inkscape:collect="always"
       xlink:href="#cornerBevel"
       id="radialGradient25"
       gradientUnits="userSpaceOnUse"
       gradientTransform="matrix(12.184614,0,0,12.184614,59.63122,10.377613)"
       cx="-4.4568658"
       cy="-0.44864327"
       fx="-4.4568658"
       fy="-0.44864327"
       r="0.39687496" />
    <linearGradient
       inkscape:collect="always"
       xlink:href="#bevel"
       id="linearGradient25"
       gradientUnits="userSpaceOnUse"
       x1="-3.8487544"
       y1="-1.146081"
       x2="-3.8455966"
       y2="-0.890971"
       gradientTransform="matrix(6.0923077,0,0,6.0923077,32.228528,7.1537627)" />
    <radialGradient
       inkscape:collect="always"
       xlink:href="#cornerBevel"
       id="radialGradient29"
       gradientUnits="userSpaceOnUse"
       gradientTransform="matrix(0,-12.184614,12.184614,0,11.27353,-44.427768)"
       cx="-4.5705457"
       cy="-0.48653662"
       fx="-4.5705457"
       fy="-0.48653662"
       r="0.39687496" />
    <radialGradient
       inkscape:collect="always"
       xlink:href="#cornerBevel"
       id="radialGradient30"
       gradientUnits="userSpaceOnUse"
       gradientTransform="matrix(-12.184514,-0.04945749,0.04847411,-11.942243,-43.502155,3.8519053)"
       cx="-4.5342312"
       cy="-0.60337442"
       fx="-4.5342312"
       fy="-0.60337442"
       r="0.39687496" />
    <radialGradient
       inkscape:collect="always"
       xlink:href="#linearGradient9"
       id="radialGradient31"
       gradientUnits="userSpaceOnUse"
       gradientTransform="matrix(0,-12.151612,11.978956,0,18.475664,-48.770776)"
       cx="-4.4175329"
       cy="-0.56489283"
       fx="-4.4175329"
       fy="-0.56489283"
       r="0.39687496" />
    <linearGradient
       inkscape:collect="always"
       xlink:href="#bevel"
       id="linearGradient34"
       gradientUnits="userSpaceOnUse"
       x1="-3.99717"
       y1="-1.2218677"
       x2="-4.0003276"
       y2="-0.96675771"
       gradientTransform="matrix(6.0923077,0,0,6.0923077,17.025077,8.0496826)" />
    <linearGradient
       inkscape:collect="always"
       xlink:href="#bevel"
       id="linearGradient35"
       gradientUnits="userSpaceOnUse"
       x1="-4.0919032"
       y1="-1.4492278"
       x2="-4.0950613"
       y2="-1.1972755"
       gradientTransform="matrix(6.0923077,0,0,6.0923077,16.129161,-7.1537627)" />
    <linearGradient
       inkscape:collect="always"
       xlink:href="#bevel"
       id="linearGradient36"
       gradientUnits="userSpaceOnUse"
       x1="-3.8734362"
       y1="-1.3717227"
       x2="-3.8765941"
       y2="-1.116071"
       gradientTransform="matrix(6.0923077,0,0,6.0923077,31.33261,-8.0496826)" />
    <linearGradient
       id="paint2_linear_77:3-7"
       x1="79.398094"
       y1="-197.84389"
       x2="82.901054"
       y2="-199.97827"
       gradientUnits="userSpaceOnUse"
       gradientTransform="matrix(1.9248511,0,0,1.7314595,-40.88733,399.61741)">
      <stop
         stop-color="#EBFAFF"
         stop-opacity="0.1"
         id="stop29-5-7"
         offset="0"
         style="stop-color:#c3c3c3;stop-opacity:1;" />
      <stop
         offset="1"
         stop-color="#70A9FF"
         stop-opacity="0.5"
         id="stop30-0-1"
         style="stop-color:#05c7ff;stop-opacity:0.80000001;" />
    </linearGradient>
    <linearGradient
       inkscape:collect="always"
       xlink:href="#linearGradient899"
       id="linearGradient926"
       x1="0.98894888"
       y1="-9.3406019"
       x2="16.919081"
       y2="-9.2251434"
       gradientUnits="userSpaceOnUse"
       gradientTransform="translate(-0.92604234,0.47624996)" />
    <linearGradient
       id="a"
       x1="7.9369998"
       x2="7.9369998"
       y1="15.081"
       y2="1.852"
       gradientTransform="matrix(0.89278359,0,0,0.89278351,0.90778538,0.91466447)"
       gradientUnits="userSpaceOnUse">
      <stop
         offset="0"
         stop-color="#f1efeb"
         id="stop1-3" />
      <stop
         offset="1"
         stop-color="#fff"
         id="stop2-3" />
    </linearGradient>
    <linearGradient
       id="b-3"
       gradientTransform="matrix(0.9444453,0,0,0.94444519,-301.19123,-493.75403)"
       gradientUnits="userSpaceOnUse"
       x1="400.57141"
       x2="400.57141"
       y1="545.79797"
       y2="517.79797">
      <stop
         offset="0"
         stop-color="#eff0f1"
         id="stop7-6" />
      <stop
         offset="1"
         stop-color="#fcfcfc"
         id="stop9-7" />
    </linearGradient>
    <linearGradient
       id="d-9"
       gradientUnits="userSpaceOnUse"
       x1="13.571427"
       x2="13.142856"
       y1="21.285715"
       y2="3.2857144"
       gradientTransform="translate(-2.571427,-2.5714273)">
      <stop
         offset="0"
         stop-color="#788085"
         id="stop17-1" />
      <stop
         offset="1"
         stop-color="#9ba1a6"
         id="stop19-2" />
    </linearGradient>
    <linearGradient
       id="f-9-3"
       gradientUnits="userSpaceOnUse"
       x1="9.1779842"
       x2="11.427132"
       y1="7.534945"
       y2="9.7840929"
       gradientTransform="matrix(0.82283289,0,0,0.85921943,-0.93663235,-1.3146308)">
      <stop
         offset="0"
         id="stop2617-1-6" />
      <stop
         offset="1"
         stop-opacity="0"
         id="stop2619-2-0" />
    </linearGradient>
    <linearGradient
       id="linearGradient1000"
       x1="-25.122"
       x2="-15.582"
       y1="9.3423996"
       y2="9.3423996"
       gradientUnits="userSpaceOnUse"
       gradientTransform="matrix(1.1265644,0,0,1.1265644,30.833983,-2.9272276)">
      <stop
         stop-color="#407fff"
         offset="0"
         id="stop47" />
      <stop
         stop-color="#ff407a"
         offset="1"
         id="stop49" />
    </linearGradient>
    <linearGradient
       id="linearGradient952"
       x1="-20.384001"
       x2="-23.271999"
       y1="6.1331"
       y2="15.312"
       gradientUnits="userSpaceOnUse"
       gradientTransform="matrix(1.1265644,0,0,1.1265644,32.45849,-2.726057)">
      <stop
         stop-color="#232323"
         offset="0"
         id="stop40" />
      <stop
         stop-color="#323296"
         offset=".95004"
         id="stop42" />
      <stop
         stop-color="#232323"
         offset="1"
         id="stop44" />
    </linearGradient>
    <radialGradient
       id="radialGradient123159"
       cx="-24.473"
       cy="9.8347998"
       r="1.5211"
       gradientTransform="matrix(1.472694,0,0,1.472694,43.967571,-6.9281934)"
       gradientUnits="userSpaceOnUse">
      <stop
         stop-color="#291dc0"
         offset="0"
         id="stop29" />
      <stop
         stop-color="#1b1b23"
         offset="1"
         id="stop31" />
    </radialGradient>
    <linearGradient
       id="linearGradient123197"
       x1="-36.117001"
       x2="-33.220001"
       y1="10.638"
       y2="7.7403998"
       gradientUnits="userSpaceOnUse"
       gradientTransform="matrix(1.582147,0,0,1.582147,62.777717,-6.9871742)">
      <stop
         offset="0"
         id="stop35" />
      <stop
         stop-opacity="0"
         offset="1"
         id="stop37" />
    </linearGradient>
    <radialGradient
       id="radialGradient123131"
       cx="-24.473"
       cy="9.8347998"
       r="1.1409"
       gradientTransform="matrix(2.2469652,0,0,1.663153,62.863953,-8.8020552)"
       gradientUnits="userSpaceOnUse"
       xlink:href="#a-9" />
    <linearGradient
       id="a-9"
       x1="23.487"
       x2="23.487"
       y1="15.18"
       y2="32.912998"
       gradientTransform="matrix(0.12676,0,0,0.12676,-27.515,6.7925)"
       gradientUnits="userSpaceOnUse">
      <stop
         stop-color="#141414"
         offset="0"
         id="stop5-3" />
      <stop
         stop-color="#30277f"
         offset="1"
         id="stop7-6-3" />
    </linearGradient>
    <linearGradient
       id="linearGradient123149"
       x1="-24.478001"
       x2="-24.478001"
       y1="11.104"
       y2="8.4912004"
       gradientTransform="matrix(1.582147,0,0,1.582147,46.593934,-8.004653)"
       gradientUnits="userSpaceOnUse">
      <stop
         stop-color="#2d1edc"
         offset="0"
         id="stop22" />
      <stop
         stop-color="#141414"
         offset="1"
         id="stop24" />
    </linearGradient>
    <radialGradient
       id="radialGradient123155"
       cx="-24.473"
       cy="9.8347998"
       r="1.1409"
       gradientTransform="matrix(1.8041223,0,0,1.3354112,52.025763,-5.5780667)"
       gradientUnits="userSpaceOnUse"
       xlink:href="#a-9" />
    <linearGradient
       id="linearGradient123157"
       x1="-24.478001"
       x2="-24.478001"
       y1="11.104"
       y2="8.4912004"
       gradientTransform="matrix(1.2703058,0,0,1.2703058,38.961658,-4.9378192)"
       gradientUnits="userSpaceOnUse"
       xlink:href="#a-9" />
    <radialGradient
       id="c-7"
       cx="24.047001"
       cy="23.948999"
       r="2.9867001"
       gradientTransform="matrix(0.32528943,-5.9392216e-8,4.498202e-8,0.24635611,0.11361948,1.6450199)"
       gradientUnits="userSpaceOnUse">
      <stop
         stop-color="#2839e6"
         offset="0"
         id="stop10-7" />
      <stop
         stop-opacity="0"
         offset="1"
         id="stop12-5" />
    </radialGradient>
    <linearGradient
       id="linearGradient123141"
       x1="-24.485001"
       x2="-24.485001"
       y1="8.6962004"
       y2="9.7505999"
       gradientTransform="matrix(1.582147,0,0,1.582147,46.646147,-8.004653)"
       gradientUnits="userSpaceOnUse"
       xlink:href="#d-6" />
    <linearGradient
       id="d-6"
       x1="361.35999"
       x2="361.35999"
       y1="616.07001"
       y2="722.78998"
       gradientTransform="matrix(0.0040372,0,0,0.0040372,-25.925,7.1257)"
       gradientUnits="userSpaceOnUse">
      <stop
         stop-color="#fff"
         offset="0"
         id="stop15" />
      <stop
         stop-color="#fff"
         stop-opacity="0"
         offset="1"
         id="stop17" />
    </linearGradient>
    <linearGradient
       id="linearGradient123161"
       x1="361.35999"
       x2="361.35999"
       y1="616.07001"
       y2="722.78998"
       gradientTransform="matrix(0.00638745,0,0,0.00638745,5.6274015,3.269252)"
       gradientUnits="userSpaceOnUse"
       xlink:href="#d-6" />
    <linearGradient
       inkscape:collect="always"
       xlink:href="#linearGradient7-3"
       id="linearGradient8"
       x1="32.616634"
       y1="49.714283"
       x2="32.42321"
       y2="14.279902"
       gradientUnits="userSpaceOnUse"
       gradientTransform="matrix(0.19489396,0,0,0.19495612,2.4946427,19.328507)" />
    <linearGradient
       id="linearGradient7-3"
       inkscape:collect="always">
      <stop
         style="stop-color:#a8cbfe;stop-opacity:1"
         offset="0"
         id="stop7-67" />
      <stop
         style="stop-color:#cbbbe9;stop-opacity:1"
         offset="1"
         id="stop8-5" />
    </linearGradient>
  </defs>
  <sodipodi:namedview
     id="base"
     pagecolor="#e2e2e2"
     bordercolor="#666666"
     borderopacity="1.0"
     inkscape:pageopacity="0"
     inkscape:pageshadow="2"
     inkscape:zoom="13.753047"
     inkscape:cx="33.483489"
     inkscape:cy="32.392822"
     inkscape:document-units="px"
     inkscape:current-layer="layer1"
     inkscape:document-rotation="0"
     showgrid="false"
     units="px"
     inkscape:window-width="1920"
     inkscape:window-height="1002"
     inkscape:window-x="0"
     inkscape:window-y="0"
     inkscape:window-maximized="1"
     inkscape:object-paths="true"
     inkscape:snap-grids="true"
     inkscape:snap-intersection-paths="true"
     inkscape:snap-smooth-nodes="true"
     inkscape:snap-midpoints="true"
     inkscape:showpageshadow="2"
     inkscape:pagecheckerboard="0"
     inkscape:deskcolor="#d1d1d1">
    <inkscape:grid
       id="grid2"
       units="px"
       originx="0"
       originy="0"
       spacingx="0.26458333"
       spacingy="0.26458333"
       empcolor="#0099e5"
       empopacity="0.30196078"
       color="#0099e5"
       opacity="0.14902"
       empspacing="5"
       dotted="false"
       gridanglex="30"
       gridanglez="30"
       visible="false" />
  </sodipodi:namedview>
  <metadata
     id="metadata1111">
    <rdf:RDF>
      <cc:Work
         rdf:about="">
        <dc:format>image/svg+xml</dc:format>
        <dc:type
           rdf:resource="http://purl.org/dc/dcmitype/StillImage" />
      </cc:Work>
    </rdf:RDF>
  </metadata>
  <g
     inkscape:label="Layer 1"
     inkscape:groupmode="layer"
     id="layer1">
    <g
       id="g918"
       transform="translate(0.47625037,0.92604234)">
      <rect
         ry="4.8357682"
         rx="4.8357682"
         style="fill:url(#linearGradient926);fill-opacity:1;stroke-width:6.09228"
         x="0.13229237"
         y="-16.457085"
         width="15.875001"
         height="15.875001"
         id="use1056"
         transform="rotate(90)"
         class="ColorScheme-Highlight" />
      <path
         d="m 5.344583,0.13229167 c -2.6384245,0 -4.76249953,2.12407483 -4.76249953,4.76249963 H 5.344583 Z"
         style="opacity:0.15;fill:url(#radialGradient25);fill-opacity:1;stroke-width:6.09228"
         id="path20" />
      <rect
         y="0.13229151"
         x="5.3445826"
         height="1.5875"
         width="6.3500004"
         id="rect20"
         style="opacity:0.15;fill:url(#linearGradient25);fill-opacity:1;stroke-width:4.83577;stroke-linecap:round;stroke-linejoin:round;paint-order:stroke fill markers" />
      <path
         d="m 0.58208347,11.244792 c 0,2.638424 2.12407503,4.762499 4.76249953,4.762499 v -4.762499 z"
         style="opacity:0.15;fill:url(#radialGradient29);fill-opacity:1;stroke-width:6.09228"
         id="use20" />
      <rect
         y="0.5820834"
         x="-11.244792"
         height="1.5875"
         width="6.3500004"
         id="use21"
         style="opacity:0.15;fill:url(#linearGradient34);fill-opacity:1;stroke-width:4.83577;stroke-linecap:round;stroke-linejoin:round;paint-order:stroke fill markers"
         transform="rotate(-90)" />
      <path
         d="m 11.694583,16.007291 c 2.638425,0 4.7625,-2.124074 4.7625,-4.762499 h -4.7625 z"
         style="opacity:0.15;fill:url(#radialGradient30);fill-opacity:1;stroke-width:6.09228"
         id="use22" />
      <rect
         y="-16.007292"
         x="-11.694584"
         height="1.5875"
         width="6.3500004"
         id="use23"
         style="opacity:0.15;fill:url(#linearGradient35);fill-opacity:1;stroke-width:4.83577;stroke-linecap:round;stroke-linejoin:round;paint-order:stroke fill markers"
         transform="scale(-1)" />
      <path
         d="m 16.457083,4.8947913 c 0,-2.6384245 -2.124074,-4.76249963 -4.7625,-4.76249963 V 4.8947913 Z"
         style="opacity:0.15;fill:url(#radialGradient31);fill-opacity:1;stroke-width:6.09228"
         id="use24" />
      <rect
         y="-16.457081"
         x="4.8947906"
         height="1.5875"
         width="6.3500004"
         id="use25"
         style="opacity:0.15;fill:url(#linearGradient36);fill-opacity:1;stroke-width:4.83577;stroke-linecap:round;stroke-linejoin:round;paint-order:stroke fill markers"
         transform="rotate(90)" />
      <path
         d="m 5.3445832,0.13229107 c -2.638425,0 -4.76250035,2.12407473 -4.76250035,4.76249973 H 5.3445832 Z"
         style="opacity:0.5;fill:url(#radialGradient15);fill-opacity:1;stroke-width:6.09228"
         id="path14" />
      <rect
         y="0.1322909"
         x="5.3445826"
         height="1.5875"
         width="6.3499999"
         id="rect14"
         style="opacity:0.5;fill:url(#linearGradient15);fill-opacity:1;stroke-width:4.83577;stroke-linecap:round;stroke-linejoin:round;paint-order:stroke fill markers" />
      <path
         d="m 11.694583,0.13229096 c 2.638425,0 4.7625,2.12407504 4.7625,4.76249734 h -4.7625 z"
         style="opacity:0.5;fill:url(#radialGradient17);fill-opacity:1;stroke-width:6.09228"
         id="use14" />
      <path
         id="path17"
         style="opacity:0.5;fill:url(#radialGradient18);fill-opacity:1;stroke-width:6.09228"
         d="m 5.3445834,16.00729 c -2.638425,0 -4.7625,-2.124075 -4.7625,-4.7625 h 4.7625 z" />
      <rect
         style="opacity:0.5;fill:url(#linearGradient18);fill-opacity:1;stroke-width:4.83577;stroke-linecap:round;stroke-linejoin:round;paint-order:stroke fill markers"
         id="rect17"
         width="6.3499994"
         height="1.5874999"
         x="5.3445826"
         y="-16.007292"
         transform="scale(1,-1)" />
      <path
         id="use17"
         style="opacity:0.5;fill:url(#radialGradient20);fill-opacity:1;stroke-width:6.09228"
         d="m 11.694582,16.007291 c 2.638425,0 4.7625,-2.124075 4.7625,-4.7625 h -4.7625 z" />
    </g>
    <rect
       width="13.229166"
       height="13.229165"
       x="2.3812497"
       y="2.3812501"
       fill="url(#a)"
       rx="3.6849496"
       ry="3.7431052"
       id="rect2"
       style="fill:url(#a);stroke-width:0.264582" />
    <g
       id="g1"
       transform="matrix(1.0798898,0,0,1.085714,-0.43295205,-18.868561)">
      <path
         style="opacity:0.2;stroke-width:0.194925"
         d="m 8.7320105,21.472992 c -0.3782067,0 -0.5478776,0.01446 -0.8267768,0.07158 -0.230529,0.04723 -0.6039712,0.153544 -0.6554829,0.186579 -0.013063,0.0084 0.1371235,0.164411 0.724762,0.754694 0.407521,0.409353 0.7484067,0.744793 0.7574977,0.744793 0.0091,0 0.3499797,-0.33544 0.7574978,-0.744793 0.5876387,-0.590283 0.7378227,-0.746319 0.7247627,-0.754694 -0.05151,-0.03303 -0.4249522,-0.139352 -0.6554836,-0.186579 -0.2788963,-0.05713 -0.4485696,-0.07158 -0.8267769,-0.07158 z m 2.5595055,0.834656 c -0.01776,-0.0072 -1.7471937,1.724231 -1.7471932,1.749274 0,0.01815 0.8658992,0.893295 0.8838742,0.893295 0.0061,0 0.08768,-0.07773 0.18119,-0.17211 0.09351,-0.09438 0.282328,-0.2808 0.419479,-0.414282 l 0.248947,-0.242171 0.04568,0.0693 c 0.111432,0.172021 0.254392,0.501135 0.322032,0.739463 0.08324,0.293287 0.110389,0.50038 0.110389,0.840748 0,0.289856 -0.0082,0.387094 -0.05558,0.61533 -0.05122,0.246655 -0.12555,0.467409 -0.229914,0.687677 -0.07447,0.157176 -0.177514,0.333558 -0.194894,0.333558 -0.0073,0 -0.582388,-0.571572 -1.2782303,-1.270261 L 8.7320105,24.867208 7.4667224,26.137469 c -0.6958388,0.698689 -1.2708908,1.270261 -1.2782301,1.270261 -0.017378,0 -0.1204224,-0.176382 -0.1948941,-0.333558 -0.1335778,-0.281934 -0.2249109,-0.592781 -0.2710244,-0.922995 -0.019495,-0.139623 -0.019495,-0.620398 0,-0.760024 0.032735,-0.234408 0.088762,-0.463222 0.1682483,-0.683108 0.051487,-0.142437 0.1817121,-0.412123 0.2497079,-0.517091 l 0.045678,-0.0693 0.2382882,0.23151 c 0.1311124,0.127416 0.3199291,0.313839 0.4194789,0.414282 0.099552,0.100443 0.1857721,0.182771 0.1918491,0.182771 0.017976,0 0.8838744,-0.87514 0.8838744,-0.893295 0,-0.0091 -0.3901834,-0.408325 -0.8671261,-0.887203 -0.8383581,-0.841762 -0.8683248,-0.870163 -0.8922487,-0.855217 -0.048568,0.03035 -0.2361202,0.187713 -0.3479162,0.291672 -1.0093904,0.93864 -1.5114971,2.334886 -1.3330442,3.705689 0.091067,0.69952 0.3522371,1.367634 0.7605433,1.944993 0.1453917,0.205592 0.2529745,0.331998 0.4666798,0.546029 0.1880864,0.188371 0.444306,0.412113 0.4727698,0.412759 0.00597,1.33e-4 0.5792428,-0.570031 1.2736626,-1.267215 0.6944161,-0.697184 1.2699604,-1.267977 1.2789914,-1.267977 0.00904,0 0.5800587,0.565828 1.2683337,1.257315 0.688274,0.691489 1.259653,1.262615 1.270617,1.268738 0.04941,0.02759 0.580343,-0.468438 0.806983,-0.753932 0.389614,-0.490792 0.670677,-1.066091 0.818403,-1.673119 0.146186,-0.600723 0.161998,-1.258139 0.04415,-1.851322 -0.177641,-0.894191 -0.628531,-1.704497 -1.294217,-2.325765 -0.111642,-0.104192 -0.327795,-0.283706 -0.354769,-0.294719 z m -2.5595055,6.010131 c -0.00907,0 -0.3441784,0.330042 -0.7445556,0.734132 l -0.7278073,0.734893 0.06395,0.02437 c 0.3005725,0.11361 0.788576,0.210023 1.1686026,0.230748 0.229212,0.01249 0.237472,0.01197 0.4537371,0 0.2375022,-0.01311 0.4038348,-0.03381 0.6311217,-0.07844 0.1679202,-0.03297 0.443067,-0.107305 0.564888,-0.153071 l 0.06243,-0.02361 -0.7278075,-0.734894 C 9.0761919,28.64782 8.7410662,28.317778 8.7320105,28.317778 Z"
         id="path2" />
      <path
         style="fill:#3485fd;stroke-width:0.194925"
         d="m 8.9461376,29.847254 c 0.2375018,-0.01311 0.4039157,-0.03378 0.6312026,-0.0784 0.1679202,-0.03297 0.4427158,-0.107648 0.5645368,-0.153414 l 0.06258,-0.0235 -0.7279556,-0.734707 C 9.076126,28.45314 8.7411352,28.12252 8.7320796,28.12252 c -0.00907,0 -0.3440464,0.33062 -0.7444237,0.734709 l -0.7279549,0.734707 0.063822,0.02413 c 0.3005724,0.11361 0.7884786,0.209907 1.1685049,0.230632 0.2292122,0.01249 0.237844,0.01252 0.4541097,5.56e-4 z"
         id="path3" />
      <path
         style="fill:url(#linearGradient8);stroke-width:0.194925"
         d="m 7.4531641,27.753251 c 0.694416,-0.697184 1.269966,-1.267608 1.278997,-1.267608 0.00904,0 0.5795523,0.565766 1.2678269,1.257253 0.688274,0.691489 1.260379,1.262262 1.271343,1.268385 0.04941,0.02759 0.57987,-0.468024 0.806511,-0.753518 0.389614,-0.490792 0.671097,-1.065889 0.818822,-1.672917 0.146187,-0.600723 0.161805,-1.258623 0.04396,-1.851807 -0.177641,-0.89419 -0.62836,-1.704133 -1.294046,-2.325402 -0.111641,-0.104191 -0.328162,-0.28414 -0.355135,-0.295152 -0.01776,-0.0072 -1.747039,1.724644 -1.747039,1.749686 0,0.01816 0.865787,0.892916 0.883762,0.892916 0.0061,0 0.08767,-0.07723 0.181179,-0.17161 0.09351,-0.09438 0.282234,-0.280816 0.419385,-0.414298 l 0.249365,-0.242691 0.04524,0.06984 c 0.111431,0.172021 0.254773,0.500495 0.322413,0.738822 0.08324,0.293288 0.110496,0.500757 0.110496,0.841125 0,0.289856 -0.0089,0.386919 -0.05628,0.615155 -0.05122,0.246655 -0.124948,0.467928 -0.229312,0.688196 -0.07447,0.157176 -0.177524,0.333515 -0.194905,0.333515 -0.0073,0 -0.582669,-0.571657 -1.2785114,-1.270345 L 8.7320796,24.672449 7.4669137,25.942795 C 6.7710749,26.641483 6.1957446,27.21314 6.188405,27.21314 c -0.017378,0 -0.1204356,-0.176339 -0.1949074,-0.333515 -0.1335775,-0.281934 -0.2248487,-0.592856 -0.2709619,-0.92307 -0.019494,-0.139623 -0.019494,-0.620939 0,-0.760565 0.032735,-0.234407 0.089178,-0.46291 0.1686642,-0.682796 0.051487,-0.142436 0.1816246,-0.411896 0.2496203,-0.516865 l 0.045239,-0.06984 0.2383896,0.231671 c 0.1311121,0.127416 0.3198396,0.313852 0.4193894,0.414295 0.099552,0.100443 0.1859769,0.182628 0.1920536,0.182628 0.017978,0 0.8838583,-0.87466 0.8838583,-0.892815 0,-0.0091 -0.390225,-0.408421 -0.8671676,-0.887299 -0.8383581,-0.841763 -0.8679899,-0.870178 -0.891914,-0.855232 -0.048568,0.03035 -0.2364944,0.187733 -0.3482904,0.291693 -1.0093904,0.93864 -1.5117668,2.334914 -1.3333139,3.705718 0.091068,0.69952 0.3522546,1.367373 0.7605607,1.944731 0.1453917,0.205592 0.2535464,0.331975 0.4672514,0.546006 0.1880868,0.188371 0.4443783,0.412076 0.4728422,0.412722 0.00597,1.34e-4 0.5790255,-0.570176 1.2734453,-1.26736 z"
         id="path4" />
      <path
         style="fill:#984ee5;stroke-width:0.194925"
         d="m 9.4895501,22.291269 c 0.5876389,-0.590283 0.7375399,-0.746466 0.7244799,-0.75484 -0.05151,-0.03304 -0.4248067,-0.139264 -0.6553382,-0.186491 -0.2788962,-0.05713 -0.4484049,-0.07187 -0.8266122,-0.07187 -0.378207,0 -0.5477155,0.01475 -0.8266146,0.07187 -0.2305293,0.04723 -0.6038241,0.153455 -0.6553356,0.186491 -0.013062,0.0084 0.1368388,0.164557 0.7244773,0.75484 0.407521,0.409353 0.7483818,0.74428 0.7574729,0.74428 0.0091,0 0.3499524,-0.334927 0.7574705,-0.74428 z"
         id="path5" />
      <path
         style="opacity:0.2;fill:#ffffff;stroke-width:0.194925"
         d="m 8.7320105,21.278069 c -0.3782067,0 -0.5478774,0.01446 -0.8267765,0.07159 -0.2305291,0.04723 -0.6039715,0.153543 -0.6554832,0.186579 -0.00524,0.0034 0.049753,0.06363 0.129041,0.146979 0.1422395,-0.04547 0.3662733,-0.105789 0.5264422,-0.138602 0.2788991,-0.05712 0.4485698,-0.07158 0.8267765,-0.07158 0.3782073,0 0.5478806,0.01445 0.8267769,0.07158 0.1601705,0.03281 0.384203,0.09314 0.5264426,0.138602 0.07929,-0.08335 0.134284,-0.143617 0.129041,-0.146979 -0.05151,-0.03304 -0.4249522,-0.139352 -0.6554836,-0.186579 -0.2788963,-0.05713 -0.4485696,-0.07159 -0.8267769,-0.07159 z m 2.5595055,0.834656 c -0.01776,-0.0073 -1.7471939,1.724231 -1.7471934,1.749274 0,0.002 0.055344,0.05678 0.094402,0.09557 0.2514698,-0.270639 1.6365824,-1.65651 1.6527914,-1.649892 0.02697,0.01101 0.243127,0.190527 0.354768,0.294719 0.665686,0.621268 1.116577,1.431574 1.294218,2.325765 0.04458,0.224423 0.0664,0.458315 0.07156,0.694531 0.0059,-0.302349 -0.01473,-0.60342 -0.07156,-0.889487 -0.177641,-0.894191 -0.628532,-1.704497 -1.294218,-2.325766 -0.111641,-0.104191 -0.327794,-0.283706 -0.354768,-0.294718 z m -5.1205338,0.0049 c -0.00475,-0.001 -0.00767,3.5e-5 -0.01066,0.0019 -0.048568,0.03035 -0.2361205,0.187713 -0.3479162,0.291673 -0.8967755,0.833918 -1.3848724,2.029275 -1.3589287,3.246857 0.027377,-1.149252 0.5101443,-2.26261 1.3589287,-3.051901 0.1117957,-0.10396 0.2993482,-0.261327 0.3479162,-0.291673 0.023924,-0.01495 0.053891,0.01345 0.8922487,0.855218 0.4241556,0.425877 0.6976969,0.707437 0.7712016,0.788963 0.039971,-0.03951 0.095924,-0.09475 0.095924,-0.09672 0,-0.0091 -0.3901834,-0.408324 -0.867126,-0.887202 C 6.3190074,22.238197 6.204205,22.12455 6.17098,22.117618 Z m 2.5610283,2.554611 -1.2652879,1.270261 c -0.695839,0.698688 -1.270891,1.270261 -1.2782303,1.270261 -0.017378,0 -0.1204224,-0.176382 -0.1948941,-0.333558 -0.1335778,-0.281935 -0.2249109,-0.592782 -0.2710244,-0.922996 -0.00475,-0.034 -0.00442,-0.120461 -0.00685,-0.185056 -0.00451,0.119484 -0.00494,0.252347 -0.00266,0.371255 8.202e-4,-0.06015 6.085e-4,-0.121571 0.00266,-0.176298 0.00243,0.06459 0.00212,0.151059 0.00685,0.185055 0.046113,0.330214 0.1374466,0.641061 0.2710244,0.922996 0.074472,0.157176 0.1775153,0.333558 0.1948941,0.333558 0.00734,0 0.5823913,-0.571573 1.2782303,-1.270261 l 1.2652879,-1.270261 1.2652882,1.270261 c 0.6958423,0.698688 1.2708983,1.270261 1.2782303,1.270261 0.01738,0 0.120422,-0.176382 0.194894,-0.333558 0.104364,-0.220268 0.178696,-0.441022 0.229914,-0.687677 0.02943,-0.141726 0.04134,-0.246593 0.04796,-0.364782 7.67e-4,0.02441 0.0021,0.04815 0.0038,0.07044 7.93e-4,-0.04347 0.0038,-0.07083 0.0038,-0.126036 0,-0.05417 -0.0061,-0.09106 -0.0076,-0.139364 -0.0066,0.118189 -0.01853,0.223056 -0.04796,0.364782 -0.05122,0.246655 -0.12555,0.467409 -0.229914,0.687677 -0.07447,0.157176 -0.177514,0.333558 -0.194894,0.333558 -0.0073,0 -0.582389,-0.571573 -1.2782306,-1.270261 z m 0,3.450571 c -0.00907,0 -0.3441784,0.330042 -0.7445556,0.734131 l -0.7278071,0.734893 0.06395,0.02437 c 0.023474,0.0089 0.053913,0.01663 0.079937,0.02513 l 0.5839206,-0.589438 c 0.4003772,-0.404089 0.7354852,-0.734131 0.7445556,-0.734131 0.00905,0 0.3441814,0.330042 0.744556,0.734131 l 0.580875,0.586392 c 0.02782,-0.0073 0.06628,-0.016 0.08451,-0.02285 l 0.06243,-0.02361 -0.727807,-0.734893 C 9.0761919,28.452895 8.7410662,28.122853 8.7320105,28.122853 Z"
         id="path6" />
    </g>
  </g>
</svg>
