<?xml version="1.0" encoding="UTF-8" standalone="no"?>
<svg
   width="68"
   height="68"
   viewBox="0 0 17.991665 17.991665"
   version="1.1"
   id="svg1114"
   inkscape:version="1.3.2 (091e20ef0f, 2023-11-25)"
   sodipodi:docname="wayland.svg"
   xmlns:inkscape="http://www.inkscape.org/namespaces/inkscape"
   xmlns:sodipodi="http://sodipodi.sourceforge.net/DTD/sodipodi-0.dtd"
   xmlns:xlink="http://www.w3.org/1999/xlink"
   xmlns="http://www.w3.org/2000/svg"
   xmlns:svg="http://www.w3.org/2000/svg"
   xmlns:rdf="http://www.w3.org/1999/02/22-rdf-syntax-ns#"
   xmlns:cc="http://creativecommons.org/ns#"
   xmlns:dc="http://purl.org/dc/elements/1.1/">
  <style
     type="text/css"
     id="current-color-scheme">.ColorScheme-Highlight { color:#5599ff; }
</style>
  <defs
     id="defs1108">
    <linearGradient
       id="linearGradient12"
       inkscape:collect="always">
      <stop
         style="stop-color:#ffffff;stop-opacity:0;"
         offset="0"
         id="stop10" />
      <stop
         id="stop11"
         offset="0.65909404"
         style="stop-color:#ffffff;stop-opacity:0" />
      <stop
         style="stop-color:#ffffff;stop-opacity:1;"
         offset="1"
         id="stop12" />
    </linearGradient>
    <linearGradient
       id="linearGradient9"
       inkscape:collect="always">
      <stop
         style="stop-color:#000000;stop-opacity:0;"
         offset="0"
         id="stop1" />
      <stop
         id="stop8"
         offset="0.66102529"
         style="stop-color:#000000;stop-opacity:0" />
      <stop
         style="stop-color:#000000;stop-opacity:1;"
         offset="1"
         id="stop9" />
    </linearGradient>
    <linearGradient
       id="linearGradient7"
       inkscape:collect="always">
      <stop
         style="stop-color:#000000;stop-opacity:0;"
         offset="0"
         id="stop5" />
      <stop
         id="stop6"
         offset="0.6586886"
         style="stop-color:#000000;stop-opacity:0" />
      <stop
         style="stop-color:#000000;stop-opacity:1;"
         offset="1"
         id="stop7" />
    </linearGradient>
    <linearGradient
       id="linearGradient4"
       inkscape:collect="always">
      <stop
         style="stop-color:#000000;stop-opacity:0;"
         offset="0"
         id="stop2" />
      <stop
         id="stop3"
         offset="0.67055255"
         style="stop-color:#000000;stop-opacity:0" />
      <stop
         style="stop-color:#000000;stop-opacity:1;"
         offset="1"
         id="stop4" />
    </linearGradient>
    <linearGradient
       inkscape:collect="always"
       id="linearGradient899">
      <stop
         style="stop-color:#4f55ca;stop-opacity:1;"
         offset="0"
         id="stop895" />
      <stop
         style="stop-color:#00ccff;stop-opacity:1;"
         offset="0.2477037"
         id="stop14" />
      <stop
         style="stop-color:#b380ff;stop-opacity:1;"
         offset="0.50004524"
         id="stop13" />
      <stop
         style="stop-color:#fdb81c;stop-opacity:1;"
         offset="1"
         id="stop897" />
    </linearGradient>
    <linearGradient
       id="linearGradient1167"
       x1="40.751999"
       x2="40.751999"
       y1="28.507999"
       y2="17.205999"
       gradientUnits="userSpaceOnUse">
      <stop
         style="stop-color:#84fb6e;stop-opacity:1"
         stop-color="#0ab816"
         offset="0"
         id="stop1163" />
      <stop
         style="stop-color:#0dd41a;stop-opacity:1"
         stop-color="#0cf36c"
         offset="1"
         id="stop1165" />
    </linearGradient>
    <linearGradient
       id="cornerBevel"
       inkscape:collect="always">
      <stop
         style="stop-color:#000000;stop-opacity:0;"
         offset="0"
         id="stop2663" />
      <stop
         id="stop2671"
         offset="0.66666675"
         style="stop-color:#000000;stop-opacity:0" />
      <stop
         style="stop-color:#000000;stop-opacity:1;"
         offset="1"
         id="stop2661" />
    </linearGradient>
    <linearGradient
       id="bevel"
       inkscape:collect="always">
      <stop
         id="stop2685"
         offset="0"
         style="stop-color:#000000;stop-opacity:1;" />
      <stop
         id="stop2687"
         offset="1"
         style="stop-color:#000000;stop-opacity:0;" />
    </linearGradient>
    <linearGradient
       id="highlightCorner"
       inkscape:collect="always">
      <stop
         style="stop-color:#ffffff;stop-opacity:0;"
         offset="0"
         id="stop2613" />
      <stop
         id="stop2621"
         offset="0.66666669"
         style="stop-color:#ffffff;stop-opacity:0" />
      <stop
         style="stop-color:#ffffff;stop-opacity:1;"
         offset="1"
         id="stop2611" />
    </linearGradient>
    <linearGradient
       inkscape:collect="always"
       id="highlight">
      <stop
         style="stop-color:#ffffff;stop-opacity:1;"
         offset="0"
         id="stop2921" />
      <stop
         style="stop-color:#ffffff;stop-opacity:0;"
         offset="1"
         id="stop2923" />
    </linearGradient>
    <radialGradient
       inkscape:collect="always"
       xlink:href="#highlightCorner"
       id="radialGradient15"
       gradientUnits="userSpaceOnUse"
       gradientTransform="matrix(0.04294597,-12.079348,17.933991,0.06376112,14.524179,-50.373789)"
       cx="-4.5799766"
       cy="-0.50206107"
       fx="-4.5799766"
       fy="-0.50206107"
       r="0.39687499" />
    <linearGradient
       inkscape:collect="always"
       xlink:href="#highlight"
       id="linearGradient15"
       gradientUnits="userSpaceOnUse"
       x1="-3.8453064"
       y1="-1.1532172"
       x2="-3.8453064"
       y2="-0.8954913"
       gradientTransform="matrix(6.0923077,0,0,6.0923077,32.228528,7.1537621)" />
    <radialGradient
       inkscape:collect="always"
       xlink:href="#linearGradient12"
       id="radialGradient17"
       gradientUnits="userSpaceOnUse"
       gradientTransform="matrix(-0.02247554,-12.045403,-17.967828,0.03352619,1.6640208,-50.22331)"
       cx="-4.575222"
       cy="-0.55256462"
       fx="-4.575222"
       fy="-0.55256462"
       r="0.39687499" />
    <radialGradient
       inkscape:collect="always"
       xlink:href="#linearGradient7"
       id="radialGradient18"
       gradientUnits="userSpaceOnUse"
       gradientTransform="matrix(0.06461187,12.09952,17.933731,-0.09576873,14.609502,64.748231)"
       cx="-4.4284906"
       cy="-0.50121039"
       fx="-4.4284906"
       fy="-0.50121039"
       r="0.39687499" />
    <linearGradient
       inkscape:collect="always"
       xlink:href="#bevel"
       id="linearGradient18"
       gradientUnits="userSpaceOnUse"
       x1="-3.8415797"
       y1="-1.4506671"
       x2="-3.8406549"
       y2="-1.1968651"
       gradientTransform="matrix(6.0923076,0,0,6.0923076,32.228527,-7.1537627)" />
    <radialGradient
       inkscape:collect="always"
       xlink:href="#linearGradient4"
       id="radialGradient20"
       gradientUnits="userSpaceOnUse"
       gradientTransform="matrix(-0.01031383,11.991438,-17.967296,-0.01545561,1.7353715,64.305742)"
       cx="-4.4236727"
       cy="-0.55004197"
       fx="-4.4236727"
       fy="-0.55004197"
       r="0.39687499" />
    <radialGradient
       inkscape:collect="always"
       xlink:href="#cornerBevel"
       id="radialGradient25"
       gradientUnits="userSpaceOnUse"
       gradientTransform="matrix(12.184614,0,0,12.184614,59.63122,10.377613)"
       cx="-4.4568658"
       cy="-0.44864327"
       fx="-4.4568658"
       fy="-0.44864327"
       r="0.39687496" />
    <linearGradient
       inkscape:collect="always"
       xlink:href="#bevel"
       id="linearGradient25"
       gradientUnits="userSpaceOnUse"
       x1="-3.8487544"
       y1="-1.146081"
       x2="-3.8455966"
       y2="-0.890971"
       gradientTransform="matrix(6.0923077,0,0,6.0923077,32.228528,7.1537627)" />
    <radialGradient
       inkscape:collect="always"
       xlink:href="#cornerBevel"
       id="radialGradient29"
       gradientUnits="userSpaceOnUse"
       gradientTransform="matrix(0,-12.184614,12.184614,0,11.27353,-44.427768)"
       cx="-4.5705457"
       cy="-0.48653662"
       fx="-4.5705457"
       fy="-0.48653662"
       r="0.39687496" />
    <radialGradient
       inkscape:collect="always"
       xlink:href="#cornerBevel"
       id="radialGradient30"
       gradientUnits="userSpaceOnUse"
       gradientTransform="matrix(-12.184514,-0.04945749,0.04847411,-11.942243,-43.502155,3.8519053)"
       cx="-4.5342312"
       cy="-0.60337442"
       fx="-4.5342312"
       fy="-0.60337442"
       r="0.39687496" />
    <radialGradient
       inkscape:collect="always"
       xlink:href="#linearGradient9"
       id="radialGradient31"
       gradientUnits="userSpaceOnUse"
       gradientTransform="matrix(0,-12.151612,11.978956,0,18.475664,-48.770776)"
       cx="-4.4175329"
       cy="-0.56489283"
       fx="-4.4175329"
       fy="-0.56489283"
       r="0.39687496" />
    <linearGradient
       inkscape:collect="always"
       xlink:href="#bevel"
       id="linearGradient34"
       gradientUnits="userSpaceOnUse"
       x1="-3.99717"
       y1="-1.2218677"
       x2="-4.0003276"
       y2="-0.96675771"
       gradientTransform="matrix(6.0923077,0,0,6.0923077,17.025077,8.0496826)" />
    <linearGradient
       inkscape:collect="always"
       xlink:href="#bevel"
       id="linearGradient35"
       gradientUnits="userSpaceOnUse"
       x1="-4.0919032"
       y1="-1.4492278"
       x2="-4.0950613"
       y2="-1.1972755"
       gradientTransform="matrix(6.0923077,0,0,6.0923077,16.129161,-7.1537627)" />
    <linearGradient
       inkscape:collect="always"
       xlink:href="#bevel"
       id="linearGradient36"
       gradientUnits="userSpaceOnUse"
       x1="-3.8734362"
       y1="-1.3717227"
       x2="-3.8765941"
       y2="-1.116071"
       gradientTransform="matrix(6.0923077,0,0,6.0923077,31.33261,-8.0496826)" />
    <linearGradient
       id="paint2_linear_77:3-7"
       x1="79.398094"
       y1="-197.84389"
       x2="82.901054"
       y2="-199.97827"
       gradientUnits="userSpaceOnUse"
       gradientTransform="matrix(1.9248511,0,0,1.7314595,-40.88733,399.61741)">
      <stop
         stop-color="#EBFAFF"
         stop-opacity="0.1"
         id="stop29-5-7"
         offset="0"
         style="stop-color:#c3c3c3;stop-opacity:1;" />
      <stop
         offset="1"
         stop-color="#70A9FF"
         stop-opacity="0.5"
         id="stop30-0-1"
         style="stop-color:#05c7ff;stop-opacity:0.80000001;" />
    </linearGradient>
    <linearGradient
       inkscape:collect="always"
       xlink:href="#linearGradient899"
       id="linearGradient926"
       x1="-1.5684963"
       y1="-19.189486"
       x2="16.891874"
       y2="-1.4167732"
       gradientUnits="userSpaceOnUse"
       gradientTransform="translate(-0.92604234,0.47624996)" />
    <linearGradient
       id="a-3"
       x1="10"
       x2="53.890999"
       y1="32"
       y2="32"
       gradientTransform="matrix(0.2910326,0,0,0.2910326,-1.428631,-1.4296814)"
       gradientUnits="userSpaceOnUse">
      <stop
         offset="0"
         stop-color="#fff"
         id="stop3-6" />
      <stop
         offset="1"
         stop-color="#fff"
         stop-opacity="0"
         id="stop4-7" />
    </linearGradient>
    <linearGradient
       id="b-5"
       x1="32"
       x2="53.890999"
       y1="43.542999"
       y2="43.542999"
       gradientTransform="matrix(0.2910326,0,0,0.2910326,-1.428631,-1.4296814)"
       gradientUnits="userSpaceOnUse">
      <stop
         offset="0"
         stop-color="#b9c0ff"
         id="stop1-3" />
      <stop
         offset="1"
         stop-color="#7380ff"
         id="stop2-5" />
    </linearGradient>
    <linearGradient
       id="c-6"
       x1="32"
       x2="32"
       y1="32"
       y2="6"
       gradientTransform="matrix(0.2910326,0,0,0.2910326,-1.428631,-1.4296814)"
       gradientUnits="userSpaceOnUse">
      <stop
         offset="0"
         stop-color="#fff"
         id="stop5-2" />
      <stop
         offset="1"
         stop-color="#fff"
         id="stop6-9" />
    </linearGradient>
    <filter
       id="filter1627"
       x="-0.13102891"
       y="-0.16740455"
       width="1.2620578"
       height="1.3348091"
       color-interpolation-filters="sRGB">
      <feGaussianBlur
         stdDeviation="0.50806895"
         id="feGaussianBlur26" />
    </filter>
  </defs>
  <sodipodi:namedview
     id="base"
     pagecolor="#e2e2e2"
     bordercolor="#666666"
     borderopacity="1.0"
     inkscape:pageopacity="0"
     inkscape:pageshadow="2"
     inkscape:zoom="9.7248729"
     inkscape:cx="32.596827"
     inkscape:cy="40.000523"
     inkscape:document-units="px"
     inkscape:current-layer="layer1"
     inkscape:document-rotation="0"
     showgrid="true"
     units="px"
     inkscape:window-width="1920"
     inkscape:window-height="990"
     inkscape:window-x="0"
     inkscape:window-y="0"
     inkscape:window-maximized="1"
     inkscape:object-paths="true"
     inkscape:snap-grids="true"
     inkscape:snap-intersection-paths="true"
     inkscape:snap-smooth-nodes="true"
     inkscape:snap-midpoints="true"
     inkscape:showpageshadow="2"
     inkscape:pagecheckerboard="0"
     inkscape:deskcolor="#d1d1d1">
    <inkscape:grid
       id="grid2"
       units="px"
       originx="0"
       originy="0"
       spacingx="0.26458333"
       spacingy="0.26458333"
       empcolor="#0099e5"
       empopacity="0.30196078"
       color="#0099e5"
       opacity="0.14902"
       empspacing="5"
       dotted="false"
       gridanglex="30"
       gridanglez="30"
       visible="true" />
  </sodipodi:namedview>
  <metadata
     id="metadata1111">
    <rdf:RDF>
      <cc:Work
         rdf:about="">
        <dc:format>image/svg+xml</dc:format>
        <dc:type
           rdf:resource="http://purl.org/dc/dcmitype/StillImage" />
      </cc:Work>
    </rdf:RDF>
  </metadata>
  <g
     inkscape:label="Layer 1"
     inkscape:groupmode="layer"
     id="layer1">
    <g
       id="g918"
       transform="translate(0.47625037,0.92604234)">
      <rect
         ry="4.8357682"
         rx="4.8357682"
         style="fill:url(#linearGradient926);fill-opacity:1;stroke-width:6.09228"
         x="0.13229237"
         y="-16.457085"
         width="15.875001"
         height="15.875001"
         id="use1056"
         transform="rotate(90)"
         class="ColorScheme-Highlight" />
      <path
         d="m 5.344583,0.13229167 c -2.6384245,0 -4.76249953,2.12407483 -4.76249953,4.76249963 H 5.344583 Z"
         style="opacity:0.15;fill:url(#radialGradient25);fill-opacity:1;stroke-width:6.09228"
         id="path20" />
      <rect
         y="0.13229151"
         x="5.3445826"
         height="1.5875"
         width="6.3500004"
         id="rect20"
         style="opacity:0.15;fill:url(#linearGradient25);fill-opacity:1;stroke-width:4.83577;stroke-linecap:round;stroke-linejoin:round;paint-order:stroke fill markers" />
      <path
         d="m 0.58208347,11.244792 c 0,2.638424 2.12407503,4.762499 4.76249953,4.762499 v -4.762499 z"
         style="opacity:0.15;fill:url(#radialGradient29);fill-opacity:1;stroke-width:6.09228"
         id="use20" />
      <rect
         y="0.5820834"
         x="-11.244792"
         height="1.5875"
         width="6.3500004"
         id="use21"
         style="opacity:0.15;fill:url(#linearGradient34);fill-opacity:1;stroke-width:4.83577;stroke-linecap:round;stroke-linejoin:round;paint-order:stroke fill markers"
         transform="rotate(-90)" />
      <path
         d="m 11.694583,16.007291 c 2.638425,0 4.7625,-2.124074 4.7625,-4.762499 h -4.7625 z"
         style="opacity:0.15;fill:url(#radialGradient30);fill-opacity:1;stroke-width:6.09228"
         id="use22" />
      <rect
         y="-16.007292"
         x="-11.694584"
         height="1.5875"
         width="6.3500004"
         id="use23"
         style="opacity:0.15;fill:url(#linearGradient35);fill-opacity:1;stroke-width:4.83577;stroke-linecap:round;stroke-linejoin:round;paint-order:stroke fill markers"
         transform="scale(-1)" />
      <path
         d="m 16.457083,4.8947913 c 0,-2.6384245 -2.124074,-4.76249963 -4.7625,-4.76249963 V 4.8947913 Z"
         style="opacity:0.15;fill:url(#radialGradient31);fill-opacity:1;stroke-width:6.09228"
         id="use24" />
      <rect
         y="-16.457081"
         x="4.8947906"
         height="1.5875"
         width="6.3500004"
         id="use25"
         style="opacity:0.15;fill:url(#linearGradient36);fill-opacity:1;stroke-width:4.83577;stroke-linecap:round;stroke-linejoin:round;paint-order:stroke fill markers"
         transform="rotate(90)" />
      <path
         d="m 5.3445832,0.13229107 c -2.638425,0 -4.76250035,2.12407473 -4.76250035,4.76249973 H 5.3445832 Z"
         style="opacity:0.5;fill:url(#radialGradient15);fill-opacity:1;stroke-width:6.09228"
         id="path14" />
      <rect
         y="0.1322909"
         x="5.3445826"
         height="1.5875"
         width="6.3499999"
         id="rect14"
         style="opacity:0.5;fill:url(#linearGradient15);fill-opacity:1;stroke-width:4.83577;stroke-linecap:round;stroke-linejoin:round;paint-order:stroke fill markers" />
      <path
         d="m 11.694583,0.13229096 c 2.638425,0 4.7625,2.12407504 4.7625,4.76249734 h -4.7625 z"
         style="opacity:0.5;fill:url(#radialGradient17);fill-opacity:1;stroke-width:6.09228"
         id="use14" />
      <path
         id="path17"
         style="opacity:0.5;fill:url(#radialGradient18);fill-opacity:1;stroke-width:6.09228"
         d="m 5.3445834,16.00729 c -2.638425,0 -4.7625,-2.124075 -4.7625,-4.7625 h 4.7625 z" />
      <rect
         style="opacity:0.5;fill:url(#linearGradient18);fill-opacity:1;stroke-width:4.83577;stroke-linecap:round;stroke-linejoin:round;paint-order:stroke fill markers"
         id="rect17"
         width="6.3499994"
         height="1.5874999"
         x="5.3445826"
         y="-16.007292"
         transform="scale(1,-1)" />
      <path
         id="use17"
         style="opacity:0.5;fill:url(#radialGradient20);fill-opacity:1;stroke-width:6.09228"
         d="m 11.694582,16.007291 c 2.638425,0 4.7625,-2.124075 4.7625,-4.7625 h -4.7625 z" />
    </g>
    <path
       style="font-style:normal;font-variant:normal;font-weight:bold;font-stretch:normal;font-size:medium;line-height:125%;letter-spacing:0px;word-spacing:0px;fill:#ffffff;fill-opacity:1;stroke:none;stroke-width:0.277775"
       d="m 13.793016,2.910426 c 0.249099,1.11e-5 0.388301,0.1890139 0.41763,0.5670111 L 14.001815,5.25758 h 0.07689 l 0.164844,-0.1318621 h 0.04395 v 0.039557 C 14.0604,5.3323128 13.840592,5.7894371 13.628131,6.5366491 13.547601,7.1783917 13.411988,7.77177 13.221488,8.3167954 13.052984,8.8794113 12.96871,9.3980726 12.968717,9.8727749 l -0.318696,0.9362121 c -8e-6,0.07924 0.120877,0.158238 0.362673,0.237343 -0.04396,0.184634 -0.109905,0.276912 -0.197819,0.276912 v 0.0528 h 0.07687 v 0.03949 c -7e-6,0.09668 -0.124561,0.145037 -0.373654,0.145034 l 0.04382,0.05283 v 0.184597 h -0.0769 c 0.05142,0.184635 0.161183,0.276924 0.329703,0.276917 v 0.0923 H 12.48502 v 0.05275 c 0.10989,0 0.164843,0.07924 0.16485,0.237356 l -0.461575,0.184609 0.04388,0.05275 v 0.03941 c -1.1e-5,0.06167 -0.05489,0.0923 -0.164861,0.0923 v 0.05276 c 0.139195,0 0.208803,0.03072 0.208813,0.09229 -0.197823,0.07927 -0.457918,0.470329 -0.780291,1.173587 -0.329703,0.624142 -0.615439,0.936225 -0.857214,0.936225 h -0.08776 C 10.3678,14.940706 10.217606,14.474799 10.100386,13.683626 9.6314647,12.479306 9.3970119,11.771634 9.397015,11.560648 9.3970119,11.015638 9.2468131,10.435433 8.9464264,9.8200774 8.8658191,9.5475246 8.8108683,9.2046775 8.781567,8.7914962 L 8.5837443,8.7387529 C 8.0855228,9.644218 7.8254201,10.351886 7.8034518,10.861736 c -0.1392165,0.298897 -0.2491102,0.659305 -0.3297026,1.081281 0.3003913,0.09669 0.4505884,0.188996 0.4505927,0.276905 v 0.05271 c -0.2344566,-0.03514 -0.3993163,-0.101054 -0.494551,-0.197766 -0.10257,0.237358 -0.2381236,0.896679 -0.4066297,1.977942 -0.1318867,0.501084 -0.2967367,0.751616 -0.4945515,0.751616 -0.5568302,-0.219777 -1.0220816,-0.580182 -1.3957398,-1.08126 -0.058608,0 -0.1538632,-0.250545 -0.2857408,-0.751619 -0.080612,0 -0.1355468,-0.25054 -0.1648518,-0.751622 -0.278412,-0.712057 -0.468905,-1.525205 -0.5714776,-2.4394613 v -1.371364 h -0.043946 l -0.197825,0.052734 v -0.052733 c 0,-0.061528 0.065945,-0.092306 0.1978251,-0.092308 L 4.0228804,7.5256118 V 6.9058659 L 3.7041663,4.9279229 V 4.0839986 C 3.8433758,3.5565638 4.0851529,3.2928354 4.4295105,3.2928248 c 0,0 0.030614,-0.00207 0.1318868,0.1318592 L 4.4295271,3.3851281 c 0.5348424,0.7032787 0.849888,1.296658 0.9451386,1.780147 h 0.3736667 v 0.092307 H 5.4625879 v 0.105494 c 0.1098964,0.4043863 0.1904937,0.606573 0.2417775,0.6065651 h 0.087923 l 0.1978226,-0.05274 0.043944,0.05274 0.043944,-0.05274 0.043949,0.05274 v 0.039557 C 5.9754348,6.1146893 5.8765252,6.2597383 5.8252379,6.4443452 h -0.032943 v 0.092304 h 0.076938 C 5.9717957,8.0047265 6.1622912,9.1167649 6.4407073,9.8727727 L 6.60556,10.004637 h 0.087913 c 0.1098941,5e-6 0.340694,-0.5142545 0.6923771,-1.5427925 0.2271286,-0.465909 0.3919721,-0.8746846 0.494552,-1.2263184 L 7.8364441,7.0904679 C 8.0635682,6.7476361 8.2980245,6.5762158 8.5398062,6.576206 h 0.076942 c 0.1538555,9.8e-6 0.2637559,0.096705 0.3297017,0.2900933 0.2051446,0.2901091 0.3699905,0.7252579 0.494547,1.3054456 l 0.6154371,1.3713664 c 0.08058,0.096704 0.120875,0.206594 0.120886,0.3296617 0.227128,0.518672 0.432265,0.861508 0.615446,1.028523 h 0.131873 c 0.153831,0 0.359005,-0.641716 0.615451,-1.9251929 0.04379,8.3e-6 0.164819,-0.3428361 0.362658,-1.0285228 v -0.052753 l -0.692384,-0.092309 -0.164836,0.052748 H 10.836707 V 7.7497746 l 0.417625,-0.039557 h 0.813257 C 12.382623,6.5762057 12.672037,5.6971252 12.935817,5.0729619 13.023747,3.7895139 13.1446,3.1477847 13.298488,3.1477676 L 13.793043,2.9104164 M 9.6058402,4.0444391 h 0.1208883 v 0.039557 c -8.5e-6,0.061536 -0.040263,0.092318 -0.1208883,0.09231 l -0.043939,0.052733 v 0.052741 L 9.4409996,4.2290452 V 4.1367416 L 9.6058493,4.044437 M 8.9904101,4.5587011 v 0.052733 c -3.4e-6,0.070356 -0.1758397,0.1450675 -0.5275225,0.2241754 V 4.7433075 L 8.704673,4.6114376 8.748612,4.6509946 H 8.781554 L 8.9903726,4.5586904 M 7.803457,5.0333949 v 0.039557 C 7.6495938,5.2136174 7.4004876,5.3410849 7.056133,5.4553592 v -0.092306 c 0.058611,6.8e-6 0.087916,-0.048332 0.087919,-0.145047 L 7.8034609,5.0333927 M 9.8915623,5.49491 9.9354713,5.547647 V 5.587204 L 9.858583,5.6926937 H 9.814638 L 9.7267064,5.5872119 v -0.039558 l 0.1648562,-0.05274 m 1.5166264,0.052739 h 0.04382 v 0.039557 l -0.07691,0.1054851 h -0.04396 V 5.63995 l 0.07686,-0.092305 m -0.692374,0.659314 0.164871,0.1318627 c -0.02926,0.096702 -0.109883,0.1450542 -0.24176,0.1450462 l -0.08793,-0.1450397 c -6e-6,-0.043946 0.0549,-0.087891 0.164843,-0.131862 m 0.989105,0.6065644 0.0331,0.052738 v 0.039556 l -0.0331,0.052735 h -0.08795 v -0.052731 l 0.08798,-0.092309 M 10.144254,7.288226 V 7.327783 L 9.9355103,7.5255774 h -0.120864 v -0.052745 c -7.5e-6,-0.079115 0.109888,-0.140643 0.3297077,-0.184606 M 8.7046534,11.323211 h 0.043934 v 0.09231 l -0.329699,0.19779 -0.043945,-0.0528 v -0.09226 l 0.329701,-0.145044 m -0.1208922,1.226326 h 0.032941 l 0.13188,0.145046 -0.043938,0.03941 h -0.043953 l -0.076939,-0.131822 v -0.05279"
       id="path26-0" />
  </g>
</svg>
