<?xml version="1.0" encoding="UTF-8" standalone="no"?>
<svg
   width="64"
   height="64"
   viewBox="0 0 16.933333 16.933333"
   version="1.1"
   id="svg1114"
   inkscape:version="1.3.2 (091e20ef0f, 2023-11-25)"
   sodipodi:docname="system-reboot.svg"
   xmlns:inkscape="http://www.inkscape.org/namespaces/inkscape"
   xmlns:sodipodi="http://sodipodi.sourceforge.net/DTD/sodipodi-0.dtd"
   xmlns:xlink="http://www.w3.org/1999/xlink"
   xmlns="http://www.w3.org/2000/svg"
   xmlns:svg="http://www.w3.org/2000/svg"
   xmlns:rdf="http://www.w3.org/1999/02/22-rdf-syntax-ns#"
   xmlns:cc="http://creativecommons.org/ns#"
   xmlns:dc="http://purl.org/dc/elements/1.1/">
  <defs
     id="defs1108">
    <linearGradient
       id="linearGradient1167"
       x1="40.751999"
       x2="40.751999"
       y1="28.507999"
       y2="17.205999"
       gradientUnits="userSpaceOnUse">
      <stop
         style="stop-color:#84fb6e;stop-opacity:1"
         stop-color="#0ab816"
         offset="0"
         id="stop1163" />
      <stop
         style="stop-color:#0dd41a;stop-opacity:1"
         stop-color="#0cf36c"
         offset="1"
         id="stop1165" />
    </linearGradient>
    <linearGradient
       inkscape:collect="always"
       id="7">
      <stop
         style="stop-color:#267dff;stop-opacity:1;"
         offset="0"
         id="stop4635" />
      <stop
         style="stop-color:#008fb2;stop-opacity:1;"
         offset="1"
         id="stop4637" />
    </linearGradient>
    <linearGradient
       id="cornerBevel"
       inkscape:collect="always">
      <stop
         style="stop-color:#000000;stop-opacity:0;"
         offset="0"
         id="stop2663" />
      <stop
         id="stop2671"
         offset="0.66666675"
         style="stop-color:#000000;stop-opacity:0" />
      <stop
         style="stop-color:#000000;stop-opacity:1;"
         offset="1"
         id="stop2661" />
    </linearGradient>
    <linearGradient
       id="bevel"
       inkscape:collect="always">
      <stop
         id="stop2685"
         offset="0"
         style="stop-color:#000000;stop-opacity:1;" />
      <stop
         id="stop2687"
         offset="1"
         style="stop-color:#000000;stop-opacity:0;" />
    </linearGradient>
    <linearGradient
       id="highlightCorner"
       inkscape:collect="always">
      <stop
         style="stop-color:#ffffff;stop-opacity:0;"
         offset="0"
         id="stop2613" />
      <stop
         id="stop2621"
         offset="0.66666669"
         style="stop-color:#ffffff;stop-opacity:0" />
      <stop
         style="stop-color:#ffffff;stop-opacity:1;"
         offset="1"
         id="stop2611" />
    </linearGradient>
    <linearGradient
       inkscape:collect="always"
       id="highlight">
      <stop
         style="stop-color:#ffffff;stop-opacity:1;"
         offset="0"
         id="stop2921" />
      <stop
         style="stop-color:#ffffff;stop-opacity:0;"
         offset="1"
         id="stop2923" />
    </linearGradient>
    <linearGradient
       gradientUnits="userSpaceOnUse"
       y2="-5.6125016"
       x2="39.964642"
       y1="-5.5233421"
       x1="24.395063"
       id="linearGradient1064"
       xlink:href="#7"
       inkscape:collect="always"
       gradientTransform="matrix(0.16666646,0,0,0.16666646,1.9851092,4.356713)" />
    <radialGradient
       inkscape:collect="always"
       xlink:href="#highlightCorner"
       id="radialGradient15"
       gradientUnits="userSpaceOnUse"
       gradientTransform="matrix(0,-2.0307682,3.0461507,0,-2.8842589,-9.736012)"
       cx="-4.4979167"
       cy="-0.52916664"
       fx="-4.4979167"
       fy="-0.52916664"
       r="0.39687499" />
    <linearGradient
       inkscape:collect="always"
       xlink:href="#highlight"
       id="linearGradient15"
       gradientUnits="userSpaceOnUse"
       x1="-3.96875"
       y1="-1.3229166"
       x2="-3.96875"
       y2="-1.0583333"
       gradientTransform="matrix(1.0153846,0,0,1.0153846,0.07093512,-0.06447698)" />
    <radialGradient
       inkscape:collect="always"
       xlink:href="#highlightCorner"
       id="radialGradient17"
       gradientUnits="userSpaceOnUse"
       gradientTransform="matrix(0,-2.0307682,-3.0461507,0,-5.0334856,-9.736012)"
       cx="-4.4979167"
       cy="-0.52916664"
       fx="-4.4979167"
       fy="-0.52916664"
       r="0.39687499" />
    <radialGradient
       inkscape:collect="always"
       xlink:href="#cornerBevel"
       id="radialGradient18"
       gradientUnits="userSpaceOnUse"
       gradientTransform="matrix(-6.9535475e-7,-2.0307682,3.0461508,-7.3736211e-7,-2.884262,-9.6070575)"
       cx="-4.4691272"
       cy="-0.52916664"
       fx="-4.4691272"
       fy="-0.52916664"
       r="0.39687499" />
    <linearGradient
       inkscape:collect="always"
       xlink:href="#bevel"
       id="linearGradient18"
       gradientUnits="userSpaceOnUse"
       x1="-3.96875"
       y1="-1.3766574"
       x2="-3.96875"
       y2="-1.112074"
       gradientTransform="matrix(1.0153846,0,0,1.0153846,0.07093512,0.06447697)" />
    <radialGradient
       inkscape:collect="always"
       xlink:href="#cornerBevel"
       id="radialGradient20"
       gradientUnits="userSpaceOnUse"
       gradientTransform="matrix(6.9535475e-7,-2.0307682,-3.0461508,-7.3736211e-7,-5.0334825,-9.6070575)"
       cx="-4.4729657"
       cy="-0.52276891"
       fx="-4.4729657"
       fy="-0.52276891"
       r="0.39687499" />
    <radialGradient
       inkscape:collect="always"
       xlink:href="#cornerBevel"
       id="radialGradient25"
       gradientUnits="userSpaceOnUse"
       gradientTransform="matrix(2.030769,0,0,2.030769,4.6380504,0.47283072)"
       cx="-4.4979167"
       cy="-0.52916664"
       fx="-4.4979167"
       fy="-0.52916664"
       r="0.39687496" />
    <linearGradient
       inkscape:collect="always"
       xlink:href="#bevel"
       id="linearGradient25"
       gradientUnits="userSpaceOnUse"
       x1="-3.96875"
       y1="-1.3229166"
       x2="-3.96875"
       y2="-1.0583333"
       gradientTransform="matrix(1.0153846,0,0,1.0153846,0.07093512,-0.06447697)" />
    <radialGradient
       inkscape:collect="always"
       xlink:href="#cornerBevel"
       id="radialGradient29"
       gradientUnits="userSpaceOnUse"
       gradientTransform="matrix(0,-2.030769,2.030769,0,-3.4215645,-8.6613995)"
       cx="-4.4979167"
       cy="-0.52916664"
       fx="-4.4979167"
       fy="-0.52916664"
       r="0.39687496" />
    <radialGradient
       inkscape:collect="always"
       xlink:href="#cornerBevel"
       id="radialGradient30"
       gradientUnits="userSpaceOnUse"
       gradientTransform="matrix(-2.030769,0,0,-2.030769,-12.555795,-0.60178461)"
       cx="-4.4979167"
       cy="-0.52916664"
       fx="-4.4979167"
       fy="-0.52916664"
       r="0.39687496" />
    <radialGradient
       inkscape:collect="always"
       xlink:href="#cornerBevel"
       id="radialGradient31"
       gradientUnits="userSpaceOnUse"
       gradientTransform="matrix(0,2.030769,-2.030769,0,-4.49618,8.5324451)"
       cx="-4.4979167"
       cy="-0.52916664"
       fx="-4.4979167"
       fy="-0.52916664"
       r="0.39687496" />
    <linearGradient
       inkscape:collect="always"
       xlink:href="#bevel"
       id="linearGradient34"
       gradientUnits="userSpaceOnUse"
       x1="-3.96875"
       y1="-1.3229166"
       x2="-3.96875"
       y2="-1.0583333"
       gradientTransform="matrix(1.0153846,0,0,1.0153846,4.0942844,-3.9588723)" />
    <linearGradient
       inkscape:collect="always"
       xlink:href="#bevel"
       id="linearGradient35"
       gradientUnits="userSpaceOnUse"
       x1="-3.96875"
       y1="-1.3229166"
       x2="-3.96875"
       y2="-1.0583333"
       gradientTransform="matrix(1.0153846,0,0,1.0153846,7.9886795,0.06447697)" />
    <linearGradient
       inkscape:collect="always"
       xlink:href="#bevel"
       id="linearGradient36"
       gradientUnits="userSpaceOnUse"
       x1="-3.96875"
       y1="-1.3229166"
       x2="-3.96875"
       y2="-1.0583333"
       gradientTransform="matrix(1.0153846,0,0,1.0153846,3.96533,3.9588723)" />
    <linearGradient
       id="paint1_linear_8_153"
       x1="12.3337"
       y1="20"
       x2="12.3337"
       y2="4"
       gradientUnits="userSpaceOnUse"
       gradientTransform="scale(0.26458334)">
      <stop
         stop-color="#5558FF"
         id="stop4" />
      <stop
         offset="1"
         stop-color="#00C0FF"
         id="stop5" />
    </linearGradient>
    <linearGradient
       id="paint1_linear_8_859"
       x1="89.400002"
       y1="120"
       x2="89.400002"
       y2="56"
       gradientUnits="userSpaceOnUse"
       gradientTransform="scale(0.26458332)">
      <stop
         stop-color="#02AA93"
         id="stop4-7" />
      <stop
         offset="1"
         stop-color="#67FF80"
         id="stop5-5" />
    </linearGradient>
    <linearGradient
       id="linearGradient1078"
       x1="19.17029"
       x2="19.17029"
       y1="43"
       y2="1.8314241"
       gradientTransform="matrix(0.23237445,0,0,0.23237438,24.639977,-3.1329665)"
       gradientUnits="userSpaceOnUse">
      <stop
         stop-color="#16a085"
         offset="0"
         id="stop12" />
      <stop
         stop-color="#1cdc9a"
         offset="1"
         id="stop14" />
    </linearGradient>
    <linearGradient
       id="linearGradient1087"
       x1="19.17029"
       x2="40.893143"
       y1="43"
       y2="-13.594682"
       gradientUnits="userSpaceOnUse"
       gradientTransform="matrix(0.23237445,0,0,0.23237438,24.63935,-3.1329665)">
      <stop
         stop-color="#1abc9c"
         offset="0"
         id="stop17" />
      <stop
         stop-color="#eff0f1"
         offset="1"
         id="stop19" />
    </linearGradient>
    <radialGradient
       id="radialGradient886-8-1"
       cx="19.472553"
       cy="10.657272"
       r="0.98144501"
       gradientTransform="matrix(0.63924673,0,0,0.63988277,-5.4719517,-3.4290656)"
       gradientUnits="userSpaceOnUse">
      <stop
         stop-color="#16a085"
         offset="0"
         id="stop22-5-2" />
      <stop
         stop-color="#16a085"
         stop-opacity="0"
         offset="1"
         id="stop24-6-7" />
    </radialGradient>
  </defs>
  <sodipodi:namedview
     id="base"
     pagecolor="#e2e2e2"
     bordercolor="#666666"
     borderopacity="1.0"
     inkscape:pageopacity="0"
     inkscape:pageshadow="2"
     inkscape:zoom="11.313709"
     inkscape:cx="31.731415"
     inkscape:cy="32.173357"
     inkscape:document-units="px"
     inkscape:current-layer="layer1"
     inkscape:document-rotation="0"
     showgrid="true"
     units="px"
     inkscape:window-width="1920"
     inkscape:window-height="996"
     inkscape:window-x="0"
     inkscape:window-y="0"
     inkscape:window-maximized="1"
     inkscape:object-paths="true"
     inkscape:snap-grids="true"
     inkscape:snap-intersection-paths="true"
     inkscape:snap-smooth-nodes="true"
     inkscape:snap-midpoints="true"
     inkscape:showpageshadow="2"
     inkscape:pagecheckerboard="0"
     inkscape:deskcolor="#d1d1d1">
    <inkscape:grid
       type="xygrid"
       id="grid1967"
       originx="0"
       originy="0"
       spacingy="1"
       spacingx="1"
       units="px"
       visible="true" />
  </sodipodi:namedview>
  <metadata
     id="metadata1111">
    <rdf:RDF>
      <cc:Work
         rdf:about="">
        <dc:format>image/svg+xml</dc:format>
        <dc:type
           rdf:resource="http://purl.org/dc/dcmitype/StillImage" />
      </cc:Work>
    </rdf:RDF>
  </metadata>
  <g
     inkscape:label="Layer 1"
     inkscape:groupmode="layer"
     id="layer1">
    <g
       id="g1071"
       transform="matrix(6.0000001,0,0,6.0000001,29.104167,-35.983333)"
       style="stroke-width:0.166665">
      <g
         style="opacity:0.25;fill:#d1fcd4;fill-opacity:1;stroke-width:0.166665"
         transform="translate(0.5291667,7.4083332)"
         id="use1043" />
      <rect
         ry="0.80596137"
         rx="0.80596137"
         style="fill:url(#linearGradient1064);fill-opacity:1;stroke-width:1.01538"
         x="6.0854168"
         y="2.1166663"
         width="2.6458335"
         height="2.6458335"
         id="use1056"
         transform="rotate(90)" />
      <g
         id="use1066"
         style="stroke-width:0.166665"
         transform="translate(-1.5875,3.4395833)">
        <g
           transform="translate(2.1166666,3.96875)"
           id="use1"
           style="opacity:0.15;fill:#d1fcd4;fill-opacity:1;stroke-width:0.166665">
          <path
             d="m -4.4979166,-1.3229166 c -0.4397374,0 -0.7937499,0.35401246 -0.7937499,0.79374992 h 0.7937499 z"
             style="opacity:1;fill:url(#radialGradient25);fill-opacity:1;stroke-width:1.01538"
             id="path20" />
          <rect
             y="-1.3229166"
             x="-4.4979167"
             height="0.26458332"
             width="1.0583334"
             id="rect20"
             style="opacity:1;fill:url(#linearGradient25);fill-opacity:1;stroke-width:0.805961;stroke-linecap:round;stroke-linejoin:round;paint-order:stroke fill markers" />
          <path
             d="m -5.2916665,0.52916669 c 0,0.4397374 0.3540125,0.79374991 0.7937499,0.79374991 V 0.52916669 Z"
             style="fill:url(#radialGradient29);fill-opacity:1;stroke-width:1.01538"
             id="use20" />
          <rect
             y="-5.2916665"
             x="-0.52916676"
             height="0.26458332"
             width="1.0583334"
             id="use21"
             style="fill:url(#linearGradient34);fill-opacity:1;stroke-width:0.805961;stroke-linecap:round;stroke-linejoin:round;paint-order:stroke fill markers"
             transform="rotate(-90)" />
          <path
             d="m -3.4395832,1.3229166 c 0.4397374,0 0.7937499,-0.35401243 0.7937499,-0.79374989 h -0.7937499 z"
             style="fill:url(#radialGradient30);fill-opacity:1;stroke-width:1.01538"
             id="use22" />
          <rect
             y="-1.3229166"
             x="3.4395831"
             height="0.26458332"
             width="1.0583334"
             id="use23"
             style="fill:url(#linearGradient35);fill-opacity:1;stroke-width:0.805961;stroke-linecap:round;stroke-linejoin:round;paint-order:stroke fill markers"
             transform="scale(-1)" />
          <path
             d="m -2.6458333,-0.52916668 c 0,-0.4397374 -0.3540124,-0.79374992 -0.7937499,-0.79374992 v 0.79374992 z"
             style="fill:url(#radialGradient31);fill-opacity:1;stroke-width:1.01538"
             id="use24" />
          <rect
             y="2.6458333"
             x="-0.52916676"
             height="0.26458332"
             width="1.0583334"
             id="use25"
             style="fill:url(#linearGradient36);fill-opacity:1;stroke-width:0.805961;stroke-linecap:round;stroke-linejoin:round;paint-order:stroke fill markers"
             transform="rotate(90)" />
        </g>
        <g
           style="opacity:0.5;fill:#d1fcd4;fill-opacity:1;stroke-width:0.166665"
           transform="translate(2.1166667,3.9687499)"
           id="use2">
          <path
             d="m -4.4979166,-1.3229166 c -0.4397375,0 -0.79375,0.35401245 -0.79375,0.79374994 h 0.79375 z"
             style="opacity:1;fill:url(#radialGradient15);fill-opacity:1;stroke-width:1.01538"
             id="path14" />
          <rect
             y="-1.3229166"
             x="-4.4979167"
             height="0.26458332"
             width="1.0583333"
             id="rect14"
             style="opacity:1;fill:url(#linearGradient15);fill-opacity:1;stroke-width:0.805961;stroke-linecap:round;stroke-linejoin:round;paint-order:stroke fill markers" />
          <path
             d="m -3.4395833,-1.3229166 c 0.4397375,0 0.79375,0.35401241 0.79375,0.7937499 h -0.79375 z"
             style="fill:url(#radialGradient17);fill-opacity:1;stroke-width:1.01538"
             id="use14" />
        </g>
        <g
           id="use3"
           transform="matrix(0.99999999,0,0,-0.99999999,2.1166666,3.96875)"
           style="opacity:0.5;fill:#d1fcd4;fill-opacity:1;stroke-width:0.166665">
          <path
             id="path17"
             style="opacity:1;fill:url(#radialGradient18);fill-opacity:1;stroke-width:1.01538"
             d="m -4.4979166,-1.3229166 c -0.4397375,0 -0.79375,0.35401245 -0.79375,0.79374994 h 0.79375 z" />
          <rect
             style="opacity:1;fill:url(#linearGradient18);fill-opacity:1;stroke-width:0.805961;stroke-linecap:round;stroke-linejoin:round;paint-order:stroke fill markers"
             id="rect17"
             width="1.0583333"
             height="0.26458332"
             x="-4.4979167"
             y="-1.3229166" />
          <path
             id="use17"
             style="fill:url(#radialGradient20);fill-opacity:1;stroke-width:1.01538"
             d="m -3.4395833,-1.3229166 c 0.4397375,0 0.79375,0.35401245 0.79375,0.79374994 h -0.79375 z" />
        </g>
      </g>
    </g>
    <path
       d="m 10.973339,12.855641 v 0 c 0.253313,-0.141995 0.577863,-0.05584 0.724166,0.191731 v 0 c 0.146305,0.247672 0.05941,0.565482 -0.194226,0.708715 v 0 C 10.517694,14.31261 9.3936543,14.58665 8.2592303,14.5486 7.230539,14.514311 6.2266951,14.223589 5.3420254,13.705857 v 0 C 5.0915065,13.558649 5.0101146,13.239353 5.1602214,12.993658 v 0 c 0.1503626,-0.245667 0.4756789,-0.325509 0.72645,-0.178284 v 0 c 0.7289842,0.42946 1.5571111,0.667438 2.4085648,0.696037 0.9389328,0.03143 1.8651898,-0.194718 2.6781028,-0.655744 z m 1.993496,-6.470928 v 0 c -0.131347,-0.2566375 -0.02561,-0.56896 0.236063,-0.6970253 v 0 c 0.261681,-0.128065 0.579382,-0.02396 0.709462,0.2327555 v 0 c 0.453361,0.8875098 0.670671,1.8737383 0.636183,2.8669312 -0.02657,0.7572021 -0.197775,1.5017296 -0.507883,2.1925326 v 0 c -0.117159,0.262591 -0.429786,0.382462 -0.697541,0.267322 v 0 c -0.267747,-0.114891 -0.389977,-0.421492 -0.272577,-0.684095 v 0 C 13.328654,9.9926827 13.469139,9.3769708 13.490686,8.7520586 13.519406,7.9324394 13.338546,7.1190363 12.966837,6.3847108 Z M 6.2888179,4.1414511 v 0 C 6.0258763,4.2645527 5.7094338,4.155267 5.5823999,3.8972475 v 0 C 5.4556185,3.6393702 5.5659266,3.3287862 5.8288595,3.2044484 v 0 C 6.71429,2.7874286 7.6902419,2.5865006 8.6740557,2.6193262 9.6205968,2.6509052 10.549386,2.8975896 11.38081,3.3434566 v 0 c 0.256859,0.1375103 0.351438,0.453575 0.21122,0.7054782 v 0 c -0.140217,0.251646 -0.462494,0.3444112 -0.719352,0.2068998 v 0 C 10.18655,3.8875574 9.4205361,3.6829013 8.6380525,3.6565408 7.8261509,3.6294353 7.0208452,3.7948022 6.2888179,4.1414511 Z M 3.697183,10.148357 v 0 c 0.093048,0.271047 -0.05655,0.565229 -0.3336843,0.656242 v 0 C 3.0863574,10.895677 2.785889,10.748136 2.6930856,10.475855 v 0 C 2.4651358,9.8009542 2.3601617,9.0912503 2.3847572,8.38055 2.4174669,7.4418148 2.6743221,6.5209859 3.1398586,5.6978841 v 0 C 3.2800784,5.4474772 3.6015906,5.3569547 3.8576865,5.4959734 v 0 c 0.256096,0.1390052 0.3488982,0.4550699 0.2071578,0.7054817 v 0 C 3.6812085,6.8818179 3.4694858,7.6405127 3.4423547,8.4158713 3.4220886,9.0047206 3.5075214,9.5890982 3.697183,10.14837 Z M 10.52329,3.6105511 Z M 4.7550339,12.006426 c -0.00978,0.286216 -0.2548283,0.510772 -0.5466745,0.501072 -0.2921014,-0.009 -0.5208117,-0.250156 -0.5109231,-0.536387 0.00978,-0.286215 0.2550815,-0.510764 0.5469287,-0.501066 0.2918465,0.0087 0.5208113,0.250152 0.5106689,0.536381 z m 8.4711891,0.283233 c 0.0087,-0.286221 -0.219075,-0.526427 -0.510925,-0.536384 -0.291851,-0.0087 -0.536788,0.214855 -0.546931,0.501074 -0.0088,0.286222 0.219081,0.526691 0.510926,0.536383 0.291845,0.0087 0.537037,-0.21485 0.54693,-0.501073 z M 5.1361346,4.5495217 C 5.1459992,4.2633016 4.9173126,4.0228342 4.625465,4.0131374 4.3333639,4.0035995 4.0884256,4.2279886 4.0785368,4.5142085 4.0684348,4.800429 4.2973586,5.0406451 4.5892056,5.0505925 4.8813073,5.0601125 5.1262454,4.8357413 5.1361346,4.5495217 Z"
       fill-rule="evenodd"
       id="path8-4-9"
       style="isolation:isolate;fill:#ffffff;fill-opacity:1;stroke-width:0.0881952"
       sodipodi:nodetypes="sssssscsssssscssssssscsssssscsssssssssssssscssssssscsssssscscccccccsscscccsscccs" />
    <path
       d="m 5.4239638,8.5839705 c 0,1.6454525 1.3649288,2.9840545 3.0427159,2.9840545 1.6778003,0 3.0427183,-1.338602 3.0427183,-2.9840545 0,-1.6454347 -1.364918,-2.9840471 -3.0427183,-2.9840471 -1.677786,0 -3.0427159,1.3386124 -3.0427159,2.9840471 z M 8.4666797,6.3700034 c 1.244734,0 2.2574983,0.9932391 2.2574983,2.2139671 0,1.2207347 -1.0127643,2.2139855 -2.2574983,2.2139855 -1.2447293,0 -2.257497,-0.9932508 -2.257497,-2.2139855 0,-1.220728 1.0127677,-2.2139694 2.257497,-2.2139671 z"
       id="path1-1-9-2"
       style="fill:#ffffff;fill-opacity:1;stroke-width:0.06828" />
    <path
       d="m 11.810064,4.4812819 c -0.0232,0.03589 -0.06005,0.06118 -0.102338,0.07033 L 10.013773,4.7864191 C 9.8502849,4.7993891 9.5421859,4.6226867 9.7229787,4.3443611 l 0.5580393,-0.8584577 0.48453,-0.7453888 c 0.06779,-0.1040678 0.174317,-0.3188122 0.328303,-0.3525619 v 0 c 0.154162,-0.033509 0.306793,0.061894 0.340889,0.2131025 l 0.397108,1.7595631 c 0.0084,0.04144 0.0012,0.0849 -0.02189,0.1207063 z"
       id="path4-3-75-3-6-2-6"
       style="color:#d6dbf1;fill:#ffffff;fill-opacity:1;stroke-width:0.0284087"
       sodipodi:nodetypes="ccccccssccc" />
  </g>
</svg>
