<?xml version="1.0" encoding="UTF-8" standalone="no"?>
<svg
   viewBox="0 0 22 22"
   version="1.1"
   id="svg1"
   sodipodi:docname="window-pin.svg"
   width="22"
   height="22"
   inkscape:version="1.3.2 (091e20ef0f, 2023-11-25)"
   xmlns:inkscape="http://www.inkscape.org/namespaces/inkscape"
   xmlns:sodipodi="http://sodipodi.sourceforge.net/DTD/sodipodi-0.dtd"
   xmlns="http://www.w3.org/2000/svg"
   xmlns:svg="http://www.w3.org/2000/svg">
  <defs
     id="defs1" />
  <sodipodi:namedview
     id="namedview1"
     pagecolor="#ffffff"
     bordercolor="#999999"
     borderopacity="1"
     inkscape:showpageshadow="2"
     inkscape:pageopacity="0"
     inkscape:pagecheckerboard="0"
     inkscape:deskcolor="#d1d1d1"
     inkscape:zoom="8.6590909"
     inkscape:cx="10.740157"
     inkscape:cy="20.55643"
     inkscape:window-width="1920"
     inkscape:window-height="994"
     inkscape:window-x="0"
     inkscape:window-y="0"
     inkscape:window-maximized="1"
     inkscape:current-layer="svg1" />
  <style
     type="text/css"
     id="current-color-scheme">
        .ColorScheme-Text {
            color:#d8d8d8;
        }
    </style>
  <g
     id="window-pin">
    <path
       fill="none"
       d="M 0,0 H 22 V 22 H 0 Z"
       id="rect838" />
    <path
       d="M 18.789514,7.0929843 14.899926,3.2025082 c -0.269948,-0.27001 -0.740201,-0.27001 -1.009868,0 l -0.576969,0.577101 c -0.114156,0.1139319 -0.177111,0.2654765 -0.177111,0.4268696 0,0.1616746 0.06296,0.3132191 0.176861,0.4271511 l 0.49826,0.498124 L 9.6835716,8.57213 C 9.1660873,8.1617999 8.4819015,8.0345175 7.8441345,8.2476866 L 7.188769,8.4659207 C 6.9684279,8.5395512 6.8051961,8.7183281 6.7518378,8.9442848 6.6984796,9.1705229 6.7646538,9.4034519 6.9289484,9.5672525 l 2.1848747,2.1853735 -5.1669971,5.16849 c -0.482256,0.482116 -0.8079382,1.090952 -0.9415995,1.759536 -0.017599,0.08751 0.00988,0.177964 0.072832,0.241183 0.05067,0.05043 0.1186885,0.07816 0.1885825,0.07816 0.017348,0 0.034947,-0.0019 0.052545,-0.0053 0.6687129,-0.133661 1.2774095,-0.459699 1.7591341,-0.941815 l 5.1670279,-5.168146 2.186469,2.186968 c 0.126441,0.12672 0.293955,0.194754 0.467596,0.194754 0.05095,0 0.102965,-0.0059 0.154167,-0.01813 0.225405,-0.05309 0.403828,-0.216108 0.477192,-0.435937 l 0.219247,-0.657672 c 0.212589,-0.637913 0.08562,-1.322786 -0.324901,-1.839857 l 3.439591,-4.1284706 0.497728,0.498124 c 0.117908,0.1176526 0.272606,0.1766196 0.427304,0.1766196 0.154698,0 0.309678,-0.058967 0.427585,-0.1766196 L 18.789763,8.1119459 C 19.07012,7.8310243 19.07012,7.3737332 18.789513,7.0930303 Z m -5.545757,6.8930707 -0.219247,0.657673 c -0.01972,0.05975 -0.06696,0.07898 -0.09337,0.08539 -0.02613,0.0069 -0.07737,0.01013 -0.122158,-0.03467 l -2.375051,-2.375594 -0.08084,-0.0811 -3.0472337,-3.0479302 c -0.045075,-0.044835 -0.041074,-0.096329 -0.034947,-0.122999 0.00641,-0.026419 0.025882,-0.074162 0.08668,-0.094454 L 8.0129616,8.7535957 c 0.5182658,-0.172086 1.0800121,-0.04002 1.4662732,0.3462982 l 0.011472,0.011474 c 0,0 0,2.814e-4 2.813e-4,2.814e-4 l 1.6975239,1.6979117 1.708995,1.709667 c 0.386261,0.386287 0.519079,0.948162 0.34625,1.466827 z M 14.999998,5 v 0 0 0 0 c 0,0 2.82e-4,2.501e-4 0,0 z"
       id="path1-5"
       style="fill:#d3dae3;fill-opacity:1;stroke-width:0.0312621"
       sodipodi:nodetypes="ccccscccccccccccsccccsccccccsccccccccccccccscccccccccccccccccc" />
  </g>
</svg>
