<?xml version="1.0" encoding="UTF-8" standalone="no"?>
<svg
   width="22"
   height="22"
   version="1.1"
   id="svg6"
   sodipodi:docname="system-user-list.svg"
   inkscape:version="1.3.2 (091e20ef0f, 2023-11-25)"
   xmlns:inkscape="http://www.inkscape.org/namespaces/inkscape"
   xmlns:sodipodi="http://sodipodi.sourceforge.net/DTD/sodipodi-0.dtd"
   xmlns="http://www.w3.org/2000/svg"
   xmlns:svg="http://www.w3.org/2000/svg">
  <defs
     id="defs10">
    <linearGradient
       id="a-5"
       x1="16"
       x2="16"
       y1="1"
       y2="31"
       gradientUnits="userSpaceOnUse">
      <stop
         stop-color="#f4282c"
         offset="0"
         id="stop1009" />
      <stop
         stop-color="#fac136"
         offset="1"
         id="stop1011" />
    </linearGradient>
  </defs>
  <sodipodi:namedview
     id="namedview8"
     pagecolor="#ffffff"
     bordercolor="#000000"
     borderopacity="0.25"
     inkscape:showpageshadow="2"
     inkscape:pageopacity="0.0"
     inkscape:pagecheckerboard="0"
     inkscape:deskcolor="#d1d1d1"
     showgrid="false"
     inkscape:zoom="12.422581"
     inkscape:cx="10.545313"
     inkscape:cy="10.746559"
     inkscape:window-width="1920"
     inkscape:window-height="999"
     inkscape:window-x="0"
     inkscape:window-y="0"
     inkscape:window-maximized="1"
     inkscape:current-layer="svg6" />
  <style
     type="text/css"
     id="current-color-scheme">
        .ColorScheme-Text {
            color:#d8d8d8;
        }
    </style>
  <g
     transform="matrix(0.6875,0,0,0.6875,-15.125,0)"
     id="22-22-system-user-list"
     style="stroke-width:1.45455">
    <path
       id="path340-1-2"
       class="ColorScheme-Text"
       d="m 45.488131,9.3506524 c -0.428032,0 -0.823357,0.118436 -1.175323,0.308444 2.19e-4,0.0019 -0.108875,0.06683 -0.108559,0.06907 0.131158,1.6601876 -0.285093,2.7164246 -0.76011,3.5412596 0.452639,0.644005 1.198201,1.068211 2.043981,1.068211 1.172344,0 2.155534,-0.809129 2.422075,-1.899348 0.04653,-0.190449 0.07152,-0.389374 0.07152,-0.594164 -1.4e-5,-1.377127 -1.116396,-2.4934976 -2.493503,-2.4934976 z m -14.968604,0 c 0.428044,0 0.823356,0.118436 1.175323,0.308444 -2.09e-4,0.0019 0.108881,0.06683 0.108564,0.06907 -0.131161,1.6601876 0.285083,2.7164246 0.760094,3.5412596 -0.452637,0.644005 -1.198195,1.068211 -2.043976,1.068211 -1.172347,0 -2.155535,-0.809129 -2.422077,-1.899348 -0.04653,-0.190449 -0.07151,-0.389374 -0.07151,-0.594164 1.6e-5,-1.377127 1.11639,-2.4934976 2.493503,-2.4934976 z m -4.7e-5,6.6493276 c 1.401689,0 2.631095,0.646313 3.383128,1.688313 -0.422021,0.2237 -0.85144,0.498543 -1.223981,0.720761 -0.409553,-0.483039 -1.17144,-0.74673 -2.159147,-0.74673 -1.496515,0 -2.493504,1.098055 -2.493504,3.324685 h 2.077922 l -0.83117,1.662342 h -2.909093 l 1e-6,-2.525992 c 1e-6,-2.392054 1.853728,-4.123379 4.155844,-4.123379 z m 14.961041,1.8e-5 c -1.401686,0 -2.631103,0.646311 -3.383126,1.68831 0.422021,0.223705 0.85143,0.498542 1.223982,0.72076 0.40955,-0.483039 1.171429,-0.746729 2.159144,-0.746729 1.49652,0 2.493502,1.135867 2.493502,3.32467 h -2.077921 l 0.831168,1.662342 h 2.909092 l 2e-6,-2.525976 c 2e-6,-2.392055 -1.853721,-4.123377 -4.155843,-4.123377 z m -7.480525,3.324672 c 3.324673,0 6.649354,1.662339 6.649354,6.649354 h -13.2987 c 0,-4.987015 3.324671,-6.649354 6.649346,-6.649354 z m 0,-1.662333 c -4.834545,0 -8.298541,3.399229 -8.308361,8.311687 l -0.0029,1.662339 H 46.31207 l -0.0029,-1.662339 c -0.01018,-4.938645 -3.473859,-8.311687 -8.308383,-8.311687 z m 9e-5,-13.2987004 c -3.213355,0 -5.818232,2.6048784 -5.818232,5.8181804 0,3.213306 2.604877,5.818181 5.818232,5.818181 2.735492,0 5.03005,-1.887763 5.651998,-4.43161 0.108559,-0.444364 0.166249,-0.90874 0.166249,-1.386571 0,-3.213302 -2.604936,-5.8181804 -5.818247,-5.8181804 z"
       style="fill:#009999;fill-opacity:1;stroke:none;stroke-width:1.66235" />
    <path
       id="path84-3-7"
       d="M 22,0 V 32 H 54 V 0 Z"
       style="opacity:1;fill:none" />
  </g>
</svg>
