<?xml version="1.0" encoding="UTF-8" standalone="no"?>
<svg
   version="1.1"
   viewBox="0 0 24 24"
   id="svg2"
   sodipodi:docname="document-open-recent.svg"
   inkscape:version="1.3.2 (091e20ef0f, 2023-11-25)"
   xmlns:inkscape="http://www.inkscape.org/namespaces/inkscape"
   xmlns:sodipodi="http://sodipodi.sourceforge.net/DTD/sodipodi-0.dtd"
   xmlns="http://www.w3.org/2000/svg"
   xmlns:svg="http://www.w3.org/2000/svg">
  <sodipodi:namedview
     id="namedview2"
     pagecolor="#ffffff"
     bordercolor="#999999"
     borderopacity="1"
     inkscape:showpageshadow="2"
     inkscape:pageopacity="0"
     inkscape:pagecheckerboard="0"
     inkscape:deskcolor="#d1d1d1"
     inkscape:zoom="31.833333"
     inkscape:cx="12"
     inkscape:cy="12"
     inkscape:window-width="1920"
     inkscape:window-height="996"
     inkscape:window-x="0"
     inkscape:window-y="0"
     inkscape:window-maximized="1"
     inkscape:current-layer="svg2" />
  <defs
     id="defs1">
    <style
       id="current-color-scheme"
       type="text/css">
.ColorScheme-Text { 
    color:currentColor;
}
</style>
  </defs>
  <path
     class="ColorScheme-Text"
     transform="translate(1,1)"
     d="m14 11c-2.216 0-4 1.784-4 4s1.784 4 4 4 4-1.784 4-4-1.784-4-4-4m0 1c1.662 0 3 1.338 3 3s-1.338 3-3 3-3-1.338-3-3 1.338-3 3-3m-1 1v3h2v-1h-1v-2h-1"
     id="path1"
     style=""
     fill="#fcfcfc" />
  <path
     class="ColorScheme-Text "
     d="m8 4c-1.662 0-3 1.338-3 3v10c0 1.662 1.338 3 3 3h3v-1h-3c-1.108 0-2-0.892-2-2v-10c0-1.108 0.892-2 2-2h6v2c0 1.108 0.892 2 2 2h2v3h1v-4l-4-4z"
     id="path2"
     style=""
     fill="#fcfcfc" />
</svg>
