<?xml version="1.0" encoding="UTF-8" standalone="no"?>
<svg
   width="68"
   height="68"
   viewBox="0 0 17.991665 17.991665"
   version="1.1"
   id="svg1114"
   inkscape:version="1.3.2 (091e20ef0f, 2023-11-25)"
   sodipodi:docname="system-shutdown.svg"
   xmlns:inkscape="http://www.inkscape.org/namespaces/inkscape"
   xmlns:sodipodi="http://sodipodi.sourceforge.net/DTD/sodipodi-0.dtd"
   xmlns:xlink="http://www.w3.org/1999/xlink"
   xmlns="http://www.w3.org/2000/svg"
   xmlns:svg="http://www.w3.org/2000/svg"
   xmlns:rdf="http://www.w3.org/1999/02/22-rdf-syntax-ns#"
   xmlns:cc="http://creativecommons.org/ns#"
   xmlns:dc="http://purl.org/dc/elements/1.1/">
  <style
     type="text/css"
     id="current-color-scheme">.ColorScheme-Highlight { color:#5599ff; }
</style>
  <defs
     id="defs1108">
    <linearGradient
       id="linearGradient12"
       inkscape:collect="always">
      <stop
         style="stop-color:#ffffff;stop-opacity:0;"
         offset="0"
         id="stop10" />
      <stop
         id="stop11"
         offset="0.65909404"
         style="stop-color:#ffffff;stop-opacity:0" />
      <stop
         style="stop-color:#ffffff;stop-opacity:1;"
         offset="1"
         id="stop12" />
    </linearGradient>
    <linearGradient
       id="linearGradient9"
       inkscape:collect="always">
      <stop
         style="stop-color:#000000;stop-opacity:0;"
         offset="0"
         id="stop1" />
      <stop
         id="stop8"
         offset="0.66102529"
         style="stop-color:#000000;stop-opacity:0" />
      <stop
         style="stop-color:#000000;stop-opacity:1;"
         offset="1"
         id="stop9" />
    </linearGradient>
    <linearGradient
       id="linearGradient7"
       inkscape:collect="always">
      <stop
         style="stop-color:#000000;stop-opacity:0;"
         offset="0"
         id="stop5" />
      <stop
         id="stop6"
         offset="0.6586886"
         style="stop-color:#000000;stop-opacity:0" />
      <stop
         style="stop-color:#000000;stop-opacity:1;"
         offset="1"
         id="stop7" />
    </linearGradient>
    <linearGradient
       id="linearGradient4"
       inkscape:collect="always">
      <stop
         style="stop-color:#000000;stop-opacity:0;"
         offset="0"
         id="stop2" />
      <stop
         id="stop3"
         offset="0.67055255"
         style="stop-color:#000000;stop-opacity:0" />
      <stop
         style="stop-color:#000000;stop-opacity:1;"
         offset="1"
         id="stop4" />
    </linearGradient>
    <linearGradient
       inkscape:collect="always"
       id="linearGradient899">
      <stop
         style="stop-color:#bf5780;stop-opacity:1;"
         offset="0"
         id="stop895" />
      <stop
         style="stop-color:#b23165;stop-opacity:1;"
         offset="1"
         id="stop897" />
    </linearGradient>
    <linearGradient
       id="linearGradient1167"
       x1="40.751999"
       x2="40.751999"
       y1="28.507999"
       y2="17.205999"
       gradientUnits="userSpaceOnUse">
      <stop
         style="stop-color:#84fb6e;stop-opacity:1"
         stop-color="#0ab816"
         offset="0"
         id="stop1163" />
      <stop
         style="stop-color:#0dd41a;stop-opacity:1"
         stop-color="#0cf36c"
         offset="1"
         id="stop1165" />
    </linearGradient>
    <linearGradient
       id="cornerBevel"
       inkscape:collect="always">
      <stop
         style="stop-color:#000000;stop-opacity:0;"
         offset="0"
         id="stop2663" />
      <stop
         id="stop2671"
         offset="0.66666675"
         style="stop-color:#000000;stop-opacity:0" />
      <stop
         style="stop-color:#000000;stop-opacity:1;"
         offset="1"
         id="stop2661" />
    </linearGradient>
    <linearGradient
       id="bevel"
       inkscape:collect="always">
      <stop
         id="stop2685"
         offset="0"
         style="stop-color:#000000;stop-opacity:1;" />
      <stop
         id="stop2687"
         offset="1"
         style="stop-color:#000000;stop-opacity:0;" />
    </linearGradient>
    <linearGradient
       id="highlightCorner"
       inkscape:collect="always">
      <stop
         style="stop-color:#ffffff;stop-opacity:0;"
         offset="0"
         id="stop2613" />
      <stop
         id="stop2621"
         offset="0.66666669"
         style="stop-color:#ffffff;stop-opacity:0" />
      <stop
         style="stop-color:#ffffff;stop-opacity:1;"
         offset="1"
         id="stop2611" />
    </linearGradient>
    <linearGradient
       inkscape:collect="always"
       id="highlight">
      <stop
         style="stop-color:#ffffff;stop-opacity:1;"
         offset="0"
         id="stop2921" />
      <stop
         style="stop-color:#ffffff;stop-opacity:0;"
         offset="1"
         id="stop2923" />
    </linearGradient>
    <radialGradient
       inkscape:collect="always"
       xlink:href="#highlightCorner"
       id="radialGradient15"
       gradientUnits="userSpaceOnUse"
       gradientTransform="matrix(0.04294597,-12.079348,17.933991,0.06376112,14.524179,-50.373789)"
       cx="-4.5799766"
       cy="-0.50206107"
       fx="-4.5799766"
       fy="-0.50206107"
       r="0.39687499" />
    <linearGradient
       inkscape:collect="always"
       xlink:href="#highlight"
       id="linearGradient15"
       gradientUnits="userSpaceOnUse"
       x1="-3.8453064"
       y1="-1.1532172"
       x2="-3.8453064"
       y2="-0.8954913"
       gradientTransform="matrix(6.0923077,0,0,6.0923077,32.228528,7.1537621)" />
    <radialGradient
       inkscape:collect="always"
       xlink:href="#linearGradient12"
       id="radialGradient17"
       gradientUnits="userSpaceOnUse"
       gradientTransform="matrix(-0.02247554,-12.045403,-17.967828,0.03352619,1.6640208,-50.22331)"
       cx="-4.575222"
       cy="-0.55256462"
       fx="-4.575222"
       fy="-0.55256462"
       r="0.39687499" />
    <radialGradient
       inkscape:collect="always"
       xlink:href="#linearGradient7"
       id="radialGradient18"
       gradientUnits="userSpaceOnUse"
       gradientTransform="matrix(0.06461187,12.09952,17.933731,-0.09576873,14.609502,64.748231)"
       cx="-4.4284906"
       cy="-0.50121039"
       fx="-4.4284906"
       fy="-0.50121039"
       r="0.39687499" />
    <linearGradient
       inkscape:collect="always"
       xlink:href="#bevel"
       id="linearGradient18"
       gradientUnits="userSpaceOnUse"
       x1="-3.8415797"
       y1="-1.4506671"
       x2="-3.8406549"
       y2="-1.1968651"
       gradientTransform="matrix(6.0923076,0,0,6.0923076,32.228527,-7.1537627)" />
    <radialGradient
       inkscape:collect="always"
       xlink:href="#linearGradient4"
       id="radialGradient20"
       gradientUnits="userSpaceOnUse"
       gradientTransform="matrix(-0.01031383,11.991438,-17.967296,-0.01545561,1.7353715,64.305742)"
       cx="-4.4236727"
       cy="-0.55004197"
       fx="-4.4236727"
       fy="-0.55004197"
       r="0.39687499" />
    <radialGradient
       inkscape:collect="always"
       xlink:href="#cornerBevel"
       id="radialGradient25"
       gradientUnits="userSpaceOnUse"
       gradientTransform="matrix(12.184614,0,0,12.184614,59.63122,10.377613)"
       cx="-4.4568658"
       cy="-0.44864327"
       fx="-4.4568658"
       fy="-0.44864327"
       r="0.39687496" />
    <linearGradient
       inkscape:collect="always"
       xlink:href="#bevel"
       id="linearGradient25"
       gradientUnits="userSpaceOnUse"
       x1="-3.8487544"
       y1="-1.146081"
       x2="-3.8455966"
       y2="-0.890971"
       gradientTransform="matrix(6.0923077,0,0,6.0923077,32.228528,7.1537627)" />
    <radialGradient
       inkscape:collect="always"
       xlink:href="#cornerBevel"
       id="radialGradient29"
       gradientUnits="userSpaceOnUse"
       gradientTransform="matrix(0,-12.184614,12.184614,0,11.27353,-44.427768)"
       cx="-4.5705457"
       cy="-0.48653662"
       fx="-4.5705457"
       fy="-0.48653662"
       r="0.39687496" />
    <radialGradient
       inkscape:collect="always"
       xlink:href="#cornerBevel"
       id="radialGradient30"
       gradientUnits="userSpaceOnUse"
       gradientTransform="matrix(-12.184514,-0.04945749,0.04847411,-11.942243,-43.502155,3.8519053)"
       cx="-4.5342312"
       cy="-0.60337442"
       fx="-4.5342312"
       fy="-0.60337442"
       r="0.39687496" />
    <radialGradient
       inkscape:collect="always"
       xlink:href="#linearGradient9"
       id="radialGradient31"
       gradientUnits="userSpaceOnUse"
       gradientTransform="matrix(0,-12.151612,11.978956,0,18.475664,-48.770776)"
       cx="-4.4175329"
       cy="-0.56489283"
       fx="-4.4175329"
       fy="-0.56489283"
       r="0.39687496" />
    <linearGradient
       inkscape:collect="always"
       xlink:href="#bevel"
       id="linearGradient34"
       gradientUnits="userSpaceOnUse"
       x1="-3.99717"
       y1="-1.2218677"
       x2="-4.0003276"
       y2="-0.96675771"
       gradientTransform="matrix(6.0923077,0,0,6.0923077,17.025077,8.0496826)" />
    <linearGradient
       inkscape:collect="always"
       xlink:href="#bevel"
       id="linearGradient35"
       gradientUnits="userSpaceOnUse"
       x1="-4.0919032"
       y1="-1.4492278"
       x2="-4.0950613"
       y2="-1.1972755"
       gradientTransform="matrix(6.0923077,0,0,6.0923077,16.129161,-7.1537627)" />
    <linearGradient
       inkscape:collect="always"
       xlink:href="#bevel"
       id="linearGradient36"
       gradientUnits="userSpaceOnUse"
       x1="-3.8734362"
       y1="-1.3717227"
       x2="-3.8765941"
       y2="-1.116071"
       gradientTransform="matrix(6.0923077,0,0,6.0923077,31.33261,-8.0496826)" />
    <linearGradient
       id="paint2_linear_77:3-7"
       x1="79.398094"
       y1="-197.84389"
       x2="82.901054"
       y2="-199.97827"
       gradientUnits="userSpaceOnUse"
       gradientTransform="matrix(1.9248511,0,0,1.7314595,-40.88733,399.61741)">
      <stop
         stop-color="#EBFAFF"
         stop-opacity="0.1"
         id="stop29-5-7"
         offset="0"
         style="stop-color:#c3c3c3;stop-opacity:1;" />
      <stop
         offset="1"
         stop-color="#70A9FF"
         stop-opacity="0.5"
         id="stop30-0-1"
         style="stop-color:#05c7ff;stop-opacity:0.80000001;" />
    </linearGradient>
    <linearGradient
       inkscape:collect="always"
       xlink:href="#linearGradient899"
       id="linearGradient926"
       x1="0.98894888"
       y1="-9.3406019"
       x2="16.919081"
       y2="-9.2251434"
       gradientUnits="userSpaceOnUse"
       gradientTransform="translate(-0.92604234,0.47624996)" />
  </defs>
  <sodipodi:namedview
     id="base"
     pagecolor="#e2e2e2"
     bordercolor="#666666"
     borderopacity="1.0"
     inkscape:pageopacity="0"
     inkscape:pageshadow="2"
     inkscape:zoom="9.7248729"
     inkscape:cx="32.596827"
     inkscape:cy="37.121308"
     inkscape:document-units="px"
     inkscape:current-layer="layer1"
     inkscape:document-rotation="0"
     showgrid="true"
     units="px"
     inkscape:window-width="1920"
     inkscape:window-height="990"
     inkscape:window-x="0"
     inkscape:window-y="0"
     inkscape:window-maximized="1"
     inkscape:object-paths="true"
     inkscape:snap-grids="true"
     inkscape:snap-intersection-paths="true"
     inkscape:snap-smooth-nodes="true"
     inkscape:snap-midpoints="true"
     inkscape:showpageshadow="2"
     inkscape:pagecheckerboard="0"
     inkscape:deskcolor="#d1d1d1">
    <inkscape:grid
       id="grid2"
       units="px"
       originx="0"
       originy="0"
       spacingx="0.26458333"
       spacingy="0.26458333"
       empcolor="#0099e5"
       empopacity="0.30196078"
       color="#0099e5"
       opacity="0.14902"
       empspacing="5"
       dotted="false"
       gridanglex="30"
       gridanglez="30"
       visible="true" />
  </sodipodi:namedview>
  <metadata
     id="metadata1111">
    <rdf:RDF>
      <cc:Work
         rdf:about="">
        <dc:format>image/svg+xml</dc:format>
        <dc:type
           rdf:resource="http://purl.org/dc/dcmitype/StillImage" />
      </cc:Work>
    </rdf:RDF>
  </metadata>
  <g
     inkscape:label="Layer 1"
     inkscape:groupmode="layer"
     id="layer1">
    <g
       id="g918"
       transform="translate(0.47625037,0.92604234)">
      <rect
         ry="4.8357682"
         rx="4.8357682"
         style="fill:url(#linearGradient926);fill-opacity:1;stroke-width:6.09228"
         x="0.13229237"
         y="-16.457085"
         width="15.875001"
         height="15.875001"
         id="use1056"
         transform="rotate(90)"
         class="ColorScheme-Highlight" />
      <path
         d="m 5.344583,0.13229167 c -2.6384245,0 -4.76249953,2.12407483 -4.76249953,4.76249963 H 5.344583 Z"
         style="opacity:0.15;fill:url(#radialGradient25);fill-opacity:1;stroke-width:6.09228"
         id="path20" />
      <rect
         y="0.13229151"
         x="5.3445826"
         height="1.5875"
         width="6.3500004"
         id="rect20"
         style="opacity:0.15;fill:url(#linearGradient25);fill-opacity:1;stroke-width:4.83577;stroke-linecap:round;stroke-linejoin:round;paint-order:stroke fill markers" />
      <path
         d="m 0.58208347,11.244792 c 0,2.638424 2.12407503,4.762499 4.76249953,4.762499 v -4.762499 z"
         style="opacity:0.15;fill:url(#radialGradient29);fill-opacity:1;stroke-width:6.09228"
         id="use20" />
      <rect
         y="0.5820834"
         x="-11.244792"
         height="1.5875"
         width="6.3500004"
         id="use21"
         style="opacity:0.15;fill:url(#linearGradient34);fill-opacity:1;stroke-width:4.83577;stroke-linecap:round;stroke-linejoin:round;paint-order:stroke fill markers"
         transform="rotate(-90)" />
      <path
         d="m 11.694583,16.007291 c 2.638425,0 4.7625,-2.124074 4.7625,-4.762499 h -4.7625 z"
         style="opacity:0.15;fill:url(#radialGradient30);fill-opacity:1;stroke-width:6.09228"
         id="use22" />
      <rect
         y="-16.007292"
         x="-11.694584"
         height="1.5875"
         width="6.3500004"
         id="use23"
         style="opacity:0.15;fill:url(#linearGradient35);fill-opacity:1;stroke-width:4.83577;stroke-linecap:round;stroke-linejoin:round;paint-order:stroke fill markers"
         transform="scale(-1)" />
      <path
         d="m 16.457083,4.8947913 c 0,-2.6384245 -2.124074,-4.76249963 -4.7625,-4.76249963 V 4.8947913 Z"
         style="opacity:0.15;fill:url(#radialGradient31);fill-opacity:1;stroke-width:6.09228"
         id="use24" />
      <rect
         y="-16.457081"
         x="4.8947906"
         height="1.5875"
         width="6.3500004"
         id="use25"
         style="opacity:0.15;fill:url(#linearGradient36);fill-opacity:1;stroke-width:4.83577;stroke-linecap:round;stroke-linejoin:round;paint-order:stroke fill markers"
         transform="rotate(90)" />
      <path
         d="m 5.3445832,0.13229107 c -2.638425,0 -4.76250035,2.12407473 -4.76250035,4.76249973 H 5.3445832 Z"
         style="opacity:0.5;fill:url(#radialGradient15);fill-opacity:1;stroke-width:6.09228"
         id="path14" />
      <rect
         y="0.1322909"
         x="5.3445826"
         height="1.5875"
         width="6.3499999"
         id="rect14"
         style="opacity:0.5;fill:url(#linearGradient15);fill-opacity:1;stroke-width:4.83577;stroke-linecap:round;stroke-linejoin:round;paint-order:stroke fill markers" />
      <path
         d="m 11.694583,0.13229096 c 2.638425,0 4.7625,2.12407504 4.7625,4.76249734 h -4.7625 z"
         style="opacity:0.5;fill:url(#radialGradient17);fill-opacity:1;stroke-width:6.09228"
         id="use14" />
      <path
         id="path17"
         style="opacity:0.5;fill:url(#radialGradient18);fill-opacity:1;stroke-width:6.09228"
         d="m 5.3445834,16.00729 c -2.638425,0 -4.7625,-2.124075 -4.7625,-4.7625 h 4.7625 z" />
      <rect
         style="opacity:0.5;fill:url(#linearGradient18);fill-opacity:1;stroke-width:4.83577;stroke-linecap:round;stroke-linejoin:round;paint-order:stroke fill markers"
         id="rect17"
         width="6.3499994"
         height="1.5874999"
         x="5.3445826"
         y="-16.007292"
         transform="scale(1,-1)" />
      <path
         id="use17"
         style="opacity:0.5;fill:url(#radialGradient20);fill-opacity:1;stroke-width:6.09228"
         d="m 11.694582,16.007291 c 2.638425,0 4.7625,-2.124075 4.7625,-4.7625 h -4.7625 z" />
    </g>
    <path
       d="m 4.689808,4.6984863 c -2.3918513,2.393214 -2.3722793,6.2995127 0.0582,8.6679637 2.2643494,2.206103 5.91327,2.296274 8.2765,0.196518 2.070676,-1.839784 2.620216,-4.7709507 1.455277,-7.1913537 -0.139932,-0.29046 -0.505818,-0.390162 -0.781291,-0.222948 -0.246918,0.150018 -0.330462,0.461772 -0.206328,0.722847 0.959848,2.01808 0.46731,4.4643357 -1.310437,5.9570347 -1.803241,1.514086 -4.4786852,1.53955 -6.3089215,0.0579 C 3.538618,10.997269 3.4048637,7.5487303 5.4716655,5.4808223 c 1.5061967,-1.507067 3.767989,-1.878987 5.6545005,-0.978917 0.25935,0.123726 0.56922,0.03798 0.718338,-0.207114 l 0.0015,-0.0016 c 0.166458,-0.27477 0.0685,-0.640247 -0.220902,-0.779842 -2.3108157,-1.114651 -5.0880674,-0.66345 -6.9353754,1.184884 z"
       id="path1-0-4"
       style="fill:#ffffff;fill-opacity:1;stroke-width:0.0769824" />
    <path
       d="m 6.3981507,9.3791393 c -0.00924,-0.05808 -0.01812,-0.117522 -0.0243,-0.176952 0.00388,0.0351 0.00654,0.07013 0.01026,0.10554 -0.02748,-0.268776 -0.0213,-0.540414 0.01932,-0.807575 -0.00555,0.03498 -0.00996,0.06966 -0.01686,0.10488 0.04044,-0.268854 0.1173179,-0.530502 0.2263919,-0.780203 -0.0153,0.0327 -0.0285,0.06613 -0.0438,0.09838 0.111558,-0.253158 0.255696,-0.491322 0.42918,-0.708237 -0.0237,0.02868 -0.0471,0.0579 -0.069828,0.08719 0.175332,-0.217482 0.377706,-0.410202 0.6034446,-0.574578 -0.0297,0.02208 -0.060018,0.04452 -0.090444,0.06498 0.227472,-0.165132 0.475398,-0.298938 0.7377497,-0.398418 -0.0333,0.01188 -0.067332,0.02568 -0.100188,0.03756 0.25047,-0.09384 0.512424,-0.155226 0.7788396,-0.184044 -0.03516,0.0043 -0.070134,0.0066 -0.105528,0.01032 0.26703,-0.02712 0.536028,-0.021 0.8013815,0.0198 -0.03486,-0.0059 -0.069648,-0.0099 -0.104886,-0.0168 0.26475,0.03966 0.5226418,0.115092 0.769317,0.220944 -0.0327,-0.0153 -0.06593,-0.0285 -0.09838,-0.04374 0.257017,0.112182 0.499207,0.257922 0.717579,0.433212 -0.02868,-0.02358 -0.05772,-0.0471 -0.08698,-0.06966 0.21729,0.175248 0.409686,0.377538 0.574032,0.603236 -0.02208,-0.02952 -0.04452,-0.06001 -0.06498,-0.09043 0.164784,0.227418 0.298518,0.475325 0.397248,0.738283 -0.01182,-0.0333 -0.02562,-0.06733 -0.03756,-0.100344 0.0937,0.250494 0.154716,0.51249 0.182748,0.779524 -0.0039,-0.0351 -0.0063,-0.07015 -0.0102,-0.105546 0.027,0.267096 0.0204,0.536214 -0.02022,0.801659 0.006,-0.03498 0.01,-0.06965 0.01686,-0.10488 -0.03978,0.264852 -0.115464,0.522894 -0.221946,0.7691247 0.01524,-0.0327 0.0285,-0.06613 0.04392,-0.09838 -0.112338,0.2571716 -0.25878,0.4989346 -0.434088,0.7175316 0.02352,-0.02868 0.04704,-0.0579 0.06983,-0.08717 -0.175338,0.217488 -0.378222,0.409488 -0.603439,0.574578 0.02952,-0.02202 0.06015,-0.04452 0.09044,-0.065 -0.22446,0.162192 -0.468907,0.295062 -0.728225,0.394056 0.0333,-0.01182 0.06733,-0.02568 0.100188,-0.03756 -0.2540106,0.09613 -0.5200926,0.159096 -0.7901057,0.187812 0.03516,-0.0039 0.069978,-0.0063 0.105522,-0.01032 -0.268116,0.02718 -0.537306,0.02082 -0.8037486,-0.01974 0.03498,0.006 0.069648,0.0099 0.104886,0.0168 -0.067788,-0.01044 -0.13572,-0.02388 -0.202428,-0.03738 0.05688,0.233718 0.11415,0.467322 0.17067,0.700439 0.00297,-0.0032 0.0063,-0.0061 0.00918,-0.0087 0.077136,-0.07354 0.126318,-0.184584 0.129576,-0.290838 0.00282,-0.10227 -0.03888,-0.225072 -0.114942,-0.296874 -0.077436,-0.07422 -0.179556,-0.130698 -0.290694,-0.129414 -0.110556,0.0025 -0.214962,0.03666 -0.296874,0.115092 -0.00297,0.0032 -0.0063,0.0061 -0.00918,0.0088 -0.105864,0.100956 -0.151656,0.254454 -0.118032,0.39708 0.0318,0.13785 0.146586,0.272358 0.289338,0.30396 0.6168858,0.134406 1.2727103,0.1203 1.8755533,-0.07864 0.547686,-0.18075 1.053144,-0.480744 1.456795,-0.896187 0.403596,-0.414204 0.707317,-0.922616 0.872251,-1.4778811 0.170148,-0.571584 0.190164,-1.18862 0.06374,-1.770942 -0.122808,-0.56931 -0.393606,-1.098717 -0.76754,-1.543567 -0.184986,-0.21978 -0.401232,-0.41085 -0.632179,-0.581148 -0.233202,-0.171414 -0.488622,-0.302412 -0.755705,-0.412986 -0.274044,-0.11316 -0.5575802,-0.178236 -0.8498954,-0.220026 -0.3010559,-0.04452 -0.5998859,-0.03546 -0.9005549,-0.0031 -0.25992,0.02838 -0.516078,0.08992 -0.7605539,0.181542 -0.27114,0.101136 -0.529434,0.223032 -0.7692156,0.38709 -0.23745,0.162984 -0.459474,0.3447 -0.6523572,0.559368 -0.1923359,0.214158 -0.3650159,0.447462 -0.5013719,0.701196 -0.282366,0.527136 -0.436032,1.123263 -0.429186,1.722688 0.00175,0.192384 0.02148,0.386328 0.0525,0.575874 0.01746,0.10212 0.104736,0.208998 0.190446,0.260388 0.085716,0.0519 0.21216,0.07567 0.309744,0.04878 0.104886,-0.02958 0.207426,-0.09191 0.26043,-0.190662 0.05328,-0.09871 0.065148,-0.197814 0.04782,-0.30933 z"
       id="path2-2-8"
       style="fill:#ffffff;fill-opacity:1;stroke-width:0.00289138" />
    <path
       d="M 4.2295264,14.150017 9.0024163,9.7564873 c 0.117702,-0.108294 0.127434,-0.42603 -0.061506,-0.63203 -0.189624,-0.205998 -0.54435,-0.188094 -0.6620802,-0.07989 L 3.5430772,13.403775 c -0.1177079,0.108282 -0.1274279,0.426012 0.061752,0.632012 0.189648,0.205998 0.507108,0.222558 0.6247266,0.114144 z"
       id="path2653-4-7"
       style="fill:#ffffff;fill-opacity:1;stroke-width:0.066666"
       sodipodi:nodetypes="sssssss" />
  </g>
</svg>
