<?xml version="1.0" encoding="UTF-8" standalone="no"?>
<svg
   width="68"
   height="68"
   viewBox="0 0 17.991665 17.991665"
   version="1.1"
   id="svg1114"
   inkscape:version="1.3.2 (091e20ef0f, 2023-11-25)"
   sodipodi:docname="preferences-system-network-share-windows.svg"
   xmlns:inkscape="http://www.inkscape.org/namespaces/inkscape"
   xmlns:sodipodi="http://sodipodi.sourceforge.net/DTD/sodipodi-0.dtd"
   xmlns:xlink="http://www.w3.org/1999/xlink"
   xmlns="http://www.w3.org/2000/svg"
   xmlns:svg="http://www.w3.org/2000/svg"
   xmlns:rdf="http://www.w3.org/1999/02/22-rdf-syntax-ns#"
   xmlns:cc="http://creativecommons.org/ns#"
   xmlns:dc="http://purl.org/dc/elements/1.1/">
  <style
     type="text/css"
     id="current-color-scheme">.ColorScheme-Highlight { color:#5599ff; }
</style>
  <defs
     id="defs1108">
    <linearGradient
       id="linearGradient12"
       inkscape:collect="always">
      <stop
         style="stop-color:#ffffff;stop-opacity:0;"
         offset="0"
         id="stop10" />
      <stop
         id="stop11"
         offset="0.65909404"
         style="stop-color:#ffffff;stop-opacity:0" />
      <stop
         style="stop-color:#ffffff;stop-opacity:1;"
         offset="1"
         id="stop12" />
    </linearGradient>
    <linearGradient
       id="linearGradient9"
       inkscape:collect="always">
      <stop
         style="stop-color:#000000;stop-opacity:0;"
         offset="0"
         id="stop1" />
      <stop
         id="stop8"
         offset="0.66102529"
         style="stop-color:#000000;stop-opacity:0" />
      <stop
         style="stop-color:#000000;stop-opacity:1;"
         offset="1"
         id="stop9" />
    </linearGradient>
    <linearGradient
       id="linearGradient7"
       inkscape:collect="always">
      <stop
         style="stop-color:#000000;stop-opacity:0;"
         offset="0"
         id="stop5" />
      <stop
         id="stop6"
         offset="0.6586886"
         style="stop-color:#000000;stop-opacity:0" />
      <stop
         style="stop-color:#000000;stop-opacity:1;"
         offset="1"
         id="stop7" />
    </linearGradient>
    <linearGradient
       id="linearGradient4"
       inkscape:collect="always">
      <stop
         style="stop-color:#000000;stop-opacity:0;"
         offset="0"
         id="stop2" />
      <stop
         id="stop3"
         offset="0.67055255"
         style="stop-color:#000000;stop-opacity:0" />
      <stop
         style="stop-color:#000000;stop-opacity:1;"
         offset="1"
         id="stop4" />
    </linearGradient>
    <linearGradient
       inkscape:collect="always"
       id="linearGradient899">
      <stop
         style="stop-color:#9955ff;stop-opacity:1;"
         offset="0"
         id="stop895" />
      <stop
         style="stop-color:#3e8bff;stop-opacity:1;"
         offset="1"
         id="stop897" />
    </linearGradient>
    <linearGradient
       id="linearGradient1167"
       x1="40.751999"
       x2="40.751999"
       y1="28.507999"
       y2="17.205999"
       gradientUnits="userSpaceOnUse">
      <stop
         style="stop-color:#84fb6e;stop-opacity:1"
         stop-color="#0ab816"
         offset="0"
         id="stop1163" />
      <stop
         style="stop-color:#0dd41a;stop-opacity:1"
         stop-color="#0cf36c"
         offset="1"
         id="stop1165" />
    </linearGradient>
    <linearGradient
       id="cornerBevel"
       inkscape:collect="always">
      <stop
         style="stop-color:#000000;stop-opacity:0;"
         offset="0"
         id="stop2663" />
      <stop
         id="stop2671"
         offset="0.66666675"
         style="stop-color:#000000;stop-opacity:0" />
      <stop
         style="stop-color:#000000;stop-opacity:1;"
         offset="1"
         id="stop2661" />
    </linearGradient>
    <linearGradient
       id="bevel"
       inkscape:collect="always">
      <stop
         id="stop2685"
         offset="0"
         style="stop-color:#000000;stop-opacity:1;" />
      <stop
         id="stop2687"
         offset="1"
         style="stop-color:#000000;stop-opacity:0;" />
    </linearGradient>
    <linearGradient
       id="highlightCorner"
       inkscape:collect="always">
      <stop
         style="stop-color:#ffffff;stop-opacity:0;"
         offset="0"
         id="stop2613" />
      <stop
         id="stop2621"
         offset="0.66666669"
         style="stop-color:#ffffff;stop-opacity:0" />
      <stop
         style="stop-color:#ffffff;stop-opacity:1;"
         offset="1"
         id="stop2611" />
    </linearGradient>
    <linearGradient
       inkscape:collect="always"
       id="highlight">
      <stop
         style="stop-color:#ffffff;stop-opacity:1;"
         offset="0"
         id="stop2921" />
      <stop
         style="stop-color:#ffffff;stop-opacity:0;"
         offset="1"
         id="stop2923" />
    </linearGradient>
    <radialGradient
       inkscape:collect="always"
       xlink:href="#highlightCorner"
       id="radialGradient15"
       gradientUnits="userSpaceOnUse"
       gradientTransform="matrix(0.04294597,-12.079348,17.933991,0.06376112,14.524179,-50.373789)"
       cx="-4.5799766"
       cy="-0.50206107"
       fx="-4.5799766"
       fy="-0.50206107"
       r="0.39687499" />
    <linearGradient
       inkscape:collect="always"
       xlink:href="#highlight"
       id="linearGradient15"
       gradientUnits="userSpaceOnUse"
       x1="-3.8453064"
       y1="-1.1532172"
       x2="-3.8453064"
       y2="-0.8954913"
       gradientTransform="matrix(6.0923077,0,0,6.0923077,32.228528,7.1537621)" />
    <radialGradient
       inkscape:collect="always"
       xlink:href="#linearGradient12"
       id="radialGradient17"
       gradientUnits="userSpaceOnUse"
       gradientTransform="matrix(-0.02247554,-12.045403,-17.967828,0.03352619,1.6640208,-50.22331)"
       cx="-4.575222"
       cy="-0.55256462"
       fx="-4.575222"
       fy="-0.55256462"
       r="0.39687499" />
    <radialGradient
       inkscape:collect="always"
       xlink:href="#linearGradient7"
       id="radialGradient18"
       gradientUnits="userSpaceOnUse"
       gradientTransform="matrix(0.06461187,12.09952,17.933731,-0.09576873,14.609502,64.748231)"
       cx="-4.4284906"
       cy="-0.50121039"
       fx="-4.4284906"
       fy="-0.50121039"
       r="0.39687499" />
    <linearGradient
       inkscape:collect="always"
       xlink:href="#bevel"
       id="linearGradient18"
       gradientUnits="userSpaceOnUse"
       x1="-3.8415797"
       y1="-1.4506671"
       x2="-3.8406549"
       y2="-1.1968651"
       gradientTransform="matrix(6.0923076,0,0,6.0923076,32.228527,-7.1537627)" />
    <radialGradient
       inkscape:collect="always"
       xlink:href="#linearGradient4"
       id="radialGradient20"
       gradientUnits="userSpaceOnUse"
       gradientTransform="matrix(-0.01031383,11.991438,-17.967296,-0.01545561,1.7353715,64.305742)"
       cx="-4.4236727"
       cy="-0.55004197"
       fx="-4.4236727"
       fy="-0.55004197"
       r="0.39687499" />
    <radialGradient
       inkscape:collect="always"
       xlink:href="#cornerBevel"
       id="radialGradient25"
       gradientUnits="userSpaceOnUse"
       gradientTransform="matrix(12.184614,0,0,12.184614,59.63122,10.377613)"
       cx="-4.4568658"
       cy="-0.44864327"
       fx="-4.4568658"
       fy="-0.44864327"
       r="0.39687496" />
    <linearGradient
       inkscape:collect="always"
       xlink:href="#bevel"
       id="linearGradient25"
       gradientUnits="userSpaceOnUse"
       x1="-3.8487544"
       y1="-1.146081"
       x2="-3.8455966"
       y2="-0.890971"
       gradientTransform="matrix(6.0923077,0,0,6.0923077,32.228528,7.1537627)" />
    <radialGradient
       inkscape:collect="always"
       xlink:href="#cornerBevel"
       id="radialGradient29"
       gradientUnits="userSpaceOnUse"
       gradientTransform="matrix(0,-12.184614,12.184614,0,11.27353,-44.427768)"
       cx="-4.5705457"
       cy="-0.48653662"
       fx="-4.5705457"
       fy="-0.48653662"
       r="0.39687496" />
    <radialGradient
       inkscape:collect="always"
       xlink:href="#cornerBevel"
       id="radialGradient30"
       gradientUnits="userSpaceOnUse"
       gradientTransform="matrix(-12.184514,-0.04945749,0.04847411,-11.942243,-43.502155,3.8519053)"
       cx="-4.5342312"
       cy="-0.60337442"
       fx="-4.5342312"
       fy="-0.60337442"
       r="0.39687496" />
    <radialGradient
       inkscape:collect="always"
       xlink:href="#linearGradient9"
       id="radialGradient31"
       gradientUnits="userSpaceOnUse"
       gradientTransform="matrix(0,-12.151612,11.978956,0,18.475664,-48.770776)"
       cx="-4.4175329"
       cy="-0.56489283"
       fx="-4.4175329"
       fy="-0.56489283"
       r="0.39687496" />
    <linearGradient
       inkscape:collect="always"
       xlink:href="#bevel"
       id="linearGradient34"
       gradientUnits="userSpaceOnUse"
       x1="-3.99717"
       y1="-1.2218677"
       x2="-4.0003276"
       y2="-0.96675771"
       gradientTransform="matrix(6.0923077,0,0,6.0923077,17.025077,8.0496826)" />
    <linearGradient
       inkscape:collect="always"
       xlink:href="#bevel"
       id="linearGradient35"
       gradientUnits="userSpaceOnUse"
       x1="-4.0919032"
       y1="-1.4492278"
       x2="-4.0950613"
       y2="-1.1972755"
       gradientTransform="matrix(6.0923077,0,0,6.0923077,16.129161,-7.1537627)" />
    <linearGradient
       inkscape:collect="always"
       xlink:href="#bevel"
       id="linearGradient36"
       gradientUnits="userSpaceOnUse"
       x1="-3.8734362"
       y1="-1.3717227"
       x2="-3.8765941"
       y2="-1.116071"
       gradientTransform="matrix(6.0923077,0,0,6.0923077,31.33261,-8.0496826)" />
    <linearGradient
       id="paint2_linear_77:3-7"
       x1="79.398094"
       y1="-197.84389"
       x2="82.901054"
       y2="-199.97827"
       gradientUnits="userSpaceOnUse"
       gradientTransform="matrix(1.9248511,0,0,1.7314595,-40.88733,399.61741)">
      <stop
         stop-color="#EBFAFF"
         stop-opacity="0.1"
         id="stop29-5-7"
         offset="0"
         style="stop-color:#c3c3c3;stop-opacity:1;" />
      <stop
         offset="1"
         stop-color="#70A9FF"
         stop-opacity="0.5"
         id="stop30-0-1"
         style="stop-color:#05c7ff;stop-opacity:0.80000001;" />
    </linearGradient>
    <linearGradient
       inkscape:collect="always"
       xlink:href="#linearGradient899"
       id="linearGradient926"
       x1="1.0977763"
       y1="-9.3406019"
       x2="16.919081"
       y2="-9.2251434"
       gradientUnits="userSpaceOnUse"
       gradientTransform="translate(-0.92604234,0.47624996)" />
    <filter
       id="filter1015"
       x="-0.084000711"
       y="-0.084000711"
       width="1.1680014"
       height="1.1680014"
       color-interpolation-filters="sRGB">
      <feGaussianBlur
         stdDeviation="0.3089756"
         id="feGaussianBlur857" />
    </filter>
    <filter
       id="filter985"
       x="-0.05909655"
       y="-0.060921029"
       width="1.1181931"
       height="1.1218421"
       color-interpolation-filters="sRGB">
      <feGaussianBlur
         stdDeviation="0.21619832"
         id="feGaussianBlur854" />
    </filter>
    <linearGradient
       id="linearGradient1025"
       x1="7.9875998"
       x2="12.91"
       y1="7.7203002"
       y2="12.495"
       gradientUnits="userSpaceOnUse"
       gradientTransform="matrix(1.0000196,0,0,1.0000197,-0.24128472,-0.15195202)">
      <stop
         stop-color="#fafaff"
         offset="0"
         id="stop860" />
      <stop
         stop-color="#a1d8ff"
         offset="1"
         id="stop862" />
    </linearGradient>
    <linearGradient
       inkscape:collect="always"
       xlink:href="#linearGradient1"
       id="linearGradient10"
       x1="8.4997377"
       y1="7.2815161"
       x2="13.168849"
       y2="12.54011"
       gradientUnits="userSpaceOnUse" />
    <linearGradient
       id="linearGradient1"
       inkscape:collect="always">
      <stop
         style="stop-color:#00c2ff;stop-opacity:1;"
         offset="0"
         id="stop1-3" />
      <stop
         style="stop-color:#006280;stop-opacity:1;"
         offset="1"
         id="stop10-6" />
    </linearGradient>
  </defs>
  <sodipodi:namedview
     id="base"
     pagecolor="#e2e2e2"
     bordercolor="#666666"
     borderopacity="1.0"
     inkscape:pageopacity="0"
     inkscape:pageshadow="2"
     inkscape:zoom="9.7248729"
     inkscape:cx="32.596827"
     inkscape:cy="40.000523"
     inkscape:document-units="px"
     inkscape:current-layer="layer1"
     inkscape:document-rotation="0"
     showgrid="true"
     units="px"
     inkscape:window-width="1920"
     inkscape:window-height="990"
     inkscape:window-x="0"
     inkscape:window-y="0"
     inkscape:window-maximized="1"
     inkscape:object-paths="true"
     inkscape:snap-grids="true"
     inkscape:snap-intersection-paths="true"
     inkscape:snap-smooth-nodes="true"
     inkscape:snap-midpoints="true"
     inkscape:showpageshadow="2"
     inkscape:pagecheckerboard="0"
     inkscape:deskcolor="#d1d1d1">
    <inkscape:grid
       id="grid2"
       units="px"
       originx="0"
       originy="0"
       spacingx="0.26458333"
       spacingy="0.26458333"
       empcolor="#0099e5"
       empopacity="0.30196078"
       color="#0099e5"
       opacity="0.14902"
       empspacing="5"
       dotted="false"
       gridanglex="30"
       gridanglez="30"
       visible="true" />
  </sodipodi:namedview>
  <metadata
     id="metadata1111">
    <rdf:RDF>
      <cc:Work
         rdf:about="">
        <dc:format>image/svg+xml</dc:format>
        <dc:type
           rdf:resource="http://purl.org/dc/dcmitype/StillImage" />
      </cc:Work>
    </rdf:RDF>
  </metadata>
  <g
     inkscape:label="Layer 1"
     inkscape:groupmode="layer"
     id="layer1">
    <g
       id="g918"
       transform="translate(0.47625037,0.92604234)">
      <rect
         ry="4.8357682"
         rx="4.8357682"
         style="fill:url(#linearGradient926);fill-opacity:1;stroke-width:6.09228"
         x="0.13229237"
         y="-16.457085"
         width="15.875001"
         height="15.875001"
         id="use1056"
         transform="rotate(90)"
         class="ColorScheme-Highlight" />
      <path
         d="m 5.344583,0.13229167 c -2.6384245,0 -4.76249953,2.12407483 -4.76249953,4.76249963 H 5.344583 Z"
         style="opacity:0.15;fill:url(#radialGradient25);fill-opacity:1;stroke-width:6.09228"
         id="path20" />
      <rect
         y="0.13229151"
         x="5.3445826"
         height="1.5875"
         width="6.3500004"
         id="rect20"
         style="opacity:0.15;fill:url(#linearGradient25);fill-opacity:1;stroke-width:4.83577;stroke-linecap:round;stroke-linejoin:round;paint-order:stroke fill markers" />
      <path
         d="m 0.58208347,11.244792 c 0,2.638424 2.12407503,4.762499 4.76249953,4.762499 v -4.762499 z"
         style="opacity:0.15;fill:url(#radialGradient29);fill-opacity:1;stroke-width:6.09228"
         id="use20" />
      <rect
         y="0.5820834"
         x="-11.244792"
         height="1.5875"
         width="6.3500004"
         id="use21"
         style="opacity:0.15;fill:url(#linearGradient34);fill-opacity:1;stroke-width:4.83577;stroke-linecap:round;stroke-linejoin:round;paint-order:stroke fill markers"
         transform="rotate(-90)" />
      <path
         d="m 11.694583,16.007291 c 2.638425,0 4.7625,-2.124074 4.7625,-4.762499 h -4.7625 z"
         style="opacity:0.15;fill:url(#radialGradient30);fill-opacity:1;stroke-width:6.09228"
         id="use22" />
      <rect
         y="-16.007292"
         x="-11.694584"
         height="1.5875"
         width="6.3500004"
         id="use23"
         style="opacity:0.15;fill:url(#linearGradient35);fill-opacity:1;stroke-width:4.83577;stroke-linecap:round;stroke-linejoin:round;paint-order:stroke fill markers"
         transform="scale(-1)" />
      <path
         d="m 16.457083,4.8947913 c 0,-2.6384245 -2.124074,-4.76249963 -4.7625,-4.76249963 V 4.8947913 Z"
         style="opacity:0.15;fill:url(#radialGradient31);fill-opacity:1;stroke-width:6.09228"
         id="use24" />
      <rect
         y="-16.457081"
         x="4.8947906"
         height="1.5875"
         width="6.3500004"
         id="use25"
         style="opacity:0.15;fill:url(#linearGradient36);fill-opacity:1;stroke-width:4.83577;stroke-linecap:round;stroke-linejoin:round;paint-order:stroke fill markers"
         transform="rotate(90)" />
      <path
         d="m 5.3445832,0.13229107 c -2.638425,0 -4.76250035,2.12407473 -4.76250035,4.76249973 H 5.3445832 Z"
         style="opacity:0.5;fill:url(#radialGradient15);fill-opacity:1;stroke-width:6.09228"
         id="path14" />
      <rect
         y="0.1322909"
         x="5.3445826"
         height="1.5875"
         width="6.3499999"
         id="rect14"
         style="opacity:0.5;fill:url(#linearGradient15);fill-opacity:1;stroke-width:4.83577;stroke-linecap:round;stroke-linejoin:round;paint-order:stroke fill markers" />
      <path
         d="m 11.694583,0.13229096 c 2.638425,0 4.7625,2.12407504 4.7625,4.76249734 h -4.7625 z"
         style="opacity:0.5;fill:url(#radialGradient17);fill-opacity:1;stroke-width:6.09228"
         id="use14" />
      <path
         id="path17"
         style="opacity:0.5;fill:url(#radialGradient18);fill-opacity:1;stroke-width:6.09228"
         d="m 5.3445834,16.00729 c -2.638425,0 -4.7625,-2.124075 -4.7625,-4.7625 h 4.7625 z" />
      <rect
         style="opacity:0.5;fill:url(#linearGradient18);fill-opacity:1;stroke-width:4.83577;stroke-linecap:round;stroke-linejoin:round;paint-order:stroke fill markers"
         id="rect17"
         width="6.3499994"
         height="1.5874999"
         x="5.3445826"
         y="-16.007292"
         transform="scale(1,-1)" />
      <path
         id="use17"
         style="opacity:0.5;fill:url(#radialGradient20);fill-opacity:1;stroke-width:6.09228"
         d="m 11.694582,16.007291 c 2.638425,0 4.7625,-2.124075 4.7625,-4.7625 h -4.7625 z" />
    </g>
    <circle
       cx="8.4673996"
       cy="8.3260002"
       r="4.4138999"
       fill="#1496ff"
       filter="url(#filter1015)"
       id="circle873"
       transform="matrix(1.082026,0,0,1.0777379,-0.93779181,0.28713491)"
       style="stroke-width:0.926047" />
    <path
       d="m 14.151254,8.2726047 a 3.1335875,6.7788215 53.205165 0 1 -0.22157,0.3767663 3.1335875,6.7788215 53.205165 0 1 -0.324486,0.475475 3.1335875,6.7788215 53.205165 0 1 -0.370506,0.476673 3.1335875,6.7788215 53.205165 0 1 -0.412275,0.474262 3.1335875,6.7788215 53.205165 0 1 -0.449818,0.465842 3.1335875,6.7788215 53.205165 0 1 -0.483711,0.453205 3.1335875,6.7788215 53.205165 0 1 -0.51157,0.43635 3.1335875,6.7788215 53.205165 0 1 -0.377162,0.29611 3.1335875,6.7788215 53.205165 0 1 -0.548495,0.397237 3.1335875,6.7788215 53.205165 0 1 -0.5630195,0.368936 3.1335875,6.7788215 53.205165 0 1 -0.5715006,0.336446 3.1335875,6.7788215 53.205165 0 1 -0.5739143,0.300937 3.1335875,6.7788215 53.205165 0 1 -0.5708913,0.263007 3.1335875,6.7788215 53.205165 0 1 -0.5630186,0.222084 3.1335875,6.7788215 53.205165 0 1 -0.4661557,0.151668 5.1710615,5.1408357 0 0 0 1.8930911,0.361716 5.1710615,5.1408357 0 0 0 5.1707099,-5.141069 5.1710615,5.1408357 0 0 0 -0.05578,-0.7156103 z"
       fill="#ffffff"
       opacity="0.55"
       id="path875"
       style="stroke-width:1.00002" />
    <path
       transform="matrix(1.0907979,0,0,1.1001451,0.01820451,0.00698091)"
       d="m 8.6817,4.075 a 4.4139,4.4139 0 0 0 -4.4141,4.4136 4.4139,4.4139 0 0 0 0.11989,0.99889 4.4139,4.4139 0 0 0 2.6783,3.1047 2.6848,5.7985 52.956 0 0 0.3979,-0.13022 2.6848,5.7985 52.956 0 0 0.48058,-0.19068 2.6848,5.7985 52.956 0 0 0.4873,-0.22582 2.6848,5.7985 52.956 0 0 0.48988,-0.25838 2.6848,5.7985 52.956 0 0 0.48782,-0.28887 2.6848,5.7985 52.956 0 0 0.48058,-0.31677 2.6848,5.7985 52.956 0 0 0.46818,-0.34106 2.6848,5.7985 52.956 0 0 0.32194,-0.25424 2.6848,5.7985 52.956 0 0 0.43666,-0.37465 2.6848,5.7985 52.956 0 0 0.41289,-0.38912 2.6848,5.7985 52.956 0 0 0.38395,-0.39997 2.6848,5.7985 52.956 0 0 0.35191,-0.4072 2.6848,5.7985 52.956 0 0 0.31625,-0.40927 2.6848,5.7985 52.956 0 0 0.27698,-0.40824 2.6848,5.7985 52.956 0 0 0.18913,-0.32349 4.4139,4.4139 0 0 0 -2.0665,-3.147 4.4139,4.4139 0 0 0 -2.2996,-0.65214 z"
       fill="#0096ff"
       filter="url(#filter985)"
       opacity="0.25"
       id="path877"
       style="stroke-width:0.856101" />
    <path
       d="m 9.0359594,3.8477057 a 5.1710615,5.1408357 0 0 0 -5.1712953,5.1404853 5.1710615,5.1408357 0 0 0 0.1404554,1.163399 5.1710615,5.1408357 0 0 0 3.1377368,3.616028 3.1335875,6.7788215 53.205165 0 0 0.4661558,-0.151671 3.1335875,6.7788215 53.205165 0 0 0.5630188,-0.222085 3.1335875,6.7788215 53.205165 0 0 0.5708912,-0.263008 3.1335875,6.7788215 53.205165 0 0 0.5739142,-0.300936 3.1335875,6.7788215 53.205165 0 0 0.5715012,-0.336443 3.1335875,6.7788215 53.205165 0 0 0.5630185,-0.368937 3.1335875,6.7788215 53.205165 0 0 0.548494,-0.397237 3.1335875,6.7788215 53.205165 0 0 0.377166,-0.29611 3.1335875,6.7788215 53.205165 0 0 0.511564,-0.436351 3.1335875,6.7788215 53.205165 0 0 0.483721,-0.453206 3.1335875,6.7788215 53.205165 0 0 0.449817,-0.465842 3.1335875,6.7788215 53.205165 0 0 0.412267,-0.474261 3.1335875,6.7788215 53.205165 0 0 0.370499,-0.476674 3.1335875,6.7788215 53.205165 0 0 0.324492,-0.475474 3.1335875,6.7788215 53.205165 0 0 0.221576,-0.3767673 5.1710615,5.1408357 0 0 0 -2.42099,-3.665286 5.1710615,5.1408357 0 0 0 -2.6940722,-0.759543 z"
       fill="url(#linearGradient1025)"
       id="path879"
       style="fill:url(#linearGradient1025);stroke-width:1.00002" />
    <path
       id="path1621"
       d="m 9.4023186,3.9095907 c -0.081368,-0.0061 -0.159749,-0.02179 -0.2421467,-0.02416 -0.2948376,0.242883 -0.6104453,0.481155 -0.8534451,0.735445 -0.05801,-0.02716 -0.1221902,-0.04348 -0.1908566,-0.04348 -0.2474226,0 -0.4466109,0.197021 -0.4466109,0.441751 0,0.09372 0.029604,0.180252 0.079549,0.251588 -0.4508144,0.585508 -0.7814638,1.190084 -1.0069664,1.798408 -0.046529,-0.01084 -0.09447,-0.01791 -0.1444511,-0.01791 -0.2074631,0 -0.3891733,0.100327 -0.5027858,0.25331 -0.4795858,-0.227169 -0.9857915,-0.555104 -1.5080073,-0.951835 -0.030982,0.05076 -0.056603,0.104777 -0.085832,0.156688 0.5202718,0.392602 1.0274166,0.720591 1.5108003,0.949416 -0.024177,0.06603 -0.039427,0.13639 -0.039427,0.210868 0,0.283666 0.1922782,0.519099 0.4546357,0.592567 -0.078148,0.4971183 -0.093684,0.9897173 -0.051986,1.4691733 0.022096,0.254064 0.059994,0.504534 0.1116538,0.749932 -0.6197364,0.284176 -1.2423274,0.711753 -1.8618072,1.224818 0.031793,0.05038 0.052335,0.107888 0.085831,0.157024 0.6067744,-0.506535 1.214898,-0.926523 1.8178453,-1.206865 0.1623612,0.675662 0.4327193,1.30984 0.7808711,1.877783 -0.053802,0.07303 -0.086531,0.162248 -0.086531,0.259869 0,0.244735 0.1991884,0.441761 0.4466105,0.441761 0.042377,0 0.082636,-0.007 0.1214226,-0.01832 0.2676862,0.330262 0.570796,0.612981 0.8883364,0.869008 0.1112852,0.0065 0.2169423,0.0328 0.3300732,0.0328 0.00507,0 0.00992,-0.002 0.014997,-0.002 -0.3851319,-0.277303 -0.7524515,-0.596439 -1.0708211,-0.984938 0.098685,-0.08097 0.1625944,-0.201617 0.1625944,-0.338874 0,-0.244726 -0.1991883,-0.441751 -0.4466103,-0.441751 -0.082006,0 -0.1577405,0.02325 -0.2236547,0.06114 -0.3358386,-0.554208 -0.5963555,-1.172464 -0.7512043,-1.830258 0.7262761,-0.314857 1.4431235,-0.477511 2.1378007,-0.51112 0.00912,0.285583 0.2431499,0.513193 0.5341884,0.513193 0.2736842,0 0.4958604,-0.201709 0.5293023,-0.46315 0.5276082,0.07547 1.0376122,0.223841 1.5230122,0.434157 -0.300962,0.918533 -0.285379,1.952106 0.02791,2.937984 0.05322,-0.02813 0.106996,-0.05522 0.159106,-0.08529 -0.289949,-0.935285 -0.302745,-1.912638 -0.02332,-2.779909 0.635549,0.296989 1.208586,0.724806 1.738988,1.209291 0.03364,-0.04993 0.05504,-0.107649 0.08692,-0.15876 -0.539576,-0.487188 -1.121498,-0.919344 -1.768646,-1.219262 0.02691,-0.0728 0.05598,-0.144797 0.08692,-0.215701 0.06046,-0.138477 0.129241,-0.272502 0.204815,-0.402405 0.06431,0.02193 0.132161,0.03623 0.204114,0.03623 0.100237,0 0.193567,-0.02511 0.27739,-0.06626 0.39386,0.376319 0.903555,0.666615 1.45916,0.89972 0.01987,-0.05551 0.03461,-0.11309 0.05275,-0.169456 -0.519662,-0.220023 -0.994193,-0.489557 -1.361176,-0.833019 0.120835,-0.11263 0.197135,-0.271391 0.197135,-0.449341 0,-0.119621 -0.03556,-0.229972 -0.0946,-0.324416 0.387579,-0.348761 0.884564,-0.5928833 1.439974,-0.7644303 -0.0087,-0.05838 -0.006,-0.120717 -0.01781,-0.17843 -0.592041,0.178022 -1.121392,0.4379063 -1.535571,0.8089613 -0.110699,-0.09863 -0.255903,-0.160135 -0.417301,-0.160135 -0.10174,0 -0.196152,0.02605 -0.28087,0.06835 -0.01061,-0.02614 -0.02236,-0.05201 -0.03208,-0.07865 -0.267949,-0.7300283 -0.20353,-1.6220933 0.369504,-2.6760743 0.162972,-0.207594 0.287728,-0.423729 0.421141,-0.638119 -0.04305,-0.04123 -0.09442,-0.07308 -0.138868,-0.112857 -0.151395,0.217755 -0.312678,0.438072 -0.426368,0.645715 -0.616984,0.783536 -1.446941,1.477399 -2.4633569,1.802214 -0.6994847,0.223523 -1.4903522,0.271688 -2.3656411,0.05766 8.889e-4,-0.01343 0.00379,-0.0261 0.00379,-0.03969 0,-0.23121 -0.1284823,-0.42983 -0.3175118,-0.535969 0.2171208,-0.588098 0.536273,-1.17307 0.9724249,-1.741465 0.068965,0.04307 0.1503841,0.06867 0.2383083,0.06867 0.2474225,0 0.4466106,-0.197022 0.4466106,-0.441753 -2.43e-5,-0.112399 -0.043268,-0.213767 -0.1127232,-0.291584 0.2713403,-0.282041 0.6146603,-0.549508 0.9525334,-0.817913 z m 2.3607534,2.540412 c -0.334967,0.84948 -0.34363,1.600675 -0.108506,2.2415363 0.01511,0.04119 0.03247,0.08127 0.04954,0.121484 -0.11915,0.112472 -0.194,0.270397 -0.194,0.446926 0,0.207409 0.103138,0.389373 0.26064,0.501454 -0.07729,0.133596 -0.146814,0.271664 -0.208653,0.413449 -0.03058,0.07018 -0.059,0.141372 -0.08583,0.213283 C 10.97158,10.170862 10.440463,10.018949 9.8901045,9.943283 9.8383795,9.703792 9.6243893,9.525 9.3663835,9.525 9.1263526,9.525 8.9263245,9.680598 8.8576661,9.89496 8.1405148,9.92583 7.4012844,10.089524 6.6546185,10.408838 6.6080875,10.181806 6.5731225,9.950983 6.5527348,9.716536 6.5121858,9.250299 6.5259438,8.771191 6.6012398,8.2877547 c 0.2697646,-0.0024 0.4959754,-0.171197 0.5823379,-0.408278 0.9043492,0.219996 1.7275721,0.173075 2.4560104,-0.05972 0.8384539,-0.26794 1.5492019,-0.772043 2.1234919,-1.369771 z"
       style="vector-effect:none;fill:url(#linearGradient10);fill-opacity:1;stroke:none;stroke-width:0.264583;stroke-linecap:round;stroke-linejoin:round;stroke-miterlimit:4;stroke-dasharray:none;stroke-dashoffset:0;stroke-opacity:1"
       inkscape:connector-curvature="0" />
    <path
       id="rect875-2-36"
       d="M 6.0649267,6.2177067 H 8.986906 V 9.128124 H 6.0649267 Z"
       style="vector-effect:none;fill:#c74343;fill-opacity:1;stroke:none;stroke-width:1.05834;stroke-linecap:round;stroke-linejoin:round;stroke-miterlimit:4;stroke-dasharray:none;stroke-dashoffset:0;stroke-opacity:1"
       inkscape:connector-curvature="0" />
    <path
       id="rect875-2-7-7"
       d="m 8.986906,6.2177067 h 2.921983 V 9.128124 H 8.986906 Z"
       style="vector-effect:none;fill:#5e9c76;fill-opacity:1;stroke:none;stroke-width:1.05834;stroke-linecap:round;stroke-linejoin:round;stroke-miterlimit:4;stroke-dasharray:none;stroke-dashoffset:0;stroke-opacity:1"
       inkscape:connector-curvature="0" />
    <path
       id="rect875-2-0-5"
       d="m 6.0649267,9.128124 h 2.9219794 v 2.910415 H 6.0649267 Z"
       style="vector-effect:none;fill:#287bc2;fill-opacity:1;stroke:none;stroke-width:1.05834;stroke-linecap:round;stroke-linejoin:round;stroke-miterlimit:4;stroke-dasharray:none;stroke-dashoffset:0;stroke-opacity:1"
       inkscape:connector-curvature="0" />
    <path
       id="rect875-2-7-9-3"
       d="m 8.986906,9.128124 h 2.921983 v 2.910415 H 8.986906 Z"
       style="vector-effect:none;fill:#ffb851;fill-opacity:0.960784;stroke:none;stroke-width:1.05834;stroke-linecap:round;stroke-linejoin:round;stroke-miterlimit:4;stroke-dasharray:none;stroke-dashoffset:0;stroke-opacity:1"
       inkscape:connector-curvature="0" />
    <path
       id="rect875-2-3-5"
       d="M 6.4823529,6.6334807 H 8.5694804 V 8.712351 H 6.4823529 Z"
       style="vector-effect:none;fill:#f78f8f;fill-opacity:1;stroke:none;stroke-width:1.05834;stroke-linecap:round;stroke-linejoin:round;stroke-miterlimit:4;stroke-dasharray:none;stroke-dashoffset:0;stroke-opacity:1"
       inkscape:connector-curvature="0" />
    <path
       id="rect875-2-3-6-6"
       d="M 9.4043314,6.6334807 H 11.491462 V 8.712351 H 9.4043314 Z"
       style="vector-effect:none;fill:#bae0bd;fill-opacity:1;stroke:none;stroke-width:1.05834;stroke-linecap:round;stroke-linejoin:round;stroke-miterlimit:4;stroke-dasharray:none;stroke-dashoffset:0;stroke-opacity:1"
       inkscape:connector-curvature="0" />
    <path
       id="rect875-2-3-0-2"
       d="m 6.4823529,9.543902 h 2.0871275 v 2.078864 H 6.4823529 Z"
       style="vector-effect:none;fill:#78c1ff;fill-opacity:1;stroke:none;stroke-width:1.05834;stroke-linecap:round;stroke-linejoin:round;stroke-miterlimit:4;stroke-dasharray:none;stroke-dashoffset:0;stroke-opacity:1"
       inkscape:connector-curvature="0" />
    <path
       id="rect875-2-3-62-9"
       d="m 9.4043314,9.543902 h 2.0871306 v 2.078864 H 9.4043314 Z"
       style="vector-effect:none;fill:#ffeea3;fill-opacity:1;stroke:none;stroke-width:1.05834;stroke-linecap:round;stroke-linejoin:round;stroke-miterlimit:4;stroke-dasharray:none;stroke-dashoffset:0;stroke-opacity:1"
       inkscape:connector-curvature="0" />
  </g>
</svg>
