<?xml version="1.0" encoding="UTF-8" standalone="no"?>
<svg
   width="68"
   height="68"
   viewBox="0 0 17.991665 17.991665"
   version="1.1"
   id="svg1114"
   inkscape:version="1.3.2 (091e20ef0f, 2023-11-25)"
   sodipodi:docname="preferences-desktop-activities.svg"
   xmlns:inkscape="http://www.inkscape.org/namespaces/inkscape"
   xmlns:sodipodi="http://sodipodi.sourceforge.net/DTD/sodipodi-0.dtd"
   xmlns:xlink="http://www.w3.org/1999/xlink"
   xmlns="http://www.w3.org/2000/svg"
   xmlns:svg="http://www.w3.org/2000/svg"
   xmlns:rdf="http://www.w3.org/1999/02/22-rdf-syntax-ns#"
   xmlns:cc="http://creativecommons.org/ns#"
   xmlns:dc="http://purl.org/dc/elements/1.1/">
  <style
     type="text/css"
     id="current-color-scheme">.ColorScheme-Highlight { color:#5599ff; }
</style>
  <defs
     id="defs1108">
    <linearGradient
       id="linearGradient12"
       inkscape:collect="always">
      <stop
         style="stop-color:#ffffff;stop-opacity:0;"
         offset="0"
         id="stop10" />
      <stop
         id="stop11"
         offset="0.65909404"
         style="stop-color:#ffffff;stop-opacity:0" />
      <stop
         style="stop-color:#ffffff;stop-opacity:1;"
         offset="1"
         id="stop12" />
    </linearGradient>
    <linearGradient
       id="linearGradient9"
       inkscape:collect="always">
      <stop
         style="stop-color:#000000;stop-opacity:0;"
         offset="0"
         id="stop1" />
      <stop
         id="stop8"
         offset="0.66102529"
         style="stop-color:#000000;stop-opacity:0" />
      <stop
         style="stop-color:#000000;stop-opacity:1;"
         offset="1"
         id="stop9" />
    </linearGradient>
    <linearGradient
       id="linearGradient7"
       inkscape:collect="always">
      <stop
         style="stop-color:#000000;stop-opacity:0;"
         offset="0"
         id="stop5" />
      <stop
         id="stop6"
         offset="0.6586886"
         style="stop-color:#000000;stop-opacity:0" />
      <stop
         style="stop-color:#000000;stop-opacity:1;"
         offset="1"
         id="stop7" />
    </linearGradient>
    <linearGradient
       id="linearGradient4"
       inkscape:collect="always">
      <stop
         style="stop-color:#000000;stop-opacity:0;"
         offset="0"
         id="stop2" />
      <stop
         id="stop3"
         offset="0.67055255"
         style="stop-color:#000000;stop-opacity:0" />
      <stop
         style="stop-color:#000000;stop-opacity:1;"
         offset="1"
         id="stop4" />
    </linearGradient>
    <linearGradient
       inkscape:collect="always"
       id="linearGradient899">
      <stop
         style="stop-color:#f29c92;stop-opacity:1;"
         offset="0"
         id="stop895" />
      <stop
         style="stop-color:#8383d9;stop-opacity:1;"
         offset="1"
         id="stop897" />
    </linearGradient>
    <linearGradient
       id="linearGradient1167"
       x1="40.751999"
       x2="40.751999"
       y1="28.507999"
       y2="17.205999"
       gradientUnits="userSpaceOnUse">
      <stop
         style="stop-color:#84fb6e;stop-opacity:1"
         stop-color="#0ab816"
         offset="0"
         id="stop1163" />
      <stop
         style="stop-color:#0dd41a;stop-opacity:1"
         stop-color="#0cf36c"
         offset="1"
         id="stop1165" />
    </linearGradient>
    <linearGradient
       id="cornerBevel"
       inkscape:collect="always">
      <stop
         style="stop-color:#000000;stop-opacity:0;"
         offset="0"
         id="stop2663" />
      <stop
         id="stop2671"
         offset="0.66666675"
         style="stop-color:#000000;stop-opacity:0" />
      <stop
         style="stop-color:#000000;stop-opacity:1;"
         offset="1"
         id="stop2661" />
    </linearGradient>
    <linearGradient
       id="bevel"
       inkscape:collect="always">
      <stop
         id="stop2685"
         offset="0"
         style="stop-color:#000000;stop-opacity:1;" />
      <stop
         id="stop2687"
         offset="1"
         style="stop-color:#000000;stop-opacity:0;" />
    </linearGradient>
    <linearGradient
       id="highlightCorner"
       inkscape:collect="always">
      <stop
         style="stop-color:#ffffff;stop-opacity:0;"
         offset="0"
         id="stop2613" />
      <stop
         id="stop2621"
         offset="0.66666669"
         style="stop-color:#ffffff;stop-opacity:0" />
      <stop
         style="stop-color:#ffffff;stop-opacity:1;"
         offset="1"
         id="stop2611" />
    </linearGradient>
    <linearGradient
       inkscape:collect="always"
       id="highlight">
      <stop
         style="stop-color:#ffffff;stop-opacity:1;"
         offset="0"
         id="stop2921" />
      <stop
         style="stop-color:#ffffff;stop-opacity:0;"
         offset="1"
         id="stop2923" />
    </linearGradient>
    <radialGradient
       inkscape:collect="always"
       xlink:href="#highlightCorner"
       id="radialGradient15"
       gradientUnits="userSpaceOnUse"
       gradientTransform="matrix(0.04294597,-12.079348,17.933991,0.06376112,14.524179,-50.373789)"
       cx="-4.5799766"
       cy="-0.50206107"
       fx="-4.5799766"
       fy="-0.50206107"
       r="0.39687499" />
    <linearGradient
       inkscape:collect="always"
       xlink:href="#highlight"
       id="linearGradient15"
       gradientUnits="userSpaceOnUse"
       x1="-3.8453064"
       y1="-1.1532172"
       x2="-3.8453064"
       y2="-0.8954913"
       gradientTransform="matrix(6.0923077,0,0,6.0923077,32.228528,7.1537621)" />
    <radialGradient
       inkscape:collect="always"
       xlink:href="#linearGradient12"
       id="radialGradient17"
       gradientUnits="userSpaceOnUse"
       gradientTransform="matrix(-0.02247554,-12.045403,-17.967828,0.03352619,1.6640208,-50.22331)"
       cx="-4.575222"
       cy="-0.55256462"
       fx="-4.575222"
       fy="-0.55256462"
       r="0.39687499" />
    <radialGradient
       inkscape:collect="always"
       xlink:href="#linearGradient7"
       id="radialGradient18"
       gradientUnits="userSpaceOnUse"
       gradientTransform="matrix(0.06461187,12.09952,17.933731,-0.09576873,14.609502,64.748231)"
       cx="-4.4284906"
       cy="-0.50121039"
       fx="-4.4284906"
       fy="-0.50121039"
       r="0.39687499" />
    <linearGradient
       inkscape:collect="always"
       xlink:href="#bevel"
       id="linearGradient18"
       gradientUnits="userSpaceOnUse"
       x1="-3.8415797"
       y1="-1.4506671"
       x2="-3.8406549"
       y2="-1.1968651"
       gradientTransform="matrix(6.0923076,0,0,6.0923076,32.228527,-7.1537627)" />
    <radialGradient
       inkscape:collect="always"
       xlink:href="#linearGradient4"
       id="radialGradient20"
       gradientUnits="userSpaceOnUse"
       gradientTransform="matrix(-0.01031383,11.991438,-17.967296,-0.01545561,1.7353715,64.305742)"
       cx="-4.4236727"
       cy="-0.55004197"
       fx="-4.4236727"
       fy="-0.55004197"
       r="0.39687499" />
    <radialGradient
       inkscape:collect="always"
       xlink:href="#cornerBevel"
       id="radialGradient25"
       gradientUnits="userSpaceOnUse"
       gradientTransform="matrix(12.184614,0,0,12.184614,59.63122,10.377613)"
       cx="-4.4568658"
       cy="-0.44864327"
       fx="-4.4568658"
       fy="-0.44864327"
       r="0.39687496" />
    <linearGradient
       inkscape:collect="always"
       xlink:href="#bevel"
       id="linearGradient25"
       gradientUnits="userSpaceOnUse"
       x1="-3.8487544"
       y1="-1.146081"
       x2="-3.8455966"
       y2="-0.890971"
       gradientTransform="matrix(6.0923077,0,0,6.0923077,32.228528,7.1537627)" />
    <radialGradient
       inkscape:collect="always"
       xlink:href="#cornerBevel"
       id="radialGradient29"
       gradientUnits="userSpaceOnUse"
       gradientTransform="matrix(0,-12.184614,12.184614,0,11.27353,-44.427768)"
       cx="-4.5705457"
       cy="-0.48653662"
       fx="-4.5705457"
       fy="-0.48653662"
       r="0.39687496" />
    <radialGradient
       inkscape:collect="always"
       xlink:href="#cornerBevel"
       id="radialGradient30"
       gradientUnits="userSpaceOnUse"
       gradientTransform="matrix(-12.184514,-0.04945749,0.04847411,-11.942243,-43.502155,3.8519053)"
       cx="-4.5342312"
       cy="-0.60337442"
       fx="-4.5342312"
       fy="-0.60337442"
       r="0.39687496" />
    <radialGradient
       inkscape:collect="always"
       xlink:href="#linearGradient9"
       id="radialGradient31"
       gradientUnits="userSpaceOnUse"
       gradientTransform="matrix(0,-12.151612,11.978956,0,18.475664,-48.770776)"
       cx="-4.4175329"
       cy="-0.56489283"
       fx="-4.4175329"
       fy="-0.56489283"
       r="0.39687496" />
    <linearGradient
       inkscape:collect="always"
       xlink:href="#bevel"
       id="linearGradient34"
       gradientUnits="userSpaceOnUse"
       x1="-3.99717"
       y1="-1.2218677"
       x2="-4.0003276"
       y2="-0.96675771"
       gradientTransform="matrix(6.0923077,0,0,6.0923077,17.025077,8.0496826)" />
    <linearGradient
       inkscape:collect="always"
       xlink:href="#bevel"
       id="linearGradient35"
       gradientUnits="userSpaceOnUse"
       x1="-4.0919032"
       y1="-1.4492278"
       x2="-4.0950613"
       y2="-1.1972755"
       gradientTransform="matrix(6.0923077,0,0,6.0923077,16.129161,-7.1537627)" />
    <linearGradient
       inkscape:collect="always"
       xlink:href="#bevel"
       id="linearGradient36"
       gradientUnits="userSpaceOnUse"
       x1="-3.8734362"
       y1="-1.3717227"
       x2="-3.8765941"
       y2="-1.116071"
       gradientTransform="matrix(6.0923077,0,0,6.0923077,31.33261,-8.0496826)" />
    <linearGradient
       id="paint2_linear_77:3-7"
       x1="79.398094"
       y1="-197.84389"
       x2="82.901054"
       y2="-199.97827"
       gradientUnits="userSpaceOnUse"
       gradientTransform="matrix(1.9248511,0,0,1.7314595,-40.88733,399.61741)">
      <stop
         stop-color="#EBFAFF"
         stop-opacity="0.1"
         id="stop29-5-7"
         offset="0"
         style="stop-color:#c3c3c3;stop-opacity:1;" />
      <stop
         offset="1"
         stop-color="#70A9FF"
         stop-opacity="0.5"
         id="stop30-0-1"
         style="stop-color:#05c7ff;stop-opacity:0.80000001;" />
    </linearGradient>
    <linearGradient
       inkscape:collect="always"
       xlink:href="#linearGradient899"
       id="linearGradient926"
       x1="0.98894888"
       y1="-9.3406019"
       x2="16.919081"
       y2="-9.2251434"
       gradientUnits="userSpaceOnUse"
       gradientTransform="translate(-0.92604234,0.47624996)" />
  </defs>
  <sodipodi:namedview
     id="base"
     pagecolor="#e2e2e2"
     bordercolor="#666666"
     borderopacity="1.0"
     inkscape:pageopacity="0"
     inkscape:pageshadow="2"
     inkscape:zoom="9.7248729"
     inkscape:cx="37.429795"
     inkscape:cy="39.280719"
     inkscape:document-units="px"
     inkscape:current-layer="layer1"
     inkscape:document-rotation="0"
     showgrid="true"
     units="px"
     inkscape:window-width="1920"
     inkscape:window-height="990"
     inkscape:window-x="0"
     inkscape:window-y="0"
     inkscape:window-maximized="1"
     inkscape:object-paths="true"
     inkscape:snap-grids="true"
     inkscape:snap-intersection-paths="true"
     inkscape:snap-smooth-nodes="true"
     inkscape:snap-midpoints="true"
     inkscape:showpageshadow="2"
     inkscape:pagecheckerboard="0"
     inkscape:deskcolor="#d1d1d1">
    <inkscape:grid
       id="grid2"
       units="px"
       originx="0"
       originy="0"
       spacingx="0.26458333"
       spacingy="0.26458333"
       empcolor="#0099e5"
       empopacity="0.30196078"
       color="#0099e5"
       opacity="0.14902"
       empspacing="5"
       dotted="false"
       gridanglex="30"
       gridanglez="30"
       visible="true" />
  </sodipodi:namedview>
  <metadata
     id="metadata1111">
    <rdf:RDF>
      <cc:Work
         rdf:about="">
        <dc:format>image/svg+xml</dc:format>
        <dc:type
           rdf:resource="http://purl.org/dc/dcmitype/StillImage" />
      </cc:Work>
    </rdf:RDF>
  </metadata>
  <g
     inkscape:label="Layer 1"
     inkscape:groupmode="layer"
     id="layer1">
    <g
       id="g918"
       transform="translate(0.47625037,0.92604234)">
      <rect
         ry="4.8357682"
         rx="4.8357682"
         style="fill:url(#linearGradient926);fill-opacity:1;stroke-width:6.09228"
         x="0.13229237"
         y="-16.457085"
         width="15.875001"
         height="15.875001"
         id="use1056"
         transform="rotate(90)"
         class="ColorScheme-Highlight" />
      <path
         d="m 5.344583,0.13229167 c -2.6384245,0 -4.76249953,2.12407483 -4.76249953,4.76249963 H 5.344583 Z"
         style="opacity:0.15;fill:url(#radialGradient25);fill-opacity:1;stroke-width:6.09228"
         id="path20" />
      <rect
         y="0.13229151"
         x="5.3445826"
         height="1.5875"
         width="6.3500004"
         id="rect20"
         style="opacity:0.15;fill:url(#linearGradient25);fill-opacity:1;stroke-width:4.83577;stroke-linecap:round;stroke-linejoin:round;paint-order:stroke fill markers" />
      <path
         d="m 0.58208347,11.244792 c 0,2.638424 2.12407503,4.762499 4.76249953,4.762499 v -4.762499 z"
         style="opacity:0.15;fill:url(#radialGradient29);fill-opacity:1;stroke-width:6.09228"
         id="use20" />
      <rect
         y="0.5820834"
         x="-11.244792"
         height="1.5875"
         width="6.3500004"
         id="use21"
         style="opacity:0.15;fill:url(#linearGradient34);fill-opacity:1;stroke-width:4.83577;stroke-linecap:round;stroke-linejoin:round;paint-order:stroke fill markers"
         transform="rotate(-90)" />
      <path
         d="m 11.694583,16.007291 c 2.638425,0 4.7625,-2.124074 4.7625,-4.762499 h -4.7625 z"
         style="opacity:0.15;fill:url(#radialGradient30);fill-opacity:1;stroke-width:6.09228"
         id="use22" />
      <rect
         y="-16.007292"
         x="-11.694584"
         height="1.5875"
         width="6.3500004"
         id="use23"
         style="opacity:0.15;fill:url(#linearGradient35);fill-opacity:1;stroke-width:4.83577;stroke-linecap:round;stroke-linejoin:round;paint-order:stroke fill markers"
         transform="scale(-1)" />
      <path
         d="m 16.457083,4.8947913 c 0,-2.6384245 -2.124074,-4.76249963 -4.7625,-4.76249963 V 4.8947913 Z"
         style="opacity:0.15;fill:url(#radialGradient31);fill-opacity:1;stroke-width:6.09228"
         id="use24" />
      <rect
         y="-16.457081"
         x="4.8947906"
         height="1.5875"
         width="6.3500004"
         id="use25"
         style="opacity:0.15;fill:url(#linearGradient36);fill-opacity:1;stroke-width:4.83577;stroke-linecap:round;stroke-linejoin:round;paint-order:stroke fill markers"
         transform="rotate(90)" />
      <path
         d="m 5.3445832,0.13229107 c -2.638425,0 -4.76250035,2.12407473 -4.76250035,4.76249973 H 5.3445832 Z"
         style="opacity:0.5;fill:url(#radialGradient15);fill-opacity:1;stroke-width:6.09228"
         id="path14" />
      <rect
         y="0.1322909"
         x="5.3445826"
         height="1.5875"
         width="6.3499999"
         id="rect14"
         style="opacity:0.5;fill:url(#linearGradient15);fill-opacity:1;stroke-width:4.83577;stroke-linecap:round;stroke-linejoin:round;paint-order:stroke fill markers" />
      <path
         d="m 11.694583,0.13229096 c 2.638425,0 4.7625,2.12407504 4.7625,4.76249734 h -4.7625 z"
         style="opacity:0.5;fill:url(#radialGradient17);fill-opacity:1;stroke-width:6.09228"
         id="use14" />
      <path
         id="path17"
         style="opacity:0.5;fill:url(#radialGradient18);fill-opacity:1;stroke-width:6.09228"
         d="m 5.3445834,16.00729 c -2.638425,0 -4.7625,-2.124075 -4.7625,-4.7625 h 4.7625 z" />
      <rect
         style="opacity:0.5;fill:url(#linearGradient18);fill-opacity:1;stroke-width:4.83577;stroke-linecap:round;stroke-linejoin:round;paint-order:stroke fill markers"
         id="rect17"
         width="6.3499994"
         height="1.5874999"
         x="5.3445826"
         y="-16.007292"
         transform="scale(1,-1)" />
      <path
         id="use17"
         style="opacity:0.5;fill:url(#radialGradient20);fill-opacity:1;stroke-width:6.09228"
         d="m 11.694582,16.007291 c 2.638425,0 4.7625,-2.124075 4.7625,-4.7625 h -4.7625 z" />
    </g>
    <path
       d="m 11.641722,9.5249991 a 2.6466142,2.6457327 0 0 0 -0.508141,0.04942 l -0.01753,0.0031 c -0.08784,0.0158 -0.174129,0.03642 -0.259347,0.06272 a 2.6095616,2.6086924 0 0 0 -0.507643,0.2232789 2.3438414,2.3430606 0 0 0 -0.243518,0.155027 c -0.05134,0.03685 -0.10214,0.07412 -0.1503127,0.114289 a 2.1067051,2.1060033 0 0 0 -0.06233,0.05536 c -0.05051,0.04532 -0.101643,0.08996 -0.1482276,0.138655 -0.1132623,0.116407 -0.2133195,0.243927 -0.3033088,0.378895 a 2.6677872,2.6668986 0 0 0 -0.030621,0.04272 2.6392039,2.6383246 0 0 0 -0.1344453,0.238085 2.6508489,2.6499659 0 0 0 -0.113831,0.26247 c -0.016657,0.04574 -0.036868,0.08997 -0.051322,0.136531 -0.0076,0.0234 -0.011268,0.0477 -0.017516,0.07092 a 2.3973033,2.3965046 0 0 0 -0.050089,0.222223 2.6466142,2.6457327 0 0 0 -0.031479,0.219069 v 0.0021 a 2.6466142,2.6457327 0 0 0 -0.016228,0.270943 2.6466142,2.6457327 0 0 0 0.052668,0.525965 c 0.0158,0.08782 0.036438,0.174076 0.062749,0.259261 a 2.6074445,2.6065758 0 0 0 0.2233507,0.507476 2.3438414,2.3430606 0 0 0 0.1550777,0.243441 2.4497063,2.4488902 0 0 0 0.1693666,0.212696 c 0.04532,0.0505 0.08998,0.101609 0.1386987,0.148163 0.1164534,0.113224 0.2440227,0.213278 0.3794947,0.303207 0.01343,0.01082 0.02793,0.0202 0.04273,0.0306 0.06273,0.04004 0.127554,0.07673 0.194296,0.111143 l 0.04367,0.0234 a 2.6508489,2.6499659 0 0 0 0.26255,0.113774 c 0.04575,0.01664 0.08998,0.03686 0.136578,0.05132 0.02341,0.0074 0.04771,0.01128 0.07154,0.0171 a 2.4825242,2.4816972 0 0 0 0.221809,0.0505 2.6466142,2.6457327 0 0 0 0.21332,0.0306 l 0.0057,0.001 h 0.002 a 2.6466142,2.6457327 0 0 0 0.271027,0.01622 2.6466142,2.6457327 0 0 0 0.508139,-0.04942 l 0.01777,-0.0031 c 0.08785,-0.0158 0.174131,-0.03642 0.259349,-0.06271 a 2.6307348,2.6298584 0 0 0 0.426113,-0.179927 l 0.05377,-0.02626 a 2.6466142,2.6457327 0 0 0 0.397016,-0.267718 c 0.01083,-0.0091 0.02297,-0.01664 0.03429,-0.02626 a 2.6466142,2.6457327 0 0 0 0.303762,-0.30327 c 0.02145,-0.02472 0.04409,-0.0477 0.06402,-0.07249 a 2.6466142,2.6457327 0 0 0 0.223352,-0.33074 c 0.02062,-0.03516 0.04089,-0.06951 0.06026,-0.105815 a 2.6466142,2.6457327 0 0 0 0.153522,-0.362458 c 0.0083,-0.02382 0.02187,-0.04532 0.02876,-0.06881 0.0074,-0.02382 0.01129,-0.0477 0.01711,-0.07152 l 0.0019,-0.0064 0.0052,-0.02186 a 2.6466142,2.6457327 0 0 0 0.07357,-0.407467 l 9.93e-4,-0.0057 v -0.0021 a 2.6466142,2.6457327 0 0 0 0.01622,-0.270943 2.6466142,2.6457327 0 0 0 -0.05265,-0.52597 c -0.01581,-0.08782 -0.03687,-0.174635 -0.06273,-0.259261 -0.0064,-0.0202 -0.01759,-0.03772 -0.02472,-0.05852 A 2.6466142,2.6457327 0 0 0 13.726639,10.54625 c -0.01539,-0.01936 -0.02626,-0.04272 -0.04273,-0.06112 -0.02751,-0.03428 -0.05984,-0.06356 -0.08998,-0.09421 a 2.6466142,2.6457327 0 0 0 -0.445197,-0.39003 c -0.02145,-0.01414 -0.04005,-0.02876 -0.06112,-0.04366 a 2.6572007,2.6563157 0 0 0 -0.04771,-0.02922 2.4645272,2.4637061 0 0 0 -0.364736,-0.1957537 c -0.02383,-0.0095 -0.04944,-0.01664 -0.07414,-0.02626 -0.05853,-0.02296 -0.115952,-0.0464 -0.174131,-0.063999 -0.02341,-0.0074 -0.04771,-0.01128 -0.07093,-0.01709 l -0.0064,-0.0021 A 2.4290627,2.4282535 0 0 0 11.9203,9.5438751 l -0.0056,-0.0011 h -0.0019 a 2.6466142,2.6457327 0 0 0 -0.270838,-0.01622 z m 0,0.5291589 a 2.1172915,2.1165862 0 0 1 1.120572,0.324366 c -9.92e-4,0.0026 -0.0032,0.0026 -0.0041,0.0064 0.0095,0.01978 0.03471,0.02144 0.05746,0.0256 l 0.03517,0.02382 c 0.01297,0.01752 0.02389,0.03685 0.03191,0.05852 a 0.19584937,0.19578413 0 0 1 0,0.0741 c -0.01456,0.03772 -0.05493,0.03428 -0.09899,0.03274 -0.01212,0 -0.02187,0.001 -0.03274,0 -0.07462,-0.0047 -0.148185,-0.02834 -0.182083,0.02472 0.0019,0.04046 0.0091,0.06356 0,0.09951 -0.0069,0.0256 -0.03471,0.04366 -0.03363,0.06633 6.62e-4,0.01128 0.02252,0.03362 0.02472,0.049 0.0019,0.0091 -0.0036,0.02517 0,0.03356 0.01254,0.0234 0.04409,-0.0036 0.06635,0 0.02145,0.0031 0.0409,0.0347 0.0409,0.05852 a 0.14291719,0.14286957 0 0 1 -0.01581,0.06538 c -0.02145,0.0319 -0.06067,0.0243 -0.09158,0.04088 -0.02472,0.01456 -0.03471,0.04942 -0.04901,0.07458 -0.01581,0.02626 -0.03191,0.036 -0.02472,0.07409 a 0.17838197,0.17832256 0 0 1 -0.09109,0.09156 0.21067087,0.21060069 0 0 0 -0.07413,0.05852 c -0.01709,0.01758 -0.04047,0.02626 -0.04944,0.04046 -0.0069,0.01084 -9.9e-4,0.03516 -0.0083,0.04942 -0.01083,0.0202 -0.02793,0.03685 -0.04091,0.05852 -0.0064,0.0091 -0.01759,0.0202 -0.02472,0.03274 -0.0158,0.0275 -0.03601,0.04942 -0.03363,0.07412 0.0019,0.02382 0.03191,0.02876 0.03363,0.04942 9.94e-4,0.0117 -0.0091,0.02062 -0.0083,0.03356 6.61e-4,0.01836 0.0069,0.02626 0.0083,0.04088 0.0032,0.03558 -0.01753,0.04942 -0.02472,0.07409 -0.0032,0.0117 0.0026,0.0243 0,0.03362 -0.0052,0.01708 -0.03275,0.02834 -0.03275,0.04942 -6.61e-4,0.01456 0.02341,0.02792 0.02431,0.04898 9.91e-4,0.01414 -0.01082,0.02792 -0.0079,0.0409 0.0052,0.02626 0.05443,0.06231 0.07413,0.08308 0.02751,0.02668 0.05492,0.04574 0.06629,0.07409 0.01082,0.02472 0.01414,0.06445 0.03363,0.08306 0.01343,0.01297 0.04005,0.01936 0.05853,0.03274 0.01622,0.01296 0.03963,0.01936 0.05788,0.03362 0.02876,0.02294 0.06883,0.06882 0.115368,0.06633 0.02472,-0.0021 0.04771,-0.01212 0.0746,-0.01664 0.02835,-0.0047 0.06163,-0.01936 0.09109,-0.01622 0.02252,0.0026 0.04325,0.0177 0.06635,0.01622 a 0.27630676,0.27621473 0 0 0 0.08259,-0.02472 c 0.04771,-0.02062 0.121216,-0.0594 0.190561,-0.04896 0.05266,0.0074 0.05311,0.06735 0.09048,0.09105 0.04273,0.0036 0.07412,-0.0083 0.10799,0 0.02519,0.0057 0.05538,0.05358 0.05788,0.07409 0.0026,0.02144 -0.01343,0.03684 -0.01622,0.04942 -0.0069,0.02792 -0.0117,0.06489 -0.01622,0.08256 -0.0036,0.01414 -0.0091,0.0275 -0.0083,0.04088 0,0.01254 0.0202,0.04134 0.03275,0.05852 0.01581,0.0202 0.03839,0.03558 0.05853,0.05786 0.03517,0.04004 0.04943,0.09524 0.07414,0.148707 0.0064,0.01342 -0.0052,0.01622 0,0.03362 -0.01084,0.08042 -0.03731,0.133886 -0.09048,0.223277 -0.02517,0.02834 -0.04985,0.06272 -0.04944,0.09894 -0.0019,0.08677 0.04533,0.131217 0.04092,0.214822 v 0.0031 a 2.1172915,2.1165862 0 0 1 -2.328019,0.772428 c 0,-0.0026 0.0032,-0.0031 0.0032,-0.0064 -9.93e-4,-0.01342 -0.01343,-0.0202 -0.02472,-0.03274 -0.0091,-0.01082 -0.002,-0.0234 -0.0079,-0.03356 -0.0117,-0.01622 -0.02835,-0.02472 -0.03357,-0.04898 0.03517,-0.0069 0.08259,0.03838 0.132325,0.02472 0.02389,-0.0069 0.06358,-0.05264 0.07412,-0.07458 0.0036,-0.0069 -0.0032,-0.03362 0,-0.04088 0.0047,-0.0091 0.0158,-0.0117 0.01664,-0.01622 0.0032,-0.01298 -0.0026,-0.01664 0,-0.02472 0.0083,-0.02472 0.03559,-0.04004 0.04944,-0.05852 0.01083,-0.01299 0.02296,-0.02668 0.03275,-0.04089 0.0117,-0.01456 0.0171,-0.0202 0.02472,-0.03274 0.0074,-0.04408 -0.02668,-0.07726 -0.01622,-0.115913 0.0117,-0.04366 0.07414,-0.07152 0.115951,-0.09106 0.01414,-0.0069 0.02876,-0.02062 0.04091,-0.02472 0.02834,-0.0104 0.06358,-0.0069 0.09109,-0.01622 0.04534,-0.0158 0.06025,-0.06632 0.08258,-0.107439 0.01082,-0.01936 0.02297,-0.036 0.02472,-0.04942 0.0016,-0.01212 -0.0026,-0.02626 0,-0.04088 0.0026,-0.01414 0.0042,-0.02518 0.0079,-0.04089 a 0.4192239,0.41908424 0 0 0 0.0083,-0.08256 c 0,-0.01978 -0.0079,-0.0243 -0.0083,-0.04134 -0.0032,-0.06231 0.01891,-0.06491 0.04135,-0.09891 0.01129,-0.01664 0.01622,-0.0464 0.02431,-0.05852 0.03921,-0.05744 0.104297,-0.08571 0.09955,-0.173571 -0.0019,-0.02834 -0.01212,-0.08997 -0.03363,-0.09892 -0.01171,-0.0052 -0.03963,-0.0016 -0.05788,-0.0083 -0.05663,-0.02144 -0.09795,-0.08571 -0.157219,-0.09104 h -0.03275 c -0.02341,0 -0.04855,-0.02186 -0.07414,-0.0243 -0.01664,-0.0021 -0.04855,0.0047 -0.05853,0 -0.01456,-0.0074 -0.01254,-0.03362 -0.02472,-0.04134 -0.0095,-0.0064 -0.02627,-0.01083 -0.0409,-0.0158 a 0.19743733,0.19737156 0 0 0 -0.06634,-0.01664 c -0.0091,-5.29e-4 -0.03191,0.0016 -0.04091,0 -0.01539,-0.0026 -0.02751,-0.0158 -0.04091,-0.02472 -0.01709,-0.01082 -0.02627,-0.01758 -0.03357,-0.03274 0.01581,-0.05222 -0.03922,-0.06066 -0.04944,-0.09106 -0.0047,-0.01414 0.0052,-0.03685 0,-0.04942 -0.0057,-0.01848 -0.02145,-0.02626 -0.04091,-0.04088 a 0.22602089,0.22594559 0 0 0 -0.115943,-0.05852 c -0.02187,-0.0026 -0.04771,0.0016 -0.07413,0 a 0.13021339,0.13017001 0 0 1 -0.08258,-0.04089 c -0.02062,-0.0234 -0.02383,-0.04682 -0.04135,-0.05786 -0.01622,-0.01082 -0.04641,-0.01342 -0.05788,-0.02472 -0.0052,-0.0047 -0.0036,-0.01342 -0.0079,-0.02472 -0.0091,-0.0171 -0.02751,-0.0202 -0.01664,-0.0409 -0.01937,-0.0095 -0.01212,0.01212 -0.03275,0.0083 -0.01937,-0.02626 -0.03191,-0.04089 -0.07414,-0.03362 -0.01979,0.0036 -0.03601,0.03274 -0.05853,0.03362 -0.01937,0 -0.03357,-0.02922 -0.05853,-0.03362 -0.01891,-0.0026 -0.04451,0.01978 -0.05788,0.01622 -0.02062,-0.0036 -0.02297,-0.02834 -0.04091,-0.04091 -0.01343,-0.0091 -0.04273,-0.03362 -0.04944,-0.03274 -0.02389,0 -0.04091,0.0505 -0.07414,0.03274 -0.01622,-0.02062 0.02751,-0.02186 0.0079,-0.04088 -0.01384,-0.01384 -0.02145,5.31e-4 -0.03275,0.0083 -0.01343,0.0091 -0.02627,0.01978 -0.04091,0.02472 -0.03363,0.01212 -0.05746,0.01128 -0.0831,0.02472 -0.02389,0.01212 -0.02668,0.03362 -0.04091,0.05786 -0.01084,0.0202 -0.03275,0.04854 -0.04901,0.04942 -0.02062,10e-4 -0.03963,-0.02517 -0.05853,-0.03362 -0.05538,-0.02382 -0.08629,0.0158 -0.1323277,0.01622 -0.04273,5.29e-4 -0.1005864,-0.06735 -0.09894,-0.107456 9.93e-4,-0.0243 0.01343,-0.06024 0.0158,-0.09106 0.0032,-0.02382 0.02472,-0.04408 0.02519,-0.06633 0,-0.02876 -0.0473,-0.05492 -0.066356,-0.05786 -0.027499,-0.0052 -0.059404,0 -0.092127,0.0031 A 2.1172915,2.1165862 0 0 1 9.761013,11.21221 c 0.0019,0 0.0052,0.0026 0.0069,0.0031 0.01539,0 0.01891,-0.01936 0.03274,-0.01664 0.01384,0.0026 0.03921,0.03232 0.0409,0.04942 0.0019,0.02144 -0.01384,0.04272 -0.0079,0.06632 0.02252,0.0234 0.06689,0.036 0.09896,0.04942 0.02145,-0.0171 0.0032,-0.05852 0,-0.08256 -6.64e-4,-0.01128 9.91e-4,-0.0234 0,-0.03362 -0.0026,-0.01709 -0.0083,-0.03516 -0.0083,-0.04942 0,-0.06881 0.05265,-0.09683 0.09955,-0.123803 0.01979,-0.0117 0.04047,-0.03274 0.05853,-0.0409 0.02431,-0.01212 0.03685,-0.01299 0.05788,-0.02472 0.03643,-0.02144 0.07093,-0.04272 0.09896,-0.06633 0.01301,-0.0319 -9.91e-4,-0.06882 0,-0.09952 0.01301,-0.0079 0.01937,10e-4 0.03357,0 0.02187,-0.0047 0.02835,-0.03684 0.04092,-0.04897 0.0069,-0.0074 0.03233,-0.0095 0.04091,-0.01664 0.02252,-0.01664 0.02252,-0.04134 0.0409,-0.04897 0.0069,-0.0026 0.02252,-0.0052 0.03275,-0.0083 0.01456,-0.0036 0.03517,-0.01664 0.05853,-0.02472 0.01456,-0.0052 0.05175,-0.0026 0.05853,-0.0079 0.0069,-0.0074 -0.0026,-0.03838 0,-0.04942 0.01129,-0.0549 0.09159,-0.0562 0.140293,-0.0741 0.03357,-0.01298 0.06999,-0.04046 0.107476,-0.03362 -0.0074,0.0256 -0.03921,0.01848 -0.03357,0.04899 0.0083,0.04408 0.05942,-0.01082 0.07462,-0.0158 0.02923,-0.01254 0.08573,-0.01978 0.123838,-0.03362 0.03429,-0.01212 0.08999,-0.03558 0.05853,-0.07458 -0.02627,-0.0016 -0.03517,0.0234 -0.05853,0.03356 -0.01581,0.0026 -0.01979,-0.0074 -0.03275,-0.0083 -0.01296,-5.3e-4 -0.0202,0.01082 -0.03357,0.0083 -0.01254,-0.0026 -0.03107,-0.02626 -0.03275,-0.04134 -0.0052,-0.04004 0.04091,-0.05264 0.05853,-0.08256 -0.01171,-0.03642 -0.06025,-0.0021 -0.09158,-0.01622 0.0032,-0.02186 0.01581,-0.04574 0.04135,-0.04942 a 0.16620738,0.16615202 0 0 1 0.08258,0.01622 c 0.0069,0.0064 -0.0026,0.0234 0.0079,0.03362 0.01254,0.01082 0.03357,0.0026 0.04944,0 0.0057,-0.0275 -0.03731,-0.01538 -0.03274,-0.03362 0.03233,-0.02144 0.09211,-0.01083 0.132321,-0.0158 0.02294,-0.0036 0.04575,-0.02252 0.06634,-0.03356 0.01937,-0.01128 0.03687,-0.02626 0.05788,-0.0083 0.0052,0.01978 -0.01343,0.0319 -0.02472,0.04089 -0.03685,0.03274 -0.07045,0.06951 -0.09897,0.107407 0.01709,0.01709 0.04451,0.0052 0.07414,0.0083 0.0117,0.0016 0.02923,0.0064 0.04089,0.0083 0.01456,0.0026 0.0306,-0.0026 0.04091,0 0.02062,0.0047 0.02145,0.03274 0.04135,0.03274 0.03233,0 0.03517,-0.0275 0.01581,-0.04942 0.0064,-0.02296 0.01664,-0.04272 0.0083,-0.05852 -0.01456,-0.02876 -0.07154,0.0052 -0.07414,-0.03274 -0.0019,-0.02388 0.0243,-0.03148 0.03274,-0.04897 -0.0036,-0.04683 0.03773,-0.049 0.03363,-0.09107 -0.0026,-0.01708 -0.02145,-0.01664 -0.03363,-0.03362 -0.0064,-0.0083 -0.0095,-0.02626 -0.01622,-0.03274 -0.0064,-0.0052 -0.01456,-0.0074 -0.02296,-0.01082 a 2.1172915,2.1165862 0 0 1 0.394881,-0.03907 z m 1.431818,0.560871 a 2.1172915,2.1165862 0 0 1 0.238753,0.25772 c -0.0171,0 -0.03471,0.0083 -0.04901,0.0083 -0.02145,0 -0.06447,-0.01083 -0.09109,-0.0083 -0.0158,10e-4 -0.02626,0.0074 -0.0409,0.0083 -0.04274,0.0031 -0.06689,-0.0026 -0.09954,0 a 0.3482945,0.34817848 0 0 0 -0.09108,0.0243 c -0.01083,0.0052 -0.01892,0.01758 -0.03275,0.02472 -0.0069,0.0031 -0.01581,0.0042 -0.02472,0.0083 -0.01343,0.0064 -0.03685,0.02144 -0.04944,0.02472 -0.01892,0.0047 -0.04005,-0.0016 -0.07411,0 -0.02472,10e-4 -0.06635,-0.0036 -0.06689,-0.03362 0,-0.0445 0.08203,-0.02517 0.124402,-0.03274 0.01581,-0.0031 0.02252,-0.02252 0.04091,-0.03362 0.0091,-0.0052 0.0158,-0.01083 0.02472,-0.01622 0.01384,-0.01083 0.03839,-0.02922 0.04093,-0.04089 0.0016,-0.01082 -0.0095,-0.02518 -0.0083,-0.03356 0.0019,-0.0104 0.0202,-0.0202 0.03357,-0.03274 0.0202,-0.0202 0.03275,-0.04532 0.05853,-0.05852 0.01622,-0.0091 0.04944,-0.01128 0.05788,-0.0243 0.0019,-0.0158 -6.61e-4,-0.01978 0,-0.03362 l 0.0091,-0.0091 z m -3.541172,1.377902 c 0.012983,0.01891 0.026702,0.03686 0.041338,0.04574 9.922e-4,0.0158 -0.00531,0.02922 0,0.04089 0.012128,0.01664 0.036868,0.02252 0.058548,0.03356 0.023824,0.01297 0.034725,0.04728 0.057445,0.05786 0.0083,0.0031 0.02145,-0.0036 0.03363,0 0.031909,0.0095 0.038389,0.05852 0.06641,0.04942 0.0183,-0.0052 0.02187,-0.03232 0.02473,-0.04942 0.01212,-0.01254 0.02252,-0.03274 0.04091,-0.03274 0.02923,-5.29e-4 0.03839,0.03685 0.04944,0.06633 0.0057,0.0158 0.0202,0.0319 0.02472,0.04899 a 0.43457402,0.43442926 0 0 1 0,0.132288 c -0.0079,0.02252 -0.03963,0.03428 -0.05853,0.05852 -0.0083,0.01128 -0.01836,0.02518 -0.02472,0.03274 -0.01129,0.01414 -0.02431,0.0202 -0.03274,0.03362 -0.0052,0.0069 -0.0036,0.02295 -0.0083,0.03274 -0.01384,0.03105 -0.03688,0.05352 -0.02472,0.09106 0.0052,0.01456 0.02472,0.0319 0.02472,0.04942 0,0.02144 -0.04641,0.02626 -0.04901,0.04942 -0.0026,0.01622 0.01937,0.05132 0.02431,0.07409 0.0036,0.01664 0.03191,0.03054 0.04089,0.0409 0.01664,0.01936 0.0347,0.04272 0.04944,0.06633 0.03105,0.04683 0.04533,0.103185 0.07414,0.14921 0.01581,0.0234 0.04771,0.04046 0.05853,0.06633 0.0052,0.01212 -0.0047,0.03772 0,0.04896 0.0171,0.03888 0.101642,0.07993 0.140796,0.09951 0.01753,0.0091 0.03275,0.01538 0.04944,0.02472 0.02519,0.01384 0.07783,0.04366 0.09048,0.06619 0.0117,0.0202 0.01937,0.06687 0.02472,0.09895 0.0074,0.04272 -0.0019,0.07829 0,0.124359 9.94e-4,0.02472 0.0083,0.04046 0.0083,0.06633 v 0.03256 c -6.62e-4,0.02922 0.0026,0.06066 0,0.09106 v 0.03685 A 2.1172915,2.1165862 0 0 1 9.532453,11.992656 Z"
       fill="#ffffff"
       id="path5"
       style="fill:#ffffff;fill-opacity:1;stroke-width:0.0440968" />
    <path
       style="color:#536076;fill:#fcfcfc;fill-opacity:1;stroke-width:0.0440968"
       class="ColorScheme-Text"
       d="M 7.3201389,3.1750127 8.9958257,4.8380878 H 7.3201389 Z M 7.9483198,7.7488839 H 5.01624 c -0.1129894,0 -0.2097043,0.093019 -0.2097043,0.20788 0,0.099049 0.074613,0.1862143 0.1719262,0.2044901 l 0.038509,0.0035 h 2.9320785 c 0.1129895,0 0.2097044,-0.092959 0.2097044,-0.207844 0,-0.111377 -0.093935,-0.207904 -0.2097044,-0.207904 z m 0,-0.831539 H 5.01624 c -0.1129894,0 -0.2097043,0.092959 -0.2097043,0.207886 0,0.099049 0.074613,0.1862142 0.1719262,0.20449 l 0.038509,0.0034 h 2.9320785 c 0.1129895,0 0.2097044,-0.092999 0.2097044,-0.2078741 0,-0.1113709 -0.093935,-0.207844 -0.2097044,-0.207844 z m 0,-0.8315421 H 5.01624 c -0.1129894,0 -0.2097043,0.093019 -0.2097043,0.2078801 0,0.099049 0.074613,0.1862142 0.1719262,0.20449 l 0.038509,0.0035 h 2.9320785 c 0.1129895,0 0.2097044,-0.092989 0.2097044,-0.2079341 0,-0.1113649 -0.093935,-0.207928 -0.2097044,-0.207928 z M 6.9012218,3.1750117 V 5.2538558 H 8.9958327 V 8.164236 c 0,0.4592836 -0.3750956,0.83154 -0.8378572,0.83154 H 4.8066032 c -0.4627724,0 -0.8378534,-0.3722724 -0.8378534,-0.83154 V 4.0065498 c 0,-0.4592896 0.3750954,-0.8315501 0.8378534,-0.8315501 z"
       id="path1" />
  </g>
</svg>
