<?xml version="1.0" encoding="UTF-8" standalone="no"?>
<svg
   width="68"
   height="68"
   viewBox="0 0 17.991665 17.991665"
   version="1.1"
   id="svg1114"
   inkscape:version="1.3.2 (091e20ef0f, 2023-11-25)"
   sodipodi:docname="preferences-security-firewall.svg"
   xmlns:inkscape="http://www.inkscape.org/namespaces/inkscape"
   xmlns:sodipodi="http://sodipodi.sourceforge.net/DTD/sodipodi-0.dtd"
   xmlns:xlink="http://www.w3.org/1999/xlink"
   xmlns="http://www.w3.org/2000/svg"
   xmlns:svg="http://www.w3.org/2000/svg"
   xmlns:rdf="http://www.w3.org/1999/02/22-rdf-syntax-ns#"
   xmlns:cc="http://creativecommons.org/ns#"
   xmlns:dc="http://purl.org/dc/elements/1.1/">
  <style
     type="text/css"
     id="current-color-scheme">.ColorScheme-Highlight { color:#5599ff; }
</style>
  <defs
     id="defs1108">
    <linearGradient
       id="linearGradient12"
       inkscape:collect="always">
      <stop
         style="stop-color:#ffffff;stop-opacity:0;"
         offset="0"
         id="stop10" />
      <stop
         id="stop11"
         offset="0.65909404"
         style="stop-color:#ffffff;stop-opacity:0" />
      <stop
         style="stop-color:#ffffff;stop-opacity:1;"
         offset="1"
         id="stop12" />
    </linearGradient>
    <linearGradient
       id="linearGradient9"
       inkscape:collect="always">
      <stop
         style="stop-color:#000000;stop-opacity:0;"
         offset="0"
         id="stop1" />
      <stop
         id="stop8"
         offset="0.66102529"
         style="stop-color:#000000;stop-opacity:0" />
      <stop
         style="stop-color:#000000;stop-opacity:1;"
         offset="1"
         id="stop9" />
    </linearGradient>
    <linearGradient
       id="linearGradient7"
       inkscape:collect="always">
      <stop
         style="stop-color:#000000;stop-opacity:0;"
         offset="0"
         id="stop5" />
      <stop
         id="stop6"
         offset="0.6586886"
         style="stop-color:#000000;stop-opacity:0" />
      <stop
         style="stop-color:#000000;stop-opacity:1;"
         offset="1"
         id="stop7" />
    </linearGradient>
    <linearGradient
       id="linearGradient4"
       inkscape:collect="always">
      <stop
         style="stop-color:#000000;stop-opacity:0;"
         offset="0"
         id="stop2" />
      <stop
         id="stop3"
         offset="0.67055255"
         style="stop-color:#000000;stop-opacity:0" />
      <stop
         style="stop-color:#000000;stop-opacity:1;"
         offset="1"
         id="stop4" />
    </linearGradient>
    <linearGradient
       inkscape:collect="always"
       id="linearGradient899">
      <stop
         style="stop-color:#2a436f;stop-opacity:1;"
         offset="0"
         id="stop895" />
      <stop
         style="stop-color:#273e66;stop-opacity:1;"
         offset="1"
         id="stop897" />
    </linearGradient>
    <linearGradient
       id="linearGradient1167"
       x1="40.751999"
       x2="40.751999"
       y1="28.507999"
       y2="17.205999"
       gradientUnits="userSpaceOnUse">
      <stop
         style="stop-color:#84fb6e;stop-opacity:1"
         stop-color="#0ab816"
         offset="0"
         id="stop1163" />
      <stop
         style="stop-color:#0dd41a;stop-opacity:1"
         stop-color="#0cf36c"
         offset="1"
         id="stop1165" />
    </linearGradient>
    <linearGradient
       id="cornerBevel"
       inkscape:collect="always">
      <stop
         style="stop-color:#000000;stop-opacity:0;"
         offset="0"
         id="stop2663" />
      <stop
         id="stop2671"
         offset="0.66666675"
         style="stop-color:#000000;stop-opacity:0" />
      <stop
         style="stop-color:#000000;stop-opacity:1;"
         offset="1"
         id="stop2661" />
    </linearGradient>
    <linearGradient
       id="bevel"
       inkscape:collect="always">
      <stop
         id="stop2685"
         offset="0"
         style="stop-color:#000000;stop-opacity:1;" />
      <stop
         id="stop2687"
         offset="1"
         style="stop-color:#000000;stop-opacity:0;" />
    </linearGradient>
    <linearGradient
       id="highlightCorner"
       inkscape:collect="always">
      <stop
         style="stop-color:#ffffff;stop-opacity:0;"
         offset="0"
         id="stop2613" />
      <stop
         id="stop2621"
         offset="0.66666669"
         style="stop-color:#ffffff;stop-opacity:0" />
      <stop
         style="stop-color:#ffffff;stop-opacity:1;"
         offset="1"
         id="stop2611" />
    </linearGradient>
    <linearGradient
       inkscape:collect="always"
       id="highlight">
      <stop
         style="stop-color:#ffffff;stop-opacity:1;"
         offset="0"
         id="stop2921" />
      <stop
         style="stop-color:#ffffff;stop-opacity:0;"
         offset="1"
         id="stop2923" />
    </linearGradient>
    <radialGradient
       inkscape:collect="always"
       xlink:href="#highlightCorner"
       id="radialGradient15"
       gradientUnits="userSpaceOnUse"
       gradientTransform="matrix(0.04294597,-12.079348,17.933991,0.06376112,14.524179,-50.373789)"
       cx="-4.5799766"
       cy="-0.50206107"
       fx="-4.5799766"
       fy="-0.50206107"
       r="0.39687499" />
    <linearGradient
       inkscape:collect="always"
       xlink:href="#highlight"
       id="linearGradient15"
       gradientUnits="userSpaceOnUse"
       x1="-3.8453064"
       y1="-1.1532172"
       x2="-3.8453064"
       y2="-0.8954913"
       gradientTransform="matrix(6.0923077,0,0,6.0923077,32.228528,7.1537621)" />
    <radialGradient
       inkscape:collect="always"
       xlink:href="#linearGradient12"
       id="radialGradient17"
       gradientUnits="userSpaceOnUse"
       gradientTransform="matrix(-0.02247554,-12.045403,-17.967828,0.03352619,1.6640208,-50.22331)"
       cx="-4.575222"
       cy="-0.55256462"
       fx="-4.575222"
       fy="-0.55256462"
       r="0.39687499" />
    <radialGradient
       inkscape:collect="always"
       xlink:href="#linearGradient7"
       id="radialGradient18"
       gradientUnits="userSpaceOnUse"
       gradientTransform="matrix(0.06461187,12.09952,17.933731,-0.09576873,14.609502,64.748231)"
       cx="-4.4284906"
       cy="-0.50121039"
       fx="-4.4284906"
       fy="-0.50121039"
       r="0.39687499" />
    <linearGradient
       inkscape:collect="always"
       xlink:href="#bevel"
       id="linearGradient18"
       gradientUnits="userSpaceOnUse"
       x1="-3.8415797"
       y1="-1.4506671"
       x2="-3.8406549"
       y2="-1.1968651"
       gradientTransform="matrix(6.0923076,0,0,6.0923076,32.228527,-7.1537627)" />
    <radialGradient
       inkscape:collect="always"
       xlink:href="#linearGradient4"
       id="radialGradient20"
       gradientUnits="userSpaceOnUse"
       gradientTransform="matrix(-0.01031383,11.991438,-17.967296,-0.01545561,1.7353715,64.305742)"
       cx="-4.4236727"
       cy="-0.55004197"
       fx="-4.4236727"
       fy="-0.55004197"
       r="0.39687499" />
    <radialGradient
       inkscape:collect="always"
       xlink:href="#cornerBevel"
       id="radialGradient25"
       gradientUnits="userSpaceOnUse"
       gradientTransform="matrix(12.184614,0,0,12.184614,59.63122,10.377613)"
       cx="-4.4568658"
       cy="-0.44864327"
       fx="-4.4568658"
       fy="-0.44864327"
       r="0.39687496" />
    <linearGradient
       inkscape:collect="always"
       xlink:href="#bevel"
       id="linearGradient25"
       gradientUnits="userSpaceOnUse"
       x1="-3.8487544"
       y1="-1.146081"
       x2="-3.8455966"
       y2="-0.890971"
       gradientTransform="matrix(6.0923077,0,0,6.0923077,32.228528,7.1537627)" />
    <radialGradient
       inkscape:collect="always"
       xlink:href="#cornerBevel"
       id="radialGradient29"
       gradientUnits="userSpaceOnUse"
       gradientTransform="matrix(0,-12.184614,12.184614,0,11.27353,-44.427768)"
       cx="-4.5705457"
       cy="-0.48653662"
       fx="-4.5705457"
       fy="-0.48653662"
       r="0.39687496" />
    <radialGradient
       inkscape:collect="always"
       xlink:href="#cornerBevel"
       id="radialGradient30"
       gradientUnits="userSpaceOnUse"
       gradientTransform="matrix(-12.184514,-0.04945749,0.04847411,-11.942243,-43.502155,3.8519053)"
       cx="-4.5342312"
       cy="-0.60337442"
       fx="-4.5342312"
       fy="-0.60337442"
       r="0.39687496" />
    <radialGradient
       inkscape:collect="always"
       xlink:href="#linearGradient9"
       id="radialGradient31"
       gradientUnits="userSpaceOnUse"
       gradientTransform="matrix(0,-12.151612,11.978956,0,18.475664,-48.770776)"
       cx="-4.4175329"
       cy="-0.56489283"
       fx="-4.4175329"
       fy="-0.56489283"
       r="0.39687496" />
    <linearGradient
       inkscape:collect="always"
       xlink:href="#bevel"
       id="linearGradient34"
       gradientUnits="userSpaceOnUse"
       x1="-3.99717"
       y1="-1.2218677"
       x2="-4.0003276"
       y2="-0.96675771"
       gradientTransform="matrix(6.0923077,0,0,6.0923077,17.025077,8.0496826)" />
    <linearGradient
       inkscape:collect="always"
       xlink:href="#bevel"
       id="linearGradient35"
       gradientUnits="userSpaceOnUse"
       x1="-4.0919032"
       y1="-1.4492278"
       x2="-4.0950613"
       y2="-1.1972755"
       gradientTransform="matrix(6.0923077,0,0,6.0923077,16.129161,-7.1537627)" />
    <linearGradient
       inkscape:collect="always"
       xlink:href="#bevel"
       id="linearGradient36"
       gradientUnits="userSpaceOnUse"
       x1="-3.8734362"
       y1="-1.3717227"
       x2="-3.8765941"
       y2="-1.116071"
       gradientTransform="matrix(6.0923077,0,0,6.0923077,31.33261,-8.0496826)" />
    <linearGradient
       id="paint2_linear_77:3-7"
       x1="79.398094"
       y1="-197.84389"
       x2="82.901054"
       y2="-199.97827"
       gradientUnits="userSpaceOnUse"
       gradientTransform="matrix(1.9248511,0,0,1.7314595,-40.88733,399.61741)">
      <stop
         stop-color="#EBFAFF"
         stop-opacity="0.1"
         id="stop29-5-7"
         offset="0"
         style="stop-color:#c3c3c3;stop-opacity:1;" />
      <stop
         offset="1"
         stop-color="#70A9FF"
         stop-opacity="0.5"
         id="stop30-0-1"
         style="stop-color:#05c7ff;stop-opacity:0.80000001;" />
    </linearGradient>
    <linearGradient
       inkscape:collect="always"
       xlink:href="#linearGradient899"
       id="linearGradient926"
       x1="1.1249832"
       y1="-9.2589808"
       x2="16.919081"
       y2="-9.2251434"
       gradientUnits="userSpaceOnUse"
       gradientTransform="translate(-0.92604234,0.47624996)" />
    <linearGradient
       xlink:href="#bevel"
       id="linearGradient4304-3"
       x1="26.929001"
       y1="5.9949999"
       x2="47.120998"
       y2="37.126999"
       gradientUnits="userSpaceOnUse"
       gradientTransform="matrix(0.27781247,0,0,0.27781247,0.74083456,0.740834)" />
  </defs>
  <sodipodi:namedview
     id="base"
     pagecolor="#e2e2e2"
     bordercolor="#666666"
     borderopacity="1.0"
     inkscape:pageopacity="0"
     inkscape:pageshadow="2"
     inkscape:zoom="9.7248729"
     inkscape:cx="32.596827"
     inkscape:cy="31.774194"
     inkscape:document-units="px"
     inkscape:current-layer="layer1"
     inkscape:document-rotation="0"
     showgrid="true"
     units="px"
     inkscape:window-width="1920"
     inkscape:window-height="990"
     inkscape:window-x="0"
     inkscape:window-y="0"
     inkscape:window-maximized="1"
     inkscape:object-paths="true"
     inkscape:snap-grids="true"
     inkscape:snap-intersection-paths="true"
     inkscape:snap-smooth-nodes="true"
     inkscape:snap-midpoints="true"
     inkscape:showpageshadow="2"
     inkscape:pagecheckerboard="0"
     inkscape:deskcolor="#d1d1d1">
    <inkscape:grid
       id="grid2"
       units="px"
       originx="0"
       originy="0"
       spacingx="0.26458333"
       spacingy="0.26458333"
       empcolor="#0099e5"
       empopacity="0.30196078"
       color="#0099e5"
       opacity="0.14902"
       empspacing="5"
       dotted="false"
       gridanglex="30"
       gridanglez="30"
       visible="true" />
  </sodipodi:namedview>
  <metadata
     id="metadata1111">
    <rdf:RDF>
      <cc:Work
         rdf:about="">
        <dc:format>image/svg+xml</dc:format>
        <dc:type
           rdf:resource="http://purl.org/dc/dcmitype/StillImage" />
      </cc:Work>
    </rdf:RDF>
  </metadata>
  <g
     inkscape:label="Layer 1"
     inkscape:groupmode="layer"
     id="layer1">
    <g
       id="g918"
       transform="translate(0.47625037,0.92604234)">
      <rect
         ry="4.8357682"
         rx="4.8357682"
         style="fill:url(#linearGradient926);fill-opacity:1;stroke-width:6.09228"
         x="0.13229237"
         y="-16.457085"
         width="15.875001"
         height="15.875001"
         id="use1056"
         transform="rotate(90)"
         class="ColorScheme-Highlight" />
      <path
         d="m 5.344583,0.13229167 c -2.6384245,0 -4.76249953,2.12407483 -4.76249953,4.76249963 H 5.344583 Z"
         style="opacity:0.15;fill:url(#radialGradient25);fill-opacity:1;stroke-width:6.09228"
         id="path20" />
      <rect
         y="0.13229151"
         x="5.3445826"
         height="1.5875"
         width="6.3500004"
         id="rect20"
         style="opacity:0.15;fill:url(#linearGradient25);fill-opacity:1;stroke-width:4.83577;stroke-linecap:round;stroke-linejoin:round;paint-order:stroke fill markers" />
      <path
         d="m 0.58208347,11.244792 c 0,2.638424 2.12407503,4.762499 4.76249953,4.762499 v -4.762499 z"
         style="opacity:0.15;fill:url(#radialGradient29);fill-opacity:1;stroke-width:6.09228"
         id="use20" />
      <rect
         y="0.5820834"
         x="-11.244792"
         height="1.5875"
         width="6.3500004"
         id="use21"
         style="opacity:0.15;fill:url(#linearGradient34);fill-opacity:1;stroke-width:4.83577;stroke-linecap:round;stroke-linejoin:round;paint-order:stroke fill markers"
         transform="rotate(-90)" />
      <path
         d="m 11.694583,16.007291 c 2.638425,0 4.7625,-2.124074 4.7625,-4.762499 h -4.7625 z"
         style="opacity:0.15;fill:url(#radialGradient30);fill-opacity:1;stroke-width:6.09228"
         id="use22" />
      <rect
         y="-16.007292"
         x="-11.694584"
         height="1.5875"
         width="6.3500004"
         id="use23"
         style="opacity:0.15;fill:url(#linearGradient35);fill-opacity:1;stroke-width:4.83577;stroke-linecap:round;stroke-linejoin:round;paint-order:stroke fill markers"
         transform="scale(-1)" />
      <path
         d="m 16.457083,4.8947913 c 0,-2.6384245 -2.124074,-4.76249963 -4.7625,-4.76249963 V 4.8947913 Z"
         style="opacity:0.15;fill:url(#radialGradient31);fill-opacity:1;stroke-width:6.09228"
         id="use24" />
      <rect
         y="-16.457081"
         x="4.8947906"
         height="1.5875"
         width="6.3500004"
         id="use25"
         style="opacity:0.15;fill:url(#linearGradient36);fill-opacity:1;stroke-width:4.83577;stroke-linecap:round;stroke-linejoin:round;paint-order:stroke fill markers"
         transform="rotate(90)" />
      <path
         d="m 5.3445832,0.13229107 c -2.638425,0 -4.76250035,2.12407473 -4.76250035,4.76249973 H 5.3445832 Z"
         style="opacity:0.5;fill:url(#radialGradient15);fill-opacity:1;stroke-width:6.09228"
         id="path14" />
      <rect
         y="0.1322909"
         x="5.3445826"
         height="1.5875"
         width="6.3499999"
         id="rect14"
         style="opacity:0.5;fill:url(#linearGradient15);fill-opacity:1;stroke-width:4.83577;stroke-linecap:round;stroke-linejoin:round;paint-order:stroke fill markers" />
      <path
         d="m 11.694583,0.13229096 c 2.638425,0 4.7625,2.12407504 4.7625,4.76249734 h -4.7625 z"
         style="opacity:0.5;fill:url(#radialGradient17);fill-opacity:1;stroke-width:6.09228"
         id="use14" />
      <path
         id="path17"
         style="opacity:0.5;fill:url(#radialGradient18);fill-opacity:1;stroke-width:6.09228"
         d="m 5.3445834,16.00729 c -2.638425,0 -4.7625,-2.124075 -4.7625,-4.7625 h 4.7625 z" />
      <rect
         style="opacity:0.5;fill:url(#linearGradient18);fill-opacity:1;stroke-width:4.83577;stroke-linecap:round;stroke-linejoin:round;paint-order:stroke fill markers"
         id="rect17"
         width="6.3499994"
         height="1.5874999"
         x="5.3445826"
         y="-16.007292"
         transform="scale(1,-1)" />
      <path
         id="use17"
         style="opacity:0.5;fill:url(#radialGradient20);fill-opacity:1;stroke-width:6.09228"
         d="m 11.694582,16.007291 c 2.638425,0 4.7625,-2.124075 4.7625,-4.7625 h -4.7625 z" />
    </g>
    <path
       d="m 4.3506216,3.7041663 c -0.3580778,0 -0.6464553,0.2873411 -0.6464553,0.6441313 v 1.9318671 c 0,0.3567902 0.2883775,0.6441302 0.6464553,0.6441302 h 3.8240269 c 0.358078,0 0.6464555,-0.28734 0.6464555,-0.6441302 V 4.3482976 c 0,-0.3567902 -0.2883775,-0.6441313 -0.6464555,-0.6441313 z m 5.6555624,0 c -0.3580777,0 -0.646455,0.2873411 -0.646455,0.6441313 v 1.9318671 c 0,0.3567902 0.2883773,0.6441302 0.646455,0.6441302 h 3.824021 c 0.358077,0 0.646455,-0.28734 0.646455,-0.6441302 V 4.3482976 c 0,-0.3567902 -0.288378,-0.6441313 -0.646455,-0.6441313 z m -3.2317498,3.756817 c -0.3580778,0 -0.6464553,0.2873399 -0.6464553,0.6441302 V 10.03698 c 0,0.35679 0.2883775,0.64413 0.6464553,0.64413 h 3.8240208 c 0.358078,0 0.646458,-0.28734 0.646458,-0.64413 V 8.1051135 c 0,-0.3567903 -0.28838,-0.6441302 -0.646458,-0.6441302 z m 5.6555568,0 c -0.358077,0 -0.646455,0.2873399 -0.646455,0.6441302 V 10.03698 c 0,0.35679 0.288378,0.64413 0.646455,0.64413 H 14.47666 V 7.4609833 Z M 4.3506216,11.217799 c -0.3580778,0 -0.6464553,0.28734 -0.6464553,0.64413 v 1.931867 c 0,0.356789 0.2883775,0.64413 0.6464553,0.64413 h 3.8240269 c 0.358078,0 0.6464555,-0.287341 0.6464555,-0.64413 v -1.931867 c 0,-0.35679 -0.2883775,-0.64413 -0.6464555,-0.64413 z m 5.6555624,0 c -0.3580777,0 -0.646455,0.28734 -0.646455,0.64413 v 1.931867 c 0,0.356789 0.2883773,0.64413 0.646455,0.64413 h 3.824021 c 0.358077,0 0.646455,-0.287341 0.646455,-0.64413 v -1.931867 c 0,-0.35679 -0.288378,-0.64413 -0.646455,-0.64413 z"
       id="path2"
       style="fill:#c83771;fill-opacity:1;stroke-width:0.264583" />
    <path
       d="m 8.2824791,3.7151726 v 2.1357465 c 0,0.2973247 -0.2402269,0.5366882 -0.5386251,0.5366882 H 3.7152124 c 0.051351,0.3049609 0.3143361,0.5366876 0.6354093,0.5366876 h 3.8240268 c 0.358078,0 0.6464555,-0.28734 0.6464555,-0.6441302 V 4.3482976 c 0,-0.3199185 -0.2325636,-0.5819589 -0.5386249,-0.633125 z m 5.6555559,0 v 2.1357465 c 0,0.2973247 -0.240225,0.5366882 -0.538623,0.5366882 H 9.3707751 c 0.051351,0.3049609 0.3143363,0.5366876 0.6354089,0.5366876 h 3.824021 c 0.358077,0 0.646455,-0.28734 0.646455,-0.6441302 V 4.3482976 c 0,-0.3199185 -0.232562,-0.5819589 -0.538625,-0.633125 z M 10.706286,7.4719897 V 9.607736 c 0,0.2973249 -0.240224,0.536687 -0.538621,0.536687 H 6.1390251 c 0.05135,0.304962 0.3143361,0.536687 0.6354091,0.536687 h 3.8240208 c 0.358078,0 0.646458,-0.28734 0.646458,-0.64413 V 8.1051135 c 0,-0.3199186 -0.232564,-0.5819588 -0.538627,-0.6331238 z m 1.088296,2.6724333 c 0.05135,0.304962 0.314337,0.536687 0.635409,0.536687 h 2.046669 v -0.536687 z m -3.5121029,1.084382 v 2.135745 c 0,0.297325 -0.2402269,0.536689 -0.5386251,0.536689 H 3.7152124 c 0.051351,0.304961 0.3143361,0.536687 0.6354093,0.536687 h 3.8240268 c 0.358078,0 0.6464555,-0.287341 0.6464555,-0.64413 v -1.931867 c 0,-0.319918 -0.2325636,-0.581958 -0.5386249,-0.633124 z m 5.6555559,0 v 2.135745 c 0,0.297325 -0.240225,0.536689 -0.538623,0.536689 H 9.3707751 c 0.051351,0.304961 0.3143363,0.536687 0.6354089,0.536687 h 3.824021 c 0.358077,0 0.646455,-0.287341 0.646455,-0.64413 v -1.931867 c 0,-0.319918 -0.232562,-0.581958 -0.538625,-0.633124 z"
       fill="#101010"
       opacity="0.23"
       id="path3"
       style="opacity:0.439825;fill:#a5a5a5;fill-opacity:1;stroke-width:0.264583" />
    <path
       fill="#ffd33f"
       d="m 11.404376,7.987036 c -0.02735,1.138514 -0.388461,2.136156 -1.08331,2.992494 -0.02736,-0.337127 -0.131965,-0.674255 -0.314919,-1.0113804 -0.018154,0.2551324 -0.1214625,0.5946574 -0.3085801,1.0183604 -0.1875559,0.423261 -0.3042036,0.730291 -0.3497244,0.921542 -0.1006732,0.482572 -0.043547,0.906266 0.1713602,1.270662 0.2146939,0.364165 0.6375073,0.723972 1.2682423,1.079405 0.954186,0.370275 1.322513,0.388161 2.111914,0 0.447987,-0.255123 0.804489,-0.535334 1.069525,-0.840632 0.265244,-0.305067 0.433973,-0.60099 0.507077,-0.887952 0.07319,-0.286752 0.09343,-0.582892 0.06145,-0.887957 -0.03194,-0.30529 -0.104587,-0.580707 -0.21883,-0.826689 A 5.1850242,5.1663779 0 0 0 13.927517,10.118177 C 13.78111,9.8996775 13.649142,9.7267528 13.530295,9.5991849 13.411462,9.4716172 13.315384,9.3806847 13.242075,9.3259505 c 0.06412,0.173143 0.08664,0.3598059 0.06852,0.5604249 -0.01845,0.2001816 -0.06347,0.3824826 -0.136781,0.5464676 C 13.146435,10.159609 13.065898,9.8861581 12.933278,9.6129233 12.800866,9.3396881 12.659276,9.1139916 12.508477,8.9362696 A 4.2686935,4.2533426 0 0 0 11.987618,8.424255 C 11.791087,8.2602706 11.655837,8.153419 11.582749,8.1034828 A 3.6438733,3.6307693 0 0 0 11.404376,7.987036 Z"
       overflow="visible"
       style="color:#000000;isolation:auto;mix-blend-mode:normal;stroke-width:0.147002"
       id="path6" />
    <path
       fill="#fff3cb"
       d="m 12.899359,14.258118 c 0.301574,-0.601199 0.361101,-1.250154 0.178136,-1.946866 -0.182741,-0.696942 -0.543846,-1.232069 -1.083307,-1.605394 0.04593,0.200402 0.02061,0.530548 -0.07529,0.990452 -0.096,0.460118 -0.249057,0.808357 -0.459582,1.045183 0.03673,-0.291334 0.04593,-0.52816 0.02765,-0.710452 -0.01819,-0.182084 -0.0458,-0.318592 -0.08233,-0.409967 l -0.06851,-0.122766 c -0.05467,0.327963 -0.196536,0.655713 -0.425006,0.98368 -0.118842,0.173151 -0.207907,0.332552 -0.267435,0.478218 -0.05925,0.145663 -0.08231,0.332335 -0.0685,0.560202 0.01358,0.227668 0.08444,0.473646 0.212283,0.73771 0,0 0.361544,0.293963 0.764451,0.293963 0.976506,0 1.020939,-0.108156 1.34747,-0.293963 z"
       overflow="visible"
       style="color:#000000;isolation:auto;mix-blend-mode:normal;stroke-width:0.147002"
       id="path8" />
  </g>
</svg>
