<?xml version="1.0" encoding="UTF-8" standalone="no"?>
<svg
   width="68"
   height="68"
   viewBox="0 0 17.991665 17.991665"
   version="1.1"
   id="svg1114"
   inkscape:version="1.3.2 (091e20ef0f, 2023-11-25)"
   sodipodi:docname="preferences-system-network-iscsi.svg"
   xmlns:inkscape="http://www.inkscape.org/namespaces/inkscape"
   xmlns:sodipodi="http://sodipodi.sourceforge.net/DTD/sodipodi-0.dtd"
   xmlns:xlink="http://www.w3.org/1999/xlink"
   xmlns="http://www.w3.org/2000/svg"
   xmlns:svg="http://www.w3.org/2000/svg"
   xmlns:rdf="http://www.w3.org/1999/02/22-rdf-syntax-ns#"
   xmlns:cc="http://creativecommons.org/ns#"
   xmlns:dc="http://purl.org/dc/elements/1.1/">
  <style
     type="text/css"
     id="current-color-scheme">.ColorScheme-Highlight { color:#5599ff; }
</style>
  <defs
     id="defs1108">
    <linearGradient
       id="linearGradient12"
       inkscape:collect="always">
      <stop
         style="stop-color:#ffffff;stop-opacity:0;"
         offset="0"
         id="stop10" />
      <stop
         id="stop11"
         offset="0.65909404"
         style="stop-color:#ffffff;stop-opacity:0" />
      <stop
         style="stop-color:#ffffff;stop-opacity:1;"
         offset="1"
         id="stop12" />
    </linearGradient>
    <linearGradient
       id="linearGradient9"
       inkscape:collect="always">
      <stop
         style="stop-color:#000000;stop-opacity:0;"
         offset="0"
         id="stop1" />
      <stop
         id="stop8"
         offset="0.66102529"
         style="stop-color:#000000;stop-opacity:0" />
      <stop
         style="stop-color:#000000;stop-opacity:1;"
         offset="1"
         id="stop9" />
    </linearGradient>
    <linearGradient
       id="linearGradient7"
       inkscape:collect="always">
      <stop
         style="stop-color:#000000;stop-opacity:0;"
         offset="0"
         id="stop5" />
      <stop
         id="stop6"
         offset="0.6586886"
         style="stop-color:#000000;stop-opacity:0" />
      <stop
         style="stop-color:#000000;stop-opacity:1;"
         offset="1"
         id="stop7" />
    </linearGradient>
    <linearGradient
       id="linearGradient4"
       inkscape:collect="always">
      <stop
         style="stop-color:#000000;stop-opacity:0;"
         offset="0"
         id="stop2" />
      <stop
         id="stop3"
         offset="0.67055255"
         style="stop-color:#000000;stop-opacity:0" />
      <stop
         style="stop-color:#000000;stop-opacity:1;"
         offset="1"
         id="stop4" />
    </linearGradient>
    <linearGradient
       inkscape:collect="always"
       id="linearGradient899">
      <stop
         style="stop-color:#535d6c;stop-opacity:1;"
         offset="0"
         id="stop895" />
      <stop
         style="stop-color:#373e48;stop-opacity:1;"
         offset="1"
         id="stop897" />
    </linearGradient>
    <linearGradient
       id="linearGradient1167"
       x1="40.751999"
       x2="40.751999"
       y1="28.507999"
       y2="17.205999"
       gradientUnits="userSpaceOnUse">
      <stop
         style="stop-color:#84fb6e;stop-opacity:1"
         stop-color="#0ab816"
         offset="0"
         id="stop1163" />
      <stop
         style="stop-color:#0dd41a;stop-opacity:1"
         stop-color="#0cf36c"
         offset="1"
         id="stop1165" />
    </linearGradient>
    <linearGradient
       id="cornerBevel"
       inkscape:collect="always">
      <stop
         style="stop-color:#000000;stop-opacity:0;"
         offset="0"
         id="stop2663" />
      <stop
         id="stop2671"
         offset="0.66666675"
         style="stop-color:#000000;stop-opacity:0" />
      <stop
         style="stop-color:#000000;stop-opacity:1;"
         offset="1"
         id="stop2661" />
    </linearGradient>
    <linearGradient
       id="bevel"
       inkscape:collect="always">
      <stop
         id="stop2685"
         offset="0"
         style="stop-color:#000000;stop-opacity:1;" />
      <stop
         id="stop2687"
         offset="1"
         style="stop-color:#000000;stop-opacity:0;" />
    </linearGradient>
    <linearGradient
       id="highlightCorner"
       inkscape:collect="always">
      <stop
         style="stop-color:#ffffff;stop-opacity:0;"
         offset="0"
         id="stop2613" />
      <stop
         id="stop2621"
         offset="0.66666669"
         style="stop-color:#ffffff;stop-opacity:0" />
      <stop
         style="stop-color:#ffffff;stop-opacity:1;"
         offset="1"
         id="stop2611" />
    </linearGradient>
    <linearGradient
       inkscape:collect="always"
       id="highlight">
      <stop
         style="stop-color:#ffffff;stop-opacity:1;"
         offset="0"
         id="stop2921" />
      <stop
         style="stop-color:#ffffff;stop-opacity:0;"
         offset="1"
         id="stop2923" />
    </linearGradient>
    <radialGradient
       inkscape:collect="always"
       xlink:href="#highlightCorner"
       id="radialGradient15"
       gradientUnits="userSpaceOnUse"
       gradientTransform="matrix(0.04294597,-12.079348,17.933991,0.06376112,14.524179,-50.373789)"
       cx="-4.5799766"
       cy="-0.50206107"
       fx="-4.5799766"
       fy="-0.50206107"
       r="0.39687499" />
    <linearGradient
       inkscape:collect="always"
       xlink:href="#highlight"
       id="linearGradient15"
       gradientUnits="userSpaceOnUse"
       x1="-3.8453064"
       y1="-1.1532172"
       x2="-3.8453064"
       y2="-0.8954913"
       gradientTransform="matrix(6.0923077,0,0,6.0923077,32.228528,7.1537621)" />
    <radialGradient
       inkscape:collect="always"
       xlink:href="#linearGradient12"
       id="radialGradient17"
       gradientUnits="userSpaceOnUse"
       gradientTransform="matrix(-0.02247554,-12.045403,-17.967828,0.03352619,1.6640208,-50.22331)"
       cx="-4.575222"
       cy="-0.55256462"
       fx="-4.575222"
       fy="-0.55256462"
       r="0.39687499" />
    <radialGradient
       inkscape:collect="always"
       xlink:href="#linearGradient7"
       id="radialGradient18"
       gradientUnits="userSpaceOnUse"
       gradientTransform="matrix(0.06461187,12.09952,17.933731,-0.09576873,14.609502,64.748231)"
       cx="-4.4284906"
       cy="-0.50121039"
       fx="-4.4284906"
       fy="-0.50121039"
       r="0.39687499" />
    <linearGradient
       inkscape:collect="always"
       xlink:href="#bevel"
       id="linearGradient18"
       gradientUnits="userSpaceOnUse"
       x1="-3.8415797"
       y1="-1.4506671"
       x2="-3.8406549"
       y2="-1.1968651"
       gradientTransform="matrix(6.0923076,0,0,6.0923076,32.228527,-7.1537627)" />
    <radialGradient
       inkscape:collect="always"
       xlink:href="#linearGradient4"
       id="radialGradient20"
       gradientUnits="userSpaceOnUse"
       gradientTransform="matrix(-0.01031383,11.991438,-17.967296,-0.01545561,1.7353715,64.305742)"
       cx="-4.4236727"
       cy="-0.55004197"
       fx="-4.4236727"
       fy="-0.55004197"
       r="0.39687499" />
    <radialGradient
       inkscape:collect="always"
       xlink:href="#cornerBevel"
       id="radialGradient25"
       gradientUnits="userSpaceOnUse"
       gradientTransform="matrix(12.184614,0,0,12.184614,59.63122,10.377613)"
       cx="-4.4568658"
       cy="-0.44864327"
       fx="-4.4568658"
       fy="-0.44864327"
       r="0.39687496" />
    <linearGradient
       inkscape:collect="always"
       xlink:href="#bevel"
       id="linearGradient25"
       gradientUnits="userSpaceOnUse"
       x1="-3.8487544"
       y1="-1.146081"
       x2="-3.8455966"
       y2="-0.890971"
       gradientTransform="matrix(6.0923077,0,0,6.0923077,32.228528,7.1537627)" />
    <radialGradient
       inkscape:collect="always"
       xlink:href="#cornerBevel"
       id="radialGradient29"
       gradientUnits="userSpaceOnUse"
       gradientTransform="matrix(0,-12.184614,12.184614,0,11.27353,-44.427768)"
       cx="-4.5705457"
       cy="-0.48653662"
       fx="-4.5705457"
       fy="-0.48653662"
       r="0.39687496" />
    <radialGradient
       inkscape:collect="always"
       xlink:href="#cornerBevel"
       id="radialGradient30"
       gradientUnits="userSpaceOnUse"
       gradientTransform="matrix(-12.184514,-0.04945749,0.04847411,-11.942243,-43.502155,3.8519053)"
       cx="-4.5342312"
       cy="-0.60337442"
       fx="-4.5342312"
       fy="-0.60337442"
       r="0.39687496" />
    <radialGradient
       inkscape:collect="always"
       xlink:href="#linearGradient9"
       id="radialGradient31"
       gradientUnits="userSpaceOnUse"
       gradientTransform="matrix(0,-12.151612,11.978956,0,18.475664,-48.770776)"
       cx="-4.4175329"
       cy="-0.56489283"
       fx="-4.4175329"
       fy="-0.56489283"
       r="0.39687496" />
    <linearGradient
       inkscape:collect="always"
       xlink:href="#bevel"
       id="linearGradient34"
       gradientUnits="userSpaceOnUse"
       x1="-3.99717"
       y1="-1.2218677"
       x2="-4.0003276"
       y2="-0.96675771"
       gradientTransform="matrix(6.0923077,0,0,6.0923077,17.025077,8.0496826)" />
    <linearGradient
       inkscape:collect="always"
       xlink:href="#bevel"
       id="linearGradient35"
       gradientUnits="userSpaceOnUse"
       x1="-4.0919032"
       y1="-1.4492278"
       x2="-4.0950613"
       y2="-1.1972755"
       gradientTransform="matrix(6.0923077,0,0,6.0923077,16.129161,-7.1537627)" />
    <linearGradient
       inkscape:collect="always"
       xlink:href="#bevel"
       id="linearGradient36"
       gradientUnits="userSpaceOnUse"
       x1="-3.8734362"
       y1="-1.3717227"
       x2="-3.8765941"
       y2="-1.116071"
       gradientTransform="matrix(6.0923077,0,0,6.0923077,31.33261,-8.0496826)" />
    <linearGradient
       id="paint2_linear_77:3-7"
       x1="79.398094"
       y1="-197.84389"
       x2="82.901054"
       y2="-199.97827"
       gradientUnits="userSpaceOnUse"
       gradientTransform="matrix(1.9248511,0,0,1.7314595,-40.88733,399.61741)">
      <stop
         stop-color="#EBFAFF"
         stop-opacity="0.1"
         id="stop29-5-7"
         offset="0"
         style="stop-color:#c3c3c3;stop-opacity:1;" />
      <stop
         offset="1"
         stop-color="#70A9FF"
         stop-opacity="0.5"
         id="stop30-0-1"
         style="stop-color:#05c7ff;stop-opacity:0.80000001;" />
    </linearGradient>
    <linearGradient
       inkscape:collect="always"
       xlink:href="#linearGradient899"
       id="linearGradient926"
       x1="1.1249832"
       y1="-9.2589808"
       x2="16.919081"
       y2="-9.2251434"
       gradientUnits="userSpaceOnUse"
       gradientTransform="translate(-0.92604234,0.47624996)" />
    <linearGradient
       xlink:href="#bevel"
       id="linearGradient4304-3"
       x1="26.929001"
       y1="5.9949999"
       x2="47.120998"
       y2="37.126999"
       gradientUnits="userSpaceOnUse"
       gradientTransform="matrix(0.27781247,0,0,0.27781247,0.74083456,0.740834)" />
  </defs>
  <sodipodi:namedview
     id="base"
     pagecolor="#e2e2e2"
     bordercolor="#666666"
     borderopacity="1.0"
     inkscape:pageopacity="0"
     inkscape:pageshadow="2"
     inkscape:zoom="9.7248729"
     inkscape:cx="32.596827"
     inkscape:cy="40.000523"
     inkscape:document-units="px"
     inkscape:current-layer="layer1"
     inkscape:document-rotation="0"
     showgrid="true"
     units="px"
     inkscape:window-width="1920"
     inkscape:window-height="990"
     inkscape:window-x="0"
     inkscape:window-y="0"
     inkscape:window-maximized="1"
     inkscape:object-paths="true"
     inkscape:snap-grids="true"
     inkscape:snap-intersection-paths="true"
     inkscape:snap-smooth-nodes="true"
     inkscape:snap-midpoints="true"
     inkscape:showpageshadow="2"
     inkscape:pagecheckerboard="0"
     inkscape:deskcolor="#d1d1d1">
    <inkscape:grid
       id="grid2"
       units="px"
       originx="0"
       originy="0"
       spacingx="0.26458333"
       spacingy="0.26458333"
       empcolor="#0099e5"
       empopacity="0.30196078"
       color="#0099e5"
       opacity="0.14902"
       empspacing="5"
       dotted="false"
       gridanglex="30"
       gridanglez="30"
       visible="true" />
  </sodipodi:namedview>
  <metadata
     id="metadata1111">
    <rdf:RDF>
      <cc:Work
         rdf:about="">
        <dc:format>image/svg+xml</dc:format>
        <dc:type
           rdf:resource="http://purl.org/dc/dcmitype/StillImage" />
      </cc:Work>
    </rdf:RDF>
  </metadata>
  <g
     inkscape:label="Layer 1"
     inkscape:groupmode="layer"
     id="layer1">
    <g
       id="g918"
       transform="translate(0.47625037,0.92604234)">
      <rect
         ry="4.8357682"
         rx="4.8357682"
         style="fill:url(#linearGradient926);fill-opacity:1;stroke-width:6.09228"
         x="0.13229237"
         y="-16.457085"
         width="15.875001"
         height="15.875001"
         id="use1056"
         transform="rotate(90)"
         class="ColorScheme-Highlight" />
      <path
         d="m 5.344583,0.13229167 c -2.6384245,0 -4.76249953,2.12407483 -4.76249953,4.76249963 H 5.344583 Z"
         style="opacity:0.15;fill:url(#radialGradient25);fill-opacity:1;stroke-width:6.09228"
         id="path20" />
      <rect
         y="0.13229151"
         x="5.3445826"
         height="1.5875"
         width="6.3500004"
         id="rect20"
         style="opacity:0.15;fill:url(#linearGradient25);fill-opacity:1;stroke-width:4.83577;stroke-linecap:round;stroke-linejoin:round;paint-order:stroke fill markers" />
      <path
         d="m 0.58208347,11.244792 c 0,2.638424 2.12407503,4.762499 4.76249953,4.762499 v -4.762499 z"
         style="opacity:0.15;fill:url(#radialGradient29);fill-opacity:1;stroke-width:6.09228"
         id="use20" />
      <rect
         y="0.5820834"
         x="-11.244792"
         height="1.5875"
         width="6.3500004"
         id="use21"
         style="opacity:0.15;fill:url(#linearGradient34);fill-opacity:1;stroke-width:4.83577;stroke-linecap:round;stroke-linejoin:round;paint-order:stroke fill markers"
         transform="rotate(-90)" />
      <path
         d="m 11.694583,16.007291 c 2.638425,0 4.7625,-2.124074 4.7625,-4.762499 h -4.7625 z"
         style="opacity:0.15;fill:url(#radialGradient30);fill-opacity:1;stroke-width:6.09228"
         id="use22" />
      <rect
         y="-16.007292"
         x="-11.694584"
         height="1.5875"
         width="6.3500004"
         id="use23"
         style="opacity:0.15;fill:url(#linearGradient35);fill-opacity:1;stroke-width:4.83577;stroke-linecap:round;stroke-linejoin:round;paint-order:stroke fill markers"
         transform="scale(-1)" />
      <path
         d="m 16.457083,4.8947913 c 0,-2.6384245 -2.124074,-4.76249963 -4.7625,-4.76249963 V 4.8947913 Z"
         style="opacity:0.15;fill:url(#radialGradient31);fill-opacity:1;stroke-width:6.09228"
         id="use24" />
      <rect
         y="-16.457081"
         x="4.8947906"
         height="1.5875"
         width="6.3500004"
         id="use25"
         style="opacity:0.15;fill:url(#linearGradient36);fill-opacity:1;stroke-width:4.83577;stroke-linecap:round;stroke-linejoin:round;paint-order:stroke fill markers"
         transform="rotate(90)" />
      <path
         d="m 5.3445832,0.13229107 c -2.638425,0 -4.76250035,2.12407473 -4.76250035,4.76249973 H 5.3445832 Z"
         style="opacity:0.5;fill:url(#radialGradient15);fill-opacity:1;stroke-width:6.09228"
         id="path14" />
      <rect
         y="0.1322909"
         x="5.3445826"
         height="1.5875"
         width="6.3499999"
         id="rect14"
         style="opacity:0.5;fill:url(#linearGradient15);fill-opacity:1;stroke-width:4.83577;stroke-linecap:round;stroke-linejoin:round;paint-order:stroke fill markers" />
      <path
         d="m 11.694583,0.13229096 c 2.638425,0 4.7625,2.12407504 4.7625,4.76249734 h -4.7625 z"
         style="opacity:0.5;fill:url(#radialGradient17);fill-opacity:1;stroke-width:6.09228"
         id="use14" />
      <path
         id="path17"
         style="opacity:0.5;fill:url(#radialGradient18);fill-opacity:1;stroke-width:6.09228"
         d="m 5.3445834,16.00729 c -2.638425,0 -4.7625,-2.124075 -4.7625,-4.7625 h 4.7625 z" />
      <rect
         style="opacity:0.5;fill:url(#linearGradient18);fill-opacity:1;stroke-width:4.83577;stroke-linecap:round;stroke-linejoin:round;paint-order:stroke fill markers"
         id="rect17"
         width="6.3499994"
         height="1.5874999"
         x="5.3445826"
         y="-16.007292"
         transform="scale(1,-1)" />
      <path
         id="use17"
         style="opacity:0.5;fill:url(#radialGradient20);fill-opacity:1;stroke-width:6.09228"
         d="m 11.694582,16.007291 c 2.638425,0 4.7625,-2.124075 4.7625,-4.7625 h -4.7625 z" />
    </g>
    <path
       d="m 6.5484418,14.405994 c -0.5423407,0 -0.9789586,0.436779 -0.9789586,0.97934 V 15.875 h 6.8527128 v -0.489666 c 0,-0.542561 -0.436612,-0.97934 -0.978966,-0.97934 z"
       style="opacity:0.5;stroke-width:0.264583"
       id="path30" />
    <path
       d="m 6.5484418,3.1749997 c -1.3514507,0 -2.4474005,1.082163 -2.4474005,2.416995 v 2.448333 c 0.3455741,0.305063 0.5433241,0.766329 0.5438168,1.224167 0,0.457838 -0.1982427,0.9191043 -0.5438168,1.2241683 v 1.468997 l 1.4684419,1.468999 h 6.8527128 l 1.468428,-1.468999 v -1.468997 c -0.345568,-0.305064 -0.543311,-0.7663303 -0.5438,-1.2241683 0,-0.457838 0.198232,-0.919104 0.5438,-1.224167 v -2.448333 c 0,-1.334832 -1.09594,-2.416995 -2.447394,-2.416995 z"
       style="fill:#f9f9f9;stroke-width:0.264583"
       id="path32" />
    <rect
       width="2.9368758"
       height="0.48966682"
       x="6.5484433"
       y="14.895667"
       rx="0.13229167"
       ry="0.13229167"
       style="fill:#f6b44d;fill-opacity:1;fill-rule:evenodd;stroke:none;stroke-width:0;stroke-linecap:round;stroke-linejoin:round;stroke-dasharray:none;paint-order:stroke fill markers"
       id="rect34" />
    <rect
       width="1.4684379"
       height="0.48966682"
       x="9.9747887"
       y="14.895667"
       rx="0.13229167"
       ry="0.13229167"
       style="fill:#f6b44d;fill-opacity:1;fill-rule:evenodd;stroke:none;stroke-width:0;stroke-linecap:round;stroke-linejoin:round;stroke-dasharray:none;paint-order:stroke fill markers"
       id="rect36" />
    <path
       d="m 8.9977938,4.1229947 c -0.1561393,0 -0.3073926,0.01281 -0.4591319,0.03084 a 4.0039411,4.0054734 0 0 0 -0.4434691,0.07637 c -0.046049,0.01065 -0.090622,0.03279 -0.1370809,0.04605 -0.041624,0.01118 -0.082139,0.01815 -0.1224353,0.03083 -0.051979,0.01614 -0.1052759,0.02888 -0.1536728,0.04605 -0.052448,0.01862 -0.1012241,0.04065 -0.1532691,0.06123 -0.1007978,0.04065 -0.1938306,0.08913 -0.2902628,0.137117 -0.034679,0.01815 -0.073392,0.0279 -0.1076157,0.04654 -0.1125366,0.05875 -0.2153759,0.128774 -0.3206119,0.198806 -0.040059,0.02691 -0.083158,0.04799 -0.122378,0.07587 -0.015935,0.01162 -0.029828,0.01862 -0.046062,0.03083 -0.046062,0.03475 -0.09343,0.06955 -0.1375968,0.10772 -0.05246,0.0431 -0.1027115,0.0911 -0.1532705,0.137117 -0.015525,0.01462 -0.030307,0.03133 -0.046062,0.04605 l -0.014965,0.0151 c -0.00702,0.008 -0.00679,0.02303 -0.014976,0.03084 -0.1027471,0.09987 -0.2153726,0.195376 -0.3059312,0.306042 -0.0017,0.0049 0.00176,0.01238 0,0.01463 -0.088551,0.107717 -0.1678903,0.21986 -0.2447403,0.33738 -0.0099,0.01572 -0.020512,0.02937 -0.03077,0.04605 -0.00679,0.01162 -0.023041,0.01815 -0.030785,0.03084 -0.029249,0.04799 -0.049411,0.102332 -0.076441,0.152774 -0.00895,0.01614 -0.022072,0.02986 -0.030785,0.04605 -0.036773,0.0715 -0.073412,0.142003 -0.1076613,0.214473 -0.00134,0.0049 0.00175,0.01119 0,0.0151 a 3.9285613,3.9300647 0 0 0 -0.152848,0.381935 c -0.0093,0.02642 -0.022072,0.05091 -0.030785,0.07686 -0.00134,0.0049 0.00134,0.01065 0,0.01463 -0.0096,0.03083 -0.021572,0.06172 -0.030787,0.09255 -0.035667,0.125348 -0.068455,0.2512 -0.092009,0.381942 -0.016453,0.09404 -0.036279,0.194397 -0.046042,0.290862 a 3.966741,3.9682591 0 0 0 -0.014969,0.398096 c 0,0.197336 0.017293,0.391733 0.046062,0.581234 0.00209,0.02008 -0.00281,0.04164 0,0.06121 0.021501,0.130243 0.057712,0.257075 0.091965,0.38194 0.012723,0.04751 0.03136,0.09158 0.046062,0.138093 0.019498,0.06318 0.03859,0.121924 0.061201,0.183133 a 3.8668878,3.8683676 0 0 0 0.1224773,0.306041 c 0.024366,0.05195 0.049891,0.102789 0.076451,0.153264 A 3.9158345,3.9173331 0 0 0 5.7693261,10.25876 c 0.00702,0.01147 0.022551,0.01911 0.030799,0.03079 0.096913,0.137125 0.192861,0.274214 0.3059294,0.397615 0.019486,0.02148 0.041159,0.04009 0.061214,0.06131 0.019487,0.02047 0.041199,0.04123 0.061212,0.06131 0.1047771,0.104777 0.2202614,0.198319 0.3367646,0.290861 0.149758,0.119529 0.3078785,0.224757 0.4742997,0.320737 0.0046,0.0031 0.0093,0.01162 0.014543,0.01497 0.026469,0.01452 0.050936,0.03193 0.07682,0.04614 0.154107,0.07654 0.3382306,0.159131 0.4586459,0.214473 0.053803,0.02046 0.1131188,0.02794 0.1683486,0.04612 0.025908,0.0088 0.05045,0.02261 0.076425,0.03073 0.066643,0.02006 0.1311687,0.04405 0.1987303,0.0613 l 0.061243,0.01513 c 0.143004,0.0341 0.2946707,0.05915 0.4434703,0.07656 0.1517369,0.01774 0.3024987,0.03074 0.4591319,0.03074 0.1664294,0 0.3279518,-0.0094 0.489476,-0.03074 0.1786616,-0.02372 0.3328516,-0.06083 0.4894846,-0.09204 a 3.8712925,3.872774 0 0 0 2.0646896,-1.346152 c 0.01367,-0.01729 0.03285,-0.02844 0.04612,-0.04614 0.0035,-0.0058 0.0097,-0.0089 0.01504,-0.01465 0.0063,-0.0087 0.0084,-0.02216 0.01504,-0.03143 a 3.8982142,3.899706 0 0 0 0.657513,-1.3764153 c 0.02751,-0.106245 0.05771,-0.211536 0.07647,-0.32122 0.0018,-0.01464 -0.0018,-0.03084 0,-0.04605 0.0021,-0.0196 0.01178,-0.0387 0.01504,-0.06121 0.0021,-0.02107 0.01308,-0.04017 0.01502,-0.06122 h -0.01456 c 0.02094,-0.161106 0.04545,-0.322692 0.04545,-0.489668 0,-0.269807 -0.02434,-0.540103 -0.07647,-0.795219 -0.0032,-0.02108 -0.0097,-0.04017 -0.01456,-0.06121 -0.02309,-0.101351 -0.06127,-0.206639 -0.09245,-0.305552 -10e-4,-0.0049 10e-4,-0.01065 0,-0.0151 a 1.6833196,1.6839638 0 0 0 -0.01454,-0.04605 c -0.01946,-0.05875 -0.04005,-0.126326 -0.06178,-0.183626 -0.005,-0.01572 -0.0084,-0.03133 -0.01455,-0.04605 -0.02148,-0.05385 -0.05326,-0.100857 -0.07682,-0.153266 -9.76e-4,0 9.78e-4,-0.01281 0,-0.0151 -0.0119,-0.02642 -0.03337,-0.05042 -0.04613,-0.07637 a 3.824302,3.8257655 0 0 0 -0.153453,-0.290827 c -0.02851,-0.04799 -0.04613,-0.10576 -0.07647,-0.152777 -0.0112,-0.01768 -0.03372,-0.02839 -0.04613,-0.04605 -0.03286,-0.04896 -0.07196,-0.0906 -0.107177,-0.137604 -0.03909,-0.04896 -0.06843,-0.10576 -0.10718,-0.153267 -0.0018,-0.0049 0.0018,-0.01238 0,-0.0151 -0.08425,-0.102823 -0.18111,-0.197339 -0.275581,-0.290864 -0.04549,-0.04506 -0.09016,-0.09502 -0.13709,-0.137117 -0.01428,-0.01281 -0.03241,-0.01911 -0.04655,-0.03133 a 3.9799567,3.9814798 0 0 0 -0.320841,-0.244823 c -0.02699,-0.01815 -0.04889,-0.04262 -0.07646,-0.06073 -0.03425,-0.02254 -0.07233,-0.03967 -0.107192,-0.06119 -0.0656,-0.04115 -0.129676,-0.08522 -0.198205,-0.122416 a 3.9613573,3.9628733 0 0 0 -0.183382,-0.092082 3.8668878,3.8683676 0 0 0 -0.3211,-0.137598 3.7440275,3.7454603 0 0 0 -0.3979443,-0.122416 3.7968924,3.7983454 0 0 0 -0.9637866,-0.122415 m 0,0.489667 a 3.4376139,3.4389294 0 0 1 0.688205,0.07687 h 0.014614 c 0.081719,0.01719 0.1659395,0.0387 0.2447394,0.06122 0.047512,0.01335 0.091978,0.03084 0.1380405,0.04605 0.08421,0.0279 0.163478,0.05728 0.244737,0.09207 0.09504,0.03919 0.185507,0.07442 0.275577,0.122411 l -0.04607,0.01462 a 0.15614395,0.15620371 0 0 0 -0.0613,0.06121 c -0.0091,0.02351 0.0022,0.0563 0,0.09207 0.01861,0.0084 0.02935,0.04408 0.0613,0.06122 0.01248,0.0067 0.01951,-0.0049 0.03076,0 0.0186,0.01009 0.03424,0.04261 0.03078,0.06119 -0.005,0.02691 -0.0431,0.01065 -0.06128,0.03084 0.0024,0.0382 -0.02099,0.05139 -0.03078,0.07637 0.0056,0.01614 0.02793,0.01162 0.03078,0.03084 -0.0028,0.02108 -0.03915,0.024 -0.03078,0.04605 0.03517,0.0274 0.07337,-0.01065 0.107195,-0.0151 0.07287,-0.0097 0.13852,0.0196 0.183556,-0.0151 -0.0054,-0.03475 0.0489,-0.04506 0.04609,-0.07637 -0.0023,-0.02351 -0.04403,-0.02986 -0.06123,-0.04605 -0.0092,-0.0089 -0.0195,-0.02888 -0.03079,-0.04605 -0.01286,-0.0196 -0.03139,-0.04262 -0.04608,-0.06122 -0.01951,-0.02545 -0.06127,-0.05728 -0.06127,-0.07638 0,-0.02206 0.02541,-0.03083 0.03078,-0.06122 -0.0055,-0.0279 -0.05733,0 -0.06128,-0.03083 a 0.07929562,0.07932597 0 0 1 0.0146,-0.03083 c 0.07335,0.04017 0.146353,0.08767 0.214885,0.137605 l 0.0461,0.03083 c 0.05284,0.03968 0.10128,0.08324 0.153199,0.122411 -0.03282,0.0057 -0.0494,0.04408 -0.07644,0.07637 a 0.22711848,0.2272054 0 0 1 -0.07643,0.06122 c -0.01389,0.0057 -0.03335,-0.008 -0.0461,0 -0.0182,0.01238 -0.02491,0.04702 -0.04611,0.06122 -0.0151,0.0097 -0.06077,0.04605 -0.07644,0.04605 -0.01862,0 -0.04797,-0.0196 -0.06127,-0.0151 -0.0195,0.0063 -0.008,0.03772 -0.03079,0.04605 -0.0431,0.01464 -0.122363,-0.03426 -0.137551,0.03084 0.0186,0.03722 0.07496,0.02448 0.107202,0.04605 a 0.23250271,0.23259169 0 0 1 0.06126,0.09207 0.31522465,0.31534528 0 0 1 0,0.107232 c -0.02004,0.05188 -0.07827,0.04751 -0.137559,0.04605 -0.0165,-4.9e-4 -0.03077,0 -0.04611,0 -0.101301,-0.0067 -0.199218,-0.04164 -0.244738,0.03084 0.0029,0.05532 0.01242,0.08962 0,0.137117 -0.0084,0.03524 -0.04749,0.06121 -0.04612,0.09207 9.79e-4,0.01572 0.02699,0.04017 0.03076,0.06122 0.0022,0.01119 -0.0052,0.03574 0,0.04605 0.01654,0.03231 0.06221,-0.0049 0.09197,0 0.02886,0.0049 0.06171,0.05924 0.06127,0.09207 a 0.16935979,0.1694246 0 0 1 -0.03079,0.07637 c -0.02841,0.04408 -0.08171,0.03772 -0.122364,0.0612 -0.03424,0.01911 -0.04118,0.05825 -0.06125,0.09207 -0.02152,0.03622 -0.0396,0.05385 -0.03075,0.107232 a 0.23739754,0.23748839 0 0 1 -0.122175,0.122395 c -0.01821,0.0084 -0.044953,0.01911 -0.061257,0.03084 a 0.30837205,0.30849006 0 0 0 -0.046102,0.04604 c -0.023081,0.02545 -0.048881,0.04164 -0.061237,0.06122 -0.009,0.01462 -0.0047,0.04114 -0.015054,0.0612 -0.014604,0.02741 -0.043083,0.04896 -0.061257,0.07637 -0.0078,0.01281 -0.020982,0.02888 -0.030818,0.04605 -0.020522,0.03772 -0.049381,0.07344 -0.046092,0.106743 0.0032,0.03231 0.043553,0.03328 0.046092,0.06122 0.0018,0.01571 -0.016054,0.02937 -0.015054,0.04605 0,0.02497 0.013405,0.04213 0.014614,0.06122 0.0046,0.04896 -0.020982,0.05874 -0.030278,0.09207 -0.0046,0.01572 0.0036,0.03328 0,0.04605 -0.0074,0.02448 -0.045493,0.04799 -0.046112,0.07637 -4.888e-4,0.02059 0.028869,0.04751 0.030738,0.07638 9.806e-4,0.01959 -0.018643,0.0279 -0.015054,0.04605 0.0063,0.03573 0.07928,0.07931 0.107191,0.107232 0.036776,0.03671 0.075911,0.06808 0.091975,0.10723 0.013405,0.03279 0.019552,0.08225 0.046092,0.107231 0.019103,0.01815 0.05193,0.02642 0.076391,0.04605 0.02308,0.01768 0.05241,0.02691 0.07637,0.04605 0.03913,0.03132 0.08963,0.09647 0.15321,0.09207 0.03333,-0.0049 0.06946,-0.02448 0.107198,-0.03084 0.03862,-0.0067 0.08316,-0.01959 0.122364,-0.0151 0.02936,0.0049 0.06076,0.03231 0.09198,0.03083 0.03282,0 0.07007,-0.02986 0.107192,-0.04605 0.06405,-0.02789 0.165449,-0.0749 0.259422,-0.06122 0.07157,0.0097 0.07336,0.106249 0.122365,0.137117 0.05771,0.0049 0.107669,-0.02594 0.153209,-0.01463 0.03421,0.0084 0.07337,0.06465 0.07645,0.09207 0.0025,0.0284 -0.02637,0.05875 -0.03078,0.07637 -0.0085,0.03821 -0.008,0.08274 -0.01456,0.106742 -0.0051,0.01862 -0.01606,0.04212 -0.01565,0.06122 a 0.26431886,0.26442001 0 0 0 0.04609,0.09207 c 0.02148,0.02739 0.05043,0.04702 0.07646,0.07637 a 0.88106295,0.88140012 0 0 1 0.107652,0.183627 c 0.0071,0.01815 -0.0074,0.03772 0,0.06122 -0.01456,0.109692 -0.05099,0.184603 -0.122353,0.30604 -0.03421,0.03919 -0.07776,0.07344 -0.07682,0.122414 -0.0019,0.117529 0.06667,0.191952 0.06122,0.305546 -0.01131,0.152781 0.0112,0.163061 0,0.2448323 0.05146,0.02585 0.01505,0.1141 0,0.168451 -0.0221,0.06461 -0.04889,0.07938 -0.06122,0.122413 0.03467,0.01461 0.08365,0.0087 0.122376,0 0,0 0.04707,0.195863 0.04613,0.198807 A 3.4278244,3.4291362 0 0 1 9.975789,11.33462 c -0.269217,0.06517 -0.3490035,0.06517 -0.4747973,0.09205 a 3.1243472,3.1255428 0 0 1 -0.504164,0.04612 c -0.1189622,0 -0.2364181,-0.0031 -0.3519354,-0.01493 -0.089095,-0.0089 -0.1732715,-0.0303 -0.2594255,-0.04611 A 3.5095679,3.510911 0 0 1 8.3086198,11.39679 C 8.2289468,11.36978 8.1374393,11.35364 8.0640275,11.33551 A 3.459151,3.4604748 0 0 1 7.8193226,11.25898 c 0.00568,-0.0066 0.013411,-0.0042 0.015047,-0.01495 0.00427,-0.01946 9.795e-4,-0.03028 0,-0.06131 0.00658,-0.03192 0.039116,-0.02853 0.046057,-0.06129 -0.013861,-0.02359 -0.040642,-0.01859 -0.061201,-0.03084 a 0.06510082,0.06512574 0 0 1 -0.030777,-0.06131 c 0.034146,-0.01372 0.097869,0.03242 0.1223957,-0.01495 0.011585,-0.02259 -0.016455,-0.06845 0,-0.09204 0.010724,-0.01452 0.083189,-0.02699 0.1076045,-0.03076 0.034172,-0.0055 0.071957,-0.0039 0.091509,-0.01452 a 0.10915379,0.10919557 0 0 0 0.046057,-0.09245 c -0.00178,-0.01913 -0.015964,-0.02886 -0.030785,-0.04613 -0.011563,-0.01384 -0.00569,-0.03242 -0.01459,-0.04613 -0.015661,-0.02309 -0.039063,-0.02849 -0.04651,-0.06131 0.047033,-0.0088 0.1154879,0.04983 0.1835454,0.03079 0.032331,-0.0088 0.076836,-0.092 0.091986,-0.122424 0.00469,-0.0087 -0.00479,-0.01952 0,-0.03071 0.00565,-0.01267 0.029324,-0.02399 0.030808,-0.03074 0.00481,-0.01771 -0.00385,-0.03424 0,-0.04616 0.011442,-0.03336 0.041661,-0.03679 0.061226,-0.06131 0.014272,-0.01863 0.031839,-0.04262 0.046053,-0.06126 0.014852,-0.01955 0.020546,-0.04354 0.030803,-0.06131 0.00967,-0.05918 -0.029361,-0.100388 -0.014423,-0.152779 0.014882,-0.0587 0.095463,-0.08084 0.1527125,-0.1077311 0.019588,-0.0083 0.045046,-0.02446 0.061203,-0.03029 0.039177,-0.01387 0.086162,-0.01773 0.122364,-0.03078 0.061191,-0.02259 0.07684,-0.08175 0.1071902,-0.137609 a 0.29907189,0.29918634 0 0 0 0.030828,-0.07641 c 0.00274,-0.01726 -0.00351,-0.02587 0,-0.04612 0.0031,-0.01958 0.0097,-0.03964 0.01509,-0.06125 a 0.53842728,0.53863333 0 0 0 0.015098,-0.10726 c 0,-0.02591 -0.014244,-0.03821 -0.015091,-0.06123 -0.00459,-0.08471 0.029846,-0.106737 0.061198,-0.153266 0.015711,-0.02301 0.019589,-0.04406 0.030827,-0.06121 0.0529,-0.07812 0.144453,-0.10996 0.1371125,-0.22894 -0.00186,-0.03917 -0.016565,-0.125326 -0.045518,-0.137591 -0.016578,-0.0075 -0.052361,-0.0052 -0.076345,-0.0151 -0.077326,-0.0293 -0.1341152,-0.132141 -0.2143873,-0.137539 -0.017182,0 -0.026899,0.01463 -0.046034,0.01463 -0.031811,0 -0.071962,-0.02545 -0.1071903,-0.03035 -0.022532,-0.0049 -0.063157,0.0063 -0.076341,0 -0.02058,-0.0097 -0.014243,-0.04993 -0.030822,-0.06122 -0.01334,-0.0089 -0.041124,-0.0076 -0.061184,-0.0151 -0.032296,-0.01238 -0.0548,-0.0274 -0.092034,-0.03083 -0.011071,-4.9e-4 -0.032808,0 -0.046057,0 -0.020519,-0.0049 -0.042128,-0.0196 -0.061225,-0.03083 a 0.10181183,0.1018508 0 0 1 -0.046048,-0.04608 c 0.021571,-0.07053 -0.047034,-0.08176 -0.061235,-0.122411 -0.00632,-0.01911 0.00579,-0.04408 0,-0.06121 -0.00796,-0.02448 -0.034204,-0.04114 -0.061234,-0.06122 -0.047518,-0.03622 -0.08526,-0.06808 -0.1532402,-0.07637 -0.029285,-0.0049 -0.071011,0 -0.1071685,0 a 0.17963891,0.17970766 0 0 1 -0.10708,-0.06112 c -0.027431,-0.03183 -0.037233,-0.06122 -0.061225,-0.07637 -0.023041,-0.01462 -0.060754,-0.01462 -0.076434,-0.03084 -0.00563,-0.0067 -0.00774,-0.01463 -0.014476,-0.03083 -0.011187,-0.02351 -0.030301,-0.04799 -0.015551,-0.07637 -0.025916,-0.01335 -0.017008,0.03524 -0.046041,0.03084 -0.025443,-0.03622 -0.048942,-0.0563 -0.1071502,-0.04605 -0.026509,0.0049 -0.045492,0.02937 -0.076451,0.03083 -0.02543,0 -0.043105,-0.02594 -0.076451,-0.03083 -0.02542,-0.0049 -0.058671,0.01768 -0.076441,0.0151 -0.027933,-0.0049 -0.035666,-0.02888 -0.06123,-0.04605 -0.018713,-0.01238 -0.050965,-0.04654 -0.061204,-0.04605 -0.032801,0 -0.06179,0.07005 -0.1071362,0.04605 -0.022072,-0.02789 0.041653,-0.03426 0.014965,-0.06122 -0.019484,-0.0196 -0.029249,0.0049 -0.046052,0.0151 a 0.32599328,0.32611803 0 0 1 -0.061228,0.03084 c -0.044969,0.01659 -0.071962,0.01238 -0.1071386,0.03083 -0.032369,0.01659 -0.042684,0.04311 -0.061243,0.07637 -0.014544,0.0274 -0.038589,0.0749 -0.061214,0.07637 -0.027454,0 -0.051417,-0.03524 -0.075876,-0.04605 -0.074914,-0.03231 -0.1213935,0.01463 -0.1835509,0.01509 -0.057713,0 -0.1404453,-0.08323 -0.1375971,-0.137116 0.0015,-0.03279 0.026494,-0.08127 0.030787,-0.122411 0.00209,-0.03231 0.030291,-0.0622 0.030798,-0.09207 0,-0.03968 -0.066136,-0.07199 -0.092005,-0.07637 -0.061229,-0.01119 -0.1442949,0.02937 -0.2143961,0 -0.012972,-0.02206 0.023021,-0.03968 0.030771,-0.06122 0.00346,-0.01238 -0.00389,-0.01659 0,-0.03083 0.00701,-0.02058 0.036306,-0.03919 0.046062,-0.06121 0.00679,-0.01659 0.00735,-0.04017 0.014544,-0.06122 0.00895,-0.02448 0.029269,-0.04457 0.031348,-0.06123 0.0017,-0.02205 -0.012972,-0.04654 -0.030812,-0.0612 -0.054294,0.0049 -0.091459,0 -0.1224021,0.0151 -0.070513,0.03231 -0.051911,0.130243 -0.1224023,0.153266 -0.024368,0.008 -0.065175,0.0097 -0.091989,0.01463 -0.023021,0.0049 -0.05246,0.01614 -0.076451,0.01571 a 0.17327575,0.17334206 0 0 1 -0.091983,-0.04602 0.08516945,0.08520205 0 0 1 -0.014966,-0.03084 c 9.778e-4,-0.0049 -9.782e-4,-0.01003 0,-0.0151 0.022551,-0.109193 0.045411,-0.217413 0.076451,-0.321222 0.00134,-0.0049 -0.00134,-0.01065 0,-0.01463 0.020482,-0.06857 0.050401,-0.132203 0.076441,-0.199295 0.0051,-0.0049 0.0093,-0.01119 0.014544,-0.01463 0.038235,-0.02642 0.076814,-0.05875 0.1223771,-0.06122 0.028469,0 0.080816,0.0097 0.1076455,0.01463 0.024364,0.0049 0.040062,0.02937 0.061231,0.03132 0.060269,0.0049 0.072912,-0.05042 0.1223529,-0.07637 0.050936,0.0076 0.076451,-0.0049 0.1224316,0 0.031393,0.0049 0.067467,0.04408 0.091975,0.04605 0.020526,0 0.0259,-0.03426 0.046062,-0.03083 0.019486,0.0049 0.058173,0.05287 0.061196,0.07637 0.00271,0.02937 -0.023602,0.05973 -0.014977,0.09158 0.030786,0.03132 0.092965,0.0274 0.1371171,0.04605 0.029239,-0.02351 0.00379,-0.05776 0,-0.09158 -4.908e-4,-0.0151 0.00176,-0.03231 0,-0.04605 -0.00171,-0.02351 -0.014544,-0.04114 -0.014544,-0.06121 -4.895e-4,-0.09305 0.075435,-0.146896 0.1371315,-0.183626 0.027469,-0.01614 0.052843,-0.03426 0.076441,-0.04605 0.032835,-0.01659 0.048931,-0.03083 0.076451,-0.04605 0.049391,-0.0279 0.098933,-0.04507 0.1375967,-0.07637 0.01769,-0.04213 -0.0015,-0.09599 0,-0.137605 0.01769,-0.01065 0.026977,0 0.046062,0 0.029828,-0.0063 0.044025,-0.04457 0.061231,-0.06122 0.0096,-0.0097 0.034175,-0.02108 0.046052,-0.03083 0.029814,-0.02351 0.035177,-0.05091 0.061214,-0.06121 0.0096,-0.0049 0.031391,-0.0084 0.046062,-0.0151 0.019485,-0.0051 0.044967,-0.0196 0.076451,-0.03084 0.020514,-0.0067 0.068478,-0.0076 0.076451,-0.0151 0.00961,-0.0097 -0.00209,-0.04654 0,-0.0612 0.015528,-0.07345 0.1331705,-0.08225 0.1987256,-0.107232 0.046045,-0.01767 0.087056,-0.05581 0.1375807,-0.04605 -0.00961,0.03524 -0.053796,0.01862 -0.046043,0.06122 0.010841,0.05924 0.086195,-0.0063 0.1076407,-0.01464 0.039097,-0.01719 0.1154775,-0.02741 0.1678878,-0.04654 0.046059,-0.01659 0.1199293,-0.03919 0.076395,-0.09207 -0.036241,0 -0.045001,0.03231 -0.076395,0.04605 -0.021554,0.0049 -0.027444,-0.01335 -0.046062,-0.01463 -0.017296,0 -0.027929,0.01815 -0.046063,0.01463 -0.017657,-0.0049 -0.043088,-0.04017 -0.046063,-0.06121 -0.00641,-0.05386 0.053788,-0.06661 0.076389,-0.107232 -0.01458,-0.04893 -0.081225,-0.01159 -0.1223287,-0.0308 a 0.07244284,0.07247057 0 0 1 0.061231,-0.06072 c 0.027922,-0.0049 0.090642,0.0049 0.1076529,0.01464 0.00947,0.0089 0,0.03279 0.014626,0.04654 0.016465,0.01464 0.03963,0.0049 0.061215,0 0.00685,-0.03722 -0.051966,-0.02107 -0.046058,-0.04605 0.043994,-0.02937 0.1296873,-0.008 0.1835522,-0.0151 0.030783,-0.0049 0.0641,-0.03034 0.091991,-0.04605 0.026462,-0.01463 0.04893,-0.03968 0.07637,-0.01511 0.00771,0.02642 -0.015335,0.03231 -0.030837,0.04605 a 1.0680439,1.0684527 0 0 0 -0.1370563,0.152773 c 0.023519,0.02351 0.066143,0.01065 0.106665,0.0151 0.015344,0 0.029333,0.01238 0.046055,0.0151 0.019573,0.0049 0.046058,-0.0057 0.061217,0 0.027421,0.0067 0.034241,0.04605 0.061196,0.04605 0.044559,0 0.040634,-0.06121 0.015096,-0.09207 0.00797,-0.03083 0.025928,-0.03919 0.015096,-0.06121 -0.019588,-0.04017 -0.1027888,0.0067 -0.1071958,-0.04605 -0.00209,-0.03279 0.034241,-0.03673 0.046047,-0.06121 -0.00488,-0.06269 0.051872,-0.06562 0.046033,-0.122411 -0.00312,-0.02303 -0.029351,-0.02351 -0.046033,-0.04556 -0.0083,-0.01119 -0.00488,-0.03722 -0.014423,-0.04605 -0.034242,-0.02937 -0.1027726,-0.02157 -0.1076531,-0.07637 -0.00185,-0.03231 0.00471,-0.05631 0,-0.09207 -0.00451,-0.03279 -0.032341,-0.131219 -0.061215,-0.137604 -0.03675,-0.008 -0.063111,0.05581 -0.1071545,0.07637 a 0.19040753,0.1904804 0 0 1 -0.091969,0.01463 c -0.015661,-0.0049 -0.043544,-0.0151 -0.046047,-0.04556 -0.00282,-0.03426 0.024445,-0.04017 0.030808,-0.07638 -0.00462,-0.02157 -0.024445,-0.01463 -0.046059,-0.03083 -0.023983,-0.01815 -0.044031,-0.05679 -0.076388,-0.06122 -0.015961,0 -0.045574,0.01425 -0.06123,0.01511 -0.029286,0 -0.051926,-0.0076 -0.076412,-0.01511 0.00989,-0.0049 0.02001,-0.01162 0.030776,-0.0151 0.059677,-0.02058 0.122394,-0.02888 0.1835482,-0.04605 0.00998,-0.0049 0.020014,-0.01239 0.030807,-0.0151 0.015157,0.01613 0.027421,0.05042 0.046057,0.06122 0.012483,0.0067 0.030801,-0.0049 0.046055,0 0.047976,0.01463 0.08526,0.04163 0.137585,0.03083 0.017689,-0.03182 -0.036258,-0.03624 -0.014393,-0.06122 0.034685,0.0049 0.064082,0.0196 0.091533,0.03084 0.037717,-0.0274 0.062665,-0.03231 0.061212,-0.07637 0,-0.02254 -0.0303,-0.03083 -0.046042,-0.04605 0.030792,-0.0051 0.060741,-0.01065 0.092017,-0.0151 0.0021,0.0084 0.010028,0.01463 0.014931,0.0151 0.018606,0.0049 0.080755,-0.02497 0.092032,-0.03083 0.00182,0 -0.00308,-0.01334 0,-0.0151 0.1238276,-0.01333 0.2550224,-0.0151 0.3822879,-0.0151 m -1.2238371,0.229406 c -0.010854,0.02107 -0.02302,0.0387 -0.046049,0.04605 0.00483,0.03182 -0.041148,0.05139 -0.045985,0.07638 -0.00215,0.01719 -9.801e-4,0.04605 0,0.0612 0.00967,0.156199 -0.1224119,0.233081 -0.2755804,0.229164 -0.029239,0.02839 -0.013845,0.08323 -0.030798,0.122411 -0.013447,0.03279 -0.058687,0.06416 -0.091991,0.0612 -0.024368,0 -0.061231,-0.0387 -0.061231,-0.0612 0,-0.0279 0.039639,-0.04408 0.014965,-0.07636 0.00271,-0.02157 0.051911,-0.04212 0.046052,-0.07637 -0.0046,-0.03624 -0.047022,-0.0094 -0.092008,-0.01463 a 0.45178946,0.45196236 0 0 1 -0.091978,-0.03133 c 0.04939,-0.0328 0.1004437,-0.06171 0.1532693,-0.09207 0.04605,-0.02739 0.090662,-0.05139 0.1375958,-0.07636 0.123422,-0.06171 0.2555208,-0.119008 0.3822926,-0.167961 m 2.6309092,0.367251 c -0.01341,0 -0.01952,0.0084 -0.03076,0.01463 -0.02489,0.0151 -0.02637,0.03919 -0.0461,0.04605 -0.02644,0.01016 -0.05731,0.0049 -0.06129,0.03083 -0.0025,0.02008 0.01606,0.02691 0.01459,0.04605 -0.009,0.02448 -0.02539,0.03231 -0.03031,0.06121 0.03332,0.05385 0.11211,-0.0049 0.153206,-0.01463 0.01862,-0.0058 0.03566,0 0.04611,-0.01572 0.01108,-0.01719 0.0063,-0.05139 0.01458,-0.07637 0.0091,-0.02741 0.03425,-0.02107 0.03138,-0.04605 -0.0024,-0.02448 -0.05192,-0.04994 -0.09198,-0.04605 m -3.579078,0.381775 c 0.029269,0.0084 0.095953,0.09502 0.030858,0.122411 a 0.45570533,0.45587973 0 0 1 -0.1076731,0.01571 c -0.022072,-0.0049 -0.037772,-0.04212 -0.060777,-0.04605 -0.04497,-0.008 -0.1067005,0.04896 -0.1375969,0 0.00699,-0.02937 0.042133,-0.02108 0.076451,-0.03083 0.061166,-0.01659 0.1458588,-0.0749 0.1987254,-0.0612 m 0.1224417,0.153264 c 0.014544,0 0.02702,0.02888 0.045516,0.03084 0.017293,0 0.035175,-0.01768 0.046042,-0.0151 0.027468,0.0076 0.041187,0.0563 0.014977,0.07637 -0.021504,0 -0.029249,-0.01815 -0.046042,-0.0151 -0.044025,0.008 -0.058671,0.09453 -0.091458,0.09207 -0.031374,-0.0049 -0.047032,-0.06905 -0.014964,-0.09207 9.797e-4,-0.0196 -0.015936,-0.02642 -0.014977,-0.04605 0.0096,-0.01238 0.035177,-0.03231 0.060764,-0.03083 m -0.1527425,0.01464 c 0.0093,9.79e-4 0.010977,0 0.014545,0 -0.00305,0.03524 -0.018713,0.04506 -0.04545,0.06171 a 0.18502319,0.185094 0 0 0 -0.092007,0.122417 c -0.00379,0.01768 -0.054296,0.06513 -0.076441,0.06072 -0.051911,-0.01065 0.018723,-0.10772 0.030815,-0.122411 0.012972,-0.01572 0.030306,-0.02691 0.046062,-0.04556 0.014545,-0.01815 0.015936,-0.05139 0.030773,-0.06122 a 0.21586046,0.21594307 0 0 1 0.091979,-0.01511 m 4.6490714,0.01463 c 0.02363,0.0067 0.02851,0.03426 0.04609,0.04654 0.01337,0.0089 0.03141,0.0057 0.04613,0.01462 0.01727,0.01119 0.02646,0.02937 0.04613,0.04654 0.02749,0.02303 0.06843,0.0431 0.107676,0.0612 0.0068,0.0049 0.02094,0.01119 0.03029,0.01463 0.02702,0.03524 0.051,0.07102 0.07647,0.107719 0.0021,0.01959 0.005,0.04799 0.01504,0.06072 0.02539,0.03475 0.06402,0.06465 0.09197,0.107718 0,0.04017 0.01776,0.06465 0.04612,0.07587 0.03567,0.06073 0.07338,0.121439 0.107666,0.183627 0.01361,0.02839 0.01649,0.06318 0.03029,0.09207 -0.009,0 -0.02095,0.0049 -0.03077,0 -0.03239,-0.05679 -0.200198,-0.06808 -0.214387,0.01463 -0.0054,0.03723 0.02433,0.0862 -0.03077,0.09256 -0.03416,0.0049 -0.07498,-0.03573 -0.122343,-0.04605 -0.01946,-0.0049 -0.04613,0.0067 -0.06127,0 -0.03567,-0.01238 -0.03029,-0.05483 -0.0613,-0.07638 a 0.26774526,0.26784772 0 0 0 -0.09195,-0.03084 h -0.04613 c -0.02208,-0.0049 -0.05767,-0.0049 -0.07643,-0.01511 -0.01768,-0.01065 -0.05683,-0.03035 -0.06129,-0.04605 -0.0064,-0.02448 0.04401,-0.05581 0.0461,-0.07637 9.79e-4,-0.01464 -0.01079,-0.02206 -0.01455,-0.04605 -0.0021,-0.01425 0.0019,-0.03624 0,-0.04605 -0.0035,-0.01659 -0.03518,-0.03034 -0.06173,-0.03084 -0.02359,0 -0.04115,0.01463 -0.06124,0.0151 -0.02885,4.9e-4 -0.08658,-0.01815 -0.122352,-0.01463 -0.02098,0 -0.04055,0.01335 -0.06077,0.01463 -0.05679,0.0049 -0.09348,-0.0049 -0.137553,0 a 0.37200434,0.3721467 0 0 0 -0.122366,0.03084 c -0.0151,0.0067 -0.02643,0.02107 -0.04608,0.03083 a 0.30298772,0.30310367 0 0 1 -0.03077,0.0151 c -0.01861,0.0084 -0.04402,0.02594 -0.06127,0.03083 -0.0254,0.0063 -0.06076,0 -0.107681,0 -0.03282,0 -0.09108,-0.0067 -0.09147,-0.04605 -4.92e-4,-0.06021 0.11114,-0.03524 0.168382,-0.04605 0.02157,-0.0049 0.03571,-0.03083 0.06127,-0.04605 0.01252,-0.0076 0.01911,-0.0076 0.03077,-0.01464 0.0195,-0.01425 0.05824,-0.04605 0.06127,-0.06171 0.0023,-0.01462 -0.01722,-0.03525 -0.0151,-0.04605 0.0021,-0.01377 0.02794,-0.02839 0.04609,-0.04605 0.02747,-0.02691 0.04259,-0.05875 0.07644,-0.07637 0.02306,-0.01238 0.06614,-0.01162 0.07642,-0.03083 0.002,-0.02108 -4.86e-4,-0.02691 0,-0.04605 0.01427,-0.01334 0.01864,-0.02839 0.03076,-0.03083 0.03517,-0.008 0.06613,0.01719 0.107181,0.01511 a 0.14194902,0.14200335 0 0 0 0.06077,-0.01464 c 0.01605,-0.01119 0.0303,-0.02254 0.04609,-0.03132 0.01724,-0.0089 0.02491,-0.02888 0.0461,-0.03083 0.05142,-0.0049 0.08369,0.06071 0.107683,0.09207 0.01947,0.02594 0.07442,0.05875 0.106689,0.07637 0.01822,0.01014 0.0412,0.02206 0.06129,0.03084 0.04269,0.01959 0.120866,0.08079 0.122377,0.122411 9.81e-4,0.02058 -0.01865,0.02642 -0.01456,0.04605 0.03192,0.0051 0.05966,-0.02888 0.06079,-0.06122 4.88e-4,-0.01959 -0.01912,-0.02448 -0.01456,-0.04605 0.01456,-0.03231 0.07196,-0.0049 0.09142,-0.01463 -0.0024,-0.03723 -0.06079,-0.04262 -0.09194,-0.06171 -0.01651,-0.0097 -0.02851,-0.02351 -0.04613,-0.03084 -0.02539,-0.0097 -0.05685,-0.01571 -0.07646,-0.03083 -0.01867,-0.01425 -0.02797,-0.03919 -0.04613,-0.06122 -0.02642,-0.03132 -0.07725,-0.03573 -0.06129,-0.107231 0.0071,-0.01065 0.01822,-0.03377 0.03077,-0.03083 M 7.132158,5.8837797 H 7.1782 c 0.01645,0 0.039124,-0.0094 0.046062,0 -0.010261,0.04262 -0.1038049,0.03034 -0.1375972,0.01463 0.0015,-0.01614 0.024363,-0.01334 0.046062,-0.01463 m -0.1532697,0.07589 c 0.010671,0 0.01913,-0.0049 0.030787,0 a 0.34753035,0.34766335 0 0 1 -0.1223876,0.06121 c -0.024941,0.008 -0.056806,0.01238 -0.06123,-0.01463 -0.00415,-0.03426 0.023041,-0.0279 0.046052,-0.03132 0.028481,-0.0049 0.073382,-0.01425 0.1071375,-0.01463 m 4.25211,0 c -0.02099,0.0063 -0.03233,0.05483 0,0.06074 0.01456,-0.0089 0.01912,-0.03328 0.01456,-0.06122 -0.0073,-0.0089 -0.0073,0 -0.01456,0 m -0.01506,0.09207 c -0.0095,0.0049 -0.01948,0.0049 -0.03076,0.0151 0,0.03674 0.007,0.06022 0,0.09207 0.021,0.04017 0.06563,0.01281 0.07647,-0.0151 0.01318,-0.06807 -0.01456,-0.100357 -0.04609,-0.09207 m 0.21391,0.183601 c 0.02435,0.03919 0.06892,0.0671 0.122383,0.07637 0.01947,-0.01462 0.02152,-0.05139 0.03076,-0.07637 h -0.07647 c -0.02885,0 -0.05962,-0.01377 -0.07647,0 m -5.7199014,1.315712 c 0.080289,-0.0049 0.1038161,0.105273 0.1683513,0.137117 0.015936,0.0089 0.0401,0.01119 0.061212,0.01572 0.017055,0.0049 0.029249,0.0097 0.046062,0.01464 0.034184,0.01238 0.079372,0.0049 0.1071396,0.01572 0.041653,0.01862 0.071584,0.100854 0.1071351,0.122411 0.0015,0.02058 -0.0051,0.04506 0,0.06071 0.017057,0.02303 0.048344,0.03133 0.076441,0.04605 0.033372,0.01815 0.044969,0.0622 0.076451,0.07637 0.010261,0.0049 0.028854,-0.0049 0.046062,0 0.043106,0.01335 0.054821,0.07199 0.091975,0.06119 0.024369,-0.0067 0.02699,-0.03821 0.030785,-0.06119 0.015936,-0.01768 0.036293,-0.04556 0.061256,-0.04605 0.040569,0 0.046532,0.03671 0.061156,0.07637 0.00774,0.02254 0.024368,0.05287 0.030799,0.07637 0.0096,0.04065 0.00774,0.159147 0,0.183627 -0.0099,0.02937 -0.051911,0.04359 -0.076451,0.07636 -0.010977,0.01463 -0.021572,0.03426 -0.030799,0.04605 -0.015527,0.0196 -0.034131,0.02789 -0.046052,0.04605 -0.00571,0.0097 -0.00895,0.03231 -0.01498,0.04605 -0.019499,0.04163 -0.047042,0.07248 -0.030786,0.122411 0.00571,0.02058 0.030305,0.03723 0.030786,0.06122 0,0.02839 -0.056342,0.04556 -0.061214,0.07637 -0.00271,0.02303 0.023601,0.06171 0.030772,0.09207 0.00389,0.02303 0.047593,0.04605 0.061243,0.06121 0.023021,0.02594 0.040087,0.05874 0.061243,0.09158 0.041653,0.06367 0.066674,0.137117 0.1071387,0.198805 0.021021,0.03231 0.062216,0.05875 0.076441,0.09207 0.00679,0.0172 -0.0064,0.04606 0,0.06123 0.023599,0.05287 0.1300956,0.111647 0.183545,0.137604 0.024367,0.01242 0.053785,0 0.076441,0.01508 a 0.44983156,0.45000371 0 0 1 0.1223861,0.107228 c 0.015526,0.02744 0.023021,0.09457 0.030774,0.137115 0.0096,0.05776 -0.00176,0.106739 0,0.168938 0.0015,0.03376 0.014545,0.058219 0.014545,0.09201 0,0.01154 9.76e-4,0.03424 0,0.04614 -4.886e-4,0.04061 0.00304,0.08084 0,0.122413 a 0.36417266,0.36431203 0 0 0 0,0.06079 c 0.0017,0.02002 0.013844,0.02798 0.015525,0.04615 9.753e-4,0.01955 -0.017072,0.04661 -0.014976,0.06132 0.00346,0.04121 0.037756,0.06954 0.046062,0.107704 0.0051,0.02937 0.019132,0.101328 0.014544,0.137153 -0.0015,0.0195 -0.011141,0.04062 -0.014544,0.0613 -0.0015,0.01605 0.00175,0.03031 0,0.04615 -0.00209,0.02309 -0.016464,0.03958 -0.014982,0.06129 0.00209,0.04405 0.039128,0.07827 0.046062,0.122438 0.0017,0.01452 -4.932e-4,0.03196 0,0.0461 0,0.0129 0.010672,0.01862 0.014544,0.0308 A 3.4160766,3.4173839 0 0 1 6.9354491,10.764027 3.4581714,3.4594948 0 0 1 6.6148358,10.488342 l -0.014966,-0.01465 A 3.5389361,3.5402904 0 0 1 6.3088642,10.152422 C 6.2579222,10.087812 6.202175,10.021687 6.1556107,9.9536217 c -0.027456,-0.04065 -0.050941,-0.08037 -0.076454,-0.122412 -0.01553,-0.02491 -0.030775,-0.05099 -0.046036,-0.07641 a 3.2193058,3.2205378 0 0 1 -0.122429,-0.229647 c -0.024361,-0.04895 -0.039611,-0.101842 -0.061206,-0.153265 A 3.3000702,3.3013331 0 0 1 5.7118922,9.0046367 c -0.026405,-0.0901 -0.042125,-0.181175 -0.061248,-0.275194 -0.01455,-0.0715 -0.035662,-0.141517 -0.04602,-0.214473 a 3.2124533,3.2136827 0 0 1 -0.014971,-0.12241 3.4792196,3.4805511 0 0 1 0.015535,-0.780039 v -0.01464 c 0.030788,0 0.072912,-0.04556 0.1071373,-0.04654 m 1.315722,0.367252 c 0.031375,-0.01462 0.041163,0.05728 0.014544,0.06122 -0.024369,0.0049 -0.039088,-0.04993 -0.014544,-0.06122"
       id="path38"
       style="fill:#545f6e;fill-opacity:1;stroke-width:0.264583" />
  </g>
</svg>
