<?xml version="1.0" encoding="UTF-8" standalone="no"?>
<svg
   width="68"
   height="68"
   viewBox="0 0 17.991665 17.991665"
   version="1.1"
   id="svg1114"
   inkscape:version="1.3.2 (091e20ef0f, 2023-11-25)"
   sodipodi:docname="preferences-system-network-server-web.svg"
   xmlns:inkscape="http://www.inkscape.org/namespaces/inkscape"
   xmlns:sodipodi="http://sodipodi.sourceforge.net/DTD/sodipodi-0.dtd"
   xmlns:xlink="http://www.w3.org/1999/xlink"
   xmlns="http://www.w3.org/2000/svg"
   xmlns:svg="http://www.w3.org/2000/svg"
   xmlns:rdf="http://www.w3.org/1999/02/22-rdf-syntax-ns#"
   xmlns:cc="http://creativecommons.org/ns#"
   xmlns:dc="http://purl.org/dc/elements/1.1/">
  <style
     type="text/css"
     id="current-color-scheme">.ColorScheme-Highlight { color:#5599ff; }
</style>
  <defs
     id="defs1108">
    <linearGradient
       id="linearGradient12"
       inkscape:collect="always">
      <stop
         style="stop-color:#ffffff;stop-opacity:0;"
         offset="0"
         id="stop10" />
      <stop
         id="stop11"
         offset="0.65909404"
         style="stop-color:#ffffff;stop-opacity:0" />
      <stop
         style="stop-color:#ffffff;stop-opacity:1;"
         offset="1"
         id="stop12" />
    </linearGradient>
    <linearGradient
       id="linearGradient9"
       inkscape:collect="always">
      <stop
         style="stop-color:#000000;stop-opacity:0;"
         offset="0"
         id="stop1" />
      <stop
         id="stop8"
         offset="0.66102529"
         style="stop-color:#000000;stop-opacity:0" />
      <stop
         style="stop-color:#000000;stop-opacity:1;"
         offset="1"
         id="stop9" />
    </linearGradient>
    <linearGradient
       id="linearGradient7"
       inkscape:collect="always">
      <stop
         style="stop-color:#000000;stop-opacity:0;"
         offset="0"
         id="stop5" />
      <stop
         id="stop6"
         offset="0.6586886"
         style="stop-color:#000000;stop-opacity:0" />
      <stop
         style="stop-color:#000000;stop-opacity:1;"
         offset="1"
         id="stop7" />
    </linearGradient>
    <linearGradient
       id="linearGradient4"
       inkscape:collect="always">
      <stop
         style="stop-color:#000000;stop-opacity:0;"
         offset="0"
         id="stop2" />
      <stop
         id="stop3"
         offset="0.67055255"
         style="stop-color:#000000;stop-opacity:0" />
      <stop
         style="stop-color:#000000;stop-opacity:1;"
         offset="1"
         id="stop4" />
    </linearGradient>
    <linearGradient
       inkscape:collect="always"
       id="linearGradient899">
      <stop
         style="stop-color:#4f5d86;stop-opacity:1;"
         offset="0"
         id="stop895" />
      <stop
         style="stop-color:#5c679a;stop-opacity:1;"
         offset="1"
         id="stop897" />
    </linearGradient>
    <linearGradient
       id="linearGradient1167"
       x1="40.751999"
       x2="40.751999"
       y1="28.507999"
       y2="17.205999"
       gradientUnits="userSpaceOnUse">
      <stop
         style="stop-color:#84fb6e;stop-opacity:1"
         stop-color="#0ab816"
         offset="0"
         id="stop1163" />
      <stop
         style="stop-color:#0dd41a;stop-opacity:1"
         stop-color="#0cf36c"
         offset="1"
         id="stop1165" />
    </linearGradient>
    <linearGradient
       id="cornerBevel"
       inkscape:collect="always">
      <stop
         style="stop-color:#000000;stop-opacity:0;"
         offset="0"
         id="stop2663" />
      <stop
         id="stop2671"
         offset="0.66666675"
         style="stop-color:#000000;stop-opacity:0" />
      <stop
         style="stop-color:#000000;stop-opacity:1;"
         offset="1"
         id="stop2661" />
    </linearGradient>
    <linearGradient
       id="bevel"
       inkscape:collect="always">
      <stop
         id="stop2685"
         offset="0"
         style="stop-color:#000000;stop-opacity:1;" />
      <stop
         id="stop2687"
         offset="1"
         style="stop-color:#000000;stop-opacity:0;" />
    </linearGradient>
    <linearGradient
       id="highlightCorner"
       inkscape:collect="always">
      <stop
         style="stop-color:#ffffff;stop-opacity:0;"
         offset="0"
         id="stop2613" />
      <stop
         id="stop2621"
         offset="0.66666669"
         style="stop-color:#ffffff;stop-opacity:0" />
      <stop
         style="stop-color:#ffffff;stop-opacity:1;"
         offset="1"
         id="stop2611" />
    </linearGradient>
    <linearGradient
       inkscape:collect="always"
       id="highlight">
      <stop
         style="stop-color:#ffffff;stop-opacity:1;"
         offset="0"
         id="stop2921" />
      <stop
         style="stop-color:#ffffff;stop-opacity:0;"
         offset="1"
         id="stop2923" />
    </linearGradient>
    <radialGradient
       inkscape:collect="always"
       xlink:href="#highlightCorner"
       id="radialGradient15"
       gradientUnits="userSpaceOnUse"
       gradientTransform="matrix(0.04294597,-12.079348,17.933991,0.06376112,14.524179,-50.373789)"
       cx="-4.5799766"
       cy="-0.50206107"
       fx="-4.5799766"
       fy="-0.50206107"
       r="0.39687499" />
    <linearGradient
       inkscape:collect="always"
       xlink:href="#highlight"
       id="linearGradient15"
       gradientUnits="userSpaceOnUse"
       x1="-3.8453064"
       y1="-1.1532172"
       x2="-3.8453064"
       y2="-0.8954913"
       gradientTransform="matrix(6.0923077,0,0,6.0923077,32.228528,7.1537621)" />
    <radialGradient
       inkscape:collect="always"
       xlink:href="#linearGradient12"
       id="radialGradient17"
       gradientUnits="userSpaceOnUse"
       gradientTransform="matrix(-0.02247554,-12.045403,-17.967828,0.03352619,1.6640208,-50.22331)"
       cx="-4.575222"
       cy="-0.55256462"
       fx="-4.575222"
       fy="-0.55256462"
       r="0.39687499" />
    <radialGradient
       inkscape:collect="always"
       xlink:href="#linearGradient7"
       id="radialGradient18"
       gradientUnits="userSpaceOnUse"
       gradientTransform="matrix(0.06461187,12.09952,17.933731,-0.09576873,14.609502,64.748231)"
       cx="-4.4284906"
       cy="-0.50121039"
       fx="-4.4284906"
       fy="-0.50121039"
       r="0.39687499" />
    <linearGradient
       inkscape:collect="always"
       xlink:href="#bevel"
       id="linearGradient18"
       gradientUnits="userSpaceOnUse"
       x1="-3.8415797"
       y1="-1.4506671"
       x2="-3.8406549"
       y2="-1.1968651"
       gradientTransform="matrix(6.0923076,0,0,6.0923076,32.228527,-7.1537627)" />
    <radialGradient
       inkscape:collect="always"
       xlink:href="#linearGradient4"
       id="radialGradient20"
       gradientUnits="userSpaceOnUse"
       gradientTransform="matrix(-0.01031383,11.991438,-17.967296,-0.01545561,1.7353715,64.305742)"
       cx="-4.4236727"
       cy="-0.55004197"
       fx="-4.4236727"
       fy="-0.55004197"
       r="0.39687499" />
    <radialGradient
       inkscape:collect="always"
       xlink:href="#cornerBevel"
       id="radialGradient25"
       gradientUnits="userSpaceOnUse"
       gradientTransform="matrix(12.184614,0,0,12.184614,59.63122,10.377613)"
       cx="-4.4568658"
       cy="-0.44864327"
       fx="-4.4568658"
       fy="-0.44864327"
       r="0.39687496" />
    <linearGradient
       inkscape:collect="always"
       xlink:href="#bevel"
       id="linearGradient25"
       gradientUnits="userSpaceOnUse"
       x1="-3.8487544"
       y1="-1.146081"
       x2="-3.8455966"
       y2="-0.890971"
       gradientTransform="matrix(6.0923077,0,0,6.0923077,32.228528,7.1537627)" />
    <radialGradient
       inkscape:collect="always"
       xlink:href="#cornerBevel"
       id="radialGradient29"
       gradientUnits="userSpaceOnUse"
       gradientTransform="matrix(0,-12.184614,12.184614,0,11.27353,-44.427768)"
       cx="-4.5705457"
       cy="-0.48653662"
       fx="-4.5705457"
       fy="-0.48653662"
       r="0.39687496" />
    <radialGradient
       inkscape:collect="always"
       xlink:href="#cornerBevel"
       id="radialGradient30"
       gradientUnits="userSpaceOnUse"
       gradientTransform="matrix(-12.184514,-0.04945749,0.04847411,-11.942243,-43.502155,3.8519053)"
       cx="-4.5342312"
       cy="-0.60337442"
       fx="-4.5342312"
       fy="-0.60337442"
       r="0.39687496" />
    <radialGradient
       inkscape:collect="always"
       xlink:href="#linearGradient9"
       id="radialGradient31"
       gradientUnits="userSpaceOnUse"
       gradientTransform="matrix(0,-12.151612,11.978956,0,18.475664,-48.770776)"
       cx="-4.4175329"
       cy="-0.56489283"
       fx="-4.4175329"
       fy="-0.56489283"
       r="0.39687496" />
    <linearGradient
       inkscape:collect="always"
       xlink:href="#bevel"
       id="linearGradient34"
       gradientUnits="userSpaceOnUse"
       x1="-3.99717"
       y1="-1.2218677"
       x2="-4.0003276"
       y2="-0.96675771"
       gradientTransform="matrix(6.0923077,0,0,6.0923077,17.025077,8.0496826)" />
    <linearGradient
       inkscape:collect="always"
       xlink:href="#bevel"
       id="linearGradient35"
       gradientUnits="userSpaceOnUse"
       x1="-4.0919032"
       y1="-1.4492278"
       x2="-4.0950613"
       y2="-1.1972755"
       gradientTransform="matrix(6.0923077,0,0,6.0923077,16.129161,-7.1537627)" />
    <linearGradient
       inkscape:collect="always"
       xlink:href="#bevel"
       id="linearGradient36"
       gradientUnits="userSpaceOnUse"
       x1="-3.8734362"
       y1="-1.3717227"
       x2="-3.8765941"
       y2="-1.116071"
       gradientTransform="matrix(6.0923077,0,0,6.0923077,31.33261,-8.0496826)" />
    <linearGradient
       id="paint2_linear_77:3-7"
       x1="79.398094"
       y1="-197.84389"
       x2="82.901054"
       y2="-199.97827"
       gradientUnits="userSpaceOnUse"
       gradientTransform="matrix(1.9248511,0,0,1.7314595,-40.88733,399.61741)">
      <stop
         stop-color="#EBFAFF"
         stop-opacity="0.1"
         id="stop29-5-7"
         offset="0"
         style="stop-color:#c3c3c3;stop-opacity:1;" />
      <stop
         offset="1"
         stop-color="#70A9FF"
         stop-opacity="0.5"
         id="stop30-0-1"
         style="stop-color:#05c7ff;stop-opacity:0.80000001;" />
    </linearGradient>
    <linearGradient
       inkscape:collect="always"
       xlink:href="#linearGradient899"
       id="linearGradient926"
       x1="1.1249832"
       y1="-9.2589808"
       x2="16.919081"
       y2="-9.2251434"
       gradientUnits="userSpaceOnUse"
       gradientTransform="translate(-0.92604234,0.47624996)" />
    <linearGradient
       xlink:href="#bevel"
       id="linearGradient4304-3"
       x1="26.929001"
       y1="5.9949999"
       x2="47.120998"
       y2="37.126999"
       gradientUnits="userSpaceOnUse"
       gradientTransform="matrix(0.27781247,0,0,0.27781247,0.74083456,0.740834)" />
  </defs>
  <sodipodi:namedview
     id="base"
     pagecolor="#e2e2e2"
     bordercolor="#666666"
     borderopacity="1.0"
     inkscape:pageopacity="0"
     inkscape:pageshadow="2"
     inkscape:zoom="9.7248729"
     inkscape:cx="32.596827"
     inkscape:cy="56.45318"
     inkscape:document-units="px"
     inkscape:current-layer="layer1"
     inkscape:document-rotation="0"
     showgrid="true"
     units="px"
     inkscape:window-width="1920"
     inkscape:window-height="990"
     inkscape:window-x="0"
     inkscape:window-y="0"
     inkscape:window-maximized="1"
     inkscape:object-paths="true"
     inkscape:snap-grids="true"
     inkscape:snap-intersection-paths="true"
     inkscape:snap-smooth-nodes="true"
     inkscape:snap-midpoints="true"
     inkscape:showpageshadow="2"
     inkscape:pagecheckerboard="0"
     inkscape:deskcolor="#d1d1d1">
    <inkscape:grid
       id="grid2"
       units="px"
       originx="0"
       originy="0"
       spacingx="0.26458333"
       spacingy="0.26458333"
       empcolor="#0099e5"
       empopacity="0.30196078"
       color="#0099e5"
       opacity="0.14902"
       empspacing="5"
       dotted="false"
       gridanglex="30"
       gridanglez="30"
       visible="true" />
  </sodipodi:namedview>
  <metadata
     id="metadata1111">
    <rdf:RDF>
      <cc:Work
         rdf:about="">
        <dc:format>image/svg+xml</dc:format>
        <dc:type
           rdf:resource="http://purl.org/dc/dcmitype/StillImage" />
      </cc:Work>
    </rdf:RDF>
  </metadata>
  <g
     inkscape:label="Layer 1"
     inkscape:groupmode="layer"
     id="layer1">
    <g
       id="g918"
       transform="translate(0.47625037,0.92604234)">
      <rect
         ry="4.8357682"
         rx="4.8357682"
         style="fill:url(#linearGradient926);fill-opacity:1;stroke-width:6.09228"
         x="0.13229237"
         y="-16.457085"
         width="15.875001"
         height="15.875001"
         id="use1056"
         transform="rotate(90)"
         class="ColorScheme-Highlight" />
      <path
         d="m 5.344583,0.13229167 c -2.6384245,0 -4.76249953,2.12407483 -4.76249953,4.76249963 H 5.344583 Z"
         style="opacity:0.15;fill:url(#radialGradient25);fill-opacity:1;stroke-width:6.09228"
         id="path20" />
      <rect
         y="0.13229151"
         x="5.3445826"
         height="1.5875"
         width="6.3500004"
         id="rect20"
         style="opacity:0.15;fill:url(#linearGradient25);fill-opacity:1;stroke-width:4.83577;stroke-linecap:round;stroke-linejoin:round;paint-order:stroke fill markers" />
      <path
         d="m 0.58208347,11.244792 c 0,2.638424 2.12407503,4.762499 4.76249953,4.762499 v -4.762499 z"
         style="opacity:0.15;fill:url(#radialGradient29);fill-opacity:1;stroke-width:6.09228"
         id="use20" />
      <rect
         y="0.5820834"
         x="-11.244792"
         height="1.5875"
         width="6.3500004"
         id="use21"
         style="opacity:0.15;fill:url(#linearGradient34);fill-opacity:1;stroke-width:4.83577;stroke-linecap:round;stroke-linejoin:round;paint-order:stroke fill markers"
         transform="rotate(-90)" />
      <path
         d="m 11.694583,16.007291 c 2.638425,0 4.7625,-2.124074 4.7625,-4.762499 h -4.7625 z"
         style="opacity:0.15;fill:url(#radialGradient30);fill-opacity:1;stroke-width:6.09228"
         id="use22" />
      <rect
         y="-16.007292"
         x="-11.694584"
         height="1.5875"
         width="6.3500004"
         id="use23"
         style="opacity:0.15;fill:url(#linearGradient35);fill-opacity:1;stroke-width:4.83577;stroke-linecap:round;stroke-linejoin:round;paint-order:stroke fill markers"
         transform="scale(-1)" />
      <path
         d="m 16.457083,4.8947913 c 0,-2.6384245 -2.124074,-4.76249963 -4.7625,-4.76249963 V 4.8947913 Z"
         style="opacity:0.15;fill:url(#radialGradient31);fill-opacity:1;stroke-width:6.09228"
         id="use24" />
      <rect
         y="-16.457081"
         x="4.8947906"
         height="1.5875"
         width="6.3500004"
         id="use25"
         style="opacity:0.15;fill:url(#linearGradient36);fill-opacity:1;stroke-width:4.83577;stroke-linecap:round;stroke-linejoin:round;paint-order:stroke fill markers"
         transform="rotate(90)" />
      <path
         d="m 5.3445832,0.13229107 c -2.638425,0 -4.76250035,2.12407473 -4.76250035,4.76249973 H 5.3445832 Z"
         style="opacity:0.5;fill:url(#radialGradient15);fill-opacity:1;stroke-width:6.09228"
         id="path14" />
      <rect
         y="0.1322909"
         x="5.3445826"
         height="1.5875"
         width="6.3499999"
         id="rect14"
         style="opacity:0.5;fill:url(#linearGradient15);fill-opacity:1;stroke-width:4.83577;stroke-linecap:round;stroke-linejoin:round;paint-order:stroke fill markers" />
      <path
         d="m 11.694583,0.13229096 c 2.638425,0 4.7625,2.12407504 4.7625,4.76249734 h -4.7625 z"
         style="opacity:0.5;fill:url(#radialGradient17);fill-opacity:1;stroke-width:6.09228"
         id="use14" />
      <path
         id="path17"
         style="opacity:0.5;fill:url(#radialGradient18);fill-opacity:1;stroke-width:6.09228"
         d="m 5.3445834,16.00729 c -2.638425,0 -4.7625,-2.124075 -4.7625,-4.7625 h 4.7625 z" />
      <rect
         style="opacity:0.5;fill:url(#linearGradient18);fill-opacity:1;stroke-width:4.83577;stroke-linecap:round;stroke-linejoin:round;paint-order:stroke fill markers"
         id="rect17"
         width="6.3499994"
         height="1.5874999"
         x="5.3445826"
         y="-16.007292"
         transform="scale(1,-1)" />
      <path
         id="use17"
         style="opacity:0.5;fill:url(#radialGradient20);fill-opacity:1;stroke-width:6.09228"
         d="m 11.694582,16.007291 c 2.638425,0 4.7625,-2.124075 4.7625,-4.7625 h -4.7625 z" />
    </g>
    <path
       d="M 1.10482,5.661459 A 3.6851317,2.6809498 0 0 0 1.0583331,6.0677262 V 8.1361818 H 16.933309 V 6.0677262 c 0,-0.138378 -0.01899,-0.2734572 -0.04649,-0.4062672 z m -0.046486,4.536989 v 2.05587 c 0,0.142918 0.019842,0.282119 0.049327,0.418848 h 15.776332 c 0.02918,-0.136729 0.04934,-0.27593 0.04934,-0.418848 v -2.05587 z"
       opacity="0.45"
       id="path21"
       style="stroke-width:0.264583" />
    <path
       d="M 4.3991433,3.439583 H 5.4599166 V 3.9687501 H 4.3991433 Z"
       id="path23-6"
       style="fill:#00ff00;stroke-width:0.264583" />
    <path
       d="M 4.3991433,8.9958351 H 5.4599166 V 9.5250022 H 4.3991433 Z"
       id="path25-2"
       style="fill:#00ff00;stroke-width:0.264583" />
    <path
       d="M 4.3991433,14.022912 H 5.4599166 V 14.55208 H 4.3991433 Z"
       id="path27-9"
       style="fill:#00ff00;stroke-width:0.264583" />
    <path
       d="m 7.343416,3.439583 h 6.364638 V 3.9687497 H 7.343416 Z"
       fill="#ffffff"
       id="path10"
       style="stroke-width:0.264583" />
    <path
       d="m 7.343416,8.9958351 h 6.364638 V 9.5250022 H 7.343416 Z"
       fill="#ffffff"
       id="path10-1"
       style="stroke-width:0.264583" />
    <circle
       cx="13.030728"
       cy="12.501561"
       r="2.9765623"
       style="fill:#2a7fff;fill-rule:evenodd;stroke-width:0.264583;paint-order:fill markers stroke"
       id="circle24" />
    <path
       d="m 13.030736,10.517193 a 1.9843754,1.9843754 0 1 0 0,3.968748 1.9843754,1.9843754 0 0 0 0,-3.968748 z m 0,0.330728 c 0.05723,0 0.109804,0.0047 0.165368,0.01025 0.01318,0.0012 0.02812,-0.0016 0.04142,0 0.01747,0.0023 0.03445,0.0077 0.05152,0.01059 0.04768,0.0073 0.08832,0.01951 0.134605,0.03076 0.0846,0.02118 0.168674,0.04928 0.248035,0.08268 0.04341,0.01853 0.08229,0.04001 0.124037,0.06218 v 0.01025 c 0.0099,0.0042 0.01463,0.02216 0.0307,0.0311 0.0062,0.0034 0.0058,0.0073 0.01056,0.01024 0.0099,0.0054 0.02248,0.01124 0.02058,0.02083 -0.0031,0.01322 -0.0218,0.01024 -0.03105,0.02051 0.0021,0.01919 -0.01545,0.01819 -0.02057,0.03109 0.0036,0.0082 0.01916,0.01059 0.02057,0.02051 -0.0026,0.01059 -0.02441,0.0099 -0.02057,0.02083 0.01778,0.01388 0.03483,0.0034 0.05153,0 0.03712,-0.0047 0.07014,-0.0019 0.09298,-0.02083 -0.0036,-0.01752 0.03303,-0.01489 0.03103,-0.03075 0.01014,0.0066 0.02151,0.01322 0.03103,0.02051 -0.0039,0.0034 -0.0071,0.0086 -0.01056,0.01025 -0.0071,0.0033 -0.01426,0.0065 -0.02055,0.01059 l -0.03102,0.02051 c -0.008,0.0054 -0.0232,0.03109 -0.0307,0.03109 -0.01014,0 -0.02409,-0.01256 -0.03104,-0.01059 -0.01014,0.0034 -0.01014,0.01686 -0.0209,0.02083 -0.02177,0.0079 -0.06479,-0.0119 -0.07214,0.02083 0.0099,0.01884 0.04537,0.0099 0.06189,0.02051 a 0.10252608,0.10252608 0 0 1 0.03103,0.04133 0.19513015,0.19513015 0 0 1 0,0.06218 c -0.01018,0.02645 -0.04194,0.02083 -0.07247,0.02051 h -0.0209 c -0.05087,-0.0034 -0.100866,-0.02645 -0.124012,0.01024 0.0026,0.0281 0.0072,0.04796 0,0.07243 -0.0048,0.01787 -0.03181,0.03638 -0.0307,0.0516 0,0.0079 0.01855,0.01985 0.02055,0.03109 0.0021,0.0059 -0.0031,0.01489 0,0.02083 0.0091,0.01621 0.02641,-0.0034 0.04145,0 0.01459,0.0033 0.03103,0.02481 0.03103,0.04134 a 0.08598951,0.08598951 0 0 1 -0.01018,0.04134 c -0.01458,0.02183 -0.04145,0.01885 -0.06212,0.03075 -0.01711,0.0099 -0.02055,0.03473 -0.0307,0.05192 -0.01088,0.01853 -0.0252,0.02513 -0.02089,0.0516 a 0.12071606,0.12071606 0 0 1 -0.0621,0.06184 c -0.0095,0.0039 -0.02248,0.0047 -0.0307,0.01059 -0.0071,0.0047 -0.01162,0.02017 -0.02089,0.03075 -0.01163,0.01322 -0.02484,0.02118 -0.0307,0.03109 -0.0058,0.0077 -0.0059,0.02051 -0.01056,0.03109 -0.0076,0.01388 -0.02178,0.01686 -0.0307,0.03075 -0.0048,0.0066 -0.0062,0.02248 -0.01053,0.03109 -0.01055,0.01919 -0.02248,0.03505 -0.02055,0.05192 0.0026,0.01587 0.01978,0.01654 0.02055,0.03075 0.0016,0.0079 -0.01055,0.0119 -0.01019,0.02083 3.29e-4,0.01256 0.0099,0.02083 0.01019,0.03075 0.0031,0.02447 -0.01595,0.03505 -0.02055,0.05192 -0.0031,0.0079 0.0027,0.01388 0,0.02051 -0.0042,0.01225 -0.02058,0.0268 -0.02089,0.04134 0,0.01025 0.01978,0.01653 0.02089,0.03109 0.0011,0.0096 -0.01231,0.02183 -0.01055,0.0311 0.0039,0.01787 0.03797,0.0377 0.052,0.0516 0.01894,0.01885 0.04338,0.03176 0.05151,0.0516 0.0073,0.01686 0.0085,0.04961 0.02089,0.06218 0.0099,0.0093 0.02902,0.01059 0.04141,0.02051 0.01124,0.0089 0.01856,0.01091 0.0307,0.02083 0.02013,0.01587 0.0506,0.05391 0.08264,0.0516 0.01687,-0.0034 0.03301,-0.0172 0.052,-0.02083 0.01946,-0.0034 0.04194,-0.0119 0.06189,-0.0099 0.01515,0.0034 0.03566,0.01091 0.0515,0.0099 0.01662,-0.0034 0.03304,-0.0019 0.052,-0.0099 0.0327,-0.01455 0.08666,-0.03804 0.134275,-0.03141 0.03642,0.0054 0.03642,0.04598 0.06184,0.06218 0.02902,0.0034 0.04922,-0.0056 0.07247,0 0.01748,0.0042 0.03962,0.02745 0.04141,0.04134 0.0026,0.01423 -0.01891,0.03242 -0.02089,0.04134 -0.0048,0.01919 0.004,0.03969 0,0.0516 -0.0032,0.0099 -0.01055,0.02149 -0.01014,0.03109 0,0.0086 0.01163,0.02977 0.02056,0.04134 0.01086,0.01388 0.02811,0.02645 0.04143,0.04133 0.02408,0.02778 0.03477,0.05622 0.05151,0.09293 0.0046,0.0093 -0.0041,0.01919 0,0.03109 -0.0076,0.05556 -0.02583,0.0936 -0.06211,0.155112 -0.01685,0.01985 -0.04162,0.03703 -0.04144,0.06184 -0.0016,0.05952 0.03372,0.09756 0.03104,0.155112 -0.0061,0.07739 0.0061,0.08268 0,0.124023 0.02641,0.01322 0.008,0.05523 0,0.08269 -0.01124,0.03274 -0.02441,0.04001 -0.03071,0.06218 0.01748,0.0077 0.0423,0.0042 0.06186,0 l -0.03105,0.03076 a 1.7207841,1.7207841 0 0 1 -0.248052,0.206706 1.6338028,1.6338028 0 0 1 -0.56819,0.248047 1.6486841,1.6486841 0 0 1 -0.351563,0.03109 c -0.06275,0 -0.125018,-0.0033 -0.186201,-0.01025 -0.04835,-0.0056 -0.09725,-0.01124 -0.144528,-0.02083 -0.09356,-0.01919 -0.181571,-0.05854 -0.268883,-0.09294 -0.0036,-0.0056 -0.01086,-0.01388 -0.01014,-0.02083 0.01687,-0.0073 0.0492,0.02447 0.06189,0 0.0067,-0.01159 -0.0089,-0.03969 0,-0.0516 0.0062,-0.0079 0.03935,-0.0079 0.0515,-0.01025 0.01748,-0.0034 0.04162,-0.0056 0.05151,-0.01024 0.01088,-0.007 0.02288,-0.03141 0.02089,-0.05192 -0.0016,-0.0096 -0.01318,-0.0119 -0.02089,-0.02051 -0.0067,-0.0073 0.0048,-0.01388 0,-0.02083 -0.0085,-0.01158 -0.02786,-0.01388 -0.0307,-0.03075 0.02355,-0.0047 0.05856,0.01985 0.09262,0.01025 0.01662,-0.0047 0.04428,-0.03638 0.05201,-0.0516 0.0031,-0.0047 -0.0031,-0.01489 0,-0.02083 0.0036,-0.0059 0.0099,-0.01721 0.01018,-0.02051 0.0031,-0.0089 -0.0027,-0.0047 0,-0.01059 0.0062,-0.01654 0.02123,-0.02911 0.03104,-0.04134 0.008,-0.0093 0.02406,-0.02118 0.03105,-0.03075 0.0085,-0.01025 0.0058,-0.01158 0.01023,-0.02083 0.0058,-0.02977 -0.0175,-0.05622 -0.01023,-0.08268 0.0085,-0.02977 0.05385,-0.04828 0.08264,-0.06184 0.01014,-0.0047 0.02289,-0.0077 0.0307,-0.01059 0.01978,-0.0065 0.04375,-0.01389 0.06209,-0.02051 0.03104,-0.01124 0.03643,-0.03373 0.05151,-0.06218 0.0076,-0.01322 0.01946,-0.03141 0.02089,-0.04134 0.0021,-0.0086 -0.0026,-0.01025 0,-0.02051 0.0026,-0.0096 -0.0032,-0.01985 0,-0.03109 0.0039,-0.01423 0.01019,-0.0463 0.01019,-0.06184 0,-0.01323 -0.01014,-0.01919 -0.01019,-0.0311 -0.0031,-0.043 0.01513,-0.03869 0.0307,-0.06218 0.0085,-0.01158 0.01513,-0.03307 0.02089,-0.04134 0.02672,-0.03969 0.0757,-0.05324 0.07247,-0.11344 -0.0021,-0.01985 -0.01662,-0.06614 -0.03105,-0.07242 -0.0089,-0.0036 -0.01891,-0.0059 -0.03103,-0.01024 -0.0391,-0.01455 -0.0728,-0.05886 -0.113439,-0.06218 h -0.02087 c -0.01595,0 -0.03372,-0.0079 -0.05151,-0.01025 -0.01124,-0.0033 -0.03478,0.0034 -0.04142,0 -0.01018,-0.005 -0.01249,-0.02547 -0.02087,-0.03109 -0.0071,-0.0047 -0.02091,-0.0066 -0.0307,-0.01025 -0.01661,-0.0059 -0.02287,-0.01951 -0.04144,-0.02083 -0.0062,0 -0.01426,0.0034 -0.02089,0 -0.0102,-0.0034 -0.02146,-0.0042 -0.03105,-0.0099 -0.01195,-0.0077 -0.02606,-0.01059 -0.0307,-0.02083 0.01088,-0.03571 -0.02376,-0.04134 -0.03104,-0.06218 -0.0039,-0.0096 0.004,-0.03273 0,-0.04134 -0.0048,-0.01224 -0.01747,-0.02051 -0.03104,-0.03075 a 0.12369263,0.12369263 0 0 0 -0.07247,-0.03109 c -0.01514,-0.0034 -0.03337,0.0034 -0.05151,0 a 0.11773955,0.11773955 0 0 1 -0.06212,-0.03109 c -0.01394,-0.01621 -0.01859,-0.03373 -0.0307,-0.04134 -0.01163,-0.0074 -0.0232,-0.01322 -0.03105,-0.02083 -0.004,-0.0033 -0.0073,-0.0027 -0.01018,-0.0099 -0.0062,-0.01256 -0.01778,-0.01653 -0.01052,-0.03141 -0.01317,-0.0066 -0.0067,0.0129 -0.02057,0.01059 -0.01285,-0.01819 -0.02248,-0.03637 -0.05151,-0.03109 -0.01318,0.0033 -0.02584,0.03075 -0.04142,0.03109 -0.01317,0 -0.0244,-0.02845 -0.04142,-0.03109 -0.01318,-0.0034 -0.03248,0.0119 -0.04142,0.01025 -0.01426,-0.0034 -0.01827,-0.0119 -0.03104,-0.02051 -0.01014,-0.0066 -0.02581,-0.02118 -0.03103,-0.02083 -0.01662,0 -0.02871,0.03307 -0.05151,0.02083 -0.01124,-0.01422 0.02355,-0.01787 0.01023,-0.0311 -0.01014,-0.0096 -0.01249,0.0056 -0.02056,0.01025 -0.0099,0.0059 -0.0209,0.0065 -0.03105,0.01059 -0.02286,0.0086 -0.04428,0.01091 -0.06212,0.02051 a 0.06118491,0.06118491 0 0 0 -0.0307,0.03109 c -0.008,0.01389 -0.01946,0.04067 -0.03105,0.04134 -0.01392,0 -0.01859,-0.01521 -0.03105,-0.02083 -0.03796,-0.01653 -0.06159,0.0099 -0.09297,0.01059 -0.02902,0 -0.07371,-0.04497 -0.07247,-0.07277 0.0016,-0.01654 0.0091,-0.04102 0.01053,-0.06184 0.0021,-0.01654 0.02013,-0.03638 0.02055,-0.0516 3.27e-4,-0.02051 -0.03843,-0.02877 -0.05151,-0.03109 -0.03104,-0.0056 -0.06819,0.01388 -0.103518,0 -0.0071,-0.01124 0.0071,-0.01985 0.01053,-0.03075 0.0027,-0.0059 -0.0031,-0.01388 0,-0.02083 0.004,-0.01059 0.02585,-0.01985 0.0307,-0.03109 0.004,-0.0086 -0.004,-0.01985 0,-0.03075 0.0048,-0.0119 0.01981,-0.02248 0.02089,-0.0311 0.0021,-0.01124 -0.01193,-0.0238 -0.02089,-0.03109 -0.02748,0.0034 -0.04622,0.0023 -0.06184,0.01024 -0.03567,0.01654 -0.02606,0.06118 -0.06212,0.07242 a 0.30228641,0.30228641 0 0 1 -0.04141,0.01025 c -0.0062,0.0034 -0.01392,-6.61e-4 -0.02057,0 0.0011,-0.0034 -0.0011,-0.0065 0,-0.01025 0.0021,-0.0077 0.0091,-0.01322 0.01019,-0.02083 a 1.6238807,1.6238807 0 0 1 0.10353,-0.30989 h 0.01014 c 0.01282,0.0034 0.02057,0.01985 0.03137,0.02083 0.0302,0.0034 0.03676,-0.0281 0.06189,-0.04134 0.02586,0.0034 0.03875,-0.0034 0.06209,0 0.01595,0.0034 0.0391,0.01919 0.05152,0.02051 0.01054,0 0.01054,-0.01158 0.02056,-0.01025 0.01013,0.0034 0.02951,0.01885 0.03105,0.03075 0.0026,0.01489 -0.01459,0.03539 -0.01019,0.05192 0.01547,0.01587 0.05034,0.0215 0.07214,0.03075 0.01461,-0.01224 0.0031,-0.03439 0,-0.0516 0,-0.0077 0.0016,-0.02381 0,-0.03075 -0.0021,-0.0119 -0.01014,-0.02083 -0.01014,-0.03109 0,-0.0473 0.04027,-0.06417 0.07214,-0.08268 0.0136,-0.0079 0.02951,-0.02513 0.04141,-0.03109 0.01687,-0.0082 0.02751,-0.0023 0.04142,-0.01025 0.02521,-0.01423 0.04261,-0.03571 0.0621,-0.05192 0.0095,-0.02149 -0.0016,-0.05094 0,-0.0721 0.0095,-0.0056 0.0212,0 0.0307,0 0.01513,-0.0034 0.02248,-0.02248 0.03104,-0.03109 0.0058,-0.005 0.01459,-0.0054 0.02089,-0.01024 0.01482,-0.0119 0.01747,-0.02579 0.0307,-0.0311 a 0.08598951,0.08598951 0 0 1 0.02088,-0.01025 c 0.01014,-0.0034 0.02551,-0.0047 0.04142,-0.01059 0.01014,-0.0034 0.0373,-0.0059 0.04143,-0.0099 0.0058,-0.0054 -0.0021,-0.02381 0,-0.03141 0.0084,-0.03703 0.0596,-0.03903 0.09298,-0.0516 0.02321,-0.0086 0.04621,-0.03539 0.07247,-0.03075 -0.0058,0.01787 -0.02518,0.01985 -0.02089,0.04134 0.0059,0.02977 0.04143,-0.0062 0.05201,-0.01059 0.01981,-0.0086 0.05621,-0.02083 0.08266,-0.03075 0.02321,-0.0082 0.06276,-0.01489 0.04142,-0.04134 -0.01826,-0.0034 -0.02583,0.01389 -0.04142,0.02051 -0.01089,0.0034 -0.01163,-0.0093 -0.02089,-0.01025 -0.0095,0 -0.01162,0.0119 -0.02089,0.01025 -0.0095,-0.0034 -0.01911,-0.01985 -0.02056,-0.0311 -0.004,-0.02778 0.01978,-0.03109 0.03103,-0.0516 -0.008,-0.02513 -0.04109,-0.01091 -0.0621,-0.02083 a 0.03737234,0.03737234 0 0 1 0.03104,-0.03075 c 0.01426,-0.0034 0.05354,0.0027 0.06208,0.01025 0.0058,0.0042 -0.008,0.01389 0,0.02083 0.0091,0.0077 0.01981,0.0034 0.0307,0 0.0043,-0.01885 -0.02377,-0.0086 -0.02057,-0.02083 0.02248,-0.01455 0.06554,-0.0066 0.09298,-0.01025 a 0.22489577,0.22489577 0 0 0 0.05151,-0.02083 c 0.01318,-0.0077 0.01712,-0.02283 0.03105,-0.01025 0.0042,0.01357 -0.0032,0.02381 -0.01018,0.03109 -0.02551,0.02248 -0.05268,0.0463 -0.07248,0.0721 0.01232,0.0119 0.03104,0.0082 0.05152,0.01059 0.0085,0.0034 0.02288,-0.0016 0.03102,0 0.01014,0.0034 0.02319,-0.0034 0.03104,0 0.01396,0.0034 0.01711,0.03075 0.0307,0.03075 0.02248,0 0.01318,-0.02645 0,-0.04133 0.0042,-0.01555 0.01624,-0.03009 0.01054,-0.04133 -0.01018,-0.02051 -0.04968,0.0062 -0.052,-0.02051 -0.0016,-0.01654 0.0148,-0.01853 0.02089,-0.03109 -0.0032,-0.03176 0.02379,-0.03307 0.02089,-0.06184 -0.0026,-0.0119 -0.01251,-0.0096 -0.02089,-0.02083 -0.0048,-0.0059 -0.0058,-0.02646 -0.01014,-0.03075 -0.01711,-0.01455 -0.04967,-0.0034 -0.052,-0.03109 -0.0011,-0.01654 0.0031,-0.03407 0,-0.05192 -0.0027,-0.01654 -0.01661,-0.06879 -0.0307,-0.0721 -0.01859,-0.0039 -0.02983,0.03075 -0.052,0.04134 a 0.1243541,0.1243541 0 0 1 -0.05151,0.01025 c -0.0085,-0.0034 -0.0198,-0.005 -0.02056,-0.02083 -0.0021,-0.01388 0.01546,-0.01985 0.02056,-0.03075 0.0021,-0.0027 -0.0011,-0.0066 0,-0.01059 0.02408,-0.0066 0.04799,-0.01489 0.07247,-0.02051 0.01394,-0.0034 0.02751,-0.0077 0.04144,-0.01024 0.01014,-0.0019 0.02124,0.0016 0.03103,0 a 1.6562913,1.6562913 0 0 1 0.299642,-0.03109 z m -0.671722,0.155112 c -0.01053,0.06019 -0.06713,0.08433 -0.134605,0.08268 -0.01481,0.01455 -0.0027,0.04168 -0.01014,0.06184 -0.0076,0.01686 -0.03503,0.03242 -0.05199,0.0311 -0.01234,0 -0.03104,-0.01951 -0.03104,-0.0311 0,-0.01423 0.02286,-0.01455 0.01052,-0.03075 3.21e-4,-0.0033 0.0071,-0.0073 0.01014,-0.01059 0.0073,-0.0039 0.01426,-0.0062 0.02089,-0.01025 0.05976,-0.03703 0.121371,-0.06383 0.186188,-0.09294 z m 1.384777,0.06184 c -0.0062,0.0034 -0.0058,0.0073 -0.01023,0.01059 -0.01247,0.0077 -0.02146,0.01686 -0.03105,0.02051 -0.01318,0.005 -0.02875,0.0082 -0.0307,0.02083 -0.0027,0.0099 0.01053,0.01092 0.01014,0.02051 -0.0053,0.01225 -0.0076,0.01621 -0.01014,0.03109 0.01662,0.02745 0.0512,-0.0062 0.07214,-0.01059 0.0099,-0.0034 0.01595,-0.0023 0.02088,-0.0099 0.0058,-0.0093 0.0062,-0.01853 0.01019,-0.03141 0.0053,-0.01388 0.02248,-0.01852 0.02088,-0.03075 -0.0021,-0.01224 -0.03137,-0.02248 -0.052,-0.02083 z m -1.808439,0.206705 c 0.01545,0.01256 0.03767,0.03969 0.01013,0.05192 a 0.17065625,0.17065625 0 0 1 -0.05122,0.0099 c -0.004,0 -0.008,-0.0077 -0.01053,-0.0099 0.01712,-0.01654 0.03411,-0.03605 0.05202,-0.05192 z m 0.06185,0.06218 c 0.0085,0 0.01124,0.01985 0.02088,0.02051 0.0095,0 0.01513,-0.01159 0.02056,-0.01024 0.01393,0.0036 0.02354,0.03109 0.01018,0.04134 -0.01086,0.0033 -0.0125,-0.01159 -0.02056,-0.01024 -0.02248,0.0039 -0.03495,0.05292 -0.05201,0.0516 -0.01595,-0.0033 -0.02641,-0.04001 -0.01014,-0.0516 0,-0.0099 -0.0016,-0.01059 0,-0.02083 0.0053,-0.0059 0.01749,-0.02149 0.0307,-0.02051 z m -0.08265,0.01024 c 0.0053,0 0.0091,-0.0033 0.01014,0 -0.0031,0.01752 -0.0073,0.02283 -0.02055,0.03109 -0.02355,0.01423 -0.04396,0.03176 -0.05201,0.06184 -0.0027,0.0089 -0.02985,0.03307 -0.04143,0.03109 -0.02578,-0.0056 0.01482,-0.05457 0.02089,-0.06218 0.0072,-0.0082 0.01314,-0.01091 0.0209,-0.02051 0.0076,-0.0093 0.01318,-0.02579 0.02057,-0.03109 a 0.08135936,0.08135936 0 0 1 0.04144,-0.01025 z m 2.242665,0.0516 c 0.02641,-0.0033 0.03962,0.02579 0.052,0.04134 0.01013,0.01322 0.03533,0.03242 0.05151,0.04134 0.0099,0.005 0.02058,0.01621 0.03072,0.02083 0.02143,0.0096 0.06122,0.04067 0.06212,0.06184 3.41e-4,0.01059 -0.01195,0.02118 -0.01014,0.03109 0.01624,0.0034 0.03035,-0.02513 0.03071,-0.04133 0.03034,0.043 0.05659,0.08863 0.08264,0.134277 0.01248,0.02183 0.0298,0.03969 0.04141,0.06218 -0.01462,0.0042 -0.01825,0.0065 -0.02056,0.02051 -0.0037,0.01852 0.0072,0.04862 -0.02089,0.05192 -0.01713,0.0034 -0.03768,-0.01521 -0.06189,-0.02083 -0.01014,-0.0034 -0.0232,0.0033 -0.03106,0 -0.01824,-0.0059 -0.01517,-0.03044 -0.03071,-0.04134 a 0.16569535,0.16569535 0 0 0 -0.05201,-0.02083 c -0.0095,0 -0.01124,0.0034 -0.02054,0 -0.01124,-0.0034 -0.03211,0.0047 -0.04141,0 a 0.10616411,0.10616411 0 0 1 -0.03105,-0.03075 c -0.004,-0.01224 0.03037,-0.02083 0.03105,-0.0311 0.0011,-0.0079 -0.0095,-0.01884 -0.01056,-0.03109 -0.0016,-0.0073 0.0026,-0.01555 0,-0.02051 -0.0031,-0.0086 -0.01713,-0.0099 -0.03072,-0.01059 h -0.03104 c -0.01457,0 -0.04389,-0.0012 -0.06209,0 -0.01085,0 -0.02058,-0.0011 -0.0307,0 -0.02871,0.0034 -0.04998,-0.0034 -0.07248,0 a 0.20769795,0.20769795 0 0 0 -0.0621,0.02083 l -0.02058,0.01025 a 0.13592973,0.13592973 0 0 1 -0.02088,0.01059 c -0.0095,0.0042 -0.02178,0.01787 -0.0307,0.02051 -0.01318,0.0034 -0.02838,-0.0034 -0.052,0 -0.01662,0 -0.04077,-0.01091 -0.04143,-0.03109 0,-0.03075 0.05385,-0.01489 0.08263,-0.02051 0.01088,-0.0034 0.01778,-0.0129 0.03104,-0.02083 0.0071,-0.0034 0.0053,-0.0062 0.01053,-0.01025 0.01014,-0.007 0.02902,-0.02314 0.0307,-0.03109 0.0021,-0.0073 -0.0016,-0.01489 0,-0.02051 0.0021,-0.007 0.01196,-0.01159 0.02088,-0.02083 0.01393,-0.01389 0.02409,-0.03242 0.04142,-0.04134 0.01163,-0.0059 0.02551,-0.01092 0.0307,-0.02051 0.0021,-0.01059 0,-0.01091 0,-0.02083 a 0.04299475,0.04299475 0 0 1 0.02089,-0.01024 c 0.01778,-0.0039 0.0307,0.0011 0.05151,0 0.0095,0 0.02146,0.0042 0.03105,0 0.0085,-0.0054 0.01254,-0.01654 0.02089,-0.02083 a 0.08169007,0.08169007 0 0 1 0.0307,-0.0099 z m 0.18621,0.196454 h -0.04139 c -0.01459,0 -0.03305,-0.0077 -0.04141,0 0.01235,0.01985 0.03446,0.02613 0.06189,0.03109 a 0.0638308,0.0638308 0 0 0 0.02086,-0.03109 z m -2.2635,-0.186199 h 0.03105 c 0.0089,0 0.01713,-0.0034 0.02056,0 -0.0059,0.02183 -0.05516,0.01853 -0.07214,0.01059 0.0011,-0.0082 0.01014,-0.0093 0.02057,-0.01059 z m -0.07247,0.04134 c -0.01426,0.01059 -0.0287,0.02414 -0.0515,0.0311 -0.01257,0.0039 -0.02871,0.0036 -0.03105,-0.01024 -0.0031,-0.01721 0.01981,-0.0086 0.03105,-0.01025 0.01455,-0.0034 0.03472,-0.0099 0.0515,-0.01059 z m 2.149728,0 c -0.01086,0.0036 -0.01625,0.02778 0,0.0311 0.008,-0.0047 0.01256,-0.01654 0.01053,-0.03075 -0.0048,-0.0047 -0.0076,-0.0034 -0.01053,0 z m -0.02058,0.05192 c 0,0.01853 0.0039,0.03539 0,0.0516 0.01054,0.02051 0.03608,0.0034 0.04142,-0.01024 0.0067,-0.03439 -0.0058,-0.04564 -0.02088,-0.04134 -0.0059,0.0034 -0.01483,-0.0042 -0.02057,0 z m -2.739094,0.774899 c 0.01891,0.01686 0.02981,0.04067 0.05201,0.05192 a 0.15544267,0.15544267 0 0 0 0.0307,0.01025 c 0.0095,0.0033 0.01244,-0.0027 0.02089,0 0.0175,0.0059 0.03764,0.01422 0.05151,0.02083 0.02128,0.0093 0.04392,0.04102 0.06208,0.0516 0.0011,0.01059 -0.0039,0.02314 0,0.03075 0.0091,0.01158 0.0169,0.02315 0.0307,0.03109 0.01687,0.0093 0.02584,0.02381 0.04142,0.03109 0.0059,0.0034 0.01235,-0.0034 0.02089,0 0.02179,0.0066 0.03305,0.03638 0.05152,0.0311 0.01226,-0.0036 0.0091,-0.01919 0.01052,-0.0311 0.0089,-0.0089 0.01778,-0.02083 0.0307,-0.02083 0.02058,0 0.02354,0.03175 0.03104,0.05192 0.0048,0.01124 0.01778,0.01885 0.0209,0.03075 a 0.31187763,0.31187763 0 0 1 0,0.09326 c -0.0059,0.01521 -0.02902,0.01423 -0.04142,0.03075 -0.0062,0.0079 -0.0062,0.02547 -0.01054,0.03109 -0.0085,0.0099 -0.01461,0.01158 -0.02057,0.02083 a 0.14882811,0.14882811 0 0 0 -0.01055,0.02051 c -0.01014,0.02118 -0.02873,0.03638 -0.02058,0.06218 0.004,0.0099 0.02089,0.01853 0.02089,0.03075 0,0.01455 -0.02874,0.02547 -0.03104,0.04134 -0.0026,0.01158 0.0071,0.02613 0.01018,0.04134 0.0032,0.01159 0.02408,0.02349 0.03105,0.03109 0.01163,0.01322 0.02056,0.03539 0.0307,0.05192 0.02089,0.03208 0.03137,0.07177 0.05202,0.103188 0.01089,0.01621 0.03412,0.02415 0.04141,0.04134 0.0039,0.0086 -0.004,0.02315 0,0.03109 0.01194,0.02645 0.06619,0.05921 0.09298,0.07211 0.01255,0.0065 0.02979,0.0039 0.04143,0.01059 0.01747,0.0099 0.05293,0.03637 0.06209,0.0516 0.008,0.01389 0.0067,0.05028 0.01014,0.07242 0.0058,0.02911 -0.0016,0.05126 0,0.08268 0.0021,0.0172 0.01055,0.02415 0.01055,0.04134 v 0.03075 c -3.35e-4,0.02051 0.0027,0.04134 0,0.06218 a 0.19579162,0.19579162 0 0 0 0,0.03109 c 0.0016,0.0099 0.01013,0.01124 0.01017,0.02051 0.0011,0.0099 -0.01124,0.02349 -0.01017,0.03109 0.0031,0.02083 0.01661,0.03242 0.02088,0.0516 0.0039,0.0152 0.01231,0.05425 0.01014,0.07242 -0.0016,0.0096 -0.0091,0.01985 -0.01014,0.0311 -0.0016,0.0086 0.0016,0.01256 0,0.02051 -0.0016,0.0077 0.0027,0.01455 0,0.02083 -0.01056,-0.0066 -0.02088,-0.01389 -0.03105,-0.02083 a 1.7207841,1.7207841 0 0 1 -0.24803,-0.206707 l -0.03103,-0.03075 a 1.719792,1.719792 0 0 1 -0.165407,-0.206705 c -0.0053,-0.0065 -0.0062,-0.01422 -0.01014,-0.02083 a 1.595438,1.595438 0 0 1 -0.145008,-0.26887 c -0.0036,-0.0065 -0.0076,-0.01322 -0.01018,-0.02051 a 1.6595986,1.6595986 0 0 1 -0.09296,-0.32048 1.6562913,1.6562913 0 0 1 -0.03105,-0.299642 c 0,-0.07871 0.01014,-0.151804 0.02089,-0.227541 z m 0.640965,0.175949 c 0.01595,-0.0073 0.01286,0.01819 0,0.02051 -0.0123,0.0033 -0.01194,-0.01455 0,-0.02051 z"
       fill="#ffffff"
       id="path28-3"
       style="stroke-width:0.264583" />
  </g>
</svg>
